<svg version="1" xmlns="http://www.w3.org/2000/svg" width="110" height="110" viewBox="0 0 110 110"><circle cx="55" cy="55" r="55" fill="#25b7d3"/><path d="M87 73.727a2.908 2.908 0 0 1-2.91 2.91H25.91a2.908 2.908 0 0 1-2.91-2.91V33a2.908 2.908 0 0 1 2.91-2.91h58.18A2.908 2.908 0 0 1 87 33v40.727z" fill="#3e3e3f"/><path fill="#e2e4e5" d="M46.273 76.636h17.455v7.455H46.273z"/><path d="M69.545 85.545c0 .803-.65 1.455-1.455 1.455H41.91a1.455 1.455 0 0 1 0-2.91h26.18c.804 0 1.455.652 1.455 1.455z" fill="#f0f1f1"/><path d="M87 73.727V65H23v8.727a2.91 2.91 0 0 0 2.91 2.91h58.18a2.91 2.91 0 0 0 2.91-2.91z" fill="#FFF"/><path d="M55 74.91A3.913 3.913 0 0 1 51.09 71c0-2.155 1.755-3.91 3.91-3.91s3.91 1.754 3.91 3.91A3.913 3.913 0 0 1 55 74.91zm0-5.82A1.91 1.91 0 0 0 53.09 71a1.91 1.91 0 0 0 3.818 0A1.91 1.91 0 0 0 55 69.09z" fill="#cfd3d4"/><path d="M23 32.91v32h19.724L77.634 30H25.908A2.91 2.91 0 0 0 23 32.91z" fill="#5b5c5f"/><g fill="#FFF"><path d="M30.414 37.49c0-1.105.378-1.725 1.104-1.725.727 0 1.104.62 1.104 1.724 0 1.108-.378 1.728-1.104 1.728-.726 0-1.104-.62-1.104-1.73zm1.75 0c0-.975-.238-1.372-.645-1.372-.403 0-.645.397-.645 1.37 0 .98.242 1.377.644 1.377.405 0 .643-.398.643-1.376zm-.646-.316c.184 0 .32.14.32.315 0 .178-.136.32-.32.32a.313.313 0 0 1-.315-.32.31.31 0 0 1 .315-.316zM34.408 36.312l-.8.484-.212-.31 1.066-.664h.392v2.98h.683v.358H33.59v-.36h.82v-2.488zM41.06 36.273l.213.334-1.695 1.037 1.695 1.04-.233.326-1.846-1.153v-.43l1.866-1.154zM43.742 39.16v-1.564h-1.21v1.564h-.46v-3.337h.46v1.395h1.21v-1.395h.46v3.337h-.46zM46.264 36.21v2.95h-.46v-2.95h-1.032v-.387h2.538l-.048.387h-.998zM49.822 39.16l-.097-1.71a17.205 17.205 0 0 1-.02-1.12h-.014l-.527 2.234h-.44l-.553-2.233h-.02c0 .112.01.69-.01 1.12l-.08 1.71h-.427l.19-3.337h.61l.513 2.228h.02l.488-2.227h.615l.188 3.337h-.436zM51.03 39.16v-3.337h.46v2.935h1.517l-.053.402H51.03zM55.796 37.426v.43L53.95 39.01l-.233-.325 1.695-1.04-1.695-1.038.213-.334 1.866 1.153zM30.414 43.298c0-1.104.378-1.724 1.104-1.724.727 0 1.104.62 1.104 1.724 0 1.11-.378 1.73-1.104 1.73-.726 0-1.104-.62-1.104-1.73zm1.75 0c0-.974-.238-1.37-.645-1.37-.403 0-.645.396-.645 1.37 0 .98.242 1.376.644 1.376.405 0 .643-.398.643-1.376zm-.646-.315c.184 0 .32.14.32.315 0 .18-.136.32-.32.32a.313.313 0 0 1-.315-.32.31.31 0 0 1 .315-.315zM33.895 44.596h1.516l-.052.373h-1.986v-.355c1.153-1.143 1.507-1.604 1.507-2.107 0-.36-.243-.562-.568-.562-.276 0-.465.102-.67.358l-.31-.218c.263-.324.592-.514 1.004-.514.61 0 1.003.388 1.003.92-.002.583-.462 1.164-1.445 2.104zM41.06 42.082l.213.334-1.695 1.037 1.695 1.04-.233.326-1.846-1.154v-.43l1.866-1.154zM43.05 44.97h-.92V41.63h.847c.596 0 1.192.19 1.192.843 0 .426-.3.65-.582.712v.02c.334.062.727.256.727.808-.002.73-.64.954-1.266.954zm.01-2.975h-.47v1.046h.508c.388 0 .6-.16.6-.537 0-.368-.242-.508-.64-.508zm.07 1.414h-.542v1.186h.523c.326 0 .718-.092.718-.572 0-.49-.314-.615-.697-.615zM46.04 45.027c-.818 0-1.24-.683-1.24-1.72 0-1.016.422-1.733 1.24-1.733.82 0 1.24.693 1.24 1.73 0 1.016-.42 1.723-1.24 1.723zm0-3.076c-.542 0-.76.476-.76 1.357s.233 1.342.76 1.342c.544 0 .76-.466.76-1.348 0-.88-.217-1.35-.76-1.35zM48.66 44.97h-.78V41.63h.726c.79 0 1.574.266 1.574 1.652 0 1.394-.813 1.685-1.52 1.685zm.048-2.97h-.368v2.606h.373c.475 0 .978-.242.978-1.322 0-1.134-.527-1.284-.982-1.284zM52.082 43.685v1.284h-.465v-1.28l-1.124-2.06h.51l.852 1.633h.015l.857-1.632h.48l-1.125 2.055zM55.796 43.235v.43L53.95 44.82l-.233-.326 1.695-1.04-1.695-1.038.213-.334 1.866 1.153zM30.414 49.107c0-1.104.378-1.724 1.104-1.724.727 0 1.104.62 1.104 1.724 0 1.11-.378 1.73-1.104 1.73-.726 0-1.104-.62-1.104-1.73zm1.75 0c0-.974-.238-1.37-.645-1.37-.403 0-.645.396-.645 1.37 0 .98.242 1.376.644 1.376.405 0 .643-.398.643-1.376zm-.646-.315c.184 0 .32.14.32.315 0 .18-.136.32-.32.32a.313.313 0 0 1-.315-.32.31.31 0 0 1 .315-.315zM34.292 50.836c-.388 0-.785-.14-1.04-.45l.29-.242c.188.223.464.33.735.33.45 0 .722-.253.722-.66 0-.465-.287-.62-.68-.62h-.256l.053-.344h.175c.32 0 .62-.18.62-.567 0-.354-.27-.548-.615-.548-.286 0-.484.102-.702.305l-.242-.266c.286-.27.615-.393.97-.393.638 0 1.036.384 1.036.84 0 .406-.3.707-.635.77v.02c.368.023.74.3.74.808 0 .577-.47 1.018-1.173 1.018zM41.06 47.89l.213.335-1.695 1.037 1.695 1.04-.233.326-1.846-1.153v-.43l1.866-1.154zM43.742 50.778v-1.564h-1.21v1.564h-.46V47.44h.46v1.395h1.21V47.44h.46v3.337h-.46zM45.59 47.808v1.09h1.23v.368h-1.23v1.148h1.507v.363H45.13V47.44h1.928l-.053.368H45.59zM49.575 49.94H48.29l-.256.838h-.46l1.08-3.337h.58l1.08 3.338h-.483l-.255-.838zm-1.172-.373h1.06l-.517-1.71h-.02l-.523 1.71zM51.564 50.778h-.78V47.44h.727c.79 0 1.575.266 1.575 1.652 0 1.395-.814 1.686-1.52 1.686zm.048-2.97h-.368v2.606h.373c.475 0 .978-.242.978-1.322 0-1.133-.527-1.284-.983-1.284zM54.304 47.808v1.09h1.23v.368h-1.23v1.148h1.507v.363h-1.966V47.44h1.928l-.053.368h-1.416zM58.022 49.306L59 50.778h-.547l-.89-1.414h-.427v1.414h-.46V47.44h.877c.833 0 1.27.32 1.27.944-.002.5-.35.805-.8.922zm-.427-1.507h-.46v1.21h.465c.465 0 .73-.174.73-.625.002-.417-.236-.586-.735-.586zM61.605 49.044v.43L59.76 50.63l-.234-.325 1.695-1.04-1.694-1.038.213-.334 1.865 1.154zM30.414 54.916c0-1.104.378-1.724 1.104-1.724.727 0 1.104.62 1.104 1.724 0 1.11-.378 1.73-1.104 1.73-.726 0-1.104-.62-1.104-1.73zm1.75 0c0-.974-.238-1.37-.645-1.37-.403 0-.645.396-.645 1.37 0 .98.242 1.376.644 1.376.405 0 .643-.398.643-1.376zm-.646-.315c.184 0 .32.14.32.316 0 .18-.136.32-.32.32a.313.313 0 0 1-.315-.32c0-.174.136-.315.315-.315zM35.1 55.788v.8h-.43v-.8h-1.366v-.315l.978-2.282.373.156-.882 2.088h.896l.043-.872h.387v.872h.42v.354h-.42zM41.06 53.7l.213.334-1.695 1.037 1.695 1.042-.233.325-1.846-1.153v-.43L41.06 53.7zM42.284 57.09l-.36-.16 2.07-4.266.353.17-2.063 4.257zM46.646 56.587v-1.564h-1.21v1.564h-.46V53.25h.46v1.395h1.21V53.25h.46v3.337h-.46zM48.495 53.618v1.09h1.23v.368h-1.23v1.148h1.507v.363h-1.967V53.25h1.928l-.053.368h-1.415zM52.48 55.75h-1.285l-.257.837h-.46l1.08-3.337h.58l1.08 3.337h-.483l-.256-.838zm-1.173-.374h1.06l-.517-1.71h-.02l-.523 1.71zM54.468 56.587h-.78V53.25h.727c.79 0 1.574.266 1.574 1.652 0 1.395-.814 1.685-1.522 1.685zm.05-2.97h-.37v2.607h.374c.475 0 .978-.242.978-1.322 0-1.134-.528-1.284-.983-1.284zM57.208 53.618v1.09h1.23v.368h-1.23v1.148h1.507v.363h-1.967V53.25h1.928l-.053.368h-1.415zM60.926 55.114l.98 1.473h-.548l-.89-1.414h-.428v1.414h-.46V53.25h.877c.833 0 1.27.32 1.27.944 0 .5-.35.804-.8.92zm-.426-1.506h-.46v1.21h.465c.465 0 .73-.173.73-.624 0-.416-.236-.586-.735-.586zM64.51 54.853v.43l-1.847 1.154-.233-.325 1.695-1.04-1.695-1.038.213-.334 1.866 1.153z"/></g></svg>