<svg version="1" xmlns="http://www.w3.org/2000/svg" width="110" height="110" viewBox="0 0 110 110"><circle cx="55" cy="55" r="55" fill="#25b7d3"/><path d="M37 79s3.778-10.39-2.436-17.4a.998.998 0 0 1 .01-1.338C36.72 57.917 40.528 57.967 46 68c1.43 2.62 4.41 2.48 7 1 4.928-2.813 12.04-11.775 19.5-9.592a1 1 0 0 1 .425 1.667L47 87l-10-8z" fill="#fbc8c8"/><path d="M87 58a1 1 0 0 1-1 1H24a1 1 0 0 1-1-1v-2a1 1 0 0 1 1-1h62a1 1 0 0 1 1 1v2z" fill="#f0f1f1"/><path d="M55 27c1.042 0 2.034.046 3 .115V24a1 1 0 0 0-1-1h-4a1 1 0 0 0-1 1v3.115c.966-.07 1.958-.115 3-.115z" fill="#FFF"/><path d="M27 55s-1-28 28-28 28 28 28 28H27z" fill="#e2e4e5"/><path fill="#3e3e3f" d="M37 79l-10 8h20z"/><path d="M55 27c-29 0-28 28-28 28h28V27z" fill="#FFF"/><path d="M37 79s3.778-10.39-2.436-17.4a.998.998 0 0 1 .01-1.338C36.72 57.917 40.528 57.967 46 68c1.43 2.62 4.41 2.48 7 1 4.928-2.813 12.04-11.775 19.5-9.592a1 1 0 0 1 .425 1.667L47 87l-10-8z" fill="#fbc8c8"/><path d="M72.925 61.075a1 1 0 0 0-.425-1.667C65.04 57.226 57.928 66.188 53 69c-2.59 1.48-5.57 1.62-7-1-5.472-10.033-9.28-10.083-11.426-7.738a1 1 0 0 0-.01 1.337C40.778 68.61 37 79 37 79l2.727 2.182 30.975-17.884 2.223-2.223z" fill="#f7b4b4"/></svg>