<svg version="1" xmlns="http://www.w3.org/2000/svg" width="110" height="110" viewBox="0 0 110 110"><circle cx="55" cy="55" r="55" fill="#25b7d3"/><circle cx="50" cy="29" r="6" fill="#FFF"/><path d="M29.434 54.346l19.554-26.968c.34-.428.967-.502 1.373-.188l23.835 19.78 2.613-.43-25.194-20.908c-1.293-1.006-3.174-.78-4.218.538L26.63 54.808l2.804-.462z" fill="#3e3e3f"/><path fill="#0d9681" d="M78.61 50.3l3.9 23.682-51.307 8.455-3.902-23.68z"/><path d="M78.607 50.3l3.9 23.68L31.2 82.433l-3.9-23.68 51.307-8.454m1.65-4.3c-.255 0-55.33 9.09-55.582 9.13a2 2 0 0 0-1.648 2.298l4.552 27.628a2 2 0 0 0 1.97 1.675c.257 0 55.33-9.087 55.583-9.13a2 2 0 0 0 1.648-2.298l-4.55-27.627A2 2 0 0 0 80.257 46z" fill="#FFF"/><circle cx="50" cy="29" r="2" fill="#cfd3d4"/><path fill="#17b198" d="M31.2 82.433l.103-.017 29.122-29.122L27.3 58.752z"/><path d="M32.136 70.546l-.005-.032c-.518-3.15 1.542-6.137 4.96-6.7 3.417-.563 6.29 1.58 6.808 4.73l.005.03c.41 3.27-1.65 6.26-4.958 6.7-3.433.46-6.29-1.58-6.81-4.728zm9.226-1.52l-.005-.032c-.312-1.9-1.966-3.25-3.928-2.928-1.963.323-3.068 2.098-2.755 3.997l.005.03c.313 1.9 1.966 3.253 3.928 2.93 1.96-.323 3.067-2.098 2.754-3.997z" fill="#f0f1f1"/><path d="M43.903 68.575l-.005-.032c-.52-3.15-3.39-5.292-6.81-4.73-3.416.564-5.476 3.552-4.957 6.7l.006.033c.49 2.973 3.077 5.046 6.24 4.796l5.603-5.602a5.895 5.895 0 0 0-.077-1.165zm-5.297 4.448c-1.96.323-3.615-1.03-3.928-2.93l-.005-.03c-.313-1.9.792-3.674 2.754-3.997 1.962-.323 3.616 1.03 3.928 2.928l.005.032c.315 1.9-.79 3.674-2.754 3.997z" fill="#FFF"/><path d="M45.354 63.9a1.224 1.224 0 0 1 1.018-1.42l3.307-.545c2.642-.435 4.498.868 4.87 3.13l.006.033c.422 2.563-1.353 4.22-3.837 4.63l-1.853.305.362 2.2c.11.68-.338 1.306-1.02 1.418s-1.306-.336-1.418-1.017L45.354 63.9zm5.086 3.647c1.22-.2 1.81-1.046 1.655-1.995l-.005-.032c-.18-1.092-1.036-1.552-2.255-1.352l-1.883.31.558 3.387 1.93-.318z" fill="#f0f1f1"/><path d="M49.68 61.935l-3.308.545c-.68.112-1.13.74-1.018 1.42l.632 3.833 2.15-2.15-.183-1.105 1.542-.254 2.24-2.24a5.246 5.246 0 0 0-2.056-.05z" fill="#FFF"/><path d="M57.342 70.798l-1.423-8.64a1.225 1.225 0 0 1 1.017-1.42l6.14-1.01c.6-.1 1.172.31 1.27.912.1.602-.312 1.157-.914 1.256l-4.937.813.37 2.246 4.225-.696c.602-.1 1.173.31 1.272.912s-.313 1.157-.914 1.256l-4.225.696.383 2.326 5.016-.827a1.11 1.11 0 0 1 1.272.912c.1.602-.313 1.157-.915 1.256l-6.22 1.025a1.224 1.224 0 0 1-1.418-1.017zM66.506 60.35a1.225 1.225 0 0 1 1.017-1.42l.253-.04c.586-.098.98.13 1.384.502l5.716 5.397-.94-5.713a1.22 1.22 0 0 1 2.406-.396l1.45 8.813a1.225 1.225 0 0 1-1.017 1.42l-.08.012c-.585.097-.98-.13-1.383-.503l-5.927-5.59.978 5.934a1.217 1.217 0 0 1-2.404.396l-1.454-8.813z" fill="#f0f1f1"/></svg>