<svg id="Layer_1" xmlns="http://www.w3.org/2000/svg" viewBox="-99 0 400 200"><style>.st0{fill:none;stroke:#000;stroke-width:.5;stroke-miterlimit:10}.st1{enable-background:new}</style><path class="st0" d="M-4.4 105.6H276"/><path d="M-67.4 115.2c-.1.1-.1.2-.2.2M-65.4 100.2c.2 0 .4-.2.4-.4s-.2-.4-.4-.4-.4.2-.4.4.1.4.4.4zM-46.8 83.2h-14.5v11.7c0 1.1.5 2.1 1.1 2.4l5.6 3.3c.1.1.3.2.5.2s.3-.1.5-.2l5.7-3.4c.7-.3 1.1-1.3 1.1-2.4V83.2zm-9.7 3.4h-1.3v-3h1.3v3zm-.9 1l.2-.2-.1-.2h.2l.1-.2.1.2h.2l-.1.2.2.2h-.2v.2l-.2-.2-.2.2v-.2h-.2zm-3.5 3.8v-2.8h1.5v2.8h-1.5zm.3-4.2h.2l.1-.2.1.2h.2l-.1.2.2.2h-.2v.2l-.2-.2-.2.2v-.2h-.2l.2-.2-.1-.2zm1.7 2.9h.2l.1-.2.1.2h.2l-.1.2.2.2h-.2v.2l-.2-.2-.2.2v-.2h-.2l.2-.2-.1-.2zm1-2.3c0-.1-.1-.1-.2-.1s-.2.2-.3.2-.1 0-.1-.1.2-.1.2-.2c-.9 0-1 .4-1.1.4-.2 0 .2-.5.3-.6-.2 0-.3-.3-.5-.4.1-.1.2-.1.3 0 0-.1.1-.2.3-.2.4 0 .3.4.4.4.1 0 0-.4.3-.4.4 0 .9 1.1.5 1.1-.3.1-.1 0-.1-.1zm-1.1-3.1l.2-.2-.1-.2h.2l.1-.2.1.2h.2l-.1.2.2.2h-.2v.2l-.2-.2-.2.2v-.2h-.2zm-.4-1.1v3h-1.5v-3h1.5zm2.9 15.5L-60 97c-.6-.4-.9-1.1-.9-1.9v-3.3h4.4v7.3zm-1.2-7.7v-2.8h1.3v2.8h-1.3zm5.7 7.9l-1.6 1c-.1.1-.3.1-.4.1s-.3-.1-.4-.2l-1.6-1v-7.5h4.1l-.1 7.6zm0-7.9h-4.1v-7.8h4.1v7.8zm4.8 3.6c-.1.8-.4 1.5-.9 1.9l-3.5 2.1v-7.3h4.4V95zm0-3.6h-4.4v-7.8h4.4v7.8z"/><path d="M-56.7 94.4c0-.1-.5.2-.4.2 0-.2.3-.5.4-.6 0-.2-.3 0-.5.1.8-1.2.3-.7-.2-.6.7-.8.5-.8 0-.5.4-.3.5-.7.5-.9-.4.5-.8.4-.8.9 0 .3-.1.9-.3 1-.2.2-.1-.9-.6-.9-.2 0-.6 0-.7.2.1 0 .3.3.3.4s.1.4-.1.4-.4-.4-.4-.6v-.4c0-.5-.8-1.1-1.1-1.1 0 .3.4.4.4.8-.2 0-.4-.3-.4-.1 0 .2.3.2.3.4s-.3-.1-.3.1.2.1.2.3h-.3c0 .1 0 .1.1.2 0 0-.1.1-.1.4 0 .9.6 1.4 1 1.4.3 0 .3-.2.3-.3 0 .2.2-.1.2.2 0 .3-.3.2-.3.4 0 .3.5 0 .5.4s-.1.4-.1.6c0 .1.5-.2.5-.2.1 0 .1.4.3.4.1 0 .2-.4.3-.4-.1 0 .4.3.4.2 0-.4-.2-.2-.2-.5s.6-.2.5-.4c-.1-.1-.1 0-.2-.2 0 0-.5-.7.1-.3.6.4.7-.9.7-1zM-41.3 97.5c.3 0 .5-.2.5-.4s-.2-.4-.5-.4-.5.2-.5.4c.1.2.3.4.5.4zM-43.2 98.6c.3 0 .5-.2.5-.4s-.2-.4-.5-.4-.5.2-.5.4.3.4.5.4zM-66.1 101.3c.3 0 .5-.2.5-.4s-.2-.4-.5-.4-.5.2-.5.4.2.4.5.4zM-64.6 101.4c.3 0 .5-.2.5-.4s-.2-.4-.5-.4-.5.2-.5.4.2.4.5.4zM-23.4 81.4c.7.8.9 2.2.4 3.2-.3 0-.2-.4-.3-.6-.5-.9-.9-2.1-.5-3.2.4 0 .2.5.4.6zM-83.9 82.6c-.2.6-.2 1.5 0 2-.1.1-.1-.1-.2-.1-1-.7-.5-2.1-.8-3.1.1-.1.2-.1.2-.1.5.3.7.8.8 1.3zM-21.2 82.7c.1.3-.1.6-.3.7-.2.1-.5-.1-.6-.3-.1-.3.1-.5.3-.7.2 0 .4 0 .6.3zM-85.4 83.8c-.1.2-.1.5-.3.6-.2 0-.4 0-.5-.1-.2-.1-.2-.4-.1-.5.1-.2.3-.2.5-.2.1-.1.3 0 .4.2zM-20.2 84.2c.1.2.1.3 0 .4-.2.2-.4.3-.7.2-.2-.1-.2-.3-.3-.4.1-.2.2-.4.4-.5.3 0 .4.2.6.3zM-21.7 84.2c.2.1.1.4 0 .5s-.3.3-.5.3c-.1-.1-.3-.1-.3-.3 0-.3.1-.5.4-.6.2 0 .3 0 .4.1zM-23.5 84.6c0 .3 0 .6-.3.7s-.5-.2-.6-.4c0-.3.1-.5.4-.6.2 0 .4.2.5.3zM-82.7 84.7c.1.3-.2.4-.3.5-.2.1-.4-.1-.5-.3-.2-.2.1-.3.1-.5.3-.1.6.1.7.3zM-84.2 84.8c0 .2-.1.4-.3.5-.2.1-.4-.1-.5-.2-.1-.2 0-.5.2-.6.3-.1.5.1.6.3zM-29.6 84.9c.2.5.5 1.2.5 1.8-.1.5.1 1.1-.3 1.5-.4-.1-.4-.6-.6-.8-.5-.9-.1-1.9.1-2.8.2-.1.2.2.3.3zM-85.4 85.2c.1.3-.1.5-.3.6-.3.1-.5-.2-.6-.4 0-.2.1-.5.3-.6.3.1.5.2.6.4zM-25.6 86c.3.7.4 1.6.1 2.4l-.2.1c-.4-.7-.9-1.3-1-2.1 0-.5.1-1 .3-1.5.2-.1.3 0 .4.2 0 .4.1.7.4.9zM-22.4 85.5c0 .3-.1.5-.4.6-.2.1-.5 0-.6-.3s.1-.5.3-.6c.3-.2.5.1.7.3zM-84.1 86.3c0 .2-.2.4-.4.5-.2.2-.4-.1-.5-.2-.1-.2-.1-.4 0-.6s.2-.2.4-.2c.2.1.4.2.5.5zM-83 86.2c.1.2-.2.4-.3.5-.3.1-.5-.1-.6-.3-.1-.3.1-.4.3-.6.3-.1.4.1.6.4zM-21.7 86.1c0 .3-.5.7-.6 1-.3.7-.9 1.2-1.6 1.4-.1.1-.4.3-.6.3-.1-.5.4-1 .7-1.4.6-.7 1.3-1.1 2.1-1.3zM-84.6 87.2c.4.4.6.8 1 1.2 0 .1-.1.3-.2.3-1.2-.1-2.1-1.3-2.7-2.2.1-.3.4-.1.6-.1.4.2.9.3 1.3.8zM-21.4 87.5c-.1 1.1-.6 2.2-1.6 2.7-.3.1-.6.4-.9.2.5-1.1 1.3-2 2.2-3h.3v.1zM-26.2 88.2c.1.4-.1.6-.4.7-.3 0-.5-.2-.6-.4 0-.2.1-.5.4-.6.1-.1.2-.1.3-.1.1.2.1.3.3.4zM-86 88.5c.5.3.9.8 1.4 1.2-.3.2-.7 0-1.1 0-.9-.3-1.4-1-2.3-1.3 0-.3.4-.2.5-.3.5 0 .9.2 1.5.4z"/><path d="M-59 80.9c-1.4-.6-2.4.9-3.8.7-.2.1-.1.3-.2.4-.1.1-.2 0-.3 0-.1-.6-.3-1.2-.4-1.8-.1-.2-.1-.6-.2-.9-.8-2.2 2-.5 2.5-1.8.5-1.1-.9-1.2-1.4-2v-.3c-.4-.4-.8-.5-1.1-1.1.2-.6.2-1.3.1-2 0-.2-.1-.4-.4-.3-.5.7-.8 1.2-1.3 1.8-.5-.4-.9-.8-1.5-1.1-.4-.1-.7-.4-1.2-.3-.1.2 0 .3.1.4 0 1 .5 1.8 1.2 2.5l.1.4c-.5 1-.3 2.2-.5 3.4-1.1 2.9-3 5.7-5.5 7.7-1.4 1.6-3.2 3.2-3.4 5.4-.1.4.1.8-.2 1-.8-.3-1.7-.7-2.4-1.2-1.2-.8-2.8-.7-3.6-2.2-.3-.6.1-1.2.4-1.6.9-.8.7-2.3.3-3.3-.1 0-.1.1-.2.1-.1 1.5-1.3 2.5-.8 4.2.1.5.4.8.5 1.2-.2-.1-.4-.1-.6-.1-.6-.1-1.1-.3-1.7-.2-1.2.5-2.8-.1-3.7.9-.2 0-.4.1-.3.3.6 0 1.1.2 1.6.1.9.2 1.5-.6 2.1-.9h.2c.2-.3.7-.1 1-.2 1.6.2 2.8.9 4.1 1.7v.1c-.5.2-1.1.4-1.6.7-.6.4-1.2 1-1.4 1.7-.4.6.1 1.2.4 1.7 0 .3.1.6.3.7.8-.9.1-1.9.2-2.9.2-.8.9-1.1 1.6-1.3 1.4-.6 2.5.6 3.6 1.2 0 1.2.1 2.3-.1 3.4-.4.1-.8.2-1.2.2-2 .2-3.6 1.2-5.4 1.9-.8.3-1.8.3-2.6.6.6.2 1.3-.1 1.9-.1 2.5-.4 4.4-2.3 7-1.9l.1.1c-.3.6-.7 1.2-1.2 1.7-.1-.3-.1-.5-.4-.7-.2-.1-.4 0-.6.2-.1.1-.1.3 0 .4.1.2.3.3.5.4-.1.2-.3.3-.5.5-.7 1.2-2.2.7-3 1.6-.1.2-.6.3-.4.6 1 .1 1.9-.2 2.6-.7.9-1 1.9-2 2.9-3 .2.8-.1 1.7-.6 2.3-.2-.1-.4-.3-.7-.4-.3.1-.4.3-.5.5.1.2.2.4.4.5-.9.6-1.9.7-2.9.9-1.8.2-3.6.4-5.5.4-.9-.1-1.9.3-2.7 0-1 .2-2-.1-2.8.4-.1.1 0 .3 0 .4 1.2.8 2.8.2 4.1.4h10c.7 0 1.5-.1 2.1-.4 1.3-.7 2-2.1 2.7-3.4.2-.5.4-1 .5-1.5.2-.9 1-1.5 1.9-1.6.1 1.3-.1 2.6-.4 3.9-.2.8-.7 1.6-.4 2.5.1.4.5.4.8.5 3.1-.1 6.1-.2 9.3.1.6.1 1.1.3 1.7.3.1-.1.2-.1.2-.3-.1-.3-.3-.6-.6-.7-.1-.2-.3-.1-.4-.2-1.6-.9-3.6-.4-5.5-.4-1 .1-2 .3-2.8-.3-.4-.5-.1-1.9-.1-1.9 0-.6 1.4-4.6 1.6-4.9.1-.4.2-.7.2-1.2.7-.5.7-1.1.7-1.7.1-.8.5-1.6.8-2.4.1-.4.3-.8.4-1.2.2-.5.2-.9.5-1.3.8.5 1.6.5 2 1.4l.4 2.1c0 .1.1.4.3.2.7-.4.5-1.4.5-2.1.1-.8-.4-1.2-.6-1.9-.2-.1-.5-.7-.5-.7-.1-.6-1.3-.9-1-1.6.2-.6.3-1.1.9-1.5.1.1.1.1.1.2h.2v-2.1c.8 0 2 .1 2.9.1.2.1.4.3.7.3l.2-.3 2-.4c-.9 0-1.5-1-2.3-1zM-56.8 81.8h.2-.2z"/><path d="M-78.8 88.9c0 .3-.2.5-.4.6-.2-.1-.4-.1-.5-.3-.1-.3.2-.5.4-.6.2.1.5.1.5.3zM-80.4 88.9c.2.2.2.4.1.6-.2.2-.5.3-.6.1-.2-.2-.3-.3-.2-.5.2-.2.5-.4.7-.2zM-26 89.6c.1.3-.1.5-.3.6-.3-.1-.6-.1-.6-.5 0-.2.2-.3.4-.4.2 0 .4.2.5.3zM-24.6 89.6c.1.1.2.3.1.5-.1.1-.2.1-.2.2-.3.1-.5-.1-.6-.3-.1-.3.2-.4.4-.5 0-.1.1 0 .3.1zM-86.8 89.9c-.1.3-.4.4-.7.3-.1-.1-.2-.2-.2-.3 0-.2.1-.4.3-.4.3 0 .6.1.6.4zM-78.2 90.3c0 .2-.3.4-.4.5-.3 0-.4-.2-.6-.4 0-.2.1-.5.3-.5.3-.1.6.2.7.4zM-79.7 90.2c.1.1.2.3.1.4-.2.1-.4.4-.6.2-.2-.1-.3-.2-.3-.5.1-.1.2-.3.4-.3.1-.1.2.1.4.2zM-20.8 90.5c0 .2-.2.4-.3.5-.2.1-.4 0-.6-.1-.1-.1-.1-.3-.1-.4.1-.2.3-.3.5-.3.3 0 .4.1.5.3zM-19.1 90.7c-.1.2-.2.4-.5.5-.2 0-.4-.1-.4-.3 0-.2.1-.4.2-.4.3-.2.6-.1.7.2zM-83.9 91c.1.3-.1.5-.3.6-.2.1-.4 0-.5-.1s-.2-.3-.1-.5.3-.2.4-.3c.3.1.4.2.5.3zM-82.6 91.3c.1.2-.2.3-.2.4-.1.1-.3.2-.5.1-.2-.2-.4-.4-.2-.6.2-.4.7-.2.9.1zM-22.3 91.2c0 .2-.2.4-.4.6-.2.1-.5-.1-.5-.3 0-.2.1-.4.3-.5.3-.1.5-.1.6.2zM-20.2 91.6c-.1.2 0 .5-.3.6-.2.1-.5 0-.6-.1s-.2-.4-.1-.5c.1-.2.4-.4.6-.3.2 0 .3.2.4.3zM-84.8 92.1c.1.2-.1.3-.2.4-.2.1-.4 0-.5-.1-.2-.1-.1-.4-.1-.5.2-.4.7-.1.8.2zM-21.8 92.6c.1 0 .1.2 0 .2-.6.3-1.5.4-2-.1-.3-.3-.7-.4-1-.6.1-.3.6-.3.9-.4.7.2 1.3.9 2.1.9zM-83.6 92.3c.1.2-.1.3-.2.4-.1.2-.3.1-.4.1-.2-.2-.3-.4-.2-.6.3-.3.6-.1.8.1zM-81.4 92.5c.1.2-.1.4-.2.6-.2.1-.3-.1-.5-.1-.1-.2-.4-.4-.1-.6.2-.4.6-.2.8.1zM-52.2 93.6c-.1.5-.9-.1-.8.6.1.5.2 1.1.5 1.4.2.3.1.9.1 1.3-.2.4-.6.6-1 .8-.7-.1-1.8.4-2.1-.5-.1-.4-.4-.8-.4-1.2.1-.1.2-.1.2-.1 0-.2-.2-.3-.2-.4.8-.1-.3-.9.4-.9.6.6 1.5.4 2 1.1.1.1.2.2.4.3-.1-.6-.4-1.2-.5-1.9-.1-.3.1-.7.3-.8.5-.5.9 0 1.1.3zM-79.2 93.4c.1.3-.1.4-.3.5-.2.1-.4-.2-.5-.3-.1-.3.1-.4.3-.5.2.1.4.1.5.3zM-63.6 93.7c.3 1 .2 2-.3 2.9 0 .2.1.5-.2.5-.7-.9-.2-2.3.1-3.3 0-.3.4-.4.4-.1zM-41.9 94.1c.4.7.4 1.7.1 2.4l-.2.2c-.3-.6-.5-1.2-.6-1.8.1-.5.3-.9.3-1.3.3-.1.3.4.4.5zM-77.2 94.4c-.2.3-.6.4-.9.6-.6.5-1.5.6-2.2.4.7-.9 1.7-1.5 2.9-1.2 0 .2.2.1.2.2zM-87.6 95.3c.9.7 1.2 1.6 1.7 2.5.1.1.3.1.2.3-.2.2-.4-.2-.7-.1-1-.4-1.6-1.5-1.5-2.6.1-.1.2-.1.3-.1zM-42.9 96.1c0 .3 0 .5-.2.6-.3.1-.5-.1-.6-.3-.1-.2.1-.3.1-.4.2-.2.5-.1.7.1z"/><path d="M-32.3 97.5c0-.5.1-.9.2-1.4.1-.2.1-.3.1-.5.6-.8 1.8-.6 2.8-.5.4.2.9.2 1.3.3.2-.1.4-.2.6-.1.8-.4.3-1.4.3-2.1l-.3-.8c-.1-.2-.2-.3-.2-.5-.1-.2-.2-.5-.4-.7-.4-1.1-1.3-1.8-2-2.6-1.3-1.7-3.3-2.6-5.3-3.3-2-.7-4 .2-5.8.8-.5-.2-.8-.6-1-1.1-.1-1 .1-1.9.5-2.7.1-.6.5-1.1.7-1.7.5-1.4.9-2.8 1-4.4.1-.9-.7-1.6-1.4-2-.5-.1-1-.1-1.4.3-.3.7-1 1.2-1.6 1.5-.1.4.5.2.7.3.6.1 1.2-.1 1.6.3.1 1-.5 1.9-1.1 2.6-.9 1.3-1.8 2.6-2.3 4l-.1-.1.1 6.2c.8 1.3 1.8 2.9 3.3 3.4.8.7 1.8 1.5 2.9.9.6-.2.6.6.9 1 .3.9-.4 1.6-.4 2.5l-.7 1.4c-.8 1.5-1.4 3.1-2.6 4.3-.4 0-.6.4-1 .4-.2.3-.6.1-.9.2-.8.3-1.9.1-2.4.9.1.1.1.1.2.1 1.5 0 3.3.1 4.9.1.2-.1.4-.3.4-.5-.2-.4.1-.8.3-1.1.1-.6.5-1 .7-1.6.5-1 1.1-2.1 1.7-3.1l.8-1.3c.2-.4.5-1 .8-1.4.2-.2.3-.4.5-.7 0-.3-.1-.4-.2-.5.2-.2.5-.1.7-.2.6.4 1.3 1 1.4 1.7l.2.7.1.3-.1.8.1.8c.1 1.2-.1 2.5-.2 3.7-.4 1.5-2.1 1.3-3.3 1.7-.3.2-.9.1-.9.6 1.5.3 3.2.1 4.7.1.2-.1.3-.3.4-.6.1-.3.4-.6.3-1-.3-.4 0-.9-.1-1.4.1-.1.1-.3 0-.5.2-.7.2-1.6.3-2.3l.2-1.2zM-19.8 96.5c-.8 1.1-1.7 2.4-3.1 2.9-.1 0-.2.1-.2-.1.9-.9 1.3-2.3 2.7-2.7.1-.1.4-.2.6-.1zM-88.8 97.7c-.1.1 0 .3-.2.4s-.4 0-.5-.2c-.1-.3.1-.5.3-.6.1.1.3.2.4.4zM-81.5 98.1c.1.2-.2.2-.3.3-1.1.4-2.1 0-2.9-.7 0-.1 0-.2.1-.2 1 .2 2.2 0 3.1.6zM-87.4 97.8c.1.1.1.3.1.4-.2.2-.4.3-.6.2-.2-.1-.2-.2-.3-.3 0-.3.2-.4.4-.5.1 0 .2 0 .4.2zM-63.8 97.9c.1.2-.2.4-.3.5-.2.1-.4-.1-.5-.2-.1-.2 0-.4.2-.5.2-.1.6 0 .6.2zM-18.9 98c.1.2-.1.4-.3.5-.2.1-.3 0-.5-.1 0-.1-.2-.2-.1-.4s.3-.3.6-.3l.3.3zM-17.2 97.9c.2.2 0 .4-.1.6s-.3.2-.5.2c-.2-.2-.4-.2-.4-.5 0-.2.2-.4.4-.4.3-.2.4.1.6.1zM-89.9 98.6c0 .2-.1.3-.2.4s-.2.2-.4.1-.3-.2-.4-.4c.1-.2.2-.4.5-.5.2.1.4.2.5.4z"/><path d="M-36.7 98.6c.1.1 0 .2 0 .3-.2.2-.4.4-.6.2-.2-.2-.3-.3-.2-.5.2-.2.6-.3.8 0zM-85.8 99c-.1.2-.1.4-.4.4s-.3-.2-.4-.3c0-.2 0-.5.2-.6.3-.1.6.2.6.5zM-88.2 99.1c.1.3-.1.4-.2.6-.3.1-.6-.1-.7-.4 0-.2.2-.5.5-.6.1 0 .2.2.4.4zM-35 99c.1.2 0 .5-.3.6s-.6-.2-.7-.4c.1-.2.2-.5.5-.5.2 0 .4.1.5.3zM-87.1 99.1c.1.2-.1.3-.1.4-.1 0-.2.2-.4.1-.1-.1-.3-.2-.3-.4 0-.3.2-.4.3-.5.3 0 .5.2.5.4zM-20.3 99.3c-.1.2-.2.3-.4.4-.2.1-.3-.1-.5-.2-.1-.1-.1-.3 0-.5.2-.4.9-.2.9.3zM-18.4 99.4c-.1.3-.4.4-.6.4-.2-.1-.5-.3-.3-.6.1-.1.1-.2.3-.2.3-.1.6.2.6.4zM-30.3 99.6c.1.3-.2.4-.4.6-.2 0-.3-.1-.5-.2-.1-.3.1-.5.4-.7.2 0 .3.1.5.3zM-37.3 99.9c.1.1.1.2.1.3-.2.1-.4.4-.6.2-.2-.1-.3-.3-.3-.5.1-.2.7-.3.8 0zM-35.9 100.1c0 .2 0 .3-.2.4-.2.2-.4 0-.6-.1-.1-.1-.1-.3 0-.4s.2-.2.3-.2c.2.1.4.1.5.3zM-78.8 100.1c.2.2 0 .3-.1.5s-.4.3-.6.1c-.2-.1-.2-.4-.2-.6.2-.1.2-.2.4-.2.3 0 .4.1.5.2zM-27.6 100.2c.1.3-.2.4-.4.4-.3.1-.5-.1-.6-.3 0-.2.1-.2.2-.4.3-.1.6.1.8.3zM-29 100.2c.1.3-.2.4-.3.5-.2.1-.4.1-.6-.1-.1-.1-.1-.2-.1-.4.2-.1.2-.3.4-.3.3 0 .5.1.6.3zM-17.6 100.5c.1.4-.4.2-.6.3-1.1.6-2.4.2-3.4-.2.1-.3.5-.2.7-.3 1-.8 2.1.1 3.3.2zM-86.8 100.2l-.1.2c-.9.6-2.1.9-3.3.6l-.1-.2c1-.7 2.2-.8 3.5-.6zM-25.1 100.4c0 .2-.1.4-.2.5-.2.1-.6 0-.7-.3-.1-.2.1-.4.3-.5.2 0 .5 0 .6.3zM-82.3 100.5c-.1.2-.1.4-.3.5s-.6-.1-.6-.3c-.1-.3.1-.4.2-.5.4-.2.6.1.7.3zM-84 100.6c.1.2-.1.3-.1.4-.1.2-.4.1-.5.1-.2-.2-.4-.3-.3-.6.2-.1.2-.2.4-.3.2.1.4.2.5.4zM-23.3 101.2c0 .2-.2.4-.4.5-.2 0-.4-.1-.5-.3-.1-.2-.1-.4.1-.5.1-.1.2-.1.3-.1.3 0 .5.2.5.4zM-85.9 100.9c.1.2-.1.3-.1.4-.1.4-.4.7-.5 1.1-.5.6-1.2.6-1.8.8l-.1-.2c.6-.9 1.4-1.7 2.5-2.1zM-24.6 101.5c.1.3-.2.4-.4.5-.2 0-.4-.1-.5-.3-.1-.3.2-.4.3-.5.3-.1.6.1.6.3zM-83 101.5c0 .1 0 .1 0 0 .1.4-.1.5-.3.6-.2 0-.4-.1-.6-.2-.1-.2 0-.5.2-.6.3-.1.6-.1.7.2zM-19.9 102.2c.2 0 .3-.3.6-.4.2-.1.5.1.6.3.1.3-.1.5-.3.6-.2.1-.6-.2-.5.2.2.1.3.3.4.5-.1.1-.2.1-.3 0-.7-.3-1.5-.8-1.8-1.6-.1-.2-.6-.4-.3-.6.6 0 1.2.6 1.6 1zM-17.5 101.5c.1.1.1.4 0 .5-.1.3-.5.2-.7.1-.1-.1-.2-.3-.2-.5.1-.2.2-.2.4-.3.2-.1.3 0 .5.2zM-26.7 102.8c.2.3.5.7.6 1-.1.1-.2.1-.2.1-.9-.5-2-1-2.3-2-.1-.1-.3-.2-.2-.4.7-.1 1.3.4 1.7.7.1.2.3.4.4.6zM-84.4 101.9c.1.2-.1.4-.2.5-.3.1-.4-.1-.6-.2-.2-.3.2-.5.4-.6.1-.1.2.1.4.3zM-23.5 102.5c0 .2-.2.3-.2.4-.2 0-.4.1-.6-.1-.1-.1-.2-.3 0-.5.2-.4.6-.1.8.2zM-17.2 102.8c.1.3-.2.5-.4.6-.2.1-.5-.1-.6-.2-.1-.2 0-.3 0-.5.2-.2.4-.3.7-.2l.3.3zM-34.7 106.3c0 .3-.6.2-.8.5-.8.4-1.7.4-2.7.4v-.2c1-.8 2.3-1 3.5-.7zM-71.6 107.4c0 .2-.2.4-.4.4s-.4-.1-.4-.2c-.1-.3.2-.4.3-.6.3.1.5.2.5.4zM-35.1 107.7c-.1.2-.1.5-.4.6-.2.1-.4-.1-.6-.2-.1-.1-.1-.3-.1-.4.2-.5.9-.5 1.1 0zM-30.1 107.8c-.6.4-1.3.9-2.2.9h-1.4l-.1-.1c.8-1 2.4-1 3.7-.8zM-78.5 108.4c0 .2-.1.4-.3.5-.2.1-.4-.1-.5-.2-.1-.2 0-.5.2-.6.2-.2.5.1.6.3zM-77.2 108.7c.1.1-.1.2-.1.3-.1.1-.4.1-.5 0-.2-.1-.2-.3-.2-.4.1-.2.2-.1.3-.2.2 0 .4.1.5.3zM-86.9 111.2c-.2.3-.7-.1-.9-.2-.9-.5-.9-1.5-1.7-2.1.1-.3.3 0 .5 0 .2.1.4.2.5.3.8.5 1 1.3 1.6 2z"/><path d="M-13.2 101.4c-.4-.7-1.1-1-1.9-1-.7.1-1.1.5-1.4 1-.2.6.1 1.1.5 1.4.2.1.4.1.5-.1.1-.3-.2-.3-.3-.6-.1-.4 0-.7.3-.9.2-.3.7-.1 1-.1.3.2.6.4.8.7.2.4.2.9 0 1.3-.3.6-.9 1.1-1.6 1.3-2.1.3-25.1.2-25.1.2-2.7.3-5.8-.5-8.1.9-1.1.5-1.6 1.7-1.9 2.7-.7.6-1.4 1.3-2 2l-.1-.1c.1-.6.4-1.2.5-1.8.4-.5.4-1.2.7-1.8 1-1.6 1.9-3.1 3.4-4.2.6-.8 1.7-.7 2.7-.7 1 .5 2.2.6 3.5.5.1-.1.1-.1.1-.2-.4-.3-.9-.5-1.3-.8-1-.5-2 .2-3 .1-.1-.1-.1-.1-.1-.2 1-.7 2.1-1.2 3.1-1.7.9-.5 1.8-.7 2.8-1.1.4 0 .7-.3 1.1-.1l1.3-.4c.1 0 .1.1.2.1 1.1-.4 2.6 0 3.9-.1l.2.2 1.2.3c.5.1.7.6 1.1.6.2-.4-.3-.5-.4-.7.6-.1 1.2 0 1.7.3l-.2.3c-.1.3.1.5.3.6.2.1.3-.1.4-.1.3-.2 0-.5.1-.7 1.9.3 3.7.8 5.4 1.5.5.2.9.5 1.5.5-.5-.5-1.3-.7-1.9-1-.4-.3-1-.3-1.4-.6.1-.1.2-.1.3-.2.9-.1 1.6-.7 2.2-1.4.1-.2.3-.1.3-.3-.2-.3-.6.1-.9.1-1.1.2-1.5 1.5-2.6 1.7l-3.9-.9c-.6-.1-1.3-.2-1.9-.4l-1.4-.1h-2.6c0-.1-.1-.1-.1-.2.9-.2 1.7-.8 2.6-1l6.8-3.1c.7-.6 1.3-1.3 1.9-2.1 0-.2-.1-.4-.3-.5-.2-.1-.4-.1-.5.1-.3.2 0 .5 0 .8-.3.4-.8.8-1.2 1-.1 0-7 3.1-7 3.1-1 .4-2 .9-3.1 1.1l-1.5.2c-.1.3-.4.5-.6.6-.4.1-.7.3-1.2.3-3.3 1.3-6.7 2.6-9.3 5.2.2-.3.2-.7.2-1.1-.1-.4 0-.8-.3-1.1-.1-.1-.2-.5-.2-.7l-.4.2c-.2.6-.4 1.6-.2 2.2.1.5.5 1 .1 1.4-1.2 1.5-1.9 3.3-2.7 4.9-.3-.1-.5-.3-.6-.6.9-1.1 1.5-2.3 1.8-3.7.2-.1.1-.5.2-.6-.1-.4.2-.8 0-1.2.2-.5-.7-1.1-.2-1.4l-.5.2c-1.1 1.4.6 3.6-.7 4.9v.1c-.4.5-.5.9-1 1.2-.6-.2-.8-.9-1.2-1.5-.6-.5-.6-1.6-.2-2.4.2-.7-.2-1.4-.2-2l-.2-.2c-.6.8-.8 2-.4 3 .2.5.3 1.1.7 1.5.2.7.7 1.2 1.1 1.9.1.3-.2.3-.3.4-.3-.2-.2-.6-.5-.8-.8-1.8-1.9-3.2-3.2-4.7-.1-.2-.3-.4-.2-.7.5-.5.6-1.3.3-1.9-.1-.1-.2-.3-.2-.4l-.4-.3c.1.9-.5 1.7-.3 2.6v.1c-2.6-2-5.5-3.7-8.4-5.1l-.2.6c.7.2 2.7 1.4 2.7 1.4.9.3 1.7.9 2.5 1.3 3.4 1.9 5.7 5.1 7.3 8.6 0 .3.3.6.1.9-.5-.8-1.3-1.3-1.9-1.9-.2-1.2-.9-2.3-1.9-2.8-.4-.6-1.2-.6-1.8-.8l-9.2-.1c-7.5-.1-14.3.2-21.7.1-1-.1-2.3-.5-2.6-1.6-.2-.4-.2-1 0-1.4.3-.5.8-.6 1.3-.7.4.1.7.4.9.7 0 .3-.3.6-.4.9 0 .1.1.3.3.2.3-.1.6-.5.7-.8 0-.2.1-.4-.1-.6-.2-.5-.7-.9-1.2-1-.6-.1-1.3.1-1.7.6-.6.5-.6 1.4-.4 2.1.4 1.1 1.6 1.9 2.7 2.1l24.6.1c2.4.1 5.1-.3 7.5.2.9.3 1.8.9 2.1 1.9 0 .1-.1 0-.2 0-2-1.3-4.6-1.8-7.2-1.5-1-.1-1.9.3-2.8.6-.5.1-.9-.1-1.2-.4-.9-.8-2.5-.8-3.7-.5v.2c1.2-.1 2 1 3.1 1.1.2.1.5-.2.7 0-1.2.6-2.3 1.2-3.5 1.6-.4-.1-.6-.4-.9-.6-.5-.5-1.4-.3-2-.4-.2.1-.4-.1-.6 0 .2.4.7.6 1.1.8.6.3 1.4 0 1.9.4-.2.2-.4.2-.5.4-1.2.5-2.2 1.5-3.5 1.5-1.4.2-2.8-.3-3.7-1.2-.4-1-1.4-1.5-2.5-1.5-.1.1-.2.1-.2.2.6.3 1 1 1.5 1.4.4.4 1 0 1.4.5.5.3 1.1.6 1.6.7.4.2.9.3 1.3.4l-.2.1c-2.3.8-5 .8-7.5.7-.8 0-1.5-.2-2.2-.2.1.2.4.3.6.4-.2.1-.4.2-.7.2-.3.1-.7.1-1 .3-.4 0-.8.1-1.1.2-.4.5-.9.9-1.4 1.2 0 .1 0 .3.1.3.5-.2 1.1-.1 1.6-.3.8-.1 1.3-1 2-1.4.7-.6 1.7-.4 2.6-.3.5.1-.1.3.1.7.2.2.4.4.7.3.1-.1.1-.1.2-.1.2-.2.1-.4 0-.6.4-.2.8 0 1.2-.1 1 0 1.9-.2 2.9-.3.2 0 .3-.2.5 0-.1.2-.3.2-.2.5.1.2.3.3.5.4.2-.1.5-.3.4-.6-.1-.2-.2-.2-.4-.3.5-.3 1.1-.3 1.7-.6.4-.1.7-.2 1.1-.4.3 0 .6-.3.9-.2-.1.4-.3.8-.5 1.2-.4 1.3-.7 3.1 0 4.4.1 0 .1 0 .2-.1-.5-1.3-.2-2.9.2-4.2.4-2.2 2.6-2.8 4.2-3.6l.1.1c-.4 1.1-1.1 2.2-1 3.5.1.2-.1.5 0 .6.4-.2.7-.7.9-1.2.2-1.1-.5-2.6.7-3.4 2.1-.8 4-1.9 6.4-1.9.1.1.2-.1.3.1-.5.6-1.2 1.1-1.5 1.8-.8 1.1-.8 3-.4 4.4.2.8-.5 1.2-.8 1.8-.2.2-.2.6-.3.8l.5.1c.4-.5.8-1 .9-1.7.1.3.3.5.5.5.2-.3-.2-.5-.2-.8.4-.2.6.3.9.4.5.1 1 .4 1.5.4l.2-.2c-.6-.9-1.7-1-2.6-1.1-.5-.8-.5-1.9-.5-2.9.1-.5.2-1.1.5-1.6.1-.4.5-.7.7-1 .5-.4 1-.7 1.6-.9h.1v.1c-.7.5-.8 1.3-1.2 1.9-.4.6-.6 1.5-.2 2.2.2.3.1.8.4 1.1.3-.5.4-1 .5-1.6-.1-.8-.6-1.6-.1-2.4.2-.6.8-.9 1.4-1.1 1.4-.1 2.6.6 3.8 1.1.2.2.7.3.7.7 0 .7-.4 1.4-.9 1.7-.7.4-1.7.5-2.3 0-.4-.4-.5-1-.4-1.6.3-.3.7-.6 1.1-.4.3.1.5.4.8.2.1-.1.2-.3.1-.4-.3-.2-.4-.5-.8-.6-.5-.1-1.1-.1-1.4.3-.5.5-.7 1.2-.6 1.8.2.8.8 1.4 1.6 1.6 1.2.3 2.4-.1 3.1-1.1.3-.3.4-.7.6-1.1 1.2.7 2.1 2 2.6 3.4 0 .4.1.9 0 1.3l.9.1c-.1-.2 0-.4.1-.6.3-1.7 1.4-3.1 2.6-4.2.4-.3.3.3.4.5.4 1 1.3 1.7 2.2 1.9 1.1.2 2.1-.1 2.7-.9.3-.6.7-1.5.2-2.1-.4-.4-.8-.7-1.4-.7-.7 0-1.1.5-1.4.9 0 .2 0 .4.2.5.1 0 .3 0 .4-.1.1-.4.4-.6.7-.8.3-.2.6 0 .8.2.3.2.3.6.4 1-.1.5-.4 1-.8 1.2-.7.4-1.8.2-2.4-.2-.3-.3-.5-.7-.7-1.1-.1-.4-.2-.8 0-1.2 1.1-.7 2.3-1.1 3.6-1.3.5.1 1 .5 1.3.8 1.2 1.2-.2 2.9.6 4.2.3-.1.3-.5.4-.7.4-.9-.1-1.9-.3-2.8-.3-.6-.5-1-1-1.5.1-.1.2-.1.3-.1.5.4 1.1.8 1.5 1.3.7 1.2 1.1 2.6 1 4.2-.2.8-1 1.1-1.6 1.4-.2.2-.6.5-.7.8.3.2.7 0 1-.1.5-.2.8-.8 1.1-1.1.1 0 0 .1.1.2 0 .3-.1.7.1.7.1-.4.2-.9.2-1.3.3.4.4.8.5 1.3.2.5.6 1.1 1.2 1.1.2-.2 0-.5-.1-.7-.1-.6-.6-1-1-1.4-.9-1.2-.5-3.1-1.2-4.5-.2-.7-.8-1.3-1.4-1.9l.1-.1c1.2 0 2.3.4 3.4.6 1.4.7 3.4.5 4.1 2.3.3 1 .7 2 1.4 2.7l.1-.1c.2-.2.2-.7 0-.9-.2-1.3-1.3-1.6-1.8-2.6l.1-.1c.6.2 1.2.3 1.8.6 2 .6 3.4 2.5 3.7 4.6 0 1.6-.3 3-.9 4.4-.1.2-.4.4-.2.6.3-.2.3-.5.5-.8.8-1.4 1.3-3.3.8-5.1 0-.3-.4-.6-.2-.9.1.2.3.2.4.2.2-.1.4-.1.5-.3 0-.2.1-.3 0-.5-.2-.2-.5-.2-.7-.2-.1.2-.3.4-.3.6-.2-.4-.5-1-.9-1.3l.1-.1c1.1.4 2.2.9 3.3 1.2.2.2.5.3.9.3 1 .4 2.1.5 3.1.8.8-.1 1.4.3 2.1.1v-.1c-.3-.4-.9 0-1.2-.3-1.7-.2-3.4-.6-5-1.2 0-.1.1-.1.2-.1.2-.1.4-.4.4-.6-.1-.2-.3-.3-.6-.3-.2.1-.4.2-.4.4s.2.4.4.5c-.1.1-.2 0-.2 0-.8-.4-1.5-.7-2.3-1-.3-.1-.5-.3-.8-.3-.6-.3-1.2-.6-1.7-.8-1.6-.8-3.4-1.3-5.1-1.9-.4-.1-.7-.2-1.1-.3-.6-.2-1.3-.3-1.9-.5-2.1-.5-5-.6-6.9.6-.3-.1-.5.4-.6.1.5-1.4 2.1-1.9 3.5-1.9 10.1-.1 19.6-.2 29.6-.3 1.2 0 2.3-.4 2.9-1.5.1.3.2-.8-.1-1.4zm-40.2 9.3c-.1.3-.3.6-.3.9l-.1.1c.1-.4-.3-.6-.2-1-.2-.3-.2-.7-.4-1-.2-.4.2-.6.4-.9.4.2.5.5.7.8.2.4-.1.7-.1 1.1z"/><path d="M-26 109.1c0 .1.2.1.1.2-.9.8-2.1 1-3.4 1.1-.1 0-.2.1-.3.1-.1-.1-.1-.1-.1-.2.9-1 2.3-1.5 3.7-1.2zM-30.1 109.6c.1.4-.1.6-.4.7-.3 0-.4-.2-.6-.4-.1-.2.1-.3.2-.4.2-.3.7-.3.8.1zM-78.1 109.6c.1.2 0 .4-.1.5s-.3.2-.5.1c-.2 0-.3-.2-.3-.4s.1-.4.3-.5c.2.1.4.1.6.3zM-82.6 111.3v.2c-.6.1-1.2 0-1.6-.4-.4-.5-.8-1-1.3-1.3 0-.1-.2-.2 0-.2 1.2 0 1.9 1 2.9 1.7zM-22.2 109.6c-.6.9-1.1 1.9-2.1 2.3-.2 0-.3.3-.5.1.4-1 1.3-2 2.2-2.4.2 0 .3-.1.4 0zM-76.6 109.9c0 .3-.2.3-.4.5-.2 0-.3-.1-.4-.3-.1-.3.1-.4.3-.5.1 0 .4.1.5.3zM-19 110c-.2.3-.1.8-.4 1.2-.5.6-.9 1.2-1.7 1.4-.1-.2.2-.5.3-.7.4-.8.9-1.6 1.7-2l.1.1zM-90.5 110.3c.1.2.2.4 0 .6-.1.1-.4.2-.6.1s-.3-.4-.2-.6c.2-.3.7-.4.8-.1zM-91.9 110.6c0 .1.1.2.1.4-.1.1-.2.3-.4.3-.3.1-.5-.1-.6-.3 0-.2.1-.4.2-.5.3-.2.6-.1.7.1zM-88.9 110.7c.1.2.1.6-.2.6-.4.2-.6-.1-.8-.3 0-.2.1-.4.3-.5.3 0 .5 0 .7.2zM-84.8 111.1c0 .2 0 .4-.2.5-.1.1-.4.1-.5.1-.1-.2-.3-.3-.2-.5.1-.1.2-.2.4-.3.2 0 .4-.1.5.2zM-16.5 111.2c-.1.2-.2.4-.4.4s-.5-.1-.6-.3c-.1-.3.1-.4.3-.5.3 0 .6.2.7.4zM-21.2 111.4c0 .2-.2.4-.3.4-.4.2-.7-.1-.8-.4.1-.2.2-.4.4-.5.4 0 .6.2.7.5zM-18 111.3c0 .2-.1.4-.2.4-.2.1-.5.1-.6-.1-.2-.2-.1-.4.1-.5.2-.1.6-.1.7.2zM-91.1 111.7c.1.3-.1.5-.3.6-.2 0-.5-.1-.6-.4 0-.2.1-.5.2-.5.3 0 .5.2.7.3zM-22.4 112c.1.3-.1.5-.4.7-.2.1-.3-.1-.5-.2-.1-.1-.2-.4 0-.5.2-.4.7-.3.9 0zM-77.5 112.3c.1.3-.2.3-.3.5-.1.1-.3.1-.4 0-.1-.2-.3-.3-.2-.5.1-.1.2-.2.3-.2.3-.2.4 0 .6.2zM-17 112.5c.1.2-.1.3-.1.4-.2.1-.4.2-.6.1s-.2-.3-.2-.6c.1-.1.2-.2.4-.3.1 0 .4.1.5.4zM-18.6 112.6c.1.3-.2.5-.4.5-.1 0-.2-.1-.3.1.7.3 1.1.9 1.6 1.3v.2c-.9 0-1.8-.2-2.5-1-.2-.1-.5-.1-.7-.3.3-.3.9-.2 1.4-.2.3-.4-.4-.6.1-.9.2 0 .2-.2.5-.1.1.1.2.2.3.4zM-28.9 112.6c.1.1-.1.3-.1.4-.2.2-.4.2-.6.1-.1-.2-.3-.3-.2-.6.2-.4.8-.3.9.1zM-85.4 113.5c-.1.2-.2.4-.4.4s-.4-.1-.5-.3c0-.2.1-.3.1-.4.3-.3.8-.1.8.3zM-83.4 113.1c0 .4-.4.6-.5.9-.4.8-1.1 1.6-2 1.7-.1-.2.3-.5.4-.7.4-.9 1.2-1.3 1.9-1.9h.2zM-29.5 113.5c0 .3-.2.5-.4.6-.2.1-.4-.1-.5-.2-.2-.2-.1-.4 0-.6.3-.3.7-.1.9.2zM-27.9 113.7c0 .3-.2.5-.5.6-.1-.1-.2 0-.2-.1-.2-.1-.3-.3-.3-.5.1-.1.2-.3.4-.4.1 0 .5.1.6.4zM-79.4 113.6c0 .3-.2.4-.4.5-.2 0-.4-.1-.5-.3-.1-.2.2-.4.3-.5.3 0 .4.2.6.3zM-77.7 113.7c-.1.2-.2.4-.5.4-.2-.1-.4-.1-.5-.3 0-.3.2-.4.4-.5.3.1.5.2.6.4zM-22.5 115.5c.1.1.4.2.3.4-.4.2-.7-.3-1.1-.4-.6-.6-1.1-1.3-1.3-2 .2-.2.5.1.7.1.5.6 1.1 1.2 1.4 1.9zM-21.6 113.7c.1.2.1.4-.1.6-.2.3-.5.2-.7.2-.1-.2-.4-.4-.2-.6.1-.2.3-.3.5-.3.2-.1.3.1.5.1zM-75.4 114.4c0 .2.1.5-.2.6-.2.1-.5 0-.6-.3s.1-.4.3-.5c.2 0 .4.1.5.2zM-28 116.1c.4.5.6 1.1.7 1.8-.1.2.1.4 0 .5h-.2c-1.1-.8-1.4-2-1.8-3.1-.1-.1-.1-.2-.1-.3.2-.2.4.2.7.3l.7.8zM-72.1 115.2s0 .1 0 0c-1 .8-2.4 1.2-3.6.5 0-.1 0-.2.1-.2.7-.2 1.4-.6 2.2-.5l1.3.2zM-77.9 115.3c-.9.5-1.6 1.6-2.7 1.8-.2.1-.3.4-.6.2.5-1.4 1.9-2.1 3.3-2.2v.2zM-29.5 116.5c.1.2 0 .5-.2.5-.1.1-.4.1-.5 0-.2-.1-.2-.3-.2-.5.1-.2.2-.2.4-.3.2.1.4.1.5.3zM-31.6 116.6c-.2.4-.6.6-.9.7-.9.3-1.6-.1-2.4-.3 0-.2.3-.1.4-.2.8-.2 1.7-.4 2.6-.1 0-.2.2-.2.3-.1zM-77.9 117.3c-.1.1-.1.3-.3.4-.2.1-.4 0-.5-.1-.1-.2-.2-.3-.1-.5s.2-.2.4-.3c.3.1.5.3.5.5zM-76.4 117.6c-.1.2-.2.4-.4.5-.2.1-.4-.1-.5-.2-.1-.2-.2-.3-.1-.5.1-.1.2-.2.4-.2.3-.1.5.2.6.4zM-30 117.8c0 .2-.1.3-.2.5s-.4.2-.6.1c-.2 0-.2-.2-.3-.4-.2-.2.1-.3.2-.5.3-.2.8-.1.9.3zM-28.9 117.8c0 .1.1.2.1.4-.2.1-.2.5-.6.3-.1.1-.2-.2-.3-.2-.1-.3 0-.6.3-.7.2-.1.4.1.5.2zM-77.3 118.5c.1.3-.1.5-.2.7-.3.1-.6.1-.7-.3 0-.2 0-.6.3-.7.2 0 .5 0 .6.3zM-75.8 118.4c-.1.7-.2 1.6-.9 2-.4.1-.8.5-1.2.2v-.1c.5-.8 1.4-1.4 2.1-2.1zM-34 119c.1.2-.1.3-.1.4-.1.2-.4.1-.6 0-.2-.1-.2-.3-.1-.5s.2-.2.3-.3c.2 0 .4.2.5.4zM-73.3 120.2c.4.6.2 1.4.4 2-.4.1-.6-.4-.9-.7-.6-.8-.5-1.8-.7-2.7.1-.1.1-.1.2-.1.4.2.7.7 1 1.1-.2.2 0 .2 0 .4zM-32.7 119.2c0 .2-.2.3-.4.4-.2 0-.3-.1-.5-.2-.1-.2.1-.3.2-.5.4-.1.6 0 .7.3zM-29.7 121.5c0 .1 0 .2-.2.2h-.1c-.7-.7-1.5-1.4-1.4-2.4h.2c.7.5 1.5 1.1 1.5 2.2zM-31.6 120.6c0 .2-.1.4-.2.5-.3.1-.7.1-.8-.3 0-.3.3-.4.4-.5.3-.1.5.1.6.3zM-33.3 121.2c-.4.9-1.3 1.4-2 2.1-.1-.1-.1-.3-.1-.4.2-1 1-1.9 1.9-2.3.6.1.2.4.2.6zM-31.4 121.9c0 .2-.2.3-.4.5-.2 0-.4-.1-.6-.3 0-.3.2-.3.3-.5.4 0 .6.1.7.3zM-50.2 75.7c.3 0 .6.3.6.6s-.3.6-.6.6h-7.5c-.3 0-.6-.3-.6-.6s.3-.6.6-.6h7.5zm-5.3 1.1c.7 0 0-.9-.4-.9h-.6c-.7 0 0 .9.4.9h.6zm3.1 0c.7 0 0-.9-.4-.9h-.7c-.7 0 0 .9.4.9h.7zm2.3-.9h-.3c-.7 0-.1.9.3.9.5 0 .5-.9 0-.9zM-50.8 84.3l1.4.5 1.4-.5-.6 2.1 1.1-.2-.4 1.3.4 1.2-1-.3.4 2.3-1.4-.5-1.4.5.6-2.3-1.1.3.3-1.3-.3-1.2 1.1.2-.5-2.1zm2.1 3.8c.3 0 .4-.4.4-.8 0-.9-.7 0-1-.8-.3.7-1 .1-1 .8 0 .5 0 .8.5.8h1.1zm-1.4-.7c0 .3.4.1.8.1.3 0 .8.2.8-.1 0-.5-.4-.3-.8-.3-.4-.1-.8-.2-.8.3zM-54.2 87.4v-.2l-.2-.1.2-.2-.1-.2h.2l.2-.2.1.2h.2l-.1.2.2.2-.2.1v.2l-.2-.1zM-55.3 88.9v-.3l-.2-.1.2-.1-.1-.3.2.1.1-.3.2.3.2-.1-.1.3.2.1-.2.1v.3l-.3-.2zM-53.4 88.7v-.3h-.2l.2-.2-.2-.2h.3l.1-.3.2.3h.2l-.1.2.2.2h-.2v.3l-.3-.2zM-53.2 89.8v-.2h-.1l.1-.1-.1-.2.2.1.1-.2v.2l.2-.1-.1.2.1.1h-.1v.2l-.1-.1zM-54.9 91v-.5l-.4-.1.3-.3-.2-.4.4.1.3-.5.2.5.4-.1-.2.4.4.3-.4.1v.5l-.4-.3zM-54 67l.9 2.2 2.2-.7-1.1 2.1 1.9 1.3-2.3.4.1 2.4-1.7-1.6-1.8 1.6.2-2.4-2.4-.4 2-1.3-1.2-2.1 2.3.7zM-62.2 116c-.3.1-.4.2-.3.5l.3 1.3c.1.2.1.6-.1.9-.2.3-.6.5-.9.5-.2.1-.7.1-1.1 0-.2-.1-.4-.2-.5-.7l-.3-1.4c-.1-.4-.2-.3-.5-.3v-.1l1.7-.4v.1c-.3.1-.5.1-.4.5l.3 1.4c.1.2.2.8.9.6.9-.2.7-.9.7-1.1l-.3-1.3c-.1-.3-.2-.4-.6-.3v-.1l1.1-.3v.2zM-59.7 116.3c-.2-.3-.6-.7-1.2-.6-.3.1-.5.2-.4.5.1.2.2.3.6.4l.8.1c.2 0 .6.2.7.7.1.4-.1 1-1.1 1.2-.5.1-.7 0-.9.1-.1 0-.1.1-.1.2h-.1l-.2-1h.1c.2.4.6.8 1.2.7.6-.1.5-.6.5-.6-.1-.3-.3-.3-.7-.4l-.4-.1c-.9-.2-1-.5-1.1-.7-.1-.3 0-.9.9-1.1.4-.1.7 0 .8 0s.1-.1.1-.2h.2l.2.9.1-.1zM-56.3 118l-1.8.2v-.1c.4-.1.5-.1.5-.4l-.2-2.3c-.4.1-.9.1-.9.8h-.1l-.1-.9 3.1-.3.1.9h-.1c-.2-.7-.7-.7-1.1-.6l.2 2.3c0 .4.2.4.5.4h-.1zM-52.1 118h-1.1l-1-1.4h-.1v.8c0 .3.1.4.4.4v.1h-1.7v-.1c.4 0 .5 0 .5-.4v-1.9c0-.4-.2-.4-.4-.4v-.1h1.7c.4 0 1.5.1 1.4.8 0 .5-.5.7-.8.7l1 1.3c.1.1.1.1.2.1l-.1.1zm-2.2-1.5c.7 0 .9-.1 1-.6 0-.4-.2-.6-.6-.6-.3 0-.3 0-.3.2l-.1 1z"/><path d="M-48.7 118.4l-1.7-.2v-.1c.3 0 .4 0 .4-.1s-.1-.5-.2-.6l-1.2-.1c-.2.3-.3.5-.3.5 0 .2.2.2.4.2v.1l-1-.1v-.1c.3 0 .4-.1.6-.4l1.4-2.2h.1l.9 2.4c.3.5.4.6.6.7zm-1.4-1.2l-.4-1.1-.6 1 1 .1zM-45.7 119l-2.9-.5v-.1c.3 0 .4 0 .5-.2l.4-2.1c.1-.3-.2-.3-.4-.4v-.1l1.8.3v.1c-.4-.1-.5-.1-.6.3l-.4 2c0 .2.1.3.4.3.8.1 1.1-.2 1.4-.6h.1l-.3 1zM-43.7 119.5l-1.8-.4v-.1c.3 0 .5.1.5-.2l.4-2.1c.1-.3-.2-.3-.4-.4v-.1l1.8.4v.1c-.2 0-.5-.1-.5.2l-.4 2.1c-.1.3.1.3.4.5z"/><path d="M-40.1 119.9l-1.7-.2v-.1c.3 0 .4 0 .4-.1s-.1-.5-.2-.6l-1.2-.1c-.2.3-.3.5-.3.5 0 .2.2.2.4.2v.1l-1-.1v-.1c.3 0 .4-.1.5-.5l1.4-2.2h.1l.9 2.4c.2.5.2.6.5.7l.2.1zm-1.5-1.1l-.4-1.1-.6 1 1 .1zM-53.3 85c0-1-.6-.1-.9-.9-.2.7-.9.1-.9.9 0 .3.1.5.2.6v.3c0 .1.1.1.1.1h1.1c.1 0 .1-.1.1-.1v-.3c.2-.1.3-.3.3-.6zm-.9.2c-.3 0-.7.2-.7-.1 0-.5.3-.4.7-.4.3 0 .8-.1.8.4-.1.3-.5.1-.8.1zM-44.3 97.8c.3 0 .5-.2.5-.4s-.2-.4-.5-.4-.5.2-.5.4.3.4.5.4zM-46.5 82.4l-.2.4c0 .1.1.2.2.2s.2-.1.2-.2l-.2-.4zM-61.8 82.4l-.2.4c0 .1.1.2.2.2s.2-.1.2-.2l-.2-.4zM-58 82.4l-.2.4c0 .1.1.2.2.2s.2-.1.2-.2c.1 0-.2-.4-.2-.4zM-54.2 82.4l-.2.4c0 .1.1.2.2.2s.2-.1.2-.2c.1 0-.2-.4-.2-.4zM-50.3 82.4l-.2.4c0 .1.1.2.2.2s.2-.1.2-.2l-.2-.4zM-61.8 87.6l.2.4c0 .1-.1.2-.2.2s-.2-.1-.2-.2c0 .1.2-.4.2-.4zM-61.8 92.7l.2.4c0 .1-.1.2-.2.2s-.2-.1-.2-.2c0 .1.2-.4.2-.4zM-61.2 96.7l.2.4c0 .1-.1.2-.2.2s-.2-.1-.2-.2c0 .1.2-.4.2-.4zM-58 98.9l.2.4c0 .1-.1.2-.2.2s-.2-.1-.2-.2l.2-.4zM-46.3 87.6l-.2.4c0 .1.1.2.2.2s.2-.1.2-.2c0 .1-.2-.4-.2-.4zM-46.3 92.7l-.2.4c0 .1.1.2.2.2s.2-.1.2-.2c0 .1-.2-.4-.2-.4zM-46.9 96.7l-.2.4c0 .1.1.2.2.2s.2-.1.2-.2c0 .1-.2-.4-.2-.4zM-50.1 98.9l-.2.4c0 .1.1.2.2.2s.2-.1.2-.2l-.2-.4zM-54 101.2l-.2.4c0 .1.1.2.2.2s.2-.1.2-.2l-.2-.4zM-47.8 93.6c.1.1.2.1.3 0l.1-.4s-.2-.2-.3-.2c-.4.1-.8.1-1.1.5 0 .3.2.5.4.6.1-.1.2.1.3.2 0 .1-.1.2-.2.2-.3-.3-.8.1-1-.3.1-.4.3-.8 0-1.1 0-.1.1-.1.1-.2-.1-.3-.5-.1-.7-.1-.4-.1-.7.1-.9.4 0 .1.1.2.2.4.1 0 .1 0 .2.1l-.2.1c.1.1.1.2.1.3-.2.1-.3-.2-.4-.3 0-.2 0-.5-.2-.6-.1 0-.2.1-.2.1-.1.1-.1.2-.1.4s.1.4.1.4.7.5.9.9c-.2.4-.2 1-.7 1.3-.1.1-.1.2-.1.4l.1.1c.3-.2.9-.2.9-.7.1-.2.2-.5.5-.6.2-.1.5.1.5.3-.1.4-.3.6-.6.7v.2c.1.2.4.1.5.1.4-.3.6-.7.9-.9.1.2-.5.3-.1.6.2-.1.5 0 .7-.3-.2-.4.6-.6.1-1 0-.4.4-.5.4-.9-.1-.4-.6-.4-.7-.7-.2-.1 0-.1.2 0zM-65.4 98c.3 0 .5-.2.5-.4s-.2-.4-.5-.4-.5.2-.5.4c.1.2.3.4.5.4zM-90.1 112.4c.3 0 .5-.2.5-.4s-.2-.4-.5-.4-.5.2-.5.4.2.4.5.4zM-74.4 115.9c-.1-.1-.1-.1 0 0zm0 0zM-74.3 115.9s-.1 0 0 0c-.1 0 0 0 0 0-.1 0-.1 0 0 0-.1 0-.1 0 0 0zM-74.1 115.9c-.1 0-.1 0 0 0-.1 0-.1 0 0 0-.1 0-.1 0 0 0zM-74.1 115.9s0-.1 0 0c0-.1 0 0 0 0zm0 0zM-74 115.9s-.1 0 0 0c-.1 0-.1 0 0 0z"/><path d="M-45.2 81.8h-17.6v13.5c0 1.4.6 2.6 1.4 2.9l6.8 4.3c.1.2.4.3.6.3.2 0 .4-.1.5-.2l6.9-4.4c.8-.4 1.4-1.6 1.4-2.9V81.8zm-.5 13.6c-.1 1-.4 1.9-1.1 2.3l-6.6 4.2c-.1.1-.3.2-.5.2s-.4-.1-.5-.2l-6.6-4.2c-.7-.5-1-1.3-1.1-2.3V82.3h16.6l-.2 13.1z"/><path d="M-51.7 101.4l.2-.1c-.1 0-.1.1-.2.1zM-65 119.8l-1.7.2v-.1c.3-.1.4-.1.4-.2s-.2-.4-.3-.5l-1.2.1c-.1.3-.2.5-.2.6 0 .2.3.1.4.1v.1l-1 .1v-.1c.3-.1.3-.2.4-.6l.9-2.5h.1l1.4 2.1c.3.4.4.6.6.5l.2.2zm-1.6-.8l-.6-1-.4 1.1 1-.1z"/><path d="M-35.8 113.5c-.3-.8-.9-1.3-1.7-1.6-.8-.2-1.7-.1-2.2.6-.9.7-.3 2-.2 3 0 .2 0 .4-.2.5-3.7-.3-7.1-1.2-10.7-1.6-.8-.1-1.7-.1-2.5-.3l-1-.1c-3.2.1-6.3.3-9.3 1-.6.2-1.3.2-2 .5-.5-.1-.8.2-1.3.1l-.8.2h-.3c-.4-1 .8-1.7.4-2.7-.3-.6-1-1.1-1.7-1-.9-.1-1.6.4-2 1-.6 1.3.2 2.6.4 3.8-.1.4.4.9 0 1.2-.8-.6-1.9-.9-2.9-.6-.3.2-.9-.1-1 .3 1.1.6 2.5.5 3.7.5.2-.1.3-.1.4 0 .1.7-.1 1.6.3 2.1.5.6 1.2.8 1.9.8 2.3-.1 4.4-.8 6.5-1.3.3 0 .6-.2.9-.2 1.1-.3 2.4-.5 3.6-.5-.5.7-.8 1.5-1.1 2.3-.3.7.5.8.8 1.2-.8.2-1.3.8-2.1 1.1-1.6-.1-3 .6-4.5.7 0 .3.5.2.6.6-.1.2-.3.3-.5.4 0 .2 0 .2.2.2.2-.2.5-.1.6-.2.5 0 .9-.2 1.4-.2.4-.2.9-.2 1.3-.5.5-.2.9-.5 1.4-.7.8 0 1.4-.3 2.1-.3v.2c-.6.9-1.2 1.9-1.8 2.8-.1.2 0 .4.2.4.4.1.7 0 1-.2.5-.9 1-1.8 1.4-2.7.2-.9.8-1.3 1.4-1.9.1-.1.2-.2.4-.1-.5.6-.8 1.2-1.2 1.8-.2.7-.3 1.6.4 2.2.3.3.8.2 1.2.2 1-.5 2.2.3 3-.7.5-.1.5.5.8.7.4.1.9.6 1.3.2 0-.3-.3-.5-.5-.8-.3-.5-.7-1-1-1.5-.1-.4-.4-.6-.4-.9.5.2.9.5 1.4.5.4.2 1 .2 1.4.4.3.4.8.7 1.3 1 .6.3 1.3.4 2 .6.2 0 .6.2.8 0-.1-.1-.2-.2-.4-.3-.1-.3.5-.2.6-.4-.1-.1-.2-.2-.3-.2-.4-.2-1.3-.3-1.5-.4l-.9-.3c-1.5 0-2.4-1.4-3.6-1.9.3-.3.7-.5.9-.8.2-.4.3-.9.1-1.3-.2-.8-1.2-.7-1.8-1.1l.1-.1c1-.1 1.8.2 2.7.4 2.4.3 4.7 1.2 7.2 1.3 1.4 0 3.1.1 3.8-1.3.1-.8.3-1.6.4-2.4.4-1.1 1.2-2.3 1.1-3.7zm-27.3 11.6l-.4-.3c.2-.2.6-.1.8-.3.7-.2 1.4-.5 2.1-.3-.6.6-1.6.7-2.5.9zm15.8-.4c.6.3 1.8.5 2.7.6-.1.3-.7 0-.6.5-.8-.3-1.7-.5-2.3-1.1h.2zM-71 113.9c.1-.5.2-.9.6-1.3.6-.3 1.4-.2 2 .1.2.1.3.2.4.5.1.4-.1.9-.4 1.2h-.2c0-.4 0-.8.2-1.2 0-.3-.3-.3-.5-.5-.4-.1-.8.1-1.1.3-.2.3-.5.7-.3 1.1.2.3 0 .7.1 1l-.1.1c-.4-.4-.8-.7-.7-1.3zm1.2.7c.4.3.9.2 1.4.2.1.3.1.6-.1.9-.4-.1-1-.1-1.2-.5-.1-.1-.2-.4-.1-.6zm-.1-.9c.1-.2 0-.5.3-.6.2-.1.5-.1.5.2 0 .3-.1.6-.1.9-.4.1-.6-.2-.7-.5zm11.8 8.2c-.1-.9.2-1.7.8-2.3.4-.1.8-.2 1.1.1-.7.2-1.5.3-1.6 1.2 0 .3-.1.5.1.8.3.5.9.3 1.3.7 0 .1-.1.3-.2.3-.5-.3-1.1-.5-1.5-.8zm-.9 1.8c.6-.3 1.2-.8 1.9-.6-.4.4-1.2.5-1.9.6zm2.4.2l-1.2 2.4c-.1.1-.3.2-.4.2 0-.4.4-.6.5-.9.5-.7.7-1.4 1.3-2.1.1.1-.2.2-.2.4zm.7-1.4c0-.1-.1-.1 0 0zm-.3-.7l-1.2-.3c-.2-.3 0-.5 0-.8.4-.6 1.4-.8 1.8-.3 0 .5-.2 1-.6 1.4zm.6 0c.1-.3.2-.8.4-1.1 0 .3-.2.8-.4 1.1zm.3-2.1c-.3-.1-.5-.5-.9-.5.3-.1.6-.1 1 0 .1.2-.1.4-.1.5zm.3.8v-.3.3zm0 1.1c0-.1.1-.2.1-.4.1-.1.2.1.3.2-.1.2-.3.3-.4.2zm.4-1.5c.1-.4.1-.7.4-.9.2 0 .5 0 .7.1.1.5.7 1.2 0 1.6-.2.1-.6.3-.8.1-.4-.3-.5-.6-.3-.9zm1.8-.8c-.1-.2.2-.1.3-.2l.8.1c-.4 0-.9.9-1.1.1zm1.3.4c-.3.1-.5.5-.8.5.1-.3.5-.5.8-.5zm-1.1 1.6zm.1 1.5c0 .1 0 .1-.1.2l-.6-.5c.3 0 .5.1.7.3zm-.7-.8c.1-.1.2-.1.2 0h-.2zm-.4-.4c.1-.2.2-.4.4-.4 0 0 0 .1.1.1-.2.2-.3.3-.5.3zm-.6 0l.1-.2c.1.1 0 .1-.1.2zm.1.9c.3-.4.6.2.8.5.4.6 1.4 1.1 1 1.8-.5.4-1.2 0-1.8.4-.3 0-.8.1-.9-.2.3-.8.5-1.7.9-2.5zm-.7.5l.1-.2c-.2.6-.5 1.2-.8 1.8-.1-.5.5-1 .7-1.6zm1.1 3.1c-.5 0-1.2.3-1.7-.1 0-.2-.2-.3-.2-.5.4-.2.8.3 1.1 0 .6 0 1.2-.1 1.8.1.3.1.7-.5.8.1-.2.7-1.2.1-1.8.4zm1.5-3.7zm.1 1.6c0 .3.3.4.1.6 0-.1-.1-.3-.1-.6zm.8 1.5l-.1.1c-.1-.1-.1-.4-.1-.5.1.1.2.3.2.4zm1.2.6c0 .1-.2.1-.2 0-.8-1-1.1-2-1.6-3.1h.1c.6 1.1 1.1 2.2 1.7 3.1zm1-2.3c-.1 0-.1.1 0 0-.8.1-1.3-.3-1.9-.7v-.1c.7 0 1.2.5 1.9.8zm-.7-3.4c.3.1.3.4.4.7 0 .6-.3 1-.9 1.2-.3.2-.7.2-1 .1.6 0 1.3-.2 1.5-.9v-1.1zm-.6-.1c.1.4.4.7.2 1.1-.2.5-.8.5-1.2.6-.2 0-.4-.1-.6-.2 0-.1 0-.2-.1-.2.1-.3-.6-.7-.1-.9.5-.4 1.4-1.3 1.8-.4zm12.9-1.8c-.2.2 0 .7-.3.9 0 .5-.4.7-.7.9-3 .7-6-.4-8.9-.9-4.1-.9-8.8-1.1-13-.2-1.9.4-3.8.8-5.7 1.3-1.2.2-2.4.3-3.5 0-.9-.4-.5-1.6-.8-2.4.1-.6-.2-1.1-.2-1.8-.1-.2-.1-.5-.1-.7.4.1.8.3 1.2.4 2.1.4 4-.3 6-.6 1.9-.4 3.8-.7 5.8-.9 2.3 0 4.6-.2 6.8.2.7 0 1.3.2 2 .2 1.4.2 2.7.6 4.2.7.2.1.5.1.8.1 2.3.4 4.8 1 7 0-.1 1-.5 1.9-.6 2.8zm-.7-3.1c0 .4-.4.3-.6.5h-.6c-.1-.2-.1-.5-.1-.7.4 0 .9 0 1.3.2zm-.3-.7c.3-.3-.1-1.9.7-.8 0 .2 0 .5-.2.7-.1 0-.3.2-.5.1zm2-.2c-.2.5-.6.8-1.1.9 0-.6.6-1 .4-1.7-.3-.5-1-.6-1.6-.5-.2.2-.1.4-.2.6l-.1.8c-.5 0-.5-.5-.7-.8 0-.5.3-1.1.8-1.3.4-.2 1.1-.2 1.5.1.3.1.7.2.8.5.4.3.3.9.2 1.4z"/><g class="st1"><path d="M2 93.8h-3.7l-.4 1c-.1.3-.2.6-.2.9 0 .3.1.5.4.7.1.1.5.1 1 .2v.3h-3.5v-.3c.4-.1.7-.2.9-.5.2-.3.5-.8.9-1.6L1.1 86h.1L5 94.7c.4.8.7 1.3.9 1.6.2.2.4.3.8.3v.3H1.6v-.3h.2c.4 0 .7-.1.9-.2.1-.1.2-.2.2-.4v-.3s-.1-.2-.2-.6L2 93.8zm-.3-.6L.1 89.6l-1.6 3.6h3.2zM14.5 89.5v5.7c0 .6.1.9.2 1 .1.1.3.2.6.3v.3h-3v-1c-.3.4-.7.7-1 .9-.4.2-.8.3-1.3.3-.4 0-.8-.1-1.1-.4s-.5-.5-.6-.9-.2-.9-.2-1.7v-2.9c0-.6-.1-.9-.2-1s-.3-.2-.6-.3v-.3h3v5c0 .5 0 .9.1 1 0 .2.1.3.2.3.1.1.2.1.4.1s.4 0 .5-.1c.2-.1.5-.4.8-.8v-3.9c0-.6-.1-.9-.2-1s-.3-.2-.6-.3v-.3h3zM20.9 89.3l.1 2.5h-.3c-.3-.7-.6-1.2-1-1.5-.3-.3-.7-.4-1-.4-.2 0-.4.1-.5.2-.2.1-.2.3-.2.5 0 .1.1.3.2.4.2.2.6.6 1.4 1.1s1.3 1 1.5 1.3.4.8.4 1.2c0 .4-.1.8-.3 1.2s-.5.7-.9.9c-.4.2-.8.3-1.3.3-.3 0-.8-.1-1.4-.3-.2-.1-.3-.1-.3-.1-.2 0-.3.1-.4.4h-.3l-.1-2.6h.3c.2.7.6 1.2 1 1.5.4.3.8.5 1.2.5.2 0 .5-.1.6-.2.2-.2.2-.3.2-.6 0-.2-.1-.5-.2-.6s-.5-.5-1-.8c-.8-.6-1.3-1-1.5-1.3-.3-.4-.5-.9-.5-1.4 0-.6.2-1.1.6-1.5.4-.5.9-.7 1.7-.7.4 0 .8.1 1.1.3.1.1.3.1.3.1.1 0 .2 0 .2-.1.1 0 .1-.1.3-.3h.1zM25.4 86.8v2.7h1.7v.8h-1.7v4.5c0 .4 0 .7.1.8s.1.2.2.3c.1.1.2.1.3.1.3 0 .7-.3 1-.8l.2.2c-.4 1-1.1 1.5-2.1 1.5-.5 0-.9-.1-1.2-.4s-.5-.5-.6-.9c-.1-.2-.1-.7-.1-1.4v-3.9h-1V90c.7-.5 1.2-1 1.7-1.5s.9-1.1 1.2-1.7h.3zM30.9 89.5v1.7c.5-.8.9-1.3 1.3-1.5.4-.2.7-.4 1.1-.4.3 0 .5.1.7.3.2.2.3.4.3.8 0 .3-.1.6-.3.8-.2.2-.4.3-.6.3-.3 0-.5-.1-.7-.3s-.3-.3-.4-.3h-.2c-.2 0-.3.1-.4.2-.2.2-.4.4-.5.8-.2.5-.2 1.1-.2 1.7v2.1c0 .3 0 .5.1.6l.3.3c.1.1.3.1.6.1v.3h-3.9v-.3c.3 0 .5-.1.6-.3.1-.1.2-.5.2-1.2v-4c0-.4 0-.7-.1-.8-.1-.1-.1-.3-.2-.3-.1-.1-.3-.1-.5-.1v-.3h2.8zM39 95.7c-.9.8-1.7 1.2-2.4 1.2-.4 0-.8-.1-1-.4-.3-.3-.4-.6-.4-1 0-.6.2-1.1.7-1.5.5-.4 1.5-1 3.1-1.8v-.7c0-.6 0-.9-.1-1-.1-.1-.2-.3-.3-.4-.2-.1-.4-.2-.6-.2-.3 0-.6.1-.8.2-.2.1-.2.2-.2.3 0 .1.1.2.2.4.2.2.3.4.3.6 0 .3-.1.5-.3.7-.2.2-.4.3-.7.3-.3 0-.6-.1-.8-.3-.2-.2-.3-.4-.3-.7 0-.4.1-.7.4-1.1s.7-.6 1.2-.8 1.1-.3 1.7-.3c.7 0 1.2.1 1.6.4.4.3.7.6.8 1 .1.2.1.7.1 1.5v3.5c0 .1.1.1.1.2.1 0 .1.1.2.1s.3-.1.4-.3l.2.2c-.3.4-.5.7-.8.8-.3.2-.6.3-.9.3-.4 0-.7-.1-1-.3s-.4-.5-.4-.9zm0-.5v-2.4c-.6.4-1.1.8-1.4 1.2-.2.3-.3.6-.3.9 0 .2.1.5.3.6.1.1.3.2.5.2.2-.1.5-.3.9-.5zM45.8 86.2v9.1c0 .5.1.8.2 1 .1.1.4.2.7.2v.3h-3.9v-.3c.3 0 .6-.1.7-.3.1-.1.2-.4.2-1v-7.6c0-.5-.1-.8-.2-1-.1-.1-.4-.2-.7-.2v-.3h3zM50.3 89.5v5.8c0 .5.1.8.2 1 .1.1.4.2.7.2v.3h-3.9v-.3c.3 0 .6-.1.7-.3.1-.1.2-.4.2-1V91c0-.5-.1-.8-.2-1-.1-.1-.4-.2-.7-.2v-.3h3zM49.2 86c.3 0 .6.1.9.4s.4.5.4.9-.3.5-.5.7c-.2.2-.5.4-.9.4-.3 0-.6-.1-.9-.4s-.2-.5-.2-.8.1-.6.4-.9.4-.3.8-.3zM55.9 95.7c-.9.8-1.7 1.2-2.4 1.2-.4 0-.8-.1-1-.4-.3-.3-.4-.6-.4-1 0-.6.2-1.1.7-1.5.5-.4 1.5-1 3.1-1.8v-.7c0-.6 0-.9-.1-1-.1-.1-.2-.3-.3-.4-.2-.1-.4-.2-.6-.2-.3 0-.6.1-.8.2-.1.1-.2.2-.2.3 0 .1.1.2.2.4.2.2.3.4.3.6 0 .3-.1.5-.3.7-.2.2-.4.3-.7.3-.3 0-.6-.1-.8-.3-.2-.2-.3-.4-.3-.7 0-.4.1-.7.4-1.1s.7-.6 1.2-.8 1.1-.3 1.7-.3c.7 0 1.2.1 1.6.4.4.3.7.6.8 1 .1.2.1.7.1 1.5v3.5c0 .1.1.1.1.2.1 0 .1.1.2.1s.3-.1.4-.3l.2.2c-.3.4-.5.7-.8.8-.3.2-.6.3-.9.3-.4 0-.7-.1-1-.3s-.4-.5-.4-.9zm0-.5v-2.4c-.6.4-1.1.8-1.4 1.2-.2.3-.3.6-.3.9 0 .2.1.5.3.6.1.1.3.2.5.2.2-.1.5-.3.9-.5zM62.8 89.5v.9c.4-.4.7-.7 1.1-.9s.7-.3 1.1-.3c.5 0 .9.1 1.2.4s.5.6.6 1c.1.3.1.9.1 1.7v2.8c0 .6.1.9.2 1.1s.3.2.6.3v.3H64v-.3c.3 0 .5-.2.6-.3.1-.1.1-.5.1-1V92c0-.6 0-1-.1-1.1s-.1-.3-.2-.4c-.1-.1-.2-.1-.4-.1-.4 0-.9.3-1.2 1v3.9c0 .5.1.9.2 1s.3.2.6.3v.3h-3.7v-.3c.3 0 .5-.1.7-.3.1-.1.1-.5.1-1v-4.1c0-.6-.1-.9-.2-1s-.3-.2-.6-.3v-.3h2.9zM83.2 86v3.7H83c-.3-1-.9-1.8-1.6-2.3-.7-.5-1.5-.8-2.3-.8-.8 0-1.5.2-2 .7-.5.4-.9 1.1-1.1 1.9s-.3 1.6-.3 2.5c0 1 .1 1.9.4 2.7.2.8.6 1.3 1.2 1.7.5.4 1.2.5 1.9.5.3 0 .5 0 .8-.1.3-.1.5-.1.8-.2v-2.2c0-.4 0-.7-.1-.8-.1-.1-.2-.2-.4-.3s-.4-.1-.7-.1h-.3v-.3h5.1v.3c-.4 0-.7.1-.8.2-.2.1-.3.2-.4.4 0 .1-.1.3-.1.7v2.2c-.7.3-1.4.5-2.1.7-.7.2-1.5.2-2.3.2-1 0-1.8-.1-2.5-.4s-1.2-.6-1.8-1.1-.9-.9-1.2-1.5c-.4-.7-.5-1.5-.5-2.4 0-1.6.6-2.9 1.7-4s2.5-1.6 4.2-1.6c.5 0 1 0 1.4.1.2 0 .6.2 1.1.4.5.2.8.3.9.3.1 0 .3-.1.4-.2s.2-.3.3-.6h.5zM88.6 89.3c.6 0 1.2.2 1.8.5s1 .8 1.2 1.4c.3.6.4 1.3.4 2 0 1-.3 1.9-.8 2.6-.6.8-1.5 1.3-2.6 1.3s-1.9-.4-2.5-1.2-.9-1.7-.9-2.7c0-1 .3-2 .9-2.7.6-.8 1.5-1.2 2.5-1.2zm.1.5c-.3 0-.5.1-.7.3-.2.2-.3.6-.4 1.2-.1.6-.1 1.4-.1 2.5 0 .6 0 1.1.1 1.6.1.4.2.7.4.8s.4.3.6.3c.2 0 .4-.1.6-.2.2-.2.3-.4.4-.7.1-.5.2-1.5.2-3 0-.9 0-1.5-.1-1.8-.1-.3-.2-.6-.4-.7-.2-.2-.4-.3-.6-.3zM96.5 97L94 91.4c-.3-.7-.5-1.1-.7-1.3-.1-.1-.3-.2-.5-.3v-.3h3.9v.3c-.2 0-.4 0-.5.1-.1.1-.2.3-.2.4 0 .2.1.6.3 1.1l1.2 2.7 1-2.4c.3-.7.4-1.2.4-1.4 0-.2-.1-.3-.2-.4s-.3-.2-.6-.2v-.3h2.4v.3c-.2 0-.4.1-.6.3-.1.1-.4.6-.7 1.2L96.9 97h-.4zM107.4 92.9h-4c0 1 .3 1.7.8 2.3.4.4.8.6 1.3.6.3 0 .6-.1.9-.3.3-.2.5-.5.8-.9l.3.2c-.4.8-.8 1.4-1.3 1.7-.5.3-1 .5-1.7.5-1.1 0-1.9-.4-2.5-1.2-.4-.7-.7-1.5-.7-2.5 0-1.2.3-2.2 1-2.9.7-.7 1.4-1.1 2.3-1.1.7 0 1.4.3 1.9.9.5.6.8 1.5.9 2.7zm-1.9-.5c0-.8 0-1.4-.1-1.7-.1-.3-.2-.5-.4-.7-.1-.1-.3-.1-.4-.1-.3 0-.5.1-.7.4-.3.5-.5 1.1-.5 1.9v.3h2.1zM111.3 89.5v1.7c.5-.8.9-1.3 1.3-1.5.4-.2.7-.4 1.1-.4.3 0 .5.1.7.3.2.2.3.4.3.8 0 .3-.1.6-.3.8-.2.2-.4.3-.6.3-.3 0-.5-.1-.7-.3s-.3-.3-.4-.3h-.2c-.2 0-.3.1-.4.2-.2.2-.4.4-.5.8-.2.5-.2 1.1-.2 1.7v2.1c0 .3 0 .5.1.6l.3.3c.1.1.3.1.6.1v.3h-3.9v-.3c.3 0 .5-.1.6-.3.1-.1.2-.5.2-1.2v-4c0-.4 0-.7-.1-.8-.1-.1-.1-.3-.2-.3-.1-.1-.3-.1-.5-.1v-.3h2.8zM118.4 89.5v.9c.4-.4.7-.7 1.1-.9s.7-.3 1.1-.3c.5 0 .9.1 1.2.4s.5.6.6 1c.1.3.1.9.1 1.7v2.8c0 .6.1.9.2 1.1s.3.2.6.3v.3h-3.7v-.3c.3 0 .5-.2.6-.3.1-.1.1-.5.1-1V92c0-.6 0-1-.1-1.1s-.1-.3-.2-.4c-.1-.1-.2-.1-.4-.1-.4 0-.9.3-1.2 1v3.9c0 .5.1.9.2 1s.3.2.6.3v.3h-3.7v-.3c.3 0 .5-.1.7-.3.1-.1.1-.5.1-1v-4.1c0-.6-.1-.9-.2-1s-.3-.2-.6-.3v-.3h2.9zM127.3 89.5v1c.4-.4.8-.7 1.1-.9.3-.2.7-.3 1.1-.3.5 0 .9.1 1.2.3.3.2.6.6.7 1 .4-.5.8-.8 1.2-1s.8-.3 1.2-.3c.5 0 .9.1 1.2.3.3.2.5.5.6.9s.2.9.2 1.7v3c0 .6.1.9.2 1s.3.2.6.3v.3h-3.8v-.3c.3 0 .5-.1.7-.3.1-.1.1-.5.1-1v-3.1c0-.7 0-1.1-.1-1.2-.1-.2-.1-.3-.2-.4-.1-.1-.2-.1-.4-.1s-.5.1-.7.2c-.2.2-.5.4-.7.7v3.9c0 .5 0 .9.1 1 .1.2.3.3.7.3v.3h-3.8v-.3c.2 0 .4-.1.5-.2s.2-.2.2-.3.1-.4.1-.8v-3.1c0-.7 0-1.1-.1-1.2-.1-.2-.1-.3-.3-.4-.1-.1-.3-.1-.4-.1-.2 0-.4.1-.6.2-.2.2-.5.4-.8.8v3.9c0 .5.1.9.2 1s.3.3.6.3v.3h-3.8v-.3c.3 0 .5-.1.7-.3.1-.1.1-.5.1-1v-4.1c0-.6-.1-.9-.2-1s-.3-.2-.6-.3v-.3h3.2zM143.8 92.9h-4c0 1 .3 1.7.8 2.3.4.4.8.6 1.3.6.3 0 .6-.1.9-.3.3-.2.5-.5.8-.9l.3.2c-.4.8-.8 1.4-1.3 1.7-.5.3-1 .5-1.7.5-1.1 0-1.9-.4-2.5-1.2-.4-.7-.7-1.5-.7-2.5 0-1.2.3-2.2 1-2.9.7-.7 1.4-1.1 2.3-1.1.7 0 1.4.3 1.9.9.6.6.9 1.5.9 2.7zm-1.9-.5c0-.8 0-1.4-.1-1.7-.1-.3-.2-.5-.4-.7-.1-.1-.3-.1-.4-.1-.3 0-.5.1-.7.4-.3.5-.5 1.1-.5 1.9v.3h2.1zM147.7 89.5v.9c.4-.4.7-.7 1.1-.9s.7-.3 1.1-.3c.5 0 .9.1 1.2.4s.5.6.6 1c.1.3.1.9.1 1.7v2.8c0 .6.1.9.2 1.1s.3.2.6.3v.3h-3.7v-.3c.3 0 .5-.2.6-.3.1-.1.1-.5.1-1V92c0-.6 0-1-.1-1.1s-.1-.3-.2-.4c-.1-.1-.2-.1-.4-.1-.4 0-.9.3-1.2 1v3.9c0 .5.1.9.2 1s.3.2.6.3v.3h-3.7v-.3c.3 0 .5-.1.7-.3.1-.1.1-.5.1-1v-4.1c0-.6-.1-.9-.2-1s-.3-.2-.6-.3v-.3h2.9zM156.5 86.8v2.7h1.7v.8h-1.7v4.5c0 .4 0 .7.1.8s.1.2.2.3c.1.1.2.1.3.1.3 0 .7-.3 1-.8l.2.2c-.4 1-1.1 1.5-2.1 1.5-.5 0-.9-.1-1.2-.4s-.5-.5-.6-.9c-.1-.2-.1-.7-.1-1.4v-3.9h-1V90c.7-.5 1.2-1 1.7-1.5s.9-1.1 1.2-1.7h.3z"/></g><g class="st1"><path d="M1.9 121.1h-3.7l-.4 1c-.1.3-.2.6-.2.9 0 .3.1.5.4.7.1.1.5.1 1 .2v.3h-3.5v-.3c.4-.1.7-.2.9-.5.2-.3.5-.8.9-1.6l3.8-8.5h.1L5 122c.4.8.7 1.3.9 1.6.2.2.4.3.8.3v.3H1.5v-.3h.2c.4 0 .7-.1.9-.2.1-.1.2-.2.2-.4v-.3s-.1-.2-.2-.6l-.7-1.3zm-.2-.6l-1.6-3.6-1.6 3.6h3.2zM14.4 116.8v5.7c0 .6.1.9.2 1 .1.1.3.2.6.3v.3h-3v-1c-.3.4-.7.7-1 .9-.3.2-.7.3-1.2.3-.4 0-.8-.1-1.1-.4s-.5-.5-.6-.9-.2-.9-.2-1.8v-2.9c0-.6-.1-.9-.2-1s-.3-.2-.6-.3v-.3h3v5c0 .5 0 .9.1 1 0 .2.1.3.2.3.1.1.2.1.4.1s.4 0 .5-.1c.2-.1.5-.4.8-.8v-3.9c0-.6-.1-.9-.2-1s-.3-.2-.6-.3v-.3h2.9zM20.9 116.6l.1 2.5h-.3c-.3-.7-.6-1.2-1-1.5-.3-.3-.7-.4-1-.4-.2 0-.4.1-.5.2-.2.1-.2.3-.2.5 0 .1.1.3.2.4.2.2.6.6 1.4 1.1s1.3 1 1.5 1.3.4.8.4 1.2c0 .4-.1.8-.3 1.2s-.5.7-.9.9c-.4.2-.8.3-1.2.3-.3 0-.8-.1-1.4-.3-.2-.1-.3-.1-.3-.1-.2 0-.3.1-.4.4h-.3l-.1-2.6h.3c.2.7.6 1.2 1 1.5.4.3.8.5 1.2.5.2 0 .5-.1.6-.2.2-.2.2-.3.2-.6 0-.2-.1-.5-.2-.6s-.5-.5-1-.8c-.8-.6-1.3-1-1.5-1.3-.3-.4-.5-.9-.5-1.4 0-.6.2-1.1.6-1.5.4-.5.9-.7 1.7-.7.4 0 .8.1 1.1.3.1.1.3.1.3.1.1 0 .2 0 .2-.1.1 0 .1-.1.3-.3zM25.4 114.1v2.7h1.7v.8h-1.7v4.5c0 .4 0 .7.1.8s.1.2.2.3c.1.1.2.1.3.1.3 0 .7-.3 1-.8l.2.2c-.4 1-1.1 1.5-2.1 1.5-.5 0-.9-.1-1.2-.4s-.5-.5-.6-.9c-.1-.2-.1-.7-.1-1.4v-3.9h-1v-.3c.7-.5 1.2-1 1.7-1.5s.9-1.1 1.2-1.7h.3zM30.9 116.8v1.7c.5-.8.9-1.3 1.3-1.5.4-.2.7-.4 1.1-.4.3 0 .5.1.7.3.2.2.3.4.3.8 0 .3-.1.6-.3.8-.2.2-.4.3-.6.3-.3 0-.5-.1-.7-.3s-.3-.3-.4-.3h-.2c-.2 0-.3.1-.4.2-.2.2-.4.4-.5.8-.2.5-.2 1.1-.2 1.7v2.1c0 .3 0 .5.1.6l.3.3c.1.1.3.1.6.1v.3h-3.9v-.3c.3 0 .5-.1.6-.3.1-.1.2-.5.2-1.2v-4c0-.4 0-.7-.1-.8-.1-.1-.1-.3-.2-.3-.1-.1-.3-.1-.5-.1v-.3h2.8zM39 123c-.9.8-1.7 1.2-2.4 1.2-.4 0-.8-.1-1-.4-.3-.3-.4-.6-.4-1 0-.6.2-1.1.7-1.5.5-.4 1.5-1 3.1-1.8v-.7c0-.6 0-.9-.1-1-.1-.1-.2-.3-.3-.4-.2-.1-.4-.2-.6-.2-.3 0-.6.1-.8.2-.1.1-.2.2-.2.3 0 .1.1.2.2.4.2.2.3.4.3.6 0 .3-.1.5-.3.7-.2.2-.4.3-.7.3-.3 0-.6-.1-.8-.3-.2-.2-.3-.4-.3-.7 0-.4.1-.7.4-1.1s.7-.6 1.2-.8 1.1-.3 1.7-.3c.7 0 1.2.1 1.6.4.4.3.7.6.8 1 .1.2.1.7.1 1.5v3.4c0 .1.1.1.1.2.1 0 .1.1.2.1s.3-.1.4-.3l.2.2c-.3.4-.5.7-.8.8-.3.2-.6.3-.9.3-.4 0-.7-.1-1-.3s-.4-.4-.4-.8zm0-.6V120c-.6.4-1.1.8-1.4 1.2-.2.3-.3.6-.3.9 0 .2.1.5.3.6.1.1.3.2.5.2s.5-.2.9-.5zM45.8 113.5v9.1c0 .5.1.8.2 1 .1.1.4.2.7.2v.3h-3.9v-.3c.3 0 .6-.1.7-.3.1-.1.2-.4.2-1V115c0-.5-.1-.8-.2-1-.1-.1-.4-.2-.7-.2v-.3h3zM50.2 116.8v5.8c0 .5.1.8.2 1 .1.1.4.2.7.2v.3h-3.9v-.3c.3 0 .6-.1.7-.3.1-.1.2-.4.2-1v-4.3c0-.5-.1-.8-.2-1-.1-.1-.4-.2-.7-.2v-.3h3zm-1.1-3.6c.3 0 .6.1.9.4s.4.5.4.9-.1.6-.4.9c-.2.2-.5.4-.9.4-.3 0-.6-.1-.9-.4s-.4-.5-.4-.9.1-.6.4-.9.6-.4.9-.4zM55.9 123c-.9.8-1.7 1.2-2.4 1.2-.4 0-.8-.1-1-.4-.3-.3-.4-.6-.4-1 0-.6.2-1.1.7-1.5.5-.4 1.5-1 3.1-1.8v-.7c0-.6 0-.9-.1-1-.1-.1-.2-.3-.3-.4-.2-.1-.4-.2-.6-.2-.3 0-.6.1-.8.2-.1.1-.2.2-.2.3 0 .1.1.2.2.4.2.2.3.4.3.6 0 .3-.1.5-.3.7-.2.2-.4.3-.7.3-.3 0-.6-.1-.8-.3-.2-.2-.3-.4-.3-.7 0-.4.1-.7.4-1.1s.7-.6 1.2-.8 1.1-.3 1.7-.3c.7 0 1.2.1 1.6.4.4.3.7.6.8 1 .1.2.1.7.1 1.5v3.4c0 .1.1.1.1.2.1 0 .1.1.2.1s.3-.1.4-.3l.2.2c-.3.4-.5.7-.8.8-.3.2-.6.3-.9.3-.4 0-.7-.1-1-.3s-.4-.4-.4-.8zm0-.6V120c-.6.4-1.1.8-1.4 1.2-.2.3-.3.6-.3.9 0 .2.1.5.3.6.1.1.3.2.5.2s.5-.2.9-.5zM62.8 116.8v.9c.4-.4.7-.7 1.1-.9s.7-.3 1.1-.3c.5 0 .9.1 1.2.4s.5.6.6 1c.1.3.1.9.1 1.7v2.8c0 .6.1.9.2 1.1s.3.2.6.3v.3H64v-.3c.3 0 .5-.2.6-.3.1-.1.1-.5.1-1v-3.2c0-.6 0-1-.1-1.1s-.1-.3-.2-.4c-.1-.1-.2-.1-.4-.1-.4 0-.9.3-1.2 1v3.9c0 .5.1.9.2 1s.3.2.6.3v.3h-3.7v-.3c.3 0 .5-.1.7-.3.1-.1.1-.5.1-1v-4.1c0-.6-.1-.9-.2-1s-.3-.2-.6-.3v-.3h2.9zM79.7 113.2l.1 3.5h-.3c-.2-.9-.5-1.6-1.1-2.1-.6-.5-1.2-.8-1.9-.8-.5 0-1 .1-1.3.4-.3.3-.5.6-.5 1 0 .2.1.4.2.6.2.2.4.5.7.7.2.2.8.5 1.7.9 1.2.6 2.1 1.2 2.5 1.7.4.5.6 1.2.6 1.9 0 .9-.3 1.6-1 2.3-.7.6-1.6 1-2.6 1-.3 0-.6 0-.9-.1s-.7-.2-1.1-.4c-.2-.1-.5-.2-.6-.2-.1 0-.3.1-.4.2-.2.1-.3.3-.4.5H73v-4h.3c.2 1.1.7 2 1.3 2.6.7.6 1.4.9 2.1.9.6 0 1-.2 1.4-.5.3-.3.5-.7.5-1.1 0-.2-.1-.5-.2-.7s-.3-.5-.6-.7c-.3-.2-.8-.5-1.4-.8-1-.5-1.7-.9-2.1-1.2s-.7-.7-1-1.1-.3-.9-.3-1.4c0-.8.3-1.6.9-2.2.6-.6 1.4-.9 2.3-.9.3 0 .7 0 1 .1.2.1.5.2.9.3s.6.3.7.3c.1 0 .2 0 .3-.1s.2-.3.2-.6h.4zM84.4 123.3v2.7c0 .4 0 .6.1.8l.3.3c.1.1.4.1.7.1v.3h-4.2v-.3c.3 0 .6-.1.7-.3.1-.1.2-.4.2-.9v-7.7c0-.5-.1-.8-.2-1-.1-.1-.4-.2-.7-.2v-.3h3.1v1c.3-.4.5-.6.8-.8.4-.2.8-.4 1.2-.4.5 0 1 .2 1.5.5.4.3.8.8 1 1.4.2.6.3 1.2.3 1.9s-.1 1.4-.4 2c-.2.6-.6 1.1-1 1.4-.5.3-1 .5-1.5.5-.4 0-.8-.1-1.1-.3-.2-.1-.5-.3-.8-.7zm0-.8c.4.6.9 1 1.4 1 .3 0 .5-.1.7-.4.3-.4.4-1.3.4-2.5 0-1.3-.1-2.1-.4-2.6-.2-.3-.5-.5-.8-.5-.5 0-1 .4-1.3 1.1v3.9zM94 116.6c.6 0 1.2.2 1.8.5s1 .8 1.2 1.4c.3.6.4 1.3.4 2 0 1-.3 1.9-.8 2.6-.6.8-1.5 1.3-2.6 1.3s-1.9-.4-2.5-1.2-.9-1.7-.9-2.7c0-1 .3-2 .9-2.7.6-.9 1.4-1.2 2.5-1.2zm0 .5c-.3 0-.5.1-.7.3-.2.2-.3.6-.4 1.2-.1.6-.1 1.4-.1 2.5 0 .6 0 1.1.1 1.6.1.4.2.7.4.8s.4.3.6.3c.2 0 .4-.1.6-.2.2-.2.3-.4.4-.7.1-.5.2-1.5.2-3 0-.9 0-1.5-.1-1.8-.1-.3-.2-.6-.4-.7-.2-.2-.4-.3-.6-.3zM101.5 116.8v1.7c.5-.8.9-1.3 1.3-1.5s.7-.4 1.1-.4c.3 0 .5.1.7.3s.3.4.3.8c0 .3-.1.6-.3.8s-.4.3-.6.3c-.3 0-.5-.1-.7-.3s-.3-.3-.4-.3h-.2c-.2 0-.3.1-.4.2-.2.2-.4.4-.5.8-.2.5-.2 1.1-.2 1.7v2.1c0 .3 0 .5.1.6l.3.3c.1.1.3.1.6.1v.3h-3.9v-.3c.3 0 .5-.1.6-.3.1-.1.2-.5.2-1.2v-4c0-.4 0-.7-.1-.8-.1-.1-.1-.3-.2-.3-.1-.1-.3-.1-.5-.1v-.3h2.8zM108.5 114.1v2.7h1.7v.8h-1.7v4.5c0 .4 0 .7.1.8s.1.2.2.3.2.1.3.1c.3 0 .7-.3 1-.8l.2.2c-.4 1-1.1 1.5-2.1 1.5-.5 0-.9-.1-1.2-.4s-.5-.5-.6-.9c-.1-.2-.1-.7-.1-1.4v-3.9h-1v-.3c.7-.5 1.2-1 1.7-1.5s.9-1.1 1.2-1.7h.3zM115.6 116.6l.1 2.5h-.3c-.3-.7-.6-1.2-1-1.5s-.7-.4-1-.4c-.2 0-.4.1-.5.2s-.2.3-.2.5c0 .1.1.3.2.4.2.2.6.6 1.4 1.1s1.3 1 1.5 1.3.4.8.4 1.2c0 .4-.1.8-.3 1.2s-.5.7-.9.9-.8.3-1.2.3c-.3 0-.8-.1-1.4-.3-.2-.1-.3-.1-.3-.1-.2 0-.3.1-.4.4h-.3l-.1-2.6h.3c.2.7.6 1.2 1 1.5s.8.5 1.2.5c.2 0 .5-.1.6-.2s.2-.3.2-.6c0-.2-.1-.5-.2-.6s-.5-.5-1-.8c-.8-.6-1.3-1-1.5-1.3-.3-.4-.5-.9-.5-1.4 0-.6.2-1.1.6-1.5s.9-.7 1.7-.7c.4 0 .8.1 1.1.3.1.1.3.1.3.1.1 0 .2 0 .2-.1s.1-.1.3-.3zM126.4 121.1h-3.7l-.4 1c-.1.3-.2.6-.2.9 0 .3.1.5.4.7.1.1.5.1 1 .2v.3H120v-.3c.4-.1.7-.2.9-.5s.5-.8.9-1.6l3.8-8.5h.1l3.8 8.7c.4.8.7 1.3.9 1.6.2.2.4.3.8.3v.3H126v-.3h.2c.4 0 .7-.1.9-.2.1-.1.2-.2.2-.4v-.3s-.1-.2-.2-.6l-.7-1.3zm-.3-.6l-1.6-3.6-1.6 3.6h3.2zM134.8 116.8v.9c.4-.4.7-.7 1.1-.9s.7-.3 1.1-.3c.5 0 .9.1 1.2.4s.5.6.6 1c.1.3.1.9.1 1.7v2.8c0 .6.1.9.2 1.1s.3.2.6.3v.3H136v-.3c.3 0 .5-.2.6-.3.1-.1.1-.5.1-1v-3.2c0-.6 0-1-.1-1.1s-.1-.3-.2-.4-.2-.1-.4-.1c-.4 0-.9.3-1.2 1v3.9c0 .5.1.9.2 1s.3.2.6.3v.3h-3.7v-.3c.3 0 .5-.1.7-.3.1-.1.1-.5.1-1v-4.1c0-.6-.1-.9-.2-1s-.3-.2-.6-.3v-.3h2.9zM143.6 114.1v2.7h1.7v.8h-1.7v4.5c0 .4 0 .7.1.8s.1.2.2.3.2.1.3.1c.3 0 .7-.3 1-.8l.2.2c-.4 1-1.1 1.5-2.1 1.5-.5 0-.9-.1-1.2-.4s-.5-.5-.6-.9c-.1-.2-.1-.7-.1-1.4v-3.9h-1v-.3c.7-.5 1.2-1 1.7-1.5s.9-1.1 1.2-1.7h.3zM148.9 116.8v5.8c0 .5.1.8.2 1s.4.2.7.2v.3h-3.9v-.3c.3 0 .6-.1.7-.3.1-.1.2-.4.2-1v-4.3c0-.5-.1-.8-.2-1s-.4-.2-.7-.2v-.3h3zm-1.1-3.6c.3 0 .6.1.9.4s.4.5.4.9-.1.6-.4.9-.5.4-.9.4-.6-.1-.9-.4-.4-.5-.4-.9.1-.6.4-.9.6-.4.9-.4zM154.9 121.2h-4.6v-1.6h4.6v1.6zM155.5 124.1v-.3h.4c.3 0 .5 0 .7-.1s.3-.2.4-.4c0-.1.1-.4.1-1v-7c0-.5 0-.9-.1-1s-.2-.3-.3-.4-.4-.2-.7-.2h-.4v-.3h4.7c1.3 0 2.3.2 3.1.5.9.4 1.7 1.1 2.1 1.9s.7 1.8.7 2.9c0 .7-.1 1.4-.4 2.1s-.5 1.1-.9 1.6-.8.7-1.3 1-1.1.4-1.8.6c-.3.1-.8.1-1.5.1h-4.8zm4.1-10v8.3c0 .4 0 .7.1.8s.1.2.2.2c.1.1.3.1.6.1.9 0 1.5-.3 2-.9.6-.8.9-2 .9-3.7 0-1.4-.2-2.4-.6-3.3-.3-.6-.8-1.1-1.3-1.3-.5-.1-1.1-.2-1.9-.2zM170.8 116.6c.6 0 1.2.2 1.8.5s1 .8 1.2 1.4.4 1.3.4 2c0 1-.3 1.9-.8 2.6-.6.8-1.5 1.3-2.6 1.3s-1.9-.4-2.5-1.2-.9-1.7-.9-2.7c0-1 .3-2 .9-2.7s1.5-1.2 2.5-1.2zm.1.5c-.3 0-.5.1-.7.3s-.3.6-.4 1.2-.1 1.4-.1 2.5c0 .6 0 1.1.1 1.6.1.4.2.7.4.8s.4.3.6.3c.2 0 .4-.1.6-.2.2-.2.3-.4.4-.7.1-.5.2-1.5.2-3 0-.9 0-1.5-.1-1.8s-.2-.6-.4-.7c-.2-.2-.4-.3-.6-.3zM178.2 123.3v2.7c0 .4 0 .6.1.8s.2.2.3.3.4.1.7.1v.3h-4.2v-.3c.3 0 .6-.1.7-.3.1-.1.2-.4.2-.9v-7.7c0-.5-.1-.8-.2-1s-.4-.2-.7-.2v-.3h3.1v1c.3-.4.5-.6.8-.8.4-.2.8-.4 1.2-.4.5 0 1 .2 1.5.5s.8.8 1 1.4.3 1.2.3 1.9-.1 1.4-.4 2-.6 1.1-1 1.4-1 .5-1.5.5c-.4 0-.8-.1-1.1-.3-.2-.1-.5-.3-.8-.7zm0-.8c.4.6.9 1 1.4 1 .3 0 .5-.1.7-.4.3-.4.4-1.3.4-2.5 0-1.3-.1-2.1-.4-2.6-.2-.3-.5-.5-.8-.5-.5 0-1 .4-1.3 1.1v3.9zM187.1 116.8v5.8c0 .5.1.8.2 1s.4.2.7.2v.3h-3.9v-.3c.3 0 .6-.1.7-.3.1-.1.2-.4.2-1v-4.3c0-.5-.1-.8-.2-1s-.4-.2-.7-.2v-.3h3zm-1-3.6c.3 0 .6.1.9.4s.4.5.4.9-.1.6-.4.9-.5.4-.9.4-.6-.1-.9-.4-.4-.5-.4-.9.1-.6.4-.9.5-.4.9-.4zM191.7 116.8v.9c.4-.4.7-.7 1.1-.9s.7-.3 1.1-.3c.5 0 .9.1 1.2.4s.5.6.6 1c.1.3.1.9.1 1.7v2.8c0 .6.1.9.2 1.1s.3.2.6.3v.3h-3.7v-.3c.3 0 .5-.2.6-.3.1-.1.1-.5.1-1v-3.2c0-.6 0-1-.1-1.1s-.1-.3-.2-.4-.2-.1-.4-.1c-.4 0-.9.3-1.2 1v3.9c0 .5.1.9.2 1s.3.2.6.3v.3h-3.7v-.3c.3 0 .5-.1.7-.3.1-.1.1-.5.1-1v-4.1c0-.6-.1-.9-.2-1s-.3-.2-.6-.3v-.3h2.9zM202.3 116.9h2.5v.9h-1.4c.3.3.4.5.5.7.1.3.2.6.2.9 0 .5-.1 1-.4 1.4s-.7.7-1.2.9-.9.3-1.3.3h-.9c-.2 0-.4.1-.6.2s-.2.3-.2.6c0 .2.1.3.2.5s.4.2.7.2h1.4c1.1 0 1.8.1 2.3.4.6.3.9.8.9 1.5 0 .4-.1.8-.4 1.2s-.6.6-1.1.8c-.7.3-1.4.4-2.3.4-.7 0-1.3-.1-1.8-.2s-.9-.3-1.2-.5-.4-.5-.4-.7c0-.2.1-.5.3-.6s.5-.4 1-.5c-.7-.3-1-.8-1-1.4 0-.4.1-.7.4-1s.7-.6 1.3-.9c-.7-.3-1.2-.6-1.5-1s-.5-.9-.5-1.4c0-.7.3-1.3.9-1.9s1.3-.8 2.2-.8c.4-.3.9-.2 1.4 0zm-1.8 8.3c-.5 0-.9 0-1.1.1-.3.2-.4.4-.4.7 0 .3.2.5.5.7s.9.3 1.7.3c.7 0 1.3-.1 1.7-.3s.6-.5.6-.8c0-.1 0-.2-.1-.3-.1-.2-.4-.3-.6-.3s-1.1-.1-2.3-.1zm.5-8.2c-.3 0-.6.2-.8.5s-.3.9-.3 1.9c0 .8.1 1.3.3 1.6s.4.4.7.4c.3 0 .6-.1.8-.4s.3-.8.3-1.7c0-.9-.1-1.6-.4-1.9-.1-.2-.3-.4-.6-.4zM214.9 121.1h-3.7l-.4 1c-.1.3-.2.6-.2.9 0 .3.1.5.4.7.1.1.5.1 1 .2v.3h-3.5v-.3c.4-.1.7-.2.9-.5s.5-.8.9-1.6l3.8-8.5h.1l3.8 8.7c.4.8.7 1.3.9 1.6.2.2.4.3.8.3v.3h-5.1v-.3h.2c.4 0 .7-.1.9-.2.1-.1.2-.2.2-.4v-.3s-.1-.2-.2-.6l-.8-1.3zm-.3-.6l-1.6-3.6-1.6 3.6h3.2zM227.4 116.8v5.7c0 .6.1.9.2 1s.3.2.6.3v.3h-3v-1c-.3.4-.7.7-1 .9s-.7.3-1.2.3c-.4 0-.8-.1-1.1-.4s-.5-.5-.6-.9-.2-.9-.2-1.8v-2.9c0-.6-.1-.9-.2-1s-.3-.2-.6-.3v-.3h3v5c0 .5 0 .9.1 1s.1.3.2.3.2.1.4.1.4 0 .5-.1c.2-.1.5-.4.8-.8v-3.9c0-.6-.1-.9-.2-1s-.3-.2-.6-.3v-.3h2.9zM232.1 114.1v2.7h1.7v.8h-1.7v4.5c0 .4 0 .7.1.8s.1.2.2.3.2.1.3.1c.3 0 .7-.3 1-.8l.2.2c-.4 1-1.1 1.5-2.1 1.5-.5 0-.9-.1-1.2-.4s-.5-.5-.6-.9c-.1-.2-.1-.7-.1-1.4v-3.9h-1v-.3c.7-.5 1.2-1 1.7-1.5s.9-1.1 1.2-1.7h.3zM237.5 113.5v4.2c.4-.4.8-.7 1.1-.9s.7-.3 1-.3c.5 0 .9.1 1.2.4s.5.6.6.9.2.9.2 1.8v2.9c0 .6.1.9.2 1s.3.2.6.3v.3h-3.7v-.3c.3 0 .5-.1.6-.3.1-.1.1-.5.1-1v-3.3c0-.6 0-1-.1-1.1s-.1-.3-.2-.4-.2-.1-.4-.1-.4.1-.6.2-.4.4-.6.8v3.9c0 .5 0 .8.1 1 .1.2.3.3.6.3v.3h-3.7v-.3c.3 0 .5-.1.7-.3.1-.1.1-.5.1-1v-7.4c0-.6-.1-.9-.2-1s-.3-.2-.6-.3v-.3h3zM246.9 116.6c.6 0 1.2.2 1.8.5s1 .8 1.2 1.4.4 1.3.4 2c0 1-.3 1.9-.8 2.6-.6.8-1.5 1.3-2.6 1.3s-1.9-.4-2.5-1.2-.9-1.7-.9-2.7c0-1 .3-2 .9-2.7s1.4-1.2 2.5-1.2zm0 .5c-.3 0-.5.1-.7.3s-.3.6-.4 1.2-.1 1.4-.1 2.5c0 .6 0 1.1.1 1.6.1.4.2.7.4.8s.4.3.6.3c.2 0 .4-.1.6-.2.2-.2.3-.4.4-.7.1-.5.2-1.5.2-3 0-.9 0-1.5-.1-1.8s-.2-.6-.4-.7c-.2-.2-.4-.3-.6-.3zM254.5 116.8v1.7c.5-.8.9-1.3 1.3-1.5s.7-.4 1.1-.4c.3 0 .5.1.7.3s.3.4.3.8c0 .3-.1.6-.3.8s-.4.3-.6.3c-.3 0-.5-.1-.7-.3s-.3-.3-.4-.3h-.2c-.2 0-.3.1-.4.2-.2.2-.4.4-.5.8-.2.5-.2 1.1-.2 1.7v2.1c0 .3 0 .5.1.6l.3.3c.1.1.3.1.6.1v.3h-3.9v-.3c.3 0 .5-.1.6-.3s.2-.5.2-1.2v-4c0-.4 0-.7-.1-.8-.1-.1-.1-.3-.2-.3s-.3-.1-.5-.1v-.3h2.8zM261.4 116.8v5.8c0 .5.1.8.2 1s.4.2.7.2v.3h-3.9v-.3c.3 0 .6-.1.7-.3.1-.1.2-.4.2-1v-4.3c0-.5-.1-.8-.2-1s-.4-.2-.7-.2v-.3h3zm-1.1-3.6c.3 0 .6.1.9.4s.4.5.4.9-.1.6-.4.9-.5.4-.9.4-.6-.1-.9-.4-.4-.5-.4-.9.1-.6.4-.9.6-.4.9-.4zM265.9 114.1v2.7h1.7v.8h-1.7v4.5c0 .4 0 .7.1.8s.1.2.2.3.2.1.3.1c.3 0 .7-.3 1-.8l.2.2c-.4 1-1.1 1.5-2.1 1.5-.5 0-.9-.1-1.2-.4s-.5-.5-.6-.9c-.1-.2-.1-.7-.1-1.4v-3.9h-1v-.3c.7-.5 1.2-1 1.7-1.5s.9-1.1 1.2-1.7h.3zM271.7 124.4l-2.4-5.4c-.4-.8-.6-1.3-.8-1.5s-.4-.3-.6-.4v-.3h3.9v.3c-.3 0-.4.1-.5.1s-.2.2-.2.3c0 .2.1.6.4 1.2l1.2 2.9.9-2.2c.3-.8.5-1.3.5-1.6 0-.2-.1-.3-.2-.5s-.4-.2-.7-.2v-.3h2.4v.3c-.2 0-.4.1-.6.3s-.4.7-.8 1.6l-2.1 5.4c-.5 1.4-.9 2.2-1.2 2.5-.4.4-.8.7-1.4.7-.4 0-.8-.1-1.1-.4s-.4-.5-.4-.9c0-.3.1-.6.3-.8s.4-.3.7-.3c.3 0 .5.1.6.2s.2.4.2.8c0 .2 0 .3.1.4s.1.1.2.1.3-.1.4-.2c.2-.2.5-.7.7-1.5l.5-.6z"/></g></svg>