<svg id="Layer_1" xmlns="http://www.w3.org/2000/svg" viewBox="-99 0 400 200"><style>.st0{fill:none;stroke:#000;stroke-width:.5;stroke-miterlimit:10}.st1{font-family:&amp;apos;TimesNewRomanPS-BoldMT&amp;apos;}.st2{font-size:16px}</style><path class="st0" d="M55.8 107.6h181.1"/><path d="M-7.2 117.2c-.1.1-.1.2-.2.2M-5.2 102.2c.2 0 .4-.2.4-.4s-.2-.4-.4-.4-.4.2-.4.4.1.4.4.4zM13.4 85.2H-1.1v11.7c0 1.1.5 2.1 1.1 2.4l5.6 3.3c.1.1.3.2.5.2s.3-.1.5-.2l5.7-3.4c.7-.3 1.1-1.3 1.1-2.4V85.2zm-9.7 3.4H2.4v-3h1.3v3zm-.9 1l.2-.2-.1-.2h.2l.1-.2.1.2h.2l-.1.2.2.2h-.2v.2l-.2-.2-.2.2v-.2h-.2zm-3.5 3.8v-2.8H.8v2.8H-.7zm.3-4.2h.2l.1-.2.1.2h.2l-.1.2.2.2H.1v.2l-.2-.2-.2.2v-.2h-.2l.2-.2-.1-.2zm1.7 2.9h.2l.1-.2.1.2h.2l-.1.2.2.2h-.2v.2l-.2-.2-.2.2v-.2h-.2l.2-.2-.1-.2zm1-2.3c0-.1-.1-.1-.2-.1s-.2.2-.3.2-.1 0-.1-.1.2-.1.2-.2c-.9 0-1 .4-1.1.4-.2 0 .2-.5.3-.6-.2 0-.3-.3-.5-.4.1-.1.2-.1.3 0 0-.1.1-.2.3-.2.4 0 .3.4.4.4.1 0 0-.4.3-.4.4 0 .9 1.1.5 1.1-.3.1-.1 0-.1-.1zm-1.1-3.1l.2-.2-.1-.2h.2l.1-.2.1.2h.2l-.1.2.2.2h-.2v.2l-.2-.2-.2.2v-.2h-.2zm-.4-1.1v3H-.7v-3H.8zm2.9 15.5L.2 99c-.6-.4-.9-1.1-.9-1.9v-3.3h4.4v7.3zm-1.2-7.7v-2.8h1.3v2.8H2.5zm5.7 7.9l-1.6 1c-.1.1-.3.1-.4.1s-.3-.1-.4-.2l-1.6-1v-7.5h4.1l-.1 7.6zm0-7.9H4.1v-7.8h4.1v7.8zM13 97c-.1.8-.4 1.5-.9 1.9L8.6 101v-7.3H13V97zm0-3.6H8.6v-7.8H13v7.8z"/><path d="M3.5 96.4c0-.1-.5.2-.4.2 0-.2.3-.5.4-.6 0-.2-.3 0-.5.1.8-1.2.3-.7-.2-.6.7-.8.5-.8 0-.5.4-.3.5-.7.5-.9-.4.5-.8.4-.8.9 0 .3-.1.9-.3 1-.2.2-.1-.9-.6-.9-.2 0-.6 0-.7.2.1 0 .3.3.3.4 0 .1.1.4-.1.4s-.4-.4-.4-.6v-.4c0-.5-.8-1.1-1.1-1.1 0 .3.4.4.4.8-.2 0-.4-.3-.4-.1s.3.2.3.4-.3-.1-.3.1.2.1.2.3h-.3c0 .1 0 .1.1.2 0 0-.1.1-.1.4 0 .9.6 1.4 1 1.4.3 0 .3-.2.3-.3 0 .2.2-.1.2.2 0 .3-.3.2-.3.4 0 .3.5 0 .5.4s-.1.4-.1.6c0 .1.5-.2.5-.2.1 0 .1.4.3.4.1 0 .2-.4.3-.4-.1 0 .4.3.4.2 0-.4-.2-.2-.2-.5s.6-.2.5-.4c-.1-.1-.1 0-.2-.2 0 0-.5-.7.1-.3.6.4.7-.9.7-1zM18.9 99.5c.3 0 .5-.2.5-.4s-.2-.4-.5-.4-.5.2-.5.4c.1.2.3.4.5.4zM17 100.6c.3 0 .5-.2.5-.4s-.2-.4-.5-.4-.5.2-.5.4.3.4.5.4zM-5.9 103.3c.3 0 .5-.2.5-.4s-.2-.4-.5-.4-.5.2-.5.4.2.4.5.4zM-4.4 103.4c.3 0 .5-.2.5-.4s-.2-.4-.5-.4-.5.2-.5.4.2.4.5.4zM36.8 83.4c.7.8.9 2.2.4 3.2-.3 0-.2-.4-.3-.6-.5-.9-.9-2.1-.5-3.2.4 0 .2.5.4.6zM-23.7 84.6c-.2.6-.2 1.5 0 2-.1.1-.1-.1-.2-.1-1-.7-.5-2.1-.8-3.1.1-.1.2-.1.2-.1.5.3.7.8.8 1.3zM39 84.7c.1.3-.1.6-.3.7-.2.1-.5-.1-.6-.3-.1-.3.1-.5.3-.7.2 0 .4 0 .6.3zM-25.2 85.8c-.1.2-.1.5-.3.6-.2 0-.4 0-.5-.1-.2-.1-.2-.4-.1-.5.1-.2.3-.2.5-.2.1-.1.3 0 .4.2zM40 86.2c.1.2.1.3 0 .4-.2.2-.4.3-.7.2-.2-.1-.2-.3-.3-.4.1-.2.2-.4.4-.5.3 0 .4.2.6.3zM38.5 86.2c.2.1.1.4 0 .5-.1.1-.3.3-.5.3-.1-.1-.3-.1-.3-.3 0-.3.1-.5.4-.6.2 0 .3 0 .4.1zM36.7 86.6c0 .3 0 .6-.3.7-.3.1-.5-.2-.6-.4 0-.3.1-.5.4-.6.2 0 .4.2.5.3zM-22.5 86.7c.1.3-.2.4-.3.5-.2.1-.4-.1-.5-.3-.2-.2.1-.3.1-.5.3-.1.6.1.7.3zM-24 86.8c0 .2-.1.4-.3.5-.2.1-.4-.1-.5-.2-.1-.2 0-.5.2-.6.3-.1.5.1.6.3zM30.6 86.9c.2.5.5 1.2.5 1.8-.1.5.1 1.1-.3 1.5-.4-.1-.4-.6-.6-.8-.5-.9-.1-1.9.1-2.8.2-.1.2.2.3.3zM-25.2 87.2c.1.3-.1.5-.3.6-.3.1-.5-.2-.6-.4 0-.2.1-.5.3-.6.3.1.5.2.6.4zM34.6 88c.3.7.4 1.6.1 2.4l-.2.1c-.4-.7-.9-1.3-1-2.1 0-.5.1-1 .3-1.5.2-.1.3 0 .4.2 0 .4.1.7.4.9zM37.8 87.5c0 .3-.1.5-.4.6-.2.1-.5 0-.6-.3-.1-.3.1-.5.3-.6.3-.2.5.1.7.3zM-23.9 88.3c0 .2-.2.4-.4.5-.2.2-.4-.1-.5-.2-.1-.2-.1-.4 0-.6s.2-.2.4-.2c.2.1.4.2.5.5zM-22.8 88.2c.1.2-.2.4-.3.5-.3.1-.5-.1-.6-.3-.1-.3.1-.4.3-.6.3-.1.4.1.6.4zM38.5 88.1c0 .3-.5.7-.6 1-.3.7-.9 1.2-1.6 1.4-.1.1-.4.3-.6.3-.1-.5.4-1 .7-1.4.6-.7 1.3-1.1 2.1-1.3zM-24.4 89.2c.4.4.6.8 1 1.2 0 .1-.1.3-.2.3-1.2-.1-2.1-1.3-2.7-2.2.1-.3.4-.1.6-.1.4.2.9.3 1.3.8zM38.8 89.5c-.1 1.1-.6 2.2-1.6 2.7-.3.1-.6.4-.9.2.5-1.1 1.3-2 2.2-3h.3v.1zM34 90.2c.1.4-.1.6-.4.7-.3 0-.5-.2-.6-.4 0-.2.1-.5.4-.6.1-.1.2-.1.3-.1.1.2.1.3.3.4zM-25.8 90.5c.5.3.9.8 1.4 1.2-.3.2-.7 0-1.1 0-.9-.3-1.4-1-2.3-1.3 0-.3.4-.2.5-.3.5 0 .9.2 1.5.4z"/><path d="M1.2 82.9c-1.4-.6-2.4.9-3.8.7-.2.1-.1.3-.2.4-.1.1-.2 0-.3 0-.1-.6-.3-1.2-.4-1.8-.1-.2-.1-.6-.2-.9-.8-2.2 2-.5 2.5-1.8.5-1.1-.9-1.2-1.4-2v-.3c-.4-.4-.8-.5-1.1-1.1.2-.6.2-1.3.1-2 0-.2-.1-.4-.4-.3-.5.7-.8 1.2-1.3 1.8-.5-.4-.9-.8-1.5-1.1-.4-.1-.7-.4-1.2-.3-.1.2 0 .3.1.4 0 1 .5 1.8 1.2 2.5l.1.4c-.5 1-.3 2.2-.5 3.4-1.1 2.9-3 5.7-5.5 7.7-1.4 1.6-3.2 3.2-3.4 5.4-.1.4.1.8-.2 1-.8-.3-1.7-.7-2.4-1.2-1.2-.8-2.8-.7-3.6-2.2-.3-.6.1-1.2.4-1.6.9-.8.7-2.3.3-3.3-.1 0-.1.1-.2.1-.1 1.5-1.3 2.5-.8 4.2.1.5.4.8.5 1.2-.2-.1-.4-.1-.6-.1-.6-.1-1.1-.3-1.7-.2-1.2.5-2.8-.1-3.7.9-.2 0-.4.1-.3.3.6 0 1.1.2 1.6.1.9.2 1.5-.6 2.1-.9h.2c.2-.3.7-.1 1-.2 1.6.2 2.8.9 4.1 1.7v.1c-.5.2-1.1.4-1.6.7-.6.4-1.2 1-1.4 1.7-.4.6.1 1.2.4 1.7 0 .3.1.6.3.7.8-.9.1-1.9.2-2.9.2-.8.9-1.1 1.6-1.3 1.4-.6 2.5.6 3.6 1.2 0 1.2.1 2.3-.1 3.4-.4.1-.8.2-1.2.2-2 .2-3.6 1.2-5.4 1.9-.8.3-1.8.3-2.6.6.6.2 1.3-.1 1.9-.1 2.5-.4 4.4-2.3 7-1.9l.1.1c-.3.6-.7 1.2-1.2 1.7-.1-.3-.1-.5-.4-.7-.2-.1-.4 0-.6.2-.1.1-.1.3 0 .4.1.2.3.3.5.4-.1.2-.3.3-.5.5-.7 1.2-2.2.7-3 1.6-.1.2-.6.3-.4.6 1 .1 1.9-.2 2.6-.7.9-1 1.9-2 2.9-3 .2.8-.1 1.7-.6 2.3-.2-.1-.4-.3-.7-.4-.3.1-.4.3-.5.5.1.2.2.4.4.5-.9.6-1.9.7-2.9.9-1.8.2-3.6.4-5.5.4-.9-.1-1.9.3-2.7 0-1 .2-2-.1-2.8.4-.1.1 0 .3 0 .4 1.2.8 2.8.2 4.1.4h10c.7 0 1.5-.1 2.1-.4 1.3-.7 2-2.1 2.7-3.4.2-.5.4-1 .5-1.5.2-.9 1-1.5 1.9-1.6.1 1.3-.1 2.6-.4 3.9-.2.8-.7 1.6-.4 2.5.1.4.5.4.8.5 3.1-.1 6.1-.2 9.3.1.6.1 1.1.3 1.7.3.1-.1.2-.1.2-.3-.1-.3-.3-.6-.6-.7-.1-.2-.3-.1-.4-.2-1.6-.9-3.6-.4-5.5-.4-1 .1-2 .3-2.8-.3-.4-.5-.1-1.9-.1-1.9 0-.6 1.4-4.6 1.6-4.9.1-.4.2-.7.2-1.2.7-.5.7-1.1.7-1.7.1-.8.5-1.6.8-2.4.1-.4.3-.8.4-1.2.2-.5.2-.9.5-1.3.8.5 1.6.5 2 1.4l.4 2.1c0 .1.1.4.3.2.7-.4.5-1.4.5-2.1.1-.8-.4-1.2-.6-1.9-.2-.1-.5-.7-.5-.7-.1-.6-1.3-.9-1-1.6.2-.6.3-1.1.9-1.5.1.1.1.1.1.2h.2v-2.1c.8 0 2 .1 2.9.1.2.1.4.3.7.3l.2-.3 2-.4c-.9 0-1.5-1-2.3-1zM3.4 83.8h.2-.2z"/><path d="M-18.6 90.9c0 .3-.2.5-.4.6-.2-.1-.4-.1-.5-.3-.1-.3.2-.5.4-.6.2.1.5.1.5.3zM-20.2 90.9c.2.2.2.4.1.6-.2.2-.5.3-.6.1-.2-.2-.3-.3-.2-.5.2-.2.5-.4.7-.2zM34.2 91.6c.1.3-.1.5-.3.6-.3-.1-.6-.1-.6-.5 0-.2.2-.3.4-.4.2 0 .4.2.5.3zM35.6 91.6c.1.1.2.3.1.5-.1.1-.2.1-.2.2-.3.1-.5-.1-.6-.3-.1-.3.2-.4.4-.5 0-.1.1 0 .3.1zM-26.6 91.9c-.1.3-.4.4-.7.3-.1-.1-.2-.2-.2-.3 0-.2.1-.4.3-.4.3 0 .6.1.6.4zM-18 92.3c0 .2-.3.4-.4.5-.3 0-.4-.2-.6-.4 0-.2.1-.5.3-.5.3-.1.6.2.7.4zM-19.5 92.2c.1.1.2.3.1.4-.2.1-.4.4-.6.2-.2-.1-.3-.2-.3-.5.1-.1.2-.3.4-.3.1-.1.2.1.4.2zM39.4 92.5c0 .2-.2.4-.3.5-.2.1-.4 0-.6-.1-.1-.1-.1-.3-.1-.4.1-.2.3-.3.5-.3.3 0 .4.1.5.3zM41.1 92.7c-.1.2-.2.4-.5.5-.2 0-.4-.1-.4-.3 0-.2.1-.4.2-.4.3-.2.6-.1.7.2zM-23.7 93c.1.3-.1.5-.3.6-.2.1-.4 0-.5-.1-.1-.1-.2-.3-.1-.5s.3-.2.4-.3c.3.1.4.2.5.3zM-22.4 93.3c.1.2-.2.3-.2.4-.1.1-.3.2-.5.1-.2-.2-.4-.4-.2-.6.2-.4.7-.2.9.1zM37.9 93.2c0 .2-.2.4-.4.6-.2.1-.5-.1-.5-.3s.1-.4.3-.5c.3-.1.5-.1.6.2zM40 93.6c-.1.2 0 .5-.3.6-.2.1-.5 0-.6-.1-.1-.1-.2-.4-.1-.5.1-.2.4-.4.6-.3.2 0 .3.2.4.3zM-24.6 94.1c.1.2-.1.3-.2.4-.2.1-.4 0-.5-.1-.2-.1-.1-.4-.1-.5.2-.4.7-.1.8.2zM38.4 94.6c.1 0 .1.2 0 .2-.6.3-1.5.4-2-.1-.3-.3-.7-.4-1-.6.1-.3.6-.3.9-.4.7.2 1.3.9 2.1.9zM-23.4 94.3c.1.2-.1.3-.2.4-.1.2-.3.1-.4.1-.2-.2-.3-.4-.2-.6.3-.3.6-.1.8.1zM-21.2 94.5c.1.2-.1.4-.2.6-.2.1-.3-.1-.5-.1-.1-.2-.4-.4-.1-.6.2-.4.6-.2.8.1zM8 95.6c-.1.5-.9-.1-.8.6.1.5.2 1.1.5 1.4.2.3.1.9.1 1.3-.2.4-.6.6-1 .8-.7-.1-1.8.4-2.1-.5-.1-.4-.4-.8-.4-1.2.1-.1.2-.1.2-.1 0-.2-.2-.3-.2-.4.8-.1-.3-.9.4-.9.6.6 1.5.4 2 1.1.1.1.2.2.4.3-.1-.6-.4-1.2-.5-1.9-.1-.3.1-.7.3-.8.5-.5.9 0 1.1.3zM-19 95.4c.1.3-.1.4-.3.5-.2.1-.4-.2-.5-.3-.1-.3.1-.4.3-.5.2.1.4.1.5.3zM-3.4 95.7c.3 1 .2 2-.3 2.9 0 .2.1.5-.2.5-.7-.9-.2-2.3.1-3.3 0-.3.4-.4.4-.1zM18.3 96.1c.4.7.4 1.7.1 2.4l-.2.2c-.3-.6-.5-1.2-.6-1.8.1-.5.3-.9.3-1.3.3-.1.3.4.4.5zM-17 96.4c-.2.3-.6.4-.9.6-.6.5-1.5.6-2.2.4.7-.9 1.7-1.5 2.9-1.2 0 .2.2.1.2.2zM-27.4 97.3c.9.7 1.2 1.6 1.7 2.5.1.1.3.1.2.3-.2.2-.4-.2-.7-.1-1-.4-1.6-1.5-1.5-2.6.1-.1.2-.1.3-.1zM17.3 98.1c0 .3 0 .5-.2.6-.3.1-.5-.1-.6-.3-.1-.2.1-.3.1-.4.2-.2.5-.1.7.1z"/><path d="M27.9 99.5c0-.5.1-.9.2-1.4.1-.2.1-.3.1-.5.6-.8 1.8-.6 2.8-.5.4.2.9.2 1.3.3.2-.1.4-.2.6-.1.8-.4.3-1.4.3-2.1l-.3-.8c-.1-.2-.2-.3-.2-.5-.1-.2-.2-.5-.4-.7-.4-1.1-1.3-1.8-2-2.6C29 88.9 27 88 25 87.3s-4 .2-5.8.8c-.5-.2-.8-.6-1-1.1-.1-1 .1-1.9.5-2.7.1-.6.5-1.1.7-1.7.5-1.4.9-2.8 1-4.4.1-.9-.7-1.6-1.4-2-.5-.1-1-.1-1.4.3-.3.7-1 1.2-1.6 1.5-.1.4.5.2.7.3.6.1 1.2-.1 1.6.3.1 1-.5 1.9-1.1 2.6-.9 1.3-1.8 2.6-2.3 4l-.1-.1.1 6.2c.8 1.3 1.8 2.9 3.3 3.4.8.7 1.8 1.5 2.9.9.6-.2.6.6.9 1 .3.9-.4 1.6-.4 2.5l-.7 1.4c-.8 1.5-1.4 3.1-2.6 4.3-.4 0-.6.4-1 .4-.2.3-.6.1-.9.2-.8.3-1.9.1-2.4.9.1.1.1.1.2.1 1.5 0 3.3.1 4.9.1.2-.1.4-.3.4-.5-.2-.4.1-.8.3-1.1.1-.6.5-1 .7-1.6.5-1 1.1-2.1 1.7-3.1l.8-1.3c.2-.4.5-1 .8-1.4.2-.2.3-.4.5-.7 0-.3-.1-.4-.2-.5.2-.2.5-.1.7-.2.6.4 1.3 1 1.4 1.7l.2.7.1.3-.1.8.1.8c.1 1.2-.1 2.5-.2 3.7-.4 1.5-2.1 1.3-3.3 1.7-.3.2-.9.1-.9.6 1.5.3 3.2.1 4.7.1.2-.1.3-.3.4-.6.1-.3.4-.6.3-1-.3-.4 0-.9-.1-1.4.1-.1.1-.3 0-.5.2-.7.2-1.6.3-2.3l.2-1.2zM40.4 98.5c-.8 1.1-1.7 2.4-3.1 2.9-.1 0-.2.1-.2-.1.9-.9 1.3-2.3 2.7-2.7.1-.1.4-.2.6-.1zM-28.6 99.7c-.1.1 0 .3-.2.4-.2.1-.4 0-.5-.2-.1-.3.1-.5.3-.6.1.1.3.2.4.4zM-21.3 100.1c.1.2-.2.2-.3.3-1.1.4-2.1 0-2.9-.7 0-.1 0-.2.1-.2 1 .2 2.2 0 3.1.6zM-27.2 99.8c.1.1.1.3.1.4-.2.2-.4.3-.6.2-.2-.1-.2-.2-.3-.3 0-.3.2-.4.4-.5.1 0 .2 0 .4.2zM-3.6 99.9c.1.2-.2.4-.3.5-.2.1-.4-.1-.5-.2-.1-.2 0-.4.2-.5.2-.1.6 0 .6.2zM41.3 100c.1.2-.1.4-.3.5-.2.1-.3 0-.5-.1 0-.1-.2-.2-.1-.4s.3-.3.6-.3l.3.3zM43 99.9c.2.2 0 .4-.1.6-.1.2-.3.2-.5.2-.2-.2-.4-.2-.4-.5 0-.2.2-.4.4-.4.3-.2.4.1.6.1zM-29.7 100.6c0 .2-.1.3-.2.4-.1.1-.2.2-.4.1s-.3-.2-.4-.4c.1-.2.2-.4.5-.5.2.1.4.2.5.4z"/><path d="M23.5 100.6c.1.1 0 .2 0 .3-.2.2-.4.4-.6.2-.2-.2-.3-.3-.2-.5.2-.2.6-.3.8 0zM-25.6 101c-.1.2-.1.4-.4.4s-.3-.2-.4-.3c0-.2 0-.5.2-.6.3-.1.6.2.6.5zM-28 101.1c.1.3-.1.4-.2.6-.3.1-.6-.1-.7-.4 0-.2.2-.5.5-.6.1 0 .2.2.4.4zM25.2 101c.1.2 0 .5-.3.6-.3.1-.6-.2-.7-.4.1-.2.2-.5.5-.5.2 0 .4.1.5.3zM-26.9 101.1c.1.2-.1.3-.1.4-.1 0-.2.2-.4.1-.1-.1-.3-.2-.3-.4 0-.3.2-.4.3-.5.3 0 .5.2.5.4zM39.9 101.3c-.1.2-.2.3-.4.4-.2.1-.3-.1-.5-.2-.1-.1-.1-.3 0-.5.2-.4.9-.2.9.3zM41.8 101.4c-.1.3-.4.4-.6.4-.2-.1-.5-.3-.3-.6.1-.1.1-.2.3-.2.3-.1.6.2.6.4zM29.9 101.6c.1.3-.2.4-.4.6-.2 0-.3-.1-.5-.2-.1-.3.1-.5.4-.7.2 0 .3.1.5.3zM22.9 101.9c.1.1.1.2.1.3-.2.1-.4.4-.6.2-.2-.1-.3-.3-.3-.5.1-.2.7-.3.8 0zM24.3 102.1c0 .2 0 .3-.2.4-.2.2-.4 0-.6-.1-.1-.1-.1-.3 0-.4.1-.1.2-.2.3-.2.2.1.4.1.5.3zM-18.6 102.1c.2.2 0 .3-.1.5s-.4.3-.6.1c-.2-.1-.2-.4-.2-.6.2-.1.2-.2.4-.2.3 0 .4.1.5.2zM32.6 102.2c.1.3-.2.4-.4.4-.3.1-.5-.1-.6-.3 0-.2.1-.2.2-.4.3-.1.6.1.8.3zM31.2 102.2c.1.3-.2.4-.3.5-.2.1-.4.1-.6-.1-.1-.1-.1-.2-.1-.4.2-.1.2-.3.4-.3.3 0 .5.1.6.3zM42.6 102.5c.1.4-.4.2-.6.3-1.1.6-2.4.2-3.4-.2.1-.3.5-.2.7-.3 1-.8 2.1.1 3.3.2zM-26.6 102.2l-.1.2c-.9.6-2.1.9-3.3.6l-.1-.2c1-.7 2.2-.8 3.5-.6zM35.1 102.4c0 .2-.1.4-.2.5-.2.1-.6 0-.7-.3-.1-.2.1-.4.3-.5.2 0 .5 0 .6.3zM-22.1 102.5c-.1.2-.1.4-.3.5-.2.1-.6-.1-.6-.3-.1-.3.1-.4.2-.5.4-.2.6.1.7.3zM-23.8 102.6c.1.2-.1.3-.1.4-.1.2-.4.1-.5.1-.2-.2-.4-.3-.3-.6.2-.1.2-.2.4-.3.2.1.4.2.5.4zM36.9 103.2c0 .2-.2.4-.4.5-.2 0-.4-.1-.5-.3-.1-.2-.1-.4.1-.5.1-.1.2-.1.3-.1.3 0 .5.2.5.4zM-25.7 102.9c.1.2-.1.3-.1.4-.1.4-.4.7-.5 1.1-.5.6-1.2.6-1.8.8l-.1-.2c.6-.9 1.4-1.7 2.5-2.1zM35.6 103.5c.1.3-.2.4-.4.5-.2 0-.4-.1-.5-.3-.1-.3.2-.4.3-.5.3-.1.6.1.6.3zM-22.8 103.5c0 .1 0 .1 0 0 .1.4-.1.5-.3.6-.2 0-.4-.1-.6-.2-.1-.2 0-.5.2-.6.3-.1.6-.1.7.2zM40.3 104.2c.2 0 .3-.3.6-.4.2-.1.5.1.6.3.1.3-.1.5-.3.6-.2.1-.6-.2-.5.2.2.1.3.3.4.5-.1.1-.2.1-.3 0-.7-.3-1.5-.8-1.8-1.6-.1-.2-.6-.4-.3-.6.6 0 1.2.6 1.6 1zM42.7 103.5c.1.1.1.4 0 .5-.1.3-.5.2-.7.1-.1-.1-.2-.3-.2-.5.1-.2.2-.2.4-.3.2-.1.3 0 .5.2zM33.5 104.8c.2.3.5.7.6 1-.1.1-.2.1-.2.1-.9-.5-2-1-2.3-2-.1-.1-.3-.2-.2-.4.7-.1 1.3.4 1.7.7.1.2.3.4.4.6zM-24.2 103.9c.1.2-.1.4-.2.5-.3.1-.4-.1-.6-.2-.2-.3.2-.5.4-.6.1-.1.2.1.4.3zM36.7 104.5c0 .2-.2.3-.2.4-.2 0-.4.1-.6-.1-.1-.1-.2-.3 0-.5.2-.4.6-.1.8.2zM43 104.8c.1.3-.2.5-.4.6-.2.1-.5-.1-.6-.2-.1-.2 0-.3 0-.5.2-.2.4-.3.7-.2l.3.3zM25.5 108.3c0 .3-.6.2-.8.5-.8.4-1.7.4-2.7.4v-.2c1-.8 2.3-1 3.5-.7zM-11.4 109.4c0 .2-.2.4-.4.4s-.4-.1-.4-.2c-.1-.3.2-.4.3-.6.3.1.5.2.5.4zM25.1 109.7c-.1.2-.1.5-.4.6-.2.1-.4-.1-.6-.2-.1-.1-.1-.3-.1-.4.2-.5.9-.5 1.1 0zM30.1 109.8c-.6.4-1.3.9-2.2.9h-1.4l-.1-.1c.8-1 2.4-1 3.7-.9v.1zM-18.3 110.4c0 .2-.1.4-.3.5-.2.1-.4-.1-.5-.2-.1-.2 0-.5.2-.6.2-.2.5.1.6.3zM-17 110.7c.1.1-.1.2-.1.3-.1.1-.4.1-.5 0-.2-.1-.2-.3-.2-.4.1-.2.2-.1.3-.2.2 0 .4.1.5.3zM-26.7 113.2c-.2.3-.7-.1-.9-.2-.9-.5-.9-1.5-1.7-2.1.1-.3.3 0 .5 0 .2.1.4.2.5.3.8.5 1 1.3 1.6 2z"/><path d="M47 103.4c-.4-.7-1.1-1-1.9-1-.7.1-1.1.5-1.4 1-.2.6.1 1.1.5 1.4.2.1.4.1.5-.1.1-.3-.2-.3-.3-.6-.1-.4 0-.7.3-.9.2-.3.7-.1 1-.1.3.2.6.4.8.7.2.4.2.9 0 1.3-.3.6-.9 1.1-1.6 1.3-2.1.3-25.1.2-25.1.2-2.7.3-5.8-.5-8.1.9-1.1.5-1.6 1.7-1.9 2.7-.7.6-1.4 1.3-2 2l-.1-.1c.1-.6.4-1.2.5-1.8.4-.5.4-1.2.7-1.8 1-1.6 1.9-3.1 3.4-4.2.6-.8 1.7-.7 2.7-.7 1 .5 2.2.6 3.5.5.1-.1.1-.1.1-.2-.4-.3-.9-.5-1.3-.8-1-.5-2 .2-3 .1-.1-.1-.1-.1-.1-.2 1-.7 2.1-1.2 3.1-1.7.9-.5 1.8-.7 2.8-1.1.4 0 .7-.3 1.1-.1l1.3-.4c.1 0 .1.1.2.1 1.1-.4 2.6 0 3.9-.1l.2.2 1.2.3c.5.1.7.6 1.1.6.2-.4-.3-.5-.4-.7.6-.1 1.2 0 1.7.3l-.2.3c-.1.3.1.5.3.6.2.1.3-.1.4-.1.3-.2 0-.5.1-.7 1.9.3 3.7.8 5.4 1.5.5.2.9.5 1.5.5-.5-.5-1.3-.7-1.9-1-.4-.3-1-.3-1.4-.6.1-.1.2-.1.3-.2.9-.1 1.6-.7 2.2-1.4.1-.2.3-.1.3-.3-.2-.3-.6.1-.9.1-1.1.2-1.5 1.5-2.6 1.7l-3.9-.9c-.6-.1-1.3-.2-1.9-.4l-1.4-.1h-2.6c0-.1-.1-.1-.1-.2.9-.2 1.7-.8 2.6-1l6.8-3.1c.7-.6 1.3-1.3 1.9-2.1 0-.2-.1-.4-.3-.5-.2-.1-.4-.1-.5.1-.3.2 0 .5 0 .8-.3.4-.8.8-1.2 1-.1 0-7 3.1-7 3.1-1 .4-2 .9-3.1 1.1l-1.5.2c-.1.3-.4.5-.6.6-.4.1-.7.3-1.2.3-3.3 1.3-6.7 2.6-9.3 5.2.2-.3.2-.7.2-1.1-.1-.4 0-.8-.3-1.1-.1-.1-.2-.5-.2-.7l-.4.2c-.2.6-.4 1.6-.2 2.2.1.5.5 1 .1 1.4-1.2 1.5-1.9 3.3-2.7 4.9-.3-.1-.5-.3-.6-.6.9-1.1 1.5-2.3 1.8-3.7.2-.1.1-.5.2-.6-.1-.4.2-.8 0-1.2.2-.5-.7-1.1-.2-1.4l-.5.2c-1.1 1.4.6 3.6-.7 4.9v.1c-.4.5-.5.9-1 1.2-.6-.2-.8-.9-1.2-1.5-.6-.5-.6-1.6-.2-2.4.2-.7-.2-1.4-.2-2l-.2-.2c-.6.8-.8 2-.4 3 .2.5.3 1.1.7 1.5.2.7.7 1.2 1.1 1.9.1.3-.2.3-.3.4-.3-.2-.2-.6-.5-.8-.8-1.8-1.9-3.2-3.2-4.7-.1-.2-.3-.4-.2-.7.5-.5.6-1.3.3-1.9-.1-.1-.2-.3-.2-.4l-.4-.3c.1.9-.5 1.7-.3 2.6v.1c-2.6-2-5.5-3.7-8.4-5.1l-.2.6c.7.2 2.7 1.4 2.7 1.4.9.3 1.7.9 2.5 1.3 3.4 1.9 5.7 5.1 7.3 8.6 0 .3.3.6.1.9-.5-.8-1.3-1.3-1.9-1.9-.2-1.2-.9-2.3-1.9-2.8-.4-.6-1.2-.6-1.8-.8l-9.2-.1c-7.5-.1-14.3.2-21.7.1-1-.1-2.3-.5-2.6-1.6-.2-.4-.2-1 0-1.4.3-.5.8-.6 1.3-.7.4.1.7.4.9.7 0 .3-.3.6-.4.9 0 .1.1.3.3.2.3-.1.6-.5.7-.8 0-.2.1-.4-.1-.6-.2-.5-.7-.9-1.2-1-.6-.1-1.3.1-1.7.6-.6.5-.6 1.4-.4 2.1.4 1.1 1.6 1.9 2.7 2.1l24.6.1c2.4.1 5.1-.3 7.5.2.9.3 1.8.9 2.1 1.9 0 .1-.1 0-.2 0-2-1.3-4.6-1.8-7.2-1.5-1-.1-1.9.3-2.8.6-.5.1-.9-.1-1.2-.4-.9-.8-2.5-.8-3.7-.5v.2c1.2-.1 2 1 3.1 1.1.2.1.5-.2.7 0-1.2.6-2.3 1.2-3.5 1.6-.4-.1-.6-.4-.9-.6-.5-.5-1.4-.3-2-.4-.2.1-.4-.1-.6 0 .2.4.7.6 1.1.8.6.3 1.4 0 1.9.4-.2.2-.4.2-.5.4-1.2.5-2.2 1.5-3.5 1.5-1.4.2-2.8-.3-3.7-1.2-.4-1-1.4-1.5-2.5-1.5-.1.1-.2.1-.2.2.6.3 1 1 1.5 1.4.4.4 1 0 1.4.5.5.3 1.1.6 1.6.7.4.2.9.3 1.3.4l-.2.1c-2.3.8-5 .8-7.5.7-.8 0-1.5-.2-2.2-.2.1.2.4.3.6.4-.2.1-.4.2-.7.2-.3.1-.7.1-1 .3-.4 0-.8.1-1.1.2-.4.5-.9.9-1.4 1.2 0 .1 0 .3.1.3.5-.2 1.1-.1 1.6-.3.8-.1 1.3-1 2-1.4.7-.6 1.7-.4 2.6-.3.5.1-.1.3.1.7.2.2.4.4.7.3.1-.1.1-.1.2-.1.2-.2.1-.4 0-.6.4-.2.8 0 1.2-.1 1 0 1.9-.2 2.9-.3.2 0 .3-.2.5 0-.1.2-.3.2-.2.5.1.2.3.3.5.4.2-.1.5-.3.4-.6-.1-.2-.2-.2-.4-.3.5-.3 1.1-.3 1.7-.6.4-.1.7-.2 1.1-.4.3 0 .6-.3.9-.2-.1.4-.3.8-.5 1.2-.4 1.3-.7 3.1 0 4.4.1 0 .1 0 .2-.1-.5-1.3-.2-2.9.2-4.2.4-2.2 2.6-2.8 4.2-3.6l.1.1c-.4 1.1-1.1 2.2-1 3.5.1.2-.1.5 0 .6.4-.2.7-.7.9-1.2.2-1.1-.5-2.6.7-3.4 2.1-.8 4-1.9 6.4-1.9.1.1.2-.1.3.1-.5.6-1.2 1.1-1.5 1.8-.8 1.1-.8 3-.4 4.4.2.8-.5 1.2-.8 1.8-.2.2-.2.6-.3.8l.5.1c.4-.5.8-1 .9-1.7.1.3.3.5.5.5.2-.3-.2-.5-.2-.8.4-.2.6.3.9.4.5.1 1 .4 1.5.4l.2-.2c-.6-.9-1.7-1-2.6-1.1-.5-.8-.5-1.9-.5-2.9.1-.5.2-1.1.5-1.6.1-.4.5-.7.7-1 .5-.4 1-.7 1.6-.9h.1v.1c-.7.5-.8 1.3-1.2 1.9-.4.6-.6 1.5-.2 2.2.2.3.1.8.4 1.1.3-.5.4-1 .5-1.6-.1-.8-.6-1.6-.1-2.4.2-.6.8-.9 1.4-1.1 1.4-.1 2.6.6 3.8 1.1.2.2.7.3.7.7 0 .7-.4 1.4-.9 1.7-.7.4-1.7.5-2.3 0-.4-.4-.5-1-.4-1.6.3-.3.7-.6 1.1-.4.3.1.5.4.8.2.1-.1.2-.3.1-.4-.3-.2-.4-.5-.8-.6-.5-.1-1.1-.1-1.4.3-.5.5-.7 1.2-.6 1.8.2.8.8 1.4 1.6 1.6 1.2.3 2.4-.1 3.1-1.1.3-.3.4-.7.6-1.1 1.2.7 2.1 2 2.6 3.4 0 .4.1.9 0 1.3l.9.1c-.1-.2 0-.4.1-.6.3-1.7 1.4-3.1 2.6-4.2.4-.3.3.3.4.5.4 1 1.3 1.7 2.2 1.9 1.1.2 2.1-.1 2.7-.9.3-.6.7-1.5.2-2.1-.4-.4-.8-.7-1.4-.7-.7 0-1.1.5-1.4.9 0 .2 0 .4.2.5.1 0 .3 0 .4-.1.1-.4.4-.6.7-.8s.6 0 .8.2c.3.2.3.6.4 1-.1.5-.4 1-.8 1.2-.7.4-1.8.2-2.4-.2-.3-.3-.5-.7-.7-1.1-.1-.4-.2-.8 0-1.2 1.1-.7 2.3-1.1 3.6-1.3.5.1 1 .5 1.3.8 1.2 1.2-.2 2.9.6 4.2.3-.1.3-.5.4-.7.4-.9-.1-1.9-.3-2.8-.3-.6-.5-1-1-1.5.1-.1.2-.1.3-.1.5.4 1.1.8 1.5 1.3.7 1.2 1.1 2.6 1 4.2-.2.8-1 1.1-1.6 1.4-.2.2-.6.5-.7.8.3.2.7 0 1-.1.5-.2.8-.8 1.1-1.1.1 0 0 .1.1.2 0 .3-.1.7.1.7.1-.4.2-.9.2-1.3.3.4.4.8.5 1.3.2.5.6 1.1 1.2 1.1.2-.2 0-.5-.1-.7-.1-.6-.6-1-1-1.4-.9-1.2-.5-3.1-1.2-4.5-.2-.7-.8-1.3-1.4-1.9l.1-.1c1.2 0 2.3.4 3.4.6 1.4.7 3.4.5 4.1 2.3.3 1 .7 2 1.4 2.7l.1-.1c.2-.2.2-.7 0-.9-.2-1.3-1.3-1.6-1.8-2.6l.1-.1c.6.2 1.2.3 1.8.6 2 .6 3.4 2.5 3.7 4.6 0 1.6-.3 3-.9 4.4-.1.2-.4.4-.2.6.3-.2.3-.5.5-.8.8-1.4 1.3-3.3.8-5.1 0-.3-.4-.6-.2-.9.1.2.3.2.4.2.2-.1.4-.1.5-.3 0-.2.1-.3 0-.5-.2-.2-.5-.2-.7-.2-.1.2-.3.4-.3.6-.2-.4-.5-1-.9-1.3l.1-.1c1.1.4 2.2.9 3.3 1.2.2.2.5.3.9.3 1 .4 2.1.5 3.1.8.8-.1 1.4.3 2.1.1v-.1c-.3-.4-.9 0-1.2-.3-1.7-.2-3.4-.6-5-1.2 0-.1.1-.1.2-.1.2-.1.4-.4.4-.6-.1-.2-.3-.3-.6-.3-.2.1-.4.2-.4.4s.2.4.4.5c-.1.1-.2 0-.2 0-.8-.4-1.5-.7-2.3-1-.3-.1-.5-.3-.8-.3-.6-.3-1.2-.6-1.7-.8-1.6-.8-3.4-1.3-5.1-1.9-.4-.1-.7-.2-1.1-.3-.6-.2-1.3-.3-1.9-.5-2.1-.5-5-.6-6.9.6-.3-.1-.5.4-.6.1.5-1.4 2.1-1.9 3.5-1.9 10.1-.1 19.6-.2 29.6-.3 1.2 0 2.3-.4 2.9-1.5.1.3.2-.8-.1-1.4zm-40.2 9.3c-.1.3-.3.6-.3.9l-.1.1c.1-.4-.3-.6-.2-1-.2-.3-.2-.7-.4-1-.2-.4.2-.6.4-.9.4.2.5.5.7.8.2.4-.1.7-.1 1.1z"/><path d="M34.2 111.1c0 .1.2.1.1.2-.9.8-2.1 1-3.4 1.1-.1 0-.2.1-.3.1-.1-.1-.1-.1-.1-.2.9-1 2.3-1.5 3.7-1.2zM30.1 111.6c.1.4-.1.6-.4.7-.3 0-.4-.2-.6-.4-.1-.2.1-.3.2-.4.2-.3.7-.3.8.1zM-17.9 111.6c.1.2 0 .4-.1.5-.1.1-.3.2-.5.1-.2 0-.3-.2-.3-.4s.1-.4.3-.5c.2.1.4.1.6.3zM-22.4 113.3v.2c-.6.1-1.2 0-1.6-.4-.4-.5-.8-1-1.3-1.3 0-.1-.2-.2 0-.2 1.2 0 1.9 1 2.9 1.7zM38 111.6c-.6.9-1.1 1.9-2.1 2.3-.2 0-.3.3-.5.1.4-1 1.3-2 2.2-2.4.2 0 .3-.1.4 0zM-16.4 111.9c0 .3-.2.3-.4.5-.2 0-.3-.1-.4-.3-.1-.3.1-.4.3-.5.1 0 .4.1.5.3zM41.2 112c-.2.3-.1.8-.4 1.2-.5.6-.9 1.2-1.7 1.4-.1-.2.2-.5.3-.7.4-.8.9-1.6 1.7-2l.1.1zM-30.3 112.3c.1.2.2.4 0 .6-.1.1-.4.2-.6.1-.2-.1-.3-.4-.2-.6.2-.3.7-.4.8-.1zM-31.7 112.6c0 .1.1.2.1.4-.1.1-.2.3-.4.3-.3.1-.5-.1-.6-.3 0-.2.1-.4.2-.5.3-.2.6-.1.7.1zM-28.7 112.7c.1.2.1.6-.2.6-.4.2-.6-.1-.8-.3 0-.2.1-.4.3-.5.3 0 .5 0 .7.2zM-24.6 113.1c0 .2 0 .4-.2.5-.1.1-.4.1-.5.1-.1-.2-.3-.3-.2-.5.1-.1.2-.2.4-.3.2 0 .4-.1.5.2zM43.7 113.2c-.1.2-.2.4-.4.4s-.5-.1-.6-.3c-.1-.3.1-.4.3-.5.3 0 .6.2.7.4zM39 113.4c0 .2-.2.4-.3.4-.4.2-.7-.1-.8-.4.1-.2.2-.4.4-.5.4 0 .6.2.7.5zM42.2 113.3c0 .2-.1.4-.2.4-.2.1-.5.1-.6-.1-.2-.2-.1-.4.1-.5.2-.1.6-.1.7.2zM-30.9 113.7c.1.3-.1.5-.3.6-.2 0-.5-.1-.6-.4 0-.2.1-.5.2-.5.3 0 .5.2.7.3zM37.8 114c.1.3-.1.5-.4.7-.2.1-.3-.1-.5-.2-.1-.1-.2-.4 0-.5.2-.4.7-.3.9 0zM-17.3 114.3c.1.3-.2.3-.3.5-.1.1-.3.1-.4 0-.1-.2-.3-.3-.2-.5.1-.1.2-.2.3-.2.3-.2.4 0 .6.2zM43.2 114.5c.1.2-.1.3-.1.4-.2.1-.4.2-.6.1-.2-.1-.2-.3-.2-.6.1-.1.2-.2.4-.3.1 0 .4.1.5.4zM41.6 114.6c.1.3-.2.5-.4.5-.1 0-.2-.1-.3.1.7.3 1.1.9 1.6 1.3v.2c-.9 0-1.8-.2-2.5-1-.2-.1-.5-.1-.7-.3.3-.3.9-.2 1.4-.2.3-.4-.4-.6.1-.9.2 0 .2-.2.5-.1.1.1.2.2.3.4zM31.3 114.6c.1.1-.1.3-.1.4-.2.2-.4.2-.6.1-.1-.2-.3-.3-.2-.6.2-.4.8-.3.9.1zM-25.2 115.5c-.1.2-.2.4-.4.4s-.4-.1-.5-.3c0-.2.1-.3.1-.4.3-.3.8-.1.8.3zM-23.2 115.1c0 .4-.4.6-.5.9-.4.8-1.1 1.6-2 1.7-.1-.2.3-.5.4-.7.4-.9 1.2-1.3 1.9-1.9h.2zM30.7 115.5c0 .3-.2.5-.4.6-.2.1-.4-.1-.5-.2-.2-.2-.1-.4 0-.6.3-.3.7-.1.9.2zM32.3 115.7c0 .3-.2.5-.5.6-.1-.1-.2 0-.2-.1-.2-.1-.3-.3-.3-.5.1-.1.2-.3.4-.4.1 0 .5.1.6.4zM-19.2 115.6c0 .3-.2.4-.4.5-.2 0-.4-.1-.5-.3s.2-.4.3-.5c.3 0 .4.2.6.3zM-17.5 115.7c-.1.2-.2.4-.5.4-.2-.1-.4-.1-.5-.3 0-.3.2-.4.4-.5.3.1.5.2.6.4zM37.7 117.5c.1.1.4.2.3.4-.4.2-.7-.3-1.1-.4-.6-.6-1.1-1.3-1.3-2 .2-.2.5.1.7.1.5.6 1.1 1.2 1.4 1.9zM38.6 115.7c.1.2.1.4-.1.6-.2.3-.5.2-.7.2-.1-.2-.4-.4-.2-.6.1-.2.3-.3.5-.3.2-.1.3.1.5.1zM-15.2 116.4c0 .2.1.5-.2.6-.2.1-.5 0-.6-.3s.1-.4.3-.5c.2 0 .4.1.5.2zM32.2 118.1c.4.5.6 1.1.7 1.8-.1.2.1.4 0 .5h-.2c-1.1-.8-1.4-2-1.8-3.1-.1-.1-.1-.2-.1-.3.2-.2.4.2.7.3l.7.8zM-11.9 117.2s0 .1 0 0c-1 .8-2.4 1.2-3.6.5 0-.1 0-.2.1-.2.7-.2 1.4-.6 2.2-.5l1.3.2zM-17.7 117.3c-.9.5-1.6 1.6-2.7 1.8-.2.1-.3.4-.6.2.5-1.4 1.9-2.1 3.3-2.2v.2zM30.7 118.5c.1.2 0 .5-.2.5-.1.1-.4.1-.5 0-.2-.1-.2-.3-.2-.5.1-.2.2-.2.4-.3.2.1.4.1.5.3zM28.6 118.6c-.2.4-.6.6-.9.7-.9.3-1.6-.1-2.4-.3 0-.2.3-.1.4-.2.8-.2 1.7-.4 2.6-.1 0-.2.2-.2.3-.1zM-17.7 119.3c-.1.1-.1.3-.3.4-.2.1-.4 0-.5-.1-.1-.2-.2-.3-.1-.5s.2-.2.4-.3c.3.1.5.3.5.5zM-16.2 119.6c-.1.2-.2.4-.4.5-.2.1-.4-.1-.5-.2-.1-.2-.2-.3-.1-.5.1-.1.2-.2.4-.2.3-.1.5.2.6.4zM30.2 119.8c0 .2-.1.3-.2.5s-.4.2-.6.1c-.2 0-.2-.2-.3-.4-.2-.2.1-.3.2-.5.3-.2.8-.1.9.3zM31.3 119.8c0 .1.1.2.1.4-.2.1-.2.5-.6.3-.1.1-.2-.2-.3-.2-.1-.3 0-.6.3-.7.2-.1.4.1.5.2zM-17.1 120.5c.1.3-.1.5-.2.7-.3.1-.6.1-.7-.3 0-.2 0-.6.3-.7.2 0 .5 0 .6.3zM-15.6 120.4c-.1.7-.2 1.6-.9 2-.4.1-.8.5-1.2.2v-.1c.5-.8 1.4-1.4 2.1-2.1zM26.2 121c.1.2-.1.3-.1.4-.1.2-.4.1-.6 0-.2-.1-.2-.3-.1-.5s.2-.2.3-.3c.2 0 .4.2.5.4zM-13.1 122.2c.4.6.2 1.4.4 2-.4.1-.6-.4-.9-.7-.6-.8-.5-1.8-.7-2.7.1-.1.1-.1.2-.1.4.2.7.7 1 1.1-.2.2 0 .2 0 .4zM27.5 121.2c0 .2-.2.3-.4.4-.2 0-.3-.1-.5-.2-.1-.2.1-.3.2-.5.4-.1.6 0 .7.3zM30.5 123.5c0 .1 0 .2-.2.2h-.1c-.7-.7-1.5-1.4-1.4-2.4h.2c.7.5 1.5 1.1 1.5 2.2zM28.6 122.6c0 .2-.1.4-.2.5-.3.1-.7.1-.8-.3 0-.3.3-.4.4-.5.3-.1.5.1.6.3zM26.9 123.2c-.4.9-1.3 1.4-2 2.1-.1-.1-.1-.3-.1-.4.2-1 1-1.9 1.9-2.3.6.1.2.4.2.6zM28.8 123.9c0 .2-.2.3-.4.5-.2 0-.4-.1-.6-.3 0-.3.2-.3.3-.5.4 0 .6.1.7.3zM10 77.7c.3 0 .6.3.6.6s-.3.6-.6.6H2.5c-.3 0-.6-.3-.6-.6s.3-.6.6-.6H10zm-5.3 1.1c.7 0 0-.9-.4-.9h-.6c-.7 0 0 .9.4.9h.6zm3.1 0c.7 0 0-.9-.4-.9h-.7c-.7 0 0 .9.4.9h.7zm2.3-.9h-.3c-.7 0-.1.9.3.9.5 0 .5-.9 0-.9zM9.4 86.3l1.4.5 1.4-.5-.6 2.1 1.1-.2-.4 1.3.4 1.2-1-.3.4 2.3-1.4-.5-1.4.5.6-2.3-1.1.3.3-1.3-.3-1.2 1.1.2-.5-2.1zm2.1 3.8c.3 0 .4-.4.4-.8 0-.9-.7 0-1-.8-.3.7-1 .1-1 .8 0 .5 0 .8.5.8h1.1zm-1.4-.7c0 .3.4.1.8.1.3 0 .8.2.8-.1 0-.5-.4-.3-.8-.3-.4-.1-.8-.2-.8.3zM6 89.4v-.2l-.2-.1.2-.2-.1-.2h.2l.2-.2.1.2h.2l-.1.2.2.2-.2.1v.2l-.2-.1zM4.9 90.9v-.3l-.2-.1.2-.1-.1-.3.2.1.1-.3.2.3.2-.1-.1.3.2.1-.2.1v.3l-.3-.2zM6.8 90.7v-.3h-.2l.2-.2-.2-.2h.3l.1-.3.2.3h.2l-.1.2.2.2h-.2v.3l-.3-.2zM7 91.8v-.2h-.1l.1-.1-.1-.2.2.1.1-.2v.2l.2-.1-.1.2.1.1h-.1v.2l-.1-.1zM5.3 93v-.5l-.4-.1.3-.3-.2-.4.4.1.3-.5.2.5.4-.1-.2.4.4.3-.4.1v.5l-.4-.3zM6.2 69l.9 2.2 2.2-.7-1.1 2.1 1.9 1.3-2.3.4.1 2.4-1.7-1.6-1.8 1.6.2-2.4-2.4-.4 2-1.3L3 70.5l2.3.7zM-2 118c-.3.1-.4.2-.3.5l.3 1.3c.1.2.1.6-.1.9-.2.3-.6.5-.9.5-.2.1-.7.1-1.1 0-.2-.1-.4-.2-.5-.7l-.3-1.4c-.1-.4-.2-.3-.5-.3v-.1l1.7-.4v.1c-.3.1-.5.1-.4.5l.3 1.4c.1.2.2.8.9.6.9-.2.7-.9.7-1.1l-.3-1.3c-.1-.3-.2-.4-.6-.3v-.1l1.1-.3v.2zM.5 118.3c-.2-.3-.6-.7-1.2-.6-.3.1-.5.2-.4.5.1.2.2.3.6.4l.8.1c.2 0 .6.2.7.7.1.4-.1 1-1.1 1.2-.5.1-.7 0-.9.1-.1 0-.1.1-.1.2h-.1l-.2-1h.1c.2.4.6.8 1.2.7.6-.1.5-.6.5-.6-.1-.3-.3-.3-.7-.4l-.4-.1c-.9-.2-1-.5-1.1-.7-.1-.3 0-.9.9-1.1.4-.1.7 0 .8 0s.1-.1.1-.2h.2l.2.9.1-.1zM3.9 120l-1.8.2v-.1c.4-.1.5-.1.5-.4l-.2-2.3c-.4.1-.9.1-.9.8h-.1l-.1-.9 3.1-.3.1.9h-.1c-.2-.7-.7-.7-1.1-.6l.2 2.3c0 .4.2.4.5.4h-.1zM8.1 120H7l-1-1.4h-.1v.8c0 .3.1.4.4.4v.1H4.6v-.1c.4 0 .5 0 .5-.4v-1.9c0-.4-.2-.4-.4-.4v-.1h1.7c.4 0 1.5.1 1.4.8 0 .5-.5.7-.8.7l1 1.3c.1.1.1.1.2.1l-.1.1zm-2.2-1.5c.7 0 .9-.1 1-.6 0-.4-.2-.6-.6-.6-.3 0-.3 0-.3.2l-.1 1z"/><path d="M11.5 120.4l-1.7-.2v-.1c.3 0 .4 0 .4-.1s-.1-.5-.2-.6l-1.2-.1c-.2.3-.3.5-.3.5 0 .2.2.2.4.2v.1l-1-.1v-.1c.3 0 .4-.1.6-.4l1.4-2.2h.1l.9 2.4c.3.5.4.6.6.7zm-1.4-1.2l-.4-1.1-.6 1 1 .1zM14.5 121l-2.9-.5v-.1c.3 0 .4 0 .5-.2l.4-2.1c.1-.3-.2-.3-.4-.4v-.1l1.8.3v.1c-.4-.1-.5-.1-.6.3l-.4 2c0 .2.1.3.4.3.8.1 1.1-.2 1.4-.6h.1l-.3 1zM16.5 121.5l-1.8-.4v-.1c.3 0 .5.1.5-.2l.4-2.1c.1-.3-.2-.3-.4-.4v-.1l1.8.4v.1c-.2 0-.5-.1-.5.2l-.4 2.1c-.1.3.1.3.4.4v.1z"/><path d="M20.1 121.9l-1.7-.2v-.1c.3 0 .4 0 .4-.1s-.1-.5-.2-.6l-1.2-.1c-.2.3-.3.5-.3.5 0 .2.2.2.4.2v.1l-1-.1v-.1c.3 0 .4-.1.5-.5l1.4-2.2h.1l.9 2.4c.2.5.2.6.5.7l.2.1zm-1.5-1.1l-.4-1.1-.6 1 1 .1zM6.9 87c0-1-.6-.1-.9-.9-.2.7-.9.1-.9.9 0 .3.1.5.2.6v.3c0 .1.1.1.1.1h1.1c.1 0 .1-.1.1-.1v-.3c.2-.1.3-.3.3-.6zm-.9.2c-.3 0-.7.2-.7-.1 0-.5.3-.4.7-.4.3 0 .8-.1.8.4-.1.3-.5.1-.8.1zM15.9 99.8c.3 0 .5-.2.5-.4s-.2-.4-.5-.4-.5.2-.5.4.3.4.5.4zM13.7 84.4l-.2.4c0 .1.1.2.2.2s.2-.1.2-.2l-.2-.4zM-1.6 84.4l-.2.4c0 .1.1.2.2.2s.2-.1.2-.2l-.2-.4zM2.2 84.4l-.2.4c0 .1.1.2.2.2s.2-.1.2-.2c.1 0-.2-.4-.2-.4zM6 84.4l-.2.4c0 .1.1.2.2.2s.2-.1.2-.2c.1 0-.2-.4-.2-.4zM9.9 84.4l-.2.4c0 .1.1.2.2.2s.2-.1.2-.2l-.2-.4zM-1.6 89.6l.2.4c0 .1-.1.2-.2.2s-.2-.1-.2-.2c0 .1.2-.4.2-.4zM-1.6 94.7l.2.4c0 .1-.1.2-.2.2s-.2-.1-.2-.2c0 .1.2-.4.2-.4zM-1 98.7l.2.4c0 .1-.1.2-.2.2s-.2-.1-.2-.2c0 .1.2-.4.2-.4zM2.2 100.9l.2.4c0 .1-.1.2-.2.2s-.2-.1-.2-.2l.2-.4zM13.9 89.6l-.2.4c0 .1.1.2.2.2s.2-.1.2-.2c0 .1-.2-.4-.2-.4zM13.9 94.7l-.2.4c0 .1.1.2.2.2s.2-.1.2-.2c0 .1-.2-.4-.2-.4zM13.3 98.7l-.2.4c0 .1.1.2.2.2s.2-.1.2-.2c0 .1-.2-.4-.2-.4zM10.1 100.9l-.2.4c0 .1.1.2.2.2s.2-.1.2-.2l-.2-.4zM6.2 103.2l-.2.4c0 .1.1.2.2.2s.2-.1.2-.2l-.2-.4zM12.4 95.6c.1.1.2.1.3 0l.1-.4s-.2-.2-.3-.2c-.4.1-.8.1-1.1.5 0 .3.2.5.4.6.1-.1.2.1.3.2 0 .1-.1.2-.2.2-.3-.3-.8.1-1-.3.1-.4.3-.8 0-1.1 0-.1.1-.1.1-.2-.1-.3-.5-.1-.7-.1-.4-.1-.7.1-.9.4 0 .1.1.2.2.4.1 0 .1 0 .2.1l-.2.1c.1.1.1.2.1.3-.2.1-.3-.2-.4-.3 0-.2 0-.5-.2-.6-.1 0-.2.1-.2.1-.1.1-.1.2-.1.4s.1.4.1.4.7.5.9.9c-.2.4-.2 1-.7 1.3-.1.1-.1.2-.1.4l.1.1c.3-.2.9-.2.9-.7.1-.2.2-.5.5-.6.2-.1.5.1.5.3-.1.4-.3.6-.6.7v.2c.1.2.4.1.5.1.4-.3.6-.7.9-.9.1.2-.5.3-.1.6.2-.1.5 0 .7-.3-.2-.4.6-.6.1-1 0-.4.4-.5.4-.9-.1-.4-.6-.4-.7-.7-.2-.1 0-.1.2 0zM-5.2 100c.3 0 .5-.2.5-.4s-.2-.4-.5-.4-.5.2-.5.4c.1.2.3.4.5.4zM-29.9 114.4c.3 0 .5-.2.5-.4s-.2-.4-.5-.4-.5.2-.5.4.2.4.5.4zM-14.2 117.9c-.1-.1-.1-.1 0 0zm0 0zM-14.1 117.9s-.1 0 0 0c-.1 0 0 0 0 0-.1 0-.1 0 0 0-.1 0-.1 0 0 0zM-13.9 117.9c-.1 0-.1 0 0 0-.1 0-.1 0 0 0-.1 0-.1 0 0 0zM-13.9 117.9s0-.1 0 0c0-.1 0 0 0 0zm0 0zM-13.8 117.9s-.1 0 0 0c-.1 0-.1 0 0 0z"/><path d="M15 83.8H-2.6v13.5c0 1.4.6 2.6 1.4 2.9l6.8 4.3c.1.2.4.3.6.3.2 0 .4-.1.5-.2l6.9-4.4c.8-.4 1.4-1.6 1.4-2.9V83.8zm-.5 13.6c-.1 1-.4 1.9-1.1 2.3l-6.6 4.2c-.1.1-.3.2-.5.2s-.4-.1-.5-.2l-6.6-4.2c-.7-.5-1-1.3-1.1-2.3V84.3h16.6l-.2 13.1z"/><path d="M8.5 103.4l.2-.1c-.1 0-.1.1-.2.1zM-4.8 121.8l-1.7.2v-.1c.3-.1.4-.1.4-.2s-.2-.4-.3-.5l-1.2.1c-.1.3-.2.5-.2.6 0 .2.3.1.4.1v.1l-1 .1v-.1c.3-.1.3-.2.4-.6l.9-2.5h.1l1.4 2.1c.3.4.4.6.6.5l.2.2zm-1.6-.8l-.6-1-.4 1.1 1-.1z"/><path d="M24.4 115.5c-.3-.8-.9-1.3-1.7-1.6-.8-.2-1.7-.1-2.2.6-.9.7-.3 2-.2 3 0 .2 0 .4-.2.5-3.7-.3-7.1-1.2-10.7-1.6-.8-.1-1.7-.1-2.5-.3l-1-.1c-3.2.1-6.3.3-9.3 1-.6.2-1.3.2-2 .5-.5-.1-.8.2-1.3.1l-.8.2h-.3c-.4-1 .8-1.7.4-2.7-.3-.6-1-1.1-1.7-1-.9-.1-1.6.4-2 1-.6 1.3.2 2.6.4 3.8-.1.4.4.9 0 1.2-.8-.6-1.9-.9-2.9-.6-.3.2-.9-.1-1 .3 1.1.6 2.5.5 3.7.5.2-.1.3-.1.4 0 .1.7-.1 1.6.3 2.1.5.6 1.2.8 1.9.8 2.3-.1 4.4-.8 6.5-1.3.3 0 .6-.2.9-.2 1.1-.3 2.4-.5 3.6-.5-.5.7-.8 1.5-1.1 2.3-.3.7.5.8.8 1.2-.8.2-1.3.8-2.1 1.1-1.6-.1-3 .6-4.5.7 0 .3.5.2.6.6-.1.2-.3.3-.5.4 0 .2 0 .2.2.2.2-.2.5-.1.6-.2.5 0 .9-.2 1.4-.2.4-.2.9-.2 1.3-.5.5-.2.9-.5 1.4-.7.8 0 1.4-.3 2.1-.3v.2c-.6.9-1.2 1.9-1.8 2.8-.1.2 0 .4.2.4.4.1.7 0 1-.2.5-.9 1-1.8 1.4-2.7.2-.9.8-1.3 1.4-1.9.1-.1.2-.2.4-.1-.5.6-.8 1.2-1.2 1.8-.2.7-.3 1.6.4 2.2.3.3.8.2 1.2.2 1-.5 2.2.3 3-.7.5-.1.5.5.8.7.4.1.9.6 1.3.2 0-.3-.3-.5-.5-.8-.3-.5-.7-1-1-1.5-.1-.4-.4-.6-.4-.9.5.2.9.5 1.4.5.4.2 1 .2 1.4.4.3.4.8.7 1.3 1 .6.3 1.3.4 2 .6.2 0 .6.2.8 0-.1-.1-.2-.2-.4-.3-.1-.3.5-.2.6-.4-.1-.1-.2-.2-.3-.2-.4-.2-1.3-.3-1.5-.4l-.9-.3c-1.5 0-2.4-1.4-3.6-1.9.3-.3.7-.5.9-.8.2-.4.3-.9.1-1.3-.2-.8-1.2-.7-1.8-1.1l.1-.1c1-.1 1.8.2 2.7.4 2.4.3 4.7 1.2 7.2 1.3 1.4 0 3.1.1 3.8-1.3.1-.8.3-1.6.4-2.4.4-1.1 1.2-2.3 1.1-3.7zm-27.3 11.6l-.4-.3c.2-.2.6-.1.8-.3.7-.2 1.4-.5 2.1-.3-.6.6-1.6.7-2.5.9zm15.8-.4c.6.3 1.8.5 2.7.6-.1.3-.7 0-.6.5-.8-.3-1.7-.5-2.3-1.1h.2zm-23.7-10.8c.1-.5.2-.9.6-1.3.6-.3 1.4-.2 2 .1.2.1.3.2.4.5.1.4-.1.9-.4 1.2h-.2c0-.4 0-.8.2-1.2 0-.3-.3-.3-.5-.5-.4-.1-.8.1-1.1.3-.2.3-.5.7-.3 1.1.2.3 0 .7.1 1l-.1.1c-.4-.4-.8-.7-.7-1.3zm1.2.7c.4.3.9.2 1.4.2.1.3.1.6-.1.9-.4-.1-1-.1-1.2-.5-.1-.1-.2-.4-.1-.6zm-.1-.9c.1-.2 0-.5.3-.6.2-.1.5-.1.5.2s-.1.6-.1.9c-.4.1-.6-.2-.7-.5zm11.8 8.2c-.1-.9.2-1.7.8-2.3.4-.1.8-.2 1.1.1-.7.2-1.5.3-1.6 1.2 0 .3-.1.5.1.8.3.5.9.3 1.3.7 0 .1-.1.3-.2.3-.5-.3-1.1-.5-1.5-.8zm-.9 1.8c.6-.3 1.2-.8 1.9-.6-.4.4-1.2.5-1.9.6zm2.4.2l-1.2 2.4c-.1.1-.3.2-.4.2 0-.4.4-.6.5-.9.5-.7.7-1.4 1.3-2.1.1.1-.2.2-.2.4zm.7-1.4c0-.1-.1-.1 0 0zm-.3-.7l-1.2-.3c-.2-.3 0-.5 0-.8.4-.6 1.4-.8 1.8-.3 0 .5-.2 1-.6 1.4zm.6 0c.1-.3.2-.8.4-1.1 0 .3-.2.8-.4 1.1zm.3-2.1c-.3-.1-.5-.5-.9-.5.3-.1.6-.1 1 0 .1.2-.1.4-.1.5zm.3.8v-.3.3zm0 1.1c0-.1.1-.2.1-.4.1-.1.2.1.3.2-.1.2-.3.3-.4.2zm.4-1.5c.1-.4.1-.7.4-.9.2 0 .5 0 .7.1.1.5.7 1.2 0 1.6-.2.1-.6.3-.8.1-.4-.3-.5-.6-.3-.9zm1.8-.8c-.1-.2.2-.1.3-.2l.8.1c-.4 0-.9.9-1.1.1zm1.3.4c-.3.1-.5.5-.8.5.1-.3.5-.5.8-.5zm-1.1 1.6zm.1 1.5c0 .1 0 .1-.1.2l-.6-.5c.3 0 .5.1.7.3zM7 124c.1-.1.2-.1.2 0H7zm-.4-.4c.1-.2.2-.4.4-.4 0 0 0 .1.1.1-.2.2-.3.3-.5.3zm-.6 0l.1-.2c.1.1 0 .1-.1.2zm.1.9c.3-.4.6.2.8.5.4.6 1.4 1.1 1 1.8-.5.4-1.2 0-1.8.4-.3 0-.8.1-.9-.2.3-.8.5-1.7.9-2.5zm-.7.5l.1-.2c-.2.6-.5 1.2-.8 1.8-.1-.5.5-1 .7-1.6zm1.1 3.1c-.5 0-1.2.3-1.7-.1 0-.2-.2-.3-.2-.5.4-.2.8.3 1.1 0 .6 0 1.2-.1 1.8.1.3.1.7-.5.8.1-.2.7-1.2.1-1.8.4zm1.5-3.7zm.1 1.6c0 .3.3.4.1.6 0-.1-.1-.3-.1-.6zm.8 1.5l-.1.1c-.1-.1-.1-.4-.1-.5.1.1.2.3.2.4zm1.2.6c0 .1-.2.1-.2 0-.8-1-1.1-2-1.6-3.1h.1c.6 1.1 1.1 2.2 1.7 3.1zm1-2.3c-.1 0-.1.1 0 0-.8.1-1.3-.3-1.9-.7v-.1c.7 0 1.2.5 1.9.8zm-.7-3.4c.3.1.3.4.4.7 0 .6-.3 1-.9 1.2-.3.2-.7.2-1 .1.6 0 1.3-.2 1.5-.9v-1.1zm-.6-.1c.1.4.4.7.2 1.1-.2.5-.8.5-1.2.6-.2 0-.4-.1-.6-.2 0-.1 0-.2-.1-.2.1-.3-.6-.7-.1-.9.5-.4 1.4-1.3 1.8-.4zm12.9-1.8c-.2.2 0 .7-.3.9 0 .5-.4.7-.7.9-3 .7-6-.4-8.9-.9-4.1-.9-8.8-1.1-13-.2-1.9.4-3.8.8-5.7 1.3-1.2.2-2.4.3-3.5 0-.9-.4-.5-1.6-.8-2.4.1-.6-.2-1.1-.2-1.8-.1-.2-.1-.5-.1-.7.4.1.8.3 1.2.4 2.1.4 4-.3 6-.6 1.9-.4 3.8-.7 5.8-.9 2.3 0 4.6-.2 6.8.2.7 0 1.3.2 2 .2 1.4.2 2.7.6 4.2.7.2.1.5.1.8.1 2.3.4 4.8 1 7 0-.1 1-.5 1.9-.6 2.8zm-.7-3.1c0 .4-.4.3-.6.5h-.6c-.1-.2-.1-.5-.1-.7.4 0 .9 0 1.3.2zm-.3-.7c.3-.3-.1-1.9.7-.8 0 .2 0 .5-.2.7-.1 0-.3.2-.5.1zm2-.2c-.2.5-.6.8-1.1.9 0-.6.6-1 .4-1.7-.3-.5-1-.6-1.6-.5-.2.2-.1.4-.2.6l-.1.8c-.5 0-.5-.5-.7-.8 0-.5.3-1.1.8-1.3.4-.2 1.1-.2 1.5.1.3.1.7.2.8.5.4.3.3.9.2 1.4z"/><text transform="translate(55.55 98.805)" class="st1 st2">Australian Government</text><text transform="translate(54.525 126.076)" class="st1 st2">Australian Taxation Office</text></svg>