<svg id="Layer_1" xmlns="http://www.w3.org/2000/svg" viewBox="-99 0 400 200"><style>.st0{stroke:#000;stroke-width:.5;stroke-miterlimit:10}</style><path class="st0" d="M-4.9 108.3h303.2"/><path d="M-67.9 117.9c-.1.1-.1.2-.2.2M-65.9 102.9c.2 0 .4-.2.4-.4s-.2-.4-.4-.4-.4.2-.4.4.1.4.4.4zM-47.3 85.9h-14.5v11.7c0 1.1.5 2.1 1.1 2.4l5.6 3.3c.1.1.3.2.5.2s.3-.1.5-.2l5.7-3.4c.7-.3 1.1-1.3 1.1-2.4V85.9zm-9.7 3.4h-1.3v-3h1.3v3zm-.9 1l.2-.2-.1-.2h.2l.1-.2.1.2h.2l-.1.2.2.2h-.2v.2l-.2-.2-.2.2v-.2h-.2zm-3.5 3.8v-2.8h1.5v2.8h-1.5zm.3-4.2h.2l.1-.2.1.2h.2l-.1.2.2.2h-.2v.2l-.2-.2-.2.2v-.2h-.2l.2-.2-.1-.2zm1.7 2.9h.2l.1-.2.1.2h.2l-.1.2.2.2h-.2v.2l-.2-.2-.2.2v-.2h-.2l.2-.2-.1-.2zm1-2.3c0-.1-.1-.1-.2-.1s-.2.2-.3.2c-.1 0-.1 0-.1-.1s.2-.1.2-.2c-.9 0-1 .4-1.1.4-.2 0 .2-.5.3-.6-.2 0-.3-.3-.5-.4.1-.1.2-.1.3 0 0-.1.1-.2.3-.2.4 0 .3.4.4.4.1 0 0-.4.3-.4.4 0 .9 1.1.5 1.1-.3.1-.1 0-.1-.1zm-1.1-3.1l.2-.2-.1-.2h.2l.1-.2.1.2h.2l-.1.2.2.2h-.2v.2l-.2-.2-.2.2v-.2h-.2zm-.4-1.1v3h-1.5v-3h1.5zm2.9 15.5l-3.5-2.1c-.6-.4-.9-1.1-.9-1.9v-3.3h4.4v7.3zm-1.2-7.7v-2.8h1.3v2.8h-1.3zm5.7 7.9l-1.6 1c-.1.1-.3.1-.4.1s-.3-.1-.4-.2l-1.6-1v-7.5h4.1l-.1 7.6zm0-7.9h-4.1v-7.8h4.1v7.8zm4.8 3.6c-.1.8-.4 1.5-.9 1.9l-3.5 2.1v-7.3h4.4v3.3zm0-3.6h-4.4v-7.8h4.4v7.8z"/><path d="M-57.2 97.1c0-.1-.5.2-.4.2 0-.2.3-.5.4-.6 0-.2-.3 0-.5.1.8-1.2.3-.7-.2-.6.7-.8.5-.8 0-.5.4-.3.5-.7.5-.9-.4.5-.8.4-.8.9 0 .3-.1.9-.3 1-.2.2-.1-.9-.6-.9-.2 0-.6 0-.7.2.1 0 .3.3.3.4 0 .1.1.4-.1.4s-.4-.4-.4-.6v-.4c0-.5-.8-1.1-1.1-1.1 0 .3.4.4.4.8-.2 0-.4-.3-.4-.1 0 .2.3.2.3.4s-.3-.1-.3.1.2.1.2.3h-.3c0 .1 0 .1.1.2 0 0-.1.1-.1.4 0 .9.6 1.4 1 1.4.3 0 .3-.2.3-.3 0 .2.2-.1.2.2 0 .3-.3.2-.3.4 0 .3.5 0 .5.4s-.1.4-.1.6c0 .1.5-.2.5-.2.1 0 .1.4.3.4.1 0 .2-.4.3-.4-.1 0 .4.3.4.2 0-.4-.2-.2-.2-.5s.6-.2.5-.4c-.1-.1-.1 0-.2-.2 0 0-.5-.7.1-.3.6.4.7-.9.7-1zM-41.8 100.2c.3 0 .5-.2.5-.4s-.2-.4-.5-.4-.5.2-.5.4c.1.2.3.4.5.4zM-43.7 101.3c.3 0 .5-.2.5-.4s-.2-.4-.5-.4-.5.2-.5.4.3.4.5.4zM-66.6 104c.3 0 .5-.2.5-.4s-.2-.4-.5-.4-.5.2-.5.4.2.4.5.4zM-65.1 104.1c.3 0 .5-.2.5-.4s-.2-.4-.5-.4-.5.2-.5.4.2.4.5.4zM-23.9 84.1c.7.8.9 2.2.4 3.2-.3 0-.2-.4-.3-.6-.5-.9-.9-2.1-.5-3.2.4 0 .2.5.4.6zM-84.4 85.3c-.2.6-.2 1.5 0 2-.1.1-.1-.1-.2-.1-1-.7-.5-2.1-.8-3.1.1-.1.2-.1.2-.1.5.3.7.8.8 1.3zM-21.7 85.4c.1.3-.1.6-.3.7-.2.1-.5-.1-.6-.3-.1-.3.1-.5.3-.7.2 0 .4 0 .6.3zM-85.9 86.5c-.1.2-.1.5-.3.6-.2 0-.4 0-.5-.1-.2-.1-.2-.4-.1-.5.1-.2.3-.2.5-.2.1-.1.3 0 .4.2zM-20.7 86.9c.1.2.1.3 0 .4-.2.2-.4.3-.7.2-.2-.1-.2-.3-.3-.4.1-.2.2-.4.4-.5.3 0 .4.2.6.3zM-22.2 86.9c.2.1.1.4 0 .5-.1.1-.3.3-.5.3-.1-.1-.3-.1-.3-.3 0-.3.1-.5.4-.6.2 0 .3 0 .4.1zM-24 87.3c0 .3 0 .6-.3.7-.3.1-.5-.2-.6-.4 0-.3.1-.5.4-.6.2 0 .4.2.5.3zM-83.2 87.4c.1.3-.2.4-.3.5-.2.1-.4-.1-.5-.3-.2-.2.1-.3.1-.5.3-.1.6.1.7.3zM-84.7 87.5c0 .2-.1.4-.3.5-.2.1-.4-.1-.5-.2-.1-.2 0-.5.2-.6.3-.1.5.1.6.3zM-30.1 87.6c.2.5.5 1.2.5 1.8-.1.5.1 1.1-.3 1.5-.4-.1-.4-.6-.6-.8-.5-.9-.1-1.9.1-2.8.2-.1.2.2.3.3zM-85.9 87.9c.1.3-.1.5-.3.6-.3.1-.5-.2-.6-.4 0-.2.1-.5.3-.6.3.1.5.2.6.4zM-26.1 88.7c.3.7.4 1.6.1 2.4l-.2.1c-.4-.7-.9-1.3-1-2.1 0-.5.1-1 .3-1.5.2-.1.3 0 .4.2 0 .4.1.7.4.9zM-22.9 88.2c0 .3-.1.5-.4.6-.2.1-.5 0-.6-.3-.1-.3.1-.5.3-.6.3-.2.5.1.7.3zM-84.6 89c0 .2-.2.4-.4.5-.2.2-.4-.1-.5-.2-.1-.2-.1-.4 0-.6.1-.2.2-.2.4-.2.2.1.4.2.5.5zM-83.5 88.9c.1.2-.2.4-.3.5-.3.1-.5-.1-.6-.3-.1-.3.1-.4.3-.6.3-.1.4.1.6.4zM-22.2 88.8c0 .3-.5.7-.6 1-.3.7-.9 1.2-1.6 1.4-.1.1-.4.3-.6.3-.1-.5.4-1 .7-1.4.6-.7 1.3-1.1 2.1-1.3zM-85.1 89.9c.4.4.6.8 1 1.2 0 .1-.1.3-.2.3-1.2-.1-2.1-1.3-2.7-2.2.1-.3.4-.1.6-.1.4.2.9.3 1.3.8zM-21.9 90.2c-.1 1.1-.6 2.2-1.6 2.7-.3.1-.6.4-.9.2.5-1.1 1.3-2 2.2-3h.3v.1zM-26.7 90.9c.1.4-.1.6-.4.7-.3 0-.5-.2-.6-.4 0-.2.1-.5.4-.6.1-.1.2-.1.3-.1.1.2.1.3.3.4zM-86.5 91.2c.5.3.9.8 1.4 1.2-.3.2-.7 0-1.1 0-.9-.3-1.4-1-2.3-1.3 0-.3.4-.2.5-.3.5 0 .9.2 1.5.4z"/><path d="M-59.5 83.6c-1.4-.6-2.4.9-3.8.7-.2.1-.1.3-.2.4-.1.1-.2 0-.3 0-.1-.6-.3-1.2-.4-1.8-.1-.2-.1-.6-.2-.9-.8-2.2 2-.5 2.5-1.8.5-1.1-.9-1.2-1.4-2v-.3c-.4-.4-.8-.5-1.1-1.1.2-.6.2-1.3.1-2 0-.2-.1-.4-.4-.3-.5.7-.8 1.2-1.3 1.8-.5-.4-.9-.8-1.5-1.1-.4-.1-.7-.4-1.2-.3-.1.2 0 .3.1.4 0 1 .5 1.8 1.2 2.5l.1.4c-.5 1-.3 2.2-.5 3.4-1.1 2.9-3 5.7-5.5 7.7-1.4 1.6-3.2 3.2-3.4 5.4-.1.4.1.8-.2 1-.8-.3-1.7-.7-2.4-1.2-1.2-.8-2.8-.7-3.6-2.2-.3-.6.1-1.2.4-1.6.9-.8.7-2.3.3-3.3-.1 0-.1.1-.2.1-.1 1.5-1.3 2.5-.8 4.2.1.5.4.8.5 1.2-.2-.1-.4-.1-.6-.1-.6-.1-1.1-.3-1.7-.2-1.2.5-2.8-.1-3.7.9-.2 0-.4.1-.3.3.6 0 1.1.2 1.6.1.9.2 1.5-.6 2.1-.9h.2c.2-.3.7-.1 1-.2 1.6.2 2.8.9 4.1 1.7v.1c-.5.2-1.1.4-1.6.7-.6.4-1.2 1-1.4 1.7-.4.6.1 1.2.4 1.7 0 .3.1.6.3.7.8-.9.1-1.9.2-2.9.2-.8.9-1.1 1.6-1.3 1.4-.6 2.5.6 3.6 1.2 0 1.2.1 2.3-.1 3.4-.4.1-.8.2-1.2.2-2 .2-3.6 1.2-5.4 1.9-.8.3-1.8.3-2.6.6.6.2 1.3-.1 1.9-.1 2.5-.4 4.4-2.3 7-1.9l.1.1c-.3.6-.7 1.2-1.2 1.7-.1-.3-.1-.5-.4-.7-.2-.1-.4 0-.6.2-.1.1-.1.3 0 .4.1.2.3.3.5.4-.1.2-.3.3-.5.5-.7 1.2-2.2.7-3 1.6-.1.2-.6.3-.4.6 1 .1 1.9-.2 2.6-.7.9-1 1.9-2 2.9-3 .2.8-.1 1.7-.6 2.3-.2-.1-.4-.3-.7-.4-.3.1-.4.3-.5.5.1.2.2.4.4.5-.9.6-1.9.7-2.9.9-1.8.2-3.6.4-5.5.4-.9-.1-1.9.3-2.7 0-1 .2-2-.1-2.8.4-.1.1 0 .3 0 .4 1.2.8 2.8.2 4.1.4h10c.7 0 1.5-.1 2.1-.4 1.3-.7 2-2.1 2.7-3.4.2-.5.4-1 .5-1.5.2-.9 1-1.5 1.9-1.6.1 1.3-.1 2.6-.4 3.9-.2.8-.7 1.6-.4 2.5.1.4.5.4.8.5 3.1-.1 6.1-.2 9.3.1.6.1 1.1.3 1.7.3.1-.1.2-.1.2-.3-.1-.3-.3-.6-.6-.7-.1-.2-.3-.1-.4-.2-1.6-.9-3.6-.4-5.5-.4-1 .1-2 .3-2.8-.3-.4-.5-.1-1.9-.1-1.9 0-.6 1.4-4.6 1.6-4.9.1-.4.2-.7.2-1.2.7-.5.7-1.1.7-1.7.1-.8.5-1.6.8-2.4.1-.4.3-.8.4-1.2.2-.5.2-.9.5-1.3.8.5 1.6.5 2 1.4l.4 2.1c0 .1.1.4.3.2.7-.4.5-1.4.5-2.1.1-.8-.4-1.2-.6-1.9-.2-.1-.5-.7-.5-.7-.1-.6-1.3-.9-1-1.6.2-.6.3-1.1.9-1.5.1.1.1.1.1.2h.2v-2.1c.8 0 2 .1 2.9.1.2.1.4.3.7.3l.2-.3 2-.4c-.9 0-1.5-1-2.3-1zM-57.3 84.5h.2-.2z"/><path d="M-79.3 91.6c0 .3-.2.5-.4.6-.2-.1-.4-.1-.5-.3-.1-.3.2-.5.4-.6.2.1.5.1.5.3zM-80.9 91.6c.2.2.2.4.1.6-.2.2-.5.3-.6.1-.2-.2-.3-.3-.2-.5.2-.2.5-.4.7-.2zM-26.5 92.3c.1.3-.1.5-.3.6-.3-.1-.6-.1-.6-.5 0-.2.2-.3.4-.4.2 0 .4.2.5.3zM-25.1 92.3c.1.1.2.3.1.5-.1.1-.2.1-.2.2-.3.1-.5-.1-.6-.3-.1-.3.2-.4.4-.5 0-.1.1 0 .3.1zM-87.3 92.6c-.1.3-.4.4-.7.3-.1-.1-.2-.2-.2-.3 0-.2.1-.4.3-.4.3 0 .6.1.6.4zM-78.7 93c0 .2-.3.4-.4.5-.3 0-.4-.2-.6-.4 0-.2.1-.5.3-.5.3-.1.6.2.7.4zM-80.2 92.9c.1.1.2.3.1.4-.2.1-.4.4-.6.2-.2-.1-.3-.2-.3-.5.1-.1.2-.3.4-.3.1-.1.2.1.4.2zM-21.3 93.2c0 .2-.2.4-.3.5-.2.1-.4 0-.6-.1-.1-.1-.1-.3-.1-.4.1-.2.3-.3.5-.3.3 0 .4.1.5.3zM-19.6 93.4c-.1.2-.2.4-.5.5-.2 0-.4-.1-.4-.3 0-.2.1-.4.2-.4.3-.2.6-.1.7.2zM-84.4 93.7c.1.3-.1.5-.3.6-.2.1-.4 0-.5-.1-.1-.1-.2-.3-.1-.5s.3-.2.4-.3c.3.1.4.2.5.3zM-83.1 94c.1.2-.2.3-.2.4-.1.1-.3.2-.5.1-.2-.2-.4-.4-.2-.6.2-.4.7-.2.9.1zM-22.8 93.9c0 .2-.2.4-.4.6-.2.1-.5-.1-.5-.3 0-.2.1-.4.3-.5.3-.1.5-.1.6.2zM-20.7 94.3c-.1.2 0 .5-.3.6-.2.1-.5 0-.6-.1s-.2-.4-.1-.5c.1-.2.4-.4.6-.3.2 0 .3.2.4.3zM-85.3 94.8c.1.2-.1.3-.2.4-.2.1-.4 0-.5-.1-.2-.1-.1-.4-.1-.5.2-.4.7-.1.8.2zM-22.3 95.3c.1 0 .1.2 0 .2-.6.3-1.5.4-2-.1-.3-.3-.7-.4-1-.6.1-.3.6-.3.9-.4.7.2 1.3.9 2.1.9zM-84.1 95c.1.2-.1.3-.2.4-.1.2-.3.1-.4.1-.2-.2-.3-.4-.2-.6.3-.3.6-.1.8.1zM-81.9 95.2c.1.2-.1.4-.2.6-.2.1-.3-.1-.5-.1-.1-.2-.4-.4-.1-.6.2-.4.6-.2.8.1zM-52.7 96.3c-.1.5-.9-.1-.8.6.1.5.2 1.1.5 1.4.2.3.1.9.1 1.3-.2.4-.6.6-1 .8-.7-.1-1.8.4-2.1-.5-.1-.4-.4-.8-.4-1.2.1-.1.2-.1.2-.1 0-.2-.2-.3-.2-.4.8-.1-.3-.9.4-.9.6.6 1.5.4 2 1.1.1.1.2.2.4.3-.1-.6-.4-1.2-.5-1.9-.1-.3.1-.7.3-.8.5-.5.9 0 1.1.3zM-79.7 96.1c.1.3-.1.4-.3.5-.2.1-.4-.2-.5-.3-.1-.3.1-.4.3-.5.2.1.4.1.5.3zM-64.1 96.4c.3 1 .2 2-.3 2.9 0 .2.1.5-.2.5-.7-.9-.2-2.3.1-3.3 0-.3.4-.4.4-.1zM-42.4 96.8c.4.7.4 1.7.1 2.4l-.2.2c-.3-.6-.5-1.2-.6-1.8.1-.5.3-.9.3-1.3.3-.1.3.4.4.5zM-77.7 97.1c-.2.3-.6.4-.9.6-.6.5-1.5.6-2.2.4.7-.9 1.7-1.5 2.9-1.2 0 .2.2.1.2.2zM-88.1 98c.9.7 1.2 1.6 1.7 2.5.1.1.3.1.2.3-.2.2-.4-.2-.7-.1-1-.4-1.6-1.5-1.5-2.6.1-.1.2-.1.3-.1zM-43.4 98.8c0 .3 0 .5-.2.6-.3.1-.5-.1-.6-.3-.1-.2.1-.3.1-.4.2-.2.5-.1.7.1z"/><path d="M-32.8 100.2c0-.5.1-.9.2-1.4.1-.2.1-.3.1-.5.6-.8 1.8-.6 2.8-.5.4.2.9.2 1.3.3.2-.1.4-.2.6-.1.8-.4.3-1.4.3-2.1l-.3-.8c-.1-.2-.2-.3-.2-.5-.1-.2-.2-.5-.4-.7-.4-1.1-1.3-1.8-2-2.6-1.3-1.7-3.3-2.6-5.3-3.3-2-.7-4 .2-5.8.8-.5-.2-.8-.6-1-1.1-.1-1 .1-1.9.5-2.7.1-.6.5-1.1.7-1.7.5-1.4.9-2.8 1-4.4.1-.9-.7-1.6-1.4-2-.5-.1-1-.1-1.4.3-.3.7-1 1.2-1.6 1.5-.1.4.5.2.7.3.6.1 1.2-.1 1.6.3.1 1-.5 1.9-1.1 2.6-.9 1.3-1.8 2.6-2.3 4l-.1-.1.1 6.2c.8 1.3 1.8 2.9 3.3 3.4.8.7 1.8 1.5 2.9.9.6-.2.6.6.9 1 .3.9-.4 1.6-.4 2.5l-.7 1.4c-.8 1.5-1.4 3.1-2.6 4.3-.4 0-.6.4-1 .4-.2.3-.6.1-.9.2-.8.3-1.9.1-2.4.9.1.1.1.1.2.1 1.5 0 3.3.1 4.9.1.2-.1.4-.3.4-.5-.2-.4.1-.8.3-1.1.1-.6.5-1 .7-1.6.5-1 1.1-2.1 1.7-3.1l.8-1.3c.2-.4.5-1 .8-1.4.2-.2.3-.4.5-.7 0-.3-.1-.4-.2-.5.2-.2.5-.1.7-.2.6.4 1.3 1 1.4 1.7l.2.7.1.3-.1.8.1.8c.1 1.2-.1 2.5-.2 3.7-.4 1.5-2.1 1.3-3.3 1.7-.3.2-.9.1-.9.6 1.5.3 3.2.1 4.7.1.2-.1.3-.3.4-.6.1-.3.4-.6.3-1-.3-.4 0-.9-.1-1.4.1-.1.1-.3 0-.5.2-.7.2-1.6.3-2.3l.2-1.2zM-20.3 99.2c-.8 1.1-1.7 2.4-3.1 2.9-.1 0-.2.1-.2-.1.9-.9 1.3-2.3 2.7-2.7.1-.1.4-.2.6-.1zM-89.3 100.4c-.1.1 0 .3-.2.4-.2.1-.4 0-.5-.2-.1-.3.1-.5.3-.6.1.1.3.2.4.4zM-82 100.8c.1.2-.2.2-.3.3-1.1.4-2.1 0-2.9-.7 0-.1 0-.2.1-.2 1 .2 2.2 0 3.1.6zM-87.9 100.5c.1.1.1.3.1.4-.2.2-.4.3-.6.2-.2-.1-.2-.2-.3-.3 0-.3.2-.4.4-.5.1 0 .2 0 .4.2zM-64.3 100.6c.1.2-.2.4-.3.5-.2.1-.4-.1-.5-.2-.1-.2 0-.4.2-.5.2-.1.6 0 .6.2zM-19.4 100.7c.1.2-.1.4-.3.5-.2.1-.3 0-.5-.1 0-.1-.2-.2-.1-.4s.3-.3.6-.3l.3.3zM-17.7 100.6c.2.2 0 .4-.1.6-.1.2-.3.2-.5.2-.2-.2-.4-.2-.4-.5 0-.2.2-.4.4-.4.3-.2.4.1.6.1zM-90.4 101.3c0 .2-.1.3-.2.4-.1.1-.2.2-.4.1s-.3-.2-.4-.4c.1-.2.2-.4.5-.5.2.1.4.2.5.4z"/><path d="M-37.2 101.3c.1.1 0 .2 0 .3-.2.2-.4.4-.6.2-.2-.2-.3-.3-.2-.5.2-.2.6-.3.8 0zM-86.3 101.7c-.1.2-.1.4-.4.4s-.3-.2-.4-.3c0-.2 0-.5.2-.6.3-.1.6.2.6.5zM-88.7 101.8c.1.3-.1.4-.2.6-.3.1-.6-.1-.7-.4 0-.2.2-.5.5-.6.1 0 .2.2.4.4zM-35.5 101.7c.1.2 0 .5-.3.6-.3.1-.6-.2-.7-.4.1-.2.2-.5.5-.5.2 0 .4.1.5.3zM-87.6 101.8c.1.2-.1.3-.1.4-.1 0-.2.2-.4.1-.1-.1-.3-.2-.3-.4 0-.3.2-.4.3-.5.3 0 .5.2.5.4zM-20.8 102c-.1.2-.2.3-.4.4-.2.1-.3-.1-.5-.2-.1-.1-.1-.3 0-.5.2-.4.9-.2.9.3zM-18.9 102.1c-.1.3-.4.4-.6.4-.2-.1-.5-.3-.3-.6.1-.1.1-.2.3-.2.3-.1.6.2.6.4zM-30.8 102.3c.1.3-.2.4-.4.6-.2 0-.3-.1-.5-.2-.1-.3.1-.5.4-.7.2 0 .3.1.5.3zM-37.8 102.6c.1.1.1.2.1.3-.2.1-.4.4-.6.2-.2-.1-.3-.3-.3-.5.1-.2.7-.3.8 0zM-36.4 102.8c0 .2 0 .3-.2.4-.2.2-.4 0-.6-.1-.1-.1-.1-.3 0-.4.1-.1.2-.2.3-.2.2.1.4.1.5.3zM-79.3 102.8c.2.2 0 .3-.1.5s-.4.3-.6.1c-.2-.1-.2-.4-.2-.6.2-.1.2-.2.4-.2.3 0 .4.1.5.2zM-28.1 102.9c.1.3-.2.4-.4.4-.3.1-.5-.1-.6-.3 0-.2.1-.2.2-.4.3-.1.6.1.8.3zM-29.5 102.9c.1.3-.2.4-.3.5-.2.1-.4.1-.6-.1-.1-.1-.1-.2-.1-.4.2-.1.2-.3.4-.3.3 0 .5.1.6.3zM-18.1 103.2c.1.4-.4.2-.6.3-1.1.6-2.4.2-3.4-.2.1-.3.5-.2.7-.3 1-.8 2.1.1 3.3.2zM-87.3 102.9l-.1.2c-.9.6-2.1.9-3.3.6l-.1-.2c1-.7 2.2-.8 3.5-.6zM-25.6 103.1c0 .2-.1.4-.2.5-.2.1-.6 0-.7-.3-.1-.2.1-.4.3-.5.2 0 .5 0 .6.3zM-82.8 103.2c-.1.2-.1.4-.3.5s-.6-.1-.6-.3c-.1-.3.1-.4.2-.5.4-.2.6.1.7.3zM-84.5 103.3c.1.2-.1.3-.1.4-.1.2-.4.1-.5.1-.2-.2-.4-.3-.3-.6.2-.1.2-.2.4-.3.2.1.4.2.5.4zM-23.8 103.9c0 .2-.2.4-.4.5-.2 0-.4-.1-.5-.3-.1-.2-.1-.4.1-.5.1-.1.2-.1.3-.1.3 0 .5.2.5.4zM-86.4 103.6c.1.2-.1.3-.1.4-.1.4-.4.7-.5 1.1-.5.6-1.2.6-1.8.8l-.1-.2c.6-.9 1.4-1.7 2.5-2.1zM-25.1 104.2c.1.3-.2.4-.4.5-.2 0-.4-.1-.5-.3-.1-.3.2-.4.3-.5.3-.1.6.1.6.3zM-83.5 104.2c0 .1 0 .1.1.1 0 .3-.2.4-.4.5-.2 0-.4-.1-.6-.2-.1-.2 0-.5.2-.6.3-.1.6-.1.7.2zM-20.4 104.9c.2 0 .3-.3.6-.4.2-.1.5.1.6.3.1.3-.1.5-.3.6-.2.1-.6-.2-.5.2.2.1.3.3.4.5-.1.1-.2.1-.3 0-.7-.3-1.5-.8-1.8-1.6-.1-.2-.6-.4-.3-.6.6 0 1.2.6 1.6 1zM-18 104.2c.1.1.1.4 0 .5-.1.3-.5.2-.7.1-.1-.1-.2-.3-.2-.5.1-.2.2-.2.4-.3.2-.1.3 0 .5.2zM-27.2 105.5c.2.3.5.7.6 1-.1.1-.2.1-.2.1-.9-.5-2-1-2.3-2-.1-.1-.3-.2-.2-.4.7-.1 1.3.4 1.7.7.1.2.3.4.4.6zM-84.9 104.6c.1.2-.1.4-.2.5-.3.1-.4-.1-.6-.2-.2-.3.2-.5.4-.6.1-.1.2.1.4.3zM-24 105.2c0 .2-.2.3-.2.4-.2 0-.4.1-.6-.1-.1-.1-.2-.3 0-.5.2-.4.6-.1.8.2zM-17.7 105.5c.1.3-.2.5-.4.6-.2.1-.5-.1-.6-.2-.1-.2 0-.3 0-.5.2-.2.4-.3.7-.2l.3.3zM-35.2 109c0 .3-.6.2-.8.5-.8.4-1.7.4-2.7.4v-.2c1-.8 2.3-1 3.5-.7zM-72.1 110.1c0 .2-.2.4-.4.4s-.4-.1-.4-.2c-.1-.3.2-.4.3-.6.3.1.5.2.5.4zM-35.6 110.4c-.1.2-.1.5-.4.6-.2.1-.4-.1-.6-.2-.1-.1-.1-.3-.1-.4.2-.5.9-.5 1.1 0zM-30.6 110.5c-.6.4-1.3.9-2.2.9h-1.4l-.1-.1c.8-1 2.4-1 3.7-.9v.1zM-79 111.1c0 .2-.1.4-.3.5-.2.1-.4-.1-.5-.2-.1-.2 0-.5.2-.6.2-.2.5.1.6.3zM-77.7 111.4c.1.1-.1.2-.1.3-.1.1-.4.1-.5 0-.2-.1-.2-.3-.2-.4.1-.2.2-.1.3-.2.2 0 .4.1.5.3zM-87.4 113.9c-.2.3-.7-.1-.9-.2-.9-.5-.9-1.5-1.7-2.1.1-.3.3 0 .5 0 .2.1.4.2.5.3.8.5 1 1.3 1.6 2z"/><path d="M-13.7 104.1c-.4-.7-1.1-1-1.9-1-.7.1-1.1.5-1.4 1-.2.6.1 1.1.5 1.4.2.1.4.1.5-.1.1-.3-.2-.3-.3-.6-.1-.4 0-.7.3-.9.2-.3.7-.1 1-.1.3.2.6.4.8.7.2.4.2.9 0 1.3-.3.6-.9 1.1-1.6 1.3-2.1.3-25.1.2-25.1.2-2.7.3-5.8-.5-8.1.9-1.1.5-1.6 1.7-1.9 2.7-.7.6-1.4 1.3-2 2l-.1-.1c.1-.6.4-1.2.5-1.8.4-.5.4-1.2.7-1.8 1-1.6 1.9-3.1 3.4-4.2.6-.8 1.7-.7 2.7-.7 1 .5 2.2.6 3.5.5.1-.1.1-.1.1-.2-.4-.3-.9-.5-1.3-.8-1-.5-2 .2-3 .1-.1-.1-.1-.1-.1-.2 1-.7 2.1-1.2 3.1-1.7.9-.5 1.8-.7 2.8-1.1.4 0 .7-.3 1.1-.1l1.3-.4c.1 0 .1.1.2.1 1.1-.4 2.6 0 3.9-.1l.2.2 1.2.3c.5.1.7.6 1.1.6.2-.4-.3-.5-.4-.7.6-.1 1.2 0 1.7.3l-.2.3c-.1.3.1.5.3.6.2.1.3-.1.4-.1.3-.2 0-.5.1-.7 1.9.3 3.7.8 5.4 1.5.5.2.9.5 1.5.5-.5-.5-1.3-.7-1.9-1-.4-.3-1-.3-1.4-.6.1-.1.2-.1.3-.2.9-.1 1.6-.7 2.2-1.4.1-.2.3-.1.3-.3-.2-.3-.6.1-.9.1-1.1.2-1.5 1.5-2.6 1.7l-3.9-.9c-.6-.1-1.3-.2-1.9-.4l-1.4-.1h-2.6c0-.1-.1-.1-.1-.2.9-.2 1.7-.8 2.6-1l6.8-3.1c.7-.6 1.3-1.3 1.9-2.1 0-.2-.1-.4-.3-.5-.2-.1-.4-.1-.5.1-.3.2 0 .5 0 .8-.3.4-.8.8-1.2 1-.1 0-7 3.1-7 3.1-1 .4-2 .9-3.1 1.1l-1.5.2c-.1.3-.4.5-.6.6-.4.1-.7.3-1.2.3-3.3 1.3-6.7 2.6-9.3 5.2.2-.3.2-.7.2-1.1-.1-.4 0-.8-.3-1.1-.1-.1-.2-.5-.2-.7l-.4.2c-.2.6-.4 1.6-.2 2.2.1.5.5 1 .1 1.4-1.2 1.5-1.9 3.3-2.7 4.9-.3-.1-.5-.3-.6-.6.9-1.1 1.5-2.3 1.8-3.7.2-.1.1-.5.2-.6-.1-.4.2-.8 0-1.2.2-.5-.7-1.1-.2-1.4l-.5.2c-1.1 1.4.6 3.6-.7 4.9v.1c-.4.5-.5.9-1 1.2-.6-.2-.8-.9-1.2-1.5-.6-.5-.6-1.6-.2-2.4.2-.7-.2-1.4-.2-2l-.2-.2c-.6.8-.8 2-.4 3 .2.5.3 1.1.7 1.5.2.7.7 1.2 1.1 1.9.1.3-.2.3-.3.4-.3-.2-.2-.6-.5-.8-.8-1.8-1.9-3.2-3.2-4.7-.1-.2-.3-.4-.2-.7.5-.5.6-1.3.3-1.9-.1-.1-.2-.3-.2-.4l-.4-.3c.1.9-.5 1.7-.3 2.6v.1c-2.6-2-5.5-3.7-8.4-5.1l-.2.6c.7.2 2.7 1.4 2.7 1.4.9.3 1.7.9 2.5 1.3 3.4 1.9 5.7 5.1 7.3 8.6 0 .3.3.6.1.9-.5-.8-1.3-1.3-1.9-1.9-.2-1.2-.9-2.3-1.9-2.8-.4-.6-1.2-.6-1.8-.8l-9.2-.1c-7.5-.1-14.3.2-21.7.1-1-.1-2.3-.5-2.6-1.6-.2-.4-.2-1 0-1.4.3-.5.8-.6 1.3-.7.4.1.7.4.9.7 0 .3-.3.6-.4.9 0 .1.1.3.3.2.3-.1.6-.5.7-.8 0-.2.1-.4-.1-.6-.2-.5-.7-.9-1.2-1-.6-.1-1.3.1-1.7.6-.6.5-.6 1.4-.4 2.1.4 1.1 1.6 1.9 2.7 2.1l24.6.1c2.4.1 5.1-.3 7.5.2.9.3 1.8.9 2.1 1.9 0 .1-.1 0-.2 0-2-1.3-4.6-1.8-7.2-1.5-1-.1-1.9.3-2.8.6-.5.1-.9-.1-1.2-.4-.9-.8-2.5-.8-3.7-.5v.2c1.2-.1 2 1 3.1 1.1.2.1.5-.2.7 0-1.2.6-2.3 1.2-3.5 1.6-.4-.1-.6-.4-.9-.6-.5-.5-1.4-.3-2-.4-.2.1-.4-.1-.6 0 .2.4.7.6 1.1.8.6.3 1.4 0 1.9.4-.2.2-.4.2-.5.4-1.2.5-2.2 1.5-3.5 1.5-1.4.2-2.8-.3-3.7-1.2-.4-1-1.4-1.5-2.5-1.5-.1.1-.2.1-.2.2.6.3 1 1 1.5 1.4.4.4 1 0 1.4.5.5.3 1.1.6 1.6.7.4.2.9.3 1.3.4l-.2.1c-2.3.8-5 .8-7.5.7-.8 0-1.5-.2-2.2-.2.1.2.4.3.6.4-.2.1-.4.2-.7.2-.3.1-.7.1-1 .3-.4 0-.8.1-1.1.2-.4.5-.9.9-1.4 1.2 0 .1 0 .3.1.3.5-.2 1.1-.1 1.6-.3.8-.1 1.3-1 2-1.4.7-.6 1.7-.4 2.6-.3.5.1-.1.3.1.7.2.2.4.4.7.3.1-.1.1-.1.2-.1.2-.2.1-.4 0-.6.4-.2.8 0 1.2-.1 1 0 1.9-.2 2.9-.3.2 0 .3-.2.5 0-.1.2-.3.2-.2.5.1.2.3.3.5.4.2-.1.5-.3.4-.6-.1-.2-.2-.2-.4-.3.5-.3 1.1-.3 1.7-.6.4-.1.7-.2 1.1-.4.3 0 .6-.3.9-.2-.1.4-.3.8-.5 1.2-.4 1.3-.7 3.1 0 4.4.1 0 .1 0 .2-.1-.5-1.3-.2-2.9.2-4.2.4-2.2 2.6-2.8 4.2-3.6l.1.1c-.4 1.1-1.1 2.2-1 3.5.1.2-.1.5 0 .6.4-.2.7-.7.9-1.2.2-1.1-.5-2.6.7-3.4 2.1-.8 4-1.9 6.4-1.9.1.1.2-.1.3.1-.5.6-1.2 1.1-1.5 1.8-.8 1.1-.8 3-.4 4.4.2.8-.5 1.2-.8 1.8-.2.2-.2.6-.3.8l.5.1c.4-.5.8-1 .9-1.7.1.3.3.5.5.5.2-.3-.2-.5-.2-.8.4-.2.6.3.9.4.5.1 1 .4 1.5.4l.2-.2c-.6-.9-1.7-1-2.6-1.1-.5-.8-.5-1.9-.5-2.9.1-.5.2-1.1.5-1.6.1-.4.5-.7.7-1 .5-.4 1-.7 1.6-.9h.1v.1c-.7.5-.8 1.3-1.2 1.9-.4.6-.6 1.5-.2 2.2.2.3.1.8.4 1.1.3-.5.4-1 .5-1.6-.1-.8-.6-1.6-.1-2.4.2-.6.8-.9 1.4-1.1 1.4-.1 2.6.6 3.8 1.1.2.2.7.3.7.7 0 .7-.4 1.4-.9 1.7-.7.4-1.7.5-2.3 0-.4-.4-.5-1-.4-1.6.3-.3.7-.6 1.1-.4.3.1.5.4.8.2.1-.1.2-.3.1-.4-.3-.2-.4-.5-.8-.6-.5-.1-1.1-.1-1.4.3-.5.5-.7 1.2-.6 1.8.2.8.8 1.4 1.6 1.6 1.2.3 2.4-.1 3.1-1.1.3-.3.4-.7.6-1.1 1.2.7 2.1 2 2.6 3.4 0 .4.1.9 0 1.3l.9.1c-.1-.2 0-.4.1-.6.3-1.7 1.4-3.1 2.6-4.2.4-.3.3.3.4.5.4 1 1.3 1.7 2.2 1.9 1.1.2 2.1-.1 2.7-.9.3-.6.7-1.5.2-2.1-.4-.4-.8-.7-1.4-.7-.7 0-1.1.5-1.4.9 0 .2 0 .4.2.5.1 0 .3 0 .4-.1.1-.4.4-.6.7-.8.3-.2.6 0 .8.2.3.2.3.6.4 1-.1.5-.4 1-.8 1.2-.7.4-1.8.2-2.4-.2-.3-.3-.5-.7-.7-1.1-.1-.4-.2-.8 0-1.2 1.1-.7 2.3-1.1 3.6-1.3.5.1 1 .5 1.3.8 1.2 1.2-.2 2.9.6 4.2.3-.1.3-.5.4-.7.4-.9-.1-1.9-.3-2.8-.3-.6-.5-1-1-1.5.1-.1.2-.1.3-.1.5.4 1.1.8 1.5 1.3.7 1.2 1.1 2.6 1 4.2-.2.8-1 1.1-1.6 1.4-.2.2-.6.5-.7.8.3.2.7 0 1-.1.5-.2.8-.8 1.1-1.1.1 0 0 .1.1.2 0 .3-.1.7.1.7.1-.4.2-.9.2-1.3.3.4.4.8.5 1.3.2.5.6 1.1 1.2 1.1.2-.2 0-.5-.1-.7-.1-.6-.6-1-1-1.4-.9-1.2-.5-3.1-1.2-4.5-.2-.7-.8-1.3-1.4-1.9l.1-.1c1.2 0 2.3.4 3.4.6 1.4.7 3.4.5 4.1 2.3.3 1 .7 2 1.4 2.7l.1-.1c.2-.2.2-.7 0-.9-.2-1.3-1.3-1.6-1.8-2.6l.1-.1c.6.2 1.2.3 1.8.6 2 .6 3.4 2.5 3.7 4.6 0 1.6-.3 3-.9 4.4-.1.2-.4.4-.2.6.3-.2.3-.5.5-.8.8-1.4 1.3-3.3.8-5.1 0-.3-.4-.6-.2-.9.1.2.3.2.4.2.2-.1.4-.1.5-.3 0-.2.1-.3 0-.5-.2-.2-.5-.2-.7-.2-.1.2-.3.4-.3.6-.2-.4-.5-1-.9-1.3l.1-.1c1.1.4 2.2.9 3.3 1.2.2.2.5.3.9.3 1 .4 2.1.5 3.1.8.8-.1 1.4.3 2.1.1v-.1c-.3-.4-.9 0-1.2-.3-1.7-.2-3.4-.6-5-1.2 0-.1.1-.1.2-.1.2-.1.4-.4.4-.6-.1-.2-.3-.3-.6-.3-.2.1-.4.2-.4.4s.2.4.4.5c-.1.1-.2 0-.2 0-.8-.4-1.5-.7-2.3-1-.3-.1-.5-.3-.8-.3-.6-.3-1.2-.6-1.7-.8-1.6-.8-3.4-1.3-5.1-1.9-.4-.1-.7-.2-1.1-.3-.6-.2-1.3-.3-1.9-.5-2.1-.5-5-.6-6.9.6-.3-.1-.5.4-.6.1.5-1.4 2.1-1.9 3.5-1.9 10.1-.1 19.6-.2 29.6-.3 1.2 0 2.3-.4 2.9-1.5.1.3.2-.8-.1-1.4zm-40.2 9.3c-.1.3-.3.6-.3.9l-.1.1c.1-.4-.3-.6-.2-1-.2-.3-.2-.7-.4-1-.2-.4.2-.6.4-.9.4.2.5.5.7.8.2.4-.1.7-.1 1.1z"/><path d="M-26.5 111.8c0 .1.2.1.1.2-.9.8-2.1 1-3.4 1.1-.1 0-.2.1-.3.1-.1-.1-.1-.1-.1-.2.9-1 2.3-1.5 3.7-1.2zM-30.6 112.3c.1.4-.1.6-.4.7-.3 0-.4-.2-.6-.4-.1-.2.1-.3.2-.4.2-.3.7-.3.8.1zM-78.6 112.3c.1.2 0 .4-.1.5-.1.1-.3.2-.5.1-.2 0-.3-.2-.3-.4s.1-.4.3-.5c.2.1.4.1.6.3zM-83.1 114v.2c-.6.1-1.2 0-1.6-.4-.4-.5-.8-1-1.3-1.3 0-.1-.2-.2 0-.2 1.2 0 1.9 1 2.9 1.7zM-22.7 112.3c-.6.9-1.1 1.9-2.1 2.3-.2 0-.3.3-.5.1.4-1 1.3-2 2.2-2.4.2 0 .3-.1.4 0zM-77.1 112.6c0 .3-.2.3-.4.5-.2 0-.3-.1-.4-.3-.1-.3.1-.4.3-.5.1 0 .4.1.5.3zM-19.5 112.7c-.2.3-.1.8-.4 1.2-.5.6-.9 1.2-1.7 1.4-.1-.2.2-.5.3-.7.4-.8.9-1.6 1.7-2l.1.1zM-91 113c.1.2.2.4 0 .6-.1.1-.4.2-.6.1-.2-.1-.3-.4-.2-.6.2-.3.7-.4.8-.1zM-92.4 113.3c0 .1.1.2.1.4-.1.1-.2.3-.4.3-.3.1-.5-.1-.6-.3 0-.2.1-.4.2-.5.3-.2.6-.1.7.1zM-89.4 113.4c.1.2.1.6-.2.6-.4.2-.6-.1-.8-.3 0-.2.1-.4.3-.5.3 0 .5 0 .7.2zM-85.3 113.8c0 .2 0 .4-.2.5-.1.1-.4.1-.5.1-.1-.2-.3-.3-.2-.5.1-.1.2-.2.4-.3.2 0 .4-.1.5.2zM-17 113.9c-.1.2-.2.4-.4.4s-.5-.1-.6-.3c-.1-.3.1-.4.3-.5.3 0 .6.2.7.4zM-21.7 114.1c0 .2-.2.4-.3.4-.4.2-.7-.1-.8-.4.1-.2.2-.4.4-.5.4 0 .6.2.7.5zM-18.5 114c0 .2-.1.4-.2.4-.2.1-.5.1-.6-.1-.2-.2-.1-.4.1-.5.2-.1.6-.1.7.2zM-91.6 114.4c.1.3-.1.5-.3.6-.2 0-.5-.1-.6-.4 0-.2.1-.5.2-.5.3 0 .5.2.7.3zM-22.9 114.7c.1.3-.1.5-.4.7-.2.1-.3-.1-.5-.2-.1-.1-.2-.4 0-.5.2-.4.7-.3.9 0zM-78 115c.1.3-.2.3-.3.5-.1.1-.3.1-.4 0-.1-.2-.3-.3-.2-.5.1-.1.2-.2.3-.2.3-.2.4 0 .6.2zM-17.5 115.2c.1.2-.1.3-.1.4-.2.1-.4.2-.6.1-.2-.1-.2-.3-.2-.6.1-.1.2-.2.4-.3.1 0 .4.1.5.4zM-19.1 115.3c.1.3-.2.5-.4.5-.1 0-.2-.1-.3.1.7.3 1.1.9 1.6 1.3v.2c-.9 0-1.8-.2-2.5-1-.2-.1-.5-.1-.7-.3.3-.3.9-.2 1.4-.2.3-.4-.4-.6.1-.9.2 0 .2-.2.5-.1.1.1.2.2.3.4zM-29.4 115.3c.1.1-.1.3-.1.4-.2.2-.4.2-.6.1-.1-.2-.3-.3-.2-.6.2-.4.8-.3.9.1zM-85.9 116.2c-.1.2-.2.4-.4.4s-.4-.1-.5-.3c0-.2.1-.3.1-.4.3-.3.8-.1.8.3zM-83.9 115.8c0 .4-.4.6-.5.9-.4.8-1.1 1.6-2 1.7-.1-.2.3-.5.4-.7.4-.9 1.2-1.3 1.9-1.9h.2zM-30 116.2c0 .3-.2.5-.4.6-.2.1-.4-.1-.5-.2-.2-.2-.1-.4 0-.6.3-.3.7-.1.9.2zM-28.4 116.4c0 .3-.2.5-.5.6-.1-.1-.2 0-.2-.1-.2-.1-.3-.3-.3-.5.1-.1.2-.3.4-.4.1 0 .5.1.6.4zM-79.9 116.3c0 .3-.2.4-.4.5-.2 0-.4-.1-.5-.3-.1-.2.2-.4.3-.5.3 0 .4.2.6.3zM-78.2 116.4c-.1.2-.2.4-.5.4-.2-.1-.4-.1-.5-.3 0-.3.2-.4.4-.5.3.1.5.2.6.4zM-23 118.2c.1.1.4.2.3.4-.4.2-.7-.3-1.1-.4-.6-.6-1.1-1.3-1.3-2 .2-.2.5.1.7.1.5.6 1.1 1.2 1.4 1.9zM-22.1 116.4c.1.2.1.4-.1.6-.2.3-.5.2-.7.2-.1-.2-.4-.4-.2-.6.1-.2.3-.3.5-.3.2-.1.3.1.5.1zM-75.9 117.1c0 .2.1.5-.2.6-.2.1-.5 0-.6-.3-.1-.3.1-.4.3-.5.2 0 .4.1.5.2zM-28.5 118.8c.4.5.6 1.1.7 1.8-.1.2.1.4 0 .5h-.2c-1.1-.8-1.4-2-1.8-3.1-.1-.1-.1-.2-.1-.3.2-.2.4.2.7.3l.7.8zM-72.6 117.9s0 .1 0 0c-1 .8-2.4 1.2-3.6.5 0-.1 0-.2.1-.2.7-.2 1.4-.6 2.2-.5l1.3.2zM-78.4 118c-.9.5-1.6 1.6-2.7 1.8-.2.1-.3.4-.6.2.5-1.4 1.9-2.1 3.3-2.2v.2zM-30 119.2c.1.2 0 .5-.2.5-.1.1-.4.1-.5 0-.2-.1-.2-.3-.2-.5.1-.2.2-.2.4-.3.2.1.4.1.5.3zM-32.1 119.3c-.2.4-.6.6-.9.7-.9.3-1.6-.1-2.4-.3 0-.2.3-.1.4-.2.8-.2 1.7-.4 2.6-.1 0-.2.2-.2.3-.1zM-78.4 120c-.1.1-.1.3-.3.4-.2.1-.4 0-.5-.1-.1-.2-.2-.3-.1-.5s.2-.2.4-.3c.3.1.5.3.5.5zM-76.9 120.3c-.1.2-.2.4-.4.5-.2.1-.4-.1-.5-.2-.1-.2-.2-.3-.1-.5.1-.1.2-.2.4-.2.3-.1.5.2.6.4zM-30.5 120.5c0 .2-.1.3-.2.5s-.4.2-.6.1c-.2 0-.2-.2-.3-.4-.2-.2.1-.3.2-.5.3-.2.8-.1.9.3zM-29.4 120.5c0 .1.1.2.1.4-.2.1-.2.5-.6.3-.1.1-.2-.2-.3-.2-.1-.3 0-.6.3-.7.2-.1.4.1.5.2zM-77.8 121.2c.1.3-.1.5-.2.7-.3.1-.6.1-.7-.3 0-.2 0-.6.3-.7.2 0 .5 0 .6.3zM-76.3 121.1c-.1.7-.2 1.6-.9 2-.4.1-.8.5-1.2.2v-.1c.5-.8 1.4-1.4 2.1-2.1zM-34.5 121.7c.1.2-.1.3-.1.4-.1.2-.4.1-.6 0-.2-.1-.2-.3-.1-.5s.2-.2.3-.3c.2 0 .4.2.5.4zM-73.8 122.9c.4.6.2 1.4.4 2-.4.1-.6-.4-.9-.7-.6-.8-.5-1.8-.7-2.7.1-.1.1-.1.2-.1.4.2.7.7 1 1.1-.2.2 0 .2 0 .4zM-33.2 121.9c0 .2-.2.3-.4.4-.2 0-.3-.1-.5-.2-.1-.2.1-.3.2-.5.4-.1.6 0 .7.3zM-30.2 124.2c0 .1 0 .2-.2.2h-.1c-.7-.7-1.5-1.4-1.4-2.4h.2c.7.5 1.5 1.1 1.5 2.2zM-32.1 123.3c0 .2-.1.4-.2.5-.3.1-.7.1-.8-.3 0-.3.3-.4.4-.5.3-.1.5.1.6.3zM-33.8 123.9c-.4.9-1.3 1.4-2 2.1-.1-.1-.1-.3-.1-.4.2-1 1-1.9 1.9-2.3.6.1.2.4.2.6zM-31.9 124.6c0 .2-.2.3-.4.5-.2 0-.4-.1-.6-.3 0-.3.2-.3.3-.5.4 0 .6.1.7.3zM-50.7 78.4c.3 0 .6.3.6.6s-.3.6-.6.6h-7.5c-.3 0-.6-.3-.6-.6s.3-.6.6-.6h7.5zm-5.3 1.1c.7 0 0-.9-.4-.9h-.6c-.7 0 0 .9.4.9h.6zm3.1 0c.7 0 0-.9-.4-.9h-.7c-.7 0 0 .9.4.9h.7zm2.3-.9h-.3c-.7 0-.1.9.3.9.5 0 .5-.9 0-.9zM-51.3 87l1.4.5 1.4-.5-.6 2.1 1.1-.2-.4 1.3.4 1.2-1-.3.4 2.3-1.4-.5-1.4.5.6-2.3-1.1.3.3-1.3-.3-1.2 1.1.2-.5-2.1zm2.1 3.8c.3 0 .4-.4.4-.8 0-.9-.7 0-1-.8-.3.7-1 .1-1 .8 0 .5 0 .8.5.8h1.1zm-1.4-.7c0 .3.4.1.8.1.3 0 .8.2.8-.1 0-.5-.4-.3-.8-.3-.4-.1-.8-.2-.8.3zM-54.7 90.1v-.2l-.2-.1.2-.2-.1-.2h.2l.2-.2.1.2h.2l-.1.2.2.2-.2.1v.2l-.2-.1zM-55.8 91.6v-.3l-.2-.1.2-.1-.1-.3.2.1.1-.3.2.3.2-.1-.1.3.2.1-.2.1v.3l-.3-.2zM-53.9 91.4v-.3h-.2l.2-.2-.2-.2h.3l.1-.3.2.3h.2l-.1.2.2.2h-.2v.3l-.3-.2zM-53.7 92.5v-.2h-.1l.1-.1-.1-.2.2.1.1-.2v.2l.2-.1-.1.2.1.1h-.1v.2l-.1-.1zM-55.4 93.7v-.5l-.4-.1.3-.3-.2-.4.4.1.3-.5.2.5.4-.1-.2.4.4.3-.4.1v.5l-.4-.3zM-54.5 69.7l.9 2.2 2.2-.7-1.1 2.1 1.9 1.3-2.3.4.1 2.4-1.7-1.6-1.8 1.6.2-2.4-2.4-.4 2-1.3-1.2-2.1 2.3.7zM-62.7 118.7c-.3.1-.4.2-.3.5l.3 1.3c.1.2.1.6-.1.9-.2.3-.6.5-.9.5-.2.1-.7.1-1.1 0-.2-.1-.4-.2-.5-.7l-.3-1.4c-.1-.4-.2-.3-.5-.3v-.1l1.7-.4v.1c-.3.1-.5.1-.4.5l.3 1.4c.1.2.2.8.9.6.9-.2.7-.9.7-1.1l-.3-1.3c-.1-.3-.2-.4-.6-.3v-.1l1.1-.3v.2zM-60.2 119c-.2-.3-.6-.7-1.2-.6-.3.1-.5.2-.4.5.1.2.2.3.6.4l.8.1c.2 0 .6.2.7.7.1.4-.1 1-1.1 1.2-.5.1-.7 0-.9.1-.1 0-.1.1-.1.2h-.1l-.2-1h.1c.2.4.6.8 1.2.7.6-.1.5-.6.5-.6-.1-.3-.3-.3-.7-.4l-.4-.1c-.9-.2-1-.5-1.1-.7-.1-.3 0-.9.9-1.1.4-.1.7 0 .8 0 .1 0 .1-.1.1-.2h.2l.2.9.1-.1zM-56.8 120.7l-1.8.2v-.1c.4-.1.5-.1.5-.4l-.2-2.3c-.4.1-.9.1-.9.8h-.1l-.1-.9 3.1-.3.1.9h-.1c-.2-.7-.7-.7-1.1-.6l.2 2.3c0 .4.2.4.5.4h-.1zM-52.6 120.7h-1.1l-1-1.4h-.1v.8c0 .3.1.4.4.4v.1h-1.7v-.1c.4 0 .5 0 .5-.4v-1.9c0-.4-.2-.4-.4-.4v-.1h1.7c.4 0 1.5.1 1.4.8 0 .5-.5.7-.8.7l1 1.3c.1.1.1.1.2.1l-.1.1zm-2.2-1.5c.7 0 .9-.1 1-.6 0-.4-.2-.6-.6-.6-.3 0-.3 0-.3.2l-.1 1z"/><path d="M-49.2 121.1l-1.7-.2v-.1c.3 0 .4 0 .4-.1s-.1-.5-.2-.6l-1.2-.1c-.2.3-.3.5-.3.5 0 .2.2.2.4.2v.1l-1-.1v-.1c.3 0 .4-.1.6-.4l1.4-2.2h.1l.9 2.4c.3.5.4.6.6.7zm-1.4-1.2l-.4-1.1-.6 1 1 .1zM-46.2 121.7l-2.9-.5v-.1c.3 0 .4 0 .5-.2l.4-2.1c.1-.3-.2-.3-.4-.4v-.1l1.8.3v.1c-.4-.1-.5-.1-.6.3l-.4 2c0 .2.1.3.4.3.8.1 1.1-.2 1.4-.6h.1l-.3 1zM-44.2 122.2l-1.8-.4v-.1c.3 0 .5.1.5-.2l.4-2.1c.1-.3-.2-.3-.4-.4v-.1l1.8.4v.1c-.2 0-.5-.1-.5.2l-.4 2.1c-.1.3.1.3.4.4v.1z"/><path d="M-40.6 122.6l-1.7-.2v-.1c.3 0 .4 0 .4-.1s-.1-.5-.2-.6l-1.2-.1c-.2.3-.3.5-.3.5 0 .2.2.2.4.2v.1l-1-.1v-.1c.3 0 .4-.1.5-.5l1.4-2.2h.1l.9 2.4c.2.5.2.6.5.7l.2.1zm-1.5-1.1l-.4-1.1-.6 1 1 .1zM-53.8 87.7c0-1-.6-.1-.9-.9-.2.7-.9.1-.9.9 0 .3.1.5.2.6v.3c0 .1.1.1.1.1h1.1c.1 0 .1-.1.1-.1v-.3c.2-.1.3-.3.3-.6zm-.9.2c-.3 0-.7.2-.7-.1 0-.5.3-.4.7-.4.3 0 .8-.1.8.4-.1.3-.5.1-.8.1zM-44.8 100.5c.3 0 .5-.2.5-.4s-.2-.4-.5-.4-.5.2-.5.4.3.4.5.4zM-47 85.1l-.2.4c0 .1.1.2.2.2s.2-.1.2-.2l-.2-.4zM-62.3 85.1l-.2.4c0 .1.1.2.2.2s.2-.1.2-.2l-.2-.4zM-58.5 85.1l-.2.4c0 .1.1.2.2.2s.2-.1.2-.2c.1 0-.2-.4-.2-.4zM-54.7 85.1l-.2.4c0 .1.1.2.2.2s.2-.1.2-.2c.1 0-.2-.4-.2-.4zM-50.8 85.1l-.2.4c0 .1.1.2.2.2s.2-.1.2-.2l-.2-.4zM-62.3 90.3l.2.4c0 .1-.1.2-.2.2s-.2-.1-.2-.2c0 .1.2-.4.2-.4zM-62.3 95.4l.2.4c0 .1-.1.2-.2.2s-.2-.1-.2-.2c0 .1.2-.4.2-.4zM-61.7 99.4l.2.4c0 .1-.1.2-.2.2s-.2-.1-.2-.2c0 .1.2-.4.2-.4zM-58.5 101.6l.2.4c0 .1-.1.2-.2.2s-.2-.1-.2-.2l.2-.4zM-46.8 90.3l-.2.4c0 .1.1.2.2.2s.2-.1.2-.2c0 .1-.2-.4-.2-.4zM-46.8 95.4l-.2.4c0 .1.1.2.2.2s.2-.1.2-.2c0 .1-.2-.4-.2-.4zM-47.4 99.4l-.2.4c0 .1.1.2.2.2s.2-.1.2-.2c0 .1-.2-.4-.2-.4zM-50.6 101.6l-.2.4c0 .1.1.2.2.2s.2-.1.2-.2l-.2-.4zM-54.5 103.9l-.2.4c0 .1.1.2.2.2s.2-.1.2-.2l-.2-.4zM-48.3 96.3c.1.1.2.1.3 0l.1-.4s-.2-.2-.3-.2c-.4.1-.8.1-1.1.5 0 .3.2.5.4.6.1-.1.2.1.3.2 0 .1-.1.2-.2.2-.3-.3-.8.1-1-.3.1-.4.3-.8 0-1.1 0-.1.1-.1.1-.2-.1-.3-.5-.1-.7-.1-.4-.1-.7.1-.9.4 0 .1.1.2.2.4.1 0 .1 0 .2.1l-.2.1c.1.1.1.2.1.3-.2.1-.3-.2-.4-.3 0-.2 0-.5-.2-.6-.1 0-.2.1-.2.1-.1.1-.1.2-.1.4s.1.4.1.4.7.5.9.9c-.2.4-.2 1-.7 1.3-.1.1-.1.2-.1.4l.1.1c.3-.2.9-.2.9-.7.1-.2.2-.5.5-.6.2-.1.5.1.5.3-.1.4-.3.6-.6.7v.2c.1.2.4.1.5.1.4-.3.6-.7.9-.9.1.2-.5.3-.1.6.2-.1.5 0 .7-.3-.2-.4.6-.6.1-1 0-.4.4-.5.4-.9-.1-.4-.6-.4-.7-.7-.2-.1 0-.1.2 0zM-65.9 100.7c.3 0 .5-.2.5-.4s-.2-.4-.5-.4-.5.2-.5.4c.1.2.3.4.5.4zM-90.6 115.1c.3 0 .5-.2.5-.4s-.2-.4-.5-.4-.5.2-.5.4.2.4.5.4zM-74.9 118.6h-.1.1l-.1-.1.1.1zm0 0zM-74.8 118.6s-.1 0 0 0c-.1 0 0 0 0 0-.1 0-.1 0 0 0-.1 0-.1 0 0 0zM-74.6 118.6h-.1.1-.1.1c-.1 0-.1 0 0 0-.1 0-.1 0 0 0zM-74.6 118.6s0-.1 0 0c0-.1 0 0 0 0zm0 0zM-74.5 118.6s-.1 0 0 0c-.1 0-.1 0 0 0z"/><path d="M-45.7 84.5h-17.6V98c0 1.4.6 2.6 1.4 2.9l6.8 4.3c.1.2.4.3.6.3.2 0 .4-.1.5-.2l6.9-4.4c.8-.4 1.4-1.6 1.4-2.9V84.5zm-.5 13.6c-.1 1-.4 1.9-1.1 2.3l-6.6 4.2c-.1.1-.3.2-.5.2s-.4-.1-.5-.2l-6.6-4.2c-.7-.5-1-1.3-1.1-2.3V85H-46l-.2 13.1z"/><path d="M-52.2 104.1l.2-.1c-.1 0-.1.1-.2.1zM-65.5 122.5l-1.7.2v-.1c.3-.1.4-.1.4-.2s-.2-.4-.3-.5l-1.2.1c-.1.3-.2.5-.2.6 0 .2.3.1.4.1v.1l-1 .1v-.1c.3-.1.3-.2.4-.6l.9-2.5h.1l1.4 2.1c.3.4.4.6.6.5l.2.2zm-1.6-.8l-.6-1-.4 1.1 1-.1z"/><path d="M-36.3 116.2c-.3-.8-.9-1.3-1.7-1.6-.8-.2-1.7-.1-2.2.6-.9.7-.3 2-.2 3 0 .2 0 .4-.2.5-3.7-.3-7.1-1.2-10.7-1.6-.8-.1-1.7-.1-2.5-.3l-1-.1c-3.2.1-6.3.3-9.3 1-.6.2-1.3.2-2 .5-.5-.1-.8.2-1.3.1l-.8.2h-.3c-.4-1 .8-1.7.4-2.7-.3-.6-1-1.1-1.7-1-.9-.1-1.6.4-2 1-.6 1.3.2 2.6.4 3.8-.1.4.4.9 0 1.2-.8-.6-1.9-.9-2.9-.6-.3.2-.9-.1-1 .3 1.1.6 2.5.5 3.7.5.2-.1.3-.1.4 0 .1.7-.1 1.6.3 2.1.5.6 1.2.8 1.9.8 2.3-.1 4.4-.8 6.5-1.3.3 0 .6-.2.9-.2 1.1-.3 2.4-.5 3.6-.5-.5.7-.8 1.5-1.1 2.3-.3.7.5.8.8 1.2-.8.2-1.3.8-2.1 1.1-1.6-.1-3 .6-4.5.7 0 .3.5.2.6.6-.1.2-.3.3-.5.4 0 .2 0 .2.2.2.2-.2.5-.1.6-.2.5 0 .9-.2 1.4-.2.4-.2.9-.2 1.3-.5.5-.2.9-.5 1.4-.7.8 0 1.4-.3 2.1-.3v.2c-.6.9-1.2 1.9-1.8 2.8-.1.2 0 .4.2.4.4.1.7 0 1-.2.5-.9 1-1.8 1.4-2.7.2-.9.8-1.3 1.4-1.9.1-.1.2-.2.4-.1-.5.6-.8 1.2-1.2 1.8-.2.7-.3 1.6.4 2.2.3.3.8.2 1.2.2 1-.5 2.2.3 3-.7.5-.1.5.5.8.7.4.1.9.6 1.3.2 0-.3-.3-.5-.5-.8-.3-.5-.7-1-1-1.5-.1-.4-.4-.6-.4-.9.5.2.9.5 1.4.5.4.2 1 .2 1.4.4.3.4.8.7 1.3 1 .6.3 1.3.4 2 .6.2 0 .6.2.8 0-.1-.1-.2-.2-.4-.3-.1-.3.5-.2.6-.4-.1-.1-.2-.2-.3-.2-.4-.2-1.3-.3-1.5-.4l-.9-.3c-1.5 0-2.4-1.4-3.6-1.9.3-.3.7-.5.9-.8.2-.4.3-.9.1-1.3-.2-.8-1.2-.7-1.8-1.1l.1-.1c1-.1 1.8.2 2.7.4 2.4.3 4.7 1.2 7.2 1.3 1.4 0 3.1.1 3.8-1.3.1-.8.3-1.6.4-2.4.4-1.1 1.2-2.3 1.1-3.7zm-27.3 11.6l-.4-.3c.2-.2.6-.1.8-.3.7-.2 1.4-.5 2.1-.3-.6.6-1.6.7-2.5.9zm15.8-.4c.6.3 1.8.5 2.7.6-.1.3-.7 0-.6.5-.8-.3-1.7-.5-2.3-1.1h.2zm-23.7-10.8c.1-.5.2-.9.6-1.3.6-.3 1.4-.2 2 .1.2.1.3.2.4.5.1.4-.1.9-.4 1.2h-.2c0-.4 0-.8.2-1.2 0-.3-.3-.3-.5-.5-.4-.1-.8.1-1.1.3-.2.3-.5.7-.3 1.1.2.3 0 .7.1 1l-.1.1c-.4-.4-.8-.7-.7-1.3zm1.2.7c.4.3.9.2 1.4.2.1.3.1.6-.1.9-.4-.1-1-.1-1.2-.5-.1-.1-.2-.4-.1-.6zm-.1-.9c.1-.2 0-.5.3-.6.2-.1.5-.1.5.2 0 .3-.1.6-.1.9-.4.1-.6-.2-.7-.5zm11.8 8.2c-.1-.9.2-1.7.8-2.3.4-.1.8-.2 1.1.1-.7.2-1.5.3-1.6 1.2 0 .3-.1.5.1.8.3.5.9.3 1.3.7 0 .1-.1.3-.2.3-.5-.3-1.1-.5-1.5-.8zm-.9 1.8c.6-.3 1.2-.8 1.9-.6-.4.4-1.2.5-1.9.6zm2.4.2l-1.2 2.4c-.1.1-.3.2-.4.2 0-.4.4-.6.5-.9.5-.7.7-1.4 1.3-2.1.1.1-.2.2-.2.4zm.7-1.4v.1h-.1l.1-.1c0-.1-.1-.1 0 0zm-.3-.7l-1.2-.3c-.2-.3 0-.5 0-.8.4-.6 1.4-.8 1.8-.3 0 .5-.2 1-.6 1.4zm.6 0c.1-.3.2-.8.4-1.1 0 .3-.2.8-.4 1.1zm.3-2.1c-.3-.1-.5-.5-.9-.5.3-.1.6-.1 1 0 .1.2-.1.4-.1.5zm.3.8v-.3.3zm0 1.1c0-.1.1-.2.1-.4.1-.1.2.1.3.2-.1.2-.3.3-.4.2zm.4-1.5c.1-.4.1-.7.4-.9.2 0 .5 0 .7.1.1.5.7 1.2 0 1.6-.2.1-.6.3-.8.1-.4-.3-.5-.6-.3-.9zm1.8-.8c-.1-.2.2-.1.3-.2l.8.1c-.4 0-.9.9-1.1.1zm1.3.4c-.3.1-.5.5-.8.5.1-.3.5-.5.8-.5zm-1.1 1.6zm.1 1.5c0 .1 0 .1-.1.2l-.6-.5c.3 0 .5.1.7.3zm-.7-.8c.1-.1.2-.1.2 0h-.2zm-.4-.4c.1-.2.2-.4.4-.4 0 0 0 .1.1.1-.2.2-.3.3-.5.3zm-.6 0h-.1l.2-.2c.1.1 0 .1-.1.2zm.1.9c.3-.4.6.2.8.5.4.6 1.4 1.1 1 1.8-.5.4-1.2 0-1.8.4-.3 0-.8.1-.9-.2.3-.8.5-1.7.9-2.5zm-.7.5l.1-.2c-.2.6-.5 1.2-.8 1.8-.1-.5.5-1 .7-1.6zm1.1 3.1c-.5 0-1.2.3-1.7-.1 0-.2-.2-.3-.2-.5.4-.2.8.3 1.1 0 .6 0 1.2-.1 1.8.1.3.1.7-.5.8.1-.2.7-1.2.1-1.8.4zm1.5-3.7zm.1 1.6c0 .3.3.4.1.6 0-.1-.1-.3-.1-.6zm.8 1.5l-.1.1c-.1-.1-.1-.4-.1-.5.1.1.2.3.2.4zm1.2.6c0 .1-.2.1-.2 0-.8-1-1.1-2-1.6-3.1h.1c.6 1.1 1.1 2.2 1.7 3.1zm1-2.3c-.1 0-.1.1-.1.1-.7 0-1.2-.4-1.8-.8v-.1c.7 0 1.2.5 1.9.8zm-.7-3.4c.3.1.3.4.4.7 0 .6-.3 1-.9 1.2-.3.2-.7.2-1 .1.6 0 1.3-.2 1.5-.9v-1.1zm-.6-.1c.1.4.4.7.2 1.1-.2.5-.8.5-1.2.6-.2 0-.4-.1-.6-.2 0-.1 0-.2-.1-.2.1-.3-.6-.7-.1-.9.5-.4 1.4-1.3 1.8-.4zm12.9-1.8c-.2.2 0 .7-.3.9 0 .5-.4.7-.7.9-3 .7-6-.4-8.9-.9-4.1-.9-8.8-1.1-13-.2-1.9.4-3.8.8-5.7 1.3-1.2.2-2.4.3-3.5 0-.9-.4-.5-1.6-.8-2.4.1-.6-.2-1.1-.2-1.8-.1-.2-.1-.5-.1-.7.4.1.8.3 1.2.4 2.1.4 4-.3 6-.6 1.9-.4 3.8-.7 5.8-.9 2.3 0 4.6-.2 6.8.2.7 0 1.3.2 2 .2 1.4.2 2.7.6 4.2.7.2.1.5.1.8.1 2.3.4 4.8 1 7 0-.1 1-.5 1.9-.6 2.8zm-.7-3.1c0 .4-.4.3-.6.5h-.6c-.1-.2-.1-.5-.1-.7.4 0 .9 0 1.3.2zm-.3-.7c.3-.3-.1-1.9.7-.8 0 .2 0 .5-.2.7-.1 0-.3.2-.5.1zm2-.2c-.2.5-.6.8-1.1.9 0-.6.6-1 .4-1.7-.3-.5-1-.6-1.6-.5-.2.2-.1.4-.2.6l-.1.8c-.5 0-.5-.5-.7-.8 0-.5.3-1.1.8-1.3.4-.2 1.1-.2 1.5.1.3.1.7.2.8.5.4.3.3.9.2 1.4z"/><g><path d="M1.5 96.5h-3.7l-.4 1c-.1.3-.2.6-.2.9 0 .3.1.5.4.7.1.1.5.1 1 .2v.3H-5v-.3c.4-.1.7-.2.9-.5.2-.3.5-.8.9-1.6l3.8-8.5h.1l3.8 8.7c.4.8.7 1.3.9 1.6.2.2.4.3.8.3v.3H1.1v-.3h.2c.4 0 .7-.1.9-.2.1-.1.2-.2.2-.4v-.3s-.1-.2-.2-.6l-.7-1.3zm-.3-.6l-1.6-3.6-1.6 3.6h3.2zM13.9 92.2v5.7c0 .6.1.9.2 1 .1.1.3.2.6.3v.3h-3v-1c-.3.4-.7.7-1 .9-.3.2-.7.3-1.2.3-.4 0-.8-.1-1.1-.4s-.5-.5-.6-.9c-.1-.3-.2-.9-.2-1.8v-2.9c0-.6-.1-.9-.2-1-.1-.1-.3-.2-.6-.3v-.3h3v5c0 .5 0 .9.1 1 0 .2.1.3.2.3.1.1.2.1.4.1s.4 0 .5-.1c.2-.1.5-.4.8-.8v-3.9c0-.6-.1-.9-.2-1-.1-.1-.3-.2-.6-.3v-.3h2.9zM20.2 92l.1 2.5H20c-.3-.7-.6-1.2-1-1.5-.3-.3-.7-.4-1-.4-.2 0-.4.1-.5.2-.2.1-.2.3-.2.5 0 .1.1.3.2.4.2.2.6.6 1.4 1.1.8.5 1.3 1 1.5 1.3.2.4.4.8.4 1.2 0 .4-.1.8-.3 1.2s-.5.7-.9.9c-.4.2-.8.3-1.2.3-.3 0-.8-.1-1.4-.3-.2-.1-.3-.1-.3-.1-.2 0-.3.1-.4.4H16l-.1-2.6h.3c.2.7.6 1.2 1 1.5.4.3.8.5 1.2.5.2 0 .5-.1.6-.2.2-.2.2-.3.2-.6 0-.2-.1-.5-.2-.6-.2-.2-.5-.5-1-.8-.8-.6-1.3-1-1.5-1.3-.3-.4-.5-.9-.5-1.4 0-.6.2-1.1.6-1.5.4-.5.9-.7 1.7-.7.4 0 .8.1 1.1.3.1.1.3.1.3.1.1 0 .2 0 .2-.1.1 0 .1-.1.3-.3zM24.6 89.5v2.7h1.7v.8h-1.7v4.5c0 .4 0 .7.1.8 0 .1.1.2.2.3.1.1.2.1.3.1.3 0 .7-.3 1-.8l.2.2c-.4 1-1.1 1.5-2.1 1.5-.5 0-.9-.1-1.2-.4s-.5-.5-.6-.9c-.1-.2-.1-.7-.1-1.4V93h-1v-.3c.7-.5 1.2-1 1.7-1.5s.9-1.1 1.2-1.7h.3zM30 92.2v1.7c.5-.8.9-1.3 1.3-1.5.4-.2.7-.4 1.1-.4.3 0 .5.1.7.3.2.2.3.4.3.8 0 .3-.1.6-.3.8-.2.2-.4.3-.6.3-.3 0-.5-.1-.7-.3-.2-.2-.3-.3-.4-.3h-.2c-.2 0-.3.1-.4.2-.2.2-.4.4-.5.8-.2.5-.2 1.1-.2 1.7v2.1c0 .3 0 .5.1.6l.3.3c.1.1.3.1.6.1v.3H27v-.3c.3 0 .5-.1.6-.3.1-.1.2-.5.2-1.2v-4c0-.4 0-.7-.1-.8-.1-.1-.1-.3-.2-.3-.1-.1-.3-.1-.5-.1v-.3h3zM38 98.4c-.9.8-1.7 1.2-2.4 1.2-.4 0-.8-.1-1-.4-.3-.3-.4-.6-.4-1 0-.6.2-1.1.7-1.5.5-.4 1.5-1 3.1-1.8v-.7c0-.6 0-.9-.1-1-.1-.1-.2-.3-.3-.4-.2-.1-.4-.2-.6-.2-.3 0-.6.1-.8.2-.1.1-.2.2-.2.3 0 .1.1.2.2.4.2.2.3.4.3.6 0 .3-.1.5-.3.7-.2.2-.4.3-.7.3-.3 0-.6-.1-.8-.3-.2-.2-.3-.4-.3-.7 0-.4.1-.7.4-1.1.3-.3.7-.6 1.2-.8.5-.2 1.1-.3 1.7-.3.7 0 1.2.1 1.6.4.4.3.7.6.8 1 .1.2.1.7.1 1.5v3.4c0 .1.1.1.1.2.1 0 .1.1.2.1s.3-.1.4-.3l.2.2c-.3.4-.5.7-.8.8-.3.2-.6.3-.9.3-.4 0-.7-.1-1-.3s-.4-.4-.4-.8zm0-.6v-2.4c-.6.4-1.1.8-1.4 1.2-.2.3-.3.6-.3.9 0 .2.1.5.3.6.1.1.3.2.5.2s.5-.2.9-.5zM44.7 88.9V98c0 .5.1.8.2 1 .1.1.4.2.7.2v.3h-3.9v-.3c.3 0 .6-.1.7-.3.1-.1.2-.4.2-1v-7.6c0-.5-.1-.8-.2-1-.1-.1-.4-.2-.7-.2v-.3h3zM49 92.2V98c0 .5.1.8.2 1 .1.1.4.2.7.2v.3H46v-.3c.3 0 .6-.1.7-.3.1-.1.2-.4.2-1v-4.3c0-.5-.1-.8-.2-1-.1-.1-.4-.2-.7-.2v-.3h3zm-1.1-3.6c.3 0 .6.1.9.4.2.2.4.5.4.9 0 .3-.1.6-.4.9-.2.2-.5.4-.9.4-.3 0-.6-.1-.9-.4s-.4-.5-.4-.9c0-.3.1-.6.4-.9.3-.2.6-.4.9-.4zM54.5 98.4c-.9.8-1.7 1.2-2.4 1.2-.4 0-.8-.1-1-.4-.3-.3-.4-.6-.4-1 0-.6.2-1.1.7-1.5.5-.4 1.5-1 3.1-1.8v-.7c0-.6 0-.9-.1-1-.1-.1-.2-.3-.3-.4-.2-.1-.4-.2-.6-.2-.3 0-.6.1-.8.2-.1.1-.2.2-.2.3 0 .1.1.2.2.4.2.2.3.4.3.6 0 .3-.1.5-.3.7-.2.2-.4.3-.7.3-.3 0-.6-.1-.8-.3-.2-.2-.3-.4-.3-.7 0-.4.1-.7.4-1.1.3-.3.7-.6 1.2-.8.5-.2 1.1-.3 1.7-.3.7 0 1.2.1 1.6.4.4.3.7.6.8 1 .1.2.1.7.1 1.5v3.4c0 .1.1.1.1.2.1 0 .1.1.2.1s.3-.1.4-.3l.2.2c-.3.4-.5.7-.8.8-.3.2-.6.3-.9.3-.4 0-.7-.1-1-.3s-.3-.4-.4-.8zm0-.6v-2.4c-.6.4-1.1.8-1.4 1.2-.2.3-.3.6-.3.9 0 .2.1.5.3.6.1.1.3.2.5.2.3 0 .6-.2.9-.5zM61.4 92.2v.9c.4-.4.7-.7 1.1-.9.3-.2.7-.3 1.1-.3.5 0 .9.1 1.2.4.3.3.5.6.6 1 .1.3.1.9.1 1.7v2.8c0 .6.1.9.2 1.1.1.1.3.2.6.3v.3h-3.7v-.3c.3 0 .5-.2.6-.3.1-.1.1-.5.1-1v-3.2c0-.6 0-1-.1-1.1s-.1-.3-.2-.4c-.1-.1-.2-.1-.4-.1-.4 0-.9.3-1.2 1V98c0 .5.1.9.2 1 .1.1.3.2.6.3v.3h-3.7v-.3c.3 0 .5-.1.7-.3.1-.1.1-.5.1-1v-4.1c0-.6-.1-.9-.2-1-.1-.1-.3-.2-.6-.3v-.3h2.9zM81.5 88.7v3.7h-.3c-.3-1-.9-1.8-1.6-2.3-.7-.5-1.5-.8-2.3-.8-.8 0-1.5.2-2 .7-.5.4-.9 1.1-1.1 1.9s-.2 1.5-.2 2.3c0 1 .1 1.9.4 2.7.2.8.6 1.3 1.2 1.7.5.4 1.2.5 1.9.5.3 0 .5 0 .8-.1.3-.1.5-.1.8-.2v-2.2c0-.4 0-.7-.1-.8-.1-.1-.2-.2-.4-.3-.2-.1-.4-.1-.7-.1h-.3V95h5.1v.3c-.4 0-.7.1-.8.2-.2.1-.3.2-.4.4 0 .1-.1.3-.1.7v2.2c-.7.3-1.4.5-2.1.7-.7.2-1.5.2-2.3.2-1 0-1.8-.1-2.5-.4s-1.2-.6-1.8-1.1-.9-.9-1.2-1.5c-.4-.7-.5-1.5-.5-2.4 0-1.6.6-2.9 1.7-4s2.5-1.6 4.2-1.6c.5 0 1 0 1.4.1.2 0 .6.2 1.1.4.5.2.8.3.9.3.1 0 .3-.1.4-.2.1-.1.2-.3.3-.6h.5zM86.8 92c.6 0 1.2.2 1.8.5s1 .8 1.2 1.4c.3.6.4 1.3.4 2 0 1-.3 1.9-.8 2.6-.6.8-1.5 1.3-2.6 1.3s-1.9-.4-2.5-1.2c-.6-.8-.9-1.7-.9-2.7 0-1 .3-2 .9-2.7.6-.8 1.5-1.2 2.5-1.2zm.1.5c-.3 0-.5.1-.7.3-.2.2-.3.6-.4 1.2-.1.6-.1 1.4-.1 2.5 0 .6 0 1.1.1 1.6.1.4.2.7.4.8.2.2.4.3.6.3.2 0 .4-.1.6-.2.2-.2.3-.4.4-.7.1-.5.2-1.5.2-3 0-.9 0-1.5-.1-1.8-.1-.3-.2-.6-.4-.7-.2-.2-.4-.3-.6-.3zM94.6 99.7L92.1 94c-.3-.7-.5-1.1-.7-1.3-.1-.1-.3-.2-.5-.3v-.3h3.9v.3c-.2 0-.4 0-.5.1-.1.1-.2.2-.2.4s.1.6.3 1.1l1.2 2.7 1-2.4c.3-.7.4-1.2.4-1.4 0-.2-.1-.3-.2-.4s-.3-.2-.6-.2V92h2.4v.3c-.2 0-.4.1-.6.3-.1.1-.4.6-.7 1.2l-2.4 5.7h-.3zM105.3 95.6h-4c0 1 .3 1.7.8 2.3.4.4.8.6 1.3.6.3 0 .6-.1.9-.3.3-.2.5-.5.8-.9l.3.2c-.4.8-.8 1.4-1.3 1.7-.5.3-1 .5-1.7.5-1.1 0-1.9-.4-2.5-1.2-.4-.7-.7-1.5-.7-2.5 0-1.2.3-2.2 1-2.9.7-.7 1.4-1.1 2.3-1.1.7 0 1.4.3 1.9.9.6.6.9 1.5.9 2.7zm-1.9-.6c0-.8 0-1.4-.1-1.7-.1-.3-.2-.5-.4-.7-.1-.1-.3-.1-.4-.1-.3 0-.5.1-.7.4-.3.5-.5 1.1-.5 1.9v.2h2.1zM109.2 92.2v1.7c.5-.8.9-1.3 1.3-1.5.4-.2.7-.4 1.1-.4.3 0 .5.1.7.3s.3.4.3.8c0 .3-.1.6-.3.8-.2.2-.4.3-.6.3-.3 0-.5-.1-.7-.3-.2-.2-.3-.3-.4-.3h-.2c-.2 0-.3.1-.4.2-.2.2-.4.4-.5.8-.2.5-.2 1.1-.2 1.7v2.1c0 .3 0 .5.1.6l.3.3c.1.1.3.1.6.1v.3h-3.9v-.3c.3 0 .5-.1.6-.3s.2-.5.2-1.2v-4c0-.4 0-.7-.1-.8-.1-.1-.1-.3-.2-.3-.1-.1-.3-.1-.5-.1v-.3h2.8zM116.1 92.2v.9c.4-.4.7-.7 1.1-.9.3-.2.7-.3 1.1-.3.5 0 .9.1 1.2.4.3.3.5.6.6 1 .1.3.1.9.1 1.7v2.8c0 .6.1.9.2 1.1.1.1.3.2.6.3v.3h-3.7v-.3c.3 0 .5-.2.6-.3.1-.1.1-.5.1-1v-3.2c0-.6 0-1-.1-1.1s-.1-.3-.2-.4-.2-.1-.4-.1c-.4 0-.9.3-1.2 1V98c0 .5.1.9.2 1 .1.1.3.2.6.3v.3h-3.7v-.3c.3 0 .5-.1.7-.3.1-.1.1-.5.1-1v-4.1c0-.6-.1-.9-.2-1-.1-.1-.3-.2-.6-.3v-.3h2.9zM125 92.2v1c.4-.4.8-.7 1.1-.9.3-.2.7-.3 1.1-.3.5 0 .9.1 1.2.3s.6.6.7 1c.4-.5.8-.8 1.2-1 .4-.2.8-.3 1.2-.3.5 0 .9.1 1.2.3.3.2.5.5.6.9.1.4.2.9.2 1.7v3c0 .6.1.9.2 1 .1.1.3.2.6.3v.3h-3.8v-.3c.3 0 .5-.1.7-.3.1-.1.1-.5.1-1v-3.1c0-.7 0-1.1-.1-1.2-.1-.2-.1-.3-.2-.4s-.2-.1-.4-.1-.5.1-.7.2-.5.4-.7.7v3.9c0 .5 0 .9.1 1 .1.2.3.3.7.3v.3h-3.8v-.3c.2 0 .4-.1.5-.2.1-.1.2-.2.2-.3 0-.1.1-.4.1-.8v-3.1c0-.7 0-1.1-.1-1.2-.1-.2-.1-.3-.3-.4s-.3-.1-.4-.1c-.2 0-.4.1-.6.2-.2.2-.5.4-.8.8V98c0 .5.1.9.2 1s.3.3.6.3v.3H122v-.3c.3 0 .5-.1.7-.3.1-.1.1-.5.1-1v-4.1c0-.6-.1-.9-.2-1-.1-.1-.3-.2-.6-.3v-.3h3zM141.3 95.6h-4c0 1 .3 1.7.8 2.3.4.4.8.6 1.3.6.3 0 .6-.1.9-.3.3-.2.5-.5.8-.9l.3.2c-.4.8-.8 1.4-1.3 1.7s-1 .5-1.7.5c-1.1 0-1.9-.4-2.5-1.2-.4-.7-.7-1.5-.7-2.5 0-1.2.3-2.2 1-2.9.7-.7 1.4-1.1 2.3-1.1.7 0 1.4.3 1.9.9.6.6.9 1.5.9 2.7zm-1.9-.6c0-.8 0-1.4-.1-1.7s-.2-.5-.4-.7c-.1-.1-.3-.1-.4-.1-.3 0-.5.1-.7.4-.3.5-.5 1.1-.5 1.9v.2h2.1zM145.1 92.2v.9c.4-.4.7-.7 1.1-.9.3-.2.7-.3 1.1-.3.5 0 .9.1 1.2.4.3.3.5.6.6 1 .1.3.1.9.1 1.7v2.8c0 .6.1.9.2 1.1.1.1.3.2.6.3v.3h-3.7v-.3c.3 0 .5-.2.6-.3.1-.1.1-.5.1-1v-3.2c0-.6 0-1-.1-1.1s-.1-.3-.2-.4-.2-.1-.4-.1c-.4 0-.9.3-1.2 1V98c0 .5.1.9.2 1 .1.1.3.2.6.3v.3h-3.7v-.3c.3 0 .5-.1.7-.3.1-.1.1-.5.1-1v-4.1c0-.6-.1-.9-.2-1-.1-.1-.3-.2-.6-.3v-.3h2.9zM153.8 89.5v2.7h1.7v.8h-1.7v4.5c0 .4 0 .7.1.8 0 .1.1.2.2.3.1.1.2.1.3.1.3 0 .7-.3 1-.8l.2.2c-.4 1-1.1 1.5-2.1 1.5-.5 0-.9-.1-1.2-.4s-.5-.5-.6-.9c-.1-.2-.1-.7-.1-1.4V93h-1v-.3c.7-.5 1.2-1 1.7-1.5s.9-1.1 1.2-1.7h.3z"/></g><g><path d="M-6 126.8v-.3h.4c.3 0 .5 0 .7-.1s.3-.2.4-.4c0-.1.1-.4.1-1v-7c0-.5 0-.9-.1-1-.1-.1-.2-.3-.3-.4-.2-.1-.4-.2-.7-.2H-6v-.3h4.7c1.3 0 2.3.2 3.1.5.9.4 1.7 1.1 2.1 1.9.5.9.7 1.8.7 2.9 0 .7-.1 1.4-.4 2.1-.2.6-.5 1.1-.9 1.6-.4.4-.8.7-1.3 1-.5.2-1.1.4-1.8.6-.3.1-.8.1-1.5.1H-6zm4.1-10v8.3c0 .4 0 .7.1.8 0 .1.1.2.2.2.1.1.3.1.6.1.9 0 1.5-.3 2-.9.6-.8.9-2 .9-3.7 0-1.4-.2-2.4-.6-3.3-.3-.6-.8-1.1-1.3-1.3-.4-.2-1.1-.2-1.9-.2zM12 122.8H8c0 1 .3 1.7.8 2.3.4.4.8.6 1.3.6.3 0 .6-.1.9-.3.3-.2.5-.5.8-.9l.3.2c-.4.8-.8 1.4-1.3 1.7-.5.3-1 .5-1.7.5-1.1 0-1.9-.4-2.5-1.2-.4-.7-.7-1.5-.7-2.5 0-1.2.3-2.2 1-2.9.7-.7 1.4-1.1 2.3-1.1.7 0 1.4.3 1.9.9.6.7.8 1.6.9 2.7zm-1.9-.5c0-.8 0-1.4-.1-1.7-.1-.3-.2-.5-.4-.7-.1-.1-.3-.1-.4-.1-.3 0-.5.1-.7.4-.3.5-.5 1.1-.5 1.9v.3h2.1zM15.6 126v2.7c0 .4 0 .6.1.8l.3.3c.1.1.4.1.7.1v.3h-4.2v-.3c.3 0 .6-.1.7-.3.1-.1.2-.4.2-.9V121c0-.5-.1-.8-.2-1-.1-.1-.4-.2-.7-.2v-.3h3.1v1c.3-.4.5-.6.8-.8.4-.2.8-.4 1.2-.4.5 0 1 .2 1.5.5.4.3.8.8 1 1.4.2.6.3 1.2.3 1.9s-.1 1.4-.4 2c-.2.6-.6 1.1-1 1.4-.5.3-1 .5-1.5.5-.4 0-.8-.1-1.1-.3-.2-.1-.5-.4-.8-.7zm0-.8c.4.6.9 1 1.4 1 .3 0 .5-.1.7-.4.3-.4.4-1.3.4-2.5 0-1.3-.1-2.1-.4-2.6-.2-.3-.5-.5-.8-.5-.5 0-1 .4-1.3 1.1v3.9zM25.6 125.7c-.9.8-1.7 1.2-2.4 1.2-.4 0-.8-.1-1-.4-.3-.3-.4-.6-.4-1 0-.6.2-1.1.7-1.5.5-.4 1.5-1 3.1-1.8v-.7c0-.6 0-.9-.1-1-.1-.1-.2-.3-.3-.4-.2-.1-.4-.2-.6-.2-.3 0-.6.1-.8.2-.1.1-.2.2-.2.3 0 .1.1.2.2.4.2.2.3.4.3.6 0 .3-.1.5-.3.7-.2.2-.4.3-.7.3-.3 0-.6-.1-.8-.3-.2-.2-.3-.4-.3-.7 0-.4.1-.7.4-1.1s.7-.6 1.2-.8 1.1-.3 1.7-.3c.7 0 1.2.1 1.6.4.4.3.7.6.8 1 .1.2.1.7.1 1.5v3.4c0 .1.1.1.1.2.1 0 .1.1.2.1s.3-.1.4-.3l.2.2c-.3.4-.5.7-.8.8-.3.2-.6.3-.9.3-.4 0-.7-.1-1-.3s-.3-.4-.4-.8zm0-.6v-2.4c-.6.4-1.1.8-1.4 1.2-.2.3-.3.6-.3.9 0 .2.1.5.3.6.1.1.3.2.5.2.3-.1.6-.2.9-.5zM32.5 119.5v1.7c.5-.8.9-1.3 1.3-1.5.4-.2.7-.4 1.1-.4.3 0 .5.1.7.3.2.2.3.4.3.8 0 .3-.1.6-.3.8-.2.2-.4.3-.6.3-.3 0-.5-.1-.7-.3s-.3-.3-.4-.3h-.2c-.2 0-.3.1-.4.2-.2.2-.4.4-.5.8-.2.5-.2 1.1-.2 1.7v2.1c0 .3 0 .5.1.6l.3.3c.1.1.3.1.6.1v.3h-3.9v-.3c.3 0 .5-.1.6-.3.1-.1.2-.5.2-1.2v-4c0-.4 0-.7-.1-.8-.1-.1-.1-.3-.2-.3-.1-.1-.3-.1-.5-.1v-.3h2.8zM39.4 116.8v2.7h1.7v.8h-1.7v4.5c0 .4 0 .7.1.8s.1.2.2.3c.1.1.2.1.3.1.3 0 .7-.3 1-.8l.2.2c-.4 1-1.1 1.5-2.1 1.5-.5 0-.9-.1-1.2-.4s-.5-.5-.6-.9c-.1-.2-.1-.7-.1-1.4v-3.9h-1v-.3c.7-.5 1.2-1 1.7-1.5s.9-1.1 1.2-1.7h.3zM44.7 119.5v1c.4-.4.8-.7 1.1-.9.3-.2.7-.3 1.1-.3.5 0 .9.1 1.2.3.3.2.6.6.7 1 .4-.5.8-.8 1.2-1s.8-.3 1.2-.3c.5 0 .9.1 1.2.3.3.2.5.5.6.9s.2.9.2 1.7v3c0 .6.1.9.2 1s.3.2.6.3v.3h-3.8v-.3c.3 0 .5-.1.7-.3.1-.1.1-.5.1-1V122c0-.7 0-1.1-.1-1.2-.1-.2-.1-.3-.2-.4-.1-.1-.2-.1-.4-.1s-.5.1-.7.2c-.2.2-.5.4-.7.7v3.9c0 .5 0 .9.1 1 .1.2.3.3.7.3v.3H46v-.3c.2 0 .4-.1.5-.2s.2-.2.2-.3.1-.4.1-.8V122c0-.7 0-1.1-.1-1.2-.1-.2-.1-.3-.3-.4-.1-.1-.3-.1-.4-.1-.2 0-.4.1-.6.2-.2.2-.5.4-.8.8v3.9c0 .5.1.9.2 1s.3.3.6.3v.3h-3.8v-.3c.3 0 .5-.1.7-.3.1-.1.1-.5.1-1V121c0-.6-.1-.9-.2-1s-.3-.2-.6-.3v-.3h3.1zM61.1 122.8h-4c0 1 .3 1.7.8 2.3.4.4.8.6 1.3.6.3 0 .6-.1.9-.3.3-.2.5-.5.8-.9l.3.2c-.4.8-.8 1.4-1.3 1.7-.5.3-1 .5-1.7.5-1.1 0-1.9-.4-2.5-1.2-.4-.7-.7-1.5-.7-2.5 0-1.2.3-2.2 1-2.9.7-.7 1.4-1.1 2.3-1.1.7 0 1.4.3 1.9.9.5.7.8 1.6.9 2.7zm-2-.5c0-.8 0-1.4-.1-1.7-.1-.3-.2-.5-.4-.7-.1-.1-.3-.1-.4-.1-.3 0-.5.1-.7.4-.3.5-.5 1.1-.5 1.9v.3h2.1zM64.9 119.5v.9c.4-.4.7-.7 1.1-.9s.7-.3 1.1-.3c.5 0 .9.1 1.2.4s.5.6.6 1c.1.3.1.9.1 1.7v2.8c0 .6.1.9.2 1.1s.3.2.6.3v.3h-3.7v-.3c.3 0 .5-.2.6-.3.1-.1.1-.5.1-1V122c0-.6 0-1-.1-1.1s-.1-.3-.2-.4c-.1-.1-.2-.1-.4-.1-.4 0-.9.3-1.2 1v3.9c0 .5.1.9.2 1s.3.2.6.3v.3H62v-.3c.3 0 .5-.1.7-.3.1-.1.1-.5.1-1V121c0-.6-.1-.9-.2-1s-.3-.2-.6-.3v-.3h2.9zM73.6 116.8v2.7h1.7v.8h-1.7v4.5c0 .4 0 .7.1.8s.1.2.2.3c.1.1.2.1.3.1.3 0 .7-.3 1-.8l.2.2c-.4 1-1.1 1.5-2.1 1.5-.5 0-.9-.1-1.2-.4s-.5-.5-.6-.9c-.1-.2-.1-.7-.1-1.4v-3.9h-1v-.3c.7-.5 1.2-1 1.7-1.5s.9-1.1 1.2-1.7h.3zM83.2 119.2c.6 0 1.2.2 1.8.5s1 .8 1.2 1.4c.3.6.4 1.3.4 2 0 1-.3 1.9-.8 2.6-.6.8-1.5 1.3-2.6 1.3s-1.9-.4-2.5-1.2-.9-1.7-.9-2.7c0-1 .3-2 .9-2.7.6-.8 1.5-1.2 2.5-1.2zm0 .6c-.3 0-.5.1-.7.3-.2.2-.3.6-.4 1.2-.1.6-.1 1.4-.1 2.5 0 .6 0 1.1.1 1.6.1.4.2.7.4.8s.4.3.6.3c.2 0 .4-.1.6-.2.2-.2.3-.4.4-.7.1-.5.2-1.5.2-3 0-.9 0-1.5-.1-1.8-.1-.3-.2-.6-.4-.7-.2-.3-.3-.3-.6-.3zM90.9 120.2v5.1c0 .5.1.8.2.9.2.2.5.3.9.3v.3h-4.3v-.3c.3 0 .6 0 .7-.1l.3-.3c.1-.1.1-.4.1-.8v-5.1h-1.1v-.8h1.1v-.9c0-.8.3-1.4.8-1.9s1.3-.8 2.2-.8c.6 0 1.1.1 1.4.4.3.2.5.5.5.8 0 .2-.1.4-.3.6-.2.2-.4.3-.8.3-.3 0-.5-.1-.6-.2-.2-.1-.2-.3-.2-.5v-.3-.2c0-.1 0-.2-.1-.2-.1-.1-.2-.1-.3-.1-.2 0-.3.1-.4.2s-.2.3-.2.6v2.3h1.1v.8h-1zM106.9 115.9v3.7h-.3c-.2-1-.7-1.7-1.3-2.2s-1.3-.8-2.1-.8c-.7 0-1.3.2-1.8.6-.6.4-1 .9-1.2 1.5-.3.8-.5 1.7-.5 2.6 0 .9.1 1.8.4 2.6.2.8.6 1.4 1.1 1.8.5.4 1.2.6 2 .6.7 0 1.3-.1 1.8-.4s1.1-.8 1.8-1.5v.9c-.6.6-1.2 1.1-1.9 1.3-.6.3-1.4.4-2.3.4-1.1 0-2.1-.2-3-.7-.9-.5-1.6-1.1-2-2s-.7-1.8-.7-2.7c0-1 .3-2 .8-2.9.5-.9 1.2-1.6 2.1-2.1s1.9-.8 2.9-.8c.7 0 1.5.2 2.4.5.5.2.8.3.9.3.2 0 .3-.1.4-.2.1-.1.2-.3.2-.6h.3zM111.6 119.2c.6 0 1.2.2 1.8.5s1 .8 1.2 1.4.4 1.3.4 2c0 1-.3 1.9-.8 2.6-.6.8-1.5 1.3-2.6 1.3s-1.9-.4-2.5-1.2-.9-1.7-.9-2.7c0-1 .3-2 .9-2.7s1.5-1.2 2.5-1.2zm.1.6c-.3 0-.5.1-.7.3s-.3.6-.4 1.2-.1 1.4-.1 2.5c0 .6 0 1.1.1 1.6.1.4.2.7.4.8s.4.3.6.3c.2 0 .4-.1.6-.2.2-.2.3-.4.4-.7.1-.5.2-1.5.2-3 0-.9 0-1.5-.1-1.8s-.2-.6-.4-.7c-.2-.3-.4-.3-.6-.3zM119.1 119.5v1c.4-.4.8-.7 1.1-.9s.7-.3 1.1-.3c.5 0 .9.1 1.2.3s.6.6.7 1c.4-.5.8-.8 1.2-1s.8-.3 1.2-.3c.5 0 .9.1 1.2.3s.5.5.6.9.2.9.2 1.7v3c0 .6.1.9.2 1s.3.2.6.3v.3h-3.8v-.3c.3 0 .5-.1.7-.3.1-.1.1-.5.1-1V122c0-.7 0-1.1-.1-1.2s-.1-.3-.2-.4-.2-.1-.4-.1-.5.1-.7.2-.5.4-.7.7v3.9c0 .5 0 .9.1 1 .1.2.3.3.7.3v.3h-3.8v-.3c.2 0 .4-.1.5-.2s.2-.2.2-.3.1-.4.1-.8V122c0-.7 0-1.1-.1-1.2s-.1-.3-.3-.4-.3-.1-.4-.1c-.2 0-.4.1-.6.2-.2.2-.5.4-.8.8v3.9c0 .5.1.9.2 1s.3.3.6.3v.3h-3.8v-.3c.3 0 .5-.1.7-.3.1-.1.1-.5.1-1V121c0-.6-.1-.9-.2-1s-.3-.2-.6-.3v-.3h3.2zM132.3 119.5v1c.4-.4.8-.7 1.1-.9s.7-.3 1.1-.3c.5 0 .9.1 1.2.3s.6.6.7 1c.4-.5.8-.8 1.2-1s.8-.3 1.2-.3c.5 0 .9.1 1.2.3s.5.5.6.9.2.9.2 1.7v3c0 .6.1.9.2 1s.3.2.6.3v.3h-3.8v-.3c.3 0 .5-.1.7-.3.1-.1.1-.5.1-1V122c0-.7 0-1.1-.1-1.2s-.1-.3-.2-.4-.2-.1-.4-.1-.5.1-.7.2-.5.4-.7.7v3.9c0 .5 0 .9.1 1 .1.2.3.3.7.3v.3h-3.8v-.3c.2 0 .4-.1.5-.2s.2-.2.2-.3.1-.4.1-.8V122c0-.7 0-1.1-.1-1.2s-.1-.3-.3-.4-.3-.1-.4-.1c-.2 0-.4.1-.6.2-.2.2-.5.4-.8.8v3.9c0 .5.1.9.2 1s.3.3.6.3v.3h-3.8v-.3c.3 0 .5-.1.7-.3.1-.1.1-.5.1-1V121c0-.6-.1-.9-.2-1s-.3-.2-.6-.3v-.3h3.2zM149.6 119.5v5.7c0 .6.1.9.2 1s.3.2.6.3v.3h-3v-1c-.3.4-.7.7-1 .9-.3.2-.7.3-1.2.3-.4 0-.8-.1-1.1-.4-.3-.3-.5-.5-.6-.9s-.2-.9-.2-1.8V121c0-.6-.1-.9-.2-1s-.3-.2-.6-.3v-.3h3v5c0 .5 0 .9.1 1s.1.3.2.3.2.1.4.1.4 0 .5-.1c.2-.1.5-.4.8-.8V121c0-.6-.1-.9-.2-1s-.3-.2-.6-.3v-.3h2.9zM154.3 119.5v.9c.4-.4.7-.7 1.1-.9s.7-.3 1.1-.3c.5 0 .9.1 1.2.4s.5.6.6 1c.1.3.1.9.1 1.7v2.8c0 .6.1.9.2 1.1s.3.2.6.3v.3h-3.7v-.3c.3 0 .5-.2.6-.3.1-.1.1-.5.1-1V122c0-.6 0-1-.1-1.1s-.1-.3-.2-.4-.2-.1-.4-.1c-.4 0-.9.3-1.2 1v3.9c0 .5.1.9.2 1s.3.2.6.3v.3h-3.7v-.3c.3 0 .5-.1.7-.3.1-.1.1-.5.1-1V121c0-.6-.1-.9-.2-1s-.3-.2-.6-.3v-.3h2.9zM162.9 119.5v5.8c0 .5.1.8.2 1s.4.2.7.2v.3h-3.9v-.3c.3 0 .6-.1.7-.3.1-.1.2-.4.2-1V121c0-.5-.1-.8-.2-1s-.4-.2-.7-.2v-.3h3zm-1.1-3.6c.3 0 .6.1.9.4s.4.5.4.9-.1.6-.4.9-.5.4-.9.4-.6-.1-.9-.4-.4-.5-.4-.9.1-.6.4-.9.6-.4.9-.4zM170.4 124.9l.2.2c-.3.6-.8 1.1-1.3 1.4-.5.3-1.1.5-1.6.5-1 0-1.8-.4-2.3-1.1s-.9-1.6-.9-2.6.3-1.9.8-2.6c.6-.9 1.5-1.4 2.6-1.4.8 0 1.4.2 1.8.6s.7.8.7 1.3c0 .3-.1.5-.3.7s-.4.3-.7.3c-.3 0-.6-.1-.8-.3s-.3-.6-.4-1.1c0-.3-.1-.6-.2-.7s-.3-.2-.4-.2c-.2 0-.5.1-.6.4-.3.4-.4 1-.4 1.8 0 .7.1 1.3.3 2s.5 1.1.9 1.4c.3.2.6.3 1 .3.3 0 .5-.1.7-.2s.6-.4.9-.7zM175.4 125.7c-.9.8-1.7 1.2-2.4 1.2-.4 0-.8-.1-1-.4s-.4-.6-.4-1c0-.6.2-1.1.7-1.5s1.5-1 3.1-1.8v-.7c0-.6 0-.9-.1-1s-.2-.3-.3-.4-.4-.2-.6-.2c-.3 0-.6.1-.8.2-.1.1-.2.2-.2.3 0 .1.1.2.2.4.2.2.3.4.3.6 0 .3-.1.5-.3.7s-.4.3-.7.3c-.3 0-.6-.1-.8-.3s-.3-.4-.3-.7c0-.4.1-.7.4-1.1s.7-.6 1.2-.8 1.1-.3 1.7-.3c.7 0 1.2.1 1.6.4s.7.6.8 1c.1.2.1.7.1 1.5v3.4c0 .1.1.1.1.2s.1.1.2.1.3-.1.4-.3l.2.2c-.3.4-.5.7-.8.8-.3.2-.6.3-.9.3-.4 0-.7-.1-1-.3s-.3-.4-.4-.8zm0-.6v-2.4c-.6.4-1.1.8-1.4 1.2-.2.3-.3.6-.3.9 0 .2.1.5.3.6.1.1.3.2.5.2.3-.1.6-.2.9-.5zM182.2 116.8v2.7h1.7v.8h-1.7v4.5c0 .4 0 .7.1.8s.1.2.2.3.2.1.3.1c.3 0 .7-.3 1-.8l.2.2c-.4 1-1.1 1.5-2.1 1.5-.5 0-.9-.1-1.2-.4s-.5-.5-.6-.9c-.1-.2-.1-.7-.1-1.4v-3.9h-1v-.3c.7-.5 1.2-1 1.7-1.5s.9-1.1 1.2-1.7h.3zM187.4 119.5v5.8c0 .5.1.8.2 1s.4.2.7.2v.3h-3.9v-.3c.3 0 .6-.1.7-.3.1-.1.2-.4.2-1V121c0-.5-.1-.8-.2-1s-.4-.2-.7-.2v-.3h3zm-1.1-3.6c.3 0 .6.1.9.4s.4.5.4.9-.1.6-.4.9-.5.4-.9.4-.6-.1-.9-.4-.4-.5-.4-.9.1-.6.4-.9.5-.4.9-.4zM192.3 119.2c.6 0 1.2.2 1.8.5s1 .8 1.2 1.4.4 1.3.4 2c0 1-.3 1.9-.8 2.6-.6.8-1.5 1.3-2.6 1.3s-1.9-.4-2.5-1.2-.9-1.7-.9-2.7c0-1 .3-2 .9-2.7s1.4-1.2 2.5-1.2zm0 .6c-.3 0-.5.1-.7.3s-.3.6-.4 1.2-.1 1.4-.1 2.5c0 .6 0 1.1.1 1.6.1.4.2.7.4.8s.4.3.6.3c.2 0 .4-.1.6-.2.2-.2.3-.4.4-.7.1-.5.2-1.5.2-3 0-.9 0-1.5-.1-1.8s-.2-.6-.4-.7c-.2-.3-.4-.3-.6-.3zM199.7 119.5v.9c.4-.4.7-.7 1.1-.9s.7-.3 1.1-.3c.5 0 .9.1 1.2.4s.5.6.6 1c.1.3.1.9.1 1.7v2.8c0 .6.1.9.2 1.1s.3.2.6.3v.3h-3.7v-.3c.3 0 .5-.2.6-.3.1-.1.1-.5.1-1V122c0-.6 0-1-.1-1.1s-.1-.3-.2-.4-.2-.1-.4-.1c-.4 0-.9.3-1.2 1v3.9c0 .5.1.9.2 1s.3.2.6.3v.3h-3.7v-.3c.3 0 .5-.1.7-.3.1-.1.1-.5.1-1V121c0-.6-.1-.9-.2-1s-.3-.2-.6-.3v-.3h2.9zM210.1 119.2l.1 2.5h-.2c-.3-.7-.6-1.2-1-1.5s-.7-.4-1-.4c-.2 0-.4.1-.5.2s-.2.3-.2.5c0 .1.1.3.2.4.2.2.6.6 1.4 1.1s1.3 1 1.5 1.3.4.8.4 1.2c0 .4-.1.8-.3 1.2s-.5.7-.9.9-.8.3-1.2.3c-.3 0-.8-.1-1.4-.3-.2-.1-.3-.1-.3-.1-.2 0-.3.1-.4.4h-.3l-.1-2.6h.3c.2.7.6 1.2 1 1.5s.8.5 1.2.5c.2 0 .5-.1.6-.2s.2-.3.2-.6c0-.2-.1-.5-.2-.6s-.5-.5-1-.8c-.8-.6-1.3-1-1.5-1.3-.3-.4-.5-.9-.5-1.4 0-.6.2-1.1.6-1.5s.9-.7 1.7-.7c.4 0 .8.1 1.1.3.1.1.3.1.3.1.1 0 .2 0 .2-.1s.1-.1.3-.3h-.1zM219.6 125.7c-.9.8-1.7 1.2-2.4 1.2-.4 0-.8-.1-1-.4s-.4-.6-.4-1c0-.6.2-1.1.7-1.5s1.5-1 3.1-1.8v-.7c0-.6 0-.9-.1-1s-.2-.3-.3-.4-.4-.2-.6-.2c-.3 0-.6.1-.8.2-.1.1-.2.2-.2.3 0 .1.1.2.2.4.2.2.3.4.3.6 0 .3-.1.5-.3.7s-.4.3-.7.3c-.3 0-.6-.1-.8-.3s-.3-.4-.3-.7c0-.4.1-.7.4-1.1s.7-.6 1.2-.8 1.1-.3 1.7-.3c.7 0 1.2.1 1.6.4s.7.6.8 1c.1.2.1.7.1 1.5v3.4c0 .1.1.1.1.2s.1.1.2.1.3-.1.4-.3l.2.2c-.3.4-.5.7-.8.8-.3.2-.6.3-.9.3-.4 0-.7-.1-1-.3s-.4-.4-.4-.8zm0-.6v-2.4c-.6.4-1.1.8-1.4 1.2-.2.3-.3.6-.3.9 0 .2.1.5.3.6.1.1.3.2.5.2.2-.1.5-.2.9-.5zM226.4 119.5v.9c.4-.4.7-.7 1.1-.9s.7-.3 1.1-.3c.5 0 .9.1 1.2.4s.5.6.6 1c.1.3.1.9.1 1.7v2.8c0 .6.1.9.2 1.1s.3.2.6.3v.3h-3.7v-.3c.3 0 .5-.2.6-.3.1-.1.1-.5.1-1V122c0-.6 0-1-.1-1.1s-.1-.3-.2-.4-.2-.1-.4-.1c-.4 0-.9.3-1.2 1v3.9c0 .5.1.9.2 1s.3.2.6.3v.3h-3.7v-.3c.3 0 .5-.1.7-.3.1-.1.1-.5.1-1V121c0-.6-.1-.9-.2-1s-.3-.2-.6-.3v-.3h2.9zM239.3 116.2v9.4c0 .2.1.3.2.4s.3.1.6.2v.3l-3.1.6v-1.2c-.4.4-.7.8-1 .9s-.6.2-1 .2c-.9 0-1.7-.4-2.2-1.2-.4-.7-.7-1.5-.7-2.5 0-.8.1-1.5.4-2.1s.6-1.1 1.1-1.4 1-.5 1.5-.5c.3 0 .7.1.9.2s.6.4.9.7V118c0-.6 0-.9-.1-1-.1-.2-.2-.3-.3-.3s-.4-.1-.7-.1v-.3h3.5zm-2.2 4.9c-.4-.7-.9-1.1-1.4-1.1-.2 0-.4.1-.5.2-.2.2-.4.4-.5.9s-.2 1-.2 1.9c0 .9.1 1.6.2 2s.3.8.6 1c.1.1.3.1.5.1.5 0 .9-.4 1.3-1.1v-3.9zM247.8 116.8v2.7h1.7v.8h-1.7v4.5c0 .4 0 .7.1.8s.1.2.2.3.2.1.3.1c.3 0 .7-.3 1-.8l.2.2c-.4 1-1.1 1.5-2.1 1.5-.5 0-.9-.1-1.2-.4s-.5-.5-.6-.9c-.1-.2-.1-.7-.1-1.4v-3.9h-1v-.3c.7-.5 1.2-1 1.7-1.5s.9-1.1 1.2-1.7h.3zM253.1 116.2v4.2c.4-.4.8-.7 1.1-.9s.7-.3 1-.3c.5 0 .9.1 1.2.4s.5.6.6.9.2.9.2 1.8v2.9c0 .6.1.9.2 1s.3.2.6.3v.3h-3.7v-.3c.3 0 .5-.1.6-.3.1-.1.1-.5.1-1v-3.3c0-.6 0-1-.1-1.1s-.1-.3-.2-.4-.2-.1-.4-.1-.4.1-.6.2-.4.4-.6.8v3.9c0 .5 0 .8.1 1 .1.2.3.3.6.3v.3h-3.7v-.3c.3 0 .5-.1.7-.3.1-.1.1-.5.1-1v-7.4c0-.6-.1-.9-.2-1s-.3-.2-.6-.3v-.3h3zM265.1 122.8h-4c0 1 .3 1.7.8 2.3.4.4.8.6 1.3.6.3 0 .6-.1.9-.3s.5-.5.8-.9l.3.2c-.4.8-.8 1.4-1.3 1.7s-1 .5-1.7.5c-1.1 0-1.9-.4-2.5-1.2-.4-.7-.7-1.5-.7-2.5 0-1.2.3-2.2 1-2.9s1.4-1.1 2.3-1.1c.7 0 1.4.3 1.9.9s.8 1.6.9 2.7zm-2-.5c0-.8 0-1.4-.1-1.7s-.2-.5-.4-.7c-.1-.1-.3-.1-.4-.1-.3 0-.5.1-.7.4-.3.5-.5 1.1-.5 1.9v.3h2.1zM275.9 123.7h-3.7l-.4 1c-.1.3-.2.6-.2.9 0 .3.1.5.4.7.1.1.5.1 1 .2v.3h-3.5v-.3c.4-.1.7-.2.9-.5s.5-.8.9-1.6l3.8-8.5h.1l3.8 8.7c.4.8.7 1.3.9 1.6.2.2.4.3.8.3v.3h-5.1v-.3h.2c.4 0 .7-.1.9-.2.1-.1.2-.2.2-.4v-.3s-.1-.2-.2-.6l-.8-1.3zm-.3-.5l-1.6-3.6-1.6 3.6h3.2zM284.2 119.5v1.7c.5-.8.9-1.3 1.3-1.5s.7-.4 1.1-.4c.3 0 .5.1.7.3s.3.4.3.8c0 .3-.1.6-.3.8s-.4.3-.6.3c-.3 0-.5-.1-.7-.3s-.3-.3-.4-.3h-.2c-.2 0-.3.1-.4.2-.2.2-.4.4-.5.8-.2.5-.2 1.1-.2 1.7v2.1c0 .3 0 .5.1.6l.3.3c.1.1.3.1.6.1v.3h-3.9v-.3c.3 0 .5-.1.6-.3s.2-.5.2-1.2v-4c0-.4 0-.7-.1-.8-.1-.1-.1-.3-.2-.3s-.3-.1-.5-.1v-.3h2.8zM291.1 116.8v2.7h1.7v.8h-1.7v4.5c0 .4 0 .7.1.8s.1.2.2.3.2.1.3.1c.3 0 .7-.3 1-.8l.2.2c-.4 1-1.1 1.5-2.1 1.5-.5 0-.9-.1-1.2-.4s-.5-.5-.6-.9c-.1-.2-.1-.7-.1-1.4v-3.9h-1v-.3c.7-.5 1.2-1 1.7-1.5s.9-1.1 1.2-1.7h.3zM298 119.2l.1 2.5h-.3c-.3-.7-.6-1.2-1-1.5s-.7-.4-1-.4c-.2 0-.4.1-.5.2s-.2.3-.2.5c0 .1.1.3.2.4.2.2.6.6 1.4 1.1s1.3 1 1.5 1.3.4.8.4 1.2c0 .4-.1.8-.3 1.2s-.5.7-.9.9-.8.3-1.2.3c-.3 0-.8-.1-1.4-.3-.2-.1-.3-.1-.3-.1-.2 0-.3.1-.4.4h-.3l-.1-2.6h.3c.2.7.6 1.2 1 1.5s.8.5 1.2.5c.2 0 .5-.1.6-.2s.2-.3.2-.6c0-.2-.1-.5-.2-.6s-.5-.5-1-.8c-.8-.6-1.3-1-1.5-1.3-.3-.4-.5-.9-.5-1.4 0-.6.2-1.1.6-1.5s.9-.7 1.7-.7c.4 0 .8.1 1.1.3.1.1.3.1.3.1.1 0 .2 0 .2-.1s.1-.1.3-.3z"/></g></svg>