<svg id="Layer_1" xmlns="http://www.w3.org/2000/svg" viewBox="160 -60 400 200"><style>.st0{fill:none;stroke:#000}.st1{font-family:&amp;apos;ArialMT&amp;apos;}.st2{font-size:12px}</style><path class="st0" d="M553 7.7v64.8"/><path d="M187.4 32.1c-2.5 0-4.7-.9-6.4-2.6-2.4-2.4-2.3-5.1-2.3-9.7 0-4.7 0-7.4 2.3-9.7 1.7-1.7 3.8-2.6 6.4-2.6 4.5 0 7.8 2.6 8.6 7.5h-3.7c-.6-2.5-2.2-4.2-4.9-4.2-1.4 0-2.7.5-3.6 1.5-1.2 1.3-1.5 2.7-1.5 7.6s.3 6.3 1.5 7.6c.9.9 2.1 1.5 3.6 1.5 2.7 0 4.4-1.7 4.9-4.2h3.7c-.7 4.7-4.2 7.3-8.6 7.3M237 11h-5.4v7.6h5.4c2.5 0 4.1-1.4 4.1-3.8S239.4 11 237 11m4.2 20.9l-5.1-10.2h-4.6v10.2h-3.7V7.7h9.4c4.6 0 7.5 3 7.5 7.1 0 3.5-2.1 5.7-4.8 6.4l5.6 10.7h-4.3zM283.1 7.7h3.7v24.2h-3.7zM340.8 31.9V15.7l-5.6 11.8h-2.7l-5.7-11.8v16.2h-3.7V7.7h3.7l7.1 15.1 6.9-15.1h3.7v24.2zM383.8 11v20.9h-3.7V11h-6.7V7.7h17.1V11zM432.4 11H427v7.6h5.4c2.5 0 4.1-1.4 4.1-3.8s-1.7-3.8-4.1-3.8m4.2 20.9l-5.1-10.2h-4.6v10.2h-3.6V7.7h9.4c4.6 0 7.5 3 7.5 7.1 0 3.5-2.1 5.7-4.8 6.4l5.6 10.7h-4.4zM479.4 13.2L475.6 24h7.5l-3.7-10.8zm6.4 18.7l-1.7-4.9h-9.6l-1.7 4.9h-3.9l8.9-24.2h3l8.9 24.2h-3.9zM529.4 32.1c-2.5 0-4.7-.9-6.4-2.6-2.4-2.4-2.3-5.1-2.3-9.7 0-4.7 0-7.4 2.3-9.7 1.7-1.7 3.8-2.6 6.4-2.6 4.5 0 7.8 2.6 8.6 7.5h-3.7c-.6-2.5-2.2-4.2-4.9-4.2-1.4 0-2.7.5-3.6 1.5-1.2 1.3-1.5 2.7-1.5 7.6s.3 6.3 1.5 7.6c.8.9 2.1 1.5 3.6 1.5 2.7 0 4.4-1.7 4.9-4.2h3.7c-.7 4.7-4.2 7.3-8.6 7.3"/><text transform="translate(553.033 29.47)" class="st1 st2"></text><path class="st0" d="M504.4 7.7v64.8M455.7 7.7v64.8M407 7.7v64.8M358.3 7.7v64.8M309.7 7.7v64.8M261 7.7v64.8M212.2 7.7v64.8M163.6 7.7v64.8"/></svg>