<svg id="Layer_1" xmlns="http://www.w3.org/2000/svg" viewBox="-99 0 400 200"><style>.st0{fill:none;stroke:#000;stroke-width:.5;stroke-miterlimit:10}.st1{enable-background:new}</style><path class="st0" d="M38.9 108.4h214.9"/><path d="M-24.1 118c-.1.1-.1.2-.2.2M-22.1 103c.2 0 .4-.2.4-.4s-.2-.4-.4-.4-.4.2-.4.4.1.4.4.4zM-3.5 86H-18v11.7c0 1.1.5 2.1 1.1 2.4l5.6 3.3c.1.1.3.2.5.2s.3-.1.5-.2l5.7-3.4c.7-.3 1.1-1.3 1.1-2.4V86zm-9.7 3.4h-1.3v-3h1.3v3zm-.9 1l.2-.2-.1-.2h.2l.1-.2.1.2h.2l-.1.2.2.2h-.2v.2l-.2-.2-.2.2v-.2h-.2zm-3.5 3.8v-2.8h1.5v2.8h-1.5zm.3-4.2h.2l.1-.2.1.2h.2l-.1.2.2.2h-.2v.2l-.2-.2-.2.2v-.2h-.2l.2-.2-.1-.2zm1.7 2.9h.2l.1-.2.1.2h.2l-.1.2.2.2h-.2v.2l-.2-.2-.2.2v-.2h-.2l.2-.2-.1-.2zm1-2.3c0-.1-.1-.1-.2-.1s-.2.2-.3.2-.1 0-.1-.1.2-.1.2-.2c-.9 0-1 .4-1.1.4-.2 0 .2-.5.3-.6-.2 0-.3-.3-.5-.4.1-.1.2-.1.3 0 0-.1.1-.2.3-.2.4 0 .3.4.4.4.1 0 0-.4.3-.4.4 0 .9 1.1.5 1.1-.3.1-.1 0-.1-.1zm-1.1-3.1l.2-.2-.1-.2h.2l.1-.2.1.2h.2l-.1.2.2.2h-.2v.2l-.2-.2-.2.2v-.2h-.2zm-.4-1.1v3h-1.5v-3h1.5zm2.9 15.5l-3.5-2.1c-.6-.4-.9-1.1-.9-1.9v-3.3h4.4v7.3zm-1.2-7.7v-2.8h1.3v2.8h-1.3zm5.7 7.9l-1.6 1c-.1.1-.3.1-.4.1s-.3-.1-.4-.2l-1.6-1v-7.5h4.1l-.1 7.6zm0-7.9h-4.1v-7.8h4.1v7.8zm4.8 3.6c-.1.8-.4 1.5-.9 1.9l-3.5 2.1v-7.3h4.4v3.3zm0-3.6h-4.4v-7.8h4.4v7.8z"/><path d="M-13.4 97.2c0-.1-.5.2-.4.2 0-.2.3-.5.4-.6 0-.2-.3 0-.5.1.8-1.2.3-.7-.2-.6.7-.8.5-.8 0-.5.4-.3.5-.7.5-.9-.4.5-.8.4-.8.9 0 .3-.1.9-.3 1-.2.2-.1-.9-.6-.9-.2 0-.6 0-.7.2.1 0 .3.3.3.4 0 .1.1.4-.1.4s-.4-.4-.4-.6v-.4c0-.5-.8-1.1-1.1-1.1 0 .3.4.4.4.8-.2 0-.4-.3-.4-.1s.3.2.3.4-.3-.1-.3.1.2.1.2.3h-.3c0 .1 0 .1.1.2 0 0-.1.1-.1.4 0 .9.6 1.4 1 1.4.3 0 .3-.2.3-.3 0 .2.2-.1.2.2 0 .3-.3.2-.3.4 0 .3.5 0 .5.4s-.1.4-.1.6c0 .1.5-.2.5-.2.1 0 .1.4.3.4.1 0 .2-.4.3-.4-.1 0 .4.3.4.2 0-.4-.2-.2-.2-.5s.6-.2.5-.4c-.1-.1-.1 0-.2-.2 0 0-.5-.7.1-.3.6.4.7-.9.7-1zM2 100.3c.3 0 .5-.2.5-.4s-.2-.4-.5-.4-.5.2-.5.4c.1.2.3.4.5.4zM.1 101.4c.3 0 .5-.2.5-.4s-.2-.4-.5-.4-.5.2-.5.4.3.4.5.4zM-22.8 104.1c.3 0 .5-.2.5-.4s-.2-.4-.5-.4-.5.2-.5.4.2.4.5.4zM-21.3 104.2c.3 0 .5-.2.5-.4s-.2-.4-.5-.4-.5.2-.5.4.2.4.5.4zM19.9 84.2c.7.8.9 2.2.4 3.2-.3 0-.2-.4-.3-.6-.5-.9-.9-2.1-.5-3.2.4 0 .2.5.4.6zM-40.6 85.4c-.2.6-.2 1.5 0 2-.1.1-.1-.1-.2-.1-1-.7-.5-2.1-.8-3.1.1-.1.2-.1.2-.1.5.3.7.8.8 1.3zM22.1 85.5c.1.3-.1.6-.3.7-.2.1-.5-.1-.6-.3-.1-.3.1-.5.3-.7.2 0 .4 0 .6.3zM-42.1 86.6c-.1.2-.1.5-.3.6-.2 0-.4 0-.5-.1-.2-.1-.2-.4-.1-.5.1-.2.3-.2.5-.2.1-.1.3 0 .4.2zM23.1 87c.1.2.1.3 0 .4-.2.2-.4.3-.7.2-.2-.1-.2-.3-.3-.4.1-.2.2-.4.4-.5.3 0 .4.2.6.3zM21.6 87c.2.1.1.4 0 .5-.1.1-.3.3-.5.3-.1-.1-.3-.1-.3-.3 0-.3.1-.5.4-.6.2 0 .3 0 .4.1zM19.8 87.4c0 .3 0 .6-.3.7-.3.1-.5-.2-.6-.4 0-.3.1-.5.4-.6.2 0 .4.2.5.3zM-39.4 87.5c.1.3-.2.4-.3.5-.2.1-.4-.1-.5-.3-.2-.2.1-.3.1-.5.3-.1.6.1.7.3zM-40.9 87.6c0 .2-.1.4-.3.5-.2.1-.4-.1-.5-.2-.1-.2 0-.5.2-.6.3-.1.5.1.6.3zM13.7 87.7c.2.5.5 1.2.5 1.8-.1.5.1 1.1-.3 1.5-.4-.1-.4-.6-.6-.8-.5-.9-.1-1.9.1-2.8.2-.1.2.2.3.3zM-42.1 88c.1.3-.1.5-.3.6-.3.1-.5-.2-.6-.4 0-.2.1-.5.3-.6.3.1.5.2.6.4zM17.7 88.8c.3.7.4 1.6.1 2.4l-.2.1c-.4-.7-.9-1.3-1-2.1 0-.5.1-1 .3-1.5.2-.1.3 0 .4.2 0 .4.1.7.4.9zM20.9 88.3c0 .3-.1.5-.4.6-.2.1-.5 0-.6-.3s.1-.5.3-.6c.3-.2.5.1.7.3zM-40.8 89.1c0 .2-.2.4-.4.5-.2.2-.4-.1-.5-.2-.1-.2-.1-.4 0-.6s.2-.2.4-.2c.2.1.4.2.5.5zM-39.7 89c.1.2-.2.4-.3.5-.3.1-.5-.1-.6-.3-.1-.3.1-.4.3-.6.3-.1.4.1.6.4zM21.6 88.9c0 .3-.5.7-.6 1-.3.7-.9 1.2-1.6 1.4-.1.1-.4.3-.6.3-.1-.5.4-1 .7-1.4.6-.7 1.3-1.1 2.1-1.3zM-41.3 90c.4.4.6.8 1 1.2 0 .1-.1.3-.2.3-1.2-.1-2.1-1.3-2.7-2.2.1-.3.4-.1.6-.1.4.2.9.3 1.3.8zM21.9 90.3c-.1 1.1-.6 2.2-1.6 2.7-.3.1-.6.4-.9.2.5-1.1 1.3-2 2.2-3h.3v.1zM17.1 91c.1.4-.1.6-.4.7-.3 0-.5-.2-.6-.4 0-.2.1-.5.4-.6.1-.1.2-.1.3-.1.1.2.1.3.3.4zM-42.7 91.3c.5.3.9.8 1.4 1.2-.3.2-.7 0-1.1 0-.9-.3-1.4-1-2.3-1.3 0-.3.4-.2.5-.3.5 0 .9.2 1.5.4z"/><path d="M-15.7 83.7c-1.4-.6-2.4.9-3.8.7-.2.1-.1.3-.2.4-.1.1-.2 0-.3 0-.1-.6-.3-1.2-.4-1.8-.1-.2-.1-.6-.2-.9-.8-2.2 2-.5 2.5-1.8.5-1.1-.9-1.2-1.4-2V78c-.4-.4-.8-.5-1.1-1.1.2-.6.2-1.3.1-2 0-.2-.1-.4-.4-.3-.5.7-.8 1.2-1.3 1.8-.5-.4-.9-.8-1.5-1.1-.4-.1-.7-.4-1.2-.3-.1.2 0 .3.1.4 0 1 .5 1.8 1.2 2.5l.1.4c-.5 1-.3 2.2-.5 3.4-1.1 2.9-3 5.7-5.5 7.7-1.4 1.6-3.2 3.2-3.4 5.4-.1.4.1.8-.2 1-.8-.3-1.7-.7-2.4-1.2-1.2-.8-2.8-.7-3.6-2.2-.3-.6.1-1.2.4-1.6.9-.8.7-2.3.3-3.3-.1 0-.1.1-.2.1-.1 1.5-1.3 2.5-.8 4.2.1.5.4.8.5 1.2-.2-.1-.4-.1-.6-.1-.6-.1-1.1-.3-1.7-.2-1.2.5-2.8-.1-3.7.9-.2 0-.4.1-.3.3.6 0 1.1.2 1.6.1.9.2 1.5-.6 2.1-.9h.2c.2-.3.7-.1 1-.2 1.6.2 2.8.9 4.1 1.7v.1c-.5.2-1.1.4-1.6.7-.6.4-1.2 1-1.4 1.7-.4.6.1 1.2.4 1.7 0 .3.1.6.3.7.8-.9.1-1.9.2-2.9.2-.8.9-1.1 1.6-1.3 1.4-.6 2.5.6 3.6 1.2 0 1.2.1 2.3-.1 3.4-.4.1-.8.2-1.2.2-2 .2-3.6 1.2-5.4 1.9-.8.3-1.8.3-2.6.6.6.2 1.3-.1 1.9-.1 2.5-.4 4.4-2.3 7-1.9l.1.1c-.3.6-.7 1.2-1.2 1.7-.1-.3-.1-.5-.4-.7-.2-.1-.4 0-.6.2-.1.1-.1.3 0 .4.1.2.3.3.5.4-.1.2-.3.3-.5.5-.7 1.2-2.2.7-3 1.6-.1.2-.6.3-.4.6 1 .1 1.9-.2 2.6-.7.9-1 1.9-2 2.9-3 .2.8-.1 1.7-.6 2.3-.2-.1-.4-.3-.7-.4-.3.1-.4.3-.5.5.1.2.2.4.4.5-.9.6-1.9.7-2.9.9-1.8.2-3.6.4-5.5.4-.9-.1-1.9.3-2.7 0-1 .2-2-.1-2.8.4-.1.1 0 .3 0 .4 1.2.8 2.8.2 4.1.4h10c.7 0 1.5-.1 2.1-.4 1.3-.7 2-2.1 2.7-3.4.2-.5.4-1 .5-1.5.2-.9 1-1.5 1.9-1.6.1 1.3-.1 2.6-.4 3.9-.2.8-.7 1.6-.4 2.5.1.4.5.4.8.5 3.1-.1 6.1-.2 9.3.1.6.1 1.1.3 1.7.3.1-.1.2-.1.2-.3-.1-.3-.3-.6-.6-.7-.1-.2-.3-.1-.4-.2-1.6-.9-3.6-.4-5.5-.4-1 .1-2 .3-2.8-.3-.4-.5-.1-1.9-.1-1.9 0-.6 1.4-4.6 1.6-4.9.1-.4.2-.7.2-1.2.7-.5.7-1.1.7-1.7.1-.8.5-1.6.8-2.4.1-.4.3-.8.4-1.2.2-.5.2-.9.5-1.3.8.5 1.6.5 2 1.4l.4 2.1c0 .1.1.4.3.2.7-.4.5-1.4.5-2.1.1-.8-.4-1.2-.6-1.9-.2-.1-.5-.7-.5-.7-.1-.6-1.3-.9-1-1.6.2-.6.3-1.1.9-1.5.1.1.1.1.1.2h.2V85c.8 0 2 .1 2.9.1.2.1.4.3.7.3l.2-.3 2-.4c-.9 0-1.5-1-2.3-1zM-13.5 84.6h.2-.2z"/><path d="M-35.5 91.7c0 .3-.2.5-.4.6-.2-.1-.4-.1-.5-.3-.1-.3.2-.5.4-.6.2.1.5.1.5.3zM-37.1 91.7c.2.2.2.4.1.6-.2.2-.5.3-.6.1-.2-.2-.3-.3-.2-.5.2-.2.5-.4.7-.2zM17.3 92.4c.1.3-.1.5-.3.6-.3-.1-.6-.1-.6-.5 0-.2.2-.3.4-.4.2 0 .4.2.5.3zM18.7 92.4c.1.1.2.3.1.5-.1.1-.2.1-.2.2-.3.1-.5-.1-.6-.3-.1-.3.2-.4.4-.5 0-.1.1 0 .3.1zM-43.5 92.7c-.1.3-.4.4-.7.3-.1-.1-.2-.2-.2-.3 0-.2.1-.4.3-.4.3 0 .6.1.6.4zM-34.9 93.1c0 .2-.3.4-.4.5-.3 0-.4-.2-.6-.4 0-.2.1-.5.3-.5.3-.1.6.2.7.4zM-36.4 93c.1.1.2.3.1.4-.2.1-.4.4-.6.2-.2-.1-.3-.2-.3-.5.1-.1.2-.3.4-.3.1-.1.2.1.4.2zM22.5 93.3c0 .2-.2.4-.3.5-.2.1-.4 0-.6-.1-.1-.1-.1-.3-.1-.4.1-.2.3-.3.5-.3.3 0 .4.1.5.3zM24.2 93.5c-.1.2-.2.4-.5.5-.2 0-.4-.1-.4-.3 0-.2.1-.4.2-.4.3-.2.6-.1.7.2zM-40.6 93.8c.1.3-.1.5-.3.6-.2.1-.4 0-.5-.1-.1-.1-.2-.3-.1-.5s.3-.2.4-.3c.3.1.4.2.5.3zM-39.3 94.1c.1.2-.2.3-.2.4-.1.1-.3.2-.5.1-.2-.2-.4-.4-.2-.6.2-.4.7-.2.9.1zM21 94c0 .2-.2.4-.4.6-.2.1-.5-.1-.5-.3s.1-.4.3-.5c.3-.1.5-.1.6.2zM23.1 94.4c-.1.2 0 .5-.3.6-.2.1-.5 0-.6-.1-.1-.1-.2-.4-.1-.5.1-.2.4-.4.6-.3.2 0 .3.2.4.3zM-41.5 94.9c.1.2-.1.3-.2.4-.2.1-.4 0-.5-.1-.2-.1-.1-.4-.1-.5.2-.4.7-.1.8.2zM21.5 95.4c.1 0 .1.2 0 .2-.6.3-1.5.4-2-.1-.3-.3-.7-.4-1-.6.1-.3.6-.3.9-.4.7.2 1.3.9 2.1.9zM-40.3 95.1c.1.2-.1.3-.2.4-.1.2-.3.1-.4.1-.2-.2-.3-.4-.2-.6.3-.3.6-.1.8.1zM-38.1 95.3c.1.2-.1.4-.2.6-.2.1-.3-.1-.5-.1-.1-.2-.4-.4-.1-.6.2-.4.6-.2.8.1zM-8.9 96.4c-.1.5-.9-.1-.8.6.1.5.2 1.1.5 1.4.2.3.1.9.1 1.3-.2.4-.6.6-1 .8-.7-.1-1.8.4-2.1-.5-.1-.4-.4-.8-.4-1.2.1-.1.2-.1.2-.1 0-.2-.2-.3-.2-.4.8-.1-.3-.9.4-.9.6.6 1.5.4 2 1.1.1.1.2.2.4.3-.1-.6-.4-1.2-.5-1.9-.1-.3.1-.7.3-.8.5-.5.9 0 1.1.3zM-35.9 96.2c.1.3-.1.4-.3.5-.2.1-.4-.2-.5-.3-.1-.3.1-.4.3-.5.2.1.4.1.5.3zM-20.3 96.5c.3 1 .2 2-.3 2.9 0 .2.1.5-.2.5-.7-.9-.2-2.3.1-3.3 0-.3.4-.4.4-.1zM1.4 96.9c.4.7.4 1.7.1 2.4l-.2.2c-.3-.6-.5-1.2-.6-1.8.1-.5.3-.9.3-1.3.3-.1.3.4.4.5zM-33.9 97.2c-.2.3-.6.4-.9.6-.6.5-1.5.6-2.2.4.7-.9 1.7-1.5 2.9-1.2 0 .2.2.1.2.2zM-44.3 98.1c.9.7 1.2 1.6 1.7 2.5.1.1.3.1.2.3-.2.2-.4-.2-.7-.1-1-.4-1.6-1.5-1.5-2.6.1-.1.2-.1.3-.1zM.4 98.9c0 .3 0 .5-.2.6-.3.1-.5-.1-.6-.3-.1-.2.1-.3.1-.4.2-.2.5-.1.7.1z"/><path d="M11 100.3c0-.5.1-.9.2-1.4.1-.2.1-.3.1-.5.6-.8 1.8-.6 2.8-.5.4.2.9.2 1.3.3.2-.1.4-.2.6-.1.8-.4.3-1.4.3-2.1l-.3-.8c-.1-.2-.2-.3-.2-.5-.1-.2-.2-.5-.4-.7-.4-1.1-1.3-1.8-2-2.6-1.3-1.7-3.3-2.6-5.3-3.3s-4 .2-5.8.8c-.5-.2-.8-.6-1-1.1-.1-1 .1-1.9.5-2.7.1-.6.5-1.1.7-1.7.5-1.4.9-2.8 1-4.4.1-.9-.7-1.6-1.4-2-.5-.1-1-.1-1.4.3-.3.7-1 1.2-1.6 1.5-.1.4.5.2.7.3.6.1 1.2-.1 1.6.3.1 1-.5 1.9-1.1 2.6-.9 1.3-1.8 2.6-2.3 4l-.1-.1.1 6.2c.8 1.3 1.8 2.9 3.3 3.4.8.7 1.8 1.5 2.9.9.6-.2.6.6.9 1 .3.9-.4 1.6-.4 2.5l-.7 1.4c-.8 1.5-1.4 3.1-2.6 4.3-.4 0-.6.4-1 .4-.2.3-.6.1-.9.2-.8.3-1.9.1-2.4.9.1.1.1.1.2.1 1.5 0 3.3.1 4.9.1.2-.1.4-.3.4-.5-.2-.4.1-.8.3-1.1.1-.6.5-1 .7-1.6.5-1 1.1-2.1 1.7-3.1l.8-1.3c.2-.4.5-1 .8-1.4.2-.2.3-.4.5-.7 0-.3-.1-.4-.2-.5.2-.2.5-.1.7-.2.6.4 1.3 1 1.4 1.7l.2.7.1.3-.1.8.1.8c.1 1.2-.1 2.5-.2 3.7-.4 1.5-2.1 1.3-3.3 1.7-.3.2-.9.1-.9.6 1.5.3 3.2.1 4.7.1.2-.1.3-.3.4-.6.1-.3.4-.6.3-1-.3-.4 0-.9-.1-1.4.1-.1.1-.3 0-.5.2-.7.2-1.6.3-2.3l.2-1.2zM23.5 99.3c-.8 1.1-1.7 2.4-3.1 2.9-.1 0-.2.1-.2-.1.9-.9 1.3-2.3 2.7-2.7.1-.1.4-.2.6-.1zM-45.5 100.5c-.1.1 0 .3-.2.4-.2.1-.4 0-.5-.2-.1-.3.1-.5.3-.6.1.1.3.2.4.4zM-38.2 100.9c.1.2-.2.2-.3.3-1.1.4-2.1 0-2.9-.7 0-.1 0-.2.1-.2 1 .2 2.2 0 3.1.6zM-44.1 100.6c.1.1.1.3.1.4-.2.2-.4.3-.6.2-.2-.1-.2-.2-.3-.3 0-.3.2-.4.4-.5.1 0 .2 0 .4.2zM-20.5 100.7c.1.2-.2.4-.3.5-.2.1-.4-.1-.5-.2-.1-.2 0-.4.2-.5.2-.1.6 0 .6.2zM24.4 100.8c.1.2-.1.4-.3.5-.2.1-.3 0-.5-.1 0-.1-.2-.2-.1-.4s.3-.3.6-.3l.3.3zM26.1 100.7c.2.2 0 .4-.1.6s-.3.2-.5.2c-.2-.2-.4-.2-.4-.5 0-.2.2-.4.4-.4.3-.2.4.1.6.1zM-46.6 101.4c0 .2-.1.3-.2.4-.1.1-.2.2-.4.1s-.3-.2-.4-.4c.1-.2.2-.4.5-.5.2.1.4.2.5.4z"/><path d="M6.6 101.4c.1.1 0 .2 0 .3-.2.2-.4.4-.6.2-.2-.2-.3-.3-.2-.5.2-.2.6-.3.8 0zM-42.5 101.8c-.1.2-.1.4-.4.4s-.3-.2-.4-.3c0-.2 0-.5.2-.6.3-.1.6.2.6.5zM-44.9 101.9c.1.3-.1.4-.2.6-.3.1-.6-.1-.7-.4 0-.2.2-.5.5-.6.1 0 .2.2.4.4zM8.3 101.8c.1.2 0 .5-.3.6-.3.1-.6-.2-.7-.4.1-.2.2-.5.5-.5.2 0 .4.1.5.3zM-43.8 101.9c.1.2-.1.3-.1.4-.1 0-.2.2-.4.1-.1-.1-.3-.2-.3-.4 0-.3.2-.4.3-.5.3 0 .5.2.5.4zM23 102.1c-.1.2-.2.3-.4.4-.2.1-.3-.1-.5-.2-.1-.1-.1-.3 0-.5.2-.4.9-.2.9.3zM24.9 102.2c-.1.3-.4.4-.6.4-.2-.1-.5-.3-.3-.6.1-.1.1-.2.3-.2.3-.1.6.2.6.4zM13 102.4c.1.3-.2.4-.4.6-.2 0-.3-.1-.5-.2-.1-.3.1-.5.4-.7.2 0 .3.1.5.3zM6 102.7c.1.1.1.2.1.3-.2.1-.4.4-.6.2-.2-.1-.3-.3-.3-.5.1-.2.7-.3.8 0zM7.4 102.9c0 .2 0 .3-.2.4-.2.2-.4 0-.6-.1-.1-.1-.1-.3 0-.4.1-.1.2-.2.3-.2.2.1.4.1.5.3zM-35.5 102.9c.2.2 0 .3-.1.5s-.4.3-.6.1c-.2-.1-.2-.4-.2-.6.2-.1.2-.2.4-.2.3 0 .4.1.5.2zM15.7 103c.1.3-.2.4-.4.4-.3.1-.5-.1-.6-.3 0-.2.1-.2.2-.4.3-.1.6.1.8.3zM14.3 103c.1.3-.2.4-.3.5-.2.1-.4.1-.6-.1-.1-.1-.1-.2-.1-.4.2-.1.2-.3.4-.3.3 0 .5.1.6.3zM25.7 103.3c.1.4-.4.2-.6.3-1.1.6-2.4.2-3.4-.2.1-.3.5-.2.7-.3 1-.8 2.1.1 3.3.2zM-43.5 103l-.1.2c-.9.6-2.1.9-3.3.6l-.1-.2c1-.7 2.2-.8 3.5-.6zM18.2 103.2c0 .2-.1.4-.2.5-.2.1-.6 0-.7-.3-.1-.2.1-.4.3-.5.2 0 .5 0 .6.3zM-39 103.3c-.1.2-.1.4-.3.5-.2.1-.6-.1-.6-.3-.1-.3.1-.4.2-.5.4-.2.6.1.7.3zM-40.7 103.4c.1.2-.1.3-.1.4-.1.2-.4.1-.5.1-.2-.2-.4-.3-.3-.6.2-.1.2-.2.4-.3.2.1.4.2.5.4zM20 104c0 .2-.2.4-.4.5-.2 0-.4-.1-.5-.3-.1-.2-.1-.4.1-.5.1-.1.2-.1.3-.1.3 0 .5.2.5.4zM-42.6 103.7c.1.2-.1.3-.1.4-.1.4-.4.7-.5 1.1-.5.6-1.2.6-1.8.8l-.1-.2c.6-.9 1.4-1.7 2.5-2.1zM18.7 104.3c.1.3-.2.4-.4.5-.2 0-.4-.1-.5-.3-.1-.3.2-.4.3-.5.3-.1.6.1.6.3zM-39.7 104.3c0 .1 0 .1 0 0 .1.4-.1.5-.3.6-.2 0-.4-.1-.6-.2-.1-.2 0-.5.2-.6.3-.1.6-.1.7.2zM23.4 105c.2 0 .3-.3.6-.4.2-.1.5.1.6.3.1.3-.1.5-.3.6-.2.1-.6-.2-.5.2.2.1.3.3.4.5-.1.1-.2.1-.3 0-.7-.3-1.5-.8-1.8-1.6-.1-.2-.6-.4-.3-.6.6 0 1.2.6 1.6 1zM25.8 104.3c.1.1.1.4 0 .5-.1.3-.5.2-.7.1-.1-.1-.2-.3-.2-.5.1-.2.2-.2.4-.3.2-.1.3 0 .5.2zM16.6 105.6c.2.3.5.7.6 1-.1.1-.2.1-.2.1-.9-.5-2-1-2.3-2-.1-.1-.3-.2-.2-.4.7-.1 1.3.4 1.7.7.1.2.3.4.4.6zM-41.1 104.7c.1.2-.1.4-.2.5-.3.1-.4-.1-.6-.2-.2-.3.2-.5.4-.6.1-.1.2.1.4.3zM19.8 105.3c0 .2-.2.3-.2.4-.2 0-.4.1-.6-.1-.1-.1-.2-.3 0-.5.2-.4.6-.1.8.2zM26.1 105.6c.1.3-.2.5-.4.6-.2.1-.5-.1-.6-.2-.1-.2 0-.3 0-.5.2-.2.4-.3.7-.2l.3.3zM8.6 109.1c0 .3-.6.2-.8.5-.8.4-1.7.4-2.7.4v-.2c1-.8 2.3-1 3.5-.7zM-28.3 110.2c0 .2-.2.4-.4.4s-.4-.1-.4-.2c-.1-.3.2-.4.3-.6.3.1.5.2.5.4zM8.2 110.5c-.1.2-.1.5-.4.6-.2.1-.4-.1-.6-.2-.1-.1-.1-.3-.1-.4.2-.5.9-.5 1.1 0zM13.2 110.6c-.6.4-1.3.9-2.2.9H9.6l-.1-.1c.8-1 2.4-1 3.7-.9v.1zM-35.2 111.2c0 .2-.1.4-.3.5-.2.1-.4-.1-.5-.2-.1-.2 0-.5.2-.6.2-.2.5.1.6.3zM-33.9 111.5c.1.1-.1.2-.1.3-.1.1-.4.1-.5 0-.2-.1-.2-.3-.2-.4.1-.2.2-.1.3-.2.2 0 .4.1.5.3zM-43.6 114c-.2.3-.7-.1-.9-.2-.9-.5-.9-1.5-1.7-2.1.1-.3.3 0 .5 0 .2.1.4.2.5.3.8.5 1 1.3 1.6 2z"/><path d="M30.1 104.2c-.4-.7-1.1-1-1.9-1-.7.1-1.1.5-1.4 1-.2.6.1 1.1.5 1.4.2.1.4.1.5-.1.1-.3-.2-.3-.3-.6-.1-.4 0-.7.3-.9.2-.3.7-.1 1-.1.3.2.6.4.8.7.2.4.2.9 0 1.3-.3.6-.9 1.1-1.6 1.3-2.1.3-25.1.2-25.1.2-2.7.3-5.8-.5-8.1.9-1.1.5-1.6 1.7-1.9 2.7-.7.6-1.4 1.3-2 2l-.1-.1c.1-.6.4-1.2.5-1.8.4-.5.4-1.2.7-1.8 1-1.6 1.9-3.1 3.4-4.2.6-.8 1.7-.7 2.7-.7 1 .5 2.2.6 3.5.5.1-.1.1-.1.1-.2-.4-.3-.9-.5-1.3-.8-1-.5-2 .2-3 .1-.1-.1-.1-.1-.1-.2 1-.7 2.1-1.2 3.1-1.7.9-.5 1.8-.7 2.8-1.1.4 0 .7-.3 1.1-.1l1.3-.4c.1 0 .1.1.2.1 1.1-.4 2.6 0 3.9-.1l.2.2 1.2.3c.5.1.7.6 1.1.6.2-.4-.3-.5-.4-.7.6-.1 1.2 0 1.7.3l-.2.3c-.1.3.1.5.3.6.2.1.3-.1.4-.1.3-.2 0-.5.1-.7 1.9.3 3.7.8 5.4 1.5.5.2.9.5 1.5.5-.5-.5-1.3-.7-1.9-1-.4-.3-1-.3-1.4-.6.1-.1.2-.1.3-.2.9-.1 1.6-.7 2.2-1.4.1-.2.3-.1.3-.3-.2-.3-.6.1-.9.1-1.1.2-1.5 1.5-2.6 1.7l-3.9-.9c-.6-.1-1.3-.2-1.9-.4l-1.4-.1H7.2c0-.1-.1-.1-.1-.2.9-.2 1.7-.8 2.6-1l6.8-3.1c.7-.6 1.3-1.3 1.9-2.1 0-.2-.1-.4-.3-.5-.2-.1-.4-.1-.5.1-.3.2 0 .5 0 .8-.3.4-.8.8-1.2 1-.1 0-7 3.1-7 3.1-1 .4-2 .9-3.1 1.1l-1.5.2c-.1.3-.4.5-.6.6-.4.1-.7.3-1.2.3-3.3 1.3-6.7 2.6-9.3 5.2.2-.3.2-.7.2-1.1-.1-.4 0-.8-.3-1.1-.1-.1-.2-.5-.2-.7l-.4.2c-.2.6-.4 1.6-.2 2.2.1.5.5 1 .1 1.4-1.2 1.5-1.9 3.3-2.7 4.9-.3-.1-.5-.3-.6-.6.9-1.1 1.5-2.3 1.8-3.7.2-.1.1-.5.2-.6-.1-.4.2-.8 0-1.2.2-.5-.7-1.1-.2-1.4l-.5.2c-1.1 1.4.6 3.6-.7 4.9v.1c-.4.5-.5.9-1 1.2-.6-.2-.8-.9-1.2-1.5-.6-.5-.6-1.6-.2-2.4.2-.7-.2-1.4-.2-2l-.2-.2c-.6.8-.8 2-.4 3 .2.5.3 1.1.7 1.5.2.7.7 1.2 1.1 1.9.1.3-.2.3-.3.4-.3-.2-.2-.6-.5-.8-.8-1.8-1.9-3.2-3.2-4.7-.1-.2-.3-.4-.2-.7.5-.5.6-1.3.3-1.9-.1-.1-.2-.3-.2-.4l-.4-.3c.1.9-.5 1.7-.3 2.6v.1c-2.6-2-5.5-3.7-8.4-5.1l-.2.6c.7.2 2.7 1.4 2.7 1.4.9.3 1.7.9 2.5 1.3 3.4 1.9 5.7 5.1 7.3 8.6 0 .3.3.6.1.9-.5-.8-1.3-1.3-1.9-1.9-.2-1.2-.9-2.3-1.9-2.8-.4-.6-1.2-.6-1.8-.8l-9.2-.1c-7.5-.1-14.3.2-21.7.1-1-.1-2.3-.5-2.6-1.6-.2-.4-.2-1 0-1.4.3-.5.8-.6 1.3-.7.4.1.7.4.9.7 0 .3-.3.6-.4.9 0 .1.1.3.3.2.3-.1.6-.5.7-.8 0-.2.1-.4-.1-.6-.2-.5-.7-.9-1.2-1-.6-.1-1.3.1-1.7.6-.6.5-.6 1.4-.4 2.1.4 1.1 1.6 1.9 2.7 2.1l24.6.1c2.4.1 5.1-.3 7.5.2.9.3 1.8.9 2.1 1.9 0 .1-.1 0-.2 0-2-1.3-4.6-1.8-7.2-1.5-1-.1-1.9.3-2.8.6-.5.1-.9-.1-1.2-.4-.9-.8-2.5-.8-3.7-.5v.2c1.2-.1 2 1 3.1 1.1.2.1.5-.2.7 0-1.2.6-2.3 1.2-3.5 1.6-.4-.1-.6-.4-.9-.6-.5-.5-1.4-.3-2-.4-.2.1-.4-.1-.6 0 .2.4.7.6 1.1.8.6.3 1.4 0 1.9.4-.2.2-.4.2-.5.4-1.2.5-2.2 1.5-3.5 1.5-1.4.2-2.8-.3-3.7-1.2-.4-1-1.4-1.5-2.5-1.5-.1.1-.2.1-.2.2.6.3 1 1 1.5 1.4.4.4 1 0 1.4.5.5.3 1.1.6 1.6.7.4.2.9.3 1.3.4l-.2.1c-2.3.8-5 .8-7.5.7-.8 0-1.5-.2-2.2-.2.1.2.4.3.6.4-.2.1-.4.2-.7.2-.3.1-.7.1-1 .3-.4 0-.8.1-1.1.2-.4.5-.9.9-1.4 1.2 0 .1 0 .3.1.3.5-.2 1.1-.1 1.6-.3.8-.1 1.3-1 2-1.4.7-.6 1.7-.4 2.6-.3.5.1-.1.3.1.7.2.2.4.4.7.3.1-.1.1-.1.2-.1.2-.2.1-.4 0-.6.4-.2.8 0 1.2-.1 1 0 1.9-.2 2.9-.3.2 0 .3-.2.5 0-.1.2-.3.2-.2.5.1.2.3.3.5.4.2-.1.5-.3.4-.6-.1-.2-.2-.2-.4-.3.5-.3 1.1-.3 1.7-.6.4-.1.7-.2 1.1-.4.3 0 .6-.3.9-.2-.1.4-.3.8-.5 1.2-.4 1.3-.7 3.1 0 4.4.1 0 .1 0 .2-.1-.5-1.3-.2-2.9.2-4.2.4-2.2 2.6-2.8 4.2-3.6l.1.1c-.4 1.1-1.1 2.2-1 3.5.1.2-.1.5 0 .6.4-.2.7-.7.9-1.2.2-1.1-.5-2.6.7-3.4 2.1-.8 4-1.9 6.4-1.9.1.1.2-.1.3.1-.5.6-1.2 1.1-1.5 1.8-.8 1.1-.8 3-.4 4.4.2.8-.5 1.2-.8 1.8-.2.2-.2.6-.3.8l.5.1c.4-.5.8-1 .9-1.7.1.3.3.5.5.5.2-.3-.2-.5-.2-.8.4-.2.6.3.9.4.5.1 1 .4 1.5.4l.2-.2c-.6-.9-1.7-1-2.6-1.1-.5-.8-.5-1.9-.5-2.9.1-.5.2-1.1.5-1.6.1-.4.5-.7.7-1 .5-.4 1-.7 1.6-.9h.1v.1c-.7.5-.8 1.3-1.2 1.9-.4.6-.6 1.5-.2 2.2.2.3.1.8.4 1.1.3-.5.4-1 .5-1.6-.1-.8-.6-1.6-.1-2.4.2-.6.8-.9 1.4-1.1 1.4-.1 2.6.6 3.8 1.1.2.2.7.3.7.7 0 .7-.4 1.4-.9 1.7-.7.4-1.7.5-2.3 0-.4-.4-.5-1-.4-1.6.3-.3.7-.6 1.1-.4.3.1.5.4.8.2.1-.1.2-.3.1-.4-.3-.2-.4-.5-.8-.6-.5-.1-1.1-.1-1.4.3-.5.5-.7 1.2-.6 1.8.2.8.8 1.4 1.6 1.6 1.2.3 2.4-.1 3.1-1.1.3-.3.4-.7.6-1.1 1.2.7 2.1 2 2.6 3.4 0 .4.1.9 0 1.3l.9.1c-.1-.2 0-.4.1-.6.3-1.7 1.4-3.1 2.6-4.2.4-.3.3.3.4.5.4 1 1.3 1.7 2.2 1.9 1.1.2 2.1-.1 2.7-.9.3-.6.7-1.5.2-2.1-.4-.4-.8-.7-1.4-.7-.7 0-1.1.5-1.4.9 0 .2 0 .4.2.5.1 0 .3 0 .4-.1.1-.4.4-.6.7-.8s.6 0 .8.2c.3.2.3.6.4 1-.1.5-.4 1-.8 1.2-.7.4-1.8.2-2.4-.2-.3-.3-.5-.7-.7-1.1-.1-.4-.2-.8 0-1.2 1.1-.7 2.3-1.1 3.6-1.3.5.1 1 .5 1.3.8 1.2 1.2-.2 2.9.6 4.2.3-.1.3-.5.4-.7.4-.9-.1-1.9-.3-2.8-.3-.6-.5-1-1-1.5.1-.1.2-.1.3-.1.5.4 1.1.8 1.5 1.3.7 1.2 1.1 2.6 1 4.2-.2.8-1 1.1-1.6 1.4-.2.2-.6.5-.7.8.3.2.7 0 1-.1.5-.2.8-.8 1.1-1.1.1 0 0 .1.1.2 0 .3-.1.7.1.7.1-.4.2-.9.2-1.3.3.4.4.8.5 1.3.2.5.6 1.1 1.2 1.1.2-.2 0-.5-.1-.7-.1-.6-.6-1-1-1.4-.9-1.2-.5-3.1-1.2-4.5-.2-.7-.8-1.3-1.4-1.9l.1-.1c1.2 0 2.3.4 3.4.6 1.4.7 3.4.5 4.1 2.3.3 1 .7 2 1.4 2.7l.1-.1c.2-.2.2-.7 0-.9-.2-1.3-1.3-1.6-1.8-2.6l.1-.1c.6.2 1.2.3 1.8.6 2 .6 3.4 2.5 3.7 4.6 0 1.6-.3 3-.9 4.4-.1.2-.4.4-.2.6.3-.2.3-.5.5-.8.8-1.4 1.3-3.3.8-5.1 0-.3-.4-.6-.2-.9.1.2.3.2.4.2.2-.1.4-.1.5-.3 0-.2.1-.3 0-.5-.2-.2-.5-.2-.7-.2-.1.2-.3.4-.3.6-.2-.4-.5-1-.9-1.3l.1-.1c1.1.4 2.2.9 3.3 1.2.2.2.5.3.9.3 1 .4 2.1.5 3.1.8.8-.1 1.4.3 2.1.1v-.1c-.3-.4-.9 0-1.2-.3-1.7-.2-3.4-.6-5-1.2 0-.1.1-.1.2-.1.2-.1.4-.4.4-.6-.1-.2-.3-.3-.6-.3-.2.1-.4.2-.4.4s.2.4.4.5c-.1.1-.2 0-.2 0-.8-.4-1.5-.7-2.3-1-.3-.1-.5-.3-.8-.3-.6-.3-1.2-.6-1.7-.8-1.6-.8-3.4-1.3-5.1-1.9-.4-.1-.7-.2-1.1-.3-.6-.2-1.3-.3-1.9-.5-2.1-.5-5-.6-6.9.6-.3-.1-.5.4-.6.1.5-1.4 2.1-1.9 3.5-1.9 10.1-.1 19.6-.2 29.6-.3 1.2 0 2.3-.4 2.9-1.5.1.3.2-.8-.1-1.4zm-40.2 9.3c-.1.3-.3.6-.3.9l-.1.1c.1-.4-.3-.6-.2-1-.2-.3-.2-.7-.4-1-.2-.4.2-.6.4-.9.4.2.5.5.7.8.2.4-.1.7-.1 1.1z"/><path d="M17.3 111.9c0 .1.2.1.1.2-.9.8-2.1 1-3.4 1.1-.1 0-.2.1-.3.1-.1-.1-.1-.1-.1-.2.9-1 2.3-1.5 3.7-1.2zM13.2 112.4c.1.4-.1.6-.4.7-.3 0-.4-.2-.6-.4-.1-.2.1-.3.2-.4.2-.3.7-.3.8.1zM-34.8 112.4c.1.2 0 .4-.1.5-.1.1-.3.2-.5.1-.2 0-.3-.2-.3-.4s.1-.4.3-.5c.2.1.4.1.6.3zM-39.3 114.1v.2c-.6.1-1.2 0-1.6-.4-.4-.5-.8-1-1.3-1.3 0-.1-.2-.2 0-.2 1.2 0 1.9 1 2.9 1.7zM21.1 112.4c-.6.9-1.1 1.9-2.1 2.3-.2 0-.3.3-.5.1.4-1 1.3-2 2.2-2.4.2 0 .3-.1.4 0zM-33.3 112.7c0 .3-.2.3-.4.5-.2 0-.3-.1-.4-.3-.1-.3.1-.4.3-.5.1 0 .4.1.5.3zM24.3 112.8c-.2.3-.1.8-.4 1.2-.5.6-.9 1.2-1.7 1.4-.1-.2.2-.5.3-.7.4-.8.9-1.6 1.7-2l.1.1zM-47.2 113.1c.1.2.2.4 0 .6-.1.1-.4.2-.6.1-.2-.1-.3-.4-.2-.6.2-.3.7-.4.8-.1zM-48.6 113.4c0 .1.1.2.1.4-.1.1-.2.3-.4.3-.3.1-.5-.1-.6-.3 0-.2.1-.4.2-.5.3-.2.6-.1.7.1zM-45.6 113.5c.1.2.1.6-.2.6-.4.2-.6-.1-.8-.3 0-.2.1-.4.3-.5.3 0 .5 0 .7.2zM-41.5 113.9c0 .2 0 .4-.2.5-.1.1-.4.1-.5.1-.1-.2-.3-.3-.2-.5.1-.1.2-.2.4-.3.2 0 .4-.1.5.2zM26.8 114c-.1.2-.2.4-.4.4s-.5-.1-.6-.3c-.1-.3.1-.4.3-.5.3 0 .6.2.7.4zM22.1 114.2c0 .2-.2.4-.3.4-.4.2-.7-.1-.8-.4.1-.2.2-.4.4-.5.4 0 .6.2.7.5zM25.3 114.1c0 .2-.1.4-.2.4-.2.1-.5.1-.6-.1-.2-.2-.1-.4.1-.5.2-.1.6-.1.7.2zM-47.8 114.5c.1.3-.1.5-.3.6-.2 0-.5-.1-.6-.4 0-.2.1-.5.2-.5.3 0 .5.2.7.3zM20.9 114.8c.1.3-.1.5-.4.7-.2.1-.3-.1-.5-.2-.1-.1-.2-.4 0-.5.2-.4.7-.3.9 0zM-34.2 115.1c.1.3-.2.3-.3.5-.1.1-.3.1-.4 0-.1-.2-.3-.3-.2-.5.1-.1.2-.2.3-.2.3-.2.4 0 .6.2zM26.3 115.3c.1.2-.1.3-.1.4-.2.1-.4.2-.6.1-.2-.1-.2-.3-.2-.6.1-.1.2-.2.4-.3.1 0 .4.1.5.4zM24.7 115.4c.1.3-.2.5-.4.5-.1 0-.2-.1-.3.1.7.3 1.1.9 1.6 1.3v.2c-.9 0-1.8-.2-2.5-1-.2-.1-.5-.1-.7-.3.3-.3.9-.2 1.4-.2.3-.4-.4-.6.1-.9.2 0 .2-.2.5-.1.1.1.2.2.3.4zM14.4 115.4c.1.1-.1.3-.1.4-.2.2-.4.2-.6.1-.1-.2-.3-.3-.2-.6.2-.4.8-.3.9.1zM-42.1 116.3c-.1.2-.2.4-.4.4s-.4-.1-.5-.3c0-.2.1-.3.1-.4.3-.3.8-.1.8.3zM-40.1 115.9c0 .4-.4.6-.5.9-.4.8-1.1 1.6-2 1.7-.1-.2.3-.5.4-.7.4-.9 1.2-1.3 1.9-1.9h.2zM13.8 116.3c0 .3-.2.5-.4.6-.2.1-.4-.1-.5-.2-.2-.2-.1-.4 0-.6.3-.3.7-.1.9.2zM15.4 116.5c0 .3-.2.5-.5.6-.1-.1-.2 0-.2-.1-.2-.1-.3-.3-.3-.5.1-.1.2-.3.4-.4.1 0 .5.1.6.4zM-36.1 116.4c0 .3-.2.4-.4.5-.2 0-.4-.1-.5-.3s.2-.4.3-.5c.3 0 .4.2.6.3zM-34.4 116.5c-.1.2-.2.4-.5.4-.2-.1-.4-.1-.5-.3 0-.3.2-.4.4-.5.3.1.5.2.6.4zM20.8 118.3c.1.1.4.2.3.4-.4.2-.7-.3-1.1-.4-.6-.6-1.1-1.3-1.3-2 .2-.2.5.1.7.1.5.6 1.1 1.2 1.4 1.9zM21.7 116.5c.1.2.1.4-.1.6-.2.3-.5.2-.7.2-.1-.2-.4-.4-.2-.6.1-.2.3-.3.5-.3.2-.1.3.1.5.1zM-32.1 117.2c0 .2.1.5-.2.6-.2.1-.5 0-.6-.3s.1-.4.3-.5c.2 0 .4.1.5.2zM15.3 118.9c.4.5.6 1.1.7 1.8-.1.2.1.4 0 .5h-.2c-1.1-.8-1.4-2-1.8-3.1-.1-.1-.1-.2-.1-.3.2-.2.4.2.7.3l.7.8zM-28.8 118s0 .1 0 0c-1 .8-2.4 1.2-3.6.5 0-.1 0-.2.1-.2.7-.2 1.4-.6 2.2-.5l1.3.2zM-34.6 118.1c-.9.5-1.6 1.6-2.7 1.8-.2.1-.3.4-.6.2.5-1.4 1.9-2.1 3.3-2.2v.2zM13.8 119.3c.1.2 0 .5-.2.5-.1.1-.4.1-.5 0-.2-.1-.2-.3-.2-.5.1-.2.2-.2.4-.3.2.1.4.1.5.3zM11.7 119.4c-.2.4-.6.6-.9.7-.9.3-1.6-.1-2.4-.3 0-.2.3-.1.4-.2.8-.2 1.7-.4 2.6-.1 0-.2.2-.2.3-.1zM-34.6 120.1c-.1.1-.1.3-.3.4-.2.1-.4 0-.5-.1-.1-.2-.2-.3-.1-.5s.2-.2.4-.3c.3.1.5.3.5.5zM-33.1 120.4c-.1.2-.2.4-.4.5-.2.1-.4-.1-.5-.2-.1-.2-.2-.3-.1-.5.1-.1.2-.2.4-.2.3-.1.5.2.6.4zM13.3 120.6c0 .2-.1.3-.2.5s-.4.2-.6.1c-.2 0-.2-.2-.3-.4-.2-.2.1-.3.2-.5.3-.2.8-.1.9.3zM14.4 120.6c0 .1.1.2.1.4-.2.1-.2.5-.6.3-.1.1-.2-.2-.3-.2-.1-.3 0-.6.3-.7.2-.1.4.1.5.2zM-34 121.3c.1.3-.1.5-.2.7-.3.1-.6.1-.7-.3 0-.2 0-.6.3-.7.2 0 .5 0 .6.3zM-32.5 121.2c-.1.7-.2 1.6-.9 2-.4.1-.8.5-1.2.2v-.1c.5-.8 1.4-1.4 2.1-2.1zM9.3 121.8c.1.2-.1.3-.1.4-.1.2-.4.1-.6 0-.2-.1-.2-.3-.1-.5s.2-.2.3-.3c.2 0 .4.2.5.4zM-30 123c.4.6.2 1.4.4 2-.4.1-.6-.4-.9-.7-.6-.8-.5-1.8-.7-2.7.1-.1.1-.1.2-.1.4.2.7.7 1 1.1-.2.2 0 .2 0 .4zM10.6 122c0 .2-.2.3-.4.4-.2 0-.3-.1-.5-.2-.1-.2.1-.3.2-.5.4-.1.6 0 .7.3zM13.6 124.3c0 .1 0 .2-.2.2h-.1c-.7-.7-1.5-1.4-1.4-2.4h.2c.7.5 1.5 1.1 1.5 2.2zM11.7 123.4c0 .2-.1.4-.2.5-.3.1-.7.1-.8-.3 0-.3.3-.4.4-.5.3-.1.5.1.6.3zM10 124c-.4.9-1.3 1.4-2 2.1-.1-.1-.1-.3-.1-.4.2-1 1-1.9 1.9-2.3.6.1.2.4.2.6zM11.9 124.7c0 .2-.2.3-.4.5-.2 0-.4-.1-.6-.3 0-.3.2-.3.3-.5.4 0 .6.1.7.3zM-6.9 78.5c.3 0 .6.3.6.6s-.3.6-.6.6h-7.5c-.3 0-.6-.3-.6-.6s.3-.6.6-.6h7.5zm-5.3 1.1c.7 0 0-.9-.4-.9h-.6c-.7 0 0 .9.4.9h.6zm3.1 0c.7 0 0-.9-.4-.9h-.7c-.7 0 0 .9.4.9h.7zm2.3-.9h-.3c-.7 0-.1.9.3.9.5 0 .5-.9 0-.9zM-7.5 87.1l1.4.5 1.4-.5-.6 2.1 1.1-.2-.4 1.3.4 1.2-1-.3.4 2.3-1.4-.5-1.4.5.6-2.3-1.1.3.3-1.3-.3-1.2 1.1.2-.5-2.1zm2.1 3.8c.3 0 .4-.4.4-.8 0-.9-.7 0-1-.8-.3.7-1 .1-1 .8 0 .5 0 .8.5.8h1.1zm-1.4-.7c0 .3.4.1.8.1.3 0 .8.2.8-.1 0-.5-.4-.3-.8-.3-.4-.1-.8-.2-.8.3zM-10.9 90.2V90l-.2-.1.2-.2-.1-.2h.2l.2-.2.1.2h.2l-.1.2.2.2-.2.1v.2l-.2-.1zM-12 91.7v-.3l-.2-.1.2-.1-.1-.3.2.1.1-.3.2.3.2-.1-.1.3.2.1-.2.1v.3l-.3-.2zM-10.1 91.5v-.3h-.2l.2-.2-.2-.2h.3l.1-.3.2.3h.2l-.1.2.2.2h-.2v.3l-.3-.2zM-9.9 92.6v-.2h-.1l.1-.1-.1-.2.2.1.1-.2v.2l.2-.1-.1.2.1.1h-.1v.2l-.1-.1zM-11.6 93.8v-.5l-.4-.1.3-.3-.2-.4.4.1.3-.5.2.5.4-.1-.2.4.4.3-.4.1v.5l-.4-.3zM-10.7 69.8l.9 2.2 2.2-.7-1.1 2.1 1.9 1.3-2.3.4.1 2.4-1.7-1.6-1.8 1.6.2-2.4-2.4-.4 2-1.3-1.2-2.1 2.3.7zM-18.9 118.8c-.3.1-.4.2-.3.5l.3 1.3c.1.2.1.6-.1.9-.2.3-.6.5-.9.5-.2.1-.7.1-1.1 0-.2-.1-.4-.2-.5-.7l-.3-1.4c-.1-.4-.2-.3-.5-.3v-.1l1.7-.4v.1c-.3.1-.5.1-.4.5l.3 1.4c.1.2.2.8.9.6.9-.2.7-.9.7-1.1l-.3-1.3c-.1-.3-.2-.4-.6-.3v-.1l1.1-.3v.2zM-16.4 119.1c-.2-.3-.6-.7-1.2-.6-.3.1-.5.2-.4.5.1.2.2.3.6.4l.8.1c.2 0 .6.2.7.7.1.4-.1 1-1.1 1.2-.5.1-.7 0-.9.1-.1 0-.1.1-.1.2h-.1l-.2-1h.1c.2.4.6.8 1.2.7.6-.1.5-.6.5-.6-.1-.3-.3-.3-.7-.4l-.4-.1c-.9-.2-1-.5-1.1-.7-.1-.3 0-.9.9-1.1.4-.1.7 0 .8 0s.1-.1.1-.2h.2l.2.9.1-.1zM-13 120.8l-1.8.2v-.1c.4-.1.5-.1.5-.4l-.2-2.3c-.4.1-.9.1-.9.8h-.1l-.1-.9 3.1-.3.1.9h-.1c-.2-.7-.7-.7-1.1-.6l.2 2.3c0 .4.2.4.5.4h-.1zM-8.8 120.8h-1.1l-1-1.4h-.1v.8c0 .3.1.4.4.4v.1h-1.7v-.1c.4 0 .5 0 .5-.4v-1.9c0-.4-.2-.4-.4-.4v-.1h1.7c.4 0 1.5.1 1.4.8 0 .5-.5.7-.8.7l1 1.3c.1.1.1.1.2.1l-.1.1zm-2.2-1.5c.7 0 .9-.1 1-.6 0-.4-.2-.6-.6-.6-.3 0-.3 0-.3.2l-.1 1z"/><path d="M-5.4 121.2l-1.7-.2v-.1c.3 0 .4 0 .4-.1s-.1-.5-.2-.6l-1.2-.1c-.2.3-.3.5-.3.5 0 .2.2.2.4.2v.1l-1-.1v-.1c.3 0 .4-.1.6-.4l1.4-2.2h.1l.9 2.4c.3.5.4.6.6.7zm-1.4-1.2l-.4-1.1-.6 1 1 .1zM-2.4 121.8l-2.9-.5v-.1c.3 0 .4 0 .5-.2l.4-2.1c.1-.3-.2-.3-.4-.4v-.1l1.8.3v.1c-.4-.1-.5-.1-.6.3l-.4 2c0 .2.1.3.4.3.8.1 1.1-.2 1.4-.6h.1l-.3 1zM-.4 122.3l-1.8-.4v-.1c.3 0 .5.1.5-.2l.4-2.1c.1-.3-.2-.3-.4-.4v-.1l1.8.4v.1c-.2 0-.5-.1-.5.2l-.4 2.1c-.1.3.1.3.4.4v.1z"/><path d="M3.2 122.7l-1.7-.2v-.1c.3 0 .4 0 .4-.1s-.1-.5-.2-.6l-1.2-.1c-.2.3-.3.5-.3.5 0 .2.2.2.4.2v.1l-1-.1v-.1c.3 0 .4-.1.5-.5l1.4-2.2h.1l.9 2.4c.2.5.2.6.5.7l.2.1zm-1.5-1.1l-.4-1.1-.6 1 1 .1zM-10 87.8c0-1-.6-.1-.9-.9-.2.7-.9.1-.9.9 0 .3.1.5.2.6v.3c0 .1.1.1.1.1h1.1c.1 0 .1-.1.1-.1v-.3c.2-.1.3-.3.3-.6zm-.9.2c-.3 0-.7.2-.7-.1 0-.5.3-.4.7-.4.3 0 .8-.1.8.4-.1.3-.5.1-.8.1zM-1 100.6c.3 0 .5-.2.5-.4s-.2-.4-.5-.4-.5.2-.5.4.3.4.5.4zM-3.2 85.2l-.2.4c0 .1.1.2.2.2s.2-.1.2-.2l-.2-.4zM-18.5 85.2l-.2.4c0 .1.1.2.2.2s.2-.1.2-.2l-.2-.4zM-14.7 85.2l-.2.4c0 .1.1.2.2.2s.2-.1.2-.2c.1 0-.2-.4-.2-.4zM-10.9 85.2l-.2.4c0 .1.1.2.2.2s.2-.1.2-.2c.1 0-.2-.4-.2-.4zM-7 85.2l-.2.4c0 .1.1.2.2.2s.2-.1.2-.2l-.2-.4zM-18.5 90.4l.2.4c0 .1-.1.2-.2.2s-.2-.1-.2-.2c0 .1.2-.4.2-.4zM-18.5 95.5l.2.4c0 .1-.1.2-.2.2s-.2-.1-.2-.2c0 .1.2-.4.2-.4zM-17.9 99.5l.2.4c0 .1-.1.2-.2.2s-.2-.1-.2-.2c0 .1.2-.4.2-.4zM-14.7 101.7l.2.4c0 .1-.1.2-.2.2s-.2-.1-.2-.2l.2-.4zM-3 90.4l-.2.4c0 .1.1.2.2.2s.2-.1.2-.2c0 .1-.2-.4-.2-.4zM-3 95.5l-.2.4c0 .1.1.2.2.2s.2-.1.2-.2c0 .1-.2-.4-.2-.4zM-3.6 99.5l-.2.4c0 .1.1.2.2.2s.2-.1.2-.2c0 .1-.2-.4-.2-.4zM-6.8 101.7l-.2.4c0 .1.1.2.2.2s.2-.1.2-.2l-.2-.4zM-10.7 104l-.2.4c0 .1.1.2.2.2s.2-.1.2-.2l-.2-.4zM-4.5 96.4c.1.1.2.1.3 0l.1-.4s-.2-.2-.3-.2c-.4.1-.8.1-1.1.5 0 .3.2.5.4.6.1-.1.2.1.3.2 0 .1-.1.2-.2.2-.3-.3-.8.1-1-.3.1-.4.3-.8 0-1.1 0-.1.1-.1.1-.2-.1-.3-.5-.1-.7-.1-.4-.1-.7.1-.9.4 0 .1.1.2.2.4.1 0 .1 0 .2.1l-.2.1c.1.1.1.2.1.3-.2.1-.3-.2-.4-.3 0-.2 0-.5-.2-.6-.1 0-.2.1-.2.1-.1.1-.1.2-.1.4s.1.4.1.4.7.5.9.9c-.2.4-.2 1-.7 1.3-.1.1-.1.2-.1.4l.1.1c.3-.2.9-.2.9-.7.1-.2.2-.5.5-.6.2-.1.5.1.5.3-.1.4-.3.6-.6.7v.2c.1.2.4.1.5.1.4-.3.6-.7.9-.9.1.2-.5.3-.1.6.2-.1.5 0 .7-.3-.2-.4.6-.6.1-1 0-.4.4-.5.4-.9-.1-.4-.6-.4-.7-.7-.2-.1 0-.1.2 0zM-22.1 100.8c.3 0 .5-.2.5-.4s-.2-.4-.5-.4-.5.2-.5.4c.1.2.3.4.5.4zM-46.8 115.2c.3 0 .5-.2.5-.4s-.2-.4-.5-.4-.5.2-.5.4.2.4.5.4zM-31.1 118.7c-.1-.1-.1-.1 0 0zm0 0zM-31 118.7s-.1 0 0 0c-.1 0 0 0 0 0-.1 0-.1 0 0 0-.1 0-.1 0 0 0zM-30.8 118.7c-.1 0-.1 0 0 0-.1 0-.1 0 0 0-.1 0-.1 0 0 0zM-30.8 118.7s0-.1 0 0c0-.1 0 0 0 0zm0 0zM-30.7 118.7s-.1 0 0 0c-.1 0-.1 0 0 0z"/><path d="M-1.9 84.6h-17.6v13.5c0 1.4.6 2.6 1.4 2.9l6.8 4.3c.1.2.4.3.6.3.2 0 .4-.1.5-.2l6.9-4.4c.8-.4 1.4-1.6 1.4-2.9V84.6zm-.5 13.6c-.1 1-.4 1.9-1.1 2.3l-6.6 4.2c-.1.1-.3.2-.5.2s-.4-.1-.5-.2l-6.6-4.2c-.7-.5-1-1.3-1.1-2.3V85.1h16.6l-.2 13.1z"/><path d="M-8.4 104.2l.2-.1c-.1 0-.1.1-.2.1zM-21.7 122.6l-1.7.2v-.1c.3-.1.4-.1.4-.2s-.2-.4-.3-.5l-1.2.1c-.1.3-.2.5-.2.6 0 .2.3.1.4.1v.1l-1 .1v-.1c.3-.1.3-.2.4-.6l.9-2.5h.1l1.4 2.1c.3.4.4.6.6.5l.2.2zm-1.6-.8l-.6-1-.4 1.1 1-.1z"/><path d="M7.5 116.3c-.3-.8-.9-1.3-1.7-1.6-.8-.2-1.7-.1-2.2.6-.9.7-.3 2-.2 3 0 .2 0 .4-.2.5-3.7-.3-7.1-1.2-10.7-1.6-.8-.1-1.7-.1-2.5-.3l-1-.1c-3.2.1-6.3.3-9.3 1-.6.2-1.3.2-2 .5-.5-.1-.8.2-1.3.1l-.8.2h-.3c-.4-1 .8-1.7.4-2.7-.3-.6-1-1.1-1.7-1-.9-.1-1.6.4-2 1-.6 1.3.2 2.6.4 3.8-.1.4.4.9 0 1.2-.8-.6-1.9-.9-2.9-.6-.3.2-.9-.1-1 .3 1.1.6 2.5.5 3.7.5.2-.1.3-.1.4 0 .1.7-.1 1.6.3 2.1.5.6 1.2.8 1.9.8 2.3-.1 4.4-.8 6.5-1.3.3 0 .6-.2.9-.2 1.1-.3 2.4-.5 3.6-.5-.5.7-.8 1.5-1.1 2.3-.3.7.5.8.8 1.2-.8.2-1.3.8-2.1 1.1-1.6-.1-3 .6-4.5.7 0 .3.5.2.6.6-.1.2-.3.3-.5.4 0 .2 0 .2.2.2.2-.2.5-.1.6-.2.5 0 .9-.2 1.4-.2.4-.2.9-.2 1.3-.5.5-.2.9-.5 1.4-.7.8 0 1.4-.3 2.1-.3v.2c-.6.9-1.2 1.9-1.8 2.8-.1.2 0 .4.2.4.4.1.7 0 1-.2.5-.9 1-1.8 1.4-2.7.2-.9.8-1.3 1.4-1.9.1-.1.2-.2.4-.1-.5.6-.8 1.2-1.2 1.8-.2.7-.3 1.6.4 2.2.3.3.8.2 1.2.2 1-.5 2.2.3 3-.7.5-.1.5.5.8.7.4.1.9.6 1.3.2 0-.3-.3-.5-.5-.8-.3-.5-.7-1-1-1.5-.1-.4-.4-.6-.4-.9.5.2.9.5 1.4.5.4.2 1 .2 1.4.4.3.4.8.7 1.3 1 .6.3 1.3.4 2 .6.2 0 .6.2.8 0-.1-.1-.2-.2-.4-.3-.1-.3.5-.2.6-.4-.1-.1-.2-.2-.3-.2-.4-.2-1.3-.3-1.5-.4l-.9-.3c-1.5 0-2.4-1.4-3.6-1.9.3-.3.7-.5.9-.8.2-.4.3-.9.1-1.3-.2-.8-1.2-.7-1.8-1.1l.1-.1c1-.1 1.8.2 2.7.4 2.4.3 4.7 1.2 7.2 1.3 1.4 0 3.1.1 3.8-1.3.1-.8.3-1.6.4-2.4.4-1.1 1.2-2.3 1.1-3.7zm-27.3 11.6l-.4-.3c.2-.2.6-.1.8-.3.7-.2 1.4-.5 2.1-.3-.6.6-1.6.7-2.5.9zm15.8-.4c.6.3 1.8.5 2.7.6-.1.3-.7 0-.6.5-.8-.3-1.7-.5-2.3-1.1h.2zm-23.7-10.8c.1-.5.2-.9.6-1.3.6-.3 1.4-.2 2 .1.2.1.3.2.4.5.1.4-.1.9-.4 1.2h-.2c0-.4 0-.8.2-1.2 0-.3-.3-.3-.5-.5-.4-.1-.8.1-1.1.3-.2.3-.5.7-.3 1.1.2.3 0 .7.1 1l-.1.1c-.4-.4-.8-.7-.7-1.3zm1.2.7c.4.3.9.2 1.4.2.1.3.1.6-.1.9-.4-.1-1-.1-1.2-.5-.1-.1-.2-.4-.1-.6zm-.1-.9c.1-.2 0-.5.3-.6.2-.1.5-.1.5.2s-.1.6-.1.9c-.4.1-.6-.2-.7-.5zm11.8 8.2c-.1-.9.2-1.7.8-2.3.4-.1.8-.2 1.1.1-.7.2-1.5.3-1.6 1.2 0 .3-.1.5.1.8.3.5.9.3 1.3.7 0 .1-.1.3-.2.3-.5-.3-1.1-.5-1.5-.8zm-.9 1.8c.6-.3 1.2-.8 1.9-.6-.4.4-1.2.5-1.9.6zm2.4.2l-1.2 2.4c-.1.1-.3.2-.4.2 0-.4.4-.6.5-.9.5-.7.7-1.4 1.3-2.1.1.1-.2.2-.2.4zm.7-1.4c0-.1-.1-.1 0 0zm-.3-.7l-1.2-.3c-.2-.3 0-.5 0-.8.4-.6 1.4-.8 1.8-.3 0 .5-.2 1-.6 1.4zm.6 0c.1-.3.2-.8.4-1.1 0 .3-.2.8-.4 1.1zm.3-2.1c-.3-.1-.5-.5-.9-.5.3-.1.6-.1 1 0 .1.2-.1.4-.1.5zm.3.8v-.3.3zm0 1.1c0-.1.1-.2.1-.4.1-.1.2.1.3.2-.1.2-.3.3-.4.2zm.4-1.5c.1-.4.1-.7.4-.9.2 0 .5 0 .7.1.1.5.7 1.2 0 1.6-.2.1-.6.3-.8.1-.4-.3-.5-.6-.3-.9zm1.8-.8c-.1-.2.2-.1.3-.2l.8.1c-.4 0-.9.9-1.1.1zm1.3.4c-.3.1-.5.5-.8.5.1-.3.5-.5.8-.5zm-1.1 1.6zm.1 1.5c0 .1 0 .1-.1.2l-.6-.5c.3 0 .5.1.7.3zm-.7-.8c.1-.1.2-.1.2 0h-.2zm-.4-.4c.1-.2.2-.4.4-.4 0 0 0 .1.1.1-.2.2-.3.3-.5.3zm-.6 0l.1-.2c.1.1 0 .1-.1.2zm.1.9c.3-.4.6.2.8.5.4.6 1.4 1.1 1 1.8-.5.4-1.2 0-1.8.4-.3 0-.8.1-.9-.2.3-.8.5-1.7.9-2.5zm-.7.5l.1-.2c-.2.6-.5 1.2-.8 1.8-.1-.5.5-1 .7-1.6zm1.1 3.1c-.5 0-1.2.3-1.7-.1 0-.2-.2-.3-.2-.5.4-.2.8.3 1.1 0 .6 0 1.2-.1 1.8.1.3.1.7-.5.8.1-.2.7-1.2.1-1.8.4zm1.5-3.7zm.1 1.6c0 .3.3.4.1.6 0-.1-.1-.3-.1-.6zm.8 1.5l-.1.1c-.1-.1-.1-.4-.1-.5.1.1.2.3.2.4zm1.2.6c0 .1-.2.1-.2 0-.8-1-1.1-2-1.6-3.1h.1c.6 1.1 1.1 2.2 1.7 3.1zm1-2.3c-.1 0-.1.1 0 0-.8.1-1.3-.3-1.9-.7v-.1c.7 0 1.2.5 1.9.8zm-.7-3.4c.3.1.3.4.4.7 0 .6-.3 1-.9 1.2-.3.2-.7.2-1 .1.6 0 1.3-.2 1.5-.9v-1.1zm-.6-.1c.1.4.4.7.2 1.1-.2.5-.8.5-1.2.6-.2 0-.4-.1-.6-.2 0-.1 0-.2-.1-.2.1-.3-.6-.7-.1-.9.5-.4 1.4-1.3 1.8-.4zm12.9-1.8c-.2.2 0 .7-.3.9 0 .5-.4.7-.7.9-3 .7-6-.4-8.9-.9-4.1-.9-8.8-1.1-13-.2-1.9.4-3.8.8-5.7 1.3-1.2.2-2.4.3-3.5 0-.9-.4-.5-1.6-.8-2.4.1-.6-.2-1.1-.2-1.8-.1-.2-.1-.5-.1-.7.4.1.8.3 1.2.4 2.1.4 4-.3 6-.6 1.9-.4 3.8-.7 5.8-.9 2.3 0 4.6-.2 6.8.2.7 0 1.3.2 2 .2 1.4.2 2.7.6 4.2.7.2.1.5.1.8.1 2.3.4 4.8 1 7 0-.1 1-.5 1.9-.6 2.8zm-.7-3.1c0 .4-.4.3-.6.5h-.6c-.1-.2-.1-.5-.1-.7.4 0 .9 0 1.3.2zm-.3-.7c.3-.3-.1-1.9.7-.8 0 .2 0 .5-.2.7-.1 0-.3.2-.5.1zm2-.2c-.2.5-.6.8-1.1.9 0-.6.6-1 .4-1.7-.3-.5-1-.6-1.6-.5-.2.2-.1.4-.2.6l-.1.8c-.5 0-.5-.5-.7-.8 0-.5.3-1.1.8-1.3.4-.2 1.1-.2 1.5.1.3.1.7.2.8.5.4.3.3.9.2 1.4z"/><g class="st1"><path d="M45.6 96.5h-3.7l-.4 1c-.1.3-.2.6-.2.9 0 .3.1.5.4.7.1.1.5.1 1 .2v.3H39v-.3c.4-.1.7-.2.9-.5.2-.3.5-.8.9-1.6l3.8-8.5h.1l3.8 8.7c.4.8.7 1.3.9 1.6.2.2.4.3.8.3v.3h-5.1v-.3h.2c.4 0 .7-.1.9-.2.1-.1.2-.2.2-.4v-.3s-.1-.2-.2-.6l-.6-1.3zm-.3-.5l-1.6-3.6-1.6 3.6h3.2zM58.1 92.2V98c0 .6.1.9.2 1 .1.1.3.2.6.3v.3h-3v-1c-.3.4-.7.7-1 .9-.3.2-.7.3-1.2.3-.4 0-.8-.1-1.1-.4s-.5-.5-.6-.9-.2-.9-.2-1.8v-2.9c0-.6-.1-.9-.2-1s-.3-.2-.6-.3v-.3h3v5c0 .5 0 .9.1 1 0 .2.1.3.2.3.1.1.2.1.4.1s.4 0 .5-.1c.2-.1.5-.4.8-.8v-3.9c0-.6-.1-.9-.2-1s-.3-.2-.6-.3v-.3h2.9zM64.5 92l.1 2.5h-.3c-.3-.7-.6-1.2-1-1.5-.3-.3-.7-.4-1-.4-.2 0-.4.1-.5.2-.2.1-.2.3-.2.5 0 .1.1.3.2.4.2.2.6.6 1.4 1.1s1.3 1 1.5 1.3.4.8.4 1.2c0 .4-.1.8-.3 1.2s-.5.7-.9.9c-.4.2-.8.3-1.2.3-.3 0-.8-.1-1.4-.3-.2-.1-.3-.1-.3-.1-.2 0-.3.1-.4.4h-.3l-.1-2.6h.3c.2.7.6 1.2 1 1.5.4.3.8.5 1.2.5.2 0 .5-.1.6-.2.2-.2.2-.3.2-.6 0-.2-.1-.5-.2-.6s-.5-.5-1-.8c-.8-.6-1.3-1-1.5-1.3-.3-.4-.5-.9-.5-1.4 0-.6.2-1.1.6-1.5.4-.5.9-.7 1.7-.7.4 0 .8.1 1.1.3.1.1.3.1.3.1.1 0 .2 0 .2-.1.1 0 .1-.1.3-.3zM69 89.6v2.7h1.7v.7H69v4.5c0 .4 0 .7.1.8s.1.2.2.3c.1.1.2.1.3.1.3 0 .7-.3 1-.8l.2.2c-.4 1-1.1 1.5-2.1 1.5-.5 0-.9-.1-1.2-.4s-.5-.5-.6-.9c-.1-.2-.1-.7-.1-1.4V93h-1v-.3c.7-.5 1.2-1 1.7-1.5s.9-1.1 1.2-1.7h.3zM74.5 92.2v1.7c.5-.8.9-1.3 1.3-1.5.4-.2.7-.4 1.1-.4.3 0 .5.1.7.3.2.2.3.4.3.8 0 .3-.1.6-.3.8-.2.2-.4.3-.6.3-.3 0-.5-.1-.7-.3s-.3-.3-.4-.3h-.2c-.2 0-.3.1-.4.2-.2.2-.4.4-.5.8-.2.5-.2 1.1-.2 1.7v2.1c0 .3 0 .5.1.6l.3.3c.1.1.3.1.6.1v.3h-3.9v-.3c.3 0 .5-.1.6-.3.1-.1.2-.5.2-1.2v-4c0-.4 0-.7-.1-.8-.1-.1-.1-.3-.2-.3-.1-.1-.3-.1-.5-.1v-.3h2.8zM82.6 98.5c-.9.8-1.7 1.2-2.4 1.2-.4 0-.8-.1-1-.4-.3-.3-.4-.6-.4-1 0-.6.2-1.1.7-1.5.5-.4 1.5-1 3.1-1.8v-.7c0-.6 0-.9-.1-1-.1-.1-.2-.3-.3-.4-.2-.1-.4-.2-.6-.2-.3 0-.6.1-.8.2-.1.1-.2.2-.2.3 0 .1.1.2.2.4.2.2.3.4.3.6 0 .3-.1.5-.3.7-.2.2-.4.3-.7.3-.3 0-.6-.1-.8-.3-.2-.2-.3-.4-.3-.7 0-.4.1-.7.4-1.1s.7-.6 1.2-.8 1.1-.3 1.7-.3c.7 0 1.2.1 1.6.4.4.3.7.6.8 1 .1.2.1.7.1 1.5v3.4c0 .1.1.1.1.2.1 0 .1.1.2.1s.3-.1.4-.3l.2.2c-.3.4-.5.7-.8.8-.3.2-.6.3-.9.3-.4 0-.7-.1-1-.3s-.3-.4-.4-.8zm0-.6v-2.4c-.6.4-1.1.8-1.4 1.2-.2.3-.3.6-.3.9 0 .2.1.5.3.6.1.1.3.2.5.2.3-.1.6-.2.9-.5zM89.4 89v9c0 .5.1.8.2 1 .1.1.4.2.7.2v.3h-3.9v-.3c.3 0 .6-.1.7-.3.1-.1.2-.4.2-1v-7.6c0-.5-.1-.8-.2-1-.1-.1-.4-.2-.7-.2V89h3zM93.9 92.2V98c0 .5.1.8.2 1 .1.1.4.2.7.2v.3h-3.9v-.3c.3 0 .6-.1.7-.3.1-.1.2-.4.2-1v-4.3c0-.5-.1-.8-.2-1-.1-.1-.4-.2-.7-.2v-.3h3zm-1.1-3.5c.3 0 .6.1.9.4s.4.5.4.9-.1.6-.4.9c-.2.2-.5.4-.9.4-.3 0-.6-.1-.9-.4s-.4-.5-.4-.9.1-.6.4-.9.5-.4.9-.4zM99.5 98.5c-.9.8-1.7 1.2-2.4 1.2-.4 0-.8-.1-1-.4-.3-.3-.4-.6-.4-1 0-.6.2-1.1.7-1.5.5-.4 1.5-1 3.1-1.8v-.7c0-.6 0-.9-.1-1-.1-.1-.2-.3-.3-.4-.2-.1-.4-.2-.6-.2-.3 0-.6.1-.8.2-.1.1-.2.2-.2.3 0 .1.1.2.2.4.2.2.3.4.3.6 0 .3-.1.5-.3.7-.2.2-.4.3-.7.3-.3 0-.6-.1-.8-.3-.2-.2-.3-.4-.3-.7 0-.4.1-.7.4-1.1s.7-.6 1.2-.8 1.1-.3 1.7-.3c.7 0 1.2.1 1.6.4.4.3.7.6.8 1 .1.2.1.7.1 1.5v3.4c0 .1.1.1.1.2.1 0 .1.1.2.1s.3-.1.4-.3l.2.2c-.3.4-.5.7-.8.8-.3.2-.6.3-.9.3-.4 0-.7-.1-1-.3s-.4-.4-.4-.8zm0-.6v-2.4c-.6.4-1.1.8-1.4 1.2-.2.3-.3.6-.3.9 0 .2.1.5.3.6.1.1.3.2.5.2.2-.1.5-.2.9-.5zM106.4 92.2v.9c.4-.4.7-.7 1.1-.9s.7-.3 1.1-.3c.5 0 .9.1 1.2.4s.5.6.6 1c.1.3.1.9.1 1.7v3c0 .6.1.9.2 1.1s.3.2.6.3v.3h-3.7v-.3c.3 0 .5-.2.6-.3.1-.1.1-.5.1-1v-3.2c0-.6 0-1-.1-1.1s-.1-.3-.2-.4c-.1-.1-.2-.1-.4-.1-.4 0-.9.3-1.2 1V98c0 .5.1.9.2 1s.3.2.6.3v.3h-3.7v-.3c.3 0 .5-.1.7-.3.1-.1.1-.5.1-1v-4.1c0-.6-.1-.9-.2-1s-.3-.2-.6-.3v-.3h2.9zM126.9 88.7v3.7h-.3c-.3-1-.9-1.8-1.6-2.3-.7-.5-1.5-.8-2.3-.8-.8 0-1.5.2-2 .7-.5.4-.9 1.1-1.1 1.9s-.3 1.6-.3 2.5c0 1 .1 1.9.4 2.7.2.8.6 1.3 1.2 1.7.5.4 1.2.5 1.9.5.3 0 .5 0 .8-.1.3-.1.5-.1.8-.2v-2.2c0-.4 0-.7-.1-.8-.1-.1-.2-.2-.4-.3s-.4-.1-.7-.1h-.2v-.3h5.1v.3c-.4 0-.7.1-.8.2-.2.1-.3.2-.4.4 0 .1-.1.3-.1.7v2.2c-.7.3-1.4.5-2.1.7-.7.2-1.5.2-2.3.2-1 0-1.8-.1-2.5-.4s-1.2-.6-1.8-1.1-.9-.9-1.2-1.5c-.4-.7-.5-1.5-.5-2.4 0-1.6.6-2.9 1.7-4s2.5-1.6 4.2-1.6c.5 0 1 0 1.4.1.2 0 .6.2 1.1.4.5.2.8.3.9.3.1 0 .3-.1.4-.2s.2-.3.3-.6h.5zM132.3 92c.6 0 1.2.2 1.8.5s1 .8 1.2 1.4c.3.6.4 1.3.4 2 0 1-.3 1.9-.8 2.6-.6.8-1.5 1.3-2.6 1.3s-1.9-.4-2.5-1.2-.9-1.7-.9-2.7c0-1 .3-2 .9-2.7.6-.8 1.4-1.2 2.5-1.2zm0 .6c-.3 0-.5.1-.7.3-.2.2-.3.6-.4 1.2-.1.6-.1 1.4-.1 2.5 0 .6 0 1.1.1 1.6.1.4.2.7.4.8s.4.3.6.3c.2 0 .4-.1.6-.2.2-.2.3-.4.4-.7.1-.5.2-1.5.2-3 0-.9 0-1.5-.1-1.8-.1-.3-.2-.6-.4-.7-.2-.3-.4-.3-.6-.3zM140.1 99.8l-2.5-5.7c-.3-.7-.5-1.1-.7-1.3-.1-.1-.3-.2-.5-.3v-.3h3.9v.3c-.2 0-.4 0-.5.1-.1.1-.2.2-.2.4s.1.6.3 1.1l1.2 2.7 1-2.4c.3-.7.4-1.2.4-1.4 0-.2-.1-.3-.2-.4s-.3-.2-.6-.2v-.3h2.4v.3c-.2 0-.4.1-.6.3-.1.1-.4.6-.7 1.2l-2.4 5.7h-.3zM151 95.6h-4c0 1 .3 1.7.8 2.3.4.4.8.6 1.3.6.3 0 .6-.1.9-.3.3-.2.5-.5.8-.9l.3.2c-.4.8-.8 1.4-1.3 1.7-.5.3-1 .5-1.7.5-1.1 0-1.9-.4-2.5-1.2-.4-.7-.7-1.5-.7-2.5 0-1.2.3-2.2 1-2.9.7-.7 1.4-1.1 2.3-1.1.7 0 1.4.3 1.9.9.6.6.9 1.5.9 2.7zm-1.9-.5c0-.8 0-1.4-.1-1.7-.1-.3-.2-.5-.4-.7-.1-.1-.3-.1-.4-.1-.3 0-.5.1-.7.4-.3.5-.5 1.1-.5 1.9v.3h2.1zM154.9 92.2v1.7c.5-.8.9-1.3 1.3-1.5s.7-.4 1.1-.4c.3 0 .5.1.7.3s.3.4.3.8c0 .3-.1.6-.3.8s-.4.3-.6.3c-.3 0-.5-.1-.7-.3s-.3-.3-.4-.3h-.2c-.2 0-.3.1-.4.2-.2.2-.4.4-.5.8-.2.5-.2 1.1-.2 1.7v2.1c0 .3 0 .5.1.6l.3.3c.1.1.3.1.6.1v.3h-4v-.3c.3 0 .5-.1.6-.3s.2-.5.2-1.2v-4c0-.4 0-.7-.1-.8-.1-.1-.1-.3-.2-.3s-.3-.1-.5-.1v-.3h2.9zM162 92.2v.9c.4-.4.7-.7 1.1-.9s.7-.3 1.1-.3c.5 0 .9.1 1.2.4s.5.6.6 1c.1.3.1.9.1 1.7v3c0 .6.1.9.2 1.1s.3.2.6.3v.3h-3.7v-.3c.3 0 .5-.2.6-.3.1-.1.1-.5.1-1v-3.2c0-.6 0-1-.1-1.1s-.1-.3-.2-.4-.2-.1-.4-.1c-.4 0-.9.3-1.2 1V98c0 .5.1.9.2 1s.3.2.6.3v.3H159v-.3c.3 0 .5-.1.7-.3.1-.1.1-.5.1-1v-4.1c0-.6-.1-.9-.2-1s-.3-.2-.6-.3v-.3h3zM170.9 92.2v1c.4-.4.8-.7 1.1-.9s.7-.3 1.1-.3c.5 0 .9.1 1.2.3s.6.6.7 1c.4-.5.8-.8 1.2-1s.8-.3 1.2-.3c.5 0 .9.1 1.2.3s.5.5.6.9.2.9.2 1.7v3c0 .6.1.9.2 1s.3.2.6.3v.3h-3.8v-.3c.3 0 .5-.1.7-.3.1-.1.1-.5.1-1v-3.1c0-.7 0-1.1-.1-1.2s-.1-.3-.2-.4-.2-.1-.4-.1-.5.1-.7.2-.5.4-.7.7v4c0 .5 0 .9.1 1 .1.2.3.3.7.3v.3h-3.8v-.3c.2 0 .4-.1.5-.2s.2-.2.2-.3.1-.4.1-.8v-3.1c0-.7 0-1.1-.1-1.2s-.1-.3-.3-.4-.3-.1-.4-.1c-.2 0-.4.1-.6.2-.2.2-.5.4-.8.8V98c0 .5.1.9.2 1s.3.3.6.3v.3H168v-.3c.3 0 .5-.1.7-.3.1-.1.1-.5.1-1v-4.1c0-.6-.1-.9-.2-1s-.3-.2-.6-.3v-.3h2.9zM187.4 95.6h-4c0 1 .3 1.7.8 2.3.4.4.8.6 1.3.6.3 0 .6-.1.9-.3s.5-.5.8-.9l.3.2c-.4.8-.8 1.4-1.3 1.7s-1 .5-1.7.5c-1.1 0-1.9-.4-2.5-1.2-.4-.7-.7-1.5-.7-2.5 0-1.2.3-2.2 1-2.9s1.4-1.1 2.3-1.1c.7 0 1.4.3 1.9.9s.9 1.5.9 2.7zm-1.9-.5c0-.8 0-1.4-.1-1.7s-.2-.5-.4-.7c-.1-.1-.3-.1-.4-.1-.3 0-.5.1-.7.4-.3.5-.5 1.1-.5 1.9v.3h2.1zM191.3 92.2v.9c.4-.4.7-.7 1.1-.9s.7-.3 1.1-.3c.5 0 .9.1 1.2.4s.5.6.6 1c.1.3.1.9.1 1.7v3c0 .6.1.9.2 1.1s.3.2.6.3v.3h-3.7v-.3c.3 0 .5-.2.6-.3.1-.1.1-.5.1-1v-3.2c0-.6 0-1-.1-1.1s-.1-.3-.2-.4-.2-.1-.4-.1c-.4 0-.9.3-1.2 1V98c0 .5.1.9.2 1s.3.2.6.3v.3h-3.7v-.3c.3 0 .5-.1.7-.3.1-.1.1-.5.1-1v-4.1c0-.6-.1-.9-.2-1s-.3-.2-.6-.3v-.3h2.9zM200.1 89.6v2.7h1.7v.7h-1.7v4.5c0 .4 0 .7.1.8s.1.2.2.3.2.1.3.1c.3 0 .7-.3 1-.8l.2.2c-.4 1-1.1 1.5-2.1 1.5-.5 0-.9-.1-1.2-.4s-.5-.5-.6-.9c-.1-.2-.1-.7-.1-1.4V93h-1v-.3c.7-.5 1.2-1 1.7-1.5s.9-1.1 1.2-1.7h.3z"/></g><g class="st1"><path d="M39 126.8v-.3h.4c.3 0 .5 0 .7-.1s.3-.2.4-.4c0-.1.1-.4.1-1v-7c0-.5 0-.9-.1-1-.1-.1-.2-.3-.3-.4-.2-.1-.4-.2-.7-.2H39v-.3h4.7c1.3 0 2.3.2 3.1.5.9.4 1.7 1.1 2.1 1.9.5.9.7 1.8.7 2.9 0 .7-.1 1.4-.4 2.1-.2.6-.5 1.1-.9 1.6-.4.4-.8.7-1.3 1-.5.2-1.1.4-1.8.6-.3.1-.8.1-1.5.1H39zm4.1-10v8.3c0 .4 0 .7.1.8 0 .1.1.2.2.2.1.1.3.1.6.1.9 0 1.5-.3 2-.9.6-.8.9-2 .9-3.7 0-1.4-.2-2.4-.6-3.3-.3-.6-.8-1.1-1.3-1.3-.4-.1-1.1-.2-1.9-.2zM57.1 122.9h-4c0 1 .3 1.7.8 2.3.4.4.8.6 1.3.6.3 0 .6-.1.9-.3.3-.2.5-.5.8-.9l.3.2c-.4.8-.8 1.4-1.3 1.7-.5.3-1 .5-1.7.5-1.1 0-1.9-.4-2.5-1.2-.4-.7-.7-1.5-.7-2.5 0-1.2.3-2.2 1-2.9.7-.7 1.4-1.1 2.3-1.1.7 0 1.4.3 1.9.9.6.6.9 1.5.9 2.7zm-1.9-.5c0-.8 0-1.4-.1-1.7-.1-.3-.2-.5-.4-.7-.1-.1-.3-.1-.4-.1-.3 0-.5.1-.7.4-.3.5-.5 1.1-.5 1.9v.3h2.1zM60.8 126.1v2.7c0 .4 0 .6.1.8l.3.3c.1.1.4.1.7.1v.3h-4.2v-.3c.3 0 .6-.1.7-.3.1-.1.2-.4.2-.9V121c0-.5-.1-.8-.2-1-.1-.1-.4-.2-.7-.2v-.3h3.1v1c.3-.4.5-.6.8-.8.4-.2.8-.4 1.2-.4.5 0 1 .2 1.5.5.4.3.8.8 1 1.4.2.6.3 1.2.3 1.9s-.1 1.4-.4 2c-.2.6-.6 1.1-1 1.4-.5.3-1 .5-1.5.5-.4 0-.8-.1-1.1-.3-.2-.1-.5-.3-.8-.6zm0-.8c.4.6.9 1 1.4 1 .3 0 .5-.1.7-.4.3-.4.4-1.3.4-2.5 0-1.3-.1-2.1-.4-2.6-.2-.3-.5-.5-.8-.5-.5 0-1 .4-1.3 1.1v3.9zM70.9 125.7c-.9.8-1.7 1.2-2.4 1.2-.4 0-.8-.1-1-.4-.3-.3-.4-.6-.4-1 0-.6.2-1.1.7-1.5.5-.4 1.5-1 3.1-1.8v-.7c0-.6 0-.9-.1-1-.1-.1-.2-.3-.3-.4-.2-.1-.4-.2-.6-.2-.3 0-.6.1-.8.2-.1.1-.2.2-.2.3 0 .1.1.2.2.4.2.2.3.4.3.6 0 .3-.1.5-.3.7-.2.2-.4.3-.7.3-.3 0-.6-.1-.8-.3-.2-.2-.3-.4-.3-.7 0-.4.1-.7.4-1.1s.7-.6 1.2-.8 1.1-.3 1.7-.3c.7 0 1.2.1 1.6.4.4.3.7.6.8 1 .1.2.1.7.1 1.5v3.4c0 .1.1.1.1.2.1 0 .1.1.2.1s.3-.1.4-.3l.2.2c-.3.4-.5.7-.8.8-.3.2-.6.3-.9.3-.4 0-.7-.1-1-.3s-.3-.4-.4-.8zm0-.5v-2.4c-.6.4-1.1.8-1.4 1.2-.2.3-.3.6-.3.9 0 .2.1.5.3.6.1.1.3.2.5.2.3-.1.6-.2.9-.5zM77.9 119.5v1.7c.5-.8.9-1.3 1.3-1.5.4-.2.7-.4 1.1-.4.3 0 .5.1.7.3.2.2.3.4.3.8 0 .3-.1.6-.3.8-.2.2-.4.3-.6.3-.3 0-.5-.1-.7-.3s-.3-.3-.4-.3h-.2c-.2 0-.3.1-.4.2-.2.2-.4.4-.5.8-.2.5-.2 1.1-.2 1.7v2.1c0 .3 0 .5.1.6l.3.3c.1.1.3.1.6.1v.3h-4v-.3c.3 0 .5-.1.6-.3.1-.1.2-.5.2-1.2v-4c0-.4 0-.7-.1-.8-.1-.1-.1-.3-.2-.3-.1-.1-.3-.1-.5-.1v-.3h2.9zM84.9 116.8v2.7h1.7v.8h-1.7v4.5c0 .4 0 .7.1.8s.1.2.2.3c.1.1.2.1.3.1.3 0 .7-.3 1-.8l.2.2c-.4 1-1.1 1.5-2.1 1.5-.5 0-.9-.1-1.2-.4s-.5-.5-.6-.9c-.1-.2-.1-.7-.1-1.4v-3.9h-1v-.3c.7-.5 1.2-1 1.7-1.5s.9-1.1 1.2-1.7h.3zM90.4 119.5v1c.4-.4.8-.7 1.1-.9.3-.2.7-.3 1.1-.3.5 0 .9.1 1.2.3.3.2.6.6.7 1 .4-.5.8-.8 1.2-1s.8-.3 1.2-.3c.5 0 .9.1 1.2.3.3.2.5.5.6.9s.2.9.2 1.7v3c0 .6.1.9.2 1s.3.2.6.3v.3h-3.8v-.3c.3 0 .5-.1.7-.3.1-.1.1-.5.1-1v-3.1c0-.7 0-1.1-.1-1.2-.1-.2-.1-.3-.2-.4-.1-.1-.2-.1-.4-.1s-.5.1-.7.2c-.2.2-.5.4-.7.7v3.9c0 .5 0 .9.1 1 .1.2.3.3.7.3v.3h-3.8v-.3c.2 0 .4-.1.5-.2s.2-.2.2-.3.1-.4.1-.8v-3.1c0-.7 0-1.1-.1-1.2-.1-.2-.1-.3-.3-.4-.1-.1-.3-.1-.4-.1-.2 0-.4.1-.6.2-.2.2-.5.4-.8.8v3.9c0 .5.1.9.2 1s.3.3.6.3v.3h-3.8v-.3c.3 0 .5-.1.7-.3.1-.1.1-.5.1-1v-4.1c0-.6-.1-.9-.2-1s-.3-.2-.6-.3v-.3h3.2zM106.9 122.9h-4c0 1 .3 1.7.8 2.3.4.4.8.6 1.3.6.3 0 .6-.1.9-.3.3-.2.5-.5.8-.9l.3.2c-.4.8-.8 1.4-1.3 1.7-.5.3-1 .5-1.7.5-1.1 0-1.9-.4-2.5-1.2-.4-.7-.7-1.5-.7-2.5 0-1.2.3-2.2 1-2.9.7-.7 1.4-1.1 2.3-1.1.7 0 1.4.3 1.9.9.5.6.8 1.5.9 2.7zm-2-.5c0-.8 0-1.4-.1-1.7-.1-.3-.2-.5-.4-.7-.1-.1-.3-.1-.4-.1-.3 0-.5.1-.7.4-.3.5-.5 1.1-.5 1.9v.3h2.1zM110.7 119.5v.9c.4-.4.7-.7 1.1-.9s.7-.3 1.1-.3c.5 0 .9.1 1.2.4s.5.6.6 1c.1.3.1.9.1 1.7v2.8c0 .6.1.9.2 1.1s.3.2.6.3v.3H112v-.3c.3 0 .5-.2.6-.3.1-.1.1-.5.1-1V122c0-.6 0-1-.1-1.1s-.1-.3-.2-.4c-.1-.1-.2-.1-.4-.1-.4 0-.9.3-1.2 1v3.9c0 .5.1.9.2 1s.3.2.6.3v.3h-3.7v-.3c.3 0 .5-.1.7-.3.1-.1.1-.5.1-1v-4.1c0-.6-.1-.9-.2-1s-.3-.2-.6-.3v-.3h2.8zM119.6 116.8v2.7h1.7v.8h-1.7v4.5c0 .4 0 .7.1.8s.1.2.2.3c.1.1.2.1.3.1.3 0 .7-.3 1-.8l.2.2c-.4 1-1.1 1.5-2.1 1.5-.5 0-.9-.1-1.2-.4s-.5-.5-.6-.9c-.1-.2-.1-.7-.1-1.4v-3.9h-1v-.3c.7-.5 1.2-1 1.7-1.5s.9-1.1 1.2-1.7h.3zM129.4 119.3c.6 0 1.2.2 1.8.5s1 .8 1.2 1.4c.3.6.4 1.3.4 2 0 1-.3 1.9-.8 2.6-.6.8-1.5 1.3-2.6 1.3s-1.9-.4-2.5-1.2-.9-1.7-.9-2.7c0-1 .3-2 .9-2.7.6-.8 1.5-1.2 2.5-1.2zm.1.5c-.3 0-.5.1-.7.3-.2.2-.3.6-.4 1.2-.1.6-.1 1.4-.1 2.5 0 .6 0 1.1.1 1.6.1.4.2.7.4.8s.4.3.6.3c.2 0 .4-.1.6-.2.2-.2.3-.4.4-.7.1-.5.2-1.5.2-3 0-.9 0-1.5-.1-1.8-.1-.3-.2-.6-.4-.7-.2-.2-.4-.3-.6-.3zM137.2 120.3v5.1c0 .5.1.8.2.9.2.2.5.3.9.3v.3H134v-.3c.3 0 .6 0 .7-.1l.3-.3c.1-.1.1-.4.1-.8v-5.1H134v-.8h1.1v-.9c0-.8.3-1.4.8-1.9s1.3-.8 2.2-.8c.6 0 1.1.1 1.4.4.3.2.5.5.5.8 0 .2-.1.4-.3.6-.2.2-.4.3-.8.3-.3 0-.5-.1-.6-.2-.2-.1-.2-.3-.2-.5v-.3-.2c0-.1 0-.2-.1-.2-.1-.1-.2-.1-.3-.1-.2 0-.3.1-.4.2s-.2.3-.2.6v2.3h1.1v.8h-1zM147.2 121.7v3.3c0 .5 0 .9.1 1 .1.1.2.3.4.4.2.1.4.2.7.2h.4v.3h-5.5v-.3h.4c.3 0 .6-.1.7-.2.1-.1.2-.2.3-.4.1-.1.1-.5.1-1v-7c0-.5 0-.9-.1-1-.1-.1-.2-.3-.3-.4-.2-.1-.4-.2-.7-.2h-.4v-.3h5.5v.3h-.4c-.3 0-.6.1-.7.2-.1.1-.2.2-.3.4-.1.1-.1.5-.1 1v3h3.7v-3c0-.5 0-.9-.1-1-.1-.1-.2-.3-.4-.4-.2-.1-.4-.2-.7-.2h-.3v-.3h5.5v.3h-.3c-.3 0-.6.1-.7.2-.1.1-.2.2-.3.4-.1.1-.1.5-.1 1v7c0 .5 0 .9.1 1s.2.3.4.4.4.2.7.2h.3v.3h-5.5v-.3h.3c.3 0 .6-.1.7-.2.1-.1.2-.2.3-.4.1-.1.1-.5.1-1v-3.3h-3.8zM162.8 119.5v5.7c0 .6.1.9.2 1s.3.2.6.3v.3h-3v-1c-.3.4-.7.7-1 .9s-.7.3-1.2.3c-.4 0-.8-.1-1.1-.4s-.5-.5-.6-.9-.2-.9-.2-1.8V121c0-.6-.1-.9-.2-1s-.3-.2-.6-.3v-.3h3v5c0 .5 0 .9.1 1s.1.3.2.3.2.1.4.1.4 0 .5-.1c.2-.1.5-.4.8-.8V121c0-.6-.1-.9-.2-1s-.3-.2-.6-.3v-.3h2.9zM167.7 119.5v1c.4-.4.8-.7 1.1-.9s.7-.3 1.1-.3c.5 0 .9.1 1.2.3s.6.6.7 1c.4-.5.8-.8 1.2-1s.8-.3 1.2-.3c.5 0 .9.1 1.2.3s.5.5.6.9.2.9.2 1.7v3c0 .6.1.9.2 1s.3.2.6.3v.3h-3.8v-.3c.3 0 .5-.1.7-.3.1-.1.1-.5.1-1v-3.1c0-.7 0-1.1-.1-1.2s-.1-.3-.2-.4-.2-.1-.4-.1-.5.1-.7.2-.5.4-.7.7v3.9c0 .5 0 .9.1 1 .1.2.3.3.7.3v.3H169v-.3c.2 0 .4-.1.5-.2s.2-.2.2-.3.1-.4.1-.8v-3.1c0-.7 0-1.1-.1-1.2s-.1-.3-.3-.4-.3-.1-.4-.1c-.2 0-.4.1-.6.2-.2.2-.5.4-.8.8v3.9c0 .5.1.9.2 1s.3.3.6.3v.3h-3.8v-.3c.3 0 .5-.1.7-.3.1-.1.1-.5.1-1v-4.1c0-.6-.1-.9-.2-1s-.3-.2-.6-.3v-.3h3.1zM182 125.7c-.9.8-1.7 1.2-2.4 1.2-.4 0-.8-.1-1-.4s-.4-.6-.4-1c0-.6.2-1.1.7-1.5s1.5-1 3.1-1.8v-.7c0-.6 0-.9-.1-1s-.2-.3-.3-.4-.4-.2-.6-.2c-.3 0-.6.1-.8.2-.1.1-.2.2-.2.3 0 .1.1.2.2.4.2.2.3.4.3.6 0 .3-.1.5-.3.7s-.4.3-.7.3c-.3 0-.6-.1-.8-.3s-.3-.4-.3-.7c0-.4.1-.7.4-1.1s.7-.6 1.2-.8 1.1-.3 1.7-.3c.7 0 1.2.1 1.6.4s.7.6.8 1c.1.2.1.7.1 1.5v3.4c0 .1.1.1.1.2s.1.1.2.1.3-.1.4-.3l.2.2c-.3.4-.5.7-.8.8s-.6.3-.9.3c-.4 0-.7-.1-1-.3s-.3-.4-.4-.8zm0-.5v-2.4c-.6.4-1.1.8-1.4 1.2-.2.3-.3.6-.3.9 0 .2.1.5.3.6.1.1.3.2.5.2.3-.1.6-.2.9-.5zM189 119.5v.9c.4-.4.7-.7 1.1-.9s.7-.3 1.1-.3c.5 0 .9.1 1.2.4s.5.6.6 1c.1.3.1.9.1 1.7v2.8c0 .6.1.9.2 1.1s.3.2.6.3v.3h-3.7v-.3c.3 0 .5-.2.6-.3.1-.1.1-.5.1-1V122c0-.6 0-1-.1-1.1s-.1-.3-.2-.4-.2-.1-.4-.1c-.4 0-.9.3-1.2 1v3.9c0 .5.1.9.2 1s.3.2.6.3v.3H186v-.3c.3 0 .5-.1.7-.3.1-.1.1-.5.1-1v-4.1c0-.6-.1-.9-.2-1s-.3-.2-.6-.3v-.3h3zM205.9 116l.1 3.5h-.3c-.2-.9-.5-1.6-1.1-2.1s-1.2-.8-1.9-.8c-.5 0-1 .1-1.3.4s-.5.6-.5 1c0 .2.1.4.2.6.2.2.4.5.7.7.2.2.8.5 1.7.9 1.2.6 2.1 1.2 2.5 1.7.4.5.6 1.2.6 1.9 0 .9-.3 1.6-1 2.3s-1.6 1-2.6 1c-.3 0-.6 0-.9-.1s-.7-.2-1.1-.4c-.2-.1-.5-.2-.6-.2-.1 0-.3.1-.4.2s-.3.3-.4.5h-.3v-4h.3c.2 1.1.7 2 1.3 2.6s1.4.9 2.1.9c.6 0 1-.2 1.4-.5s.5-.7.5-1.1c0-.2-.1-.5-.2-.7s-.3-.5-.6-.7-.8-.5-1.4-.8c-1-.5-1.7-.9-2.1-1.2s-.7-.7-1-1.1-.3-.9-.3-1.4c0-.8.3-1.6.9-2.2s1.4-.9 2.3-.9c.3 0 .7 0 1 .1.2.1.5.2.9.3s.6.3.7.3c.1 0 .2 0 .3-.1s.2-.3.2-.6h.3zM214 122.9h-4c0 1 .3 1.7.8 2.3.4.4.8.6 1.3.6.3 0 .6-.1.9-.3s.5-.5.8-.9l.3.2c-.4.8-.8 1.4-1.3 1.7s-1 .5-1.7.5c-1.1 0-1.9-.4-2.5-1.2-.4-.7-.7-1.5-.7-2.5 0-1.2.3-2.2 1-2.9s1.4-1.1 2.3-1.1c.7 0 1.4.3 1.9.9s.8 1.5.9 2.7zm-1.9-.5c0-.8 0-1.4-.1-1.7s-.2-.5-.4-.7c-.1-.1-.3-.1-.4-.1-.3 0-.5.1-.7.4-.3.5-.5 1.1-.5 1.9v.3h2.1zM217.9 119.5v1.7c.5-.8.9-1.3 1.3-1.5s.7-.4 1.1-.4c.3 0 .5.1.7.3s.3.4.3.8c0 .3-.1.6-.3.8s-.4.3-.6.3c-.3 0-.5-.1-.7-.3s-.3-.3-.4-.3h-.2c-.2 0-.3.1-.4.2-.2.2-.4.4-.5.8-.2.5-.2 1.1-.2 1.7v2.1c0 .3 0 .5.1.6l.3.3c.1.1.3.1.6.1v.3h-3.9v-.3c.3 0 .5-.1.6-.3s.2-.5.2-1.2v-4c0-.4 0-.7-.1-.8-.1-.1-.1-.3-.2-.3s-.3-.1-.5-.1v-.3h2.8zM225.3 127l-2.5-5.7c-.3-.7-.5-1.1-.7-1.3-.1-.1-.3-.2-.5-.3v-.3h3.9v.3c-.2 0-.4 0-.5.1-.1.1-.2.2-.2.4s.1.6.3 1.1l1.2 2.7 1-2.4c.3-.7.4-1.2.4-1.4 0-.2-.1-.3-.2-.4s-.3-.2-.6-.2v-.3h2.4v.3c-.2 0-.4.1-.6.3s-.4.6-.7 1.2l-2.4 5.7h-.3zM232.8 119.5v5.8c0 .5.1.8.2 1s.4.2.7.2v.3h-3.9v-.3c.3 0 .6-.1.7-.3.1-.1.2-.4.2-1V121c0-.5-.1-.8-.2-1s-.4-.2-.7-.2v-.3h3zm-1.1-3.5c.3 0 .6.1.9.4s.4.5.4.9-.1.6-.4.9-.5.4-.9.4-.6-.1-.9-.4-.4-.5-.4-.9.1-.6.4-.9.6-.4.9-.4zM240.4 124.9l.2.2c-.3.6-.8 1.1-1.3 1.4s-1.1.5-1.6.5c-1 0-1.8-.4-2.3-1.1s-.9-1.6-.9-2.6.3-1.9.8-2.6c.6-.9 1.5-1.4 2.6-1.4.8 0 1.4.2 1.8.6s.7.8.7 1.3c0 .3-.1.5-.3.7s-.4.3-.7.3c-.3 0-.6-.1-.8-.3s-.3-.6-.4-1.1c0-.3-.1-.6-.2-.7s-.3-.2-.4-.2c-.2 0-.5.1-.6.4-.3.4-.4 1-.4 1.8 0 .7.1 1.3.3 2s.5 1.1.9 1.4c.3.2.6.3 1 .3.3 0 .5-.1.7-.2s.6-.3.9-.7zM247.7 122.9h-4c0 1 .3 1.7.8 2.3.4.4.8.6 1.3.6.3 0 .6-.1.9-.3s.5-.5.8-.9l.3.2c-.4.8-.8 1.4-1.3 1.7s-1 .5-1.7.5c-1.1 0-1.9-.4-2.5-1.2-.4-.7-.7-1.5-.7-2.5 0-1.2.3-2.2 1-2.9s1.4-1.1 2.3-1.1c.7 0 1.4.3 1.9.9s.9 1.5.9 2.7zm-1.9-.5c0-.8 0-1.4-.1-1.7s-.2-.5-.4-.7c-.1-.1-.3-.1-.4-.1-.3 0-.5.1-.7.4-.3.5-.5 1.1-.5 1.9v.3h2.1zM253.3 119.3l.1 2.5h-.3c-.3-.7-.6-1.2-1-1.5s-.7-.4-1-.4c-.2 0-.4.1-.5.2s-.2.3-.2.5c0 .1.1.3.2.4.2.2.6.6 1.4 1.1s1.3 1 1.5 1.3.4.8.4 1.2c0 .4-.1.8-.3 1.2s-.5.7-.9.9-.8.3-1.2.3c-.3 0-.8-.1-1.4-.3-.2-.1-.3-.1-.3-.1-.2 0-.3.1-.4.4h-.4l-.1-2.6h.3c.2.7.6 1.2 1 1.5s.8.5 1.2.5c.2 0 .5-.1.6-.2s.2-.3.2-.6c0-.2-.1-.5-.2-.6s-.5-.5-1-.8c-.8-.6-1.3-1-1.5-1.3-.3-.4-.5-.9-.5-1.4 0-.6.2-1.1.6-1.5s.9-.7 1.7-.7c.4 0 .8.1 1.1.3.1.1.3.1.3.1.1 0 .2 0 .2-.1s.1-.1.3-.3h.1z"/></g></svg>