<svg id="Layer_1" xmlns="http://www.w3.org/2000/svg" viewBox="-99 0 400 200"><style>.st0{enable-background:new}</style><path d="M-81.8 74.9h8.7c2.4 0 4.3 1.1 5.2 2.4V57.1c0-.4.4-.8.8-.8h5.7v53.6c0 1.3-1 2.4-2.4 2.4h-17.8c-6 0-10.9-4.9-10.9-10.9V85.8c-.1-6 4.6-10.9 10.7-10.9zm-4.3 26.8c0 2.5 1.9 4.4 4.4 4.4h12.8c.4 0 .8-.3.8-.7V84.9c-.1-2-1.7-3.6-3.6-3.8h-10.1c-2.5 0-4.4 1.9-4.4 4.4l.1 16.2zm44.4 11.1c-6 0-10.9-4.9-10.9-10.9V85.3c0-6 4.9-10.9 10.9-10.9h9.9c6 0 11 4.9 11 10.9v16.6c0 6-4.9 10.9-11 10.9h-9.9zM-46.1 85v17.2c0 2.5 1.9 4.5 4.4 4.5h9.9c2.5 0 4.5-2 4.5-4.5V85c0-2.4-2-4.4-4.5-4.4h-9.9c-2.5 0-4.4 2-4.4 4.4zm79.5.8v26.4h-5.7c-.4 0-.8-.4-.8-.8V85.5c0-2.4-1.9-4.4-4.4-4.4h-9.7c.7.4 1.3 1.2 1.3 2.1v29.1H8.4c-.4 0-.8-.4-.8-.8V81.9c0-.4-.4-.8-.8-.8H-4.5c-.4 0-.7.3-.7.7v29.7c0 .4-.4.8-.8.8h-5.7V79.8c0-2.7 2.2-4.9 4.9-4.9h29.3c6 0 10.9 4.9 10.9 10.9zm38.2-.4v24.5c0 1.3-1 2.4-2.4 2.4H51.7c-6 0-10.9-4.9-10.9-10.9v-2.3c0-6 4.9-10.9 10.9-10.9h12.6c.4 0 .8-.4.8-.8v-1.9c0-2.4-1.6-4.4-4.5-4.4H45.8c-.4 0-.8-.4-.8-.8V75h15.7c6-.1 10.9 3.6 10.9 10.4zm-19.9 20.5h12.7c.4 0 .7-.4.7-.8V93.2c-.4.7-1.1 1-1.9 1.1H51.7c-2.5 0-4.4 1.9-4.4 4.4v2.8c0 2.5 2 4.4 4.4 4.4zM87.2 59v6.1h-5.7c-.4 0-.8-.4-.8-.8v-6.1h5.7c.4 0 .8.4.8.8zm0 16.7v36.6h-5.7c-.4 0-.8-.4-.8-.8V74.9h5.7c.4 0 .8.3.8.8zm41.1 10.1v26.4h-5.7c-.4 0-.8-.4-.8-.8V85.5c0-2.4-1.9-4.4-4.4-4.4h-13.5c-.4 0-.8.4-.8.8v29.6c0 .4-.4.8-.8.8h-5.7V79.8c0-2.7 2.2-4.9 4.9-4.9h16c6 0 10.8 4.9 10.8 10.9zM163.9 84c0-3.3-2.7-6-5.9-6h-16.3c-.4 0-.8.4-.8.8v32.6c0 .4-.4.8-.8.8h-2.5v-34c0-1.8 1.5-3.4 3.3-3.4h17.2c5.1 0 9.3 4.3 9.3 9.4v28h-2.6c-.4 0-.7-.4-.7-.8V84h-.2zm40 .3v27.2c0 .4-.4.8-.8.8h-18.7c-5.2 0-9.3-4.2-9.3-9.3v-3.9c0-5.2 4.1-9.4 9.3-9.4h15.4c.4 0 .7-.3.8-.8V84c0-3.3-2.6-6-5.9-6h-15.6c-.4 0-.7-.4-.7-.8v-2.3h16.3c5.1 0 9.2 4.2 9.2 9.4zm-3.4 24.7V92.5c-.1.1-.4.3-.6.3h-15.6c-3.3 0-5.9 2.7-5.9 6v4.3c0 3.3 2.6 5.9 5.9 5.9h16.2zm55.4-24.7v28h-2.6c-.4 0-.8-.4-.8-.8V84c0-3.3-2.6-6-5.8-6h-11.8c.7.3 1.2 1.1 1.2 2.1v32.2h-2.5c-.4 0-.8-.4-.8-.8V79.3c0-.7-.6-1.3-1.3-1.3h-14.3c-.4 0-.8.4-.8.8v32.6c0 .4-.4.8-.8.8h-2.5v-34c0-1.8 1.5-3.4 3.3-3.4h30.5c4.8.1 9 4.4 9 9.5zm8.9 18.9V83.9c0-5.6 4-9 9-9h11.8c5.1 0 9 3.4 9 9v10.2c0 .5-.4.9-.8.9h-24c-.7 0-1.3-.4-1.6-.9h-.1v9.1c0 3.3 2.6 5.9 5.9 5.9h19.2c.4 0 .8.4.8.8v2.4h-20c-5.1-.1-9.2-3.4-9.2-9.1zm9-25.2c-3.2 0-5.7 2.7-5.7 6v7c0 .4.3.7.8.8h22.3V84c0-3.3-2.5-6-5.7-6h-11.7zM207.4 134.4v1.5h-1.3c-.2 0-.4-.2-.4-.4V134h1.3c.2 0 .4.2.4.4zm16.8-14.3v19.5c0 2.2-1.8 4-4 4h-7.5v-1.1c0-.2.2-.4.3-.4h7.2c1.4 0 2.5-1.1 2.5-2.5v-4.4c-.1.3-.4.4-.9.4h-5.9c-2.2 0-4-1.8-4-4v-8c0-2.2 1.8-4 4-4h7.9c.3.2.4.4.4.5zm-2 14.3c.3 0 .6-.3.6-.6V121H216c-1.4 0-2.5 1.2-2.5 2.6v8.3c0 1.4 1.1 2.6 2.5 2.6h6.2v-.1zm9.8 1.7c-2.2 0-4-1.8-4-4v-8.4c0-2.2 1.8-4 4-4h4.8c2.2 0 3.9 1.8 3.9 4v8.4c0 2.2-1.8 4-3.9 4H232zm0-15.2c-1.4 0-2.5 1.2-2.5 2.6v8.7c0 1.4 1.1 2.5 2.5 2.5h4.8c1.4 0 2.5-1.1 2.5-2.5v-8.7c0-1.4-1.1-2.6-2.5-2.6H232zm10.1-1.2h1.2c.2 0 .4.1.5.3l5.7 13.6 5.7-13.6c.1-.2.3-.3.5-.3h1.2l-6.8 15.8c-.1.2-.3.3-.5.3h-.3c-.2 0-.4-.2-.5-.3l-6.7-15.8zm18.7 14.7v1.5h-1.3c-.2 0-.4-.2-.4-.4V134h1.3c.2 0 .4.2.4.4zm16.6-10.6v11.7c0 .2-.2.4-.4.4h-8.1c-2.2 0-4-1.8-4-4v-1.7c0-2.2 1.8-4 4-4h6.6c.2 0 .3-.1.4-.4v-2.1c0-1.4-1.1-2.6-2.5-2.6h-6.7c-.2 0-.3-.2-.3-.4v-1h7c2.2 0 4 1.8 4 4.1zm-1.4 10.7v-7.1c-.1.1-.2.1-.3.1H269c-1.4 0-2.5 1.2-2.5 2.6v1.9c0 1.4 1.1 2.5 2.5 2.5h7zm5.3-14.8h1.1c.2 0 .4.2.4.4v11.8c0 1.4 1.1 2.5 2.5 2.5h4.8c1.4 0 2.5-1.1 2.5-2.5v-11.8c0-.2.2-.4.4-.4h1.1v12.1c0 2.2-1.8 4-3.9 4h-4.8c-2.2 0-4-1.8-4-4v-12.1h-.1z" class="st0"/></svg>