<svg id="Layer_1" xmlns="http://www.w3.org/2000/svg" viewBox="0 0 400 200"><style>.st0{fill:#a3a3a3}.st1{fill:#afafaf}.st2{fill:#797979}.st3{opacity:.48;fill:#efefef;enable-background:new}.st4{opacity:.25}.st4,.st5{fill:#efefef;enable-background:new}.st5{opacity:.3}.st6{opacity:.55}.st6,.st7{fill:#efefef;enable-background:new}.st7{opacity:.15}.st8{fill:#939393}.st9{fill:#595959}.st10{fill:#7c7c7c}.st11,.st12{fill:#FFF}.st12{opacity:.85;stroke:#FFF;stroke-miterlimit:10;enable-background:new}.st13{opacity:.95}.st13,.st14{fill:#FFF;stroke:#FFF;stroke-miterlimit:10;enable-background:new}.st14{opacity:.8}</style><path class="st0" d="M83.8 185c-1.9-1-3.8-1.9-5.7-3-8.3-4.7-16.6-9.5-24.8-14.4L30 154.1c-6.4-3.7-12.6-7.3-19-10.9-.7-.4-.9-.9-.9-1.6V58.9c0-.5.3-1 .5-1.4 1.7 1.1 3.5 2.5 5.3 3.5 5.3 3.1 10.7 6.2 16 9.1.9.5 1.8.9 2.9 1.3l-.1.5v55.8c0 .4.4.8.6 1.2l1.1.8c15.9 9.1 31.7 18.3 47.6 27.5v26.9c-.1.2-.1.6-.2.9z"/><path class="st1" d="M34.8 71.4c-.9-.4-1.9-.8-2.9-1.3-5.3-3-10.7-6-16-9.1-1.8-1-3.6-2.4-5.3-3.5L16 54c7-4.1 14-8.1 21-12.1 7.1-4.1 14.1-8.1 21.1-12.2C64.8 25.9 71.4 22 78 18.1c1.7-1 3.5-2.1 5.2-3 .4-.2 1.2-.1 1.7.2 5.1 2.9 10.2 5.8 15.2 8.7 6.2 3.6 12.3 7.1 18.4 10.7l18.7 10.8 19.4 11.2c.3.2.6.5.9.8l-.8.7L136.3 70c-1 .6-2.1 1-3.1 1.4-6.7-3.8-13.2-7.6-19.9-11.5-9.5-5.5-19.1-11-28.6-16.4-.3-.2-.7-.1-1-.1l-.4.1c-12 7-24 13.9-36 20.8-4.2 2.4-8.4 4.7-12.5 7.1z"/><path class="st2" d="M133.1 71.4l3.1-1.4c6.9-3.9 13.6-7.8 20.4-11.8.3-.2.5-.4.8-.7.2.4.4.9.4 1.3l-.1 3.6c0 25.5-.1 51.1.1 76.6 0 3.1-.9 4.4-3.5 5.8-13.9 7.9-27.8 16-41.6 24-9.2 5.3-18.5 10.7-27.7 15.9-.4.2-.9.2-1.3.3l.1-1.1v-27c.8-.4 1.6-.7 2.5-1.1 15.3-8.8 30.6-17.6 45.9-26.5.8-.5 1.1-1 1.1-1.9V72c0-.2-.1-.4-.2-.6z"/><path class="st3" d="M34.8 71.4l12.3-7.1c12.1-6.9 24.1-13.8 36.2-20.8.1-.1.3-.1.4-.1.2.8.5 1.5.5 2.4v22.1c0 1.2-.2 2.5-.3 3.7-1 .6-1.9 1.1-3 1.7-7.2 4.1-14.5 8.3-21.6 12.4l-.6-.2c-5.6-3.3-11.3-6.5-16.9-9.7l-7.1-3.9c.1-.2.1-.3.1-.5z"/><path class="st4" d="M83.9 157.1C68 148 52.2 138.9 36.4 129.6c-.4-.2-.7-.5-1.1-.8.3-.4.6-.9 1-1.1 1.8-1.1 3.8-2.2 5.7-3.3l17.3-10c1.3.8 2.8 1.5 4.1 2.4 6.8 3.9 13.4 7.8 20.2 11.6l.3.3v28.4z"/><path class="st5" d="M59.4 114.5c-5.7 3.4-11.6 6.7-17.3 10l-5.7 3.3c-.4.2-.7.8-1 1.1-.2-.4-.6-.8-.6-1.2V71.9l7.1 3.9 16.9 9.7.6.2v28.8z"/><path class="st6" d="M83.9 71.6c.1-1.2.3-2.5.3-3.7V45.8c0-.8-.4-1.5-.5-2.4.4 0 .8-.1 1 .1l28.6 16.4c6.7 3.8 13.2 7.6 19.9 11.5l.3.5-.9.2-18 10.4-5.7 3.5c-.1 0-.1 0-.2-.1-.5-.4-1-.8-1.5-1.1l-8.1-4.7c-5.1-2.9-10.2-5.6-15.2-8.5z"/><path class="st7" d="M108.8 86.1l5.7-3.5c5.9-3.5 12-6.9 18-10.4.3-.1.6-.2.9-.2v55.4c0 .9-.3 1.5-1.1 1.9-15.3 8.8-30.6 17.6-45.9 26.5-.8.4-1.6.8-2.5 1.1v-28.3c7.9-4.6 15.9-9.1 23.8-13.6.8-.4 1-.9 1-1.8.1-9.1.1-18.1.1-27.1z"/><path class="st8" d="M83.9 71.6c5 2.9 9.9 5.7 15 8.5 2.7 1.5 5.4 3.1 8.1 4.7.5.3 1 .7 1.5 1.1-.7.4-1.3.7-2.1 1.1l-22.6 13L73 93.8c-4.6-2.7-9.2-5.3-13.8-7.9v-.3c7.2-4.1 14.5-8.3 21.6-12.4 1.2-.5 2.2-1 3.1-1.6z"/><path class="st9" d="M83.9 100.1l22.6-13c.7-.4 1.3-.7 2.1-1.1.1 0 .1 0 .2.1v27.1c0 .9-.2 1.4-1 1.8-8 4.5-15.9 9.1-23.8 13.6l-.3-.3c.1-.6.3-1.1.3-1.7-.1-8.8-.1-17.7-.1-26.5z"/><path class="st10" d="M83.9 100.1v26.6c0 .6-.2 1.1-.3 1.7-6.8-3.9-13.4-7.8-20.2-11.6-1.3-.8-2.7-1.5-4.1-2.4V86c4.6 2.7 9.2 5.3 13.8 7.9 3.8 2.1 7.3 4.2 10.8 6.2z"/><path id="Cc3EKq.tif_1_" class="st11" d="M272.1 117.4c2.2-13.2 4.4-26.5 6.7-39.8-1.4-.2-2.7-.3-4-.4v-7.9h17.8v8c-1 .1-2.2.3-3.2.3-.7 0-1 .3-1.1 1-2.2 11.9-4.3 23.7-6.4 35.6-.9 5.1-1.8 10.3-2.8 15.3-.1.3-.5.9-.8.9-4.2.1-8.5 0-12.8 0-3-13.3-5.8-26.7-8.8-39.9h-.2l-1.1 4.9c-2.5 11.4-4.9 22.8-7.5 34-.1.4-.6.9-.9.9-4.2.1-8.5 0-12.8 0-.4-2.5-.9-4.9-1.3-7.3-2.3-12.5-4.5-25-6.8-37.6-.4-2.3-.9-4.5-1.2-6.8-.1-.9-.5-1.1-1.3-1.2-.9-.1-1.9-.2-2.9-.3v-8h17.8V77c-1.2.1-2.5.3-3.9.4 2.3 13.4 4.4 26.8 6.7 40.1h.3l8.5-39.6h13.3c2.9 13.1 5.6 26.2 8.5 39.4 0 .1.1.1.2.1zm25.6-40.1v-8.1h1.3c7.7 0 15.3-.1 23 .1 3.7.1 7.5.5 11.1 1.4 6.8 1.7 10.2 6.5 10.5 13.3.2 4.3-.4 8.3-3.3 11.8l-2.6 3.4c2.3 1.4 4.4 4 5.3 7.4 1.2 4.5 1.1 9-.4 13.4-1.6 4.4-5 7-9.3 8.5-4.1 1.4-8.4 1.7-12.6 1.8-7.4.1-14.9 0-22.2 0-.2 0-.3 0-.6-.1v-7.9c1.3-.2 2.8-.4 4.3-.6V79.2c0-1.2-.4-1.7-1.6-1.7-1 .2-1.9 0-2.9-.2zm13.9 44.4l1.4.1c3.3 0 6.6 0 9.8-.1 1.9-.1 3.9-.4 5.7-.8 3.2-.8 5.1-2.8 5.5-6.2.1-.8.1-1.7.1-2.7 0-5-2.3-7.9-7.3-8.6-3.6-.5-7.4-.3-11-.4h-4.3c.1 6.4.1 12.6.1 18.7zm0-43.9v15.7c0 .3 0 .6.1 1 2.4 0 4.6.1 7 0 3-.1 5.9-.1 8.9-.5 4-.6 6-2.9 6.4-6.5.1-.6 0-1.3 0-1.9 0-4.2-1.7-6.6-5.8-6.9-5.7-.6-11-.7-16.6-.9zm-97.3 16.4v8.9h-25.8c0 .4-.1.8-.1 1.1v16.6c0 1 .3 1.4 1.3 1.3.9 0 1.9.2 2.9.3v7.9h-17.9v-7.9c1.3-.1 2.7-.3 4.1-.4V77.6l-4.1-.4v-8H216v14.1h-7.7c-.3-1.8-.5-3.6-.8-5.3h-18.9v16.2h25.7zm175.6-24.4v13.6h-7.7c-.3-2.1-.5-4-.8-6.2-4.6-.1-9.3-.7-13.8 1s-6.3 5.4-7.1 9.8c-.4 2.3-.6 4.5-.5 6.8.1 5.6.1 11.3.6 16.8.4 4.7 2.7 8.6 7.6 10.2 1.5.5 3.3.7 4.9.8 2.8.1 5.5 0 8.3 0 .3-2.3.6-4.3.8-6.4h7.7V130c-2.7.3-5.4.7-8.2 1-5.1.6-10.3.7-15.3-.5-8.5-2.1-13.4-7.7-15.2-16-.6-3.1-.9-6.2-1-9.3-.1-4.9-.2-9.7.2-14.7.2-3.3.9-6.7 2.1-9.8 2.5-7.1 8-10.8 15.3-12 7.3-1 14.7-.2 22.1 1.1z"/><path class="st12" d="M84.1 185c-1.9-1-3.8-1.9-5.7-3-8.3-4.7-16.6-9.5-24.8-14.4l-23.3-13.5c-6.4-3.7-12.6-7.3-19-10.9-.7-.4-.9-.9-.9-1.6V58.9c0-.5.3-1 .5-1.4 1.7 1.1 3.5 2.5 5.3 3.5 5.3 3.1 10.7 6.2 16 9.1.9.5 1.8.9 2.9 1.3l-.1.5v55.8c0 .4.4.8.6 1.2l1.1.8c15.9 9.1 31.7 18.3 47.6 27.5v26.9c-.1.2-.1.6-.2.9z"/><path class="st13" d="M35 71.4c-.9-.4-1.9-.8-2.9-1.3-5.3-3-10.7-6-16-9.1-1.8-1-3.6-2.4-5.3-3.5l5.4-3.5c7-4.1 14-8.1 21-12.1 7.1-4.1 14.1-8.1 21.1-12.2C65 25.9 71.6 22 78.2 18.1c1.7-1 3.5-2.1 5.2-3 .4-.2 1.2-.1 1.7.2 5.1 2.9 10.2 5.8 15.2 8.7 6.2 3.6 12.3 7.1 18.4 10.7l18.7 10.8 19.4 11.2c.3.2.6.5.9.8l-.8.7L136.5 70c-1 .6-2.1 1-3.1 1.4-6.7-3.8-13.2-7.6-19.9-11.5-9.5-5.5-19.1-11-28.6-16.4-.3-.2-.7-.1-1-.1l-.4.1c-12 7-24 13.9-36 20.8-4.2 2.4-8.4 4.7-12.5 7.1z"/><path class="st14" d="M133.4 71.4l3.1-1.4c6.9-3.9 13.6-7.8 20.4-11.8.3-.2.5-.4.8-.7.2.4.4.9.4 1.3l-.1 3.6c0 25.5-.1 51.1.1 76.6 0 3.1-.9 4.4-3.5 5.8-13.9 7.9-27.8 16-41.6 24-9.2 5.3-18.5 10.7-27.7 15.9-.4.2-.9.2-1.3.3l.1-1.1v-27c.8-.4 1.6-.7 2.5-1.1 15.3-8.8 30.6-17.6 45.9-26.5.8-.5 1.1-1 1.1-1.9V72l-.2-.6z"/><path class="st13" d="M84.2 71.6c5 2.9 9.9 5.7 15 8.5 2.7 1.5 5.4 3.1 8.1 4.7.5.3 1 .7 1.5 1.1-.7.4-1.3.7-2.1 1.1l-22.6 13-10.8-6.2c-4.6-2.7-9.2-5.3-13.8-7.9v-.3c7.2-4.1 14.5-8.3 21.6-12.4 1.1-.5 2.1-1 3.1-1.6z"/><path class="st14" d="M84.2 100.1l22.6-13c.7-.4 1.3-.7 2.1-1.1.1 0 .1 0 .2.1v27.1c0 .9-.2 1.4-1 1.8-8 4.5-15.9 9.1-23.8 13.6l-.3-.3c.1-.6.3-1.1.3-1.7-.1-8.8-.1-17.7-.1-26.5z"/><path class="st12" d="M84.2 100.1v26.6c0 .6-.2 1.1-.3 1.7-6.8-3.9-13.4-7.8-20.2-11.6-1.3-.8-2.7-1.5-4.1-2.4V86c4.6 2.7 9.2 5.3 13.8 7.9 3.8 2.1 7.3 4.2 10.8 6.2z"/></svg>