<?xml version="1.0" encoding="utf-8"?>
<!-- Generator: Adobe Illustrator 19.2.1, SVG Export Plug-In . SVG Version: 6.00 Build 0)  -->
<svg version="1.1" id="image" xmlns="http://www.w3.org/2000/svg" xmlns:xlink="http://www.w3.org/1999/xlink" x="0px" y="0px"
	 viewBox="0 0 500 500" style="enable-background:new 0 0 500 500;" xml:space="preserve">
<style type="text/css">
	.st0{fill:#DBE0E1;stroke:#DFDFDF;stroke-miterlimit:10;}
	.st1{fill:#DFDFDF;}
	.st2{fill:none;stroke:#DFDFDF;stroke-width:4;stroke-miterlimit:10;}
	.st3{fill:#DBE0E1;stroke:#DFDFDF;stroke-width:2;stroke-miterlimit:10;}
	.st4{fill:none;stroke:#DFDFDF;stroke-width:5;stroke-miterlimit:10;}
	.st5{fill:#36424A;}
	.st6{fill:#6CC39D;}
	.st7{fill:#FFFFFF;}
</style>
<g id="grey-icons">
<!-- <g id="grey-icons" transform="translate(325,325)"> -->
		<animate attributeName="opacity" values="0;0.2;0.9;1" dur="1.5s"/>
		<!-- <animateTransform attributeType="xml"
                attributeName="transform"
                type="scale"
                from="0"
                to="1"
                dur="3.5s" fill="freeze" /> -->
	<g>
		<path class="st0" d="M369.7,120.8h51.7c1.2,0,2.2-1,2.2-2.2c0-1.1-0.1-2.2-0.1-3.3h12.3c1.2,0,2.2-1,2.2-2.2
			c0-16.5-11.9-30.3-15.7-34.3c3.8-3.2,6.3-8,6.3-13.3c0-9.5-7.7-17.3-17.3-17.3c-3.5,0-6.9,1.1-9.8,3.1c-1.9-0.6-3.9-1-5.9-1
			c-10,0-18.2,8.1-18.2,18.2c0,5.6,2.5,10.6,6.5,13.9c-4.5,4.5-16.4,18.2-16.4,36.2C367.6,119.7,368.5,120.8,369.7,120.8z
			 M433.6,111H423c-2.6-14.1-12-24.9-15.8-28.6c0.1,0,0.1-0.1,0.2-0.2c1.3,0.3,2.7,0.5,4,0.5c2.6,0,5-0.5,7.2-1.5
			C420.7,83.4,432.5,95.8,433.6,111z M411.3,52.5c7.1,0,12.9,5.8,12.9,12.9s-5.8,12.9-12.9,12.9c-0.2,0-0.4,0-0.6,0
			c1.9-2.9,3-6.3,3-10c0-6.1-3-11.5-7.6-14.8C407.7,52.9,409.5,52.5,411.3,52.5z M381.8,68.4c0-7.6,6.2-13.8,13.8-13.8
			c7.6,0,13.8,6.2,13.8,13.8s-6.2,13.8-13.8,13.8C388,82.2,381.8,76,381.8,68.4z M387.7,84.8c2.4,1.2,5,1.8,7.9,1.8
			c2.8,0,5.4-0.6,7.8-1.7c2.9,2.7,14.9,15.3,15.9,31.6H372C373,100.2,384.5,87.9,387.7,84.8z"/>
	</g>
	<g>
		<path class="st0" d="M459,218.4c0,1.8-1,3.2-2.4,4.1v10.4h-4.8v-10.4c-1.4-0.8-2.4-2.3-2.4-4.1c0-2.7,2.2-4.8,4.8-4.8
			C456.9,213.6,459,215.7,459,218.4z M485.3,206.3v34.1c0,4-3.2,7.2-7.2,7.2H430c-4,0-7.2-3.2-7.2-7.2v-34.1c0-4,3.2-7.2,7.2-7.2
			h0.1v-9.6c0-13.3,10.8-24.1,24.1-24.1c13.3,0,24.1,10.8,24.1,24.1v9.6C482.2,199.2,485.3,202.4,485.3,206.3z M435,199.1h38.5v-9.6
			c0-10.6-8.6-19.2-19.2-19.2s-19.2,8.6-19.2,19.2L435,199.1L435,199.1z M480.5,206.3c0-1.3-1-2.3-2.2-2.4l0,0h-48.1v-0.1H430
			c-1.3,0-2.4,1.1-2.4,2.4v34.1c0,1.3,1.1,2.4,2.4,2.4h48.1c1.3,0,2.4-1.1,2.4-2.4C480.5,240.4,480.5,206.3,480.5,206.3z"/>
	</g>
	<g>
		<path class="st0" d="M155.2,12.3h-38.5c-4,0-7.2,3.2-7.2,7.2v67.4c0,4,3.2,7.2,7.2,7.2h38.5c4,0,7.2-3.2,7.2-7.2V19.5
			C162.4,15.5,159.2,12.3,155.2,12.3z M116.7,17.1h38.5c1.3,0,2.4,1.1,2.4,2.4v7.2h-43.3v-7.2C114.3,18.2,115.4,17.1,116.7,17.1z
			 M157.6,31.6V70h-43.3V31.6H157.6z M155.2,89.3h-38.5c-1.3,0-2.4-1.1-2.4-2.4v-12h43.3v12C157.6,88.2,156.5,89.3,155.2,89.3z
			 M138.3,82.1c0,1.3-1.1,2.4-2.4,2.4c-1.3,0-2.4-1.1-2.4-2.4s1.1-2.4,2.4-2.4C137.3,79.7,138.3,80.7,138.3,82.1z"/>
	</g>
	<g>
		<path class="st0" d="M206.2,430.8h-1.6c-2.2-5.7-6.6-10.5-12.4-14c0-7.7,0.7-9.5,2.3-14.4c-6,0.9-11.9,4.5-15,9.8
			c-2-0.4-4.1-0.6-6.1-0.7c0.3-1.2,0.6-2.5,0.6-3.9c0-7.3-5.8-13.1-13.1-13.1c-7.3,0-13.1,5.8-13.1,13.1c0,3.6,1.5,6.9,3.9,9.3
			c-5.7,3.4-10.1,8-12.4,13.6c-3.9-1.5-6.1-3.6-6.1-6.4c0-3.1,2.5-5.8,4.7-6.6l-0.9-2.8c-3.6,1-6.7,5.1-6.7,9c0,2.3,1,6.7,8,9.3
			c-0.6,1.9-0.7,3.8-0.7,5.8c0,7.3,3.6,14,9.5,18.9l-1.7,5.1c-1.2,3.5,0.6,7.1,4.1,8.3l4.1,1.5c0.7,0.3,1.5,0.4,2.2,0.4
			c2.8,0,5.2-1.7,6.3-4.4l1.2-3.4c2.9,0.6,5.8,1,9,1c2,0,4.1-0.1,6-0.4l1.7,3.6c1.2,2.3,3.5,3.6,6,3.6c1,0,1.9-0.1,2.9-0.7l3.8-1.9
			c3.2-1.6,4.7-5.5,3.1-8.7l-1-2.2c3.9-2.6,7-6,9.2-9.9h2.9c3.9,0,7.1-3.2,7.1-7.1v-4.7C213.3,433.9,210.1,430.8,206.2,430.8
			L206.2,430.8z M150.7,407.4c0-5.7,4.5-10.2,10.2-10.2s10.2,4.5,10.2,10.2c0,1.5-0.3,2.8-0.9,4.1c-5.8,0.1-11.2,1.6-15.9,3.8
			C152.1,413.4,150.7,410.6,150.7,407.4z M210.4,442.6c0,2.3-1.9,4.2-4.2,4.2h-4.7l-0.9,1.5c-1.9,3.4-4.7,6.4-8.2,8.9l-2,1.5
			l1.2,2.2l1,2.2c0.9,1.7,0.1,4.1-1.7,5l-3.8,1.7c-0.4,0.3-1,0.4-1.6,0.4c-1.5,0-2.6-0.7-3.4-2l-1.7-3.6l-0.9-1.9l-2.2,0.3
			c-1.9,0.3-3.8,0.4-5.5,0.4c-2.8,0-5.7-0.3-8.5-0.9l-2.5-0.6l-0.7,2.5l-1.2,3.4c-0.6,1.5-1.9,2.5-3.5,2.5c-0.4,0-0.9,0-1.2-0.1
			l-4.1-1.5c-1.9-0.7-2.9-2.8-2.2-4.7l1.7-5.2l0.7-1.9l-1.6-1.3c-5.5-4.5-8.5-10.3-8.5-16.6c0-13.4,14.1-24.5,31.3-24.5
			c2.3,0,4.8,0.3,7.1,0.6l2,0.4l1-1.7c1.7-3.1,4.8-5.5,8.2-7c-0.6,2.5-0.9,5.2-1,10.2v1.6l1.5,0.9c5.2,3.2,9.3,7.6,11.2,12.5
			l0.7,1.9h3.6c2.3,0,4.2,1.9,4.2,4.2L210.4,442.6L210.4,442.6z"/>
		<path class="st0" d="M194.4,432.9c0,2-1.6,3.6-3.6,3.6s-3.6-1.6-3.6-3.6s1.6-3.6,3.6-3.6S194.4,430.9,194.4,432.9z"/>
	</g>
	<g>
		<path class="st0" d="M253.3,486.9l38-38l2.1,2.1l-38,38C255.3,489,253.3,486.9,253.3,486.9z"/>
		<path class="st0" d="M280.6,438.3h11.7v2.9h-11.7V438.3z"/>
		<path class="st0" d="M312.6,438.3h11.7v2.9h-11.7V438.3z"/>
		<path class="st0" d="M301,450h2.9v11.7H301V450z"/>
		<path class="st0" d="M301,417.9h2.9v11.7H301V417.9z"/>
		<path class="st0" d="M318.9,425.4l-8.2,8.2l-2.1-2.1l8.2-8.2L318.9,425.4z"/>
		<path class="st0" d="M316.8,456.3l-8.2-8.2l2.1-2.1l8.2,8.2L316.8,456.3z"/>
		<path class="st0" d="M294.3,433.7l-8.2-8.2l2.1-2.1l8.2,8.2C296.3,431.6,294.3,433.7,294.3,433.7z"/>
	</g>
	<g>
		<path class="st0" d="M440.1,359.1c-0.1,0-0.3,0-0.5-0.1c-3.2-0.8-6.4-2.1-9.3-3.8c-0.8-0.5-1.1-1.6-0.7-2.4
			c0.6-1.1,0.9-2.2,0.9-3.5c0-4-3.2-7.2-7.2-7.2c-1.2,0-2.4,0.3-3.5,0.9c-0.9,0.5-1.9,0.2-2.4-0.7c-1.7-2.9-3-6-3.8-9.3
			c-0.2-0.9,0.3-1.9,1.2-2.2c2.9-1,4.9-3.7,4.9-6.9s-2-5.9-4.9-6.9c-0.9-0.3-1.4-1.2-1.2-2.2c0.8-3.2,2.1-6.4,3.8-9.3
			c0.5-0.8,1.6-1.1,2.4-0.7c1.1,0.6,2.2,0.9,3.5,0.9c4,0,7.2-3.2,7.2-7.2c0-1.2-0.3-2.4-0.9-3.5c-0.5-0.9-0.2-1.9,0.7-2.4
			c2.9-1.7,6-3,9.3-3.8c0.9-0.2,1.9,0.3,2.2,1.2c1,2.9,3.7,4.9,6.9,4.9c3.1,0,5.9-2,6.9-4.9c0.3-0.9,1.2-1.4,2.2-1.2
			c3.2,0.8,6.4,2.1,9.3,3.8c0.8,0.5,1.1,1.6,0.7,2.4c-0.6,1.1-0.9,2.2-0.9,3.5c0,4,3.2,7.2,7.2,7.2c1.2,0,2.4-0.3,3.5-0.9
			c0.9-0.5,1.9-0.2,2.4,0.7c1.7,2.9,3,6,3.8,9.3c0.2,0.9-0.3,1.9-1.2,2.2c-2.9,1-4.9,3.7-4.9,6.9s2,5.9,4.9,6.9
			c0.9,0.3,1.4,1.2,1.2,2.2c-0.8,3.2-2.1,6.4-3.8,9.3c-0.5,0.8-1.6,1.1-2.4,0.7c-1.1-0.6-2.2-0.9-3.5-0.9c-4,0-7.2,3.2-7.2,7.2
			c0,1.2,0.3,2.4,0.9,3.5c0.5,0.9,0.2,1.9-0.7,2.4c-2.9,1.7-6,3-9.3,3.8c-0.9,0.2-1.9-0.3-2.2-1.2c-1-2.9-3.7-4.9-6.9-4.9
			c-3.1,0-5.9,2-6.9,4.9C441.6,358.6,440.9,359.1,440.1,359.1L440.1,359.1z M448.7,349.3c4.1,0,7.7,2.3,9.6,5.8
			c1.9-0.6,3.7-1.3,5.5-2.2c-0.4-1.1-0.6-2.3-0.6-3.5c0-6,4.9-10.8,10.8-10.8c1.2,0,2.4,0.2,3.5,0.6c0.9-1.7,1.7-3.6,2.2-5.5
			c-3.5-1.9-5.8-5.5-5.8-9.6s2.3-7.7,5.8-9.6c-0.6-1.9-1.3-3.7-2.2-5.5c-1.1,0.4-2.3,0.6-3.5,0.6c-6,0-10.8-4.9-10.8-10.8
			c0-1.2,0.2-2.4,0.6-3.5c-1.7-0.9-3.6-1.7-5.5-2.2c-1.9,3.5-5.5,5.8-9.6,5.8s-7.7-2.3-9.6-5.8c-1.9,0.6-3.7,1.3-5.5,2.2
			c0.4,1.1,0.6,2.3,0.6,3.5c0,6-4.9,10.8-10.8,10.8c-1.2,0-2.4-0.2-3.5-0.6c-0.9,1.7-1.7,3.6-2.2,5.5c3.5,1.9,5.8,5.5,5.8,9.6
			s-2.3,7.7-5.8,9.6c0.6,1.9,1.3,3.7,2.2,5.5c1.1-0.4,2.3-0.6,3.5-0.6c6,0,10.8,4.9,10.8,10.8c0,1.2-0.2,2.4-0.6,3.5
			c1.7,0.9,3.6,1.7,5.5,2.2C441,351.6,444.6,349.3,448.7,349.3z"/>
		<path class="st0" d="M448.7,334.8c-6,0-10.8-4.9-10.8-10.8c0-6,4.9-10.8,10.8-10.8c6,0,10.8,4.9,10.8,10.8
			C459.6,330,454.7,334.8,448.7,334.8z M448.7,316.8c-4,0-7.2,3.2-7.2,7.2s3.2,7.2,7.2,7.2s7.2-3.2,7.2-7.2
			C455.9,320,452.7,316.8,448.7,316.8z"/>
	</g>
	<g>
		<path class="st0" d="M95.5,182.7v4.8H13.7v-4.8H95.5z M38.8,144.1L59,158.7l26.9-30.1v11h4.8v-19.4H71.3v4.8h11.4l-24.4,27.3
			L38.4,138l-21,19l3.2,3.6C20.6,160.5,38.8,144.1,38.8,144.1z"/>
	</g>
	<g>
		<path class="st1" d="M100.8,390.5c-0.1-0.5-0.5-0.6-1-0.2c-0.8,0.6-2,1.1-3.5,1.6s-3.3,0.7-5.2,0.7c-3.4,0-6-0.7-7.7-2
			c-0.1-0.1-0.3-0.2-0.5-0.2c-0.3,0-0.6,0.2-1,0.5c-0.2,0.2-0.3,0.4-0.3,0.6c0,0.3,0.1,0.5,0.3,0.8c0.9,0.9,2.1,1.5,3.5,1.8
			c1.4,0.4,2.8,0.5,4.1,0.5c1.3,0,2.6-0.1,4-0.2c1.1-0.1,2.2-0.4,3.4-0.8c1.2-0.4,2-0.8,2.6-1.2c0.6-0.4,1-0.6,1.1-0.8
			C100.8,391.3,100.9,390.9,100.8,390.5z"/>
		<path class="st1" d="M99.2,385.9c-0.5-1.3-1-2.1-1.6-2.4c-0.6-0.4-1.6-0.6-3-0.6c-1.3,0-2.2,0.1-2.8,0.4c-0.8,0.3-1.8,1.1-3.1,2.2
			c-0.7,0.6-0.9,1.2-0.5,1.8c0.2,0.2,0.5,0.3,0.7,0.2c0.2-0.1,0.6-0.4,1.3-0.9c0.1-0.1,0.2-0.2,0.4-0.3c0.2-0.2,0.3-0.3,0.4-0.3
			c0.1-0.1,0.2-0.1,0.4-0.3c0.2-0.1,0.3-0.2,0.5-0.3c0.1-0.1,0.3-0.1,0.5-0.2s0.4-0.1,0.6-0.2c0.2,0,0.4-0.1,0.7-0.1s0.5,0,0.8,0
			c0.7,0,1.3,0.1,1.8,0.3c0.5,0.2,0.8,0.4,0.9,0.6s0.3,0.5,0.5,0.9c0.3,0.5,0.4,0.7,0.5,0.8c0.1,0.1,0.2,0.1,0.5,0
			C99.3,386.9,99.4,386.5,99.2,385.9z"/>
		<path class="st2" d="M113.4,374.7c0-0.6-0.1-1.2-0.2-1.8s-0.4-1.2-0.7-1.8c-0.3-0.6-0.8-1.1-1.4-1.5s-1.3-0.6-2.1-0.6
			c-0.9,0-2.2,0.6-3.9,1.7c-1.7,1.1-3.4,2.2-5.1,3.3c-1.7,1.1-3.1,1.7-4,1.7c-0.7,0-1.6-0.2-2.5-0.8c-1-0.5-2-1.2-3-2
			c-1.1-0.8-2.2-1.5-3.3-2.3c-1.2-0.8-2.5-1.4-4-2c-1.5-0.5-3-0.8-4.4-0.8c-3.1,0-5.7,1.1-7.9,3.1c-2.2,2.1-3.3,4.4-3.4,7.1
			c-0.1,3,0.9,5.2,3,6.5c0.8,0.5,1.6,0.9,2.5,1.1s2.3,0.3,4.1,0.3c1.5,0,3.3-0.4,5.3-1.3s3.8-1.8,5.3-2.8s3.2-2,4.8-2.8
			c1.6-0.9,2.9-1.3,3.7-1.2c0.7,0,1.6,0.4,2.6,1.3c1,0.8,2,1.7,2.9,2.7s1.8,1.9,2.7,2.7c0.9,0.8,1.7,1.3,2.2,1.3
			c0.9,0.1,1.7-0.1,2.3-0.6c0.6-0.5,1.4-1.3,2.2-2.5c0.7-1.1,1.3-2.4,1.7-4C113.2,377.3,113.4,375.9,113.4,374.7z"/>
		<path class="st2" d="M115.5,368.3c0,4.4-0.8,8.4-2.5,12.2s-3.9,6.9-6.6,9.4c-2.8,2.5-6,4.5-9.7,6c-3.7,1.4-7.6,2.2-11.6,2.2
			s-7.9-0.8-11.7-2.3c-3.8-1.5-7-3.6-9.9-6.3s-5.1-5.9-6.8-9.6c-1.7-3.8-2.6-7.8-2.6-12.1c0-2.4,0.3-4.7,0.8-6.9
			c0.5-2.2,1.2-4.2,2-5.8c0.8-1.6,1.7-3.2,2.8-4.7s2.1-2.8,3.1-3.8s2-1.9,3.1-2.8c1.1-0.9,1.9-1.5,2.6-1.9c0.6-0.4,1.2-0.7,1.7-1
			c0.4-0.2,1.1-0.6,2-1.1c1-0.5,1.7-0.9,2.2-1.1c0.5-0.3,1.1-0.7,1.9-1.2s1.6-1.1,2.4-1.8c1-0.7,1.7-1.7,2.3-2.9
			c0.6-1.2,1-2.9,1.2-5c3.4,4.1,5.9,6.7,7.4,7.7c1.2,0.8,2.9,1.7,5.2,2.7c2.3,1,4,1.9,5.1,2.6c0.6,0.3,1.1,0.7,1.6,1
			s1.3,0.9,2.4,1.9c1.1,0.9,2.1,1.9,3,2.8s1.9,2.2,3,3.8c1.1,1.6,2,3.2,2.8,4.9s1.4,3.7,1.9,5.9S115.5,365.8,115.5,368.3z"/>
	</g>
	<path class="st3" d="M45.9,228.8L18.7,234c0,0,0,32.7,0,38.6c0,9.3,8.2,21.3,27.2,28c19.1-6.6,27.2-18.6,27.2-28
		c0-5.9,0-38.6,0-38.6L45.9,228.8z M70.4,272.6c0,8-7.6,18.8-24.4,25c-16.8-6.2-24.4-17-24.4-25v-36.2l24.4-4.8l24.4,4.6V272.6z"/>
	<g>
		<path class="st0" d="M309.4,68.8v2.4h-29.7v-4.8h24.8c-0.5-8.1-3.8-15.5-8.9-21.3l-3.9,3.9l-3.4-3.4l3.9-3.9
			c-5.8-5.1-13.2-8.3-21.3-8.8v14.3h-4.8V32.9c-8.1,0.5-15.5,3.8-21.3,8.8l3.8,3.8l-3.4,3.4l-3.8-3.8c-5.1,5.8-8.3,13.2-8.9,21.3
			h24.9v4.8h-29.8v-2.4c0-22.6,18.3-40.9,40.9-40.9S309.4,46.3,309.4,68.8z M278.2,68.8c0,5.3-4.3,9.6-9.6,9.6
			c-5.3,0-9.6-4.3-9.6-9.6c0-3.1,1.5-5.8,3.8-7.6l-10-17.5l4.2-2.4l10.3,18c0.5-0.1,0.9-0.1,1.4-0.1
			C273.8,59.2,278.2,63.5,278.2,68.8z M273.3,68.8c0-2.7-2.2-4.8-4.8-4.8s-4.8,2.2-4.8,4.8c0,2.7,2.2,4.8,4.8,4.8
			S273.3,71.5,273.3,68.8z"/>
	</g>
	<g>
		<path class="st4" d="M412,421.4c-1.1,1.9-2.1,3.6-3.1,5c-3.9,6.4-5.7,9.4-6.6,14.7c-0.1,0.2-0.1,0.5-0.1,0.8h-13.5
			c0-0.3,0-0.6-0.1-0.7c-0.9-5.3-2.7-8.3-6.6-14.7c-0.9-1.4-1.9-3.1-3.1-5c-1.9-3.2-3.9-8.3-3.9-11.2c0-9.9,9.1-18.1,20.3-18.1
			c5.5,0,10.7,1.9,14.6,5.4c3.7,3.4,5.8,7.9,5.8,12.7C415.8,413.2,413.9,418.3,412,421.4z"/>
		<path class="st2" d="M387.4,450.8h16.1c-0.8,5.2-4.1,9.1-8,9.1S388.2,456,387.4,450.8z"/>
	</g>
</g>
<g id="logo">
	<g>
		<path class="st5" d="M206.2,346c-28.3,0-51.2-23-51.2-51.2V154.1h138.9c28.2,0,51.1,23,51.1,51.2V346H206.2z"/>
		<path class="st6" d="M293.8,156.6c26.9,0,48.7,21.9,48.7,48.7v138.2H206.2c-26.9,0-48.7-21.9-48.7-48.7V156.6H293.8 M293.8,151.6
			H152.5v143.2c0,29.7,24.1,53.7,53.7,53.7h141.4V205.2C347.5,175.7,323.5,151.6,293.8,151.6L293.8,151.6z"/>
	</g>
	<g>
		<g>
			<path class="st7" d="M224.1,238.1c0,7-2,12.3-5.9,15.7c-3.9,3.5-9.6,5.2-17,5.2c-2.3,0-4.7-0.2-7.1-0.7c-2.4-0.5-4.5-1.3-6.5-2.4
				s-3.6-2.6-4.9-4.5s-2.1-4.1-2.3-6.9h10.3c0.3,1.4,0.8,2.6,1.5,3.5s1.6,1.6,2.6,2.1s2.1,0.8,3.3,1c1.2,0.1,2.5,0.2,3.8,0.2
				c4.1,0,7.2-1,9.1-3.1c1.9-2,2.9-5,2.9-8.8v-7.1h-0.2c-1.4,2.6-3.4,4.6-5.9,6s-5.2,2.2-8.1,2.2c-3.7,0-6.9-0.6-9.5-1.9
				c-2.6-1.3-4.8-3.1-6.5-5.3c-1.7-2.3-3-4.9-3.7-7.8c-0.8-2.9-1.2-6.1-1.2-9.5c0-3.1,0.5-6.1,1.4-8.9c1-2.8,2.3-5.3,4.1-7.4
				c1.8-2.1,4-3.8,6.6-5.1s5.6-1.9,8.9-1.9c2.9,0,5.7,0.6,8.1,1.8c2.5,1.2,4.4,3.2,5.7,5.8h0.2v-6.4h10.3
				C224.1,193.9,224.1,238.1,224.1,238.1z M201.4,232.5c2.3,0,4.2-0.5,5.8-1.4s2.9-2.2,3.9-3.7s1.7-3.3,2.2-5.2
				c0.5-2,0.7-3.9,0.7-5.9s-0.2-3.9-0.7-5.8c-0.5-1.9-1.2-3.5-2.2-5c-1-1.4-2.3-2.6-3.9-3.4c-1.6-0.8-3.5-1.3-5.7-1.3
				c-2.3,0-4.2,0.5-5.8,1.4c-1.6,1-2.8,2.2-3.8,3.7s-1.7,3.3-2.1,5.2c-0.4,2-0.6,3.9-0.6,5.8c0,1.9,0.2,3.8,0.7,5.6s1.2,3.5,2.2,4.9
				s2.3,2.6,3.8,3.5C197.4,232,199.2,232.5,201.4,232.5z"/>
			<path class="st7" d="M252.6,241.9c-3.7,0-7.1-0.6-10-1.8s-5.4-2.9-7.4-5.1c-2-2.2-3.5-4.7-4.6-7.8c-1.1-3-1.6-6.3-1.6-9.9
				c0-3.5,0.5-6.8,1.6-9.8s2.6-5.6,4.6-7.8s4.5-3.9,7.4-5.1s6.2-1.8,10-1.8c3.8,0,7.1,0.6,10,1.8s5.4,2.9,7.4,5.1
				c2,2.2,3.5,4.8,4.6,7.8s1.6,6.3,1.6,9.8c0,3.6-0.5,6.9-1.6,9.9s-2.6,5.6-4.6,7.8s-4.5,3.9-7.4,5.1
				C259.6,241.1,256.2,241.9,252.6,241.9z M252.6,233.6c2.3,0,4.3-0.5,6-1.4c1.7-1,3.1-2.2,4.2-3.8s1.9-3.3,2.4-5.3s0.8-4,0.8-6
				s-0.3-4-0.8-6s-1.3-3.7-2.4-5.3c-1.1-1.5-2.5-2.8-4.2-3.7c-1.7-1-3.7-1.4-6-1.4s-4.3,0.5-6,1.4c-1.7,1-3.1,2.2-4.1,3.7
				c-1.1,1.5-1.9,3.3-2.4,5.3s-0.8,4-0.8,6s0.3,4,0.8,6s1.3,3.7,2.4,5.3c1.1,1.6,2.5,2.8,4.1,3.8
				C248.2,233.2,250.2,233.6,252.6,233.6z"/>
			<path class="st7" d="M276.8,194H288l11.8,35.8h0.2l11.4-35.8H322l-16.7,46.6h-11.5L276.8,194z"/>
		</g>
		<g>
			<path class="st7" d="M179.1,290.5c0-3.6,0.5-7,1.6-10.1s2.6-5.9,4.6-8.2c2-2.3,4.5-4.1,7.4-5.5c2.9-1.3,6.2-2,9.9-2
				c2.9,0,5.4,0.4,7.5,1.1c2.1,0.8,3.9,1.7,5.3,2.8s2.6,2.4,3.6,3.7c0.9,1.3,1.6,2.6,2.1,3.8s0.8,2.2,1,3c0.2,0.9,0.3,1.3,0.3,1.4
				h-3c-0.3-2.1-1-3.9-2-5.6c-1-1.6-2.3-3-3.8-4.2c-1.5-1.1-3.2-2-5.1-2.6c-1.9-0.6-3.8-0.9-5.9-0.9c-3.2,0-6.1,0.6-8.6,1.9
				c-2.5,1.2-4.7,2.9-6.4,5s-3.1,4.5-4,7.3s-1.4,5.8-1.4,9s0.5,6.2,1.4,9s2.3,5.3,4,7.3c1.7,2.1,3.9,3.8,6.4,5s5.4,1.9,8.6,1.9
				c2.4,0,4.6-0.5,6.7-1.5s3.9-2.3,5.5-3.9s2.8-3.5,3.8-5.7c0.9-2.1,1.5-4.4,1.6-6.7h3c-0.3,2.9-1,5.7-2.2,8.1
				c-1.2,2.5-2.7,4.6-4.5,6.4s-3.9,3.2-6.3,4.2c-2.4,1-4.9,1.5-7.7,1.5c-3.7,0-7-0.7-9.9-2s-5.4-3.2-7.4-5.5s-3.5-5.1-4.6-8.2
				C179.6,297.5,179.1,294,179.1,290.5z"/>
			<path class="st7" d="M229.5,265.9h4.3l19.2,45.9h0.1l19-45.9h4.3V315h-3v-45.5h-0.1L254.6,315h-3l-19-45.5h-0.1V315h-3V265.9z"/>
			<path class="st7" d="M317.4,280c-0.1-2.1-0.5-4-1.3-5.5c-0.8-1.6-1.9-2.9-3.3-3.9c-1.4-1.1-3-1.8-4.9-2.4c-1.9-0.5-4-0.8-6.2-0.8
				c-1.4,0-2.9,0.2-4.4,0.5s-3.1,0.9-4.4,1.7c-1.4,0.8-2.5,1.9-3.3,3.2c-0.9,1.4-1.3,3-1.3,5.1c0,2,0.5,3.6,1.4,4.8
				c1,1.2,2.2,2.2,3.8,3c1.6,0.8,3.4,1.4,5.4,1.8c2,0.5,4.1,0.9,6.1,1.3c2.1,0.4,4.2,0.9,6.2,1.5s3.8,1.4,5.4,2.3
				c1.6,1,2.9,2.3,3.8,3.9c1,1.6,1.4,3.6,1.4,6c0,2.6-0.6,4.7-1.7,6.5c-1.1,1.7-2.5,3.2-4.2,4.3c-1.7,1.1-3.5,1.9-5.6,2.4
				c-2,0.5-4,0.7-5.9,0.7c-2.9,0-5.6-0.3-8.1-0.9s-4.7-1.6-6.6-3s-3.4-3.2-4.4-5.4s-1.6-4.9-1.6-8.1h3c-0.1,2.7,0.3,5,1.2,6.9
				s2.2,3.4,3.8,4.6c1.6,1.2,3.6,2.1,5.8,2.6c2.2,0.5,4.5,0.8,7,0.8c1.5,0,3-0.2,4.7-0.6s3.2-1,4.6-1.9s2.6-2,3.5-3.4
				s1.4-3.2,1.4-5.4c0-2.1-0.5-3.8-1.4-5.1c-1-1.3-2.2-2.4-3.8-3.2s-3.4-1.4-5.4-1.9s-4.1-0.9-6.2-1.3s-4.1-0.9-6.1-1.4
				c-2-0.6-3.8-1.3-5.4-2.2c-1.6-0.9-2.8-2.2-3.8-3.7s-1.4-3.4-1.4-5.8c0-2.3,0.5-4.4,1.5-6c1-1.7,2.3-3,3.9-4.1s3.4-1.8,5.3-2.3
				c2-0.5,3.9-0.7,5.9-0.7c2.6,0,5,0.3,7.2,0.9s4.2,1.5,5.9,2.7c1.7,1.2,3,2.8,4,4.7c1,1.9,1.6,4.3,1.7,7h-3.2V280z"/>
		</g>
	</g>
</g>
</svg>
