<?xml version="1.0" encoding="utf-8"?>
<!-- Generator: Adobe Illustrator 19.1.0, SVG Export Plug-In . SVG Version: 6.00 Build 0)  -->
<svg version="1.1" id="Layer_1" xmlns="http://www.w3.org/2000/svg" xmlns:xlink="http://www.w3.org/1999/xlink" x="0px" y="0px"
	 viewBox="-99 0 400 200" style="enable-background:new -99 0 400 200;" xml:space="preserve">
<style type="text/css">
	.st0{fill:none;stroke:#000000;stroke-width:0.5;stroke-miterlimit:10;}
	.st1{enable-background:new    ;}
</style>
<line class="st0" x1="-4.4" y1="105.6" x2="276" y2="105.6"/>
<g>
	<path d="M-67.4,115.2c-0.1,0.1-0.1,0.2-0.2,0.2"/>
	<path d="M-65.4,100.2c0.2,0,0.4-0.2,0.4-0.4s-0.2-0.4-0.4-0.4c-0.2,0-0.4,0.2-0.4,0.4C-65.8,100-65.7,100.2-65.4,100.2L-65.4,100.2
		z"/>
	<path d="M-46.8,83.2L-46.8,83.2h-14.5l0,0l0,0v11.7c0,1.1,0.5,2.1,1.1,2.4l5.6,3.3c0.1,0.1,0.3,0.2,0.5,0.2s0.3-0.1,0.5-0.2
		l5.7-3.4c0.7-0.3,1.1-1.3,1.1-2.4L-46.8,83.2L-46.8,83.2L-46.8,83.2z M-56.5,86.6h-1.3v-3h1.3V86.6L-56.5,86.6z M-57.4,87.6
		l0.2-0.2l-0.1-0.2h0.2L-57,87l0.1,0.2h0.2l-0.1,0.2l0.2,0.2h-0.2v0.2l-0.2-0.2l-0.2,0.2v-0.2H-57.4L-57.4,87.6z M-60.9,91.4v-2.8
		h1.5v2.8H-60.9L-60.9,91.4z M-60.6,87.2h0.2l0.1-0.2l0.1,0.2h0.2l-0.1,0.2l0.2,0.2h-0.2v0.2l-0.2-0.2l-0.2,0.2v-0.2h-0.2l0.2-0.2
		L-60.6,87.2L-60.6,87.2z M-58.9,90.1h0.2l0.1-0.2l0.1,0.2h0.2l-0.1,0.2l0.2,0.2h-0.2v0.2l-0.2-0.2l-0.2,0.2v-0.2H-59l0.2-0.2
		L-58.9,90.1L-58.9,90.1z M-57.9,87.8c0-0.1-0.1-0.1-0.2-0.1c-0.1,0-0.2,0.2-0.3,0.2s-0.1,0-0.1-0.1s0.2-0.1,0.2-0.2
		c-0.9,0-1,0.4-1.1,0.4c-0.2,0,0.2-0.5,0.3-0.6c-0.2,0-0.3-0.3-0.5-0.4c0.1-0.1,0.2-0.1,0.3,0c0-0.1,0.1-0.2,0.3-0.2
		c0.4,0,0.3,0.4,0.4,0.4c0.1,0,0-0.4,0.3-0.4c0.4,0,0.9,1.1,0.5,1.1C-58.1,88-57.9,87.9-57.9,87.8L-57.9,87.8z M-59,84.7l0.2-0.2
		l-0.1-0.2h0.2l0.1-0.2l0.1,0.2h0.2l-0.1,0.2l0.2,0.2h-0.2v0.2l-0.2-0.2l-0.2,0.2v-0.2H-59L-59,84.7z M-59.4,83.6v3h-1.5v-3H-59.4
		L-59.4,83.6z M-56.5,99.1L-60,97c-0.6-0.4-0.9-1.1-0.9-1.9v-3.3h4.4V99.1L-56.5,99.1z M-57.7,91.4v-2.8h1.3v2.8H-57.7L-57.7,91.4z
		 M-52,99.3l-1.6,1l0,0c-0.1,0.1-0.3,0.1-0.4,0.1s-0.3-0.1-0.4-0.2l-1.6-1v-7.5h4.1L-52,99.3L-52,99.3z M-52,91.4h-4.1v-7.8h4.1
		V91.4L-52,91.4z M-47.2,95c-0.1,0.8-0.4,1.5-0.9,1.9l-3.5,2.1v-7.3h4.4V95L-47.2,95z M-47.2,91.4h-4.4v-7.8h4.4V91.4L-47.2,91.4z"
		/>
	<path d="M-56.7,94.4c0-0.1-0.5,0.2-0.4,0.2c0-0.2,0.3-0.5,0.4-0.6c0-0.2-0.3,0-0.5,0.1c0.8-1.2,0.3-0.7-0.2-0.6
		c0.7-0.8,0.5-0.8,0-0.5c0.4-0.3,0.5-0.7,0.5-0.9c-0.4,0.5-0.8,0.4-0.8,0.9c0,0.3-0.1,0.9-0.3,1c-0.2,0.2-0.1-0.9-0.6-0.9
		c-0.2,0-0.6,0-0.7,0.2c0.1,0,0.3,0.3,0.3,0.4s0.1,0.4-0.1,0.4c-0.2,0-0.4-0.4-0.4-0.6s0-0.1,0-0.4c0-0.5-0.8-1.1-1.1-1.1
		c0,0.3,0.4,0.4,0.4,0.8c-0.2,0-0.4-0.3-0.4-0.1c0,0.2,0.3,0.2,0.3,0.4c0,0.2-0.3-0.1-0.3,0.1s0.2,0.1,0.2,0.3c-0.1,0-0.2,0-0.3,0
		c0,0.1,0,0.1,0.1,0.2c0,0-0.1,0.1-0.1,0.4c0,0.9,0.6,1.4,1,1.4c0.3,0,0.3-0.2,0.3-0.3c0,0.2,0.2-0.1,0.2,0.2c0,0.3-0.3,0.2-0.3,0.4
		c0,0.3,0.5,0,0.5,0.4s-0.1,0.4-0.1,0.6c0,0.1,0.5-0.2,0.5-0.2c0.1,0,0.1,0.4,0.3,0.4c0.1,0,0.2-0.4,0.3-0.4c-0.1,0,0.4,0.3,0.4,0.2
		c0-0.4-0.2-0.2-0.2-0.5s0.6-0.2,0.5-0.4c-0.1-0.1-0.1,0-0.2-0.2c0,0-0.5-0.7,0.1-0.3C-56.8,95.8-56.7,94.5-56.7,94.4L-56.7,94.4z"
		/>
	<path d="M-41.3,97.5c0.3,0,0.5-0.2,0.5-0.4s-0.2-0.4-0.5-0.4s-0.5,0.2-0.5,0.4C-41.7,97.3-41.5,97.5-41.3,97.5L-41.3,97.5z"/>
	<path d="M-43.2,98.6c0.3,0,0.5-0.2,0.5-0.4c0-0.2-0.2-0.4-0.5-0.4s-0.5,0.2-0.5,0.4C-43.7,98.4-43.4,98.6-43.2,98.6L-43.2,98.6z"/>
	<path d="M-66.1,101.3c0.3,0,0.5-0.2,0.5-0.4s-0.2-0.4-0.5-0.4s-0.5,0.2-0.5,0.4S-66.4,101.3-66.1,101.3L-66.1,101.3z"/>
	<path d="M-64.6,101.4c0.3,0,0.5-0.2,0.5-0.4c0-0.2-0.2-0.4-0.5-0.4s-0.5,0.2-0.5,0.4S-64.9,101.4-64.6,101.4L-64.6,101.4z"/>
	<path d="M-23.4,81.4c0.7,0.8,0.9,2.2,0.4,3.2c-0.3,0-0.2-0.4-0.3-0.6c-0.5-0.9-0.9-2.1-0.5-3.2C-23.4,80.8-23.6,81.3-23.4,81.4
		L-23.4,81.4z"/>
	<path d="M-83.9,82.6c-0.2,0.6-0.2,1.5,0,2c-0.1,0.1-0.1-0.1-0.2-0.1c-1-0.7-0.5-2.1-0.8-3.1c0.1-0.1,0.2-0.1,0.2-0.1
		C-84.2,81.6-84,82.1-83.9,82.6L-83.9,82.6z"/>
	<path d="M-21.2,82.7c0.1,0.3-0.1,0.6-0.3,0.7c-0.2,0.1-0.5-0.1-0.6-0.3c-0.1-0.3,0.1-0.5,0.3-0.7C-21.6,82.4-21.4,82.4-21.2,82.7
		L-21.2,82.7z"/>
	<path d="M-85.4,83.8c-0.1,0.2-0.1,0.5-0.3,0.6c-0.2,0-0.4,0-0.5-0.1c-0.2-0.1-0.2-0.4-0.1-0.5c0.1-0.2,0.3-0.2,0.5-0.2
		C-85.7,83.5-85.5,83.6-85.4,83.8L-85.4,83.8z"/>
	<path d="M-20.2,84.2c0.1,0.2,0.1,0.3,0,0.4c-0.2,0.2-0.4,0.3-0.7,0.2c-0.2-0.1-0.2-0.3-0.3-0.4c0.1-0.2,0.2-0.4,0.4-0.5
		C-20.5,83.9-20.4,84.1-20.2,84.2L-20.2,84.2z"/>
	<path d="M-21.7,84.2c0.2,0.1,0.1,0.4,0,0.5S-22,85-22.2,85c-0.1-0.1-0.3-0.1-0.3-0.3c0-0.3,0.1-0.5,0.4-0.6
		C-21.9,84.1-21.8,84.1-21.7,84.2L-21.7,84.2z"/>
	<path d="M-23.5,84.6c0,0.3,0,0.6-0.3,0.7s-0.5-0.2-0.6-0.4c0-0.3,0.1-0.5,0.4-0.6C-23.8,84.3-23.6,84.5-23.5,84.6L-23.5,84.6z"/>
	<path d="M-82.7,84.7c0.1,0.3-0.2,0.4-0.3,0.5c-0.2,0.1-0.4-0.1-0.5-0.3c-0.2-0.2,0.1-0.3,0.1-0.5C-83.1,84.3-82.8,84.5-82.7,84.7
		L-82.7,84.7z"/>
	<path d="M-84.2,84.8c0,0.2-0.1,0.4-0.3,0.5c-0.2,0.1-0.4-0.1-0.5-0.2c-0.1-0.2,0-0.5,0.2-0.6C-84.5,84.4-84.3,84.6-84.2,84.8
		L-84.2,84.8z"/>
	<path d="M-29.6,84.9c0.2,0.5,0.5,1.2,0.5,1.8c-0.1,0.5,0.1,1.1-0.3,1.5c-0.4-0.1-0.4-0.6-0.6-0.8c-0.5-0.9-0.1-1.9,0.1-2.8
		C-29.7,84.5-29.7,84.8-29.6,84.9L-29.6,84.9z"/>
	<path d="M-85.4,85.2c0.1,0.3-0.1,0.5-0.3,0.6c-0.3,0.1-0.5-0.2-0.6-0.4c0-0.2,0.1-0.5,0.3-0.6C-85.7,84.9-85.5,85-85.4,85.2
		L-85.4,85.2z"/>
	<path d="M-25.6,86c0.3,0.7,0.4,1.6,0.1,2.4l-0.2,0.1c-0.4-0.7-0.9-1.3-1-2.1c0-0.5,0.1-1,0.3-1.5c0.2-0.1,0.3,0,0.4,0.2
		C-26,85.5-25.9,85.8-25.6,86L-25.6,86z"/>
	<path d="M-22.4,85.5c0,0.3-0.1,0.5-0.4,0.6c-0.2,0.1-0.5,0-0.6-0.3s0.1-0.5,0.3-0.6C-22.8,85-22.6,85.3-22.4,85.5L-22.4,85.5z"/>
	<path d="M-84.1,86.3c0,0.2-0.2,0.4-0.4,0.5c-0.2,0.2-0.4-0.1-0.5-0.2c-0.1-0.2-0.1-0.4,0-0.6s0.2-0.2,0.4-0.2
		C-84.4,85.9-84.2,86-84.1,86.3L-84.1,86.3z"/>
	<path d="M-83,86.2c0.1,0.2-0.2,0.4-0.3,0.5c-0.3,0.1-0.5-0.1-0.6-0.3c-0.1-0.3,0.1-0.4,0.3-0.6C-83.3,85.7-83.2,85.9-83,86.2
		L-83,86.2z"/>
	<path d="M-21.7,86.1c0,0.3-0.5,0.7-0.6,1c-0.3,0.7-0.9,1.2-1.6,1.4c-0.1,0.1-0.4,0.3-0.6,0.3c-0.1-0.5,0.4-1,0.7-1.4
		C-23.2,86.7-22.5,86.3-21.7,86.1L-21.7,86.1z"/>
	<path d="M-84.6,87.2c0.4,0.4,0.6,0.8,1,1.2c0,0.1-0.1,0.3-0.2,0.3c-1.2-0.1-2.1-1.3-2.7-2.2c0.1-0.3,0.4-0.1,0.6-0.1
		C-85.5,86.6-85,86.7-84.6,87.2L-84.6,87.2z"/>
	<path d="M-21.4,87.5c-0.1,1.1-0.6,2.2-1.6,2.7c-0.3,0.1-0.6,0.4-0.9,0.2c0.5-1.1,1.3-2,2.2-3h0.3V87.5z"/>
	<path d="M-26.2,88.2c0.1,0.4-0.1,0.6-0.4,0.7c-0.3,0-0.5-0.2-0.6-0.4c0-0.2,0.1-0.5,0.4-0.6c0.1-0.1,0.2-0.1,0.3-0.1
		C-26.4,88-26.4,88.1-26.2,88.2L-26.2,88.2z"/>
	<path d="M-86,88.5c0.5,0.3,0.9,0.8,1.4,1.2c-0.3,0.2-0.7,0-1.1,0c-0.9-0.3-1.4-1-2.3-1.3c0-0.3,0.4-0.2,0.5-0.3
		C-87,88.1-86.6,88.3-86,88.5L-86,88.5z"/>
	<path d="M-59,80.9c-1.4-0.6-2.4,0.9-3.8,0.7c-0.2,0.1-0.1,0.3-0.2,0.4c-0.1,0.1-0.2,0-0.3,0c-0.1-0.6-0.3-1.2-0.4-1.8
		c-0.1-0.2-0.1-0.6-0.2-0.9c-0.8-2.2,2-0.5,2.5-1.8c0.5-1.1-0.9-1.2-1.4-2v-0.3c-0.4-0.4-0.8-0.5-1.1-1.1c0.2-0.6,0.2-1.3,0.1-2
		c0-0.2-0.1-0.4-0.4-0.3c-0.5,0.7-0.8,1.2-1.3,1.8c-0.5-0.4-0.9-0.8-1.5-1.1c-0.4-0.1-0.7-0.4-1.2-0.3c-0.1,0.2,0,0.3,0.1,0.4
		c0,1,0.5,1.8,1.2,2.5l0.1,0.4c-0.5,1-0.3,2.2-0.5,3.4c-1.1,2.9-3,5.7-5.5,7.7c-1.4,1.6-3.2,3.2-3.4,5.4c-0.1,0.4,0.1,0.8-0.2,1
		c-0.8-0.3-1.7-0.7-2.4-1.2c-1.2-0.8-2.8-0.7-3.6-2.2c-0.3-0.6,0.1-1.2,0.4-1.6c0.9-0.8,0.7-2.3,0.3-3.3c-0.1,0-0.1,0.1-0.2,0.1
		c-0.1,1.5-1.3,2.5-0.8,4.2c0.1,0.5,0.4,0.8,0.5,1.2c-0.2-0.1-0.4-0.1-0.6-0.1c-0.6-0.1-1.1-0.3-1.7-0.2c-1.2,0.5-2.8-0.1-3.7,0.9
		c-0.2,0-0.4,0.1-0.3,0.3c0.6,0,1.1,0.2,1.6,0.1c0.9,0.2,1.5-0.6,2.1-0.9h0.2c0.2-0.3,0.7-0.1,1-0.2c1.6,0.2,2.8,0.9,4.1,1.7v0.1
		c-0.5,0.2-1.1,0.4-1.6,0.7c-0.6,0.4-1.2,1-1.4,1.7c-0.4,0.6,0.1,1.2,0.4,1.7c0,0.3,0.1,0.6,0.3,0.7c0.8-0.9,0.1-1.9,0.2-2.9
		c0.2-0.8,0.9-1.1,1.6-1.3c1.4-0.6,2.5,0.6,3.6,1.2c0,1.2,0.1,2.3-0.1,3.4c-0.4,0.1-0.8,0.2-1.2,0.2c-2,0.2-3.6,1.2-5.4,1.9
		c-0.8,0.3-1.8,0.3-2.6,0.6c0.6,0.2,1.3-0.1,1.9-0.1c2.5-0.4,4.4-2.3,7-1.9l0.1,0.1c-0.3,0.6-0.7,1.2-1.2,1.7
		c-0.1-0.3-0.1-0.5-0.4-0.7c-0.2-0.1-0.4,0-0.6,0.2c-0.1,0.1-0.1,0.3,0,0.4c0.1,0.2,0.3,0.3,0.5,0.4c-0.1,0.2-0.3,0.3-0.5,0.5
		c-0.7,1.2-2.2,0.7-3,1.6c-0.1,0.2-0.6,0.3-0.4,0.6c1,0.1,1.9-0.2,2.6-0.7c0.9-1,1.9-2,2.9-3c0.2,0.8-0.1,1.7-0.6,2.3
		c-0.2-0.1-0.4-0.3-0.7-0.4c-0.3,0.1-0.4,0.3-0.5,0.5c0.1,0.2,0.2,0.4,0.4,0.5c-0.9,0.6-1.9,0.7-2.9,0.9c-1.8,0.2-3.6,0.4-5.5,0.4
		c-0.9-0.1-1.9,0.3-2.7,0c-1,0.2-2-0.1-2.8,0.4c-0.1,0.1,0,0.3,0,0.4c1.2,0.8,2.8,0.2,4.1,0.4h10c0.7,0,1.5-0.1,2.1-0.4
		c1.3-0.7,2-2.1,2.7-3.4c0.2-0.5,0.4-1,0.5-1.5c0.2-0.9,1-1.5,1.9-1.6c0.1,1.3-0.1,2.6-0.4,3.9c-0.2,0.8-0.7,1.6-0.4,2.5
		c0.1,0.4,0.5,0.4,0.8,0.5c3.1-0.1,6.1-0.2,9.3,0.1c0.6,0.1,1.1,0.3,1.7,0.3c0.1-0.1,0.2-0.1,0.2-0.3c-0.1-0.3-0.3-0.6-0.6-0.7
		c-0.1-0.2-0.3-0.1-0.4-0.2c-1.6-0.9-3.6-0.4-5.5-0.4c-1,0.1-2,0.3-2.8-0.3c-0.4-0.5-0.1-1.9-0.1-1.9c0-0.6,1.4-4.6,1.6-4.9
		c0.1-0.4,0.2-0.7,0.2-1.2c0.7-0.5,0.7-1.1,0.7-1.7c0.1-0.8,0.5-1.6,0.8-2.4c0.1-0.4,0.3-0.8,0.4-1.2c0.2-0.5,0.2-0.9,0.5-1.3
		c0.8,0.5,1.6,0.5,2,1.4l0.4,2.1c0,0.1,0.1,0.4,0.3,0.2c0.7-0.4,0.5-1.4,0.5-2.1c0.1-0.8-0.4-1.2-0.6-1.9c-0.2-0.1-0.5-0.7-0.5-0.7
		c-0.1-0.6-1.3-0.9-1-1.6c0.2-0.6,0.3-1.1,0.9-1.5c0.1,0.1,0.1,0.1,0.1,0.2h0.2v-2.1c0.8,0,2,0.1,2.9,0.1c0.2,0.1,0.4,0.3,0.7,0.3
		l0.2-0.3l2-0.4C-57.6,81.9-58.2,80.9-59,80.9L-59,80.9z"/>
	<path d="M-56.8,81.8c0.1,0,0.1,0,0.2,0H-56.8L-56.8,81.8z"/>
	<path d="M-78.8,88.9c0,0.3-0.2,0.5-0.4,0.6c-0.2-0.1-0.4-0.1-0.5-0.3c-0.1-0.3,0.2-0.5,0.4-0.6C-79.1,88.7-78.8,88.7-78.8,88.9
		L-78.8,88.9z"/>
	<path d="M-80.4,88.9c0.2,0.2,0.2,0.4,0.1,0.6c-0.2,0.2-0.5,0.3-0.6,0.1c-0.2-0.2-0.3-0.3-0.2-0.5C-80.9,88.9-80.6,88.7-80.4,88.9
		L-80.4,88.9z"/>
	<path d="M-45.2,89.2L-45.2,89.2"/>
	<path d="M-26,89.6c0.1,0.3-0.1,0.5-0.3,0.6c-0.3-0.1-0.6-0.1-0.6-0.5c0-0.2,0.2-0.3,0.4-0.4C-26.3,89.3-26.1,89.5-26,89.6L-26,89.6
		z"/>
	<path d="M-24.6,89.6c0.1,0.1,0.2,0.3,0.1,0.5c-0.1,0.1-0.2,0.1-0.2,0.2c-0.3,0.1-0.5-0.1-0.6-0.3c-0.1-0.3,0.2-0.4,0.4-0.5
		C-24.9,89.4-24.8,89.5-24.6,89.6L-24.6,89.6z"/>
	<path d="M-86.8,89.9c-0.1,0.3-0.4,0.4-0.7,0.3c-0.1-0.1-0.2-0.2-0.2-0.3c0-0.2,0.1-0.4,0.3-0.4C-87.1,89.5-86.8,89.6-86.8,89.9
		L-86.8,89.9z"/>
	<path d="M-78.2,90.3c0,0.2-0.3,0.4-0.4,0.5c-0.3,0-0.4-0.2-0.6-0.4c0-0.2,0.1-0.5,0.3-0.5C-78.6,89.8-78.3,90.1-78.2,90.3
		L-78.2,90.3z"/>
	<path d="M-79.7,90.2c0.1,0.1,0.2,0.3,0.1,0.4c-0.2,0.1-0.4,0.4-0.6,0.2c-0.2-0.1-0.3-0.2-0.3-0.5c0.1-0.1,0.2-0.3,0.4-0.3
		C-80,89.9-79.9,90.1-79.7,90.2L-79.7,90.2z"/>
	<path d="M-20.8,90.5c0,0.2-0.2,0.4-0.3,0.5c-0.2,0.1-0.4,0-0.6-0.1c-0.1-0.1-0.1-0.3-0.1-0.4c0.1-0.2,0.3-0.3,0.5-0.3
		C-21,90.2-20.9,90.3-20.8,90.5L-20.8,90.5z"/>
	<path d="M-19.1,90.7c-0.1,0.2-0.2,0.4-0.5,0.5c-0.2,0-0.4-0.1-0.4-0.3c0-0.2,0.1-0.4,0.2-0.4C-19.5,90.3-19.2,90.4-19.1,90.7
		L-19.1,90.7z"/>
	<path d="M-83.9,91c0.1,0.3-0.1,0.5-0.3,0.6c-0.2,0.1-0.4,0-0.5-0.1s-0.2-0.3-0.1-0.5s0.3-0.2,0.4-0.3C-84.1,90.8-84,90.9-83.9,91
		L-83.9,91z"/>
	<path d="M-82.6,91.3c0.1,0.2-0.2,0.3-0.2,0.4c-0.1,0.1-0.3,0.2-0.5,0.1c-0.2-0.2-0.4-0.4-0.2-0.6C-83.3,90.8-82.8,91-82.6,91.3
		L-82.6,91.3z"/>
	<path d="M-22.3,91.2c0,0.2-0.2,0.4-0.4,0.6c-0.2,0.1-0.5-0.1-0.5-0.3c0-0.2,0.1-0.4,0.3-0.5C-22.6,90.9-22.4,90.9-22.3,91.2
		L-22.3,91.2z"/>
	<path d="M-20.2,91.6c-0.1,0.2,0,0.5-0.3,0.6c-0.2,0.1-0.5,0-0.6-0.1s-0.2-0.4-0.1-0.5c0.1-0.2,0.4-0.4,0.6-0.3
		C-20.4,91.3-20.3,91.5-20.2,91.6L-20.2,91.6z"/>
	<path d="M-84.8,92.1c0.1,0.2-0.1,0.3-0.2,0.4c-0.2,0.1-0.4,0-0.5-0.1c-0.2-0.1-0.1-0.4-0.1-0.5C-85.4,91.5-84.9,91.8-84.8,92.1
		L-84.8,92.1z"/>
	<path d="M-21.8,92.6c0.1,0,0.1,0.2,0,0.2c-0.6,0.3-1.5,0.4-2-0.1c-0.3-0.3-0.7-0.4-1-0.6c0.1-0.3,0.6-0.3,0.9-0.4
		C-23.2,91.9-22.6,92.6-21.8,92.6L-21.8,92.6z"/>
	<path d="M-83.6,92.3c0.1,0.2-0.1,0.3-0.2,0.4c-0.1,0.2-0.3,0.1-0.4,0.1c-0.2-0.2-0.3-0.4-0.2-0.6C-84.1,91.9-83.8,92.1-83.6,92.3
		L-83.6,92.3z"/>
	<path d="M-81.4,92.5c0.1,0.2-0.1,0.4-0.2,0.6c-0.2,0.1-0.3-0.1-0.5-0.1c-0.1-0.2-0.4-0.4-0.1-0.6C-82,92-81.6,92.2-81.4,92.5
		L-81.4,92.5z"/>
	<path d="M-52.2,93.6c-0.1,0.5-0.9-0.1-0.8,0.6c0.1,0.5,0.2,1.1,0.5,1.4c0.2,0.3,0.1,0.9,0.1,1.3c-0.2,0.4-0.6,0.6-1,0.8
		c-0.7-0.1-1.8,0.4-2.1-0.5c-0.1-0.4-0.4-0.8-0.4-1.2c0.1-0.1,0.2-0.1,0.2-0.1c0-0.2-0.2-0.3-0.2-0.4c0.8-0.1-0.3-0.9,0.4-0.9
		c0.6,0.6,1.5,0.4,2,1.1c0.1,0.1,0.2,0.2,0.4,0.3c-0.1-0.6-0.4-1.2-0.5-1.9c-0.1-0.3,0.1-0.7,0.3-0.8
		C-52.8,92.8-52.4,93.3-52.2,93.6L-52.2,93.6z"/>
	<path d="M-79.2,93.4c0.1,0.3-0.1,0.4-0.3,0.5c-0.2,0.1-0.4-0.2-0.5-0.3c-0.1-0.3,0.1-0.4,0.3-0.5C-79.5,93.2-79.3,93.2-79.2,93.4
		L-79.2,93.4z"/>
	<path d="M-63.6,93.7c0.3,1,0.2,2-0.3,2.9c0,0.2,0.1,0.5-0.2,0.5c-0.7-0.9-0.2-2.3,0.1-3.3C-64,93.5-63.6,93.4-63.6,93.7L-63.6,93.7
		z"/>
	<path d="M-41.9,94.1c0.4,0.7,0.4,1.7,0.1,2.4l-0.2,0.2c-0.3-0.6-0.5-1.2-0.6-1.8c0.1-0.5,0.3-0.9,0.3-1.3C-42,93.5-42,94-41.9,94.1
		L-41.9,94.1z"/>
	<path d="M-77.2,94.4c-0.2,0.3-0.6,0.4-0.9,0.6c-0.6,0.5-1.5,0.6-2.2,0.4c0.7-0.9,1.7-1.5,2.9-1.2C-77.4,94.4-77.2,94.3-77.2,94.4
		L-77.2,94.4z"/>
	<path d="M-87.6,95.3c0.9,0.7,1.2,1.6,1.7,2.5c0.1,0.1,0.3,0.1,0.2,0.3c-0.2,0.2-0.4-0.2-0.7-0.1c-1-0.4-1.6-1.5-1.5-2.6
		C-87.8,95.3-87.7,95.3-87.6,95.3L-87.6,95.3z"/>
	<path d="M-42.9,96.1c0,0.3,0,0.5-0.2,0.6c-0.3,0.1-0.5-0.1-0.6-0.3c-0.1-0.2,0.1-0.3,0.1-0.4C-43.4,95.8-43.1,95.9-42.9,96.1
		L-42.9,96.1z"/>
	<path d="M-32.3,97.5c0-0.5,0.1-0.9,0.2-1.4c0.1-0.2,0.1-0.3,0.1-0.5c0.6-0.8,1.8-0.6,2.8-0.5c0.4,0.2,0.9,0.2,1.3,0.3
		c0.2-0.1,0.4-0.2,0.6-0.1c0.8-0.4,0.3-1.4,0.3-2.1l-0.3-0.8c-0.1-0.2-0.2-0.3-0.2-0.5c-0.1-0.2-0.2-0.5-0.4-0.7
		c-0.4-1.1-1.3-1.8-2-2.6c-1.3-1.7-3.3-2.6-5.3-3.3c-2-0.7-4,0.2-5.8,0.8c-0.5-0.2-0.8-0.6-1-1.1c-0.1-1,0.1-1.9,0.5-2.7
		c0.1-0.6,0.5-1.1,0.7-1.7c0.5-1.4,0.9-2.8,1-4.4c0.1-0.9-0.7-1.6-1.4-2c-0.5-0.1-1-0.1-1.4,0.3c-0.3,0.7-1,1.2-1.6,1.5
		c-0.1,0.4,0.5,0.2,0.7,0.3c0.6,0.1,1.2-0.1,1.6,0.3c0.1,1-0.5,1.9-1.1,2.6c-0.9,1.3-1.8,2.6-2.3,4l-0.1-0.1l0.1,6.2
		c0.8,1.3,1.8,2.9,3.3,3.4c0.8,0.7,1.8,1.5,2.9,0.9c0.6-0.2,0.6,0.6,0.9,1c0.3,0.9-0.4,1.6-0.4,2.5l-0.7,1.4
		c-0.8,1.5-1.4,3.1-2.6,4.3c-0.4,0-0.6,0.4-1,0.4c-0.2,0.3-0.6,0.1-0.9,0.2c-0.8,0.3-1.9,0.1-2.4,0.9c0.1,0.1,0.1,0.1,0.2,0.1
		c1.5,0,3.3,0.1,4.9,0.1c0.2-0.1,0.4-0.3,0.4-0.5c-0.2-0.4,0.1-0.8,0.3-1.1c0.1-0.6,0.5-1,0.7-1.6c0.5-1,1.1-2.1,1.7-3.1l0.8-1.3
		c0.2-0.4,0.5-1,0.8-1.4c0.2-0.2,0.3-0.4,0.5-0.7c0-0.3-0.1-0.4-0.2-0.5c0.2-0.2,0.5-0.1,0.7-0.2c0.6,0.4,1.3,1,1.4,1.7l0.2,0.7
		l0.1,0.3l-0.1,0.8l0.1,0.8c0.1,1.2-0.1,2.5-0.2,3.7c-0.4,1.5-2.1,1.3-3.3,1.7c-0.3,0.2-0.9,0.1-0.9,0.6c1.5,0.3,3.2,0.1,4.7,0.1
		c0.2-0.1,0.3-0.3,0.4-0.6c0.1-0.3,0.4-0.6,0.3-1c-0.3-0.4,0-0.9-0.1-1.4c0.1-0.1,0.1-0.3,0-0.5c0.2-0.7,0.2-1.6,0.3-2.3L-32.3,97.5
		L-32.3,97.5z"/>
	<path d="M-19.8,96.5c-0.8,1.1-1.7,2.4-3.1,2.9c-0.1,0-0.2,0.1-0.2-0.1c0.9-0.9,1.3-2.3,2.7-2.7C-20.3,96.5-20,96.4-19.8,96.5
		L-19.8,96.5z"/>
	<path d="M-88.8,97.7c-0.1,0.1,0,0.3-0.2,0.4s-0.4,0-0.5-0.2c-0.1-0.3,0.1-0.5,0.3-0.6C-89.1,97.4-88.9,97.5-88.8,97.7L-88.8,97.7z"
		/>
	<path d="M-81.5,98.1c0.1,0.2-0.2,0.2-0.3,0.3c-1.1,0.4-2.1,0-2.9-0.7c0-0.1,0-0.2,0.1-0.2C-83.6,97.7-82.4,97.5-81.5,98.1
		L-81.5,98.1z"/>
	<path d="M-87.4,97.8c0.1,0.1,0.1,0.3,0.1,0.4c-0.2,0.2-0.4,0.3-0.6,0.2c-0.2-0.1-0.2-0.2-0.3-0.3c0-0.3,0.2-0.4,0.4-0.5
		C-87.7,97.6-87.6,97.6-87.4,97.8L-87.4,97.8z"/>
	<path d="M-63.8,97.9c0.1,0.2-0.2,0.4-0.3,0.5c-0.2,0.1-0.4-0.1-0.5-0.2c-0.1-0.2,0-0.4,0.2-0.5C-64.2,97.6-63.8,97.7-63.8,97.9
		L-63.8,97.9z"/>
	<path d="M-18.9,98c0.1,0.2-0.1,0.4-0.3,0.5c-0.2,0.1-0.3,0-0.5-0.1c0-0.1-0.2-0.2-0.1-0.4c0.1-0.2,0.3-0.3,0.6-0.3
		C-19.1,97.8-19,97.9-18.9,98L-18.9,98z"/>
	<path d="M-17.2,97.9c0.2,0.2,0,0.4-0.1,0.6s-0.3,0.2-0.5,0.2c-0.2-0.2-0.4-0.2-0.4-0.5c0-0.2,0.2-0.4,0.4-0.4
		C-17.5,97.6-17.4,97.9-17.2,97.9L-17.2,97.9z"/>
	<path d="M-89.9,98.6c0,0.2-0.1,0.3-0.2,0.4s-0.2,0.2-0.4,0.1c-0.2-0.1-0.3-0.2-0.4-0.4c0.1-0.2,0.2-0.4,0.5-0.5
		C-90.2,98.3-90,98.4-89.9,98.6L-89.9,98.6z"/>
	<path d="M-36.7,98.6c0.1,0.1,0,0.2,0,0.3c-0.2,0.2-0.4,0.4-0.6,0.2c-0.2-0.2-0.3-0.3-0.2-0.5C-37.3,98.4-36.9,98.3-36.7,98.6
		L-36.7,98.6z"/>
	<path d="M-85.8,99c-0.1,0.2-0.1,0.4-0.4,0.4s-0.3-0.2-0.4-0.3c0-0.2,0-0.5,0.2-0.6C-86.1,98.4-85.8,98.7-85.8,99L-85.8,99z"/>
	<path d="M-88.2,99.1c0.1,0.3-0.1,0.4-0.2,0.6c-0.3,0.1-0.6-0.1-0.7-0.4c0-0.2,0.2-0.5,0.5-0.6C-88.5,98.7-88.4,98.9-88.2,99.1
		L-88.2,99.1z"/>
	<path d="M-35,99c0.1,0.2,0,0.5-0.3,0.6s-0.6-0.2-0.7-0.4c0.1-0.2,0.2-0.5,0.5-0.5C-35.3,98.7-35.1,98.8-35,99L-35,99z"/>
	<path d="M-87.1,99.1c0.1,0.2-0.1,0.3-0.1,0.4c-0.1,0-0.2,0.2-0.4,0.1c-0.1-0.1-0.3-0.2-0.3-0.4c0-0.3,0.2-0.4,0.3-0.5
		C-87.3,98.7-87.1,98.9-87.1,99.1L-87.1,99.1z"/>
	<path d="M-20.3,99.3c-0.1,0.2-0.2,0.3-0.4,0.4c-0.2,0.1-0.3-0.1-0.5-0.2c-0.1-0.1-0.1-0.3,0-0.5C-21,98.6-20.3,98.8-20.3,99.3
		L-20.3,99.3z"/>
	<path d="M-18.4,99.4c-0.1,0.3-0.4,0.4-0.6,0.4c-0.2-0.1-0.5-0.3-0.3-0.6c0.1-0.1,0.1-0.2,0.3-0.2C-18.7,98.9-18.4,99.2-18.4,99.4
		L-18.4,99.4z"/>
	<path d="M-30.3,99.6c0.1,0.3-0.2,0.4-0.4,0.6c-0.2,0-0.3-0.1-0.5-0.2c-0.1-0.3,0.1-0.5,0.4-0.7C-30.6,99.3-30.5,99.4-30.3,99.6
		L-30.3,99.6z"/>
	<path d="M-37.3,99.9c0.1,0.1,0.1,0.2,0.1,0.3c-0.2,0.1-0.4,0.4-0.6,0.2c-0.2-0.1-0.3-0.3-0.3-0.5C-38,99.7-37.4,99.6-37.3,99.9
		L-37.3,99.9z"/>
	<path d="M-35.9,100.1c0,0.2,0,0.3-0.2,0.4c-0.2,0.2-0.4,0-0.6-0.1c-0.1-0.1-0.1-0.3,0-0.4s0.2-0.2,0.3-0.2
		C-36.2,99.9-36,99.9-35.9,100.1L-35.9,100.1z"/>
	<path d="M-78.8,100.1c0.2,0.2,0,0.3-0.1,0.5s-0.4,0.3-0.6,0.1c-0.2-0.1-0.2-0.4-0.2-0.6c0.2-0.1,0.2-0.2,0.4-0.2
		C-79,99.9-78.9,100-78.8,100.1L-78.8,100.1z"/>
	<path d="M-27.6,100.2c0.1,0.3-0.2,0.4-0.4,0.4c-0.3,0.1-0.5-0.1-0.6-0.3c0-0.2,0.1-0.2,0.2-0.4C-28.1,99.8-27.8,100-27.6,100.2
		L-27.6,100.2z"/>
	<path d="M-29,100.2c0.1,0.3-0.2,0.4-0.3,0.5c-0.2,0.1-0.4,0.1-0.6-0.1c-0.1-0.1-0.1-0.2-0.1-0.4c0.2-0.1,0.2-0.3,0.4-0.3
		C-29.3,99.9-29.1,100-29,100.2L-29,100.2z"/>
	<path d="M-17.6,100.5c0.1,0.4-0.4,0.2-0.6,0.3c-1.1,0.6-2.4,0.2-3.4-0.2c0.1-0.3,0.5-0.2,0.7-0.3C-19.9,99.5-18.8,100.4-17.6,100.5
		L-17.6,100.5L-17.6,100.5z"/>
	<path d="M-86.8,100.2l-0.1,0.2c-0.9,0.6-2.1,0.9-3.3,0.6l-0.1-0.2C-89.3,100.1-88.1,100-86.8,100.2L-86.8,100.2L-86.8,100.2z"/>
	<path d="M-25.1,100.4c0,0.2-0.1,0.4-0.2,0.5c-0.2,0.1-0.6,0-0.7-0.3c-0.1-0.2,0.1-0.4,0.3-0.5C-25.5,100.1-25.2,100.1-25.1,100.4
		L-25.1,100.4z"/>
	<path d="M-82.3,100.5c-0.1,0.2-0.1,0.4-0.3,0.5s-0.6-0.1-0.6-0.3c-0.1-0.3,0.1-0.4,0.2-0.5C-82.6,100-82.4,100.3-82.3,100.5
		L-82.3,100.5z"/>
	<path d="M-84,100.6c0.1,0.2-0.1,0.3-0.1,0.4c-0.1,0.2-0.4,0.1-0.5,0.1c-0.2-0.2-0.4-0.3-0.3-0.6c0.2-0.1,0.2-0.2,0.4-0.3
		C-84.3,100.3-84.1,100.4-84,100.6L-84,100.6z"/>
	<path d="M-23.3,101.2c0,0.2-0.2,0.4-0.4,0.5c-0.2,0-0.4-0.1-0.5-0.3c-0.1-0.2-0.1-0.4,0.1-0.5c0.1-0.1,0.2-0.1,0.3-0.1
		C-23.5,100.8-23.3,101-23.3,101.2L-23.3,101.2z"/>
	<path d="M-85.9,100.9c0.1,0.2-0.1,0.3-0.1,0.4c-0.1,0.4-0.4,0.7-0.5,1.1c-0.5,0.6-1.2,0.6-1.8,0.8l-0.1-0.2
		C-87.8,102.1-87,101.3-85.9,100.9L-85.9,100.9L-85.9,100.9z"/>
	<path d="M-24.6,101.5c0.1,0.3-0.2,0.4-0.4,0.5c-0.2,0-0.4-0.1-0.5-0.3c-0.1-0.3,0.2-0.4,0.3-0.5C-24.9,101.1-24.6,101.3-24.6,101.5
		L-24.6,101.5z"/>
	<path d="M-83,101.5C-83,101.6-83,101.6-83,101.5c0.1,0.4-0.1,0.5-0.3,0.6c-0.2,0-0.4-0.1-0.6-0.2c-0.1-0.2,0-0.5,0.2-0.6
		C-83.4,101.2-83.1,101.2-83,101.5L-83,101.5z"/>
	<path d="M-19.9,102.2c0.2,0,0.3-0.3,0.6-0.4c0.2-0.1,0.5,0.1,0.6,0.3c0.1,0.3-0.1,0.5-0.3,0.6c-0.2,0.1-0.6-0.2-0.5,0.2
		c0.2,0.1,0.3,0.3,0.4,0.5c-0.1,0.1-0.2,0.1-0.3,0c-0.7-0.3-1.5-0.8-1.8-1.6c-0.1-0.2-0.6-0.4-0.3-0.6
		C-20.9,101.2-20.3,101.8-19.9,102.2L-19.9,102.2z"/>
	<path d="M-17.5,101.5c0.1,0.1,0.1,0.4,0,0.5c-0.1,0.3-0.5,0.2-0.7,0.1c-0.1-0.1-0.2-0.3-0.2-0.5c0.1-0.2,0.2-0.2,0.4-0.3
		C-17.8,101.2-17.7,101.3-17.5,101.5L-17.5,101.5z"/>
	<path d="M-26.7,102.8c0.2,0.3,0.5,0.7,0.6,1c-0.1,0.1-0.2,0.1-0.2,0.1c-0.9-0.5-2-1-2.3-2c-0.1-0.1-0.3-0.2-0.2-0.4
		c0.7-0.1,1.3,0.4,1.7,0.7C-27,102.4-26.8,102.6-26.7,102.8L-26.7,102.8z"/>
	<path d="M-84.4,101.9c0.1,0.2-0.1,0.4-0.2,0.5c-0.3,0.1-0.4-0.1-0.6-0.2c-0.2-0.3,0.2-0.5,0.4-0.6
		C-84.7,101.5-84.6,101.7-84.4,101.9L-84.4,101.9z"/>
	<path d="M-23.5,102.5c0,0.2-0.2,0.3-0.2,0.4c-0.2,0-0.4,0.1-0.6-0.1c-0.1-0.1-0.2-0.3,0-0.5C-24.1,101.9-23.7,102.2-23.5,102.5
		L-23.5,102.5z"/>
	<path d="M-17.2,102.8c0.1,0.3-0.2,0.5-0.4,0.6c-0.2,0.1-0.5-0.1-0.6-0.2c-0.1-0.2,0-0.3,0-0.5c0.2-0.2,0.4-0.3,0.7-0.2
		C-17.4,102.6-17.3,102.7-17.2,102.8L-17.2,102.8z"/>
	<path d="M-34.7,106.3c0,0.3-0.6,0.2-0.8,0.5c-0.8,0.4-1.7,0.4-2.7,0.4V107C-37.2,106.2-35.9,106-34.7,106.3L-34.7,106.3z"/>
	<path d="M-71.6,107.4c0,0.2-0.2,0.4-0.4,0.4c-0.2,0-0.4-0.1-0.4-0.2c-0.1-0.3,0.2-0.4,0.3-0.6C-71.8,107.1-71.6,107.2-71.6,107.4
		L-71.6,107.4z"/>
	<path d="M-35.1,107.7c-0.1,0.2-0.1,0.5-0.4,0.6c-0.2,0.1-0.4-0.1-0.6-0.2c-0.1-0.1-0.1-0.3-0.1-0.4
		C-36,107.2-35.3,107.2-35.1,107.7L-35.1,107.7z"/>
	<path d="M-30.1,107.8c-0.6,0.4-1.3,0.9-2.2,0.9h-1.4l-0.1-0.1C-33,107.6-31.4,107.6-30.1,107.8L-30.1,107.8L-30.1,107.8z"/>
	<path d="M-78.5,108.4c0,0.2-0.1,0.4-0.3,0.5c-0.2,0.1-0.4-0.1-0.5-0.2c-0.1-0.2,0-0.5,0.2-0.6C-78.9,107.9-78.6,108.2-78.5,108.4
		L-78.5,108.4z"/>
	<path d="M-77.2,108.7c0.1,0.1-0.1,0.2-0.1,0.3c-0.1,0.1-0.4,0.1-0.5,0c-0.2-0.1-0.2-0.3-0.2-0.4c0.1-0.2,0.2-0.1,0.3-0.2
		C-77.5,108.4-77.3,108.5-77.2,108.7L-77.2,108.7z"/>
	<path d="M-86.9,111.2c-0.2,0.3-0.7-0.1-0.9-0.2c-0.9-0.5-0.9-1.5-1.7-2.1c0.1-0.3,0.3,0,0.5,0c0.2,0.1,0.4,0.2,0.5,0.3
		C-87.7,109.7-87.5,110.5-86.9,111.2L-86.9,111.2z"/>
	<path d="M-13.2,101.4c-0.4-0.7-1.1-1-1.9-1c-0.7,0.1-1.1,0.5-1.4,1c-0.2,0.6,0.1,1.1,0.5,1.4c0.2,0.1,0.4,0.1,0.5-0.1
		c0.1-0.3-0.2-0.3-0.3-0.6c-0.1-0.4,0-0.7,0.3-0.9c0.2-0.3,0.7-0.1,1-0.1c0.3,0.2,0.6,0.4,0.8,0.7c0.2,0.4,0.2,0.9,0,1.3
		c-0.3,0.6-0.9,1.1-1.6,1.3c-2.1,0.3-25.1,0.2-25.1,0.2c-2.7,0.3-5.8-0.5-8.1,0.9c-1.1,0.5-1.6,1.7-1.9,2.7c-0.7,0.6-1.4,1.3-2,2
		l-0.1-0.1c0.1-0.6,0.4-1.2,0.5-1.8c0.4-0.5,0.4-1.2,0.7-1.8c1-1.6,1.9-3.1,3.4-4.2c0.6-0.8,1.7-0.7,2.7-0.7c1,0.5,2.2,0.6,3.5,0.5
		c0.1-0.1,0.1-0.1,0.1-0.2c-0.4-0.3-0.9-0.5-1.3-0.8c-1-0.5-2,0.2-3,0.1c-0.1-0.1-0.1-0.1-0.1-0.2c1-0.7,2.1-1.2,3.1-1.7
		c0.9-0.5,1.8-0.7,2.8-1.1c0.4,0,0.7-0.3,1.1-0.1l1.3-0.4c0.1,0,0.1,0.1,0.2,0.1c1.1-0.4,2.6,0,3.9-0.1l0.2,0.2l1.2,0.3
		c0.5,0.1,0.7,0.6,1.1,0.6c0.2-0.4-0.3-0.5-0.4-0.7c0.6-0.1,1.2,0,1.7,0.3l-0.2,0.3c-0.1,0.3,0.1,0.5,0.3,0.6
		c0.2,0.1,0.3-0.1,0.4-0.1c0.3-0.2,0-0.5,0.1-0.7c1.9,0.3,3.7,0.8,5.4,1.5c0.5,0.2,0.9,0.5,1.5,0.5c-0.5-0.5-1.3-0.7-1.9-1
		c-0.4-0.3-1-0.3-1.4-0.6c0.1-0.1,0.2-0.1,0.3-0.2c0.9-0.1,1.6-0.7,2.2-1.4c0.1-0.2,0.3-0.1,0.3-0.3c-0.2-0.3-0.6,0.1-0.9,0.1
		c-1.1,0.2-1.5,1.5-2.6,1.7c-1.3-0.3-2.6-0.6-3.9-0.9c-0.6-0.1-1.3-0.2-1.9-0.4l-1.4-0.1h-2.6c0-0.1-0.1-0.1-0.1-0.2
		c0.9-0.2,1.7-0.8,2.6-1l6.8-3.1c0.7-0.6,1.3-1.3,1.9-2.1c0-0.2-0.1-0.4-0.3-0.5c-0.2-0.1-0.4-0.1-0.5,0.1c-0.3,0.2,0,0.5,0,0.8
		c-0.3,0.4-0.8,0.8-1.2,1c-0.1,0-7,3.1-7,3.1c-1,0.4-2,0.9-3.1,1.1l-1.5,0.2c-0.1,0.3-0.4,0.5-0.6,0.6c-0.4,0.1-0.7,0.3-1.2,0.3
		c-3.3,1.3-6.7,2.6-9.3,5.2c0.2-0.3,0.2-0.7,0.2-1.1c-0.1-0.4,0-0.8-0.3-1.1c-0.1-0.1-0.2-0.5-0.2-0.7l-0.4,0.2
		c-0.2,0.6-0.4,1.6-0.2,2.2c0.1,0.5,0.5,1,0.1,1.4c-1.2,1.5-1.9,3.3-2.7,4.9c-0.3-0.1-0.5-0.3-0.6-0.6c0.9-1.1,1.5-2.3,1.8-3.7
		c0.2-0.1,0.1-0.5,0.2-0.6c-0.1-0.4,0.2-0.8,0-1.2c0.2-0.5-0.7-1.1-0.2-1.4l-0.5,0.2c-1.1,1.4,0.6,3.6-0.7,4.9v0.1
		c-0.4,0.5-0.5,0.9-1,1.2c-0.6-0.2-0.8-0.9-1.2-1.5c-0.6-0.5-0.6-1.6-0.2-2.4c0.2-0.7-0.2-1.4-0.2-2l-0.2-0.2c-0.6,0.8-0.8,2-0.4,3
		c0.2,0.5,0.3,1.1,0.7,1.5c0.2,0.7,0.7,1.2,1.1,1.9c0.1,0.3-0.2,0.3-0.3,0.4c-0.3-0.2-0.2-0.6-0.5-0.8c-0.8-1.8-1.9-3.2-3.2-4.7
		c-0.1-0.2-0.3-0.4-0.2-0.7c0.5-0.5,0.6-1.3,0.3-1.9c-0.1-0.1-0.2-0.3-0.2-0.4l-0.4-0.3c0.1,0.9-0.5,1.7-0.3,2.6v0.1
		c-2.6-2-5.5-3.7-8.4-5.1l-0.2,0.6c0.7,0.2,2.7,1.4,2.7,1.4c0.9,0.3,1.7,0.9,2.5,1.3c3.4,1.9,5.7,5.1,7.3,8.6c0,0.3,0.3,0.6,0.1,0.9
		c-0.5-0.8-1.3-1.3-1.9-1.9c-0.2-1.2-0.9-2.3-1.9-2.8c-0.4-0.6-1.2-0.6-1.8-0.8l-9.2-0.1c-7.5-0.1-14.3,0.2-21.7,0.1
		c-1-0.1-2.3-0.5-2.6-1.6c-0.2-0.4-0.2-1,0-1.4c0.3-0.5,0.8-0.6,1.3-0.7c0.4,0.1,0.7,0.4,0.9,0.7c0,0.3-0.3,0.6-0.4,0.9
		c0,0.1,0.1,0.3,0.3,0.2c0.3-0.1,0.6-0.5,0.7-0.8c0-0.2,0.1-0.4-0.1-0.6c-0.2-0.5-0.7-0.9-1.2-1c-0.6-0.1-1.3,0.1-1.7,0.6
		c-0.6,0.5-0.6,1.4-0.4,2.1c0.4,1.1,1.6,1.9,2.7,2.1l24.6,0.1c2.4,0.1,5.1-0.3,7.5,0.2c0.9,0.3,1.8,0.9,2.1,1.9c0,0.1-0.1,0-0.2,0
		c-2-1.3-4.6-1.8-7.2-1.5c-1-0.1-1.9,0.3-2.8,0.6c-0.5,0.1-0.9-0.1-1.2-0.4c-0.9-0.8-2.5-0.8-3.7-0.5c0,0.1,0,0.2,0,0.2
		c1.2-0.1,2,1,3.1,1.1c0.2,0.1,0.5-0.2,0.7,0c-1.2,0.6-2.3,1.2-3.5,1.6c-0.4-0.1-0.6-0.4-0.9-0.6c-0.5-0.5-1.4-0.3-2-0.4
		c-0.2,0.1-0.4-0.1-0.6,0c0.2,0.4,0.7,0.6,1.1,0.8c0.6,0.3,1.4,0,1.9,0.4c-0.2,0.2-0.4,0.2-0.5,0.4c-1.2,0.5-2.2,1.5-3.5,1.5
		c-1.4,0.2-2.8-0.3-3.7-1.2c-0.4-1-1.4-1.5-2.5-1.5c-0.1,0.1-0.2,0.1-0.2,0.2c0.6,0.3,1,1,1.5,1.4c0.4,0.4,1,0,1.4,0.5
		c0.5,0.3,1.1,0.6,1.6,0.7c0.4,0.2,0.9,0.3,1.3,0.4l-0.2,0.1c-2.3,0.8-5,0.8-7.5,0.7c-0.8,0-1.5-0.2-2.2-0.2
		c0.1,0.2,0.4,0.3,0.6,0.4c-0.2,0.1-0.4,0.2-0.7,0.2c-0.3,0.1-0.7,0.1-1,0.3c-0.4,0-0.8,0.1-1.1,0.2c-0.4,0.5-0.9,0.9-1.4,1.2
		c0,0.1,0,0.3,0.1,0.3c0.5-0.2,1.1-0.1,1.6-0.3c0.8-0.1,1.3-1,2-1.4c0.7-0.6,1.7-0.4,2.6-0.3c0.5,0.1-0.1,0.3,0.1,0.7
		c0.2,0.2,0.4,0.4,0.7,0.3c0.1-0.1,0.1-0.1,0.2-0.1c0.2-0.2,0.1-0.4,0-0.6c0.4-0.2,0.8,0,1.2-0.1c1,0,1.9-0.2,2.9-0.3
		c0.2,0,0.3-0.2,0.5,0c-0.1,0.2-0.3,0.2-0.2,0.5c0.1,0.2,0.3,0.3,0.5,0.4c0.2-0.1,0.5-0.3,0.4-0.6c-0.1-0.2-0.2-0.2-0.4-0.3
		c0.5-0.3,1.1-0.3,1.7-0.6c0.4-0.1,0.7-0.2,1.1-0.4c0.3,0,0.6-0.3,0.9-0.2c-0.1,0.4-0.3,0.8-0.5,1.2c-0.4,1.3-0.7,3.1,0,4.4
		c0.1,0,0.1,0,0.2-0.1c-0.5-1.3-0.2-2.9,0.2-4.2c0.4-2.2,2.6-2.8,4.2-3.6l0.1,0.1c-0.4,1.1-1.1,2.2-1,3.5c0.1,0.2-0.1,0.5,0,0.6
		c0.4-0.2,0.7-0.7,0.9-1.2c0.2-1.1-0.5-2.6,0.7-3.4c2.1-0.8,4-1.9,6.4-1.9c0.1,0.1,0.2-0.1,0.3,0.1c-0.5,0.6-1.2,1.1-1.5,1.8
		c-0.8,1.1-0.8,3-0.4,4.4c0.2,0.8-0.5,1.2-0.8,1.8c-0.2,0.2-0.2,0.6-0.3,0.8l0.5,0.1c0.4-0.5,0.8-1,0.9-1.7c0.1,0.3,0.3,0.5,0.5,0.5
		c0.2-0.3-0.2-0.5-0.2-0.8c0.4-0.2,0.6,0.3,0.9,0.4c0.5,0.1,1,0.4,1.5,0.4l0.2-0.2c-0.6-0.9-1.7-1-2.6-1.1c-0.5-0.8-0.5-1.9-0.5-2.9
		c0.1-0.5,0.2-1.1,0.5-1.6c0.1-0.4,0.5-0.7,0.7-1c0.5-0.4,1-0.7,1.6-0.9h0.1c0,0.1,0,0.1,0,0.1c-0.7,0.5-0.8,1.3-1.2,1.9
		c-0.4,0.6-0.6,1.5-0.2,2.2c0.2,0.3,0.1,0.8,0.4,1.1c0.3-0.5,0.4-1,0.5-1.6c-0.1-0.8-0.6-1.6-0.1-2.4c0.2-0.6,0.8-0.9,1.4-1.1
		c1.4-0.1,2.6,0.6,3.8,1.1c0.2,0.2,0.7,0.3,0.7,0.7c0,0.7-0.4,1.4-0.9,1.7c-0.7,0.4-1.7,0.5-2.3,0c-0.4-0.4-0.5-1-0.4-1.6
		c0.3-0.3,0.7-0.6,1.1-0.4c0.3,0.1,0.5,0.4,0.8,0.2c0.1-0.1,0.2-0.3,0.1-0.4c-0.3-0.2-0.4-0.5-0.8-0.6c-0.5-0.1-1.1-0.1-1.4,0.3
		c-0.5,0.5-0.7,1.2-0.6,1.8c0.2,0.8,0.8,1.4,1.6,1.6c1.2,0.3,2.4-0.1,3.1-1.1c0.3-0.3,0.4-0.7,0.6-1.1c1.2,0.7,2.1,2,2.6,3.4
		c0,0.4,0.1,0.9,0,1.3l0.9,0.1c-0.1-0.2,0-0.4,0.1-0.6c0.3-1.7,1.4-3.1,2.6-4.2c0.4-0.3,0.3,0.3,0.4,0.5c0.4,1,1.3,1.7,2.2,1.9
		c1.1,0.2,2.1-0.1,2.7-0.9c0.3-0.6,0.7-1.5,0.2-2.1c-0.4-0.4-0.8-0.7-1.4-0.7c-0.7,0-1.1,0.5-1.4,0.9c0,0.2,0,0.4,0.2,0.5
		c0.1,0,0.3,0,0.4-0.1c0.1-0.4,0.4-0.6,0.7-0.8c0.3-0.2,0.6,0,0.8,0.2c0.3,0.2,0.3,0.6,0.4,1c-0.1,0.5-0.4,1-0.8,1.2
		c-0.7,0.4-1.8,0.2-2.4-0.2c-0.3-0.3-0.5-0.7-0.7-1.1c-0.1-0.4-0.2-0.8,0-1.2c1.1-0.7,2.3-1.1,3.6-1.3c0.5,0.1,1,0.5,1.3,0.8
		c1.2,1.2-0.2,2.9,0.6,4.2c0.3-0.1,0.3-0.5,0.4-0.7c0.4-0.9-0.1-1.9-0.3-2.8c-0.3-0.6-0.5-1-1-1.5c0.1-0.1,0.2-0.1,0.3-0.1
		c0.5,0.4,1.1,0.8,1.5,1.3c0.7,1.2,1.1,2.6,1,4.2c-0.2,0.8-1,1.1-1.6,1.4c-0.2,0.2-0.6,0.5-0.7,0.8c0.3,0.2,0.7,0,1-0.1
		c0.5-0.2,0.8-0.8,1.1-1.1c0.1,0,0,0.1,0.1,0.2c0,0.3-0.1,0.7,0.1,0.7c0.1-0.4,0.2-0.9,0.2-1.3c0.3,0.4,0.4,0.8,0.5,1.3
		c0.2,0.5,0.6,1.1,1.2,1.1c0.2-0.2,0-0.5-0.1-0.7c-0.1-0.6-0.6-1-1-1.4c-0.9-1.2-0.5-3.1-1.2-4.5c-0.2-0.7-0.8-1.3-1.4-1.9l0.1-0.1
		c1.2,0,2.3,0.4,3.4,0.6c1.4,0.7,3.4,0.5,4.1,2.3c0.3,1,0.7,2,1.4,2.7l0.1-0.1c0.2-0.2,0.2-0.7,0-0.9c-0.2-1.3-1.3-1.6-1.8-2.6
		l0.1-0.1c0.6,0.2,1.2,0.3,1.8,0.6c2,0.6,3.4,2.5,3.7,4.6c0,1.6-0.3,3-0.9,4.4c-0.1,0.2-0.4,0.4-0.2,0.6c0.3-0.2,0.3-0.5,0.5-0.8
		c0.8-1.4,1.3-3.3,0.8-5.1c0-0.3-0.4-0.6-0.2-0.9c0.1,0.2,0.3,0.2,0.4,0.2c0.2-0.1,0.4-0.1,0.5-0.3c0-0.2,0.1-0.3,0-0.5
		c-0.2-0.2-0.5-0.2-0.7-0.2c-0.1,0.2-0.3,0.4-0.3,0.6c-0.2-0.4-0.5-1-0.9-1.3l0.1-0.1c1.1,0.4,2.2,0.9,3.3,1.2
		c0.2,0.2,0.5,0.3,0.9,0.3c1,0.4,2.1,0.5,3.1,0.8c0.8-0.1,1.4,0.3,2.1,0.1v-0.1l0,0c-0.3-0.4-0.9,0-1.2-0.3c-1.7-0.2-3.4-0.6-5-1.2
		c0-0.1,0.1-0.1,0.2-0.1c0.2-0.1,0.4-0.4,0.4-0.6c-0.1-0.2-0.3-0.3-0.6-0.3c-0.2,0.1-0.4,0.2-0.4,0.4c0,0.2,0.2,0.4,0.4,0.5
		c-0.1,0.1-0.2,0-0.2,0c-0.8-0.4-1.5-0.7-2.3-1c-0.3-0.1-0.5-0.3-0.8-0.3c-0.6-0.3-1.2-0.6-1.7-0.8c-1.6-0.8-3.4-1.3-5.1-1.9
		c-0.4-0.1-0.7-0.2-1.1-0.3c-0.6-0.2-1.3-0.3-1.9-0.5c-2.1-0.5-5-0.6-6.9,0.6c-0.3-0.1-0.5,0.4-0.6,0.1c0.5-1.4,2.1-1.9,3.5-1.9
		c10.1-0.1,19.6-0.2,29.6-0.3c1.2,0,2.3-0.4,2.9-1.5C-13,103.1-12.9,102-13.2,101.4L-13.2,101.4z M-53.4,110.7
		c-0.1,0.3-0.3,0.6-0.3,0.9l-0.1,0.1c0.1-0.4-0.3-0.6-0.2-1c-0.2-0.3-0.2-0.7-0.4-1c-0.2-0.4,0.2-0.6,0.4-0.9
		c0.4,0.2,0.5,0.5,0.7,0.8C-53.1,110-53.4,110.3-53.4,110.7L-53.4,110.7z"/>
	<path d="M-26,109.1c0,0.1,0.2,0.1,0.1,0.2c-0.9,0.8-2.1,1-3.4,1.1c-0.1,0-0.2,0.1-0.3,0.1c-0.1-0.1-0.1-0.1-0.1-0.2
		C-28.8,109.3-27.4,108.8-26,109.1L-26,109.1z"/>
	<path d="M-30.1,109.6c0.1,0.4-0.1,0.6-0.4,0.7c-0.3,0-0.4-0.2-0.6-0.4c-0.1-0.2,0.1-0.3,0.2-0.4C-30.7,109.2-30.2,109.2-30.1,109.6
		L-30.1,109.6z"/>
	<path d="M-78.1,109.6c0.1,0.2,0,0.4-0.1,0.5s-0.3,0.2-0.5,0.1c-0.2,0-0.3-0.2-0.3-0.4c0-0.2,0.1-0.4,0.3-0.5
		C-78.5,109.4-78.3,109.4-78.1,109.6L-78.1,109.6z"/>
	<path d="M-82.6,111.3v0.2c-0.6,0.1-1.2,0-1.6-0.4c-0.4-0.5-0.8-1-1.3-1.3c0-0.1-0.2-0.2,0-0.2C-84.3,109.6-83.6,110.6-82.6,111.3
		L-82.6,111.3z"/>
	<path d="M-22.2,109.6c-0.6,0.9-1.1,1.9-2.1,2.3c-0.2,0-0.3,0.3-0.5,0.1c0.4-1,1.3-2,2.2-2.4C-22.4,109.6-22.3,109.5-22.2,109.6
		L-22.2,109.6z"/>
	<path d="M-76.6,109.9c0,0.3-0.2,0.3-0.4,0.5c-0.2,0-0.3-0.1-0.4-0.3c-0.1-0.3,0.1-0.4,0.3-0.5C-77,109.6-76.7,109.7-76.6,109.9
		L-76.6,109.9z"/>
	<path d="M-19,110c-0.2,0.3-0.1,0.8-0.4,1.2c-0.5,0.6-0.9,1.2-1.7,1.4c-0.1-0.2,0.2-0.5,0.3-0.7c0.4-0.8,0.9-1.6,1.7-2L-19,110
		L-19,110z"/>
	<path d="M-90.5,110.3c0.1,0.2,0.2,0.4,0,0.6c-0.1,0.1-0.4,0.2-0.6,0.1s-0.3-0.4-0.2-0.6C-91.1,110.1-90.6,110-90.5,110.3
		L-90.5,110.3z"/>
	<path d="M-91.9,110.6c0,0.1,0.1,0.2,0.1,0.4c-0.1,0.1-0.2,0.3-0.4,0.3c-0.3,0.1-0.5-0.1-0.6-0.3c0-0.2,0.1-0.4,0.2-0.5
		C-92.3,110.3-92,110.4-91.9,110.6L-91.9,110.6z"/>
	<path d="M-88.9,110.7c0.1,0.2,0.1,0.6-0.2,0.6c-0.4,0.2-0.6-0.1-0.8-0.3c0-0.2,0.1-0.4,0.3-0.5C-89.3,110.5-89.1,110.5-88.9,110.7
		L-88.9,110.7z"/>
	<path d="M-84.8,111.1c0,0.2,0,0.4-0.2,0.5c-0.1,0.1-0.4,0.1-0.5,0.1c-0.1-0.2-0.3-0.3-0.2-0.5c0.1-0.1,0.2-0.2,0.4-0.3
		C-85.1,110.9-84.9,110.8-84.8,111.1L-84.8,111.1z"/>
	<path d="M-16.5,111.2c-0.1,0.2-0.2,0.4-0.4,0.4c-0.2,0-0.5-0.1-0.6-0.3c-0.1-0.3,0.1-0.4,0.3-0.5C-16.9,110.8-16.6,111-16.5,111.2
		L-16.5,111.2z"/>
	<path d="M-21.2,111.4c0,0.2-0.2,0.4-0.3,0.4c-0.4,0.2-0.7-0.1-0.8-0.4c0.1-0.2,0.2-0.4,0.4-0.5C-21.5,110.9-21.3,111.1-21.2,111.4
		L-21.2,111.4z"/>
	<path d="M-18,111.3c0,0.2-0.1,0.4-0.2,0.4c-0.2,0.1-0.5,0.1-0.6-0.1c-0.2-0.2-0.1-0.4,0.1-0.5C-18.5,111-18.1,111-18,111.3
		L-18,111.3z"/>
	<path d="M-91.1,111.7c0.1,0.3-0.1,0.5-0.3,0.6c-0.2,0-0.5-0.1-0.6-0.4c0-0.2,0.1-0.5,0.2-0.5C-91.5,111.4-91.3,111.6-91.1,111.7
		L-91.1,111.7z"/>
	<path d="M-22.4,112c0.1,0.3-0.1,0.5-0.4,0.7c-0.2,0.1-0.3-0.1-0.5-0.2c-0.1-0.1-0.2-0.4,0-0.5C-23.1,111.6-22.6,111.7-22.4,112
		L-22.4,112z"/>
	<path d="M-77.5,112.3c0.1,0.3-0.2,0.3-0.3,0.5c-0.1,0.1-0.3,0.1-0.4,0c-0.1-0.2-0.3-0.3-0.2-0.5c0.1-0.1,0.2-0.2,0.3-0.2
		C-77.8,111.9-77.7,112.1-77.5,112.3L-77.5,112.3z"/>
	<path d="M-17,112.5c0.1,0.2-0.1,0.3-0.1,0.4c-0.2,0.1-0.4,0.2-0.6,0.1s-0.2-0.3-0.2-0.6c0.1-0.1,0.2-0.2,0.4-0.3
		C-17.4,112.1-17.1,112.2-17,112.5L-17,112.5z"/>
	<path d="M-18.6,112.6c0.1,0.3-0.2,0.5-0.4,0.5c-0.1,0-0.2-0.1-0.3,0.1c0.7,0.3,1.1,0.9,1.6,1.3v0.2c-0.9,0-1.8-0.2-2.5-1
		c-0.2-0.1-0.5-0.1-0.7-0.3c0.3-0.3,0.9-0.2,1.4-0.2c0.3-0.4-0.4-0.6,0.1-0.9c0.2,0,0.2-0.2,0.5-0.1
		C-18.8,112.3-18.7,112.4-18.6,112.6L-18.6,112.6z"/>
	<path d="M-28.9,112.6c0.1,0.1-0.1,0.3-0.1,0.4c-0.2,0.2-0.4,0.2-0.6,0.1c-0.1-0.2-0.3-0.3-0.2-0.6C-29.6,112.1-29,112.2-28.9,112.6
		L-28.9,112.6z"/>
	<path d="M-85.4,113.5c-0.1,0.2-0.2,0.4-0.4,0.4c-0.2,0-0.4-0.1-0.5-0.3c0-0.2,0.1-0.3,0.1-0.4C-85.9,112.9-85.4,113.1-85.4,113.5
		L-85.4,113.5z"/>
	<path d="M-83.4,113.1c0,0.4-0.4,0.6-0.5,0.9c-0.4,0.8-1.1,1.6-2,1.7c-0.1-0.2,0.3-0.5,0.4-0.7c0.4-0.9,1.2-1.3,1.9-1.9H-83.4
		L-83.4,113.1z"/>
	<path d="M-29.5,113.5c0,0.3-0.2,0.5-0.4,0.6c-0.2,0.1-0.4-0.1-0.5-0.2c-0.2-0.2-0.1-0.4,0-0.6C-30.1,113-29.7,113.2-29.5,113.5
		L-29.5,113.5z"/>
	<path d="M-27.9,113.7c0,0.3-0.2,0.5-0.5,0.6c-0.1-0.1-0.2,0-0.2-0.1c-0.2-0.1-0.3-0.3-0.3-0.5c0.1-0.1,0.2-0.3,0.4-0.4
		C-28.4,113.3-28,113.4-27.9,113.7L-27.9,113.7z"/>
	<path d="M-79.4,113.6c0,0.3-0.2,0.4-0.4,0.5c-0.2,0-0.4-0.1-0.5-0.3c-0.1-0.2,0.2-0.4,0.3-0.5C-79.7,113.3-79.6,113.5-79.4,113.6
		L-79.4,113.6z"/>
	<path d="M-77.7,113.7c-0.1,0.2-0.2,0.4-0.5,0.4c-0.2-0.1-0.4-0.1-0.5-0.3c0-0.3,0.2-0.4,0.4-0.5C-78,113.4-77.8,113.5-77.7,113.7
		L-77.7,113.7z"/>
	<path d="M-22.5,115.5c0.1,0.1,0.4,0.2,0.3,0.4c-0.4,0.2-0.7-0.3-1.1-0.4c-0.6-0.6-1.1-1.3-1.3-2c0.2-0.2,0.5,0.1,0.7,0.1
		C-23.4,114.2-22.8,114.8-22.5,115.5L-22.5,115.5z"/>
	<path d="M-21.6,113.7c0.1,0.2,0.1,0.4-0.1,0.6c-0.2,0.3-0.5,0.2-0.7,0.2c-0.1-0.2-0.4-0.4-0.2-0.6c0.1-0.2,0.3-0.3,0.5-0.3
		C-21.9,113.5-21.8,113.7-21.6,113.7L-21.6,113.7z"/>
	<path d="M-75.4,114.4c0,0.2,0.1,0.5-0.2,0.6c-0.2,0.1-0.5,0-0.6-0.3s0.1-0.4,0.3-0.5C-75.7,114.2-75.5,114.3-75.4,114.4
		L-75.4,114.4z"/>
	<path d="M-28,116.1c0.4,0.5,0.6,1.1,0.7,1.8c-0.1,0.2,0.1,0.4,0,0.5h-0.2c-1.1-0.8-1.4-2-1.8-3.1c-0.1-0.1-0.1-0.2-0.1-0.3
		c0.2-0.2,0.4,0.2,0.7,0.3L-28,116.1L-28,116.1z"/>
	<path d="M-72.1,115.2C-72.1,115.2-72.1,115.3-72.1,115.2c-1,0.8-2.4,1.2-3.6,0.5c0-0.1,0-0.2,0.1-0.2c0.7-0.2,1.4-0.6,2.2-0.5
		L-72.1,115.2L-72.1,115.2z"/>
	<path d="M-77.9,115.3c-0.9,0.5-1.6,1.6-2.7,1.8c-0.2,0.1-0.3,0.4-0.6,0.2c0.5-1.4,1.9-2.1,3.3-2.2L-77.9,115.3L-77.9,115.3z"/>
	<path d="M-29.5,116.5c0.1,0.2,0,0.5-0.2,0.5c-0.1,0.1-0.4,0.1-0.5,0c-0.2-0.1-0.2-0.3-0.2-0.5c0.1-0.2,0.2-0.2,0.4-0.3
		C-29.8,116.3-29.6,116.3-29.5,116.5L-29.5,116.5z"/>
	<path d="M-31.6,116.6c-0.2,0.4-0.6,0.6-0.9,0.7c-0.9,0.3-1.6-0.1-2.4-0.3c0-0.2,0.3-0.1,0.4-0.2c0.8-0.2,1.7-0.4,2.6-0.1
		C-31.9,116.5-31.7,116.5-31.6,116.6L-31.6,116.6z"/>
	<path d="M-77.9,117.3c-0.1,0.1-0.1,0.3-0.3,0.4c-0.2,0.1-0.4,0-0.5-0.1c-0.1-0.2-0.2-0.3-0.1-0.5s0.2-0.2,0.4-0.3
		C-78.1,116.9-77.9,117.1-77.9,117.3L-77.9,117.3z"/>
	<path d="M-76.4,117.6c-0.1,0.2-0.2,0.4-0.4,0.5c-0.2,0.1-0.4-0.1-0.5-0.2c-0.1-0.2-0.2-0.3-0.1-0.5c0.1-0.1,0.2-0.2,0.4-0.2
		C-76.7,117.1-76.5,117.4-76.4,117.6L-76.4,117.6z"/>
	<path d="M-30,117.8c0,0.2-0.1,0.3-0.2,0.5s-0.4,0.2-0.6,0.1c-0.2,0-0.2-0.2-0.3-0.4c-0.2-0.2,0.1-0.3,0.2-0.5
		C-30.6,117.3-30.1,117.4-30,117.8L-30,117.8z"/>
	<path d="M-28.9,117.8c0,0.1,0.1,0.2,0.1,0.4c-0.2,0.1-0.2,0.5-0.6,0.3c-0.1,0.1-0.2-0.2-0.3-0.2c-0.1-0.3,0-0.6,0.3-0.7
		C-29.2,117.5-29,117.7-28.9,117.8L-28.9,117.8z"/>
	<path d="M-77.3,118.5c0.1,0.3-0.1,0.5-0.2,0.7c-0.3,0.1-0.6,0.1-0.7-0.3c0-0.2,0-0.6,0.3-0.7C-77.7,118.2-77.4,118.2-77.3,118.5
		L-77.3,118.5z"/>
	<path d="M-75.8,118.4c-0.1,0.7-0.2,1.6-0.9,2c-0.4,0.1-0.8,0.5-1.2,0.2v-0.1C-77.4,119.7-76.5,119.1-75.8,118.4L-75.8,118.4z"/>
	<path d="M-34,119c0.1,0.2-0.1,0.3-0.1,0.4c-0.1,0.2-0.4,0.1-0.6,0c-0.2-0.1-0.2-0.3-0.1-0.5c0.1-0.2,0.2-0.2,0.3-0.3
		C-34.3,118.6-34.1,118.8-34,119L-34,119z"/>
	<path d="M-73.3,120.2c0.4,0.6,0.2,1.4,0.4,2c-0.4,0.1-0.6-0.4-0.9-0.7c-0.6-0.8-0.5-1.8-0.7-2.7c0.1-0.1,0.1-0.1,0.2-0.1
		c0.4,0.2,0.7,0.7,1,1.1C-73.5,120-73.3,120-73.3,120.2L-73.3,120.2z"/>
	<path d="M-32.7,119.2c0,0.2-0.2,0.3-0.4,0.4c-0.2,0-0.3-0.1-0.5-0.2c-0.1-0.2,0.1-0.3,0.2-0.5C-33,118.8-32.8,118.9-32.7,119.2
		L-32.7,119.2z"/>
	<path d="M-29.7,121.5c0,0.1,0,0.2-0.2,0.2H-30c-0.7-0.7-1.5-1.4-1.4-2.4h0.2C-30.5,119.8-29.7,120.4-29.7,121.5L-29.7,121.5z"/>
	<path d="M-31.6,120.6c0,0.2-0.1,0.4-0.2,0.5c-0.3,0.1-0.7,0.1-0.8-0.3c0-0.3,0.3-0.4,0.4-0.5C-31.9,120.2-31.7,120.4-31.6,120.6
		L-31.6,120.6z"/>
	<path d="M-33.3,121.2c-0.4,0.9-1.3,1.4-2,2.1c-0.1-0.1-0.1-0.3-0.1-0.4c0.2-1,1-1.9,1.9-2.3C-32.9,120.7-33.3,121-33.3,121.2
		L-33.3,121.2z"/>
	<path d="M-31.4,121.9c0,0.2-0.2,0.3-0.4,0.5c-0.2,0-0.4-0.1-0.6-0.3c0-0.3,0.2-0.3,0.3-0.5C-31.7,121.6-31.5,121.7-31.4,121.9
		L-31.4,121.9z"/>
	<path d="M-50.2,75.7c0.3,0,0.6,0.3,0.6,0.6s-0.3,0.6-0.6,0.6h-7.5c-0.3,0-0.6-0.3-0.6-0.6c0-0.3,0.3-0.6,0.6-0.6H-50.2L-50.2,75.7z
		 M-55.5,76.8c0.7,0,0-0.9-0.4-0.9h-0.6c-0.7,0,0,0.9,0.4,0.9H-55.5L-55.5,76.8z M-52.4,76.8c0.7,0,0-0.9-0.4-0.9h-0.7
		c-0.7,0,0,0.9,0.4,0.9H-52.4L-52.4,76.8z M-50.1,75.9h-0.3c-0.7,0-0.1,0.9,0.3,0.9C-49.6,76.8-49.6,75.9-50.1,75.9L-50.1,75.9z"/>
	<path d="M-50.8,84.3l1.4,0.5l1.4-0.5l-0.6,2.1l1.1-0.2l-0.4,1.3l0.4,1.2l-1-0.3l0.4,2.3l-1.4-0.5l-1.4,0.5l0.6-2.3l-1.1,0.3
		l0.3-1.3l-0.3-1.2l1.1,0.2L-50.8,84.3L-50.8,84.3z M-48.7,88.1c0.3,0,0.4-0.4,0.4-0.8c0-0.9-0.7,0-1-0.8c-0.3,0.7-1,0.1-1,0.8
		c0,0.5,0,0.8,0.5,0.8H-48.7L-48.7,88.1z M-50.1,87.4c0,0.3,0.4,0.1,0.8,0.1c0.3,0,0.8,0.2,0.8-0.1c0-0.5-0.4-0.3-0.8-0.3
		C-49.7,87-50.1,86.9-50.1,87.4L-50.1,87.4z"/>
	<polygon points="-54.2,87.4 -54.2,87.2 -54.4,87.1 -54.2,86.9 -54.3,86.7 -54.1,86.7 -53.9,86.5 -53.8,86.7 -53.6,86.7 -53.7,86.9 
		-53.5,87.1 -53.7,87.2 -53.7,87.4 -53.9,87.3 	"/>
	<polygon points="-55.3,88.9 -55.3,88.6 -55.5,88.5 -55.3,88.4 -55.4,88.1 -55.2,88.2 -55.1,87.9 -54.9,88.2 -54.7,88.1 -54.8,88.4 
		-54.6,88.5 -54.8,88.6 -54.8,88.9 -55.1,88.7 	"/>
	<polygon points="-53.4,88.7 -53.4,88.4 -53.6,88.4 -53.4,88.2 -53.6,88 -53.3,88 -53.2,87.7 -53,88 -52.8,88 -52.9,88.2 
		-52.7,88.4 -52.9,88.4 -52.9,88.7 -53.2,88.5 	"/>
	<polygon points="-53.2,89.8 -53.2,89.6 -53.3,89.6 -53.2,89.5 -53.3,89.3 -53.1,89.4 -53,89.2 -53,89.4 -52.8,89.3 -52.9,89.5 
		-52.8,89.6 -52.9,89.6 -52.9,89.8 -53,89.7 	"/>
	<polygon points="-54.9,91 -54.9,90.5 -55.3,90.4 -55,90.1 -55.2,89.7 -54.8,89.8 -54.5,89.3 -54.3,89.8 -53.9,89.7 -54.1,90.1 
		-53.7,90.4 -54.1,90.5 -54.1,91 -54.5,90.7 	"/>
	<polygon points="-54,67 -53.1,69.2 -50.9,68.5 -52,70.6 -50.1,71.9 -52.4,72.3 -52.3,74.7 -54,73.1 -55.8,74.7 -55.6,72.3 
		-58,71.9 -56,70.6 -57.2,68.5 -54.9,69.2 	"/>
	<path d="M-62.2,116c-0.3,0.1-0.4,0.2-0.3,0.5l0.3,1.3c0.1,0.2,0.1,0.6-0.1,0.9c-0.2,0.3-0.6,0.5-0.9,0.5c-0.2,0.1-0.7,0.1-1.1,0
		c-0.2-0.1-0.4-0.2-0.5-0.7l-0.3-1.4c-0.1-0.4-0.2-0.3-0.5-0.3v-0.1l1.7-0.4v0.1c-0.3,0.1-0.5,0.1-0.4,0.5l0.3,1.4
		c0.1,0.2,0.2,0.8,0.9,0.6c0.9-0.2,0.7-0.9,0.7-1.1l-0.3-1.3c-0.1-0.3-0.2-0.4-0.6-0.3v-0.1l1.1-0.3L-62.2,116L-62.2,116z"/>
	<path d="M-59.7,116.3c-0.2-0.3-0.6-0.7-1.2-0.6c-0.3,0.1-0.5,0.2-0.4,0.5c0.1,0.2,0.2,0.3,0.6,0.4l0.8,0.1c0.2,0,0.6,0.2,0.7,0.7
		c0.1,0.4-0.1,1-1.1,1.2c-0.5,0.1-0.7,0-0.9,0.1c-0.1,0-0.1,0.1-0.1,0.2h-0.1l-0.2-1h0.1c0.2,0.4,0.6,0.8,1.2,0.7
		c0.6-0.1,0.5-0.6,0.5-0.6c-0.1-0.3-0.3-0.3-0.7-0.4l-0.4-0.1c-0.9-0.2-1-0.5-1.1-0.7c-0.1-0.3,0-0.9,0.9-1.1c0.4-0.1,0.7,0,0.8,0
		s0.1-0.1,0.1-0.2h0.2l0.2,0.9L-59.7,116.3L-59.7,116.3z"/>
	<path d="M-56.3,118l-1.8,0.2v-0.1c0.4-0.1,0.5-0.1,0.5-0.4l-0.2-2.3c-0.4,0.1-0.9,0.1-0.9,0.8h-0.1l-0.1-0.9l3.1-0.3l0.1,0.9h-0.1
		c-0.2-0.7-0.7-0.7-1.1-0.6l0.2,2.3c0,0.4,0.2,0.4,0.5,0.4H-56.3L-56.3,118z"/>
	<path d="M-52.1,118h-1.1l-1-1.4h-0.1v0.8c0,0.3,0.1,0.4,0.4,0.4v0.1h-1.7v-0.1c0.4,0,0.5,0,0.5-0.4v-1.9c0-0.4-0.2-0.4-0.4-0.4V115
		h1.7c0.4,0,1.5,0.1,1.4,0.8c0,0.5-0.5,0.7-0.8,0.7l1,1.3c0.1,0.1,0.1,0.1,0.2,0.1L-52.1,118L-52.1,118z M-54.3,116.5
		c0.7,0,0.9-0.1,1-0.6c0-0.4-0.2-0.6-0.6-0.6c-0.3,0-0.3,0-0.3,0.2L-54.3,116.5L-54.3,116.5z"/>
	<path d="M-48.7,118.4l-1.7-0.2v-0.1c0.3,0,0.4,0,0.4-0.1s-0.1-0.5-0.2-0.6l-1.2-0.1c-0.2,0.3-0.3,0.5-0.3,0.5
		c0,0.2,0.2,0.2,0.4,0.2v0.1l-1-0.1v-0.1c0.3,0,0.4-0.1,0.6-0.4l1.4-2.2h0.1l0.9,2.4C-49,118.2-48.9,118.3-48.7,118.4L-48.7,118.4
		L-48.7,118.4z M-50.1,117.2l-0.4-1.1l-0.6,1L-50.1,117.2L-50.1,117.2z"/>
	<path d="M-45.7,119l-2.9-0.5v-0.1c0.3,0,0.4,0,0.5-0.2l0.4-2.1c0.1-0.3-0.2-0.3-0.4-0.4v-0.1l1.8,0.3v0.1c-0.4-0.1-0.5-0.1-0.6,0.3
		l-0.4,2c0,0.2,0.1,0.3,0.4,0.3c0.8,0.1,1.1-0.2,1.4-0.6h0.1L-45.7,119L-45.7,119z"/>
	<path d="M-43.7,119.5l-1.8-0.4V119c0.3,0,0.5,0.1,0.5-0.2l0.4-2.1c0.1-0.3-0.2-0.3-0.4-0.4v-0.1l1.8,0.4v0.1
		c-0.2,0-0.5-0.1-0.5,0.2l-0.4,2.1C-44.2,119.3-44,119.3-43.7,119.5L-43.7,119.5L-43.7,119.5z"/>
	<path d="M-40.1,119.9l-1.7-0.2v-0.1c0.3,0,0.4,0,0.4-0.1s-0.1-0.5-0.2-0.6l-1.2-0.1c-0.2,0.3-0.3,0.5-0.3,0.5
		c0,0.2,0.2,0.2,0.4,0.2v0.1l-1-0.1v-0.1c0.3,0,0.4-0.1,0.5-0.5l1.4-2.2h0.1l0.9,2.4c0.2,0.5,0.2,0.6,0.5,0.7L-40.1,119.9
		L-40.1,119.9z M-41.6,118.8l-0.4-1.1l-0.6,1L-41.6,118.8L-41.6,118.8z"/>
	<path d="M-53.3,85c0-1-0.6-0.1-0.9-0.9c-0.2,0.7-0.9,0.1-0.9,0.9c0,0.3,0.1,0.5,0.2,0.6v0.3c0,0.1,0.1,0.1,0.1,0.1h1.1
		c0.1,0,0.1-0.1,0.1-0.1v-0.3C-53.4,85.5-53.3,85.3-53.3,85L-53.3,85z M-54.2,85.2c-0.3,0-0.7,0.2-0.7-0.1c0-0.5,0.3-0.4,0.7-0.4
		c0.3,0,0.8-0.1,0.8,0.4C-53.5,85.4-53.9,85.2-54.2,85.2L-54.2,85.2z"/>
	<path d="M-44.3,97.8c0.3,0,0.5-0.2,0.5-0.4c0-0.2-0.2-0.4-0.5-0.4s-0.5,0.2-0.5,0.4S-44.5,97.8-44.3,97.8L-44.3,97.8z"/>
	<path d="M-46.5,82.4l-0.2,0.4c0,0.1,0.1,0.2,0.2,0.2s0.2-0.1,0.2-0.2L-46.5,82.4L-46.5,82.4z"/>
	<path d="M-61.8,82.4l-0.2,0.4c0,0.1,0.1,0.2,0.2,0.2c0.1,0,0.2-0.1,0.2-0.2L-61.8,82.4L-61.8,82.4z"/>
	<path d="M-58,82.4l-0.2,0.4c0,0.1,0.1,0.2,0.2,0.2s0.2-0.1,0.2-0.2C-57.7,82.8-58,82.4-58,82.4L-58,82.4z"/>
	<path d="M-54.2,82.4l-0.2,0.4c0,0.1,0.1,0.2,0.2,0.2s0.2-0.1,0.2-0.2C-53.9,82.8-54.2,82.4-54.2,82.4L-54.2,82.4z"/>
	<path d="M-50.3,82.4l-0.2,0.4c0,0.1,0.1,0.2,0.2,0.2c0.1,0,0.2-0.1,0.2-0.2L-50.3,82.4L-50.3,82.4z"/>
	<path d="M-61.8,87.6l0.2,0.4c0,0.1-0.1,0.2-0.2,0.2S-62,88.1-62,88C-62,88.1-61.8,87.6-61.8,87.6L-61.8,87.6z"/>
	<path d="M-61.8,92.7l0.2,0.4c0,0.1-0.1,0.2-0.2,0.2s-0.2-0.1-0.2-0.2C-62,93.2-61.8,92.7-61.8,92.7L-61.8,92.7z"/>
	<path d="M-61.2,96.7l0.2,0.4c0,0.1-0.1,0.2-0.2,0.2s-0.2-0.1-0.2-0.2C-61.4,97.2-61.2,96.7-61.2,96.7L-61.2,96.7z"/>
	<path d="M-58,98.9l0.2,0.4c0,0.1-0.1,0.2-0.2,0.2s-0.2-0.1-0.2-0.2L-58,98.9L-58,98.9z"/>
	<path d="M-46.3,87.6l-0.2,0.4c0,0.1,0.1,0.2,0.2,0.2c0.1,0,0.2-0.1,0.2-0.2C-46.1,88.1-46.3,87.6-46.3,87.6L-46.3,87.6z"/>
	<path d="M-46.3,92.7l-0.2,0.4c0,0.1,0.1,0.2,0.2,0.2c0.1,0,0.2-0.1,0.2-0.2C-46.1,93.2-46.3,92.7-46.3,92.7L-46.3,92.7z"/>
	<path d="M-46.9,96.7l-0.2,0.4c0,0.1,0.1,0.2,0.2,0.2c0.1,0,0.2-0.1,0.2-0.2C-46.7,97.2-46.9,96.7-46.9,96.7L-46.9,96.7z"/>
	<path d="M-50.1,98.9l-0.2,0.4c0,0.1,0.1,0.2,0.2,0.2c0.1,0,0.2-0.1,0.2-0.2C-49.9,99.3-50.1,98.9-50.1,98.9L-50.1,98.9z"/>
	<path d="M-54,101.2l-0.2,0.4c0,0.1,0.1,0.2,0.2,0.2c0.1,0,0.2-0.1,0.2-0.2L-54,101.2L-54,101.2z"/>
	<path d="M-47.8,93.6c0.1,0.1,0.2,0.1,0.3,0l0.1-0.4c0,0-0.2-0.2-0.3-0.2c-0.4,0.1-0.8,0.1-1.1,0.5c0,0.3,0.2,0.5,0.4,0.6
		c0.1-0.1,0.2,0.1,0.3,0.2c0,0.1-0.1,0.2-0.2,0.2c-0.3-0.3-0.8,0.1-1-0.3c0.1-0.4,0.3-0.8,0-1.1c0-0.1,0.1-0.1,0.1-0.2
		c-0.1-0.3-0.5-0.1-0.7-0.1c-0.4-0.1-0.7,0.1-0.9,0.4c0,0.1,0.1,0.2,0.2,0.4c0.1,0,0.1,0,0.2,0.1l-0.2,0.1c0.1,0.1,0.1,0.2,0.1,0.3
		c-0.2,0.1-0.3-0.2-0.4-0.3c0-0.2,0-0.5-0.2-0.6c-0.1,0-0.2,0.1-0.2,0.1c-0.1,0.1-0.1,0.2-0.1,0.4s0.1,0.4,0.1,0.4s0.7,0.5,0.9,0.9
		c-0.2,0.4-0.2,1-0.7,1.3c-0.1,0.1-0.1,0.2-0.1,0.4l0.1,0.1c0.3-0.2,0.9-0.2,0.9-0.7c0.1-0.2,0.2-0.5,0.5-0.6
		c0.2-0.1,0.5,0.1,0.5,0.3c-0.1,0.4-0.3,0.6-0.6,0.7c0,0.1,0,0.1,0,0.2c0.1,0.2,0.4,0.1,0.5,0.1c0.4-0.3,0.6-0.7,0.9-0.9
		c0.1,0.2-0.5,0.3-0.1,0.6c0.2-0.1,0.5,0,0.7-0.3c-0.2-0.4,0.6-0.6,0.1-1c0-0.4,0.4-0.5,0.4-0.9c-0.1-0.4-0.6-0.4-0.7-0.7
		C-48.2,93.5-48,93.5-47.8,93.6L-47.8,93.6z"/>
	<path d="M-65.4,98c0.3,0,0.5-0.2,0.5-0.4c0-0.2-0.2-0.4-0.5-0.4s-0.5,0.2-0.5,0.4C-65.8,97.8-65.6,98-65.4,98L-65.4,98z"/>
	<path d="M-90.1,112.4c0.3,0,0.5-0.2,0.5-0.4c0-0.2-0.2-0.4-0.5-0.4s-0.5,0.2-0.5,0.4S-90.4,112.4-90.1,112.4L-90.1,112.4z"/>
	<path d="M-74.4,115.9L-74.4,115.9L-74.4,115.9L-74.4,115.9L-74.4,115.9L-74.4,115.9L-74.4,115.9L-74.4,115.9L-74.4,115.9
		C-74.4,115.9-74.4,115.9-74.4,115.9L-74.4,115.9C-74.5,115.8-74.5,115.8-74.4,115.9L-74.4,115.9L-74.4,115.9L-74.4,115.9
		L-74.4,115.9L-74.4,115.9L-74.4,115.9L-74.4,115.9L-74.4,115.9z M-74.4,115.9L-74.4,115.9L-74.4,115.9L-74.4,115.9L-74.4,115.9
		L-74.4,115.9z"/>
	<path d="M-74.3,115.9L-74.3,115.9L-74.3,115.9L-74.3,115.9L-74.3,115.9L-74.3,115.9L-74.3,115.9C-74.3,115.9-74.4,115.9-74.3,115.9
		L-74.3,115.9L-74.3,115.9L-74.3,115.9L-74.3,115.9C-74.4,115.9-74.3,115.9-74.3,115.9L-74.3,115.9L-74.3,115.9L-74.3,115.9
		C-74.4,115.9-74.4,115.9-74.3,115.9C-74.4,115.9-74.4,115.9-74.3,115.9L-74.3,115.9L-74.3,115.9L-74.3,115.9L-74.3,115.9
		L-74.3,115.9L-74.3,115.9z"/>
	<path d="M-74.1,115.9L-74.1,115.9L-74.1,115.9L-74.1,115.9L-74.1,115.9L-74.1,115.9L-74.1,115.9L-74.1,115.9L-74.1,115.9
		L-74.1,115.9L-74.1,115.9L-74.1,115.9L-74.1,115.9C-74.2,115.9-74.2,115.9-74.1,115.9L-74.1,115.9L-74.1,115.9L-74.1,115.9
		L-74.1,115.9L-74.1,115.9C-74.2,115.9-74.2,115.9-74.1,115.9L-74.1,115.9L-74.1,115.9L-74.1,115.9
		C-74.2,115.9-74.2,115.9-74.1,115.9L-74.1,115.9L-74.1,115.9L-74.1,115.9L-74.1,115.9L-74.1,115.9L-74.1,115.9L-74.1,115.9
		L-74.1,115.9L-74.1,115.9L-74.1,115.9z"/>
	<path d="M-74.1,115.9L-74.1,115.9L-74.1,115.9L-74.1,115.9L-74.1,115.9C-74.1,115.9-74.1,115.8-74.1,115.9
		C-74.1,115.8-74.1,115.9-74.1,115.9L-74.1,115.9L-74.1,115.9L-74.1,115.9z M-74.1,115.9L-74.1,115.9L-74.1,115.9L-74.1,115.9
		L-74.1,115.9L-74.1,115.9L-74.1,115.9z"/>
	<path d="M-74,115.9L-74,115.9L-74,115.9L-74,115.9C-74,115.9-74.1,115.9-74,115.9C-74.1,115.9-74.1,115.9-74,115.9L-74,115.9
		L-74,115.9L-74,115.9L-74,115.9L-74,115.9L-74,115.9L-74,115.9L-74,115.9L-74,115.9L-74,115.9z"/>
	<path d="M-45.2,81.8L-45.2,81.8h-17.6l0,0l0,0v13.5c0,1.4,0.6,2.6,1.4,2.9l6.8,4.3c0.1,0.2,0.4,0.3,0.6,0.3c0.2,0,0.4-0.1,0.5-0.2
		l6.9-4.4c0.8-0.4,1.4-1.6,1.4-2.9V81.8L-45.2,81.8L-45.2,81.8z M-45.7,95.4c-0.1,1-0.4,1.9-1.1,2.3l-6.6,4.2l0,0
		c-0.1,0.1-0.3,0.2-0.5,0.2s-0.4-0.1-0.5-0.2l-6.6-4.2c-0.7-0.5-1-1.3-1.1-2.3V82.3h16.6L-45.7,95.4L-45.7,95.4z"/>
	<path d="M-51.7,101.4l0.2-0.1C-51.6,101.3-51.6,101.4-51.7,101.4L-51.7,101.4z"/>
	<path d="M-65,119.8l-1.7,0.2v-0.1c0.3-0.1,0.4-0.1,0.4-0.2s-0.2-0.4-0.3-0.5l-1.2,0.1c-0.1,0.3-0.2,0.5-0.2,0.6
		c0,0.2,0.3,0.1,0.4,0.1v0.1l-1,0.1v-0.1c0.3-0.1,0.3-0.2,0.4-0.6l0.9-2.5h0.1l1.4,2.1c0.3,0.4,0.4,0.6,0.6,0.5L-65,119.8L-65,119.8
		z M-66.6,119l-0.6-1l-0.4,1.1L-66.6,119L-66.6,119z"/>
	<path d="M-35.8,113.5c-0.3-0.8-0.9-1.3-1.7-1.6c-0.8-0.2-1.7-0.1-2.2,0.6c-0.9,0.7-0.3,2-0.2,3c0,0.2,0,0.4-0.2,0.5
		c-3.7-0.3-7.1-1.2-10.7-1.6c-0.8-0.1-1.7-0.1-2.5-0.3l-1-0.1c-3.2,0.1-6.3,0.3-9.3,1c-0.6,0.2-1.3,0.2-2,0.5
		c-0.5-0.1-0.8,0.2-1.3,0.1l-0.8,0.2c-0.1,0-0.2,0-0.3,0c-0.4-1,0.8-1.7,0.4-2.7c-0.3-0.6-1-1.1-1.7-1c-0.9-0.1-1.6,0.4-2,1
		c-0.6,1.3,0.2,2.6,0.4,3.8c-0.1,0.4,0.4,0.9,0,1.2c-0.8-0.6-1.9-0.9-2.9-0.6c-0.3,0.2-0.9-0.1-1,0.3c1.1,0.6,2.5,0.5,3.7,0.5
		c0.2-0.1,0.3-0.1,0.4,0c0.1,0.7-0.1,1.6,0.3,2.1c0.5,0.6,1.2,0.8,1.9,0.8c2.3-0.1,4.4-0.8,6.5-1.3c0.3,0,0.6-0.2,0.9-0.2
		c1.1-0.3,2.4-0.5,3.6-0.5c-0.5,0.7-0.8,1.5-1.1,2.3c-0.3,0.7,0.5,0.8,0.8,1.2c-0.8,0.2-1.3,0.8-2.1,1.1c-1.6-0.1-3,0.6-4.5,0.7
		c0,0.3,0.5,0.2,0.6,0.6c-0.1,0.2-0.3,0.3-0.5,0.4c0,0.2,0,0.2,0.2,0.2c0.2-0.2,0.5-0.1,0.6-0.2c0.5,0,0.9-0.2,1.4-0.2
		c0.4-0.2,0.9-0.2,1.3-0.5c0.5-0.2,0.9-0.5,1.4-0.7c0.8,0,1.4-0.3,2.1-0.3v0.2c-0.6,0.9-1.2,1.9-1.8,2.8c-0.1,0.2,0,0.4,0.2,0.4
		c0.4,0.1,0.7,0,1-0.2c0.5-0.9,1-1.8,1.4-2.7c0.2-0.9,0.8-1.3,1.4-1.9c0.1-0.1,0.2-0.2,0.4-0.1c-0.5,0.6-0.8,1.2-1.2,1.8
		c-0.2,0.7-0.3,1.6,0.4,2.2c0.3,0.3,0.8,0.2,1.2,0.2c1-0.5,2.2,0.3,3-0.7c0.5-0.1,0.5,0.5,0.8,0.7c0.4,0.1,0.9,0.6,1.3,0.2
		c0-0.3-0.3-0.5-0.5-0.8c-0.3-0.5-0.7-1-1-1.5c-0.1-0.4-0.4-0.6-0.4-0.9c0.5,0.2,0.9,0.5,1.4,0.5c0.4,0.2,1,0.2,1.4,0.4
		c0.3,0.4,0.8,0.7,1.3,1c0.6,0.3,1.3,0.4,2,0.6c0.2,0,0.6,0.2,0.8,0c-0.1-0.1-0.2-0.2-0.4-0.3c-0.1-0.3,0.5-0.2,0.6-0.4
		c-0.1-0.1-0.2-0.2-0.3-0.2c-0.4-0.2-1.3-0.3-1.5-0.4c-0.3-0.1-0.6-0.2-0.9-0.3c-1.5,0-2.4-1.4-3.6-1.9c0.3-0.3,0.7-0.5,0.9-0.8
		c0.2-0.4,0.3-0.9,0.1-1.3c-0.2-0.8-1.2-0.7-1.8-1.1l0.1-0.1c1-0.1,1.8,0.2,2.7,0.4c2.4,0.3,4.7,1.2,7.2,1.3c1.4,0,3.1,0.1,3.8-1.3
		c0.1-0.8,0.3-1.6,0.4-2.4C-36.5,116.1-35.7,114.9-35.8,113.5L-35.8,113.5z M-63.1,125.1l-0.4-0.3c0.2-0.2,0.6-0.1,0.8-0.3
		c0.7-0.2,1.4-0.5,2.1-0.3C-61.2,124.8-62.2,124.9-63.1,125.1L-63.1,125.1z M-47.3,124.7c0.6,0.3,1.8,0.5,2.7,0.6
		c-0.1,0.3-0.7,0-0.6,0.5c-0.8-0.3-1.7-0.5-2.3-1.1C-47.5,124.7-47.4,124.7-47.3,124.7L-47.3,124.7z M-71,113.9
		c0.1-0.5,0.2-0.9,0.6-1.3c0.6-0.3,1.4-0.2,2,0.1c0.2,0.1,0.3,0.2,0.4,0.5c0.1,0.4-0.1,0.9-0.4,1.2h-0.2c0-0.4,0-0.8,0.2-1.2
		c0-0.3-0.3-0.3-0.5-0.5c-0.4-0.1-0.8,0.1-1.1,0.3c-0.2,0.3-0.5,0.7-0.3,1.1c0.2,0.3,0,0.7,0.1,1l-0.1,0.1
		C-70.7,114.8-71.1,114.5-71,113.9L-71,113.9z M-69.8,114.6c0.4,0.3,0.9,0.2,1.4,0.2c0.1,0.3,0.1,0.6-0.1,0.9
		c-0.4-0.1-1-0.1-1.2-0.5C-69.8,115.1-69.9,114.8-69.8,114.6L-69.8,114.6z M-69.9,113.7c0.1-0.2,0-0.5,0.3-0.6
		c0.2-0.1,0.5-0.1,0.5,0.2c0,0.3-0.1,0.6-0.1,0.9C-69.6,114.3-69.8,114-69.9,113.7L-69.9,113.7z M-58.1,121.9
		c-0.1-0.9,0.2-1.7,0.8-2.3c0.4-0.1,0.8-0.2,1.1,0.1c-0.7,0.2-1.5,0.3-1.6,1.2c0,0.3-0.1,0.5,0.1,0.8c0.3,0.5,0.9,0.3,1.3,0.7
		c0,0.1-0.1,0.3-0.2,0.3C-57.1,122.4-57.7,122.2-58.1,121.9L-58.1,121.9z M-59,123.7c0.6-0.3,1.2-0.8,1.9-0.6
		C-57.5,123.5-58.3,123.6-59,123.7L-59,123.7z M-56.6,123.9c-0.4,0.8-0.8,1.6-1.2,2.4c-0.1,0.1-0.3,0.2-0.4,0.2
		c0-0.4,0.4-0.6,0.5-0.9c0.5-0.7,0.7-1.4,1.3-2.1C-56.3,123.6-56.6,123.7-56.6,123.9L-56.6,123.9z M-55.9,122.5L-55.9,122.5
		L-55.9,122.5L-55.9,122.5L-55.9,122.5L-55.9,122.5C-55.9,122.4-56,122.4-55.9,122.5L-55.9,122.5L-55.9,122.5z M-56.2,121.8
		c-0.4-0.1-0.8-0.2-1.2-0.3c-0.2-0.3,0-0.5,0-0.8c0.4-0.6,1.4-0.8,1.8-0.3C-55.6,120.9-55.8,121.4-56.2,121.8L-56.2,121.8z
		 M-55.6,121.8c0.1-0.3,0.2-0.8,0.4-1.1C-55.2,121-55.4,121.5-55.6,121.8L-55.6,121.8z M-55.3,119.7c-0.3-0.1-0.5-0.5-0.9-0.5
		c0.3-0.1,0.6-0.1,1,0C-55.1,119.4-55.3,119.6-55.3,119.7L-55.3,119.7z M-55,120.5L-55,120.5v-0.3l0,0V120.5L-55,120.5z M-55,121.6
		c0-0.1,0.1-0.2,0.1-0.4c0.1-0.1,0.2,0.1,0.3,0.2C-54.7,121.6-54.9,121.7-55,121.6L-55,121.6z M-54.6,120.1c0.1-0.4,0.1-0.7,0.4-0.9
		c0.2,0,0.5,0,0.7,0.1c0.1,0.5,0.7,1.2,0,1.6c-0.2,0.1-0.6,0.3-0.8,0.1C-54.7,120.7-54.8,120.4-54.6,120.1L-54.6,120.1z
		 M-52.8,119.3c-0.1-0.2,0.2-0.1,0.3-0.2l0.8,0.1C-52.1,119.2-52.6,120.1-52.8,119.3L-52.8,119.3z M-51.5,119.7
		c-0.3,0.1-0.5,0.5-0.8,0.5C-52.2,119.9-51.8,119.7-51.5,119.7L-51.5,119.7z M-52.6,121.3L-52.6,121.3L-52.6,121.3L-52.6,121.3
		L-52.6,121.3L-52.6,121.3z M-52.5,122.8c0,0.1,0,0.1-0.1,0.2l-0.6-0.5C-52.9,122.5-52.7,122.6-52.5,122.8L-52.5,122.8z M-53.2,122
		c0.1-0.1,0.2-0.1,0.2,0H-53.2L-53.2,122z M-53.6,121.6c0.1-0.2,0.2-0.4,0.4-0.4c0,0,0,0.1,0.1,0.1
		C-53.3,121.5-53.4,121.6-53.6,121.6L-53.6,121.6z M-54.2,121.6L-54.2,121.6l0.1-0.2C-54,121.5-54.1,121.5-54.2,121.6L-54.2,121.6z
		 M-54.1,122.5c0.3-0.4,0.6,0.2,0.8,0.5c0.4,0.6,1.4,1.1,1,1.8c-0.5,0.4-1.2,0-1.8,0.4c-0.3,0-0.8,0.1-0.9-0.2
		C-54.7,124.2-54.5,123.3-54.1,122.5L-54.1,122.5z M-54.8,123l0.1-0.2c-0.2,0.6-0.5,1.2-0.8,1.8C-55.6,124.1-55,123.6-54.8,123
		L-54.8,123z M-53.7,126.1c-0.5,0-1.2,0.3-1.7-0.1c0-0.2-0.2-0.3-0.2-0.5c0.4-0.2,0.8,0.3,1.1,0c0.6,0,1.2-0.1,1.8,0.1
		c0.3,0.1,0.7-0.5,0.8,0.1C-52.1,126.4-53.1,125.8-53.7,126.1L-53.7,126.1z M-52.2,122.4L-52.2,122.4L-52.2,122.4L-52.2,122.4
		L-52.2,122.4L-52.2,122.4z M-52.1,124c0,0.3,0.3,0.4,0.1,0.6C-52,124.5-52.1,124.3-52.1,124L-52.1,124z M-51.3,125.5l-0.1,0.1
		c-0.1-0.1-0.1-0.4-0.1-0.5C-51.4,125.2-51.3,125.4-51.3,125.5L-51.3,125.5z M-50.1,126.1c0,0.1-0.2,0.1-0.2,0c-0.8-1-1.1-2-1.6-3.1
		h0.1C-51.2,124.1-50.7,125.2-50.1,126.1L-50.1,126.1z M-49.1,123.8C-49.2,123.8-49.2,123.9-49.1,123.8c-0.8,0.1-1.3-0.3-1.9-0.7
		V123C-50.3,123-49.8,123.5-49.1,123.8L-49.1,123.8z M-49.8,120.4c0.3,0.1,0.3,0.4,0.4,0.7c0,0.6-0.3,1-0.9,1.2
		c-0.3,0.2-0.7,0.2-1,0.1c0.6,0,1.3-0.2,1.5-0.9V120.4L-49.8,120.4z M-50.4,120.3c0.1,0.4,0.4,0.7,0.2,1.1c-0.2,0.5-0.8,0.5-1.2,0.6
		c-0.2,0-0.4-0.1-0.6-0.2c0-0.1,0-0.2-0.1-0.2c0.1-0.3-0.6-0.7-0.1-0.9C-51.7,120.3-50.8,119.4-50.4,120.3L-50.4,120.3z
		 M-37.5,118.5c-0.2,0.2,0,0.7-0.3,0.9c0,0.5-0.4,0.7-0.7,0.9c-3,0.7-6-0.4-8.9-0.9c-4.1-0.9-8.8-1.1-13-0.2
		c-1.9,0.4-3.8,0.8-5.7,1.3c-1.2,0.2-2.4,0.3-3.5,0c-0.9-0.4-0.5-1.6-0.8-2.4c0.1-0.6-0.2-1.1-0.2-1.8c-0.1-0.2-0.1-0.5-0.1-0.7
		c0.4,0.1,0.8,0.3,1.2,0.4c2.1,0.4,4-0.3,6-0.6c1.9-0.4,3.8-0.7,5.8-0.9c2.3,0,4.6-0.2,6.8,0.2c0.7,0,1.3,0.2,2,0.2
		c1.4,0.2,2.7,0.6,4.2,0.7c0.2,0.1,0.5,0.1,0.8,0.1c2.3,0.4,4.8,1,7,0C-37,116.7-37.4,117.6-37.5,118.5L-37.5,118.5z M-38.2,115.4
		c0,0.4-0.4,0.3-0.6,0.5h-0.6c-0.1-0.2-0.1-0.5-0.1-0.7C-39.1,115.2-38.6,115.2-38.2,115.4L-38.2,115.4z M-38.5,114.7
		c0.3-0.3-0.1-1.9,0.7-0.8c0,0.2,0,0.5-0.2,0.7C-38.1,114.6-38.3,114.8-38.5,114.7L-38.5,114.7z M-36.5,114.5
		c-0.2,0.5-0.6,0.8-1.1,0.9c0-0.6,0.6-1,0.4-1.7c-0.3-0.5-1-0.6-1.6-0.5c-0.2,0.2-0.1,0.4-0.2,0.6l-0.1,0.8c-0.5,0-0.5-0.5-0.7-0.8
		c0-0.5,0.3-1.1,0.8-1.3c0.4-0.2,1.1-0.2,1.5,0.1c0.3,0.1,0.7,0.2,0.8,0.5C-36.3,113.4-36.4,114-36.5,114.5L-36.5,114.5z"/>
</g>
<g class="st1">
	<path d="M2,93.8h-3.7l-0.4,1c-0.1,0.3-0.2,0.6-0.2,0.9c0,0.3,0.1,0.5,0.4,0.7c0.1,0.1,0.5,0.1,1,0.2v0.3h-3.5v-0.3
		c0.4-0.1,0.7-0.2,0.9-0.5c0.2-0.3,0.5-0.8,0.9-1.6L1.1,86h0.1L5,94.7c0.4,0.8,0.7,1.3,0.9,1.6c0.2,0.2,0.4,0.3,0.8,0.3v0.3H1.6
		v-0.3h0.2c0.4,0,0.7-0.1,0.9-0.2c0.1-0.1,0.2-0.2,0.2-0.4c0-0.1,0-0.2,0-0.3c0,0-0.1-0.2-0.2-0.6L2,93.8z M1.7,93.2l-1.6-3.6
		l-1.6,3.6H1.7z"/>
	<path d="M14.5,89.5v5.7c0,0.6,0.1,0.9,0.2,1c0.1,0.1,0.3,0.2,0.6,0.3v0.3h-3v-1c-0.3,0.4-0.7,0.7-1,0.9C10.9,96.9,10.5,97,10,97
		c-0.4,0-0.8-0.1-1.1-0.4s-0.5-0.5-0.6-0.9S8.1,94.8,8.1,94v-2.9c0-0.6-0.1-0.9-0.2-1s-0.3-0.2-0.6-0.3v-0.3h3v5c0,0.5,0,0.9,0.1,1
		c0,0.2,0.1,0.3,0.2,0.3c0.1,0.1,0.2,0.1,0.4,0.1c0.2,0,0.4,0,0.5-0.1c0.2-0.1,0.5-0.4,0.8-0.8v-3.9c0-0.6-0.1-0.9-0.2-1
		s-0.3-0.2-0.6-0.3v-0.3H14.5z"/>
	<path d="M20.9,89.3l0.1,2.5h-0.3c-0.3-0.7-0.6-1.2-1-1.5c-0.3-0.3-0.7-0.4-1-0.4c-0.2,0-0.4,0.1-0.5,0.2c-0.2,0.1-0.2,0.3-0.2,0.5
		c0,0.1,0.1,0.3,0.2,0.4c0.2,0.2,0.6,0.6,1.4,1.1s1.3,1,1.5,1.3s0.4,0.8,0.4,1.2c0,0.4-0.1,0.8-0.3,1.2s-0.5,0.7-0.9,0.9
		C19.9,96.9,19.5,97,19,97c-0.3,0-0.8-0.1-1.4-0.3c-0.2-0.1-0.3-0.1-0.3-0.1c-0.2,0-0.3,0.1-0.4,0.4h-0.3l-0.1-2.6h0.3
		c0.2,0.7,0.6,1.2,1,1.5c0.4,0.3,0.8,0.5,1.2,0.5c0.2,0,0.5-0.1,0.6-0.2c0.2-0.2,0.2-0.3,0.2-0.6c0-0.2-0.1-0.5-0.2-0.6
		s-0.5-0.5-1-0.8c-0.8-0.6-1.3-1-1.5-1.3c-0.3-0.4-0.5-0.9-0.5-1.4c0-0.6,0.2-1.1,0.6-1.5c0.4-0.5,0.9-0.7,1.7-0.7
		c0.4,0,0.8,0.1,1.1,0.3c0.1,0.1,0.3,0.1,0.3,0.1c0.1,0,0.2,0,0.2-0.1c0.1,0,0.1-0.1,0.3-0.3H20.9z"/>
	<path d="M25.4,86.8v2.7h1.7v0.8h-1.7v4.5c0,0.4,0,0.7,0.1,0.8s0.1,0.2,0.2,0.3C25.8,96,25.9,96,26,96c0.3,0,0.7-0.3,1-0.8l0.2,0.2
		c-0.4,1-1.1,1.5-2.1,1.5c-0.5,0-0.9-0.1-1.2-0.4s-0.5-0.5-0.6-0.9c-0.1-0.2-0.1-0.7-0.1-1.4v-3.9h-1V90c0.7-0.5,1.2-1,1.7-1.5
		s0.9-1.1,1.2-1.7H25.4z"/>
	<path d="M30.9,89.5v1.7c0.5-0.8,0.9-1.3,1.3-1.5c0.4-0.2,0.7-0.4,1.1-0.4c0.3,0,0.5,0.1,0.7,0.3c0.2,0.2,0.3,0.4,0.3,0.8
		c0,0.3-0.1,0.6-0.3,0.8c-0.2,0.2-0.4,0.3-0.6,0.3c-0.3,0-0.5-0.1-0.7-0.3s-0.3-0.3-0.4-0.3c-0.1,0-0.1,0-0.2,0
		c-0.2,0-0.3,0.1-0.4,0.2c-0.2,0.2-0.4,0.4-0.5,0.8c-0.2,0.5-0.2,1.1-0.2,1.7v1.7l0,0.4c0,0.3,0,0.5,0.1,0.6
		c0.1,0.1,0.2,0.2,0.3,0.3c0.1,0.1,0.3,0.1,0.6,0.1v0.3h-3.9v-0.3c0.3,0,0.5-0.1,0.6-0.3c0.1-0.1,0.2-0.5,0.2-1.2v-4
		c0-0.4,0-0.7-0.1-0.8c-0.1-0.1-0.1-0.3-0.2-0.3c-0.1-0.1-0.3-0.1-0.5-0.1v-0.3H30.9z"/>
	<path d="M39,95.7c-0.9,0.8-1.7,1.2-2.4,1.2c-0.4,0-0.8-0.1-1-0.4c-0.3-0.3-0.4-0.6-0.4-1c0-0.6,0.2-1.1,0.7-1.5
		c0.5-0.4,1.5-1,3.1-1.8v-0.7c0-0.6,0-0.9-0.1-1c-0.1-0.1-0.2-0.3-0.3-0.4c-0.2-0.1-0.4-0.2-0.6-0.2c-0.3,0-0.6,0.1-0.8,0.2
		C37,90.2,37,90.3,37,90.4c0,0.1,0.1,0.2,0.2,0.4c0.2,0.2,0.3,0.4,0.3,0.6c0,0.3-0.1,0.5-0.3,0.7c-0.2,0.2-0.4,0.3-0.7,0.3
		c-0.3,0-0.6-0.1-0.8-0.3c-0.2-0.2-0.3-0.4-0.3-0.7c0-0.4,0.1-0.7,0.4-1.1s0.7-0.6,1.2-0.8s1.1-0.3,1.7-0.3c0.7,0,1.2,0.1,1.6,0.4
		c0.4,0.3,0.7,0.6,0.8,1c0.1,0.2,0.1,0.7,0.1,1.5V95c0,0.3,0,0.5,0,0.6c0,0.1,0.1,0.1,0.1,0.2c0.1,0,0.1,0.1,0.2,0.1
		c0.1,0,0.3-0.1,0.4-0.3l0.2,0.2c-0.3,0.4-0.5,0.7-0.8,0.8c-0.3,0.2-0.6,0.3-0.9,0.3c-0.4,0-0.7-0.1-1-0.3S39,96.1,39,95.7z
		 M39,95.2v-2.4c-0.6,0.4-1.1,0.8-1.4,1.2c-0.2,0.3-0.3,0.6-0.3,0.9c0,0.2,0.1,0.5,0.3,0.6c0.1,0.1,0.3,0.2,0.5,0.2
		C38.3,95.6,38.6,95.4,39,95.2z"/>
	<path d="M45.8,86.2v9.1c0,0.5,0.1,0.8,0.2,1c0.1,0.1,0.4,0.2,0.7,0.2v0.3h-3.9v-0.3c0.3,0,0.6-0.1,0.7-0.3c0.1-0.1,0.2-0.4,0.2-1
		v-7.6c0-0.5-0.1-0.8-0.2-1c-0.1-0.1-0.4-0.2-0.7-0.2v-0.3H45.8z"/>
	<path d="M50.3,89.5v5.8c0,0.5,0.1,0.8,0.2,1c0.1,0.1,0.4,0.2,0.7,0.2v0.3h-3.9v-0.3c0.3,0,0.6-0.1,0.7-0.3c0.1-0.1,0.2-0.4,0.2-1
		V91c0-0.5-0.1-0.8-0.2-1c-0.1-0.1-0.4-0.2-0.7-0.2v-0.3H50.3z M49.2,86c0.3,0,0.6,0.1,0.9,0.4s0.4,0.5,0.4,0.9S50.2,87.8,50,88
		c-0.2,0.2-0.5,0.4-0.9,0.4c-0.3,0-0.6-0.1-0.9-0.4S48,87.5,48,87.2s0.1-0.6,0.4-0.9S48.8,86,49.2,86z"/>
	<path d="M55.9,95.7c-0.9,0.8-1.7,1.2-2.4,1.2c-0.4,0-0.8-0.1-1-0.4c-0.3-0.3-0.4-0.6-0.4-1c0-0.6,0.2-1.1,0.7-1.5
		c0.5-0.4,1.5-1,3.1-1.8v-0.7c0-0.6,0-0.9-0.1-1c-0.1-0.1-0.2-0.3-0.3-0.4c-0.2-0.1-0.4-0.2-0.6-0.2c-0.3,0-0.6,0.1-0.8,0.2
		c-0.1,0.1-0.2,0.2-0.2,0.3c0,0.1,0.1,0.2,0.2,0.4c0.2,0.2,0.3,0.4,0.3,0.6c0,0.3-0.1,0.5-0.3,0.7c-0.2,0.2-0.4,0.3-0.7,0.3
		c-0.3,0-0.6-0.1-0.8-0.3c-0.2-0.2-0.3-0.4-0.3-0.7c0-0.4,0.1-0.7,0.4-1.1s0.7-0.6,1.2-0.8s1.1-0.3,1.7-0.3c0.7,0,1.2,0.1,1.6,0.4
		c0.4,0.3,0.7,0.6,0.8,1c0.1,0.2,0.1,0.7,0.1,1.5V95c0,0.3,0,0.5,0,0.6c0,0.1,0.1,0.1,0.1,0.2c0.1,0,0.1,0.1,0.2,0.1
		c0.1,0,0.3-0.1,0.4-0.3l0.2,0.2c-0.3,0.4-0.5,0.7-0.8,0.8c-0.3,0.2-0.6,0.3-0.9,0.3c-0.4,0-0.7-0.1-1-0.3S55.9,96.1,55.9,95.7z
		 M55.9,95.2v-2.4c-0.6,0.4-1.1,0.8-1.4,1.2c-0.2,0.3-0.3,0.6-0.3,0.9c0,0.2,0.1,0.5,0.3,0.6c0.1,0.1,0.3,0.2,0.5,0.2
		C55.2,95.6,55.5,95.4,55.9,95.2z"/>
	<path d="M62.8,89.5v0.9c0.4-0.4,0.7-0.7,1.1-0.9s0.7-0.3,1.1-0.3c0.5,0,0.9,0.1,1.2,0.4s0.5,0.6,0.6,1c0.1,0.3,0.1,0.9,0.1,1.7v2.8
		c0,0.6,0.1,0.9,0.2,1.1s0.3,0.2,0.6,0.3v0.3H64v-0.3c0.3,0,0.5-0.2,0.6-0.3c0.1-0.1,0.1-0.5,0.1-1V92c0-0.6,0-1-0.1-1.1
		s-0.1-0.3-0.2-0.4c-0.1-0.1-0.2-0.1-0.4-0.1c-0.4,0-0.9,0.3-1.2,1v3.9c0,0.5,0.1,0.9,0.2,1s0.3,0.2,0.6,0.3v0.3h-3.7v-0.3
		c0.3,0,0.5-0.1,0.7-0.3c0.1-0.1,0.1-0.5,0.1-1v-4.1c0-0.6-0.1-0.9-0.2-1s-0.3-0.2-0.6-0.3v-0.3H62.8z"/>
	<path d="M83.2,86v3.7H83c-0.3-1-0.9-1.8-1.6-2.3c-0.7-0.5-1.5-0.8-2.3-0.8c-0.8,0-1.5,0.2-2,0.7c-0.5,0.4-0.9,1.1-1.1,1.9
		s-0.3,1.6-0.3,2.5c0,1,0.1,1.9,0.4,2.7c0.2,0.8,0.6,1.3,1.2,1.7c0.5,0.4,1.2,0.5,1.9,0.5c0.3,0,0.5,0,0.8-0.1
		c0.3-0.1,0.5-0.1,0.8-0.2v-2.2c0-0.4,0-0.7-0.1-0.8c-0.1-0.1-0.2-0.2-0.4-0.3s-0.4-0.1-0.7-0.1h-0.3v-0.3h5.1v0.3
		c-0.4,0-0.7,0.1-0.8,0.2c-0.2,0.1-0.3,0.2-0.4,0.4c0,0.1-0.1,0.3-0.1,0.7v2.2c-0.7,0.3-1.4,0.5-2.1,0.7c-0.7,0.2-1.5,0.2-2.3,0.2
		c-1,0-1.8-0.1-2.5-0.4s-1.2-0.6-1.8-1.1s-0.9-0.9-1.2-1.5c-0.4-0.7-0.5-1.5-0.5-2.4c0-1.6,0.6-2.9,1.7-4c1.1-1.1,2.5-1.6,4.2-1.6
		c0.5,0,1,0,1.4,0.1c0.2,0,0.6,0.2,1.1,0.4c0.5,0.2,0.8,0.3,0.9,0.3c0.1,0,0.3-0.1,0.4-0.2s0.2-0.3,0.3-0.6H83.2z"/>
	<path d="M88.6,89.3c0.6,0,1.2,0.2,1.8,0.5s1,0.8,1.2,1.4c0.3,0.6,0.4,1.3,0.4,2c0,1-0.3,1.9-0.8,2.6c-0.6,0.8-1.5,1.3-2.6,1.3
		c-1.1,0-1.9-0.4-2.5-1.2s-0.9-1.7-0.9-2.7c0-1,0.3-2,0.9-2.7C86.7,89.7,87.6,89.3,88.6,89.3z M88.7,89.8c-0.3,0-0.5,0.1-0.7,0.3
		c-0.2,0.2-0.3,0.6-0.4,1.2c-0.1,0.6-0.1,1.4-0.1,2.5c0,0.6,0,1.1,0.1,1.6c0.1,0.4,0.2,0.7,0.4,0.8s0.4,0.3,0.6,0.3
		c0.2,0,0.4-0.1,0.6-0.2c0.2-0.2,0.3-0.4,0.4-0.7c0.1-0.5,0.2-1.5,0.2-3c0-0.9,0-1.5-0.1-1.8c-0.1-0.3-0.2-0.6-0.4-0.7
		C89.1,89.9,88.9,89.8,88.7,89.8z"/>
	<path d="M96.5,97L94,91.4c-0.3-0.7-0.5-1.1-0.7-1.3c-0.1-0.1-0.3-0.2-0.5-0.3v-0.3h3.9v0.3c-0.2,0-0.4,0-0.5,0.1
		C96.1,90,96,90.2,96,90.3c0,0.2,0.1,0.6,0.3,1.1l1.2,2.7l1-2.4c0.3-0.7,0.4-1.2,0.4-1.4c0-0.2-0.1-0.3-0.2-0.4s-0.3-0.2-0.6-0.2
		v-0.3h2.4v0.3c-0.2,0-0.4,0.1-0.6,0.3c-0.1,0.1-0.4,0.6-0.7,1.2L96.9,97H96.5z"/>
	<path d="M107.4,92.9h-4c0,1,0.3,1.7,0.8,2.3c0.4,0.4,0.8,0.6,1.3,0.6c0.3,0,0.6-0.1,0.9-0.3c0.3-0.2,0.5-0.5,0.8-0.9l0.3,0.2
		c-0.4,0.8-0.8,1.4-1.3,1.7c-0.5,0.3-1,0.5-1.7,0.5c-1.1,0-1.9-0.4-2.5-1.2c-0.4-0.7-0.7-1.5-0.7-2.5c0-1.2,0.3-2.2,1-2.9
		c0.7-0.7,1.4-1.1,2.3-1.1c0.7,0,1.4,0.3,1.9,0.9C107,90.8,107.3,91.7,107.4,92.9z M105.5,92.4c0-0.8,0-1.4-0.1-1.7
		c-0.1-0.3-0.2-0.5-0.4-0.7c-0.1-0.1-0.3-0.1-0.4-0.1c-0.3,0-0.5,0.1-0.7,0.4c-0.3,0.5-0.5,1.1-0.5,1.9v0.3H105.5z"/>
	<path d="M111.3,89.5v1.7c0.5-0.8,0.9-1.3,1.3-1.5c0.4-0.2,0.7-0.4,1.1-0.4c0.3,0,0.5,0.1,0.7,0.3c0.2,0.2,0.3,0.4,0.3,0.8
		c0,0.3-0.1,0.6-0.3,0.8c-0.2,0.2-0.4,0.3-0.6,0.3c-0.3,0-0.5-0.1-0.7-0.3s-0.3-0.3-0.4-0.3c-0.1,0-0.1,0-0.2,0
		c-0.2,0-0.3,0.1-0.4,0.2c-0.2,0.2-0.4,0.4-0.5,0.8c-0.2,0.5-0.2,1.1-0.2,1.7v1.7l0,0.4c0,0.3,0,0.5,0.1,0.6
		c0.1,0.1,0.2,0.2,0.3,0.3c0.1,0.1,0.3,0.1,0.6,0.1v0.3h-3.9v-0.3c0.3,0,0.5-0.1,0.6-0.3c0.1-0.1,0.2-0.5,0.2-1.2v-4
		c0-0.4,0-0.7-0.1-0.8c-0.1-0.1-0.1-0.3-0.2-0.3c-0.1-0.1-0.3-0.1-0.5-0.1v-0.3H111.3z"/>
	<path d="M118.4,89.5v0.9c0.4-0.4,0.7-0.7,1.1-0.9s0.7-0.3,1.1-0.3c0.5,0,0.9,0.1,1.2,0.4s0.5,0.6,0.6,1c0.1,0.3,0.1,0.9,0.1,1.7
		v2.8c0,0.6,0.1,0.9,0.2,1.1s0.3,0.2,0.6,0.3v0.3h-3.7v-0.3c0.3,0,0.5-0.2,0.6-0.3c0.1-0.1,0.1-0.5,0.1-1V92c0-0.6,0-1-0.1-1.1
		s-0.1-0.3-0.2-0.4c-0.1-0.1-0.2-0.1-0.4-0.1c-0.4,0-0.9,0.3-1.2,1v3.9c0,0.5,0.1,0.9,0.2,1s0.3,0.2,0.6,0.3v0.3h-3.7v-0.3
		c0.3,0,0.5-0.1,0.7-0.3c0.1-0.1,0.1-0.5,0.1-1v-4.1c0-0.6-0.1-0.9-0.2-1s-0.3-0.2-0.6-0.3v-0.3H118.4z"/>
	<path d="M127.3,89.5v1c0.4-0.4,0.8-0.7,1.1-0.9c0.3-0.2,0.7-0.3,1.1-0.3c0.5,0,0.9,0.1,1.2,0.3c0.3,0.2,0.6,0.6,0.7,1
		c0.4-0.5,0.8-0.8,1.2-1s0.8-0.3,1.2-0.3c0.5,0,0.9,0.1,1.2,0.3c0.3,0.2,0.5,0.5,0.6,0.9s0.2,0.9,0.2,1.7v3c0,0.6,0.1,0.9,0.2,1
		s0.3,0.2,0.6,0.3v0.3h-3.8v-0.3c0.3,0,0.5-0.1,0.7-0.3c0.1-0.1,0.1-0.5,0.1-1v-3.1c0-0.7,0-1.1-0.1-1.2c-0.1-0.2-0.1-0.3-0.2-0.4
		c-0.1-0.1-0.2-0.1-0.4-0.1c-0.2,0-0.5,0.1-0.7,0.2c-0.2,0.2-0.5,0.4-0.7,0.7v3.9c0,0.5,0,0.9,0.1,1c0.1,0.2,0.3,0.3,0.7,0.3v0.3
		h-3.8v-0.3c0.2,0,0.4-0.1,0.5-0.2s0.2-0.2,0.2-0.3s0.1-0.4,0.1-0.8v-3.1c0-0.7,0-1.1-0.1-1.2c-0.1-0.2-0.1-0.3-0.3-0.4
		c-0.1-0.1-0.3-0.1-0.4-0.1c-0.2,0-0.4,0.1-0.6,0.2c-0.2,0.2-0.5,0.4-0.8,0.8v3.9c0,0.5,0.1,0.9,0.2,1s0.3,0.3,0.6,0.3v0.3h-3.8
		v-0.3c0.3,0,0.5-0.1,0.7-0.3c0.1-0.1,0.1-0.5,0.1-1v-4.1c0-0.6-0.1-0.9-0.2-1s-0.3-0.2-0.6-0.3v-0.3H127.3z"/>
	<path d="M143.8,92.9h-4c0,1,0.3,1.7,0.8,2.3c0.4,0.4,0.8,0.6,1.3,0.6c0.3,0,0.6-0.1,0.9-0.3c0.3-0.2,0.5-0.5,0.8-0.9l0.3,0.2
		c-0.4,0.8-0.8,1.4-1.3,1.7c-0.5,0.3-1,0.5-1.7,0.5c-1.1,0-1.9-0.4-2.5-1.2c-0.4-0.7-0.7-1.5-0.7-2.5c0-1.2,0.3-2.2,1-2.9
		c0.7-0.7,1.4-1.1,2.3-1.1c0.7,0,1.4,0.3,1.9,0.9C143.5,90.8,143.8,91.7,143.8,92.9z M141.9,92.4c0-0.8,0-1.4-0.1-1.7
		c-0.1-0.3-0.2-0.5-0.4-0.7c-0.1-0.1-0.3-0.1-0.4-0.1c-0.3,0-0.5,0.1-0.7,0.4c-0.3,0.5-0.5,1.1-0.5,1.9v0.3H141.9z"/>
	<path d="M147.7,89.5v0.9c0.4-0.4,0.7-0.7,1.1-0.9s0.7-0.3,1.1-0.3c0.5,0,0.9,0.1,1.2,0.4s0.5,0.6,0.6,1c0.1,0.3,0.1,0.9,0.1,1.7
		v2.8c0,0.6,0.1,0.9,0.2,1.1s0.3,0.2,0.6,0.3v0.3h-3.7v-0.3c0.3,0,0.5-0.2,0.6-0.3c0.1-0.1,0.1-0.5,0.1-1V92c0-0.6,0-1-0.1-1.1
		s-0.1-0.3-0.2-0.4c-0.1-0.1-0.2-0.1-0.4-0.1c-0.4,0-0.9,0.3-1.2,1v3.9c0,0.5,0.1,0.9,0.2,1s0.3,0.2,0.6,0.3v0.3h-3.7v-0.3
		c0.3,0,0.5-0.1,0.7-0.3c0.1-0.1,0.1-0.5,0.1-1v-4.1c0-0.6-0.1-0.9-0.2-1s-0.3-0.2-0.6-0.3v-0.3H147.7z"/>
	<path d="M156.5,86.8v2.7h1.7v0.8h-1.7v4.5c0,0.4,0,0.7,0.1,0.8s0.1,0.2,0.2,0.3c0.1,0.1,0.2,0.1,0.3,0.1c0.3,0,0.7-0.3,1-0.8
		l0.2,0.2c-0.4,1-1.1,1.5-2.1,1.5c-0.5,0-0.9-0.1-1.2-0.4s-0.5-0.5-0.6-0.9c-0.1-0.2-0.1-0.7-0.1-1.4v-3.9h-1V90
		c0.7-0.5,1.2-1,1.7-1.5s0.9-1.1,1.2-1.7H156.5z"/>
</g>
<g class="st1">
	<path d="M1.9,121.1h-3.7l-0.4,1c-0.1,0.3-0.2,0.6-0.2,0.9c0,0.3,0.1,0.5,0.4,0.7c0.1,0.1,0.5,0.1,1,0.2v0.3h-3.5v-0.3
		c0.4-0.1,0.7-0.2,0.9-0.5c0.2-0.3,0.5-0.8,0.9-1.6l3.8-8.5h0.1L5,122c0.4,0.8,0.7,1.3,0.9,1.6c0.2,0.2,0.4,0.3,0.8,0.3v0.3H1.5
		v-0.3h0.2c0.4,0,0.7-0.1,0.9-0.2c0.1-0.1,0.2-0.2,0.2-0.4c0-0.1,0-0.2,0-0.3c0,0-0.1-0.2-0.2-0.6L1.9,121.1z M1.7,120.5l-1.6-3.6
		l-1.6,3.6H1.7z"/>
	<path d="M14.4,116.8v5.7c0,0.6,0.1,0.9,0.2,1c0.1,0.1,0.3,0.2,0.6,0.3v0.3h-3v-1c-0.3,0.4-0.7,0.7-1,0.9c-0.3,0.2-0.7,0.3-1.2,0.3
		c-0.4,0-0.8-0.1-1.1-0.4s-0.5-0.5-0.6-0.9s-0.2-0.9-0.2-1.8v-2.9c0-0.6-0.1-0.9-0.2-1s-0.3-0.2-0.6-0.3v-0.3h3v5c0,0.5,0,0.9,0.1,1
		c0,0.2,0.1,0.3,0.2,0.3c0.1,0.1,0.2,0.1,0.4,0.1c0.2,0,0.4,0,0.5-0.1c0.2-0.1,0.5-0.4,0.8-0.8v-3.9c0-0.6-0.1-0.9-0.2-1
		s-0.3-0.2-0.6-0.3v-0.3H14.4z"/>
	<path d="M20.9,116.6l0.1,2.5h-0.3c-0.3-0.7-0.6-1.2-1-1.5c-0.3-0.3-0.7-0.4-1-0.4c-0.2,0-0.4,0.1-0.5,0.2c-0.2,0.1-0.2,0.3-0.2,0.5
		c0,0.1,0.1,0.3,0.2,0.4c0.2,0.2,0.6,0.6,1.4,1.1s1.3,1,1.5,1.3s0.4,0.8,0.4,1.2c0,0.4-0.1,0.8-0.3,1.2s-0.5,0.7-0.9,0.9
		c-0.4,0.2-0.8,0.3-1.2,0.3c-0.3,0-0.8-0.1-1.4-0.3c-0.2-0.1-0.3-0.1-0.3-0.1c-0.2,0-0.3,0.1-0.4,0.4h-0.3l-0.1-2.6h0.3
		c0.2,0.7,0.6,1.2,1,1.5c0.4,0.3,0.8,0.5,1.2,0.5c0.2,0,0.5-0.1,0.6-0.2c0.2-0.2,0.2-0.3,0.2-0.6c0-0.2-0.1-0.5-0.2-0.6
		s-0.5-0.5-1-0.8c-0.8-0.6-1.3-1-1.5-1.3c-0.3-0.4-0.5-0.9-0.5-1.4c0-0.6,0.2-1.1,0.6-1.5c0.4-0.5,0.9-0.7,1.7-0.7
		c0.4,0,0.8,0.1,1.1,0.3c0.1,0.1,0.3,0.1,0.3,0.1c0.1,0,0.2,0,0.2-0.1c0.1,0,0.1-0.1,0.3-0.3H20.9z"/>
	<path d="M25.4,114.1v2.7h1.7v0.8h-1.7v4.5c0,0.4,0,0.7,0.1,0.8s0.1,0.2,0.2,0.3c0.1,0.1,0.2,0.1,0.3,0.1c0.3,0,0.7-0.3,1-0.8
		l0.2,0.2c-0.4,1-1.1,1.5-2.1,1.5c-0.5,0-0.9-0.1-1.2-0.4s-0.5-0.5-0.6-0.9c-0.1-0.2-0.1-0.7-0.1-1.4v-3.9h-1v-0.3
		c0.7-0.5,1.2-1,1.7-1.5s0.9-1.1,1.2-1.7H25.4z"/>
	<path d="M30.9,116.8v1.7c0.5-0.8,0.9-1.3,1.3-1.5c0.4-0.2,0.7-0.4,1.1-0.4c0.3,0,0.5,0.1,0.7,0.3c0.2,0.2,0.3,0.4,0.3,0.8
		c0,0.3-0.1,0.6-0.3,0.8c-0.2,0.2-0.4,0.3-0.6,0.3c-0.3,0-0.5-0.1-0.7-0.3s-0.3-0.3-0.4-0.3c-0.1,0-0.1,0-0.2,0
		c-0.2,0-0.3,0.1-0.4,0.2c-0.2,0.2-0.4,0.4-0.5,0.8c-0.2,0.5-0.2,1.1-0.2,1.7v1.7l0,0.4c0,0.3,0,0.5,0.1,0.6
		c0.1,0.1,0.2,0.2,0.3,0.3c0.1,0.1,0.3,0.1,0.6,0.1v0.3h-3.9v-0.3c0.3,0,0.5-0.1,0.6-0.3c0.1-0.1,0.2-0.5,0.2-1.2v-4
		c0-0.4,0-0.7-0.1-0.8c-0.1-0.1-0.1-0.3-0.2-0.3c-0.1-0.1-0.3-0.1-0.5-0.1v-0.3H30.9z"/>
	<path d="M39,123c-0.9,0.8-1.7,1.2-2.4,1.2c-0.4,0-0.8-0.1-1-0.4c-0.3-0.3-0.4-0.6-0.4-1c0-0.6,0.2-1.1,0.7-1.5
		c0.5-0.4,1.5-1,3.1-1.8v-0.7c0-0.6,0-0.9-0.1-1c-0.1-0.1-0.2-0.3-0.3-0.4c-0.2-0.1-0.4-0.2-0.6-0.2c-0.3,0-0.6,0.1-0.8,0.2
		c-0.1,0.1-0.2,0.2-0.2,0.3c0,0.1,0.1,0.2,0.2,0.4c0.2,0.2,0.3,0.4,0.3,0.6c0,0.3-0.1,0.5-0.3,0.7c-0.2,0.2-0.4,0.3-0.7,0.3
		c-0.3,0-0.6-0.1-0.8-0.3c-0.2-0.2-0.3-0.4-0.3-0.7c0-0.4,0.1-0.7,0.4-1.1s0.7-0.6,1.2-0.8s1.1-0.3,1.7-0.3c0.7,0,1.2,0.1,1.6,0.4
		c0.4,0.3,0.7,0.6,0.8,1c0.1,0.2,0.1,0.7,0.1,1.5v2.8c0,0.3,0,0.5,0,0.6c0,0.1,0.1,0.1,0.1,0.2c0.1,0,0.1,0.1,0.2,0.1
		c0.1,0,0.3-0.1,0.4-0.3l0.2,0.2c-0.3,0.4-0.5,0.7-0.8,0.8c-0.3,0.2-0.6,0.3-0.9,0.3c-0.4,0-0.7-0.1-1-0.3S39,123.4,39,123z
		 M39,122.4V120c-0.6,0.4-1.1,0.8-1.4,1.2c-0.2,0.3-0.3,0.6-0.3,0.9c0,0.2,0.1,0.5,0.3,0.6c0.1,0.1,0.3,0.2,0.5,0.2
		C38.3,122.9,38.6,122.7,39,122.4z"/>
	<path d="M45.8,113.5v9.1c0,0.5,0.1,0.8,0.2,1c0.1,0.1,0.4,0.2,0.7,0.2v0.3h-3.9v-0.3c0.3,0,0.6-0.1,0.7-0.3c0.1-0.1,0.2-0.4,0.2-1
		V115c0-0.5-0.1-0.8-0.2-1c-0.1-0.1-0.4-0.2-0.7-0.2v-0.3H45.8z"/>
	<path d="M50.2,116.8v5.8c0,0.5,0.1,0.8,0.2,1c0.1,0.1,0.4,0.2,0.7,0.2v0.3h-3.9v-0.3c0.3,0,0.6-0.1,0.7-0.3c0.1-0.1,0.2-0.4,0.2-1
		v-4.3c0-0.5-0.1-0.8-0.2-1c-0.1-0.1-0.4-0.2-0.7-0.2v-0.3H50.2z M49.1,113.2c0.3,0,0.6,0.1,0.9,0.4s0.4,0.5,0.4,0.9
		s-0.1,0.6-0.4,0.9c-0.2,0.2-0.5,0.4-0.9,0.4c-0.3,0-0.6-0.1-0.9-0.4s-0.4-0.5-0.4-0.9s0.1-0.6,0.4-0.9S48.8,113.2,49.1,113.2z"/>
	<path d="M55.9,123c-0.9,0.8-1.7,1.2-2.4,1.2c-0.4,0-0.8-0.1-1-0.4c-0.3-0.3-0.4-0.6-0.4-1c0-0.6,0.2-1.1,0.7-1.5
		c0.5-0.4,1.5-1,3.1-1.8v-0.7c0-0.6,0-0.9-0.1-1c-0.1-0.1-0.2-0.3-0.3-0.4c-0.2-0.1-0.4-0.2-0.6-0.2c-0.3,0-0.6,0.1-0.8,0.2
		c-0.1,0.1-0.2,0.2-0.2,0.3c0,0.1,0.1,0.2,0.2,0.4c0.2,0.2,0.3,0.4,0.3,0.6c0,0.3-0.1,0.5-0.3,0.7c-0.2,0.2-0.4,0.3-0.7,0.3
		c-0.3,0-0.6-0.1-0.8-0.3c-0.2-0.2-0.3-0.4-0.3-0.7c0-0.4,0.1-0.7,0.4-1.1s0.7-0.6,1.2-0.8s1.1-0.3,1.7-0.3c0.7,0,1.2,0.1,1.6,0.4
		c0.4,0.3,0.7,0.6,0.8,1c0.1,0.2,0.1,0.7,0.1,1.5v2.8c0,0.3,0,0.5,0,0.6c0,0.1,0.1,0.1,0.1,0.2c0.1,0,0.1,0.1,0.2,0.1
		c0.1,0,0.3-0.1,0.4-0.3l0.2,0.2c-0.3,0.4-0.5,0.7-0.8,0.8c-0.3,0.2-0.6,0.3-0.9,0.3c-0.4,0-0.7-0.1-1-0.3S55.9,123.4,55.9,123z
		 M55.9,122.4V120c-0.6,0.4-1.1,0.8-1.4,1.2c-0.2,0.3-0.3,0.6-0.3,0.9c0,0.2,0.1,0.5,0.3,0.6c0.1,0.1,0.3,0.2,0.5,0.2
		C55.2,122.9,55.5,122.7,55.9,122.4z"/>
	<path d="M62.8,116.8v0.9c0.4-0.4,0.7-0.7,1.1-0.9s0.7-0.3,1.1-0.3c0.5,0,0.9,0.1,1.2,0.4s0.5,0.6,0.6,1c0.1,0.3,0.1,0.9,0.1,1.7
		v2.8c0,0.6,0.1,0.9,0.2,1.1s0.3,0.2,0.6,0.3v0.3H64v-0.3c0.3,0,0.5-0.2,0.6-0.3c0.1-0.1,0.1-0.5,0.1-1v-3.2c0-0.6,0-1-0.1-1.1
		s-0.1-0.3-0.2-0.4c-0.1-0.1-0.2-0.1-0.4-0.1c-0.4,0-0.9,0.3-1.2,1v3.9c0,0.5,0.1,0.9,0.2,1s0.3,0.2,0.6,0.3v0.3h-3.7v-0.3
		c0.3,0,0.5-0.1,0.7-0.3c0.1-0.1,0.1-0.5,0.1-1v-4.1c0-0.6-0.1-0.9-0.2-1s-0.3-0.2-0.6-0.3v-0.3H62.8z"/>
	<path d="M79.7,113.2l0.1,3.5h-0.3c-0.2-0.9-0.5-1.6-1.1-2.1c-0.6-0.5-1.2-0.8-1.9-0.8c-0.5,0-1,0.1-1.3,0.4c-0.3,0.3-0.5,0.6-0.5,1
		c0,0.2,0.1,0.4,0.2,0.6c0.2,0.2,0.4,0.5,0.7,0.7c0.2,0.2,0.8,0.5,1.7,0.9c1.2,0.6,2.1,1.2,2.5,1.7c0.4,0.5,0.6,1.2,0.6,1.9
		c0,0.9-0.3,1.6-1,2.3c-0.7,0.6-1.6,1-2.6,1c-0.3,0-0.6,0-0.9-0.1s-0.7-0.2-1.1-0.4c-0.2-0.1-0.5-0.2-0.6-0.2
		c-0.1,0-0.3,0.1-0.4,0.2c-0.2,0.1-0.3,0.3-0.4,0.5H73v-4h0.3c0.2,1.1,0.7,2,1.3,2.6c0.7,0.6,1.4,0.9,2.1,0.9c0.6,0,1-0.2,1.4-0.5
		c0.3-0.3,0.5-0.7,0.5-1.1c0-0.2-0.1-0.5-0.2-0.7s-0.3-0.5-0.6-0.7c-0.3-0.2-0.8-0.5-1.4-0.8c-1-0.5-1.7-0.9-2.1-1.2s-0.7-0.7-1-1.1
		s-0.3-0.9-0.3-1.4c0-0.8,0.3-1.6,0.9-2.2c0.6-0.6,1.4-0.9,2.3-0.9c0.3,0,0.7,0,1,0.1c0.2,0.1,0.5,0.2,0.9,0.3s0.6,0.3,0.7,0.3
		c0.1,0,0.2,0,0.3-0.1s0.2-0.3,0.2-0.6H79.7z"/>
	<path d="M84.4,123.3v2.7c0,0.4,0,0.6,0.1,0.8c0.1,0.1,0.2,0.2,0.3,0.3s0.4,0.1,0.7,0.1v0.3h-4.2v-0.3c0.3,0,0.6-0.1,0.7-0.3
		c0.1-0.1,0.2-0.4,0.2-0.9v-7.7c0-0.5-0.1-0.8-0.2-1c-0.1-0.1-0.4-0.2-0.7-0.2v-0.3h3.1v1c0.3-0.4,0.5-0.6,0.8-0.8
		c0.4-0.2,0.8-0.4,1.2-0.4c0.5,0,1,0.2,1.5,0.5c0.4,0.3,0.8,0.8,1,1.4c0.2,0.6,0.3,1.2,0.3,1.9c0,0.7-0.1,1.4-0.4,2
		c-0.2,0.6-0.6,1.1-1,1.4c-0.5,0.3-1,0.5-1.5,0.5c-0.4,0-0.8-0.1-1.1-0.3C85,123.9,84.7,123.7,84.4,123.3z M84.4,122.5
		c0.4,0.6,0.9,1,1.4,1c0.3,0,0.5-0.1,0.7-0.4c0.3-0.4,0.4-1.3,0.4-2.5c0-1.3-0.1-2.1-0.4-2.6c-0.2-0.3-0.5-0.5-0.8-0.5
		c-0.5,0-1,0.4-1.3,1.1V122.5z"/>
	<path d="M94,116.6c0.6,0,1.2,0.2,1.8,0.5s1,0.8,1.2,1.4c0.3,0.6,0.4,1.3,0.4,2c0,1-0.3,1.9-0.8,2.6c-0.6,0.8-1.5,1.3-2.6,1.3
		c-1.1,0-1.9-0.4-2.5-1.2s-0.9-1.7-0.9-2.7c0-1,0.3-2,0.9-2.7C92.1,116.9,92.9,116.6,94,116.6z M94,117.1c-0.3,0-0.5,0.1-0.7,0.3
		c-0.2,0.2-0.3,0.6-0.4,1.2c-0.1,0.6-0.1,1.4-0.1,2.5c0,0.6,0,1.1,0.1,1.6c0.1,0.4,0.2,0.7,0.4,0.8s0.4,0.3,0.6,0.3
		c0.2,0,0.4-0.1,0.6-0.2c0.2-0.2,0.3-0.4,0.4-0.7c0.1-0.5,0.2-1.5,0.2-3c0-0.9,0-1.5-0.1-1.8c-0.1-0.3-0.2-0.6-0.4-0.7
		C94.4,117.2,94.2,117.1,94,117.1z"/>
	<path d="M101.5,116.8v1.7c0.5-0.8,0.9-1.3,1.3-1.5s0.7-0.4,1.1-0.4c0.3,0,0.5,0.1,0.7,0.3s0.3,0.4,0.3,0.8c0,0.3-0.1,0.6-0.3,0.8
		s-0.4,0.3-0.6,0.3c-0.3,0-0.5-0.1-0.7-0.3s-0.3-0.3-0.4-0.3c-0.1,0-0.1,0-0.2,0c-0.2,0-0.3,0.1-0.4,0.2c-0.2,0.2-0.4,0.4-0.5,0.8
		c-0.2,0.5-0.2,1.1-0.2,1.7v1.7l0,0.4c0,0.3,0,0.5,0.1,0.6c0.1,0.1,0.2,0.2,0.3,0.3c0.1,0.1,0.3,0.1,0.6,0.1v0.3h-3.9v-0.3
		c0.3,0,0.5-0.1,0.6-0.3c0.1-0.1,0.2-0.5,0.2-1.2v-4c0-0.4,0-0.7-0.1-0.8c-0.1-0.1-0.1-0.3-0.2-0.3c-0.1-0.1-0.3-0.1-0.5-0.1v-0.3
		H101.5z"/>
	<path d="M108.5,114.1v2.7h1.7v0.8h-1.7v4.5c0,0.4,0,0.7,0.1,0.8s0.1,0.2,0.2,0.3s0.2,0.1,0.3,0.1c0.3,0,0.7-0.3,1-0.8l0.2,0.2
		c-0.4,1-1.1,1.5-2.1,1.5c-0.5,0-0.9-0.1-1.2-0.4s-0.5-0.5-0.6-0.9c-0.1-0.2-0.1-0.7-0.1-1.4v-3.9h-1v-0.3c0.7-0.5,1.2-1,1.7-1.5
		s0.9-1.1,1.2-1.7H108.5z"/>
	<path d="M115.6,116.6l0.1,2.5h-0.3c-0.3-0.7-0.6-1.2-1-1.5s-0.7-0.4-1-0.4c-0.2,0-0.4,0.1-0.5,0.2s-0.2,0.3-0.2,0.5
		c0,0.1,0.1,0.3,0.2,0.4c0.2,0.2,0.6,0.6,1.4,1.1s1.3,1,1.5,1.3s0.4,0.8,0.4,1.2c0,0.4-0.1,0.8-0.3,1.2s-0.5,0.7-0.9,0.9
		s-0.8,0.3-1.2,0.3c-0.3,0-0.8-0.1-1.4-0.3c-0.2-0.1-0.3-0.1-0.3-0.1c-0.2,0-0.3,0.1-0.4,0.4h-0.3l-0.1-2.6h0.3
		c0.2,0.7,0.6,1.2,1,1.5s0.8,0.5,1.2,0.5c0.2,0,0.5-0.1,0.6-0.2s0.2-0.3,0.2-0.6c0-0.2-0.1-0.5-0.2-0.6s-0.5-0.5-1-0.8
		c-0.8-0.6-1.3-1-1.5-1.3c-0.3-0.4-0.5-0.9-0.5-1.4c0-0.6,0.2-1.1,0.6-1.5s0.9-0.7,1.7-0.7c0.4,0,0.8,0.1,1.1,0.3
		c0.1,0.1,0.3,0.1,0.3,0.1c0.1,0,0.2,0,0.2-0.1s0.1-0.1,0.3-0.3H115.6z"/>
	<path d="M126.4,121.1h-3.7l-0.4,1c-0.1,0.3-0.2,0.6-0.2,0.9c0,0.3,0.1,0.5,0.4,0.7c0.1,0.1,0.5,0.1,1,0.2v0.3h-3.5v-0.3
		c0.4-0.1,0.7-0.2,0.9-0.5s0.5-0.8,0.9-1.6l3.8-8.5h0.1l3.8,8.7c0.4,0.8,0.7,1.3,0.9,1.6c0.2,0.2,0.4,0.3,0.8,0.3v0.3H126v-0.3h0.2
		c0.4,0,0.7-0.1,0.9-0.2c0.1-0.1,0.2-0.2,0.2-0.4c0-0.1,0-0.2,0-0.3c0,0-0.1-0.2-0.2-0.6L126.4,121.1z M126.1,120.5l-1.6-3.6
		l-1.6,3.6H126.1z"/>
	<path d="M134.8,116.8v0.9c0.4-0.4,0.7-0.7,1.1-0.9s0.7-0.3,1.1-0.3c0.5,0,0.9,0.1,1.2,0.4s0.5,0.6,0.6,1c0.1,0.3,0.1,0.9,0.1,1.7
		v2.8c0,0.6,0.1,0.9,0.2,1.1s0.3,0.2,0.6,0.3v0.3H136v-0.3c0.3,0,0.5-0.2,0.6-0.3c0.1-0.1,0.1-0.5,0.1-1v-3.2c0-0.6,0-1-0.1-1.1
		s-0.1-0.3-0.2-0.4s-0.2-0.1-0.4-0.1c-0.4,0-0.9,0.3-1.2,1v3.9c0,0.5,0.1,0.9,0.2,1s0.3,0.2,0.6,0.3v0.3h-3.7v-0.3
		c0.3,0,0.5-0.1,0.7-0.3c0.1-0.1,0.1-0.5,0.1-1v-4.1c0-0.6-0.1-0.9-0.2-1s-0.3-0.2-0.6-0.3v-0.3H134.8z"/>
	<path d="M143.6,114.1v2.7h1.7v0.8h-1.7v4.5c0,0.4,0,0.7,0.1,0.8s0.1,0.2,0.2,0.3s0.2,0.1,0.3,0.1c0.3,0,0.7-0.3,1-0.8l0.2,0.2
		c-0.4,1-1.1,1.5-2.1,1.5c-0.5,0-0.9-0.1-1.2-0.4s-0.5-0.5-0.6-0.9c-0.1-0.2-0.1-0.7-0.1-1.4v-3.9h-1v-0.3c0.7-0.5,1.2-1,1.7-1.5
		s0.9-1.1,1.2-1.7H143.6z"/>
	<path d="M148.9,116.8v5.8c0,0.5,0.1,0.8,0.2,1s0.4,0.2,0.7,0.2v0.3h-3.9v-0.3c0.3,0,0.6-0.1,0.7-0.3c0.1-0.1,0.2-0.4,0.2-1v-4.3
		c0-0.5-0.1-0.8-0.2-1s-0.4-0.2-0.7-0.2v-0.3H148.9z M147.8,113.2c0.3,0,0.6,0.1,0.9,0.4s0.4,0.5,0.4,0.9s-0.1,0.6-0.4,0.9
		s-0.5,0.4-0.9,0.4s-0.6-0.1-0.9-0.4s-0.4-0.5-0.4-0.9s0.1-0.6,0.4-0.9S147.5,113.2,147.8,113.2z"/>
	<path d="M154.9,121.2h-4.6v-1.6h4.6V121.2z"/>
	<path d="M155.5,124.1v-0.3h0.4c0.3,0,0.5,0,0.7-0.1s0.3-0.2,0.4-0.4c0-0.1,0.1-0.4,0.1-1v-7c0-0.5,0-0.9-0.1-1s-0.2-0.3-0.3-0.4
		s-0.4-0.2-0.7-0.2h-0.4v-0.3h4.7c1.3,0,2.3,0.2,3.1,0.5c0.9,0.4,1.7,1.1,2.1,1.9s0.7,1.8,0.7,2.9c0,0.7-0.1,1.4-0.4,2.1
		s-0.5,1.1-0.9,1.6s-0.8,0.7-1.3,1s-1.1,0.4-1.8,0.6c-0.3,0.1-0.8,0.1-1.5,0.1H155.5z M159.6,114.1v8.3c0,0.4,0,0.7,0.1,0.8
		s0.1,0.2,0.2,0.2c0.1,0.1,0.3,0.1,0.6,0.1c0.9,0,1.5-0.3,2-0.9c0.6-0.8,0.9-2,0.9-3.7c0-1.4-0.2-2.4-0.6-3.3
		c-0.3-0.6-0.8-1.1-1.3-1.3C161,114.2,160.4,114.1,159.6,114.1z"/>
	<path d="M170.8,116.6c0.6,0,1.2,0.2,1.8,0.5s1,0.8,1.2,1.4s0.4,1.3,0.4,2c0,1-0.3,1.9-0.8,2.6c-0.6,0.8-1.5,1.3-2.6,1.3
		c-1.1,0-1.9-0.4-2.5-1.2s-0.9-1.7-0.9-2.7c0-1,0.3-2,0.9-2.7S169.8,116.6,170.8,116.6z M170.9,117.1c-0.3,0-0.5,0.1-0.7,0.3
		s-0.3,0.6-0.4,1.2s-0.1,1.4-0.1,2.5c0,0.6,0,1.1,0.1,1.6c0.1,0.4,0.2,0.7,0.4,0.8s0.4,0.3,0.6,0.3c0.2,0,0.4-0.1,0.6-0.2
		c0.2-0.2,0.3-0.4,0.4-0.7c0.1-0.5,0.2-1.5,0.2-3c0-0.9,0-1.5-0.1-1.8s-0.2-0.6-0.4-0.7C171.3,117.2,171.1,117.1,170.9,117.1z"/>
	<path d="M178.2,123.3v2.7c0,0.4,0,0.6,0.1,0.8s0.2,0.2,0.3,0.3s0.4,0.1,0.7,0.1v0.3h-4.2v-0.3c0.3,0,0.6-0.1,0.7-0.3
		c0.1-0.1,0.2-0.4,0.2-0.9v-7.7c0-0.5-0.1-0.8-0.2-1s-0.4-0.2-0.7-0.2v-0.3h3.1v1c0.3-0.4,0.5-0.6,0.8-0.8c0.4-0.2,0.8-0.4,1.2-0.4
		c0.5,0,1,0.2,1.5,0.5s0.8,0.8,1,1.4s0.3,1.2,0.3,1.9c0,0.7-0.1,1.4-0.4,2s-0.6,1.1-1,1.4s-1,0.5-1.5,0.5c-0.4,0-0.8-0.1-1.1-0.3
		C178.8,123.9,178.5,123.7,178.2,123.3z M178.2,122.5c0.4,0.6,0.9,1,1.4,1c0.3,0,0.5-0.1,0.7-0.4c0.3-0.4,0.4-1.3,0.4-2.5
		c0-1.3-0.1-2.1-0.4-2.6c-0.2-0.3-0.5-0.5-0.8-0.5c-0.5,0-1,0.4-1.3,1.1V122.5z"/>
	<path d="M187.1,116.8v5.8c0,0.5,0.1,0.8,0.2,1s0.4,0.2,0.7,0.2v0.3h-3.9v-0.3c0.3,0,0.6-0.1,0.7-0.3c0.1-0.1,0.2-0.4,0.2-1v-4.3
		c0-0.5-0.1-0.8-0.2-1s-0.4-0.2-0.7-0.2v-0.3H187.1z M186.1,113.2c0.3,0,0.6,0.1,0.9,0.4s0.4,0.5,0.4,0.9s-0.1,0.6-0.4,0.9
		s-0.5,0.4-0.9,0.4s-0.6-0.1-0.9-0.4s-0.4-0.5-0.4-0.9s0.1-0.6,0.4-0.9S185.7,113.2,186.1,113.2z"/>
	<path d="M191.7,116.8v0.9c0.4-0.4,0.7-0.7,1.1-0.9s0.7-0.3,1.1-0.3c0.5,0,0.9,0.1,1.2,0.4s0.5,0.6,0.6,1c0.1,0.3,0.1,0.9,0.1,1.7
		v2.8c0,0.6,0.1,0.9,0.2,1.1s0.3,0.2,0.6,0.3v0.3h-3.7v-0.3c0.3,0,0.5-0.2,0.6-0.3c0.1-0.1,0.1-0.5,0.1-1v-3.2c0-0.6,0-1-0.1-1.1
		s-0.1-0.3-0.2-0.4s-0.2-0.1-0.4-0.1c-0.4,0-0.9,0.3-1.2,1v3.9c0,0.5,0.1,0.9,0.2,1s0.3,0.2,0.6,0.3v0.3h-3.7v-0.3
		c0.3,0,0.5-0.1,0.7-0.3c0.1-0.1,0.1-0.5,0.1-1v-4.1c0-0.6-0.1-0.9-0.2-1s-0.3-0.2-0.6-0.3v-0.3H191.7z"/>
	<path d="M202.3,116.9h2.5v0.9h-1.4c0.3,0.3,0.4,0.5,0.5,0.7c0.1,0.3,0.2,0.6,0.2,0.9c0,0.5-0.1,1-0.4,1.4s-0.7,0.7-1.2,0.9
		s-0.9,0.3-1.3,0.3c0,0-0.3,0-0.9,0c-0.2,0-0.4,0.1-0.6,0.2s-0.2,0.3-0.2,0.6c0,0.2,0.1,0.3,0.2,0.5s0.4,0.2,0.7,0.2l1.4,0
		c1.1,0,1.8,0.1,2.3,0.4c0.6,0.3,0.9,0.8,0.9,1.5c0,0.4-0.1,0.8-0.4,1.2s-0.6,0.6-1.1,0.8c-0.7,0.3-1.4,0.4-2.3,0.4
		c-0.7,0-1.3-0.1-1.8-0.2s-0.9-0.3-1.2-0.5s-0.4-0.5-0.4-0.7c0-0.2,0.1-0.5,0.3-0.6s0.5-0.4,1-0.5c-0.7-0.3-1-0.8-1-1.4
		c0-0.4,0.1-0.7,0.4-1s0.7-0.6,1.3-0.9c-0.7-0.3-1.2-0.6-1.5-1s-0.5-0.9-0.5-1.4c0-0.7,0.3-1.3,0.9-1.9s1.3-0.8,2.2-0.8
		C201.3,116.6,201.8,116.7,202.3,116.9z M200.5,125.2c-0.5,0-0.9,0-1.1,0.1c-0.3,0.2-0.4,0.4-0.4,0.7c0,0.3,0.2,0.5,0.5,0.7
		s0.9,0.3,1.7,0.3c0.7,0,1.3-0.1,1.7-0.3s0.6-0.5,0.6-0.8c0-0.1,0-0.2-0.1-0.3c-0.1-0.2-0.4-0.3-0.6-0.3S201.7,125.2,200.5,125.2z
		 M201,117c-0.3,0-0.6,0.2-0.8,0.5s-0.3,0.9-0.3,1.9c0,0.8,0.1,1.3,0.3,1.6s0.4,0.4,0.7,0.4c0.3,0,0.6-0.1,0.8-0.4s0.3-0.8,0.3-1.7
		c0-0.9-0.1-1.6-0.4-1.9C201.5,117.2,201.3,117,201,117z"/>
	<path d="M214.9,121.1h-3.7l-0.4,1c-0.1,0.3-0.2,0.6-0.2,0.9c0,0.3,0.1,0.5,0.4,0.7c0.1,0.1,0.5,0.1,1,0.2v0.3h-3.5v-0.3
		c0.4-0.1,0.7-0.2,0.9-0.5s0.5-0.8,0.9-1.6l3.8-8.5h0.1l3.8,8.7c0.4,0.8,0.7,1.3,0.9,1.6c0.2,0.2,0.4,0.3,0.8,0.3v0.3h-5.1v-0.3h0.2
		c0.4,0,0.7-0.1,0.9-0.2c0.1-0.1,0.2-0.2,0.2-0.4c0-0.1,0-0.2,0-0.3c0,0-0.1-0.2-0.2-0.6L214.9,121.1z M214.6,120.5l-1.6-3.6
		l-1.6,3.6H214.6z"/>
	<path d="M227.4,116.8v5.7c0,0.6,0.1,0.9,0.2,1s0.3,0.2,0.6,0.3v0.3h-3v-1c-0.3,0.4-0.7,0.7-1,0.9s-0.7,0.3-1.2,0.3
		c-0.4,0-0.8-0.1-1.1-0.4s-0.5-0.5-0.6-0.9s-0.2-0.9-0.2-1.8v-2.9c0-0.6-0.1-0.9-0.2-1s-0.3-0.2-0.6-0.3v-0.3h3v5c0,0.5,0,0.9,0.1,1
		s0.1,0.3,0.2,0.3s0.2,0.1,0.4,0.1c0.2,0,0.4,0,0.5-0.1c0.2-0.1,0.5-0.4,0.8-0.8v-3.9c0-0.6-0.1-0.9-0.2-1s-0.3-0.2-0.6-0.3v-0.3
		H227.4z"/>
	<path d="M232.1,114.1v2.7h1.7v0.8h-1.7v4.5c0,0.4,0,0.7,0.1,0.8s0.1,0.2,0.2,0.3s0.2,0.1,0.3,0.1c0.3,0,0.7-0.3,1-0.8l0.2,0.2
		c-0.4,1-1.1,1.5-2.1,1.5c-0.5,0-0.9-0.1-1.2-0.4s-0.5-0.5-0.6-0.9c-0.1-0.2-0.1-0.7-0.1-1.4v-3.9h-1v-0.3c0.7-0.5,1.2-1,1.7-1.5
		s0.9-1.1,1.2-1.7H232.1z"/>
	<path d="M237.5,113.5v4.2c0.4-0.4,0.8-0.7,1.1-0.9s0.7-0.3,1-0.3c0.5,0,0.9,0.1,1.2,0.4s0.5,0.6,0.6,0.9s0.2,0.9,0.2,1.8v2.9
		c0,0.6,0.1,0.9,0.2,1s0.3,0.2,0.6,0.3v0.3h-3.7v-0.3c0.3,0,0.5-0.1,0.6-0.3c0.1-0.1,0.1-0.5,0.1-1v-3.3c0-0.6,0-1-0.1-1.1
		s-0.1-0.3-0.2-0.4s-0.2-0.1-0.4-0.1c-0.2,0-0.4,0.1-0.6,0.2s-0.4,0.4-0.6,0.8v3.9c0,0.5,0,0.8,0.1,1c0.1,0.2,0.3,0.3,0.6,0.3v0.3
		h-3.7v-0.3c0.3,0,0.5-0.1,0.7-0.3c0.1-0.1,0.1-0.5,0.1-1v-7.4c0-0.6-0.1-0.9-0.2-1s-0.3-0.2-0.6-0.3v-0.3H237.5z"/>
	<path d="M246.9,116.6c0.6,0,1.2,0.2,1.8,0.5s1,0.8,1.2,1.4s0.4,1.3,0.4,2c0,1-0.3,1.9-0.8,2.6c-0.6,0.8-1.5,1.3-2.6,1.3
		c-1.1,0-1.9-0.4-2.5-1.2s-0.9-1.7-0.9-2.7c0-1,0.3-2,0.9-2.7S245.8,116.6,246.9,116.6z M246.9,117.1c-0.3,0-0.5,0.1-0.7,0.3
		s-0.3,0.6-0.4,1.2s-0.1,1.4-0.1,2.5c0,0.6,0,1.1,0.1,1.6c0.1,0.4,0.2,0.7,0.4,0.8s0.4,0.3,0.6,0.3c0.2,0,0.4-0.1,0.6-0.2
		c0.2-0.2,0.3-0.4,0.4-0.7c0.1-0.5,0.2-1.5,0.2-3c0-0.9,0-1.5-0.1-1.8s-0.2-0.6-0.4-0.7C247.3,117.2,247.1,117.1,246.9,117.1z"/>
	<path d="M254.5,116.8v1.7c0.5-0.8,0.9-1.3,1.3-1.5s0.7-0.4,1.1-0.4c0.3,0,0.5,0.1,0.7,0.3s0.3,0.4,0.3,0.8c0,0.3-0.1,0.6-0.3,0.8
		s-0.4,0.3-0.6,0.3c-0.3,0-0.5-0.1-0.7-0.3s-0.3-0.3-0.4-0.3c-0.1,0-0.1,0-0.2,0c-0.2,0-0.3,0.1-0.4,0.2c-0.2,0.2-0.4,0.4-0.5,0.8
		c-0.2,0.5-0.2,1.1-0.2,1.7v1.7l0,0.4c0,0.3,0,0.5,0.1,0.6c0.1,0.1,0.2,0.2,0.3,0.3s0.3,0.1,0.6,0.1v0.3h-3.9v-0.3
		c0.3,0,0.5-0.1,0.6-0.3s0.2-0.5,0.2-1.2v-4c0-0.4,0-0.7-0.1-0.8c-0.1-0.1-0.1-0.3-0.2-0.3s-0.3-0.1-0.5-0.1v-0.3H254.5z"/>
	<path d="M261.4,116.8v5.8c0,0.5,0.1,0.8,0.2,1s0.4,0.2,0.7,0.2v0.3h-3.9v-0.3c0.3,0,0.6-0.1,0.7-0.3c0.1-0.1,0.2-0.4,0.2-1v-4.3
		c0-0.5-0.1-0.8-0.2-1s-0.4-0.2-0.7-0.2v-0.3H261.4z M260.3,113.2c0.3,0,0.6,0.1,0.9,0.4s0.4,0.5,0.4,0.9s-0.1,0.6-0.4,0.9
		s-0.5,0.4-0.9,0.4s-0.6-0.1-0.9-0.4s-0.4-0.5-0.4-0.9s0.1-0.6,0.4-0.9S260,113.2,260.3,113.2z"/>
	<path d="M265.9,114.1v2.7h1.7v0.8h-1.7v4.5c0,0.4,0,0.7,0.1,0.8s0.1,0.2,0.2,0.3s0.2,0.1,0.3,0.1c0.3,0,0.7-0.3,1-0.8l0.2,0.2
		c-0.4,1-1.1,1.5-2.1,1.5c-0.5,0-0.9-0.1-1.2-0.4s-0.5-0.5-0.6-0.9c-0.1-0.2-0.1-0.7-0.1-1.4v-3.9h-1v-0.3c0.7-0.5,1.2-1,1.7-1.5
		s0.9-1.1,1.2-1.7H265.9z"/>
	<path d="M271.7,124.4l-2.4-5.4c-0.4-0.8-0.6-1.3-0.8-1.5s-0.4-0.3-0.6-0.4v-0.3h3.9v0.3c-0.3,0-0.4,0.1-0.5,0.1s-0.2,0.2-0.2,0.3
		c0,0.2,0.1,0.6,0.4,1.2l1.2,2.9l0.9-2.2c0.3-0.8,0.5-1.3,0.5-1.6c0-0.2-0.1-0.3-0.2-0.5s-0.4-0.2-0.7-0.2v-0.3h2.4v0.3
		c-0.2,0-0.4,0.1-0.6,0.3s-0.4,0.7-0.8,1.6l-2.1,5.4c-0.5,1.4-0.9,2.2-1.2,2.5c-0.4,0.4-0.8,0.7-1.4,0.7c-0.4,0-0.8-0.1-1.1-0.4
		s-0.4-0.5-0.4-0.9c0-0.3,0.1-0.6,0.3-0.8s0.4-0.3,0.7-0.3c0.3,0,0.5,0.1,0.6,0.2s0.2,0.4,0.2,0.8c0,0.2,0,0.3,0.1,0.4
		s0.1,0.1,0.2,0.1c0.1,0,0.3-0.1,0.4-0.2c0.2-0.2,0.5-0.7,0.7-1.5L271.7,124.4z"/>
</g>
</svg>
