<?xml version="1.0" encoding="utf-8"?>
<!-- Generator: Adobe Illustrator 19.1.0, SVG Export Plug-In . SVG Version: 6.00 Build 0)  -->
<svg version="1.1" id="Layer_1" xmlns="http://www.w3.org/2000/svg" xmlns:xlink="http://www.w3.org/1999/xlink" x="0px" y="0px"
	 viewBox="-99 0 400 200" style="enable-background:new -99 0 400 200;" xml:space="preserve">
<style type="text/css">
	.st0{fill:none;stroke:#000000;stroke-width:0.5;stroke-miterlimit:10;}
	.st1{font-family:'TimesNewRomanPS-BoldMT';}
	.st2{font-size:16px;}
</style>
<g>
	<line class="st0" x1="55.8" y1="107.6" x2="236.9" y2="107.6"/>
	<g>
		<g>
			<path d="M-7.2,117.2c-0.1,0.1-0.1,0.2-0.2,0.2"/>
			<path d="M-5.2,102.2c0.2,0,0.4-0.2,0.4-0.4c0-0.2-0.2-0.4-0.4-0.4c-0.2,0-0.4,0.2-0.4,0.4C-5.6,102-5.5,102.2-5.2,102.2
				L-5.2,102.2z"/>
			<path d="M13.4,85.2L13.4,85.2H-1.1l0,0l0,0v11.7c0,1.1,0.5,2.1,1.1,2.4l5.6,3.3c0.1,0.1,0.3,0.2,0.5,0.2s0.3-0.1,0.5-0.2l5.7-3.4
				c0.7-0.3,1.1-1.3,1.1-2.4L13.4,85.2L13.4,85.2L13.4,85.2z M3.7,88.6H2.4v-3h1.3V88.6L3.7,88.6z M2.8,89.6L3,89.4l-0.1-0.2h0.2
				L3.2,89l0.1,0.2h0.2l-0.1,0.2l0.2,0.2H3.4v0.2l-0.2-0.2L3,89.8v-0.2H2.8L2.8,89.6z M-0.7,93.4v-2.8h1.5v2.8H-0.7L-0.7,93.4z
				 M-0.4,89.2h0.2l0.1-0.2L0,89.2h0.2l-0.1,0.2l0.2,0.2H0.1v0.2l-0.2-0.2l-0.2,0.2v-0.2h-0.2l0.2-0.2L-0.4,89.2L-0.4,89.2z
				 M1.3,92.1h0.2l0.1-0.2l0.1,0.2h0.2l-0.1,0.2L2,92.5H1.8v0.2l-0.2-0.2l-0.2,0.2v-0.2H1.2l0.2-0.2L1.3,92.1L1.3,92.1z M2.3,89.8
				c0-0.1-0.1-0.1-0.2-0.1c-0.1,0-0.2,0.2-0.3,0.2s-0.1,0-0.1-0.1c0-0.1,0.2-0.1,0.2-0.2c-0.9,0-1,0.4-1.1,0.4
				c-0.2,0,0.2-0.5,0.3-0.6c-0.2,0-0.3-0.3-0.5-0.4c0.1-0.1,0.2-0.1,0.3,0c0-0.1,0.1-0.2,0.3-0.2c0.4,0,0.3,0.4,0.4,0.4
				c0.1,0,0-0.4,0.3-0.4c0.4,0,0.9,1.1,0.5,1.1C2.1,90,2.3,89.9,2.3,89.8L2.3,89.8z M1.2,86.7l0.2-0.2l-0.1-0.2h0.2l0.1-0.2l0.1,0.2
				h0.2l-0.1,0.2L2,86.7H1.8v0.2l-0.2-0.2l-0.2,0.2v-0.2H1.2L1.2,86.7z M0.8,85.6v3h-1.5v-3H0.8L0.8,85.6z M3.7,101.1L0.2,99
				c-0.6-0.4-0.9-1.1-0.9-1.9v-3.3h4.4V101.1L3.7,101.1z M2.5,93.4v-2.8h1.3v2.8H2.5L2.5,93.4z M8.2,101.3l-1.6,1l0,0
				c-0.1,0.1-0.3,0.1-0.4,0.1s-0.3-0.1-0.4-0.2l-1.6-1v-7.5h4.1L8.2,101.3L8.2,101.3z M8.2,93.4H4.1v-7.8h4.1V93.4L8.2,93.4z M13,97
				c-0.1,0.8-0.4,1.5-0.9,1.9L8.6,101v-7.3H13V97L13,97z M13,93.4H8.6v-7.8H13V93.4L13,93.4z"/>
			<path d="M3.5,96.4c0-0.1-0.5,0.2-0.4,0.2c0-0.2,0.3-0.5,0.4-0.6c0-0.2-0.3,0-0.5,0.1c0.8-1.2,0.3-0.7-0.2-0.6
				c0.7-0.8,0.5-0.8,0-0.5c0.4-0.3,0.5-0.7,0.5-0.9c-0.4,0.5-0.8,0.4-0.8,0.9c0,0.3-0.1,0.9-0.3,1c-0.2,0.2-0.1-0.9-0.6-0.9
				c-0.2,0-0.6,0-0.7,0.2c0.1,0,0.3,0.3,0.3,0.4c0,0.1,0.1,0.4-0.1,0.4c-0.2,0-0.4-0.4-0.4-0.6s0-0.1,0-0.4c0-0.5-0.8-1.1-1.1-1.1
				c0,0.3,0.4,0.4,0.4,0.8c-0.2,0-0.4-0.3-0.4-0.1s0.3,0.2,0.3,0.4c0,0.2-0.3-0.1-0.3,0.1s0.2,0.1,0.2,0.3c-0.1,0-0.2,0-0.3,0
				c0,0.1,0,0.1,0.1,0.2c0,0-0.1,0.1-0.1,0.4c0,0.9,0.6,1.4,1,1.4c0.3,0,0.3-0.2,0.3-0.3c0,0.2,0.2-0.1,0.2,0.2
				c0,0.3-0.3,0.2-0.3,0.4c0,0.3,0.5,0,0.5,0.4c0,0.4-0.1,0.4-0.1,0.6c0,0.1,0.5-0.2,0.5-0.2c0.1,0,0.1,0.4,0.3,0.4
				c0.1,0,0.2-0.4,0.3-0.4c-0.1,0,0.4,0.3,0.4,0.2c0-0.4-0.2-0.2-0.2-0.5s0.6-0.2,0.5-0.4c-0.1-0.1-0.1,0-0.2-0.2
				c0,0-0.5-0.7,0.1-0.3C3.4,97.8,3.5,96.5,3.5,96.4L3.5,96.4z"/>
			<path d="M18.9,99.5c0.3,0,0.5-0.2,0.5-0.4c0-0.2-0.2-0.4-0.5-0.4s-0.5,0.2-0.5,0.4C18.5,99.3,18.7,99.5,18.9,99.5L18.9,99.5z"/>
			<path d="M17,100.6c0.3,0,0.5-0.2,0.5-0.4c0-0.2-0.2-0.4-0.5-0.4s-0.5,0.2-0.5,0.4S16.8,100.6,17,100.6L17,100.6z"/>
			<path d="M-5.9,103.3c0.3,0,0.5-0.2,0.5-0.4c0-0.2-0.2-0.4-0.5-0.4s-0.5,0.2-0.5,0.4C-6.4,103.1-6.2,103.3-5.9,103.3L-5.9,103.3z"
				/>
			<path d="M-4.4,103.4c0.3,0,0.5-0.2,0.5-0.4s-0.2-0.4-0.5-0.4s-0.5,0.2-0.5,0.4C-4.9,103.2-4.7,103.4-4.4,103.4L-4.4,103.4z"/>
			<path d="M36.8,83.4c0.7,0.8,0.9,2.2,0.4,3.2c-0.3,0-0.2-0.4-0.3-0.6c-0.5-0.9-0.9-2.1-0.5-3.2C36.8,82.8,36.6,83.3,36.8,83.4
				L36.8,83.4z"/>
			<path d="M-23.7,84.6c-0.2,0.6-0.2,1.5,0,2c-0.1,0.1-0.1-0.1-0.2-0.1c-1-0.7-0.5-2.1-0.8-3.1c0.1-0.1,0.2-0.1,0.2-0.1
				C-24,83.6-23.8,84.1-23.7,84.6L-23.7,84.6z"/>
			<path d="M39,84.7c0.1,0.3-0.1,0.6-0.3,0.7c-0.2,0.1-0.5-0.1-0.6-0.3c-0.1-0.3,0.1-0.5,0.3-0.7C38.6,84.4,38.8,84.4,39,84.7
				L39,84.7z"/>
			<path d="M-25.2,85.8c-0.1,0.2-0.1,0.5-0.3,0.6c-0.2,0-0.4,0-0.5-0.1c-0.2-0.1-0.2-0.4-0.1-0.5c0.1-0.2,0.3-0.2,0.5-0.2
				C-25.5,85.5-25.3,85.6-25.2,85.8L-25.2,85.8z"/>
			<path d="M40,86.2c0.1,0.2,0.1,0.3,0,0.4c-0.2,0.2-0.4,0.3-0.7,0.2c-0.2-0.1-0.2-0.3-0.3-0.4c0.1-0.2,0.2-0.4,0.4-0.5
				C39.7,85.9,39.8,86.1,40,86.2L40,86.2z"/>
			<path d="M38.5,86.2c0.2,0.1,0.1,0.4,0,0.5C38.4,86.8,38.2,87,38,87c-0.1-0.1-0.3-0.1-0.3-0.3c0-0.3,0.1-0.5,0.4-0.6
				C38.3,86.1,38.4,86.1,38.5,86.2L38.5,86.2z"/>
			<path d="M36.7,86.6c0,0.3,0,0.6-0.3,0.7c-0.3,0.1-0.5-0.2-0.6-0.4c0-0.3,0.1-0.5,0.4-0.6C36.4,86.3,36.6,86.5,36.7,86.6
				L36.7,86.6z"/>
			<path d="M-22.5,86.7c0.1,0.3-0.2,0.4-0.3,0.5c-0.2,0.1-0.4-0.1-0.5-0.3c-0.2-0.2,0.1-0.3,0.1-0.5C-22.9,86.3-22.6,86.5-22.5,86.7
				L-22.5,86.7z"/>
			<path d="M-24,86.8c0,0.2-0.1,0.4-0.3,0.5c-0.2,0.1-0.4-0.1-0.5-0.2c-0.1-0.2,0-0.5,0.2-0.6C-24.3,86.4-24.1,86.6-24,86.8
				L-24,86.8z"/>
			<path d="M30.6,86.9c0.2,0.5,0.5,1.2,0.5,1.8c-0.1,0.5,0.1,1.1-0.3,1.5c-0.4-0.1-0.4-0.6-0.6-0.8c-0.5-0.9-0.1-1.9,0.1-2.8
				C30.5,86.5,30.5,86.8,30.6,86.9L30.6,86.9z"/>
			<path d="M-25.2,87.2c0.1,0.3-0.1,0.5-0.3,0.6c-0.3,0.1-0.5-0.2-0.6-0.4c0-0.2,0.1-0.5,0.3-0.6C-25.5,86.9-25.3,87-25.2,87.2
				L-25.2,87.2z"/>
			<path d="M34.6,88c0.3,0.7,0.4,1.6,0.1,2.4l-0.2,0.1c-0.4-0.7-0.9-1.3-1-2.1c0-0.5,0.1-1,0.3-1.5c0.2-0.1,0.3,0,0.4,0.2
				C34.2,87.5,34.3,87.8,34.6,88L34.6,88z"/>
			<path d="M37.8,87.5c0,0.3-0.1,0.5-0.4,0.6c-0.2,0.1-0.5,0-0.6-0.3c-0.1-0.3,0.1-0.5,0.3-0.6C37.4,87,37.6,87.3,37.8,87.5
				L37.8,87.5z"/>
			<path d="M-23.9,88.3c0,0.2-0.2,0.4-0.4,0.5c-0.2,0.2-0.4-0.1-0.5-0.2c-0.1-0.2-0.1-0.4,0-0.6s0.2-0.2,0.4-0.2
				C-24.2,87.9-24,88-23.9,88.3L-23.9,88.3z"/>
			<path d="M-22.8,88.2c0.1,0.2-0.2,0.4-0.3,0.5c-0.3,0.1-0.5-0.1-0.6-0.3c-0.1-0.3,0.1-0.4,0.3-0.6C-23.1,87.7-23,87.9-22.8,88.2
				L-22.8,88.2z"/>
			<path d="M38.5,88.1c0,0.3-0.5,0.7-0.6,1c-0.3,0.7-0.9,1.2-1.6,1.4c-0.1,0.1-0.4,0.3-0.6,0.3c-0.1-0.5,0.4-1,0.7-1.4
				C37,88.7,37.7,88.3,38.5,88.1L38.5,88.1z"/>
			<path d="M-24.4,89.2c0.4,0.4,0.6,0.8,1,1.2c0,0.1-0.1,0.3-0.2,0.3c-1.2-0.1-2.1-1.3-2.7-2.2c0.1-0.3,0.4-0.1,0.6-0.1
				C-25.3,88.6-24.8,88.7-24.4,89.2L-24.4,89.2z"/>
			<path d="M38.8,89.5c-0.1,1.1-0.6,2.2-1.6,2.7c-0.3,0.1-0.6,0.4-0.9,0.2c0.5-1.1,1.3-2,2.2-3h0.3V89.5z"/>
			<path d="M34,90.2c0.1,0.4-0.1,0.6-0.4,0.7c-0.3,0-0.5-0.2-0.6-0.4c0-0.2,0.1-0.5,0.4-0.6c0.1-0.1,0.2-0.1,0.3-0.1
				C33.8,90,33.8,90.1,34,90.2L34,90.2z"/>
			<path d="M-25.8,90.5c0.5,0.3,0.9,0.8,1.4,1.2c-0.3,0.2-0.7,0-1.1,0c-0.9-0.3-1.4-1-2.3-1.3c0-0.3,0.4-0.2,0.5-0.3
				C-26.8,90.1-26.4,90.3-25.8,90.5L-25.8,90.5z"/>
			<path d="M1.2,82.9c-1.4-0.6-2.4,0.9-3.8,0.7c-0.2,0.1-0.1,0.3-0.2,0.4c-0.1,0.1-0.2,0-0.3,0c-0.1-0.6-0.3-1.2-0.4-1.8
				c-0.1-0.2-0.1-0.6-0.2-0.9c-0.8-2.2,2-0.5,2.5-1.8c0.5-1.1-0.9-1.2-1.4-2v-0.3c-0.4-0.4-0.8-0.5-1.1-1.1c0.2-0.6,0.2-1.3,0.1-2
				c0-0.2-0.1-0.4-0.4-0.3c-0.5,0.7-0.8,1.2-1.3,1.8c-0.5-0.4-0.9-0.8-1.5-1.1c-0.4-0.1-0.7-0.4-1.2-0.3c-0.1,0.2,0,0.3,0.1,0.4
				c0,1,0.5,1.8,1.2,2.5l0.1,0.4c-0.5,1-0.3,2.2-0.5,3.4c-1.1,2.9-3,5.7-5.5,7.7c-1.4,1.6-3.2,3.2-3.4,5.4c-0.1,0.4,0.1,0.8-0.2,1
				c-0.8-0.3-1.7-0.7-2.4-1.2c-1.2-0.8-2.8-0.7-3.6-2.2c-0.3-0.6,0.1-1.2,0.4-1.6c0.9-0.8,0.7-2.3,0.3-3.3c-0.1,0-0.1,0.1-0.2,0.1
				c-0.1,1.5-1.3,2.5-0.8,4.2c0.1,0.5,0.4,0.8,0.5,1.2c-0.2-0.1-0.4-0.1-0.6-0.1c-0.6-0.1-1.1-0.3-1.7-0.2c-1.2,0.5-2.8-0.1-3.7,0.9
				c-0.2,0-0.4,0.1-0.3,0.3c0.6,0,1.1,0.2,1.6,0.1c0.9,0.2,1.5-0.6,2.1-0.9h0.2c0.2-0.3,0.7-0.1,1-0.2c1.6,0.2,2.8,0.9,4.1,1.7v0.1
				c-0.5,0.2-1.1,0.4-1.6,0.7c-0.6,0.4-1.2,1-1.4,1.7c-0.4,0.6,0.1,1.2,0.4,1.7c0,0.3,0.1,0.6,0.3,0.7c0.8-0.9,0.1-1.9,0.2-2.9
				c0.2-0.8,0.9-1.1,1.6-1.3c1.4-0.6,2.5,0.6,3.6,1.2c0,1.2,0.1,2.3-0.1,3.4c-0.4,0.1-0.8,0.2-1.2,0.2c-2,0.2-3.6,1.2-5.4,1.9
				c-0.8,0.3-1.8,0.3-2.6,0.6c0.6,0.2,1.3-0.1,1.9-0.1c2.5-0.4,4.4-2.3,7-1.9l0.1,0.1c-0.3,0.6-0.7,1.2-1.2,1.7
				c-0.1-0.3-0.1-0.5-0.4-0.7c-0.2-0.1-0.4,0-0.6,0.2c-0.1,0.1-0.1,0.3,0,0.4c0.1,0.2,0.3,0.3,0.5,0.4c-0.1,0.2-0.3,0.3-0.5,0.5
				c-0.7,1.2-2.2,0.7-3,1.6c-0.1,0.2-0.6,0.3-0.4,0.6c1,0.1,1.9-0.2,2.6-0.7c0.9-1,1.9-2,2.9-3c0.2,0.8-0.1,1.7-0.6,2.3
				c-0.2-0.1-0.4-0.3-0.7-0.4c-0.3,0.1-0.4,0.3-0.5,0.5c0.1,0.2,0.2,0.4,0.4,0.5c-0.9,0.6-1.9,0.7-2.9,0.9c-1.8,0.2-3.6,0.4-5.5,0.4
				c-0.9-0.1-1.9,0.3-2.7,0c-1,0.2-2-0.1-2.8,0.4c-0.1,0.1,0,0.3,0,0.4c1.2,0.8,2.8,0.2,4.1,0.4h10c0.7,0,1.5-0.1,2.1-0.4
				c1.3-0.7,2-2.1,2.7-3.4c0.2-0.5,0.4-1,0.5-1.5c0.2-0.9,1-1.5,1.9-1.6c0.1,1.3-0.1,2.6-0.4,3.9c-0.2,0.8-0.7,1.6-0.4,2.5
				c0.1,0.4,0.5,0.4,0.8,0.5c3.1-0.1,6.1-0.2,9.3,0.1c0.6,0.1,1.1,0.3,1.7,0.3c0.1-0.1,0.2-0.1,0.2-0.3c-0.1-0.3-0.3-0.6-0.6-0.7
				c-0.1-0.2-0.3-0.1-0.4-0.2c-1.6-0.9-3.6-0.4-5.5-0.4c-1,0.1-2,0.3-2.8-0.3c-0.4-0.5-0.1-1.9-0.1-1.9c0-0.6,1.4-4.6,1.6-4.9
				c0.1-0.4,0.2-0.7,0.2-1.2c0.7-0.5,0.7-1.1,0.7-1.7c0.1-0.8,0.5-1.6,0.8-2.4c0.1-0.4,0.3-0.8,0.4-1.2c0.2-0.5,0.2-0.9,0.5-1.3
				c0.8,0.5,1.6,0.5,2,1.4l0.4,2.1c0,0.1,0.1,0.4,0.3,0.2c0.7-0.4,0.5-1.4,0.5-2.1c0.1-0.8-0.4-1.2-0.6-1.9
				c-0.2-0.1-0.5-0.7-0.5-0.7c-0.1-0.6-1.3-0.9-1-1.6c0.2-0.6,0.3-1.1,0.9-1.5c0.1,0.1,0.1,0.1,0.1,0.2h0.2v-2.1
				c0.8,0,2,0.1,2.9,0.1c0.2,0.1,0.4,0.3,0.7,0.3l0.2-0.3l2-0.4C2.6,83.9,2,82.9,1.2,82.9L1.2,82.9z"/>
			<path d="M3.4,83.8c0.1,0,0.1,0,0.2,0H3.4L3.4,83.8z"/>
			<path d="M-18.6,90.9c0,0.3-0.2,0.5-0.4,0.6c-0.2-0.1-0.4-0.1-0.5-0.3c-0.1-0.3,0.2-0.5,0.4-0.6C-18.9,90.7-18.6,90.7-18.6,90.9
				L-18.6,90.9z"/>
			<path d="M-20.2,90.9c0.2,0.2,0.2,0.4,0.1,0.6c-0.2,0.2-0.5,0.3-0.6,0.1c-0.2-0.2-0.3-0.3-0.2-0.5C-20.7,90.9-20.4,90.7-20.2,90.9
				L-20.2,90.9z"/>
			<path d="M15,91.2L15,91.2"/>
			<path d="M34.2,91.6c0.1,0.3-0.1,0.5-0.3,0.6c-0.3-0.1-0.6-0.1-0.6-0.5c0-0.2,0.2-0.3,0.4-0.4C33.9,91.3,34.1,91.5,34.2,91.6
				L34.2,91.6z"/>
			<path d="M35.6,91.6c0.1,0.1,0.2,0.3,0.1,0.5c-0.1,0.1-0.2,0.1-0.2,0.2c-0.3,0.1-0.5-0.1-0.6-0.3c-0.1-0.3,0.2-0.4,0.4-0.5
				C35.3,91.4,35.4,91.5,35.6,91.6L35.6,91.6z"/>
			<path d="M-26.6,91.9c-0.1,0.3-0.4,0.4-0.7,0.3c-0.1-0.1-0.2-0.2-0.2-0.3c0-0.2,0.1-0.4,0.3-0.4C-26.9,91.5-26.6,91.6-26.6,91.9
				L-26.6,91.9z"/>
			<path d="M-18,92.3c0,0.2-0.3,0.4-0.4,0.5c-0.3,0-0.4-0.2-0.6-0.4c0-0.2,0.1-0.5,0.3-0.5C-18.4,91.8-18.1,92.1-18,92.3L-18,92.3z"
				/>
			<path d="M-19.5,92.2c0.1,0.1,0.2,0.3,0.1,0.4c-0.2,0.1-0.4,0.4-0.6,0.2c-0.2-0.1-0.3-0.2-0.3-0.5c0.1-0.1,0.2-0.3,0.4-0.3
				C-19.8,91.9-19.7,92.1-19.5,92.2L-19.5,92.2z"/>
			<path d="M39.4,92.5c0,0.2-0.2,0.4-0.3,0.5c-0.2,0.1-0.4,0-0.6-0.1c-0.1-0.1-0.1-0.3-0.1-0.4c0.1-0.2,0.3-0.3,0.5-0.3
				C39.2,92.2,39.3,92.3,39.4,92.5L39.4,92.5z"/>
			<path d="M41.1,92.7c-0.1,0.2-0.2,0.4-0.5,0.5c-0.2,0-0.4-0.1-0.4-0.3c0-0.2,0.1-0.4,0.2-0.4C40.7,92.3,41,92.4,41.1,92.7
				L41.1,92.7z"/>
			<path d="M-23.7,93c0.1,0.3-0.1,0.5-0.3,0.6c-0.2,0.1-0.4,0-0.5-0.1c-0.1-0.1-0.2-0.3-0.1-0.5s0.3-0.2,0.4-0.3
				C-23.9,92.8-23.8,92.9-23.7,93L-23.7,93z"/>
			<path d="M-22.4,93.3c0.1,0.2-0.2,0.3-0.2,0.4c-0.1,0.1-0.3,0.2-0.5,0.1c-0.2-0.2-0.4-0.4-0.2-0.6C-23.1,92.8-22.6,93-22.4,93.3
				L-22.4,93.3z"/>
			<path d="M37.9,93.2c0,0.2-0.2,0.4-0.4,0.6c-0.2,0.1-0.5-0.1-0.5-0.3s0.1-0.4,0.3-0.5C37.6,92.9,37.8,92.9,37.9,93.2L37.9,93.2z"
				/>
			<path d="M40,93.6c-0.1,0.2,0,0.5-0.3,0.6c-0.2,0.1-0.5,0-0.6-0.1C39,94,38.9,93.7,39,93.6c0.1-0.2,0.4-0.4,0.6-0.3
				C39.8,93.3,39.9,93.5,40,93.6L40,93.6z"/>
			<path d="M-24.6,94.1c0.1,0.2-0.1,0.3-0.2,0.4c-0.2,0.1-0.4,0-0.5-0.1c-0.2-0.1-0.1-0.4-0.1-0.5C-25.2,93.5-24.7,93.8-24.6,94.1
				L-24.6,94.1z"/>
			<path d="M38.4,94.6c0.1,0,0.1,0.2,0,0.2c-0.6,0.3-1.5,0.4-2-0.1c-0.3-0.3-0.7-0.4-1-0.6c0.1-0.3,0.6-0.3,0.9-0.4
				C37,93.9,37.6,94.6,38.4,94.6L38.4,94.6z"/>
			<path d="M-23.4,94.3c0.1,0.2-0.1,0.3-0.2,0.4c-0.1,0.2-0.3,0.1-0.4,0.1c-0.2-0.2-0.3-0.4-0.2-0.6C-23.9,93.9-23.6,94.1-23.4,94.3
				L-23.4,94.3z"/>
			<path d="M-21.2,94.5c0.1,0.2-0.1,0.4-0.2,0.6c-0.2,0.1-0.3-0.1-0.5-0.1c-0.1-0.2-0.4-0.4-0.1-0.6C-21.8,94-21.4,94.2-21.2,94.5
				L-21.2,94.5z"/>
			<path d="M8,95.6c-0.1,0.5-0.9-0.1-0.8,0.6c0.1,0.5,0.2,1.1,0.5,1.4c0.2,0.3,0.1,0.9,0.1,1.3c-0.2,0.4-0.6,0.6-1,0.8
				c-0.7-0.1-1.8,0.4-2.1-0.5c-0.1-0.4-0.4-0.8-0.4-1.2c0.1-0.1,0.2-0.1,0.2-0.1c0-0.2-0.2-0.3-0.2-0.4c0.8-0.1-0.3-0.9,0.4-0.9
				c0.6,0.6,1.5,0.4,2,1.1c0.1,0.1,0.2,0.2,0.4,0.3c-0.1-0.6-0.4-1.2-0.5-1.9c-0.1-0.3,0.1-0.7,0.3-0.8C7.4,94.8,7.8,95.3,8,95.6
				L8,95.6z"/>
			<path d="M-19,95.4c0.1,0.3-0.1,0.4-0.3,0.5c-0.2,0.1-0.4-0.2-0.5-0.3c-0.1-0.3,0.1-0.4,0.3-0.5C-19.3,95.2-19.1,95.2-19,95.4
				L-19,95.4z"/>
			<path d="M-3.4,95.7c0.3,1,0.2,2-0.3,2.9c0,0.2,0.1,0.5-0.2,0.5c-0.7-0.9-0.2-2.3,0.1-3.3C-3.8,95.5-3.4,95.4-3.4,95.7L-3.4,95.7z
				"/>
			<path d="M18.3,96.1c0.4,0.7,0.4,1.7,0.1,2.4l-0.2,0.2c-0.3-0.6-0.5-1.2-0.6-1.8c0.1-0.5,0.3-0.9,0.3-1.3
				C18.2,95.5,18.2,96,18.3,96.1L18.3,96.1z"/>
			<path d="M-17,96.4c-0.2,0.3-0.6,0.4-0.9,0.6c-0.6,0.5-1.5,0.6-2.2,0.4c0.7-0.9,1.7-1.5,2.9-1.2C-17.2,96.4-17,96.3-17,96.4
				L-17,96.4z"/>
			<path d="M-27.4,97.3c0.9,0.7,1.2,1.6,1.7,2.5c0.1,0.1,0.3,0.1,0.2,0.3c-0.2,0.2-0.4-0.2-0.7-0.1c-1-0.4-1.6-1.5-1.5-2.6
				C-27.6,97.3-27.5,97.3-27.4,97.3L-27.4,97.3z"/>
			<path d="M17.3,98.1c0,0.3,0,0.5-0.2,0.6c-0.3,0.1-0.5-0.1-0.6-0.3c-0.1-0.2,0.1-0.3,0.1-0.4C16.8,97.8,17.1,97.9,17.3,98.1
				L17.3,98.1z"/>
			<path d="M27.9,99.5c0-0.5,0.1-0.9,0.2-1.4c0.1-0.2,0.1-0.3,0.1-0.5c0.6-0.8,1.8-0.6,2.8-0.5c0.4,0.2,0.9,0.2,1.3,0.3
				c0.2-0.1,0.4-0.2,0.6-0.1c0.8-0.4,0.3-1.4,0.3-2.1l-0.3-0.8c-0.1-0.2-0.2-0.3-0.2-0.5c-0.1-0.2-0.2-0.5-0.4-0.7
				c-0.4-1.1-1.3-1.8-2-2.6C29,88.9,27,88,25,87.3s-4,0.2-5.8,0.8c-0.5-0.2-0.8-0.6-1-1.1c-0.1-1,0.1-1.9,0.5-2.7
				c0.1-0.6,0.5-1.1,0.7-1.7c0.5-1.4,0.9-2.8,1-4.4c0.1-0.9-0.7-1.6-1.4-2c-0.5-0.1-1-0.1-1.4,0.3c-0.3,0.7-1,1.2-1.6,1.5
				c-0.1,0.4,0.5,0.2,0.7,0.3c0.6,0.1,1.2-0.1,1.6,0.3c0.1,1-0.5,1.9-1.1,2.6c-0.9,1.3-1.8,2.6-2.3,4l-0.1-0.1l0.1,6.2
				c0.8,1.3,1.8,2.9,3.3,3.4c0.8,0.7,1.8,1.5,2.9,0.9c0.6-0.2,0.6,0.6,0.9,1c0.3,0.9-0.4,1.6-0.4,2.5l-0.7,1.4
				c-0.8,1.5-1.4,3.1-2.6,4.3c-0.4,0-0.6,0.4-1,0.4c-0.2,0.3-0.6,0.1-0.9,0.2c-0.8,0.3-1.9,0.1-2.4,0.9c0.1,0.1,0.1,0.1,0.2,0.1
				c1.5,0,3.3,0.1,4.9,0.1c0.2-0.1,0.4-0.3,0.4-0.5c-0.2-0.4,0.1-0.8,0.3-1.1c0.1-0.6,0.5-1,0.7-1.6c0.5-1,1.1-2.1,1.7-3.1l0.8-1.3
				c0.2-0.4,0.5-1,0.8-1.4c0.2-0.2,0.3-0.4,0.5-0.7c0-0.3-0.1-0.4-0.2-0.5c0.2-0.2,0.5-0.1,0.7-0.2c0.6,0.4,1.3,1,1.4,1.7l0.2,0.7
				l0.1,0.3l-0.1,0.8l0.1,0.8c0.1,1.2-0.1,2.5-0.2,3.7c-0.4,1.5-2.1,1.3-3.3,1.7c-0.3,0.2-0.9,0.1-0.9,0.6c1.5,0.3,3.2,0.1,4.7,0.1
				c0.2-0.1,0.3-0.3,0.4-0.6c0.1-0.3,0.4-0.6,0.3-1c-0.3-0.4,0-0.9-0.1-1.4c0.1-0.1,0.1-0.3,0-0.5c0.2-0.7,0.2-1.6,0.3-2.3
				L27.9,99.5L27.9,99.5z"/>
			<path d="M40.4,98.5c-0.8,1.1-1.7,2.4-3.1,2.9c-0.1,0-0.2,0.1-0.2-0.1c0.9-0.9,1.3-2.3,2.7-2.7C39.9,98.5,40.2,98.4,40.4,98.5
				L40.4,98.5z"/>
			<path d="M-28.6,99.7c-0.1,0.1,0,0.3-0.2,0.4c-0.2,0.1-0.4,0-0.5-0.2c-0.1-0.3,0.1-0.5,0.3-0.6C-28.9,99.4-28.7,99.5-28.6,99.7
				L-28.6,99.7z"/>
			<path d="M-21.3,100.1c0.1,0.2-0.2,0.2-0.3,0.3c-1.1,0.4-2.1,0-2.9-0.7c0-0.1,0-0.2,0.1-0.2C-23.4,99.7-22.2,99.5-21.3,100.1
				L-21.3,100.1z"/>
			<path d="M-27.2,99.8c0.1,0.1,0.1,0.3,0.1,0.4c-0.2,0.2-0.4,0.3-0.6,0.2c-0.2-0.1-0.2-0.2-0.3-0.3c0-0.3,0.2-0.4,0.4-0.5
				C-27.5,99.6-27.4,99.6-27.2,99.8L-27.2,99.8z"/>
			<path d="M-3.6,99.9c0.1,0.2-0.2,0.4-0.3,0.5c-0.2,0.1-0.4-0.1-0.5-0.2c-0.1-0.2,0-0.4,0.2-0.5C-4,99.6-3.6,99.7-3.6,99.9
				L-3.6,99.9z"/>
			<path d="M41.3,100c0.1,0.2-0.1,0.4-0.3,0.5c-0.2,0.1-0.3,0-0.5-0.1c0-0.1-0.2-0.2-0.1-0.4c0.1-0.2,0.3-0.3,0.6-0.3
				C41.1,99.8,41.2,99.9,41.3,100L41.3,100z"/>
			<path d="M43,99.9c0.2,0.2,0,0.4-0.1,0.6c-0.1,0.2-0.3,0.2-0.5,0.2c-0.2-0.2-0.4-0.2-0.4-0.5c0-0.2,0.2-0.4,0.4-0.4
				C42.7,99.6,42.8,99.9,43,99.9L43,99.9z"/>
			<path d="M-29.7,100.6c0,0.2-0.1,0.3-0.2,0.4c-0.1,0.1-0.2,0.2-0.4,0.1c-0.2-0.1-0.3-0.2-0.4-0.4c0.1-0.2,0.2-0.4,0.5-0.5
				C-30,100.3-29.8,100.4-29.7,100.6L-29.7,100.6z"/>
			<path d="M23.5,100.6c0.1,0.1,0,0.2,0,0.3c-0.2,0.2-0.4,0.4-0.6,0.2c-0.2-0.2-0.3-0.3-0.2-0.5C22.9,100.4,23.3,100.3,23.5,100.6
				L23.5,100.6z"/>
			<path d="M-25.6,101c-0.1,0.2-0.1,0.4-0.4,0.4s-0.3-0.2-0.4-0.3c0-0.2,0-0.5,0.2-0.6C-25.9,100.4-25.6,100.7-25.6,101L-25.6,101z"
				/>
			<path d="M-28,101.1c0.1,0.3-0.1,0.4-0.2,0.6c-0.3,0.1-0.6-0.1-0.7-0.4c0-0.2,0.2-0.5,0.5-0.6C-28.3,100.7-28.2,100.9-28,101.1
				L-28,101.1z"/>
			<path d="M25.2,101c0.1,0.2,0,0.5-0.3,0.6c-0.3,0.1-0.6-0.2-0.7-0.4c0.1-0.2,0.2-0.5,0.5-0.5C24.9,100.7,25.1,100.8,25.2,101
				L25.2,101z"/>
			<path d="M-26.9,101.1c0.1,0.2-0.1,0.3-0.1,0.4c-0.1,0-0.2,0.2-0.4,0.1c-0.1-0.1-0.3-0.2-0.3-0.4c0-0.3,0.2-0.4,0.3-0.5
				C-27.1,100.7-26.9,100.9-26.9,101.1L-26.9,101.1z"/>
			<path d="M39.9,101.3c-0.1,0.2-0.2,0.3-0.4,0.4c-0.2,0.1-0.3-0.1-0.5-0.2c-0.1-0.1-0.1-0.3,0-0.5
				C39.2,100.6,39.9,100.8,39.9,101.3L39.9,101.3z"/>
			<path d="M41.8,101.4c-0.1,0.3-0.4,0.4-0.6,0.4c-0.2-0.1-0.5-0.3-0.3-0.6c0.1-0.1,0.1-0.2,0.3-0.2
				C41.5,100.9,41.8,101.2,41.8,101.4L41.8,101.4z"/>
			<path d="M29.9,101.6c0.1,0.3-0.2,0.4-0.4,0.6c-0.2,0-0.3-0.1-0.5-0.2c-0.1-0.3,0.1-0.5,0.4-0.7C29.6,101.3,29.7,101.4,29.9,101.6
				L29.9,101.6z"/>
			<path d="M22.9,101.9c0.1,0.1,0.1,0.2,0.1,0.3c-0.2,0.1-0.4,0.4-0.6,0.2c-0.2-0.1-0.3-0.3-0.3-0.5
				C22.2,101.7,22.8,101.6,22.9,101.9L22.9,101.9z"/>
			<path d="M24.3,102.1c0,0.2,0,0.3-0.2,0.4c-0.2,0.2-0.4,0-0.6-0.1c-0.1-0.1-0.1-0.3,0-0.4c0.1-0.1,0.2-0.2,0.3-0.2
				C24,101.9,24.2,101.9,24.3,102.1L24.3,102.1z"/>
			<path d="M-18.6,102.1c0.2,0.2,0,0.3-0.1,0.5s-0.4,0.3-0.6,0.1c-0.2-0.1-0.2-0.4-0.2-0.6c0.2-0.1,0.2-0.2,0.4-0.2
				C-18.8,101.9-18.7,102-18.6,102.1L-18.6,102.1z"/>
			<path d="M32.6,102.2c0.1,0.3-0.2,0.4-0.4,0.4c-0.3,0.1-0.5-0.1-0.6-0.3c0-0.2,0.1-0.2,0.2-0.4C32.1,101.8,32.4,102,32.6,102.2
				L32.6,102.2z"/>
			<path d="M31.2,102.2c0.1,0.3-0.2,0.4-0.3,0.5c-0.2,0.1-0.4,0.1-0.6-0.1c-0.1-0.1-0.1-0.2-0.1-0.4c0.2-0.1,0.2-0.3,0.4-0.3
				C30.9,101.9,31.1,102,31.2,102.2L31.2,102.2z"/>
			<path d="M42.6,102.5c0.1,0.4-0.4,0.2-0.6,0.3c-1.1,0.6-2.4,0.2-3.4-0.2c0.1-0.3,0.5-0.2,0.7-0.3
				C40.3,101.5,41.4,102.4,42.6,102.5L42.6,102.5L42.6,102.5z"/>
			<path d="M-26.6,102.2l-0.1,0.2c-0.9,0.6-2.1,0.9-3.3,0.6l-0.1-0.2C-29.1,102.1-27.9,102-26.6,102.2L-26.6,102.2L-26.6,102.2z"/>
			<path d="M35.1,102.4c0,0.2-0.1,0.4-0.2,0.5c-0.2,0.1-0.6,0-0.7-0.3c-0.1-0.2,0.1-0.4,0.3-0.5C34.7,102.1,35,102.1,35.1,102.4
				L35.1,102.4z"/>
			<path d="M-22.1,102.5c-0.1,0.2-0.1,0.4-0.3,0.5c-0.2,0.1-0.6-0.1-0.6-0.3c-0.1-0.3,0.1-0.4,0.2-0.5
				C-22.4,102-22.2,102.3-22.1,102.5L-22.1,102.5z"/>
			<path d="M-23.8,102.6c0.1,0.2-0.1,0.3-0.1,0.4c-0.1,0.2-0.4,0.1-0.5,0.1c-0.2-0.2-0.4-0.3-0.3-0.6c0.2-0.1,0.2-0.2,0.4-0.3
				C-24.1,102.3-23.9,102.4-23.8,102.6L-23.8,102.6z"/>
			<path d="M36.9,103.2c0,0.2-0.2,0.4-0.4,0.5c-0.2,0-0.4-0.1-0.5-0.3c-0.1-0.2-0.1-0.4,0.1-0.5c0.1-0.1,0.2-0.1,0.3-0.1
				C36.7,102.8,36.9,103,36.9,103.2L36.9,103.2z"/>
			<path d="M-25.7,102.9c0.1,0.2-0.1,0.3-0.1,0.4c-0.1,0.4-0.4,0.7-0.5,1.1c-0.5,0.6-1.2,0.6-1.8,0.8l-0.1-0.2
				C-27.6,104.1-26.8,103.3-25.7,102.9L-25.7,102.9L-25.7,102.9z"/>
			<path d="M35.6,103.5c0.1,0.3-0.2,0.4-0.4,0.5c-0.2,0-0.4-0.1-0.5-0.3c-0.1-0.3,0.2-0.4,0.3-0.5C35.3,103.1,35.6,103.3,35.6,103.5
				L35.6,103.5z"/>
			<path d="M-22.8,103.5C-22.8,103.6-22.8,103.6-22.8,103.5c0.1,0.4-0.1,0.5-0.3,0.6c-0.2,0-0.4-0.1-0.6-0.2c-0.1-0.2,0-0.5,0.2-0.6
				C-23.2,103.2-22.9,103.2-22.8,103.5L-22.8,103.5z"/>
			<path d="M40.3,104.2c0.2,0,0.3-0.3,0.6-0.4c0.2-0.1,0.5,0.1,0.6,0.3c0.1,0.3-0.1,0.5-0.3,0.6c-0.2,0.1-0.6-0.2-0.5,0.2
				c0.2,0.1,0.3,0.3,0.4,0.5c-0.1,0.1-0.2,0.1-0.3,0c-0.7-0.3-1.5-0.8-1.8-1.6c-0.1-0.2-0.6-0.4-0.3-0.6
				C39.3,103.2,39.9,103.8,40.3,104.2L40.3,104.2z"/>
			<path d="M42.7,103.5c0.1,0.1,0.1,0.4,0,0.5c-0.1,0.3-0.5,0.2-0.7,0.1c-0.1-0.1-0.2-0.3-0.2-0.5c0.1-0.2,0.2-0.2,0.4-0.3
				C42.4,103.2,42.5,103.3,42.7,103.5L42.7,103.5z"/>
			<path d="M33.5,104.8c0.2,0.3,0.5,0.7,0.6,1c-0.1,0.1-0.2,0.1-0.2,0.1c-0.9-0.5-2-1-2.3-2c-0.1-0.1-0.3-0.2-0.2-0.4
				c0.7-0.1,1.3,0.4,1.7,0.7C33.2,104.4,33.4,104.6,33.5,104.8L33.5,104.8z"/>
			<path d="M-24.2,103.9c0.1,0.2-0.1,0.4-0.2,0.5c-0.3,0.1-0.4-0.1-0.6-0.2c-0.2-0.3,0.2-0.5,0.4-0.6
				C-24.5,103.5-24.4,103.7-24.2,103.9L-24.2,103.9z"/>
			<path d="M36.7,104.5c0,0.2-0.2,0.3-0.2,0.4c-0.2,0-0.4,0.1-0.6-0.1c-0.1-0.1-0.2-0.3,0-0.5C36.1,103.9,36.5,104.2,36.7,104.5
				L36.7,104.5z"/>
			<path d="M43,104.8c0.1,0.3-0.2,0.5-0.4,0.6c-0.2,0.1-0.5-0.1-0.6-0.2c-0.1-0.2,0-0.3,0-0.5c0.2-0.2,0.4-0.3,0.7-0.2
				C42.8,104.6,42.9,104.7,43,104.8L43,104.8z"/>
			<path d="M25.5,108.3c0,0.3-0.6,0.2-0.8,0.5c-0.8,0.4-1.7,0.4-2.7,0.4V109C23,108.2,24.3,108,25.5,108.3L25.5,108.3z"/>
			<path d="M-11.4,109.4c0,0.2-0.2,0.4-0.4,0.4c-0.2,0-0.4-0.1-0.4-0.2c-0.1-0.3,0.2-0.4,0.3-0.6C-11.6,109.1-11.4,109.2-11.4,109.4
				L-11.4,109.4z"/>
			<path d="M25.1,109.7c-0.1,0.2-0.1,0.5-0.4,0.6c-0.2,0.1-0.4-0.1-0.6-0.2c-0.1-0.1-0.1-0.3-0.1-0.4
				C24.2,109.2,24.9,109.2,25.1,109.7L25.1,109.7z"/>
			<path d="M30.1,109.8c-0.6,0.4-1.3,0.9-2.2,0.9h-1.4l-0.1-0.1c0.8-1,2.4-1,3.7-0.9L30.1,109.8L30.1,109.8z"/>
			<path d="M-18.3,110.4c0,0.2-0.1,0.4-0.3,0.5c-0.2,0.1-0.4-0.1-0.5-0.2c-0.1-0.2,0-0.5,0.2-0.6C-18.7,109.9-18.4,110.2-18.3,110.4
				L-18.3,110.4z"/>
			<path d="M-17,110.7c0.1,0.1-0.1,0.2-0.1,0.3c-0.1,0.1-0.4,0.1-0.5,0c-0.2-0.1-0.2-0.3-0.2-0.4c0.1-0.2,0.2-0.1,0.3-0.2
				C-17.3,110.4-17.1,110.5-17,110.7L-17,110.7z"/>
			<path d="M-26.7,113.2c-0.2,0.3-0.7-0.1-0.9-0.2c-0.9-0.5-0.9-1.5-1.7-2.1c0.1-0.3,0.3,0,0.5,0c0.2,0.1,0.4,0.2,0.5,0.3
				C-27.5,111.7-27.3,112.5-26.7,113.2L-26.7,113.2z"/>
			<path d="M47,103.4c-0.4-0.7-1.1-1-1.9-1c-0.7,0.1-1.1,0.5-1.4,1c-0.2,0.6,0.1,1.1,0.5,1.4c0.2,0.1,0.4,0.1,0.5-0.1
				c0.1-0.3-0.2-0.3-0.3-0.6c-0.1-0.4,0-0.7,0.3-0.9c0.2-0.3,0.7-0.1,1-0.1c0.3,0.2,0.6,0.4,0.8,0.7c0.2,0.4,0.2,0.9,0,1.3
				c-0.3,0.6-0.9,1.1-1.6,1.3c-2.1,0.3-25.1,0.2-25.1,0.2c-2.7,0.3-5.8-0.5-8.1,0.9c-1.1,0.5-1.6,1.7-1.9,2.7c-0.7,0.6-1.4,1.3-2,2
				l-0.1-0.1c0.1-0.6,0.4-1.2,0.5-1.8c0.4-0.5,0.4-1.2,0.7-1.8c1-1.6,1.9-3.1,3.4-4.2c0.6-0.8,1.7-0.7,2.7-0.7
				c1,0.5,2.2,0.6,3.5,0.5c0.1-0.1,0.1-0.1,0.1-0.2c-0.4-0.3-0.9-0.5-1.3-0.8c-1-0.5-2,0.2-3,0.1c-0.1-0.1-0.1-0.1-0.1-0.2
				c1-0.7,2.1-1.2,3.1-1.7c0.9-0.5,1.8-0.7,2.8-1.1c0.4,0,0.7-0.3,1.1-0.1l1.3-0.4c0.1,0,0.1,0.1,0.2,0.1c1.1-0.4,2.6,0,3.9-0.1
				l0.2,0.2l1.2,0.3c0.5,0.1,0.7,0.6,1.1,0.6c0.2-0.4-0.3-0.5-0.4-0.7c0.6-0.1,1.2,0,1.7,0.3l-0.2,0.3c-0.1,0.3,0.1,0.5,0.3,0.6
				c0.2,0.1,0.3-0.1,0.4-0.1c0.3-0.2,0-0.5,0.1-0.7c1.9,0.3,3.7,0.8,5.4,1.5c0.5,0.2,0.9,0.5,1.5,0.5c-0.5-0.5-1.3-0.7-1.9-1
				c-0.4-0.3-1-0.3-1.4-0.6c0.1-0.1,0.2-0.1,0.3-0.2c0.9-0.1,1.6-0.7,2.2-1.4c0.1-0.2,0.3-0.1,0.3-0.3c-0.2-0.3-0.6,0.1-0.9,0.1
				c-1.1,0.2-1.5,1.5-2.6,1.7c-1.3-0.3-2.6-0.6-3.9-0.9c-0.6-0.1-1.3-0.2-1.9-0.4l-1.4-0.1h-2.6c0-0.1-0.1-0.1-0.1-0.2
				c0.9-0.2,1.7-0.8,2.6-1l6.8-3.1c0.7-0.6,1.3-1.3,1.9-2.1c0-0.2-0.1-0.4-0.3-0.5c-0.2-0.1-0.4-0.1-0.5,0.1c-0.3,0.2,0,0.5,0,0.8
				c-0.3,0.4-0.8,0.8-1.2,1c-0.1,0-7,3.1-7,3.1c-1,0.4-2,0.9-3.1,1.1l-1.5,0.2c-0.1,0.3-0.4,0.5-0.6,0.6c-0.4,0.1-0.7,0.3-1.2,0.3
				c-3.3,1.3-6.7,2.6-9.3,5.2c0.2-0.3,0.2-0.7,0.2-1.1c-0.1-0.4,0-0.8-0.3-1.1c-0.1-0.1-0.2-0.5-0.2-0.7l-0.4,0.2
				c-0.2,0.6-0.4,1.6-0.2,2.2c0.1,0.5,0.5,1,0.1,1.4c-1.2,1.5-1.9,3.3-2.7,4.9c-0.3-0.1-0.5-0.3-0.6-0.6c0.9-1.1,1.5-2.3,1.8-3.7
				c0.2-0.1,0.1-0.5,0.2-0.6c-0.1-0.4,0.2-0.8,0-1.2c0.2-0.5-0.7-1.1-0.2-1.4l-0.5,0.2c-1.1,1.4,0.6,3.6-0.7,4.9v0.1
				c-0.4,0.5-0.5,0.9-1,1.2c-0.6-0.2-0.8-0.9-1.2-1.5c-0.6-0.5-0.6-1.6-0.2-2.4c0.2-0.7-0.2-1.4-0.2-2l-0.2-0.2
				c-0.6,0.8-0.8,2-0.4,3c0.2,0.5,0.3,1.1,0.7,1.5c0.2,0.7,0.7,1.2,1.1,1.9c0.1,0.3-0.2,0.3-0.3,0.4c-0.3-0.2-0.2-0.6-0.5-0.8
				c-0.8-1.8-1.9-3.2-3.2-4.7c-0.1-0.2-0.3-0.4-0.2-0.7c0.5-0.5,0.6-1.3,0.3-1.9c-0.1-0.1-0.2-0.3-0.2-0.4l-0.4-0.3
				c0.1,0.9-0.5,1.7-0.3,2.6v0.1c-2.6-2-5.5-3.7-8.4-5.1l-0.2,0.6c0.7,0.2,2.7,1.4,2.7,1.4c0.9,0.3,1.7,0.9,2.5,1.3
				c3.4,1.9,5.7,5.1,7.3,8.6c0,0.3,0.3,0.6,0.1,0.9c-0.5-0.8-1.3-1.3-1.9-1.9c-0.2-1.2-0.9-2.3-1.9-2.8c-0.4-0.6-1.2-0.6-1.8-0.8
				l-9.2-0.1c-7.5-0.1-14.3,0.2-21.7,0.1c-1-0.1-2.3-0.5-2.6-1.6c-0.2-0.4-0.2-1,0-1.4c0.3-0.5,0.8-0.6,1.3-0.7
				c0.4,0.1,0.7,0.4,0.9,0.7c0,0.3-0.3,0.6-0.4,0.9c0,0.1,0.1,0.3,0.3,0.2c0.3-0.1,0.6-0.5,0.7-0.8c0-0.2,0.1-0.4-0.1-0.6
				c-0.2-0.5-0.7-0.9-1.2-1c-0.6-0.1-1.3,0.1-1.7,0.6c-0.6,0.5-0.6,1.4-0.4,2.1c0.4,1.1,1.6,1.9,2.7,2.1l24.6,0.1
				c2.4,0.1,5.1-0.3,7.5,0.2c0.9,0.3,1.8,0.9,2.1,1.9c0,0.1-0.1,0-0.2,0c-2-1.3-4.6-1.8-7.2-1.5c-1-0.1-1.9,0.3-2.8,0.6
				c-0.5,0.1-0.9-0.1-1.2-0.4c-0.9-0.8-2.5-0.8-3.7-0.5c0,0.1,0,0.2,0,0.2c1.2-0.1,2,1,3.1,1.1c0.2,0.1,0.5-0.2,0.7,0
				c-1.2,0.6-2.3,1.2-3.5,1.6c-0.4-0.1-0.6-0.4-0.9-0.6c-0.5-0.5-1.4-0.3-2-0.4c-0.2,0.1-0.4-0.1-0.6,0c0.2,0.4,0.7,0.6,1.1,0.8
				c0.6,0.3,1.4,0,1.9,0.4c-0.2,0.2-0.4,0.2-0.5,0.4c-1.2,0.5-2.2,1.5-3.5,1.5c-1.4,0.2-2.8-0.3-3.7-1.2c-0.4-1-1.4-1.5-2.5-1.5
				c-0.1,0.1-0.2,0.1-0.2,0.2c0.6,0.3,1,1,1.5,1.4c0.4,0.4,1,0,1.4,0.5c0.5,0.3,1.1,0.6,1.6,0.7c0.4,0.2,0.9,0.3,1.3,0.4l-0.2,0.1
				c-2.3,0.8-5,0.8-7.5,0.7c-0.8,0-1.5-0.2-2.2-0.2c0.1,0.2,0.4,0.3,0.6,0.4c-0.2,0.1-0.4,0.2-0.7,0.2c-0.3,0.1-0.7,0.1-1,0.3
				c-0.4,0-0.8,0.1-1.1,0.2c-0.4,0.5-0.9,0.9-1.4,1.2c0,0.1,0,0.3,0.1,0.3c0.5-0.2,1.1-0.1,1.6-0.3c0.8-0.1,1.3-1,2-1.4
				c0.7-0.6,1.7-0.4,2.6-0.3c0.5,0.1-0.1,0.3,0.1,0.7c0.2,0.2,0.4,0.4,0.7,0.3c0.1-0.1,0.1-0.1,0.2-0.1c0.2-0.2,0.1-0.4,0-0.6
				c0.4-0.2,0.8,0,1.2-0.1c1,0,1.9-0.2,2.9-0.3c0.2,0,0.3-0.2,0.5,0c-0.1,0.2-0.3,0.2-0.2,0.5c0.1,0.2,0.3,0.3,0.5,0.4
				c0.2-0.1,0.5-0.3,0.4-0.6c-0.1-0.2-0.2-0.2-0.4-0.3c0.5-0.3,1.1-0.3,1.7-0.6c0.4-0.1,0.7-0.2,1.1-0.4c0.3,0,0.6-0.3,0.9-0.2
				c-0.1,0.4-0.3,0.8-0.5,1.2c-0.4,1.3-0.7,3.1,0,4.4c0.1,0,0.1,0,0.2-0.1c-0.5-1.3-0.2-2.9,0.2-4.2c0.4-2.2,2.6-2.8,4.2-3.6
				l0.1,0.1c-0.4,1.1-1.1,2.2-1,3.5c0.1,0.2-0.1,0.5,0,0.6c0.4-0.2,0.7-0.7,0.9-1.2c0.2-1.1-0.5-2.6,0.7-3.4c2.1-0.8,4-1.9,6.4-1.9
				c0.1,0.1,0.2-0.1,0.3,0.1c-0.5,0.6-1.2,1.1-1.5,1.8c-0.8,1.1-0.8,3-0.4,4.4c0.2,0.8-0.5,1.2-0.8,1.8c-0.2,0.2-0.2,0.6-0.3,0.8
				l0.5,0.1c0.4-0.5,0.8-1,0.9-1.7c0.1,0.3,0.3,0.5,0.5,0.5c0.2-0.3-0.2-0.5-0.2-0.8c0.4-0.2,0.6,0.3,0.9,0.4c0.5,0.1,1,0.4,1.5,0.4
				l0.2-0.2c-0.6-0.9-1.7-1-2.6-1.1c-0.5-0.8-0.5-1.9-0.5-2.9c0.1-0.5,0.2-1.1,0.5-1.6c0.1-0.4,0.5-0.7,0.7-1c0.5-0.4,1-0.7,1.6-0.9
				h0.1c0,0.1,0,0.1,0,0.1c-0.7,0.5-0.8,1.3-1.2,1.9c-0.4,0.6-0.6,1.5-0.2,2.2c0.2,0.3,0.1,0.8,0.4,1.1c0.3-0.5,0.4-1,0.5-1.6
				c-0.1-0.8-0.6-1.6-0.1-2.4c0.2-0.6,0.8-0.9,1.4-1.1c1.4-0.1,2.6,0.6,3.8,1.1c0.2,0.2,0.7,0.3,0.7,0.7c0,0.7-0.4,1.4-0.9,1.7
				c-0.7,0.4-1.7,0.5-2.3,0c-0.4-0.4-0.5-1-0.4-1.6c0.3-0.3,0.7-0.6,1.1-0.4c0.3,0.1,0.5,0.4,0.8,0.2c0.1-0.1,0.2-0.3,0.1-0.4
				c-0.3-0.2-0.4-0.5-0.8-0.6c-0.5-0.1-1.1-0.1-1.4,0.3c-0.5,0.5-0.7,1.2-0.6,1.8c0.2,0.8,0.8,1.4,1.6,1.6c1.2,0.3,2.4-0.1,3.1-1.1
				c0.3-0.3,0.4-0.7,0.6-1.1c1.2,0.7,2.1,2,2.6,3.4c0,0.4,0.1,0.9,0,1.3l0.9,0.1c-0.1-0.2,0-0.4,0.1-0.6c0.3-1.7,1.4-3.1,2.6-4.2
				c0.4-0.3,0.3,0.3,0.4,0.5c0.4,1,1.3,1.7,2.2,1.9c1.1,0.2,2.1-0.1,2.7-0.9c0.3-0.6,0.7-1.5,0.2-2.1c-0.4-0.4-0.8-0.7-1.4-0.7
				c-0.7,0-1.1,0.5-1.4,0.9c0,0.2,0,0.4,0.2,0.5c0.1,0,0.3,0,0.4-0.1c0.1-0.4,0.4-0.6,0.7-0.8s0.6,0,0.8,0.2c0.3,0.2,0.3,0.6,0.4,1
				c-0.1,0.5-0.4,1-0.8,1.2c-0.7,0.4-1.8,0.2-2.4-0.2c-0.3-0.3-0.5-0.7-0.7-1.1c-0.1-0.4-0.2-0.8,0-1.2c1.1-0.7,2.3-1.1,3.6-1.3
				c0.5,0.1,1,0.5,1.3,0.8c1.2,1.2-0.2,2.9,0.6,4.2c0.3-0.1,0.3-0.5,0.4-0.7c0.4-0.9-0.1-1.9-0.3-2.8c-0.3-0.6-0.5-1-1-1.5
				c0.1-0.1,0.2-0.1,0.3-0.1c0.5,0.4,1.1,0.8,1.5,1.3c0.7,1.2,1.1,2.6,1,4.2c-0.2,0.8-1,1.1-1.6,1.4c-0.2,0.2-0.6,0.5-0.7,0.8
				c0.3,0.2,0.7,0,1-0.1c0.5-0.2,0.8-0.8,1.1-1.1c0.1,0,0,0.1,0.1,0.2c0,0.3-0.1,0.7,0.1,0.7c0.1-0.4,0.2-0.9,0.2-1.3
				c0.3,0.4,0.4,0.8,0.5,1.3c0.2,0.5,0.6,1.1,1.2,1.1c0.2-0.2,0-0.5-0.1-0.7c-0.1-0.6-0.6-1-1-1.4c-0.9-1.2-0.5-3.1-1.2-4.5
				c-0.2-0.7-0.8-1.3-1.4-1.9l0.1-0.1c1.2,0,2.3,0.4,3.4,0.6c1.4,0.7,3.4,0.5,4.1,2.3c0.3,1,0.7,2,1.4,2.7l0.1-0.1
				c0.2-0.2,0.2-0.7,0-0.9c-0.2-1.3-1.3-1.6-1.8-2.6l0.1-0.1c0.6,0.2,1.2,0.3,1.8,0.6c2,0.6,3.4,2.5,3.7,4.6c0,1.6-0.3,3-0.9,4.4
				c-0.1,0.2-0.4,0.4-0.2,0.6c0.3-0.2,0.3-0.5,0.5-0.8c0.8-1.4,1.3-3.3,0.8-5.1c0-0.3-0.4-0.6-0.2-0.9c0.1,0.2,0.3,0.2,0.4,0.2
				c0.2-0.1,0.4-0.1,0.5-0.3c0-0.2,0.1-0.3,0-0.5c-0.2-0.2-0.5-0.2-0.7-0.2c-0.1,0.2-0.3,0.4-0.3,0.6c-0.2-0.4-0.5-1-0.9-1.3
				l0.1-0.1c1.1,0.4,2.2,0.9,3.3,1.2c0.2,0.2,0.5,0.3,0.9,0.3c1,0.4,2.1,0.5,3.1,0.8c0.8-0.1,1.4,0.3,2.1,0.1v-0.1l0,0
				c-0.3-0.4-0.9,0-1.2-0.3c-1.7-0.2-3.4-0.6-5-1.2c0-0.1,0.1-0.1,0.2-0.1c0.2-0.1,0.4-0.4,0.4-0.6c-0.1-0.2-0.3-0.3-0.6-0.3
				c-0.2,0.1-0.4,0.2-0.4,0.4s0.2,0.4,0.4,0.5c-0.1,0.1-0.2,0-0.2,0c-0.8-0.4-1.5-0.7-2.3-1c-0.3-0.1-0.5-0.3-0.8-0.3
				c-0.6-0.3-1.2-0.6-1.7-0.8c-1.6-0.8-3.4-1.3-5.1-1.9c-0.4-0.1-0.7-0.2-1.1-0.3c-0.6-0.2-1.3-0.3-1.9-0.5c-2.1-0.5-5-0.6-6.9,0.6
				c-0.3-0.1-0.5,0.4-0.6,0.1c0.5-1.4,2.1-1.9,3.5-1.9c10.1-0.1,19.6-0.2,29.6-0.3c1.2,0,2.3-0.4,2.9-1.5
				C47.2,105.1,47.3,104,47,103.4L47,103.4z M6.8,112.7c-0.1,0.3-0.3,0.6-0.3,0.9l-0.1,0.1c0.1-0.4-0.3-0.6-0.2-1
				c-0.2-0.3-0.2-0.7-0.4-1c-0.2-0.4,0.2-0.6,0.4-0.9c0.4,0.2,0.5,0.5,0.7,0.8C7.1,112,6.8,112.3,6.8,112.7L6.8,112.7z"/>
			<path d="M34.2,111.1c0,0.1,0.2,0.1,0.1,0.2c-0.9,0.8-2.1,1-3.4,1.1c-0.1,0-0.2,0.1-0.3,0.1c-0.1-0.1-0.1-0.1-0.1-0.2
				C31.4,111.3,32.8,110.8,34.2,111.1L34.2,111.1z"/>
			<path d="M30.1,111.6c0.1,0.4-0.1,0.6-0.4,0.7c-0.3,0-0.4-0.2-0.6-0.4c-0.1-0.2,0.1-0.3,0.2-0.4C29.5,111.2,30,111.2,30.1,111.6
				L30.1,111.6z"/>
			<path d="M-17.9,111.6c0.1,0.2,0,0.4-0.1,0.5c-0.1,0.1-0.3,0.2-0.5,0.1c-0.2,0-0.3-0.2-0.3-0.4s0.1-0.4,0.3-0.5
				C-18.3,111.4-18.1,111.4-17.9,111.6L-17.9,111.6z"/>
			<path d="M-22.4,113.3v0.2c-0.6,0.1-1.2,0-1.6-0.4c-0.4-0.5-0.8-1-1.3-1.3c0-0.1-0.2-0.2,0-0.2C-24.1,111.6-23.4,112.6-22.4,113.3
				L-22.4,113.3z"/>
			<path d="M38,111.6c-0.6,0.9-1.1,1.9-2.1,2.3c-0.2,0-0.3,0.3-0.5,0.1c0.4-1,1.3-2,2.2-2.4C37.8,111.6,37.9,111.5,38,111.6
				L38,111.6z"/>
			<path d="M-16.4,111.9c0,0.3-0.2,0.3-0.4,0.5c-0.2,0-0.3-0.1-0.4-0.3c-0.1-0.3,0.1-0.4,0.3-0.5C-16.8,111.6-16.5,111.7-16.4,111.9
				L-16.4,111.9z"/>
			<path d="M41.2,112c-0.2,0.3-0.1,0.8-0.4,1.2c-0.5,0.6-0.9,1.2-1.7,1.4c-0.1-0.2,0.2-0.5,0.3-0.7c0.4-0.8,0.9-1.6,1.7-2L41.2,112
				L41.2,112z"/>
			<path d="M-30.3,112.3c0.1,0.2,0.2,0.4,0,0.6c-0.1,0.1-0.4,0.2-0.6,0.1c-0.2-0.1-0.3-0.4-0.2-0.6C-30.9,112.1-30.4,112-30.3,112.3
				L-30.3,112.3z"/>
			<path d="M-31.7,112.6c0,0.1,0.1,0.2,0.1,0.4c-0.1,0.1-0.2,0.3-0.4,0.3c-0.3,0.1-0.5-0.1-0.6-0.3c0-0.2,0.1-0.4,0.2-0.5
				C-32.1,112.3-31.8,112.4-31.7,112.6L-31.7,112.6z"/>
			<path d="M-28.7,112.7c0.1,0.2,0.1,0.6-0.2,0.6c-0.4,0.2-0.6-0.1-0.8-0.3c0-0.2,0.1-0.4,0.3-0.5
				C-29.1,112.5-28.9,112.5-28.7,112.7L-28.7,112.7z"/>
			<path d="M-24.6,113.1c0,0.2,0,0.4-0.2,0.5c-0.1,0.1-0.4,0.1-0.5,0.1c-0.1-0.2-0.3-0.3-0.2-0.5c0.1-0.1,0.2-0.2,0.4-0.3
				C-24.9,112.9-24.7,112.8-24.6,113.1L-24.6,113.1z"/>
			<path d="M43.7,113.2c-0.1,0.2-0.2,0.4-0.4,0.4c-0.2,0-0.5-0.1-0.6-0.3c-0.1-0.3,0.1-0.4,0.3-0.5C43.3,112.8,43.6,113,43.7,113.2
				L43.7,113.2z"/>
			<path d="M39,113.4c0,0.2-0.2,0.4-0.3,0.4c-0.4,0.2-0.7-0.1-0.8-0.4c0.1-0.2,0.2-0.4,0.4-0.5C38.7,112.9,38.9,113.1,39,113.4
				L39,113.4z"/>
			<path d="M42.2,113.3c0,0.2-0.1,0.4-0.2,0.4c-0.2,0.1-0.5,0.1-0.6-0.1c-0.2-0.2-0.1-0.4,0.1-0.5C41.7,113,42.1,113,42.2,113.3
				L42.2,113.3z"/>
			<path d="M-30.9,113.7c0.1,0.3-0.1,0.5-0.3,0.6c-0.2,0-0.5-0.1-0.6-0.4c0-0.2,0.1-0.5,0.2-0.5C-31.3,113.4-31.1,113.6-30.9,113.7
				L-30.9,113.7z"/>
			<path d="M37.8,114c0.1,0.3-0.1,0.5-0.4,0.7c-0.2,0.1-0.3-0.1-0.5-0.2c-0.1-0.1-0.2-0.4,0-0.5C37.1,113.6,37.6,113.7,37.8,114
				L37.8,114z"/>
			<path d="M-17.3,114.3c0.1,0.3-0.2,0.3-0.3,0.5c-0.1,0.1-0.3,0.1-0.4,0c-0.1-0.2-0.3-0.3-0.2-0.5c0.1-0.1,0.2-0.2,0.3-0.2
				C-17.6,113.9-17.5,114.1-17.3,114.3L-17.3,114.3z"/>
			<path d="M43.2,114.5c0.1,0.2-0.1,0.3-0.1,0.4c-0.2,0.1-0.4,0.2-0.6,0.1c-0.2-0.1-0.2-0.3-0.2-0.6c0.1-0.1,0.2-0.2,0.4-0.3
				C42.8,114.1,43.1,114.2,43.2,114.5L43.2,114.5z"/>
			<path d="M41.6,114.6c0.1,0.3-0.2,0.5-0.4,0.5c-0.1,0-0.2-0.1-0.3,0.1c0.7,0.3,1.1,0.9,1.6,1.3v0.2c-0.9,0-1.8-0.2-2.5-1
				c-0.2-0.1-0.5-0.1-0.7-0.3c0.3-0.3,0.9-0.2,1.4-0.2c0.3-0.4-0.4-0.6,0.1-0.9c0.2,0,0.2-0.2,0.5-0.1
				C41.4,114.3,41.5,114.4,41.6,114.6L41.6,114.6z"/>
			<path d="M31.3,114.6c0.1,0.1-0.1,0.3-0.1,0.4c-0.2,0.2-0.4,0.2-0.6,0.1c-0.1-0.2-0.3-0.3-0.2-0.6
				C30.6,114.1,31.2,114.2,31.3,114.6L31.3,114.6z"/>
			<path d="M-25.2,115.5c-0.1,0.2-0.2,0.4-0.4,0.4c-0.2,0-0.4-0.1-0.5-0.3c0-0.2,0.1-0.3,0.1-0.4C-25.7,114.9-25.2,115.1-25.2,115.5
				L-25.2,115.5z"/>
			<path d="M-23.2,115.1c0,0.4-0.4,0.6-0.5,0.9c-0.4,0.8-1.1,1.6-2,1.7c-0.1-0.2,0.3-0.5,0.4-0.7c0.4-0.9,1.2-1.3,1.9-1.9H-23.2
				L-23.2,115.1z"/>
			<path d="M30.7,115.5c0,0.3-0.2,0.5-0.4,0.6c-0.2,0.1-0.4-0.1-0.5-0.2c-0.2-0.2-0.1-0.4,0-0.6C30.1,115,30.5,115.2,30.7,115.5
				L30.7,115.5z"/>
			<path d="M32.3,115.7c0,0.3-0.2,0.5-0.5,0.6c-0.1-0.1-0.2,0-0.2-0.1c-0.2-0.1-0.3-0.3-0.3-0.5c0.1-0.1,0.2-0.3,0.4-0.4
				C31.8,115.3,32.2,115.4,32.3,115.7L32.3,115.7z"/>
			<path d="M-19.2,115.6c0,0.3-0.2,0.4-0.4,0.5c-0.2,0-0.4-0.1-0.5-0.3s0.2-0.4,0.3-0.5C-19.5,115.3-19.4,115.5-19.2,115.6
				L-19.2,115.6z"/>
			<path d="M-17.5,115.7c-0.1,0.2-0.2,0.4-0.5,0.4c-0.2-0.1-0.4-0.1-0.5-0.3c0-0.3,0.2-0.4,0.4-0.5
				C-17.8,115.4-17.6,115.5-17.5,115.7L-17.5,115.7z"/>
			<path d="M37.7,117.5c0.1,0.1,0.4,0.2,0.3,0.4c-0.4,0.2-0.7-0.3-1.1-0.4c-0.6-0.6-1.1-1.3-1.3-2c0.2-0.2,0.5,0.1,0.7,0.1
				C36.8,116.2,37.4,116.8,37.7,117.5L37.7,117.5z"/>
			<path d="M38.6,115.7c0.1,0.2,0.1,0.4-0.1,0.6c-0.2,0.3-0.5,0.2-0.7,0.2c-0.1-0.2-0.4-0.4-0.2-0.6c0.1-0.2,0.3-0.3,0.5-0.3
				C38.3,115.5,38.4,115.7,38.6,115.7L38.6,115.7z"/>
			<path d="M-15.2,116.4c0,0.2,0.1,0.5-0.2,0.6c-0.2,0.1-0.5,0-0.6-0.3s0.1-0.4,0.3-0.5C-15.5,116.2-15.3,116.3-15.2,116.4
				L-15.2,116.4z"/>
			<path d="M32.2,118.1c0.4,0.5,0.6,1.1,0.7,1.8c-0.1,0.2,0.1,0.4,0,0.5h-0.2c-1.1-0.8-1.4-2-1.8-3.1c-0.1-0.1-0.1-0.2-0.1-0.3
				c0.2-0.2,0.4,0.2,0.7,0.3L32.2,118.1L32.2,118.1z"/>
			<path d="M-11.9,117.2C-11.9,117.2-11.9,117.3-11.9,117.2c-1,0.8-2.4,1.2-3.6,0.5c0-0.1,0-0.2,0.1-0.2c0.7-0.2,1.4-0.6,2.2-0.5
				L-11.9,117.2L-11.9,117.2z"/>
			<path d="M-17.7,117.3c-0.9,0.5-1.6,1.6-2.7,1.8c-0.2,0.1-0.3,0.4-0.6,0.2c0.5-1.4,1.9-2.1,3.3-2.2L-17.7,117.3L-17.7,117.3z"/>
			<path d="M30.7,118.5c0.1,0.2,0,0.5-0.2,0.5c-0.1,0.1-0.4,0.1-0.5,0c-0.2-0.1-0.2-0.3-0.2-0.5c0.1-0.2,0.2-0.2,0.4-0.3
				C30.4,118.3,30.6,118.3,30.7,118.5L30.7,118.5z"/>
			<path d="M28.6,118.6c-0.2,0.4-0.6,0.6-0.9,0.7c-0.9,0.3-1.6-0.1-2.4-0.3c0-0.2,0.3-0.1,0.4-0.2c0.8-0.2,1.7-0.4,2.6-0.1
				C28.3,118.5,28.5,118.5,28.6,118.6L28.6,118.6z"/>
			<path d="M-17.7,119.3c-0.1,0.1-0.1,0.3-0.3,0.4c-0.2,0.1-0.4,0-0.5-0.1c-0.1-0.2-0.2-0.3-0.1-0.5s0.2-0.2,0.4-0.3
				C-17.9,118.9-17.7,119.1-17.7,119.3L-17.7,119.3z"/>
			<path d="M-16.2,119.6c-0.1,0.2-0.2,0.4-0.4,0.5c-0.2,0.1-0.4-0.1-0.5-0.2c-0.1-0.2-0.2-0.3-0.1-0.5c0.1-0.1,0.2-0.2,0.4-0.2
				C-16.5,119.1-16.3,119.4-16.2,119.6L-16.2,119.6z"/>
			<path d="M30.2,119.8c0,0.2-0.1,0.3-0.2,0.5s-0.4,0.2-0.6,0.1c-0.2,0-0.2-0.2-0.3-0.4c-0.2-0.2,0.1-0.3,0.2-0.5
				C29.6,119.3,30.1,119.4,30.2,119.8L30.2,119.8z"/>
			<path d="M31.3,119.8c0,0.1,0.1,0.2,0.1,0.4c-0.2,0.1-0.2,0.5-0.6,0.3c-0.1,0.1-0.2-0.2-0.3-0.2c-0.1-0.3,0-0.6,0.3-0.7
				C31,119.5,31.2,119.7,31.3,119.8L31.3,119.8z"/>
			<path d="M-17.1,120.5c0.1,0.3-0.1,0.5-0.2,0.7c-0.3,0.1-0.6,0.1-0.7-0.3c0-0.2,0-0.6,0.3-0.7C-17.5,120.2-17.2,120.2-17.1,120.5
				L-17.1,120.5z"/>
			<path d="M-15.6,120.4c-0.1,0.7-0.2,1.6-0.9,2c-0.4,0.1-0.8,0.5-1.2,0.2v-0.1C-17.2,121.7-16.3,121.1-15.6,120.4L-15.6,120.4z"/>
			<path d="M26.2,121c0.1,0.2-0.1,0.3-0.1,0.4c-0.1,0.2-0.4,0.1-0.6,0c-0.2-0.1-0.2-0.3-0.1-0.5c0.1-0.2,0.2-0.2,0.3-0.3
				C25.9,120.6,26.1,120.8,26.2,121L26.2,121z"/>
			<path d="M-13.1,122.2c0.4,0.6,0.2,1.4,0.4,2c-0.4,0.1-0.6-0.4-0.9-0.7c-0.6-0.8-0.5-1.8-0.7-2.7c0.1-0.1,0.1-0.1,0.2-0.1
				c0.4,0.2,0.7,0.7,1,1.1C-13.3,122-13.1,122-13.1,122.2L-13.1,122.2z"/>
			<path d="M27.5,121.2c0,0.2-0.2,0.3-0.4,0.4c-0.2,0-0.3-0.1-0.5-0.2c-0.1-0.2,0.1-0.3,0.2-0.5C27.2,120.8,27.4,120.9,27.5,121.2
				L27.5,121.2z"/>
			<path d="M30.5,123.5c0,0.1,0,0.2-0.2,0.2h-0.1c-0.7-0.7-1.5-1.4-1.4-2.4H29C29.7,121.8,30.5,122.4,30.5,123.5L30.5,123.5z"/>
			<path d="M28.6,122.6c0,0.2-0.1,0.4-0.2,0.5c-0.3,0.1-0.7,0.1-0.8-0.3c0-0.3,0.3-0.4,0.4-0.5C28.3,122.2,28.5,122.4,28.6,122.6
				L28.6,122.6z"/>
			<path d="M26.9,123.2c-0.4,0.9-1.3,1.4-2,2.1c-0.1-0.1-0.1-0.3-0.1-0.4c0.2-1,1-1.9,1.9-2.3C27.3,122.7,26.9,123,26.9,123.2
				L26.9,123.2z"/>
			<path d="M28.8,123.9c0,0.2-0.2,0.3-0.4,0.5c-0.2,0-0.4-0.1-0.6-0.3c0-0.3,0.2-0.3,0.3-0.5C28.5,123.6,28.7,123.7,28.8,123.9
				L28.8,123.9z"/>
			<path d="M10,77.7c0.3,0,0.6,0.3,0.6,0.6c0,0.3-0.3,0.6-0.6,0.6H2.5c-0.3,0-0.6-0.3-0.6-0.6c0-0.3,0.3-0.6,0.6-0.6H10L10,77.7z
				 M4.7,78.8c0.7,0,0-0.9-0.4-0.9H3.7c-0.7,0,0,0.9,0.4,0.9H4.7L4.7,78.8z M7.8,78.8c0.7,0,0-0.9-0.4-0.9H6.7c-0.7,0,0,0.9,0.4,0.9
				H7.8L7.8,78.8z M10.1,77.9H9.8c-0.7,0-0.1,0.9,0.3,0.9C10.6,78.8,10.6,77.9,10.1,77.9L10.1,77.9z"/>
			<path d="M9.4,86.3l1.4,0.5l1.4-0.5l-0.6,2.1l1.1-0.2l-0.4,1.3l0.4,1.2l-1-0.3l0.4,2.3l-1.4-0.5l-1.4,0.5l0.6-2.3l-1.1,0.3
				l0.3-1.3l-0.3-1.2l1.1,0.2L9.4,86.3L9.4,86.3z M11.5,90.1c0.3,0,0.4-0.4,0.4-0.8c0-0.9-0.7,0-1-0.8c-0.3,0.7-1,0.1-1,0.8
				c0,0.5,0,0.8,0.5,0.8H11.5L11.5,90.1z M10.1,89.4c0,0.3,0.4,0.1,0.8,0.1c0.3,0,0.8,0.2,0.8-0.1c0-0.5-0.4-0.3-0.8-0.3
				C10.5,89,10.1,88.9,10.1,89.4L10.1,89.4z"/>
			<polygon points="6,89.4 6,89.2 5.8,89.1 6,88.9 5.9,88.7 6.1,88.7 6.3,88.5 6.4,88.7 6.6,88.7 6.5,88.9 6.7,89.1 6.5,89.2 
				6.5,89.4 6.3,89.3 			"/>
			<polygon points="4.9,90.9 4.9,90.6 4.7,90.5 4.9,90.4 4.8,90.1 5,90.2 5.1,89.9 5.3,90.2 5.5,90.1 5.4,90.4 5.6,90.5 5.4,90.6 
				5.4,90.9 5.1,90.7 			"/>
			<polygon points="6.8,90.7 6.8,90.4 6.6,90.4 6.8,90.2 6.6,90 6.9,90 7,89.7 7.2,90 7.4,90 7.3,90.2 7.5,90.4 7.3,90.4 7.3,90.7 
				7,90.5 			"/>
			<polygon points="7,91.8 7,91.6 6.9,91.6 7,91.5 6.9,91.3 7.1,91.4 7.2,91.2 7.2,91.4 7.4,91.3 7.3,91.5 7.4,91.6 7.3,91.6 
				7.3,91.8 7.2,91.7 			"/>
			<polygon points="5.3,93 5.3,92.5 4.9,92.4 5.2,92.1 5,91.7 5.4,91.8 5.7,91.3 5.9,91.8 6.3,91.7 6.1,92.1 6.5,92.4 6.1,92.5 
				6.1,93 5.7,92.7 			"/>
			<polygon points="6.2,69 7.1,71.2 9.3,70.5 8.2,72.6 10.1,73.9 7.8,74.3 7.9,76.7 6.2,75.1 4.4,76.7 4.6,74.3 2.2,73.9 4.2,72.6 
				3,70.5 5.3,71.2 			"/>
			<path d="M-2,118c-0.3,0.1-0.4,0.2-0.3,0.5l0.3,1.3c0.1,0.2,0.1,0.6-0.1,0.9c-0.2,0.3-0.6,0.5-0.9,0.5c-0.2,0.1-0.7,0.1-1.1,0
				c-0.2-0.1-0.4-0.2-0.5-0.7l-0.3-1.4c-0.1-0.4-0.2-0.3-0.5-0.3v-0.1l1.7-0.4v0.1c-0.3,0.1-0.5,0.1-0.4,0.5l0.3,1.4
				c0.1,0.2,0.2,0.8,0.9,0.6c0.9-0.2,0.7-0.9,0.7-1.1l-0.3-1.3c-0.1-0.3-0.2-0.4-0.6-0.3v-0.1l1.1-0.3L-2,118L-2,118z"/>
			<path d="M0.5,118.3c-0.2-0.3-0.6-0.7-1.2-0.6c-0.3,0.1-0.5,0.2-0.4,0.5c0.1,0.2,0.2,0.3,0.6,0.4l0.8,0.1c0.2,0,0.6,0.2,0.7,0.7
				c0.1,0.4-0.1,1-1.1,1.2c-0.5,0.1-0.7,0-0.9,0.1c-0.1,0-0.1,0.1-0.1,0.2h-0.1l-0.2-1h0.1c0.2,0.4,0.6,0.8,1.2,0.7
				c0.6-0.1,0.5-0.6,0.5-0.6c-0.1-0.3-0.3-0.3-0.7-0.4l-0.4-0.1c-0.9-0.2-1-0.5-1.1-0.7c-0.1-0.3,0-0.9,0.9-1.1c0.4-0.1,0.7,0,0.8,0
				s0.1-0.1,0.1-0.2h0.2l0.2,0.9L0.5,118.3L0.5,118.3z"/>
			<path d="M3.9,120l-1.8,0.2v-0.1c0.4-0.1,0.5-0.1,0.5-0.4l-0.2-2.3c-0.4,0.1-0.9,0.1-0.9,0.8H1.4l-0.1-0.9l3.1-0.3l0.1,0.9H4.4
				c-0.2-0.7-0.7-0.7-1.1-0.6l0.2,2.3c0,0.4,0.2,0.4,0.5,0.4H3.9L3.9,120z"/>
			<path d="M8.1,120H7l-1-1.4H5.9v0.8c0,0.3,0.1,0.4,0.4,0.4v0.1H4.6v-0.1c0.4,0,0.5,0,0.5-0.4v-1.9c0-0.4-0.2-0.4-0.4-0.4V117h1.7
				c0.4,0,1.5,0.1,1.4,0.8c0,0.5-0.5,0.7-0.8,0.7l1,1.3c0.1,0.1,0.1,0.1,0.2,0.1L8.1,120L8.1,120z M5.9,118.5c0.7,0,0.9-0.1,1-0.6
				c0-0.4-0.2-0.6-0.6-0.6c-0.3,0-0.3,0-0.3,0.2L5.9,118.5L5.9,118.5z"/>
			<path d="M11.5,120.4l-1.7-0.2v-0.1c0.3,0,0.4,0,0.4-0.1c0-0.1-0.1-0.5-0.2-0.6l-1.2-0.1c-0.2,0.3-0.3,0.5-0.3,0.5
				c0,0.2,0.2,0.2,0.4,0.2v0.1l-1-0.1v-0.1c0.3,0,0.4-0.1,0.6-0.4l1.4-2.2H10l0.9,2.4C11.2,120.2,11.3,120.3,11.5,120.4L11.5,120.4
				L11.5,120.4z M10.1,119.2l-0.4-1.1l-0.6,1L10.1,119.2L10.1,119.2z"/>
			<path d="M14.5,121l-2.9-0.5v-0.1c0.3,0,0.4,0,0.5-0.2l0.4-2.1c0.1-0.3-0.2-0.3-0.4-0.4v-0.1l1.8,0.3v0.1
				c-0.4-0.1-0.5-0.1-0.6,0.3l-0.4,2c0,0.2,0.1,0.3,0.4,0.3c0.8,0.1,1.1-0.2,1.4-0.6h0.1L14.5,121L14.5,121z"/>
			<path d="M16.5,121.5l-1.8-0.4V121c0.3,0,0.5,0.1,0.5-0.2l0.4-2.1c0.1-0.3-0.2-0.3-0.4-0.4v-0.1l1.8,0.4v0.1
				c-0.2,0-0.5-0.1-0.5,0.2l-0.4,2.1c-0.1,0.3,0.1,0.3,0.4,0.4V121.5L16.5,121.5z"/>
			<path d="M20.1,121.9l-1.7-0.2v-0.1c0.3,0,0.4,0,0.4-0.1c0-0.1-0.1-0.5-0.2-0.6l-1.2-0.1c-0.2,0.3-0.3,0.5-0.3,0.5
				c0,0.2,0.2,0.2,0.4,0.2v0.1l-1-0.1v-0.1c0.3,0,0.4-0.1,0.5-0.5l1.4-2.2h0.1l0.9,2.4c0.2,0.5,0.2,0.6,0.5,0.7L20.1,121.9
				L20.1,121.9z M18.6,120.8l-0.4-1.1l-0.6,1L18.6,120.8L18.6,120.8z"/>
			<path d="M6.9,87c0-1-0.6-0.1-0.9-0.9c-0.2,0.7-0.9,0.1-0.9,0.9c0,0.3,0.1,0.5,0.2,0.6v0.3C5.3,88,5.4,88,5.4,88h1.1
				c0.1,0,0.1-0.1,0.1-0.1v-0.3C6.8,87.5,6.9,87.3,6.9,87L6.9,87z M6,87.2c-0.3,0-0.7,0.2-0.7-0.1c0-0.5,0.3-0.4,0.7-0.4
				c0.3,0,0.8-0.1,0.8,0.4C6.7,87.4,6.3,87.2,6,87.2L6,87.2z"/>
			<path d="M15.9,99.8c0.3,0,0.5-0.2,0.5-0.4c0-0.2-0.2-0.4-0.5-0.4s-0.5,0.2-0.5,0.4C15.4,99.6,15.7,99.8,15.9,99.8L15.9,99.8z"/>
			<path d="M13.7,84.4l-0.2,0.4c0,0.1,0.1,0.2,0.2,0.2s0.2-0.1,0.2-0.2L13.7,84.4L13.7,84.4z"/>
			<path d="M-1.6,84.4l-0.2,0.4c0,0.1,0.1,0.2,0.2,0.2c0.1,0,0.2-0.1,0.2-0.2L-1.6,84.4L-1.6,84.4z"/>
			<path d="M2.2,84.4L2,84.8C2,84.9,2.1,85,2.2,85s0.2-0.1,0.2-0.2C2.5,84.8,2.2,84.4,2.2,84.4L2.2,84.4z"/>
			<path d="M6,84.4l-0.2,0.4C5.8,84.9,5.9,85,6,85s0.2-0.1,0.2-0.2C6.3,84.8,6,84.4,6,84.4L6,84.4z"/>
			<path d="M9.9,84.4l-0.2,0.4c0,0.1,0.1,0.2,0.2,0.2c0.1,0,0.2-0.1,0.2-0.2L9.9,84.4L9.9,84.4z"/>
			<path d="M-1.6,89.6l0.2,0.4c0,0.1-0.1,0.2-0.2,0.2s-0.2-0.1-0.2-0.2C-1.8,90.1-1.6,89.6-1.6,89.6L-1.6,89.6z"/>
			<path d="M-1.6,94.7l0.2,0.4c0,0.1-0.1,0.2-0.2,0.2s-0.2-0.1-0.2-0.2C-1.8,95.2-1.6,94.7-1.6,94.7L-1.6,94.7z"/>
			<path d="M-1,98.7l0.2,0.4c0,0.1-0.1,0.2-0.2,0.2s-0.2-0.1-0.2-0.2C-1.2,99.2-1,98.7-1,98.7L-1,98.7z"/>
			<path d="M2.2,100.9l0.2,0.4c0,0.1-0.1,0.2-0.2,0.2S2,101.4,2,101.3L2.2,100.9L2.2,100.9z"/>
			<path d="M13.9,89.6L13.7,90c0,0.1,0.1,0.2,0.2,0.2c0.1,0,0.2-0.1,0.2-0.2C14.1,90.1,13.9,89.6,13.9,89.6L13.9,89.6z"/>
			<path d="M13.9,94.7l-0.2,0.4c0,0.1,0.1,0.2,0.2,0.2c0.1,0,0.2-0.1,0.2-0.2C14.1,95.2,13.9,94.7,13.9,94.7L13.9,94.7z"/>
			<path d="M13.3,98.7l-0.2,0.4c0,0.1,0.1,0.2,0.2,0.2c0.1,0,0.2-0.1,0.2-0.2C13.5,99.2,13.3,98.7,13.3,98.7L13.3,98.7z"/>
			<path d="M10.1,100.9l-0.2,0.4c0,0.1,0.1,0.2,0.2,0.2c0.1,0,0.2-0.1,0.2-0.2C10.3,101.3,10.1,100.9,10.1,100.9L10.1,100.9z"/>
			<path d="M6.2,103.2L6,103.6c0,0.1,0.1,0.2,0.2,0.2c0.1,0,0.2-0.1,0.2-0.2L6.2,103.2L6.2,103.2z"/>
			<path d="M12.4,95.6c0.1,0.1,0.2,0.1,0.3,0l0.1-0.4c0,0-0.2-0.2-0.3-0.2c-0.4,0.1-0.8,0.1-1.1,0.5c0,0.3,0.2,0.5,0.4,0.6
				c0.1-0.1,0.2,0.1,0.3,0.2c0,0.1-0.1,0.2-0.2,0.2c-0.3-0.3-0.8,0.1-1-0.3c0.1-0.4,0.3-0.8,0-1.1c0-0.1,0.1-0.1,0.1-0.2
				c-0.1-0.3-0.5-0.1-0.7-0.1c-0.4-0.1-0.7,0.1-0.9,0.4c0,0.1,0.1,0.2,0.2,0.4c0.1,0,0.1,0,0.2,0.1l-0.2,0.1
				c0.1,0.1,0.1,0.2,0.1,0.3c-0.2,0.1-0.3-0.2-0.4-0.3c0-0.2,0-0.5-0.2-0.6c-0.1,0-0.2,0.1-0.2,0.1c-0.1,0.1-0.1,0.2-0.1,0.4
				c0,0.2,0.1,0.4,0.1,0.4s0.7,0.5,0.9,0.9c-0.2,0.4-0.2,1-0.7,1.3C9,98.4,9,98.5,9,98.7l0.1,0.1c0.3-0.2,0.9-0.2,0.9-0.7
				c0.1-0.2,0.2-0.5,0.5-0.6c0.2-0.1,0.5,0.1,0.5,0.3c-0.1,0.4-0.3,0.6-0.6,0.7c0,0.1,0,0.1,0,0.2c0.1,0.2,0.4,0.1,0.5,0.1
				c0.4-0.3,0.6-0.7,0.9-0.9c0.1,0.2-0.5,0.3-0.1,0.6c0.2-0.1,0.5,0,0.7-0.3c-0.2-0.4,0.6-0.6,0.1-1c0-0.4,0.4-0.5,0.4-0.9
				c-0.1-0.4-0.6-0.4-0.7-0.7C12,95.5,12.2,95.5,12.4,95.6L12.4,95.6z"/>
			<path d="M-5.2,100c0.3,0,0.5-0.2,0.5-0.4c0-0.2-0.2-0.4-0.5-0.4s-0.5,0.2-0.5,0.4C-5.6,99.8-5.4,100-5.2,100L-5.2,100z"/>
			<path d="M-29.9,114.4c0.3,0,0.5-0.2,0.5-0.4s-0.2-0.4-0.5-0.4s-0.5,0.2-0.5,0.4C-30.4,114.2-30.2,114.4-29.9,114.4L-29.9,114.4z"
				/>
			<path d="M-14.2,117.9L-14.2,117.9L-14.2,117.9L-14.2,117.9L-14.2,117.9L-14.2,117.9L-14.2,117.9L-14.2,117.9L-14.2,117.9
				C-14.2,117.9-14.2,117.9-14.2,117.9L-14.2,117.9C-14.3,117.8-14.3,117.8-14.2,117.9L-14.2,117.9L-14.2,117.9L-14.2,117.9
				L-14.2,117.9L-14.2,117.9L-14.2,117.9L-14.2,117.9L-14.2,117.9z M-14.2,117.9L-14.2,117.9L-14.2,117.9L-14.2,117.9L-14.2,117.9
				L-14.2,117.9z"/>
			<path d="M-14.1,117.9L-14.1,117.9L-14.1,117.9L-14.1,117.9L-14.1,117.9L-14.1,117.9L-14.1,117.9
				C-14.1,117.9-14.2,117.9-14.1,117.9L-14.1,117.9L-14.1,117.9L-14.1,117.9L-14.1,117.9C-14.2,117.9-14.1,117.9-14.1,117.9
				L-14.1,117.9L-14.1,117.9L-14.1,117.9C-14.2,117.9-14.2,117.9-14.1,117.9C-14.2,117.9-14.2,117.9-14.1,117.9L-14.1,117.9
				L-14.1,117.9L-14.1,117.9L-14.1,117.9L-14.1,117.9L-14.1,117.9z"/>
			<path d="M-13.9,117.9L-13.9,117.9L-13.9,117.9L-13.9,117.9L-13.9,117.9L-13.9,117.9L-13.9,117.9L-13.9,117.9L-13.9,117.9
				L-13.9,117.9L-13.9,117.9L-13.9,117.9L-13.9,117.9C-14,117.9-14,117.9-13.9,117.9L-13.9,117.9L-13.9,117.9L-13.9,117.9
				L-13.9,117.9L-13.9,117.9C-14,117.9-14,117.9-13.9,117.9L-13.9,117.9L-13.9,117.9L-13.9,117.9C-14,117.9-14,117.9-13.9,117.9
				L-13.9,117.9L-13.9,117.9L-13.9,117.9L-13.9,117.9L-13.9,117.9L-13.9,117.9L-13.9,117.9L-13.9,117.9L-13.9,117.9L-13.9,117.9z"/>
			<path d="M-13.9,117.9L-13.9,117.9L-13.9,117.9L-13.9,117.9L-13.9,117.9C-13.9,117.9-13.9,117.8-13.9,117.9
				C-13.9,117.8-13.9,117.9-13.9,117.9L-13.9,117.9L-13.9,117.9L-13.9,117.9z M-13.9,117.9L-13.9,117.9L-13.9,117.9L-13.9,117.9
				L-13.9,117.9L-13.9,117.9L-13.9,117.9z"/>
			<path d="M-13.8,117.9L-13.8,117.9L-13.8,117.9L-13.8,117.9C-13.8,117.9-13.9,117.9-13.8,117.9C-13.9,117.9-13.9,117.9-13.8,117.9
				L-13.8,117.9L-13.8,117.9L-13.8,117.9L-13.8,117.9L-13.8,117.9L-13.8,117.9L-13.8,117.9L-13.8,117.9L-13.8,117.9L-13.8,117.9z"/>
			<path d="M15,83.8L15,83.8H-2.6l0,0l0,0v13.5c0,1.4,0.6,2.6,1.4,2.9l6.8,4.3c0.1,0.2,0.4,0.3,0.6,0.3c0.2,0,0.4-0.1,0.5-0.2
				l6.9-4.4c0.8-0.4,1.4-1.6,1.4-2.9V83.8L15,83.8L15,83.8z M14.5,97.4c-0.1,1-0.4,1.9-1.1,2.3l-6.6,4.2l0,0
				c-0.1,0.1-0.3,0.2-0.5,0.2s-0.4-0.1-0.5-0.2l-6.6-4.2c-0.7-0.5-1-1.3-1.1-2.3V84.3h16.6L14.5,97.4L14.5,97.4z"/>
			<path d="M8.5,103.4l0.2-0.1C8.6,103.3,8.6,103.4,8.5,103.4L8.5,103.4z"/>
			<path d="M-4.8,121.8l-1.7,0.2v-0.1c0.3-0.1,0.4-0.1,0.4-0.2c0-0.1-0.2-0.4-0.3-0.5l-1.2,0.1c-0.1,0.3-0.2,0.5-0.2,0.6
				c0,0.2,0.3,0.1,0.4,0.1v0.1l-1,0.1v-0.1c0.3-0.1,0.3-0.2,0.4-0.6l0.9-2.5H-7l1.4,2.1c0.3,0.4,0.4,0.6,0.6,0.5L-4.8,121.8
				L-4.8,121.8z M-6.4,121l-0.6-1l-0.4,1.1L-6.4,121L-6.4,121z"/>
			<path d="M24.4,115.5c-0.3-0.8-0.9-1.3-1.7-1.6c-0.8-0.2-1.7-0.1-2.2,0.6c-0.9,0.7-0.3,2-0.2,3c0,0.2,0,0.4-0.2,0.5
				c-3.7-0.3-7.1-1.2-10.7-1.6c-0.8-0.1-1.7-0.1-2.5-0.3l-1-0.1c-3.2,0.1-6.3,0.3-9.3,1c-0.6,0.2-1.3,0.2-2,0.5
				c-0.5-0.1-0.8,0.2-1.3,0.1l-0.8,0.2c-0.1,0-0.2,0-0.3,0c-0.4-1,0.8-1.7,0.4-2.7c-0.3-0.6-1-1.1-1.7-1c-0.9-0.1-1.6,0.4-2,1
				c-0.6,1.3,0.2,2.6,0.4,3.8c-0.1,0.4,0.4,0.9,0,1.2c-0.8-0.6-1.9-0.9-2.9-0.6c-0.3,0.2-0.9-0.1-1,0.3c1.1,0.6,2.5,0.5,3.7,0.5
				c0.2-0.1,0.3-0.1,0.4,0c0.1,0.7-0.1,1.6,0.3,2.1c0.5,0.6,1.2,0.8,1.9,0.8c2.3-0.1,4.4-0.8,6.5-1.3c0.3,0,0.6-0.2,0.9-0.2
				c1.1-0.3,2.4-0.5,3.6-0.5c-0.5,0.7-0.8,1.5-1.1,2.3c-0.3,0.7,0.5,0.8,0.8,1.2c-0.8,0.2-1.3,0.8-2.1,1.1c-1.6-0.1-3,0.6-4.5,0.7
				c0,0.3,0.5,0.2,0.6,0.6c-0.1,0.2-0.3,0.3-0.5,0.4c0,0.2,0,0.2,0.2,0.2c0.2-0.2,0.5-0.1,0.6-0.2c0.5,0,0.9-0.2,1.4-0.2
				c0.4-0.2,0.9-0.2,1.3-0.5c0.5-0.2,0.9-0.5,1.4-0.7c0.8,0,1.4-0.3,2.1-0.3v0.2c-0.6,0.9-1.2,1.9-1.8,2.8c-0.1,0.2,0,0.4,0.2,0.4
				c0.4,0.1,0.7,0,1-0.2c0.5-0.9,1-1.8,1.4-2.7c0.2-0.9,0.8-1.3,1.4-1.9c0.1-0.1,0.2-0.2,0.4-0.1c-0.5,0.6-0.8,1.2-1.2,1.8
				c-0.2,0.7-0.3,1.6,0.4,2.2c0.3,0.3,0.8,0.2,1.2,0.2c1-0.5,2.2,0.3,3-0.7c0.5-0.1,0.5,0.5,0.8,0.7c0.4,0.1,0.9,0.6,1.3,0.2
				c0-0.3-0.3-0.5-0.5-0.8c-0.3-0.5-0.7-1-1-1.5c-0.1-0.4-0.4-0.6-0.4-0.9c0.5,0.2,0.9,0.5,1.4,0.5c0.4,0.2,1,0.2,1.4,0.4
				c0.3,0.4,0.8,0.7,1.3,1c0.6,0.3,1.3,0.4,2,0.6c0.2,0,0.6,0.2,0.8,0c-0.1-0.1-0.2-0.2-0.4-0.3c-0.1-0.3,0.5-0.2,0.6-0.4
				c-0.1-0.1-0.2-0.2-0.3-0.2c-0.4-0.2-1.3-0.3-1.5-0.4c-0.3-0.1-0.6-0.2-0.9-0.3c-1.5,0-2.4-1.4-3.6-1.9c0.3-0.3,0.7-0.5,0.9-0.8
				c0.2-0.4,0.3-0.9,0.1-1.3c-0.2-0.8-1.2-0.7-1.8-1.1l0.1-0.1c1-0.1,1.8,0.2,2.7,0.4c2.4,0.3,4.7,1.2,7.2,1.3
				c1.4,0,3.1,0.1,3.8-1.3c0.1-0.8,0.3-1.6,0.4-2.4C23.7,118.1,24.5,116.9,24.4,115.5L24.4,115.5z M-2.9,127.1l-0.4-0.3
				c0.2-0.2,0.6-0.1,0.8-0.3c0.7-0.2,1.4-0.5,2.1-0.3C-1,126.8-2,126.9-2.9,127.1L-2.9,127.1z M12.9,126.7c0.6,0.3,1.8,0.5,2.7,0.6
				c-0.1,0.3-0.7,0-0.6,0.5c-0.8-0.3-1.7-0.5-2.3-1.1C12.7,126.7,12.8,126.7,12.9,126.7L12.9,126.7z M-10.8,115.9
				c0.1-0.5,0.2-0.9,0.6-1.3c0.6-0.3,1.4-0.2,2,0.1c0.2,0.1,0.3,0.2,0.4,0.5c0.1,0.4-0.1,0.9-0.4,1.2h-0.2c0-0.4,0-0.8,0.2-1.2
				c0-0.3-0.3-0.3-0.5-0.5c-0.4-0.1-0.8,0.1-1.1,0.3c-0.2,0.3-0.5,0.7-0.3,1.1c0.2,0.3,0,0.7,0.1,1l-0.1,0.1
				C-10.5,116.8-10.9,116.5-10.8,115.9L-10.8,115.9z M-9.6,116.6c0.4,0.3,0.9,0.2,1.4,0.2c0.1,0.3,0.1,0.6-0.1,0.9
				c-0.4-0.1-1-0.1-1.2-0.5C-9.6,117.1-9.7,116.8-9.6,116.6L-9.6,116.6z M-9.7,115.7c0.1-0.2,0-0.5,0.3-0.6c0.2-0.1,0.5-0.1,0.5,0.2
				s-0.1,0.6-0.1,0.9C-9.4,116.3-9.6,116-9.7,115.7L-9.7,115.7z M2.1,123.9c-0.1-0.9,0.2-1.7,0.8-2.3c0.4-0.1,0.8-0.2,1.1,0.1
				c-0.7,0.2-1.5,0.3-1.6,1.2c0,0.3-0.1,0.5,0.1,0.8c0.3,0.5,0.9,0.3,1.3,0.7c0,0.1-0.1,0.3-0.2,0.3C3.1,124.4,2.5,124.2,2.1,123.9
				L2.1,123.9z M1.2,125.7c0.6-0.3,1.2-0.8,1.9-0.6C2.7,125.5,1.9,125.6,1.2,125.7L1.2,125.7z M3.6,125.9c-0.4,0.8-0.8,1.6-1.2,2.4
				c-0.1,0.1-0.3,0.2-0.4,0.2c0-0.4,0.4-0.6,0.5-0.9c0.5-0.7,0.7-1.4,1.3-2.1C3.9,125.6,3.6,125.7,3.6,125.9L3.6,125.9z M4.3,124.5
				L4.3,124.5L4.3,124.5L4.3,124.5L4.3,124.5L4.3,124.5C4.3,124.4,4.2,124.4,4.3,124.5L4.3,124.5L4.3,124.5z M4,123.8
				c-0.4-0.1-0.8-0.2-1.2-0.3c-0.2-0.3,0-0.5,0-0.8c0.4-0.6,1.4-0.8,1.8-0.3C4.6,122.9,4.4,123.4,4,123.8L4,123.8z M4.6,123.8
				c0.1-0.3,0.2-0.8,0.4-1.1C5,123,4.8,123.5,4.6,123.8L4.6,123.8z M4.9,121.7c-0.3-0.1-0.5-0.5-0.9-0.5c0.3-0.1,0.6-0.1,1,0
				C5.1,121.4,4.9,121.6,4.9,121.7L4.9,121.7z M5.2,122.5L5.2,122.5v-0.3l0,0V122.5L5.2,122.5z M5.2,123.6c0-0.1,0.1-0.2,0.1-0.4
				c0.1-0.1,0.2,0.1,0.3,0.2C5.5,123.6,5.3,123.7,5.2,123.6L5.2,123.6z M5.6,122.1c0.1-0.4,0.1-0.7,0.4-0.9c0.2,0,0.5,0,0.7,0.1
				c0.1,0.5,0.7,1.2,0,1.6c-0.2,0.1-0.6,0.3-0.8,0.1C5.5,122.7,5.4,122.4,5.6,122.1L5.6,122.1z M7.4,121.3c-0.1-0.2,0.2-0.1,0.3-0.2
				l0.8,0.1C8.1,121.2,7.6,122.1,7.4,121.3L7.4,121.3z M8.7,121.7c-0.3,0.1-0.5,0.5-0.8,0.5C8,121.9,8.4,121.7,8.7,121.7L8.7,121.7z
				 M7.6,123.3L7.6,123.3L7.6,123.3L7.6,123.3L7.6,123.3L7.6,123.3z M7.7,124.8c0,0.1,0,0.1-0.1,0.2L7,124.5
				C7.3,124.5,7.5,124.6,7.7,124.8L7.7,124.8z M7,124c0.1-0.1,0.2-0.1,0.2,0H7L7,124z M6.6,123.6c0.1-0.2,0.2-0.4,0.4-0.4
				c0,0,0,0.1,0.1,0.1C6.9,123.5,6.8,123.6,6.6,123.6L6.6,123.6z M6,123.6L6,123.6l0.1-0.2C6.2,123.5,6.1,123.5,6,123.6L6,123.6z
				 M6.1,124.5c0.3-0.4,0.6,0.2,0.8,0.5c0.4,0.6,1.4,1.1,1,1.8c-0.5,0.4-1.2,0-1.8,0.4c-0.3,0-0.8,0.1-0.9-0.2
				C5.5,126.2,5.7,125.3,6.1,124.5L6.1,124.5z M5.4,125l0.1-0.2c-0.2,0.6-0.5,1.2-0.8,1.8C4.6,126.1,5.2,125.6,5.4,125L5.4,125z
				 M6.5,128.1c-0.5,0-1.2,0.3-1.7-0.1c0-0.2-0.2-0.3-0.2-0.5c0.4-0.2,0.8,0.3,1.1,0c0.6,0,1.2-0.1,1.8,0.1c0.3,0.1,0.7-0.5,0.8,0.1
				C8.1,128.4,7.1,127.8,6.5,128.1L6.5,128.1z M8,124.4L8,124.4L8,124.4L8,124.4L8,124.4L8,124.4z M8.1,126c0,0.3,0.3,0.4,0.1,0.6
				C8.2,126.5,8.1,126.3,8.1,126L8.1,126z M8.9,127.5l-0.1,0.1c-0.1-0.1-0.1-0.4-0.1-0.5C8.8,127.2,8.9,127.4,8.9,127.5L8.9,127.5z
				 M10.1,128.1c0,0.1-0.2,0.1-0.2,0c-0.8-1-1.1-2-1.6-3.1h0.1C9,126.1,9.5,127.2,10.1,128.1L10.1,128.1z M11.1,125.8
				C11,125.8,11,125.9,11.1,125.8c-0.8,0.1-1.3-0.3-1.9-0.7V125C9.9,125,10.4,125.5,11.1,125.8L11.1,125.8z M10.4,122.4
				c0.3,0.1,0.3,0.4,0.4,0.7c0,0.6-0.3,1-0.9,1.2c-0.3,0.2-0.7,0.2-1,0.1c0.6,0,1.3-0.2,1.5-0.9V122.4L10.4,122.4z M9.8,122.3
				c0.1,0.4,0.4,0.7,0.2,1.1c-0.2,0.5-0.8,0.5-1.2,0.6c-0.2,0-0.4-0.1-0.6-0.2c0-0.1,0-0.2-0.1-0.2c0.1-0.3-0.6-0.7-0.1-0.9
				C8.5,122.3,9.4,121.4,9.8,122.3L9.8,122.3z M22.7,120.5c-0.2,0.2,0,0.7-0.3,0.9c0,0.5-0.4,0.7-0.7,0.9c-3,0.7-6-0.4-8.9-0.9
				c-4.1-0.9-8.8-1.1-13-0.2c-1.9,0.4-3.8,0.8-5.7,1.3c-1.2,0.2-2.4,0.3-3.5,0c-0.9-0.4-0.5-1.6-0.8-2.4c0.1-0.6-0.2-1.1-0.2-1.8
				c-0.1-0.2-0.1-0.5-0.1-0.7c0.4,0.1,0.8,0.3,1.2,0.4c2.1,0.4,4-0.3,6-0.6c1.9-0.4,3.8-0.7,5.8-0.9c2.3,0,4.6-0.2,6.8,0.2
				c0.7,0,1.3,0.2,2,0.2c1.4,0.2,2.7,0.6,4.2,0.7c0.2,0.1,0.5,0.1,0.8,0.1c2.3,0.4,4.8,1,7,0C23.2,118.7,22.8,119.6,22.7,120.5
				L22.7,120.5z M22,117.4c0,0.4-0.4,0.3-0.6,0.5h-0.6c-0.1-0.2-0.1-0.5-0.1-0.7C21.1,117.2,21.6,117.2,22,117.4L22,117.4z
				 M21.7,116.7c0.3-0.3-0.1-1.9,0.7-0.8c0,0.2,0,0.5-0.2,0.7C22.1,116.6,21.9,116.8,21.7,116.7L21.7,116.7z M23.7,116.5
				c-0.2,0.5-0.6,0.8-1.1,0.9c0-0.6,0.6-1,0.4-1.7c-0.3-0.5-1-0.6-1.6-0.5c-0.2,0.2-0.1,0.4-0.2,0.6l-0.1,0.8
				c-0.5,0-0.5-0.5-0.7-0.8c0-0.5,0.3-1.1,0.8-1.3c0.4-0.2,1.1-0.2,1.5,0.1c0.3,0.1,0.7,0.2,0.8,0.5C23.9,115.4,23.8,116,23.7,116.5
				L23.7,116.5z"/>
		</g>
		<text transform="matrix(1 0 0 1 55.5497 98.8045)" class="st1 st2">Australian Government</text>
		<text transform="matrix(1 0 0 1 54.525 126.0756)" class="st1 st2">Australian Taxation Office</text>
	</g>
</g>
</svg>
