<?xml version="1.0" encoding="utf-8"?>
<!-- Generator: Adobe Illustrator 19.1.0, SVG Export Plug-In . SVG Version: 6.00 Build 0)  -->
<svg version="1.1" id="Layer_1" xmlns="http://www.w3.org/2000/svg" xmlns:xlink="http://www.w3.org/1999/xlink" x="0px" y="0px"
	 viewBox="-99 0 400 200" style="enable-background:new -99 0 400 200;" xml:space="preserve">
<style type="text/css">
	.st0{stroke:#000000;stroke-width:0.5;stroke-miterlimit:10;}
</style>
<line class="st0" x1="-4.9" y1="108.3" x2="298.3" y2="108.3"/>
<g>
	<path d="M-67.9,117.9c-0.1,0.1-0.1,0.2-0.2,0.2"/>
	<path d="M-65.9,102.9c0.2,0,0.4-0.2,0.4-0.4s-0.2-0.4-0.4-0.4c-0.2,0-0.4,0.2-0.4,0.4C-66.3,102.7-66.2,102.9-65.9,102.9
		L-65.9,102.9z"/>
	<path d="M-47.3,85.9L-47.3,85.9l-14.5,0v0l0,0l0,11.7c0,1.1,0.5,2.1,1.1,2.4l5.6,3.3c0.1,0.1,0.3,0.2,0.5,0.2
		c0.2,0,0.3-0.1,0.5-0.2l5.7-3.4c0.7-0.3,1.1-1.3,1.1-2.4L-47.3,85.9L-47.3,85.9L-47.3,85.9z M-57,89.3h-1.3v-3h1.3V89.3L-57,89.3z
		 M-57.9,90.3l0.2-0.2l-0.1-0.2l0.2,0l0.1-0.2l0.1,0.2l0.2,0l-0.1,0.2l0.2,0.2l-0.2,0v0.2l-0.2-0.2l-0.2,0.2v-0.2L-57.9,90.3
		L-57.9,90.3z M-61.4,94.1v-2.8h1.5v2.8H-61.4L-61.4,94.1z M-61.1,89.9l0.2,0l0.1-0.2l0.1,0.2l0.2,0l-0.1,0.2l0.2,0.2l-0.2,0v0.2
		l-0.2-0.2l-0.2,0.2v-0.2l-0.2,0l0.2-0.2L-61.1,89.9L-61.1,89.9z M-59.4,92.8l0.2,0l0.1-0.2l0.1,0.2l0.2,0l-0.1,0.2l0.2,0.2l-0.2,0
		v0.2l-0.2-0.2l-0.2,0.2v-0.2l-0.2,0l0.2-0.2L-59.4,92.8L-59.4,92.8z M-58.4,90.5c0-0.1-0.1-0.1-0.2-0.1c-0.1,0-0.2,0.2-0.3,0.2
		c-0.1,0-0.1,0-0.1-0.1c0-0.1,0.2-0.1,0.2-0.2c-0.9,0-1,0.4-1.1,0.4c-0.2,0,0.2-0.5,0.3-0.6c-0.2,0-0.3-0.3-0.5-0.4
		c0.1-0.1,0.2-0.1,0.3,0c0-0.1,0.1-0.2,0.3-0.2c0.4,0,0.3,0.4,0.4,0.4c0.1,0,0-0.4,0.3-0.4c0.4,0,0.9,1.1,0.5,1.1
		C-58.6,90.7-58.4,90.6-58.4,90.5L-58.4,90.5z M-59.5,87.4l0.2-0.2l-0.1-0.2l0.2,0l0.1-0.2l0.1,0.2l0.2,0l-0.1,0.2l0.2,0.2l-0.2,0
		v0.2l-0.2-0.2l-0.2,0.2v-0.2L-59.5,87.4L-59.5,87.4z M-59.9,86.3v3h-1.5v-3H-59.9L-59.9,86.3z M-57,101.8l-3.5-2.1
		c-0.6-0.4-0.9-1.1-0.9-1.9v-3.3h4.4L-57,101.8L-57,101.8z M-58.2,94.1v-2.8h1.3v2.8H-58.2L-58.2,94.1z M-52.5,102l-1.6,1h0
		c-0.1,0.1-0.3,0.1-0.4,0.1s-0.3-0.1-0.4-0.2l-1.6-1v-7.5h4.1L-52.5,102L-52.5,102z M-52.5,94.1h-4.1v-7.8h4.1V94.1L-52.5,94.1z
		 M-47.7,97.7c-0.1,0.8-0.4,1.5-0.9,1.9l-3.5,2.1v-7.3h4.4L-47.7,97.7L-47.7,97.7z M-47.7,94.1h-4.4v-7.8h4.4V94.1L-47.7,94.1z"/>
	<path d="M-57.2,97.1c0-0.1-0.5,0.2-0.4,0.2c0-0.2,0.3-0.5,0.4-0.6c0-0.2-0.3,0-0.5,0.1c0.8-1.2,0.3-0.7-0.2-0.6
		c0.7-0.8,0.5-0.8,0-0.5c0.4-0.3,0.5-0.7,0.5-0.9c-0.4,0.5-0.8,0.4-0.8,0.9c0,0.3-0.1,0.9-0.3,1c-0.2,0.2-0.1-0.9-0.6-0.9
		c-0.2,0-0.6,0-0.7,0.2c0.1,0,0.3,0.3,0.3,0.4c0,0.1,0.1,0.4-0.1,0.4c-0.2,0-0.4-0.4-0.4-0.6s0-0.1,0-0.4c0-0.5-0.8-1.1-1.1-1.1
		c0,0.3,0.4,0.4,0.4,0.8c-0.2,0-0.4-0.3-0.4-0.1c0,0.2,0.3,0.2,0.3,0.4c0,0.2-0.3-0.1-0.3,0.1c0,0.2,0.2,0.1,0.2,0.3
		c-0.1,0-0.2,0-0.3,0c0,0.1,0,0.1,0.1,0.2c0,0-0.1,0.1-0.1,0.4c0,0.9,0.6,1.4,1,1.4c0.3,0,0.3-0.2,0.3-0.3c0,0.2,0.2-0.1,0.2,0.2
		c0,0.3-0.3,0.2-0.3,0.4c0,0.3,0.5,0,0.5,0.4c0,0.4-0.1,0.4-0.1,0.6c0,0.1,0.5-0.2,0.5-0.2c0.1,0,0.1,0.4,0.3,0.4
		c0.1,0,0.2-0.4,0.3-0.4c-0.1,0,0.4,0.3,0.4,0.2c0-0.4-0.2-0.2-0.2-0.5c0-0.3,0.6-0.2,0.5-0.4c-0.1-0.1-0.1,0-0.2-0.2
		c0,0-0.5-0.7,0.1-0.3C-57.3,98.5-57.2,97.2-57.2,97.1L-57.2,97.1z"/>
	<path d="M-41.8,100.2c0.3,0,0.5-0.2,0.5-0.4s-0.2-0.4-0.5-0.4s-0.5,0.2-0.5,0.4C-42.2,100-42,100.2-41.8,100.2L-41.8,100.2z"/>
	<path d="M-43.7,101.3c0.3,0,0.5-0.2,0.5-0.4c0-0.2-0.2-0.4-0.5-0.4c-0.3,0-0.5,0.2-0.5,0.4C-44.2,101.1-43.9,101.3-43.7,101.3
		L-43.7,101.3z"/>
	<path d="M-66.6,104c0.3,0,0.5-0.2,0.5-0.4s-0.2-0.4-0.5-0.4s-0.5,0.2-0.5,0.4C-67.1,103.8-66.9,104-66.6,104L-66.6,104z"/>
	<path d="M-65.1,104.1c0.3,0,0.5-0.2,0.5-0.4c0-0.2-0.2-0.4-0.5-0.4c-0.3,0-0.5,0.2-0.5,0.4C-65.6,103.9-65.4,104.1-65.1,104.1
		L-65.1,104.1z"/>
	<path d="M-23.9,84.1c0.7,0.8,0.9,2.2,0.4,3.2c-0.3,0-0.2-0.4-0.3-0.6c-0.5-0.9-0.9-2.1-0.5-3.2C-23.9,83.5-24.1,84-23.9,84.1
		L-23.9,84.1z"/>
	<path d="M-84.4,85.3c-0.2,0.6-0.2,1.5,0,2c-0.1,0.1-0.1-0.1-0.2-0.1c-1-0.7-0.5-2.1-0.8-3.1c0.1-0.1,0.2-0.1,0.2-0.1
		C-84.7,84.3-84.5,84.8-84.4,85.3L-84.4,85.3z"/>
	<path d="M-21.7,85.4c0.1,0.3-0.1,0.6-0.3,0.7c-0.2,0.1-0.5-0.1-0.6-0.3c-0.1-0.3,0.1-0.5,0.3-0.7C-22.1,85.1-21.9,85.1-21.7,85.4
		L-21.7,85.4z"/>
	<path d="M-85.9,86.5c-0.1,0.2-0.1,0.5-0.3,0.6c-0.2,0-0.4,0-0.5-0.1c-0.2-0.1-0.2-0.4-0.1-0.5c0.1-0.2,0.3-0.2,0.5-0.2
		C-86.2,86.2-86,86.3-85.9,86.5L-85.9,86.5z"/>
	<path d="M-20.7,86.9c0.1,0.2,0.1,0.3,0,0.4c-0.2,0.2-0.4,0.3-0.7,0.2c-0.2-0.1-0.2-0.3-0.3-0.4c0.1-0.2,0.2-0.4,0.4-0.5
		C-21,86.6-20.9,86.8-20.7,86.9L-20.7,86.9z"/>
	<path d="M-22.2,86.9c0.2,0.1,0.1,0.4,0,0.5c-0.1,0.1-0.3,0.3-0.5,0.3c-0.1-0.1-0.3-0.1-0.3-0.3c0-0.3,0.1-0.5,0.4-0.6
		C-22.4,86.8-22.3,86.8-22.2,86.9L-22.2,86.9z"/>
	<path d="M-24,87.3c0,0.3,0,0.6-0.3,0.7c-0.3,0.1-0.5-0.2-0.6-0.4c0-0.3,0.1-0.5,0.4-0.6C-24.3,87-24.1,87.2-24,87.3L-24,87.3z"/>
	<path d="M-83.2,87.4c0.1,0.3-0.2,0.4-0.3,0.5c-0.2,0.1-0.4-0.1-0.5-0.3c-0.2-0.2,0.1-0.3,0.1-0.5C-83.6,87-83.3,87.2-83.2,87.4
		L-83.2,87.4z"/>
	<path d="M-84.7,87.5c0,0.2-0.1,0.4-0.3,0.5c-0.2,0.1-0.4-0.1-0.5-0.2c-0.1-0.2,0-0.5,0.2-0.6C-85,87.1-84.8,87.3-84.7,87.5
		L-84.7,87.5z"/>
	<path d="M-30.1,87.6c0.2,0.5,0.5,1.2,0.5,1.8c-0.1,0.5,0.1,1.1-0.3,1.5c-0.4-0.1-0.4-0.6-0.6-0.8c-0.5-0.9-0.1-1.9,0.1-2.8
		C-30.2,87.2-30.2,87.5-30.1,87.6L-30.1,87.6z"/>
	<path d="M-85.9,87.9c0.1,0.3-0.1,0.5-0.3,0.6c-0.3,0.1-0.5-0.2-0.6-0.4c0-0.2,0.1-0.5,0.3-0.6C-86.2,87.6-86,87.7-85.9,87.9
		L-85.9,87.9z"/>
	<path d="M-26.1,88.7c0.3,0.7,0.4,1.6,0.1,2.4l-0.2,0.1c-0.4-0.7-0.9-1.3-1-2.1c0-0.5,0.1-1,0.3-1.5c0.2-0.1,0.3,0,0.4,0.2
		C-26.5,88.2-26.4,88.5-26.1,88.7L-26.1,88.7z"/>
	<path d="M-22.9,88.2c0,0.3-0.1,0.5-0.4,0.6c-0.2,0.1-0.5,0-0.6-0.3c-0.1-0.3,0.1-0.5,0.3-0.6C-23.3,87.7-23.1,88-22.9,88.2
		L-22.9,88.2z"/>
	<path d="M-84.6,89c0,0.2-0.2,0.4-0.4,0.5c-0.2,0.2-0.4-0.1-0.5-0.2c-0.1-0.2-0.1-0.4,0-0.6c0.1-0.2,0.2-0.2,0.4-0.2
		C-84.9,88.6-84.7,88.7-84.6,89L-84.6,89z"/>
	<path d="M-83.5,88.9c0.1,0.2-0.2,0.4-0.3,0.5c-0.3,0.1-0.5-0.1-0.6-0.3c-0.1-0.3,0.1-0.4,0.3-0.6C-83.8,88.4-83.7,88.6-83.5,88.9
		L-83.5,88.9z"/>
	<path d="M-22.2,88.8c0,0.3-0.5,0.7-0.6,1c-0.3,0.7-0.9,1.2-1.6,1.4c-0.1,0.1-0.4,0.3-0.6,0.3c-0.1-0.5,0.4-1,0.7-1.4
		C-23.7,89.4-23,89-22.2,88.8L-22.2,88.8z"/>
	<path d="M-85.1,89.9c0.4,0.4,0.6,0.8,1,1.2c0,0.1-0.1,0.3-0.2,0.3c-1.2-0.1-2.1-1.3-2.7-2.2c0.1-0.3,0.4-0.1,0.6-0.1
		C-86,89.3-85.5,89.4-85.1,89.9L-85.1,89.9z"/>
	<path d="M-21.9,90.2c-0.1,1.1-0.6,2.2-1.6,2.7c-0.3,0.1-0.6,0.4-0.9,0.2c0.5-1.1,1.3-2,2.2-3H-21.9L-21.9,90.2z"/>
	<path d="M-26.7,90.9c0.1,0.4-0.1,0.6-0.4,0.7c-0.3,0-0.5-0.2-0.6-0.4c0-0.2,0.1-0.5,0.4-0.6c0.1-0.1,0.2-0.1,0.3-0.1
		C-26.9,90.7-26.9,90.8-26.7,90.9L-26.7,90.9z"/>
	<path d="M-86.5,91.2c0.5,0.3,0.9,0.8,1.4,1.2c-0.3,0.2-0.7,0-1.1,0c-0.9-0.3-1.4-1-2.3-1.3c0-0.3,0.4-0.2,0.5-0.3
		C-87.5,90.8-87.1,91-86.5,91.2L-86.5,91.2z"/>
	<path d="M-59.5,83.6c-1.4-0.6-2.4,0.9-3.8,0.7c-0.2,0.1-0.1,0.3-0.2,0.4c-0.1,0.1-0.2,0-0.3,0c-0.1-0.6-0.3-1.2-0.4-1.8
		c-0.1-0.2-0.1-0.6-0.2-0.9c-0.8-2.2,2-0.5,2.5-1.8c0.5-1.1-0.9-1.2-1.4-2v-0.3c-0.4-0.4-0.8-0.5-1.1-1.1c0.2-0.6,0.2-1.3,0.1-2
		c0-0.2-0.1-0.4-0.4-0.3c-0.5,0.7-0.8,1.2-1.3,1.8c-0.5-0.4-0.9-0.8-1.5-1.1c-0.4-0.1-0.7-0.4-1.2-0.3c-0.1,0.2,0,0.3,0.1,0.4
		c0,1,0.5,1.8,1.2,2.5l0.1,0.4c-0.5,1-0.3,2.2-0.5,3.4c-1.1,2.9-3,5.7-5.5,7.7c-1.4,1.6-3.2,3.2-3.4,5.4c-0.1,0.4,0.1,0.8-0.2,1
		c-0.8-0.3-1.7-0.7-2.4-1.2c-1.2-0.8-2.8-0.7-3.6-2.2c-0.3-0.6,0.1-1.2,0.4-1.6c0.9-0.8,0.7-2.3,0.3-3.3c-0.1,0-0.1,0.1-0.2,0.1
		c-0.1,1.5-1.3,2.5-0.8,4.2c0.1,0.5,0.4,0.8,0.5,1.2c-0.2-0.1-0.4-0.1-0.6-0.1c-0.6-0.1-1.1-0.3-1.7-0.2c-1.2,0.5-2.8-0.1-3.7,0.9
		c-0.2,0-0.4,0.1-0.3,0.3c0.6,0,1.1,0.2,1.6,0.1c0.9,0.2,1.5-0.6,2.1-0.9h0.2c0.2-0.3,0.7-0.1,1-0.2c1.6,0.2,2.8,0.9,4.1,1.7v0.1
		c-0.5,0.2-1.1,0.4-1.6,0.7c-0.6,0.4-1.2,1-1.4,1.7c-0.4,0.6,0.1,1.2,0.4,1.7c0,0.3,0.1,0.6,0.3,0.7c0.8-0.9,0.1-1.9,0.2-2.9
		c0.2-0.8,0.9-1.1,1.6-1.3c1.4-0.6,2.5,0.6,3.6,1.2c0,1.2,0.1,2.3-0.1,3.4c-0.4,0.1-0.8,0.2-1.2,0.2c-2,0.2-3.6,1.2-5.4,1.9
		c-0.8,0.3-1.8,0.3-2.6,0.6c0.6,0.2,1.3-0.1,1.9-0.1c2.5-0.4,4.4-2.3,7-1.9l0.1,0.1c-0.3,0.6-0.7,1.2-1.2,1.7
		c-0.1-0.3-0.1-0.5-0.4-0.7c-0.2-0.1-0.4,0-0.6,0.2c-0.1,0.1-0.1,0.3,0,0.4c0.1,0.2,0.3,0.3,0.5,0.4c-0.1,0.2-0.3,0.3-0.5,0.5
		c-0.7,1.2-2.2,0.7-3,1.6c-0.1,0.2-0.6,0.3-0.4,0.6c1,0.1,1.9-0.2,2.6-0.7c0.9-1,1.9-2,2.9-3c0.2,0.8-0.1,1.7-0.6,2.3
		c-0.2-0.1-0.4-0.3-0.7-0.4c-0.3,0.1-0.4,0.3-0.5,0.5c0.1,0.2,0.2,0.4,0.4,0.5c-0.9,0.6-1.9,0.7-2.9,0.9c-1.8,0.2-3.6,0.4-5.5,0.4
		c-0.9-0.1-1.9,0.3-2.7,0c-1,0.2-2-0.1-2.8,0.4c-0.1,0.1,0,0.3,0,0.4c1.2,0.8,2.8,0.2,4.1,0.4h10c0.7,0,1.5-0.1,2.1-0.4
		c1.3-0.7,2-2.1,2.7-3.4c0.2-0.5,0.4-1,0.5-1.5c0.2-0.9,1-1.5,1.9-1.6c0.1,1.3-0.1,2.6-0.4,3.9c-0.2,0.8-0.7,1.6-0.4,2.5
		c0.1,0.4,0.5,0.4,0.8,0.5c3.1-0.1,6.1-0.2,9.3,0.1c0.6,0.1,1.1,0.3,1.7,0.3c0.1-0.1,0.2-0.1,0.2-0.3c-0.1-0.3-0.3-0.6-0.6-0.7
		c-0.1-0.2-0.3-0.1-0.4-0.2c-1.6-0.9-3.6-0.4-5.5-0.4c-1,0.1-2,0.3-2.8-0.3c-0.4-0.5-0.1-1.9-0.1-1.9c0-0.6,1.4-4.6,1.6-4.9
		c0.1-0.4,0.2-0.7,0.2-1.2C-67,97-67,96.4-67,95.8c0.1-0.8,0.5-1.6,0.8-2.4c0.1-0.4,0.3-0.8,0.4-1.2c0.2-0.5,0.2-0.9,0.5-1.3
		c0.8,0.5,1.6,0.5,2,1.4l0.4,2.1c0,0.1,0.1,0.4,0.3,0.2c0.7-0.4,0.5-1.4,0.5-2.1c0.1-0.8-0.4-1.2-0.6-1.9c-0.2-0.1-0.5-0.7-0.5-0.7
		c-0.1-0.6-1.3-0.9-1-1.6c0.2-0.6,0.3-1.1,0.9-1.5c0.1,0.1,0.1,0.1,0.1,0.2L-63,87l0-2.1c0.8,0,2,0.1,2.9,0.1
		c0.2,0.1,0.4,0.3,0.7,0.3l0.2-0.3l2-0.4C-58.1,84.6-58.7,83.6-59.5,83.6L-59.5,83.6z"/>
	<path d="M-57.3,84.5c0.1,0,0.1,0,0.2,0L-57.3,84.5L-57.3,84.5z"/>
	<path d="M-79.3,91.6c0,0.3-0.2,0.5-0.4,0.6c-0.2-0.1-0.4-0.1-0.5-0.3c-0.1-0.3,0.2-0.5,0.4-0.6C-79.6,91.4-79.3,91.4-79.3,91.6
		L-79.3,91.6z"/>
	<path d="M-80.9,91.6c0.2,0.2,0.2,0.4,0.1,0.6c-0.2,0.2-0.5,0.3-0.6,0.1c-0.2-0.2-0.3-0.3-0.2-0.5C-81.4,91.6-81.1,91.4-80.9,91.6
		L-80.9,91.6z"/>
	<path d="M-45.7,91.9C-45.7,91.9-45.7,91.9-45.7,91.9"/>
	<path d="M-26.5,92.3c0.1,0.3-0.1,0.5-0.3,0.6c-0.3-0.1-0.6-0.1-0.6-0.5c0-0.2,0.2-0.3,0.4-0.4C-26.8,92-26.6,92.2-26.5,92.3
		L-26.5,92.3z"/>
	<path d="M-25.1,92.3c0.1,0.1,0.2,0.3,0.1,0.5c-0.1,0.1-0.2,0.1-0.2,0.2c-0.3,0.1-0.5-0.1-0.6-0.3c-0.1-0.3,0.2-0.4,0.4-0.5
		C-25.4,92.1-25.3,92.2-25.1,92.3L-25.1,92.3z"/>
	<path d="M-87.3,92.6c-0.1,0.3-0.4,0.4-0.7,0.3c-0.1-0.1-0.2-0.2-0.2-0.3c0-0.2,0.1-0.4,0.3-0.4C-87.6,92.2-87.3,92.3-87.3,92.6
		L-87.3,92.6z"/>
	<path d="M-78.7,93c0,0.2-0.3,0.4-0.4,0.5c-0.3,0-0.4-0.2-0.6-0.4c0-0.2,0.1-0.5,0.3-0.5C-79.1,92.5-78.8,92.8-78.7,93L-78.7,93z"/>
	<path d="M-80.2,92.9c0.1,0.1,0.2,0.3,0.1,0.4c-0.2,0.1-0.4,0.4-0.6,0.2c-0.2-0.1-0.3-0.2-0.3-0.5c0.1-0.1,0.2-0.3,0.4-0.3
		C-80.5,92.6-80.4,92.8-80.2,92.9L-80.2,92.9z"/>
	<path d="M-21.3,93.2c0,0.2-0.2,0.4-0.3,0.5c-0.2,0.1-0.4,0-0.6-0.1c-0.1-0.1-0.1-0.3-0.1-0.4c0.1-0.2,0.3-0.3,0.5-0.3
		C-21.5,92.9-21.4,93-21.3,93.2L-21.3,93.2z"/>
	<path d="M-19.6,93.4c-0.1,0.2-0.2,0.4-0.5,0.5c-0.2,0-0.4-0.1-0.4-0.3c0-0.2,0.1-0.4,0.2-0.4C-20,93-19.7,93.1-19.6,93.4
		L-19.6,93.4z"/>
	<path d="M-84.4,93.7c0.1,0.3-0.1,0.5-0.3,0.6c-0.2,0.1-0.4,0-0.5-0.1c-0.1-0.1-0.2-0.3-0.1-0.5c0.1-0.2,0.3-0.2,0.4-0.3
		C-84.6,93.5-84.5,93.6-84.4,93.7L-84.4,93.7z"/>
	<path d="M-83.1,94c0.1,0.2-0.2,0.3-0.2,0.4c-0.1,0.1-0.3,0.2-0.5,0.1c-0.2-0.2-0.4-0.4-0.2-0.6C-83.8,93.5-83.3,93.7-83.1,94
		L-83.1,94z"/>
	<path d="M-22.8,93.9c0,0.2-0.2,0.4-0.4,0.6c-0.2,0.1-0.5-0.1-0.5-0.3c0-0.2,0.1-0.4,0.3-0.5C-23.1,93.6-22.9,93.6-22.8,93.9
		L-22.8,93.9z"/>
	<path d="M-20.7,94.3c-0.1,0.2,0,0.5-0.3,0.6c-0.2,0.1-0.5,0-0.6-0.1s-0.2-0.4-0.1-0.5c0.1-0.2,0.4-0.4,0.6-0.3
		C-20.9,94-20.8,94.2-20.7,94.3L-20.7,94.3z"/>
	<path d="M-85.3,94.8c0.1,0.2-0.1,0.3-0.2,0.4c-0.2,0.1-0.4,0-0.5-0.1c-0.2-0.1-0.1-0.4-0.1-0.5C-85.9,94.2-85.4,94.5-85.3,94.8
		L-85.3,94.8z"/>
	<path d="M-22.3,95.3c0.1,0,0.1,0.2,0,0.2c-0.6,0.3-1.5,0.4-2-0.1c-0.3-0.3-0.7-0.4-1-0.6c0.1-0.3,0.6-0.3,0.9-0.4
		C-23.7,94.6-23.1,95.3-22.3,95.3L-22.3,95.3z"/>
	<path d="M-84.1,95c0.1,0.2-0.1,0.3-0.2,0.4c-0.1,0.2-0.3,0.1-0.4,0.1c-0.2-0.2-0.3-0.4-0.2-0.6C-84.6,94.6-84.3,94.8-84.1,95
		L-84.1,95z"/>
	<path d="M-81.9,95.2c0.1,0.2-0.1,0.4-0.2,0.6c-0.2,0.1-0.3-0.1-0.5-0.1c-0.1-0.2-0.4-0.4-0.1-0.6C-82.5,94.7-82.1,94.9-81.9,95.2
		L-81.9,95.2z"/>
	<path d="M-52.7,96.3c-0.1,0.5-0.9-0.1-0.8,0.6c0.1,0.5,0.2,1.1,0.5,1.4c0.2,0.3,0.1,0.9,0.1,1.3c-0.2,0.4-0.6,0.6-1,0.8
		c-0.7-0.1-1.8,0.4-2.1-0.5c-0.1-0.4-0.4-0.8-0.4-1.2c0.1-0.1,0.2-0.1,0.2-0.1c0-0.2-0.2-0.3-0.2-0.4c0.8-0.1-0.3-0.9,0.4-0.9
		c0.6,0.6,1.5,0.4,2,1.1c0.1,0.1,0.2,0.2,0.4,0.3c-0.1-0.6-0.4-1.2-0.5-1.9c-0.1-0.3,0.1-0.7,0.3-0.8C-53.3,95.5-52.9,96-52.7,96.3
		L-52.7,96.3z"/>
	<path d="M-79.7,96.1c0.1,0.3-0.1,0.4-0.3,0.5c-0.2,0.1-0.4-0.2-0.5-0.3c-0.1-0.3,0.1-0.4,0.3-0.5C-80,95.9-79.8,95.9-79.7,96.1
		L-79.7,96.1z"/>
	<path d="M-64.1,96.4c0.3,1,0.2,2-0.3,2.9c0,0.2,0.1,0.5-0.2,0.5c-0.7-0.9-0.2-2.3,0.1-3.3C-64.5,96.2-64.1,96.1-64.1,96.4
		L-64.1,96.4z"/>
	<path d="M-42.4,96.8c0.4,0.7,0.4,1.7,0.1,2.4l-0.2,0.2c-0.3-0.6-0.5-1.2-0.6-1.8c0.1-0.5,0.3-0.9,0.3-1.3
		C-42.5,96.2-42.5,96.7-42.4,96.8L-42.4,96.8z"/>
	<path d="M-77.7,97.1c-0.2,0.3-0.6,0.4-0.9,0.6c-0.6,0.5-1.5,0.6-2.2,0.4c0.7-0.9,1.7-1.5,2.9-1.2C-77.9,97.1-77.7,97-77.7,97.1
		L-77.7,97.1z"/>
	<path d="M-88.1,98c0.9,0.7,1.2,1.6,1.7,2.5c0.1,0.1,0.3,0.1,0.2,0.3c-0.2,0.2-0.4-0.2-0.7-0.1c-1-0.4-1.6-1.5-1.5-2.6
		C-88.3,98-88.2,98-88.1,98L-88.1,98z"/>
	<path d="M-43.4,98.8c0,0.3,0,0.5-0.2,0.6c-0.3,0.1-0.5-0.1-0.6-0.3c-0.1-0.2,0.1-0.3,0.1-0.4C-43.9,98.5-43.6,98.6-43.4,98.8
		L-43.4,98.8z"/>
	<path d="M-32.8,100.2c0-0.5,0.1-0.9,0.2-1.4c0.1-0.2,0.1-0.3,0.1-0.5c0.6-0.8,1.8-0.6,2.8-0.5c0.4,0.2,0.9,0.2,1.3,0.3
		c0.2-0.1,0.4-0.2,0.6-0.1c0.8-0.4,0.3-1.4,0.3-2.1l-0.3-0.8c-0.1-0.2-0.2-0.3-0.2-0.5c-0.1-0.2-0.2-0.5-0.4-0.7
		c-0.4-1.1-1.3-1.8-2-2.6c-1.3-1.7-3.3-2.6-5.3-3.3c-2-0.7-4,0.2-5.8,0.8c-0.5-0.2-0.8-0.6-1-1.1c-0.1-1,0.1-1.9,0.5-2.7
		c0.1-0.6,0.5-1.1,0.7-1.7c0.5-1.4,0.9-2.8,1-4.4c0.1-0.9-0.7-1.6-1.4-2c-0.5-0.1-1-0.1-1.4,0.3c-0.3,0.7-1,1.2-1.6,1.5
		c-0.1,0.4,0.5,0.2,0.7,0.3c0.6,0.1,1.2-0.1,1.6,0.3c0.1,1-0.5,1.9-1.1,2.6c-0.9,1.3-1.8,2.6-2.3,4l-0.1-0.1l0.1,6.2
		c0.8,1.3,1.8,2.9,3.3,3.4c0.8,0.7,1.8,1.5,2.9,0.9c0.6-0.2,0.6,0.6,0.9,1c0.3,0.9-0.4,1.6-0.4,2.5l-0.7,1.4
		c-0.8,1.5-1.4,3.1-2.6,4.3c-0.4,0-0.6,0.4-1,0.4c-0.2,0.3-0.6,0.1-0.9,0.2c-0.8,0.3-1.9,0.1-2.4,0.9c0.1,0.1,0.1,0.1,0.2,0.1
		c1.5,0,3.3,0.1,4.9,0.1c0.2-0.1,0.4-0.3,0.4-0.5c-0.2-0.4,0.1-0.8,0.3-1.1c0.1-0.6,0.5-1,0.7-1.6c0.5-1,1.1-2.1,1.7-3.1l0.8-1.3
		c0.2-0.4,0.5-1,0.8-1.4c0.2-0.2,0.3-0.4,0.5-0.7c0-0.3-0.1-0.4-0.2-0.5c0.2-0.2,0.5-0.1,0.7-0.2c0.6,0.4,1.3,1,1.4,1.7l0.2,0.7
		l0.1,0.3l-0.1,0.8l0.1,0.8c0.1,1.2-0.1,2.5-0.2,3.7c-0.4,1.5-2.1,1.3-3.3,1.7c-0.3,0.2-0.9,0.1-0.9,0.6c1.5,0.3,3.2,0.1,4.7,0.1
		c0.2-0.1,0.3-0.3,0.4-0.6c0.1-0.3,0.4-0.6,0.3-1c-0.3-0.4,0-0.9-0.1-1.4c0.1-0.1,0.1-0.3,0-0.5c0.2-0.7,0.2-1.6,0.3-2.3
		L-32.8,100.2L-32.8,100.2z"/>
	<path d="M-20.3,99.2c-0.8,1.1-1.7,2.4-3.1,2.9c-0.1,0-0.2,0.1-0.2-0.1c0.9-0.9,1.3-2.3,2.7-2.7C-20.8,99.2-20.5,99.1-20.3,99.2
		L-20.3,99.2z"/>
	<path d="M-89.3,100.4c-0.1,0.1,0,0.3-0.2,0.4c-0.2,0.1-0.4,0-0.5-0.2c-0.1-0.3,0.1-0.5,0.3-0.6C-89.6,100.1-89.4,100.2-89.3,100.4
		L-89.3,100.4z"/>
	<path d="M-82,100.8c0.1,0.2-0.2,0.2-0.3,0.3c-1.1,0.4-2.1,0-2.9-0.7c0-0.1,0-0.2,0.1-0.2C-84.1,100.4-82.9,100.2-82,100.8
		L-82,100.8z"/>
	<path d="M-87.9,100.5c0.1,0.1,0.1,0.3,0.1,0.4c-0.2,0.2-0.4,0.3-0.6,0.2c-0.2-0.1-0.2-0.2-0.3-0.3c0-0.3,0.2-0.4,0.4-0.5
		C-88.2,100.3-88.1,100.3-87.9,100.5L-87.9,100.5z"/>
	<path d="M-64.3,100.6c0.1,0.2-0.2,0.4-0.3,0.5c-0.2,0.1-0.4-0.1-0.5-0.2c-0.1-0.2,0-0.4,0.2-0.5C-64.7,100.3-64.3,100.4-64.3,100.6
		L-64.3,100.6z"/>
	<path d="M-19.4,100.7c0.1,0.2-0.1,0.4-0.3,0.5c-0.2,0.1-0.3,0-0.5-0.1c0-0.1-0.2-0.2-0.1-0.4c0.1-0.2,0.3-0.3,0.6-0.3
		C-19.6,100.5-19.5,100.6-19.4,100.7L-19.4,100.7z"/>
	<path d="M-17.7,100.6c0.2,0.2,0,0.4-0.1,0.6c-0.1,0.2-0.3,0.2-0.5,0.2c-0.2-0.2-0.4-0.2-0.4-0.5c0-0.2,0.2-0.4,0.4-0.4
		C-18,100.3-17.9,100.6-17.7,100.6L-17.7,100.6z"/>
	<path d="M-90.4,101.3c0,0.2-0.1,0.3-0.2,0.4c-0.1,0.1-0.2,0.2-0.4,0.1c-0.2-0.1-0.3-0.2-0.4-0.4c0.1-0.2,0.2-0.4,0.5-0.5
		C-90.7,101-90.5,101.1-90.4,101.3L-90.4,101.3z"/>
	<path d="M-37.2,101.3c0.1,0.1,0,0.2,0,0.3c-0.2,0.2-0.4,0.4-0.6,0.2c-0.2-0.2-0.3-0.3-0.2-0.5C-37.8,101.1-37.4,101-37.2,101.3
		L-37.2,101.3z"/>
	<path d="M-86.3,101.7c-0.1,0.2-0.1,0.4-0.4,0.4s-0.3-0.2-0.4-0.3c0-0.2,0-0.5,0.2-0.6C-86.6,101.1-86.3,101.4-86.3,101.7
		L-86.3,101.7z"/>
	<path d="M-88.7,101.8c0.1,0.3-0.1,0.4-0.2,0.6c-0.3,0.1-0.6-0.1-0.7-0.4c0-0.2,0.2-0.5,0.5-0.6C-89,101.4-88.9,101.6-88.7,101.8
		L-88.7,101.8z"/>
	<path d="M-35.5,101.7c0.1,0.2,0,0.5-0.3,0.6c-0.3,0.1-0.6-0.2-0.7-0.4c0.1-0.2,0.2-0.5,0.5-0.5C-35.8,101.4-35.6,101.5-35.5,101.7
		L-35.5,101.7z"/>
	<path d="M-87.6,101.8c0.1,0.2-0.1,0.3-0.1,0.4c-0.1,0-0.2,0.2-0.4,0.1c-0.1-0.1-0.3-0.2-0.3-0.4c0-0.3,0.2-0.4,0.3-0.5
		C-87.8,101.4-87.6,101.6-87.6,101.8L-87.6,101.8z"/>
	<path d="M-20.8,102c-0.1,0.2-0.2,0.3-0.4,0.4c-0.2,0.1-0.3-0.1-0.5-0.2c-0.1-0.1-0.1-0.3,0-0.5C-21.5,101.3-20.8,101.5-20.8,102
		L-20.8,102z"/>
	<path d="M-18.9,102.1c-0.1,0.3-0.4,0.4-0.6,0.4c-0.2-0.1-0.5-0.3-0.3-0.6c0.1-0.1,0.1-0.2,0.3-0.2
		C-19.2,101.6-18.9,101.9-18.9,102.1L-18.9,102.1z"/>
	<path d="M-30.8,102.3c0.1,0.3-0.2,0.4-0.4,0.6c-0.2,0-0.3-0.1-0.5-0.2c-0.1-0.3,0.1-0.5,0.4-0.7C-31.1,102-31,102.1-30.8,102.3
		L-30.8,102.3z"/>
	<path d="M-37.8,102.6c0.1,0.1,0.1,0.2,0.1,0.3c-0.2,0.1-0.4,0.4-0.6,0.2c-0.2-0.1-0.3-0.3-0.3-0.5
		C-38.5,102.4-37.9,102.3-37.8,102.6L-37.8,102.6z"/>
	<path d="M-36.4,102.8c0,0.2,0,0.3-0.2,0.4c-0.2,0.2-0.4,0-0.6-0.1c-0.1-0.1-0.1-0.3,0-0.4c0.1-0.1,0.2-0.2,0.3-0.2
		C-36.7,102.6-36.5,102.6-36.4,102.8L-36.4,102.8z"/>
	<path d="M-79.3,102.8c0.2,0.2,0,0.3-0.1,0.5c-0.1,0.2-0.4,0.3-0.6,0.1c-0.2-0.1-0.2-0.4-0.2-0.6c0.2-0.1,0.2-0.2,0.4-0.2
		C-79.5,102.6-79.4,102.7-79.3,102.8L-79.3,102.8z"/>
	<path d="M-28.1,102.9c0.1,0.3-0.2,0.4-0.4,0.4c-0.3,0.1-0.5-0.1-0.6-0.3c0-0.2,0.1-0.2,0.2-0.4C-28.6,102.5-28.3,102.7-28.1,102.9
		L-28.1,102.9z"/>
	<path d="M-29.5,102.9c0.1,0.3-0.2,0.4-0.3,0.5c-0.2,0.1-0.4,0.1-0.6-0.1c-0.1-0.1-0.1-0.2-0.1-0.4c0.2-0.1,0.2-0.3,0.4-0.3
		C-29.8,102.6-29.6,102.7-29.5,102.9L-29.5,102.9z"/>
	<path d="M-18.1,103.2c0.1,0.4-0.4,0.2-0.6,0.3c-1.1,0.6-2.4,0.2-3.4-0.2c0.1-0.3,0.5-0.2,0.7-0.3
		C-20.4,102.2-19.3,103.1-18.1,103.2L-18.1,103.2L-18.1,103.2z"/>
	<path d="M-87.3,102.9l-0.1,0.2c-0.9,0.6-2.1,0.9-3.3,0.6l-0.1-0.2C-89.8,102.8-88.6,102.7-87.3,102.9L-87.3,102.9L-87.3,102.9z"/>
	<path d="M-25.6,103.1c0,0.2-0.1,0.4-0.2,0.5c-0.2,0.1-0.6,0-0.7-0.3c-0.1-0.2,0.1-0.4,0.3-0.5C-26,102.8-25.7,102.8-25.6,103.1
		L-25.6,103.1z"/>
	<path d="M-82.8,103.2c-0.1,0.2-0.1,0.4-0.3,0.5s-0.6-0.1-0.6-0.3c-0.1-0.3,0.1-0.4,0.2-0.5C-83.1,102.7-82.9,103-82.8,103.2
		L-82.8,103.2z"/>
	<path d="M-84.5,103.3c0.1,0.2-0.1,0.3-0.1,0.4c-0.1,0.2-0.4,0.1-0.5,0.1c-0.2-0.2-0.4-0.3-0.3-0.6c0.2-0.1,0.2-0.2,0.4-0.3
		C-84.8,103-84.6,103.1-84.5,103.3L-84.5,103.3z"/>
	<path d="M-23.8,103.9c0,0.2-0.2,0.4-0.4,0.5c-0.2,0-0.4-0.1-0.5-0.3c-0.1-0.2-0.1-0.4,0.1-0.5c0.1-0.1,0.2-0.1,0.3-0.1
		C-24,103.5-23.8,103.7-23.8,103.9L-23.8,103.9z"/>
	<path d="M-86.4,103.6c0.1,0.2-0.1,0.3-0.1,0.4c-0.1,0.4-0.4,0.7-0.5,1.1c-0.5,0.6-1.2,0.6-1.8,0.8l-0.1-0.2
		C-88.3,104.8-87.5,104-86.4,103.6L-86.4,103.6L-86.4,103.6z"/>
	<path d="M-25.1,104.2c0.1,0.3-0.2,0.4-0.4,0.5c-0.2,0-0.4-0.1-0.5-0.3c-0.1-0.3,0.2-0.4,0.3-0.5C-25.4,103.8-25.1,104-25.1,104.2
		L-25.1,104.2z"/>
	<path d="M-83.5,104.2c0,0.1,0,0.1,0.1,0.1c0,0.3-0.2,0.4-0.4,0.5c-0.2,0-0.4-0.1-0.6-0.2c-0.1-0.2,0-0.5,0.2-0.6
		C-83.9,103.9-83.6,103.9-83.5,104.2L-83.5,104.2z"/>
	<path d="M-20.4,104.9c0.2,0,0.3-0.3,0.6-0.4c0.2-0.1,0.5,0.1,0.6,0.3c0.1,0.3-0.1,0.5-0.3,0.6c-0.2,0.1-0.6-0.2-0.5,0.2
		c0.2,0.1,0.3,0.3,0.4,0.5c-0.1,0.1-0.2,0.1-0.3,0c-0.7-0.3-1.5-0.8-1.8-1.6c-0.1-0.2-0.6-0.4-0.3-0.6
		C-21.4,103.9-20.8,104.5-20.4,104.9L-20.4,104.9z"/>
	<path d="M-18,104.2c0.1,0.1,0.1,0.4,0,0.5c-0.1,0.3-0.5,0.2-0.7,0.1c-0.1-0.1-0.2-0.3-0.2-0.5c0.1-0.2,0.2-0.2,0.4-0.3
		C-18.3,103.9-18.2,104-18,104.2L-18,104.2z"/>
	<path d="M-27.2,105.5c0.2,0.3,0.5,0.7,0.6,1c-0.1,0.1-0.2,0.1-0.2,0.1c-0.9-0.5-2-1-2.3-2c-0.1-0.1-0.3-0.2-0.2-0.4
		c0.7-0.1,1.3,0.4,1.7,0.7C-27.5,105.1-27.3,105.3-27.2,105.5L-27.2,105.5z"/>
	<path d="M-84.9,104.6c0.1,0.2-0.1,0.4-0.2,0.5c-0.3,0.1-0.4-0.1-0.6-0.2c-0.2-0.3,0.2-0.5,0.4-0.6
		C-85.2,104.2-85.1,104.4-84.9,104.6L-84.9,104.6z"/>
	<path d="M-24,105.2c0,0.2-0.2,0.3-0.2,0.4c-0.2,0-0.4,0.1-0.6-0.1c-0.1-0.1-0.2-0.3,0-0.5C-24.6,104.6-24.2,104.9-24,105.2
		L-24,105.2z"/>
	<path d="M-17.7,105.5c0.1,0.3-0.2,0.5-0.4,0.6c-0.2,0.1-0.5-0.1-0.6-0.2c-0.1-0.2,0-0.3,0-0.5c0.2-0.2,0.4-0.3,0.7-0.2
		C-17.9,105.3-17.8,105.4-17.7,105.5L-17.7,105.5z"/>
	<path d="M-35.2,109c0,0.3-0.6,0.2-0.8,0.5c-0.8,0.4-1.7,0.4-2.7,0.4v-0.2C-37.7,108.9-36.4,108.7-35.2,109L-35.2,109z"/>
	<path d="M-72.1,110.1c0,0.2-0.2,0.4-0.4,0.4c-0.2,0-0.4-0.1-0.4-0.2c-0.1-0.3,0.2-0.4,0.3-0.6C-72.3,109.8-72.1,109.9-72.1,110.1
		L-72.1,110.1z"/>
	<path d="M-35.6,110.4c-0.1,0.2-0.1,0.5-0.4,0.6c-0.2,0.1-0.4-0.1-0.6-0.2c-0.1-0.1-0.1-0.3-0.1-0.4
		C-36.5,109.9-35.8,109.9-35.6,110.4L-35.6,110.4z"/>
	<path d="M-30.6,110.5c-0.6,0.4-1.3,0.9-2.2,0.9l-1.4,0l-0.1-0.1c0.8-1,2.4-1,3.7-0.9V110.5L-30.6,110.5z"/>
	<path d="M-79,111.1c0,0.2-0.1,0.4-0.3,0.5c-0.2,0.1-0.4-0.1-0.5-0.2c-0.1-0.2,0-0.5,0.2-0.6C-79.4,110.6-79.1,110.9-79,111.1
		L-79,111.1z"/>
	<path d="M-77.7,111.4c0.1,0.1-0.1,0.2-0.1,0.3c-0.1,0.1-0.4,0.1-0.5,0c-0.2-0.1-0.2-0.3-0.2-0.4c0.1-0.2,0.2-0.1,0.3-0.2
		C-78,111.1-77.8,111.2-77.7,111.4L-77.7,111.4z"/>
	<path d="M-87.4,113.9c-0.2,0.3-0.7-0.1-0.9-0.2c-0.9-0.5-0.9-1.5-1.7-2.1c0.1-0.3,0.3,0,0.5,0c0.2,0.1,0.4,0.2,0.5,0.3
		C-88.2,112.4-88,113.2-87.4,113.9L-87.4,113.9z"/>
	<path d="M-13.7,104.1c-0.4-0.7-1.1-1-1.9-1c-0.7,0.1-1.1,0.5-1.4,1c-0.2,0.6,0.1,1.1,0.5,1.4c0.2,0.1,0.4,0.1,0.5-0.1
		c0.1-0.3-0.2-0.3-0.3-0.6c-0.1-0.4,0-0.7,0.3-0.9c0.2-0.3,0.7-0.1,1-0.1c0.3,0.2,0.6,0.4,0.8,0.7c0.2,0.4,0.2,0.9,0,1.3
		c-0.3,0.6-0.9,1.1-1.6,1.3c-2.1,0.3-25.1,0.2-25.1,0.2c-2.7,0.3-5.8-0.5-8.1,0.9c-1.1,0.5-1.6,1.7-1.9,2.7c-0.7,0.6-1.4,1.3-2,2
		l-0.1-0.1c0.1-0.6,0.4-1.2,0.5-1.8c0.4-0.5,0.4-1.2,0.7-1.8c1-1.6,1.9-3.1,3.4-4.2c0.6-0.8,1.7-0.7,2.7-0.7c1,0.5,2.2,0.6,3.5,0.5
		c0.1-0.1,0.1-0.1,0.1-0.2c-0.4-0.3-0.9-0.5-1.3-0.8c-1-0.5-2,0.2-3,0.1c-0.1-0.1-0.1-0.1-0.1-0.2c1-0.7,2.1-1.2,3.1-1.7
		c0.9-0.5,1.8-0.7,2.8-1.1c0.4,0,0.7-0.3,1.1-0.1l1.3-0.4c0.1,0,0.1,0.1,0.2,0.1c1.1-0.4,2.6,0,3.9-0.1l0.2,0.2l1.2,0.3
		c0.5,0.1,0.7,0.6,1.1,0.6c0.2-0.4-0.3-0.5-0.4-0.7c0.6-0.1,1.2,0,1.7,0.3l-0.2,0.3c-0.1,0.3,0.1,0.5,0.3,0.6
		c0.2,0.1,0.3-0.1,0.4-0.1c0.3-0.2,0-0.5,0.1-0.7c1.9,0.3,3.7,0.8,5.4,1.5c0.5,0.2,0.9,0.5,1.5,0.5c-0.5-0.5-1.3-0.7-1.9-1
		c-0.4-0.3-1-0.3-1.4-0.6c0.1-0.1,0.2-0.1,0.3-0.2c0.9-0.1,1.6-0.7,2.2-1.4c0.1-0.2,0.3-0.1,0.3-0.3c-0.2-0.3-0.6,0.1-0.9,0.1
		c-1.1,0.2-1.5,1.5-2.6,1.7c-1.3-0.3-2.6-0.6-3.9-0.9c-0.6-0.1-1.3-0.2-1.9-0.4l-1.4-0.1h-2.6c0-0.1-0.1-0.1-0.1-0.2
		c0.9-0.2,1.7-0.8,2.6-1l6.8-3.1c0.7-0.6,1.3-1.3,1.9-2.1c0-0.2-0.1-0.4-0.3-0.5c-0.2-0.1-0.4-0.1-0.5,0.1c-0.3,0.2,0,0.5,0,0.8
		c-0.3,0.4-0.8,0.8-1.2,1c-0.1,0-7,3.1-7,3.1c-1,0.4-2,0.9-3.1,1.1l-1.5,0.2c-0.1,0.3-0.4,0.5-0.6,0.6c-0.4,0.1-0.7,0.3-1.2,0.3
		c-3.3,1.3-6.7,2.6-9.3,5.2c0.2-0.3,0.2-0.7,0.2-1.1c-0.1-0.4,0-0.8-0.3-1.1c-0.1-0.1-0.2-0.5-0.2-0.7l-0.4,0.2
		c-0.2,0.6-0.4,1.6-0.2,2.2c0.1,0.5,0.5,1,0.1,1.4c-1.2,1.5-1.9,3.3-2.7,4.9c-0.3-0.1-0.5-0.3-0.6-0.6c0.9-1.1,1.5-2.3,1.8-3.7
		c0.2-0.1,0.1-0.5,0.2-0.6c-0.1-0.4,0.2-0.8,0-1.2c0.2-0.5-0.7-1.1-0.2-1.4l-0.5,0.2c-1.1,1.4,0.6,3.6-0.7,4.9v0.1
		c-0.4,0.5-0.5,0.9-1,1.2c-0.6-0.2-0.8-0.9-1.2-1.5c-0.6-0.5-0.6-1.6-0.2-2.4c0.2-0.7-0.2-1.4-0.2-2l-0.2-0.2c-0.6,0.8-0.8,2-0.4,3
		c0.2,0.5,0.3,1.1,0.7,1.5c0.2,0.7,0.7,1.2,1.1,1.9c0.1,0.3-0.2,0.3-0.3,0.4c-0.3-0.2-0.2-0.6-0.5-0.8c-0.8-1.8-1.9-3.2-3.2-4.7
		c-0.1-0.2-0.3-0.4-0.2-0.7c0.5-0.5,0.6-1.3,0.3-1.9c-0.1-0.1-0.2-0.3-0.2-0.4l-0.4-0.3c0.1,0.9-0.5,1.7-0.3,2.6v0.1
		c-2.6-2-5.5-3.7-8.4-5.1l-0.2,0.6c0.7,0.2,2.7,1.4,2.7,1.4c0.9,0.3,1.7,0.9,2.5,1.3c3.4,1.9,5.7,5.1,7.3,8.6c0,0.3,0.3,0.6,0.1,0.9
		c-0.5-0.8-1.3-1.3-1.9-1.9c-0.2-1.2-0.9-2.3-1.9-2.8c-0.4-0.6-1.2-0.6-1.8-0.8l-9.2-0.1c-7.5-0.1-14.3,0.2-21.7,0.1
		c-1-0.1-2.3-0.5-2.6-1.6c-0.2-0.4-0.2-1,0-1.4c0.3-0.5,0.8-0.6,1.3-0.7c0.4,0.1,0.7,0.4,0.9,0.7c0,0.3-0.3,0.6-0.4,0.9
		c0,0.1,0.1,0.3,0.3,0.2c0.3-0.1,0.6-0.5,0.7-0.8c0-0.2,0.1-0.4-0.1-0.6c-0.2-0.5-0.7-0.9-1.2-1c-0.6-0.1-1.3,0.1-1.7,0.6
		c-0.6,0.5-0.6,1.4-0.4,2.1c0.4,1.1,1.6,1.9,2.7,2.1l24.6,0.1c2.4,0.1,5.1-0.3,7.5,0.2c0.9,0.3,1.8,0.9,2.1,1.9c0,0.1-0.1,0-0.2,0
		c-2-1.3-4.6-1.8-7.2-1.5c-1-0.1-1.9,0.3-2.8,0.6c-0.5,0.1-0.9-0.1-1.2-0.4c-0.9-0.8-2.5-0.8-3.7-0.5c0,0.1,0,0.2,0,0.2
		c1.2-0.1,2,1,3.1,1.1c0.2,0.1,0.5-0.2,0.7,0c-1.2,0.6-2.3,1.2-3.5,1.6c-0.4-0.1-0.6-0.4-0.9-0.6c-0.5-0.5-1.4-0.3-2-0.4
		c-0.2,0.1-0.4-0.1-0.6,0c0.2,0.4,0.7,0.6,1.1,0.8c0.6,0.3,1.4,0,1.9,0.4c-0.2,0.2-0.4,0.2-0.5,0.4c-1.2,0.5-2.2,1.5-3.5,1.5
		c-1.4,0.2-2.8-0.3-3.7-1.2c-0.4-1-1.4-1.5-2.5-1.5c-0.1,0.1-0.2,0.1-0.2,0.2c0.6,0.3,1,1,1.5,1.4c0.4,0.4,1,0,1.4,0.5
		c0.5,0.3,1.1,0.6,1.6,0.7c0.4,0.2,0.9,0.3,1.3,0.4l-0.2,0.1c-2.3,0.8-5,0.8-7.5,0.7c-0.8,0-1.5-0.2-2.2-0.2
		c0.1,0.2,0.4,0.3,0.6,0.4c-0.2,0.1-0.4,0.2-0.7,0.2c-0.3,0.1-0.7,0.1-1,0.3c-0.4,0-0.8,0.1-1.1,0.2c-0.4,0.5-0.9,0.9-1.4,1.2
		c0,0.1,0,0.3,0.1,0.3c0.5-0.2,1.1-0.1,1.6-0.3c0.8-0.1,1.3-1,2-1.4c0.7-0.6,1.7-0.4,2.6-0.3c0.5,0.1-0.1,0.3,0.1,0.7
		c0.2,0.2,0.4,0.4,0.7,0.3c0.1-0.1,0.1-0.1,0.2-0.1c0.2-0.2,0.1-0.4,0-0.6c0.4-0.2,0.8,0,1.2-0.1c1,0,1.9-0.2,2.9-0.3
		c0.2,0,0.3-0.2,0.5,0c-0.1,0.2-0.3,0.2-0.2,0.5c0.1,0.2,0.3,0.3,0.5,0.4c0.2-0.1,0.5-0.3,0.4-0.6c-0.1-0.2-0.2-0.2-0.4-0.3
		c0.5-0.3,1.1-0.3,1.7-0.6c0.4-0.1,0.7-0.2,1.1-0.4c0.3,0,0.6-0.3,0.9-0.2c-0.1,0.4-0.3,0.8-0.5,1.2c-0.4,1.3-0.7,3.1,0,4.4
		c0.1,0,0.1,0,0.2-0.1c-0.5-1.3-0.2-2.9,0.2-4.2c0.4-2.2,2.6-2.8,4.2-3.6l0.1,0.1c-0.4,1.1-1.1,2.2-1,3.5c0.1,0.2-0.1,0.5,0,0.6
		c0.4-0.2,0.7-0.7,0.9-1.2c0.2-1.1-0.5-2.6,0.7-3.4c2.1-0.8,4-1.9,6.4-1.9c0.1,0.1,0.2-0.1,0.3,0.1c-0.5,0.6-1.2,1.1-1.5,1.8
		c-0.8,1.1-0.8,3-0.4,4.4c0.2,0.8-0.5,1.2-0.8,1.8c-0.2,0.2-0.2,0.6-0.3,0.8l0.5,0.1c0.4-0.5,0.8-1,0.9-1.7c0.1,0.3,0.3,0.5,0.5,0.5
		c0.2-0.3-0.2-0.5-0.2-0.8c0.4-0.2,0.6,0.3,0.9,0.4c0.5,0.1,1,0.4,1.5,0.4l0.2-0.2c-0.6-0.9-1.7-1-2.6-1.1c-0.5-0.8-0.5-1.9-0.5-2.9
		c0.1-0.5,0.2-1.1,0.5-1.6c0.1-0.4,0.5-0.7,0.7-1c0.5-0.4,1-0.7,1.6-0.9h0.1c0,0.1,0,0.1,0,0.1c-0.7,0.5-0.8,1.3-1.2,1.9
		c-0.4,0.6-0.6,1.5-0.2,2.2c0.2,0.3,0.1,0.8,0.4,1.1c0.3-0.5,0.4-1,0.5-1.6c-0.1-0.8-0.6-1.6-0.1-2.4c0.2-0.6,0.8-0.9,1.4-1.1
		c1.4-0.1,2.6,0.6,3.8,1.1c0.2,0.2,0.7,0.3,0.7,0.7c0,0.7-0.4,1.4-0.9,1.7c-0.7,0.4-1.7,0.5-2.3,0c-0.4-0.4-0.5-1-0.4-1.6
		c0.3-0.3,0.7-0.6,1.1-0.4c0.3,0.1,0.5,0.4,0.8,0.2c0.1-0.1,0.2-0.3,0.1-0.4c-0.3-0.2-0.4-0.5-0.8-0.6c-0.5-0.1-1.1-0.1-1.4,0.3
		c-0.5,0.5-0.7,1.2-0.6,1.8c0.2,0.8,0.8,1.4,1.6,1.6c1.2,0.3,2.4-0.1,3.1-1.1c0.3-0.3,0.4-0.7,0.6-1.1c1.2,0.7,2.1,2,2.6,3.4
		c0,0.4,0.1,0.9,0,1.3l0.9,0.1c-0.1-0.2,0-0.4,0.1-0.6c0.3-1.7,1.4-3.1,2.6-4.2c0.4-0.3,0.3,0.3,0.4,0.5c0.4,1,1.3,1.7,2.2,1.9
		c1.1,0.2,2.1-0.1,2.7-0.9c0.3-0.6,0.7-1.5,0.2-2.1c-0.4-0.4-0.8-0.7-1.4-0.7c-0.7,0-1.1,0.5-1.4,0.9c0,0.2,0,0.4,0.2,0.5
		c0.1,0,0.3,0,0.4-0.1c0.1-0.4,0.4-0.6,0.7-0.8c0.3-0.2,0.6,0,0.8,0.2c0.3,0.2,0.3,0.6,0.4,1c-0.1,0.5-0.4,1-0.8,1.2
		c-0.7,0.4-1.8,0.2-2.4-0.2c-0.3-0.3-0.5-0.7-0.7-1.1c-0.1-0.4-0.2-0.8,0-1.2c1.1-0.7,2.3-1.1,3.6-1.3c0.5,0.1,1,0.5,1.3,0.8
		c1.2,1.2-0.2,2.9,0.6,4.2c0.3-0.1,0.3-0.5,0.4-0.7c0.4-0.9-0.1-1.9-0.3-2.8c-0.3-0.6-0.5-1-1-1.5c0.1-0.1,0.2-0.1,0.3-0.1
		c0.5,0.4,1.1,0.8,1.5,1.3c0.7,1.2,1.1,2.6,1,4.2c-0.2,0.8-1,1.1-1.6,1.4c-0.2,0.2-0.6,0.5-0.7,0.8c0.3,0.2,0.7,0,1-0.1
		c0.5-0.2,0.8-0.8,1.1-1.1c0.1,0,0,0.1,0.1,0.2c0,0.3-0.1,0.7,0.1,0.7c0.1-0.4,0.2-0.9,0.2-1.3c0.3,0.4,0.4,0.8,0.5,1.3
		c0.2,0.5,0.6,1.1,1.2,1.1c0.2-0.2,0-0.5-0.1-0.7c-0.1-0.6-0.6-1-1-1.4c-0.9-1.2-0.5-3.1-1.2-4.5c-0.2-0.7-0.8-1.3-1.4-1.9l0.1-0.1
		c1.2,0,2.3,0.4,3.4,0.6c1.4,0.7,3.4,0.5,4.1,2.3c0.3,1,0.7,2,1.4,2.7l0.1-0.1c0.2-0.2,0.2-0.7,0-0.9c-0.2-1.3-1.3-1.6-1.8-2.6
		l0.1-0.1c0.6,0.2,1.2,0.3,1.8,0.6c2,0.6,3.4,2.5,3.7,4.6c0,1.6-0.3,3-0.9,4.4c-0.1,0.2-0.4,0.4-0.2,0.6c0.3-0.2,0.3-0.5,0.5-0.8
		c0.8-1.4,1.3-3.3,0.8-5.1c0-0.3-0.4-0.6-0.2-0.9c0.1,0.2,0.3,0.2,0.4,0.2c0.2-0.1,0.4-0.1,0.5-0.3c0-0.2,0.1-0.3,0-0.5
		c-0.2-0.2-0.5-0.2-0.7-0.2c-0.1,0.2-0.3,0.4-0.3,0.6c-0.2-0.4-0.5-1-0.9-1.3l0.1-0.1c1.1,0.4,2.2,0.9,3.3,1.2
		c0.2,0.2,0.5,0.3,0.9,0.3c1,0.4,2.1,0.5,3.1,0.8c0.8-0.1,1.4,0.3,2.1,0.1v-0.1l0,0c-0.3-0.4-0.9,0-1.2-0.3c-1.7-0.2-3.4-0.6-5-1.2
		c0-0.1,0.1-0.1,0.2-0.1c0.2-0.1,0.4-0.4,0.4-0.6c-0.1-0.2-0.3-0.3-0.6-0.3c-0.2,0.1-0.4,0.2-0.4,0.4c0,0.2,0.2,0.4,0.4,0.5
		c-0.1,0.1-0.2,0-0.2,0c-0.8-0.4-1.5-0.7-2.3-1c-0.3-0.1-0.5-0.3-0.8-0.3c-0.6-0.3-1.2-0.6-1.7-0.8c-1.6-0.8-3.4-1.3-5.1-1.9
		c-0.4-0.1-0.7-0.2-1.1-0.3c-0.6-0.2-1.3-0.3-1.9-0.5c-2.1-0.5-5-0.6-6.9,0.6c-0.3-0.1-0.5,0.4-0.6,0.1c0.5-1.4,2.1-1.9,3.5-1.9
		c10.1-0.1,19.6-0.2,29.6-0.3c1.2,0,2.3-0.4,2.9-1.5C-13.5,105.8-13.4,104.7-13.7,104.1L-13.7,104.1z M-53.9,113.4
		c-0.1,0.3-0.3,0.6-0.3,0.9l-0.1,0.1c0.1-0.4-0.3-0.6-0.2-1c-0.2-0.3-0.2-0.7-0.4-1c-0.2-0.4,0.2-0.6,0.4-0.9
		c0.4,0.2,0.5,0.5,0.7,0.8C-53.6,112.7-53.9,113-53.9,113.4L-53.9,113.4z"/>
	<path d="M-26.5,111.8c0,0.1,0.2,0.1,0.1,0.2c-0.9,0.8-2.1,1-3.4,1.1c-0.1,0-0.2,0.1-0.3,0.1c-0.1-0.1-0.1-0.1-0.1-0.2
		C-29.3,112-27.9,111.5-26.5,111.8L-26.5,111.8z"/>
	<path d="M-30.6,112.3c0.1,0.4-0.1,0.6-0.4,0.7c-0.3,0-0.4-0.2-0.6-0.4c-0.1-0.2,0.1-0.3,0.2-0.4C-31.2,111.9-30.7,111.9-30.6,112.3
		L-30.6,112.3z"/>
	<path d="M-78.6,112.3c0.1,0.2,0,0.4-0.1,0.5c-0.1,0.1-0.3,0.2-0.5,0.1c-0.2,0-0.3-0.2-0.3-0.4c0-0.2,0.1-0.4,0.3-0.5
		C-79,112.1-78.8,112.1-78.6,112.3L-78.6,112.3z"/>
	<path d="M-83.1,114v0.2c-0.6,0.1-1.2,0-1.6-0.4c-0.4-0.5-0.8-1-1.3-1.3c0-0.1-0.2-0.2,0-0.2C-84.8,112.3-84.1,113.3-83.1,114
		L-83.1,114z"/>
	<path d="M-22.7,112.3c-0.6,0.9-1.1,1.9-2.1,2.3c-0.2,0-0.3,0.3-0.5,0.1c0.4-1,1.3-2,2.2-2.4C-22.9,112.3-22.8,112.2-22.7,112.3
		L-22.7,112.3z"/>
	<path d="M-77.1,112.6c0,0.3-0.2,0.3-0.4,0.5c-0.2,0-0.3-0.1-0.4-0.3c-0.1-0.3,0.1-0.4,0.3-0.5C-77.5,112.3-77.2,112.4-77.1,112.6
		L-77.1,112.6z"/>
	<path d="M-19.5,112.7c-0.2,0.3-0.1,0.8-0.4,1.2c-0.5,0.6-0.9,1.2-1.7,1.4c-0.1-0.2,0.2-0.5,0.3-0.7c0.4-0.8,0.9-1.6,1.7-2
		L-19.5,112.7L-19.5,112.7z"/>
	<path d="M-91,113c0.1,0.2,0.2,0.4,0,0.6c-0.1,0.1-0.4,0.2-0.6,0.1c-0.2-0.1-0.3-0.4-0.2-0.6C-91.6,112.8-91.1,112.7-91,113L-91,113
		z"/>
	<path d="M-92.4,113.3c0,0.1,0.1,0.2,0.1,0.4c-0.1,0.1-0.2,0.3-0.4,0.3c-0.3,0.1-0.5-0.1-0.6-0.3c0-0.2,0.1-0.4,0.2-0.5
		C-92.8,113-92.5,113.1-92.4,113.3L-92.4,113.3z"/>
	<path d="M-89.4,113.4c0.1,0.2,0.1,0.6-0.2,0.6c-0.4,0.2-0.6-0.1-0.8-0.3c0-0.2,0.1-0.4,0.3-0.5C-89.8,113.2-89.6,113.2-89.4,113.4
		L-89.4,113.4z"/>
	<path d="M-85.3,113.8c0,0.2,0,0.4-0.2,0.5c-0.1,0.1-0.4,0.1-0.5,0.1c-0.1-0.2-0.3-0.3-0.2-0.5c0.1-0.1,0.2-0.2,0.4-0.3
		C-85.6,113.6-85.4,113.5-85.3,113.8L-85.3,113.8z"/>
	<path d="M-17,113.9c-0.1,0.2-0.2,0.4-0.4,0.4c-0.2,0-0.5-0.1-0.6-0.3c-0.1-0.3,0.1-0.4,0.3-0.5C-17.4,113.5-17.1,113.7-17,113.9
		L-17,113.9z"/>
	<path d="M-21.7,114.1c0,0.2-0.2,0.4-0.3,0.4c-0.4,0.2-0.7-0.1-0.8-0.4c0.1-0.2,0.2-0.4,0.4-0.5C-22,113.6-21.8,113.8-21.7,114.1
		L-21.7,114.1z"/>
	<path d="M-18.5,114c0,0.2-0.1,0.4-0.2,0.4c-0.2,0.1-0.5,0.1-0.6-0.1c-0.2-0.2-0.1-0.4,0.1-0.5C-19,113.7-18.6,113.7-18.5,114
		L-18.5,114z"/>
	<path d="M-91.6,114.4c0.1,0.3-0.1,0.5-0.3,0.6c-0.2,0-0.5-0.1-0.6-0.4c0-0.2,0.1-0.5,0.2-0.5C-92,114.1-91.8,114.3-91.6,114.4
		L-91.6,114.4z"/>
	<path d="M-22.9,114.7c0.1,0.3-0.1,0.5-0.4,0.7c-0.2,0.1-0.3-0.1-0.5-0.2c-0.1-0.1-0.2-0.4,0-0.5C-23.6,114.3-23.1,114.4-22.9,114.7
		L-22.9,114.7z"/>
	<path d="M-78,115c0.1,0.3-0.2,0.3-0.3,0.5c-0.1,0.1-0.3,0.1-0.4,0c-0.1-0.2-0.3-0.3-0.2-0.5c0.1-0.1,0.2-0.2,0.3-0.2
		C-78.3,114.6-78.2,114.8-78,115L-78,115z"/>
	<path d="M-17.5,115.2c0.1,0.2-0.1,0.3-0.1,0.4c-0.2,0.1-0.4,0.2-0.6,0.1c-0.2-0.1-0.2-0.3-0.2-0.6c0.1-0.1,0.2-0.2,0.4-0.3
		C-17.9,114.8-17.6,114.9-17.5,115.2L-17.5,115.2z"/>
	<path d="M-19.1,115.3c0.1,0.3-0.2,0.5-0.4,0.5c-0.1,0-0.2-0.1-0.3,0.1c0.7,0.3,1.1,0.9,1.6,1.3v0.2c-0.9,0-1.8-0.2-2.5-1
		c-0.2-0.1-0.5-0.1-0.7-0.3c0.3-0.3,0.9-0.2,1.4-0.2c0.3-0.4-0.4-0.6,0.1-0.9c0.2,0,0.2-0.2,0.5-0.1
		C-19.3,115-19.2,115.1-19.1,115.3L-19.1,115.3z"/>
	<path d="M-29.4,115.3c0.1,0.1-0.1,0.3-0.1,0.4c-0.2,0.2-0.4,0.2-0.6,0.1c-0.1-0.2-0.3-0.3-0.2-0.6
		C-30.1,114.8-29.5,114.9-29.4,115.3L-29.4,115.3z"/>
	<path d="M-85.9,116.2c-0.1,0.2-0.2,0.4-0.4,0.4c-0.2,0-0.4-0.1-0.5-0.3c0-0.2,0.1-0.3,0.1-0.4C-86.4,115.6-85.9,115.8-85.9,116.2
		L-85.9,116.2z"/>
	<path d="M-83.9,115.8c0,0.4-0.4,0.6-0.5,0.9c-0.4,0.8-1.1,1.6-2,1.7c-0.1-0.2,0.3-0.5,0.4-0.7c0.4-0.9,1.2-1.3,1.9-1.9H-83.9
		L-83.9,115.8z"/>
	<path d="M-30,116.2c0,0.3-0.2,0.5-0.4,0.6c-0.2,0.1-0.4-0.1-0.5-0.2c-0.2-0.2-0.1-0.4,0-0.6C-30.6,115.7-30.2,115.9-30,116.2
		L-30,116.2z"/>
	<path d="M-28.4,116.4c0,0.3-0.2,0.5-0.5,0.6c-0.1-0.1-0.2,0-0.2-0.1c-0.2-0.1-0.3-0.3-0.3-0.5c0.1-0.1,0.2-0.3,0.4-0.4
		C-28.9,116-28.5,116.1-28.4,116.4L-28.4,116.4z"/>
	<path d="M-79.9,116.3c0,0.3-0.2,0.4-0.4,0.5c-0.2,0-0.4-0.1-0.5-0.3c-0.1-0.2,0.2-0.4,0.3-0.5C-80.2,116-80.1,116.2-79.9,116.3
		L-79.9,116.3z"/>
	<path d="M-78.2,116.4c-0.1,0.2-0.2,0.4-0.5,0.4c-0.2-0.1-0.4-0.1-0.5-0.3c0-0.3,0.2-0.4,0.4-0.5C-78.5,116.1-78.3,116.2-78.2,116.4
		L-78.2,116.4z"/>
	<path d="M-23,118.2c0.1,0.1,0.4,0.2,0.3,0.4c-0.4,0.2-0.7-0.3-1.1-0.4c-0.6-0.6-1.1-1.3-1.3-2c0.2-0.2,0.5,0.1,0.7,0.1
		C-23.9,116.9-23.3,117.5-23,118.2L-23,118.2z"/>
	<path d="M-22.1,116.4c0.1,0.2,0.1,0.4-0.1,0.6c-0.2,0.3-0.5,0.2-0.7,0.2c-0.1-0.2-0.4-0.4-0.2-0.6c0.1-0.2,0.3-0.3,0.5-0.3
		C-22.4,116.2-22.3,116.4-22.1,116.4L-22.1,116.4z"/>
	<path d="M-75.9,117.1c0,0.2,0.1,0.5-0.2,0.6c-0.2,0.1-0.5,0-0.6-0.3c-0.1-0.3,0.1-0.4,0.3-0.5C-76.2,116.9-76,117-75.9,117.1
		L-75.9,117.1z"/>
	<path d="M-28.5,118.8c0.4,0.5,0.6,1.1,0.7,1.8c-0.1,0.2,0.1,0.4,0,0.5H-28c-1.1-0.8-1.4-2-1.8-3.1c-0.1-0.1-0.1-0.2-0.1-0.3
		c0.2-0.2,0.4,0.2,0.7,0.3L-28.5,118.8L-28.5,118.8z"/>
	<path d="M-72.6,117.9C-72.6,117.9-72.6,118-72.6,117.9c-1,0.8-2.4,1.2-3.6,0.5c0-0.1,0-0.2,0.1-0.2c0.7-0.2,1.4-0.6,2.2-0.5
		L-72.6,117.9L-72.6,117.9z"/>
	<path d="M-78.4,118c-0.9,0.5-1.6,1.6-2.7,1.8c-0.2,0.1-0.3,0.4-0.6,0.2c0.5-1.4,1.9-2.1,3.3-2.2V118L-78.4,118z"/>
	<path d="M-30,119.2c0.1,0.2,0,0.5-0.2,0.5c-0.1,0.1-0.4,0.1-0.5,0c-0.2-0.1-0.2-0.3-0.2-0.5c0.1-0.2,0.2-0.2,0.4-0.3
		C-30.3,119-30.1,119-30,119.2L-30,119.2z"/>
	<path d="M-32.1,119.3c-0.2,0.4-0.6,0.6-0.9,0.7c-0.9,0.3-1.6-0.1-2.4-0.3c0-0.2,0.3-0.1,0.4-0.2c0.8-0.2,1.7-0.4,2.6-0.1
		C-32.4,119.2-32.2,119.2-32.1,119.3L-32.1,119.3z"/>
	<path d="M-78.4,120c-0.1,0.1-0.1,0.3-0.3,0.4c-0.2,0.1-0.4,0-0.5-0.1c-0.1-0.2-0.2-0.3-0.1-0.5c0.1-0.2,0.2-0.2,0.4-0.3
		C-78.6,119.6-78.4,119.8-78.4,120L-78.4,120z"/>
	<path d="M-76.9,120.3c-0.1,0.2-0.2,0.4-0.4,0.5c-0.2,0.1-0.4-0.1-0.5-0.2c-0.1-0.2-0.2-0.3-0.1-0.5c0.1-0.1,0.2-0.2,0.4-0.2
		C-77.2,119.8-77,120.1-76.9,120.3L-76.9,120.3z"/>
	<path d="M-30.5,120.5c0,0.2-0.1,0.3-0.2,0.5c-0.1,0.2-0.4,0.2-0.6,0.1c-0.2,0-0.2-0.2-0.3-0.4c-0.2-0.2,0.1-0.3,0.2-0.5
		C-31.1,120-30.6,120.1-30.5,120.5L-30.5,120.5z"/>
	<path d="M-29.4,120.5c0,0.1,0.1,0.2,0.1,0.4c-0.2,0.1-0.2,0.5-0.6,0.3c-0.1,0.1-0.2-0.2-0.3-0.2c-0.1-0.3,0-0.6,0.3-0.7
		C-29.7,120.2-29.5,120.4-29.4,120.5L-29.4,120.5z"/>
	<path d="M-77.8,121.2c0.1,0.3-0.1,0.5-0.2,0.7c-0.3,0.1-0.6,0.1-0.7-0.3c0-0.2,0-0.6,0.3-0.7C-78.2,120.9-77.9,120.9-77.8,121.2
		L-77.8,121.2z"/>
	<path d="M-76.3,121.1c-0.1,0.7-0.2,1.6-0.9,2c-0.4,0.1-0.8,0.5-1.2,0.2v-0.1C-77.9,122.4-77,121.8-76.3,121.1L-76.3,121.1z"/>
	<path d="M-34.5,121.7c0.1,0.2-0.1,0.3-0.1,0.4c-0.1,0.2-0.4,0.1-0.6,0c-0.2-0.1-0.2-0.3-0.1-0.5c0.1-0.2,0.2-0.2,0.3-0.3
		C-34.8,121.3-34.6,121.5-34.5,121.7L-34.5,121.7z"/>
	<path d="M-73.8,122.9c0.4,0.6,0.2,1.4,0.4,2c-0.4,0.1-0.6-0.4-0.9-0.7c-0.6-0.8-0.5-1.8-0.7-2.7c0.1-0.1,0.1-0.1,0.2-0.1
		c0.4,0.2,0.7,0.7,1,1.1C-74,122.7-73.8,122.7-73.8,122.9L-73.8,122.9z"/>
	<path d="M-33.2,121.9c0,0.2-0.2,0.3-0.4,0.4c-0.2,0-0.3-0.1-0.5-0.2c-0.1-0.2,0.1-0.3,0.2-0.5C-33.5,121.5-33.3,121.6-33.2,121.9
		L-33.2,121.9z"/>
	<path d="M-30.2,124.2c0,0.1,0,0.2-0.2,0.2h-0.1c-0.7-0.7-1.5-1.4-1.4-2.4l0.2,0C-31,122.5-30.2,123.1-30.2,124.2L-30.2,124.2z"/>
	<path d="M-32.1,123.3c0,0.2-0.1,0.4-0.2,0.5c-0.3,0.1-0.7,0.1-0.8-0.3c0-0.3,0.3-0.4,0.4-0.5C-32.4,122.9-32.2,123.1-32.1,123.3
		L-32.1,123.3z"/>
	<path d="M-33.8,123.9c-0.4,0.9-1.3,1.4-2,2.1c-0.1-0.1-0.1-0.3-0.1-0.4c0.2-1,1-1.9,1.9-2.3C-33.4,123.4-33.8,123.7-33.8,123.9
		L-33.8,123.9z"/>
	<path d="M-31.9,124.6c0,0.2-0.2,0.3-0.4,0.5c-0.2,0-0.4-0.1-0.6-0.3c0-0.3,0.2-0.3,0.3-0.5C-32.2,124.3-32,124.4-31.9,124.6
		L-31.9,124.6z"/>
	<path d="M-50.7,78.4c0.3,0,0.6,0.3,0.6,0.6s-0.3,0.6-0.6,0.6h-7.5c-0.3,0-0.6-0.3-0.6-0.6c0-0.3,0.3-0.6,0.6-0.6H-50.7L-50.7,78.4z
		 M-56,79.5c0.7,0,0-0.9-0.4-0.9H-57c-0.7,0,0,0.9,0.4,0.9H-56L-56,79.5z M-52.9,79.5c0.7,0,0-0.9-0.4-0.9H-54c-0.7,0,0,0.9,0.4,0.9
		H-52.9L-52.9,79.5z M-50.6,78.6h-0.3c-0.7,0-0.1,0.9,0.3,0.9C-50.1,79.5-50.1,78.6-50.6,78.6L-50.6,78.6z"/>
	<path d="M-51.3,87l1.4,0.5l1.4-0.5l-0.6,2.1l1.1-0.2l-0.4,1.3l0.4,1.2l-1-0.3l0.4,2.3l-1.4-0.5l-1.4,0.5l0.6-2.3l-1.1,0.3l0.3-1.3
		l-0.3-1.2l1.1,0.2L-51.3,87L-51.3,87z M-49.2,90.8c0.3,0,0.4-0.4,0.4-0.8c0-0.9-0.7,0-1-0.8c-0.3,0.7-1,0.1-1,0.8
		c0,0.5,0,0.8,0.5,0.8L-49.2,90.8L-49.2,90.8z M-50.6,90.1c0,0.3,0.4,0.1,0.8,0.1c0.3,0,0.8,0.2,0.8-0.1c0-0.5-0.4-0.3-0.8-0.3
		C-50.2,89.7-50.6,89.6-50.6,90.1L-50.6,90.1z"/>
	<polygon points="-54.7,90.1 -54.7,89.9 -54.9,89.8 -54.7,89.6 -54.8,89.4 -54.6,89.4 -54.4,89.2 -54.3,89.4 -54.1,89.4 -54.2,89.6 
		-54,89.8 -54.2,89.9 -54.2,90.1 -54.4,90 	"/>
	<polygon points="-55.8,91.6 -55.8,91.3 -56,91.2 -55.8,91.1 -55.9,90.8 -55.7,90.9 -55.6,90.6 -55.4,90.9 -55.2,90.8 -55.3,91.1 
		-55.1,91.2 -55.3,91.3 -55.3,91.6 -55.6,91.4 	"/>
	<polygon points="-53.9,91.4 -53.9,91.1 -54.1,91.1 -53.9,90.9 -54.1,90.7 -53.8,90.7 -53.7,90.4 -53.5,90.7 -53.3,90.7 -53.4,90.9 
		-53.2,91.1 -53.4,91.1 -53.4,91.4 -53.7,91.2 	"/>
	<polygon points="-53.7,92.5 -53.7,92.3 -53.8,92.3 -53.7,92.2 -53.8,92 -53.6,92.1 -53.5,91.9 -53.5,92.1 -53.3,92 -53.4,92.2 
		-53.3,92.3 -53.4,92.3 -53.4,92.5 -53.5,92.4 	"/>
	<polygon points="-55.4,93.7 -55.4,93.2 -55.8,93.1 -55.5,92.8 -55.7,92.4 -55.3,92.5 -55,92 -54.8,92.5 -54.4,92.4 -54.6,92.8 
		-54.2,93.1 -54.6,93.2 -54.6,93.7 -55,93.4 	"/>
	<polygon points="-54.5,69.7 -53.6,71.9 -51.4,71.2 -52.5,73.3 -50.6,74.6 -52.9,75 -52.8,77.4 -54.5,75.8 -56.3,77.4 -56.1,75 
		-58.5,74.6 -56.5,73.3 -57.7,71.2 -55.4,71.9 	"/>
	<path d="M-62.7,118.7c-0.3,0.1-0.4,0.2-0.3,0.5l0.3,1.3c0.1,0.2,0.1,0.6-0.1,0.9c-0.2,0.3-0.6,0.5-0.9,0.5c-0.2,0.1-0.7,0.1-1.1,0
		c-0.2-0.1-0.4-0.2-0.5-0.7l-0.3-1.4c-0.1-0.4-0.2-0.3-0.5-0.3l0-0.1l1.7-0.4l0,0.1c-0.3,0.1-0.5,0.1-0.4,0.5l0.3,1.4
		c0.1,0.2,0.2,0.8,0.9,0.6c0.9-0.2,0.7-0.9,0.7-1.1l-0.3-1.3c-0.1-0.3-0.2-0.4-0.6-0.3l0-0.1l1.1-0.3L-62.7,118.7L-62.7,118.7z"/>
	<path d="M-60.2,119c-0.2-0.3-0.6-0.7-1.2-0.6c-0.3,0.1-0.5,0.2-0.4,0.5c0.1,0.2,0.2,0.3,0.6,0.4l0.8,0.1c0.2,0,0.6,0.2,0.7,0.7
		c0.1,0.4-0.1,1-1.1,1.2c-0.5,0.1-0.7,0-0.9,0.1c-0.1,0-0.1,0.1-0.1,0.2l-0.1,0l-0.2-1l0.1,0c0.2,0.4,0.6,0.8,1.2,0.7
		c0.6-0.1,0.5-0.6,0.5-0.6c-0.1-0.3-0.3-0.3-0.7-0.4l-0.4-0.1c-0.9-0.2-1-0.5-1.1-0.7c-0.1-0.3,0-0.9,0.9-1.1c0.4-0.1,0.7,0,0.8,0
		c0.1,0,0.1-0.1,0.1-0.2l0.2,0l0.2,0.9L-60.2,119L-60.2,119z"/>
	<path d="M-56.8,120.7l-1.8,0.2l0-0.1c0.4-0.1,0.5-0.1,0.5-0.4l-0.2-2.3c-0.4,0.1-0.9,0.1-0.9,0.8l-0.1,0l-0.1-0.9l3.1-0.3l0.1,0.9
		l-0.1,0c-0.2-0.7-0.7-0.7-1.1-0.6l0.2,2.3c0,0.4,0.2,0.4,0.5,0.4L-56.8,120.7L-56.8,120.7z"/>
	<path d="M-52.6,120.7l-1.1,0l-1-1.4h-0.1l0,0.8c0,0.3,0.1,0.4,0.4,0.4v0.1l-1.7,0v-0.1c0.4,0,0.5,0,0.5-0.4l0-1.9
		c0-0.4-0.2-0.4-0.4-0.4v-0.1l1.7,0c0.4,0,1.5,0.1,1.4,0.8c0,0.5-0.5,0.7-0.8,0.7l1,1.3c0.1,0.1,0.1,0.1,0.2,0.1L-52.6,120.7
		L-52.6,120.7z M-54.8,119.2c0.7,0,0.9-0.1,1-0.6c0-0.4-0.2-0.6-0.6-0.6c-0.3,0-0.3,0-0.3,0.2L-54.8,119.2L-54.8,119.2z"/>
	<path d="M-49.2,121.1l-1.7-0.2l0-0.1c0.3,0,0.4,0,0.4-0.1c0-0.1-0.1-0.5-0.2-0.6l-1.2-0.1c-0.2,0.3-0.3,0.5-0.3,0.5
		c0,0.2,0.2,0.2,0.4,0.2l0,0.1l-1-0.1l0-0.1c0.3,0,0.4-0.1,0.6-0.4l1.4-2.2l0.1,0l0.9,2.4C-49.5,120.9-49.4,121-49.2,121.1
		L-49.2,121.1L-49.2,121.1z M-50.6,119.9l-0.4-1.1l-0.6,1L-50.6,119.9L-50.6,119.9z"/>
	<path d="M-46.2,121.7l-2.9-0.5l0-0.1c0.3,0,0.4,0,0.5-0.2l0.4-2.1c0.1-0.3-0.2-0.3-0.4-0.4l0-0.1l1.8,0.3l0,0.1
		c-0.4-0.1-0.5-0.1-0.6,0.3l-0.4,2c0,0.2,0.1,0.3,0.4,0.3c0.8,0.1,1.1-0.2,1.4-0.6l0.1,0L-46.2,121.7L-46.2,121.7z"/>
	<path d="M-44.2,122.2l-1.8-0.4l0-0.1c0.3,0,0.5,0.1,0.5-0.2l0.4-2.1c0.1-0.3-0.2-0.3-0.4-0.4l0-0.1l1.8,0.4l0,0.1
		c-0.2,0-0.5-0.1-0.5,0.2l-0.4,2.1c-0.1,0.3,0.1,0.3,0.4,0.4L-44.2,122.2L-44.2,122.2z"/>
	<path d="M-40.6,122.6l-1.7-0.2l0-0.1c0.3,0,0.4,0,0.4-0.1c0-0.1-0.1-0.5-0.2-0.6l-1.2-0.1c-0.2,0.3-0.3,0.5-0.3,0.5
		c0,0.2,0.2,0.2,0.4,0.2l0,0.1l-1-0.1l0-0.1c0.3,0,0.4-0.1,0.5-0.5l1.4-2.2l0.1,0l0.9,2.4c0.2,0.5,0.2,0.6,0.5,0.7L-40.6,122.6
		L-40.6,122.6z M-42.1,121.5l-0.4-1.1l-0.6,1L-42.1,121.5L-42.1,121.5z"/>
	<path d="M-53.8,87.7c0-1-0.6-0.1-0.9-0.9c-0.2,0.7-0.9,0.1-0.9,0.9c0,0.3,0.1,0.5,0.2,0.6v0.3c0,0.1,0.1,0.1,0.1,0.1h1.1
		c0.1,0,0.1-0.1,0.1-0.1v-0.3C-53.9,88.2-53.8,88-53.8,87.7L-53.8,87.7z M-54.7,87.9c-0.3,0-0.7,0.2-0.7-0.1c0-0.5,0.3-0.4,0.7-0.4
		c0.3,0,0.8-0.1,0.8,0.4C-54,88.1-54.4,87.9-54.7,87.9L-54.7,87.9z"/>
	<path d="M-44.8,100.5c0.3,0,0.5-0.2,0.5-0.4c0-0.2-0.2-0.4-0.5-0.4c-0.3,0-0.5,0.2-0.5,0.4S-45,100.5-44.8,100.5L-44.8,100.5z"/>
	<path d="M-47,85.1c0,0-0.2,0.4-0.2,0.4c0,0.1,0.1,0.2,0.2,0.2s0.2-0.1,0.2-0.2C-46.8,85.5-47,85.1-47,85.1L-47,85.1z"/>
	<path d="M-62.3,85.1c0,0-0.2,0.4-0.2,0.4c0,0.1,0.1,0.2,0.2,0.2c0.1,0,0.2-0.1,0.2-0.2L-62.3,85.1L-62.3,85.1z"/>
	<path d="M-58.5,85.1c0,0-0.2,0.4-0.2,0.4c0,0.1,0.1,0.2,0.2,0.2s0.2-0.1,0.2-0.2C-58.2,85.5-58.5,85.1-58.5,85.1L-58.5,85.1z"/>
	<path d="M-54.7,85.1c0,0-0.2,0.4-0.2,0.4c0,0.1,0.1,0.2,0.2,0.2s0.2-0.1,0.2-0.2C-54.4,85.5-54.7,85.1-54.7,85.1L-54.7,85.1z"/>
	<path d="M-50.8,85.1c0,0-0.2,0.4-0.2,0.4c0,0.1,0.1,0.2,0.2,0.2c0.1,0,0.2-0.1,0.2-0.2C-50.6,85.5-50.8,85.1-50.8,85.1L-50.8,85.1z
		"/>
	<path d="M-62.3,90.3c0,0,0.2,0.4,0.2,0.4c0,0.1-0.1,0.2-0.2,0.2s-0.2-0.1-0.2-0.2C-62.5,90.8-62.3,90.3-62.3,90.3L-62.3,90.3z"/>
	<path d="M-62.3,95.4c0,0,0.2,0.4,0.2,0.4c0,0.1-0.1,0.2-0.2,0.2s-0.2-0.1-0.2-0.2C-62.5,95.9-62.3,95.4-62.3,95.4L-62.3,95.4z"/>
	<path d="M-61.7,99.4c0,0,0.2,0.4,0.2,0.4c0,0.1-0.1,0.2-0.2,0.2s-0.2-0.1-0.2-0.2C-61.9,99.9-61.7,99.4-61.7,99.4L-61.7,99.4z"/>
	<path d="M-58.5,101.6c0,0,0.2,0.4,0.2,0.4c0,0.1-0.1,0.2-0.2,0.2s-0.2-0.1-0.2-0.2C-58.7,102-58.5,101.6-58.5,101.6L-58.5,101.6z"
		/>
	<path d="M-46.8,90.3c0,0-0.2,0.4-0.2,0.4c0,0.1,0.1,0.2,0.2,0.2c0.1,0,0.2-0.1,0.2-0.2C-46.6,90.8-46.8,90.3-46.8,90.3L-46.8,90.3z
		"/>
	<path d="M-46.8,95.4c0,0-0.2,0.4-0.2,0.4c0,0.1,0.1,0.2,0.2,0.2c0.1,0,0.2-0.1,0.2-0.2C-46.6,95.9-46.8,95.4-46.8,95.4L-46.8,95.4z
		"/>
	<path d="M-47.4,99.4c0,0-0.2,0.4-0.2,0.4c0,0.1,0.1,0.2,0.2,0.2c0.1,0,0.2-0.1,0.2-0.2C-47.2,99.9-47.4,99.4-47.4,99.4L-47.4,99.4z
		"/>
	<path d="M-50.6,101.6c0,0-0.2,0.4-0.2,0.4c0,0.1,0.1,0.2,0.2,0.2c0.1,0,0.2-0.1,0.2-0.2C-50.4,102-50.6,101.6-50.6,101.6
		L-50.6,101.6z"/>
	<path d="M-54.5,103.9c0,0-0.2,0.4-0.2,0.4c0,0.1,0.1,0.2,0.2,0.2c0.1,0,0.2-0.1,0.2-0.2C-54.3,104.3-54.5,103.9-54.5,103.9
		L-54.5,103.9z"/>
	<path d="M-48.3,96.3c0.1,0.1,0.2,0.1,0.3,0l0.1-0.4c0,0-0.2-0.2-0.3-0.2c-0.4,0.1-0.8,0.1-1.1,0.5c0,0.3,0.2,0.5,0.4,0.6
		c0.1-0.1,0.2,0.1,0.3,0.2c0,0.1-0.1,0.2-0.2,0.2c-0.3-0.3-0.8,0.1-1-0.3c0.1-0.4,0.3-0.8,0-1.1c0-0.1,0.1-0.1,0.1-0.2
		c-0.1-0.3-0.5-0.1-0.7-0.1c-0.4-0.1-0.7,0.1-0.9,0.4c0,0.1,0.1,0.2,0.2,0.4c0.1,0,0.1,0,0.2,0.1l-0.2,0.1c0.1,0.1,0.1,0.2,0.1,0.3
		c-0.2,0.1-0.3-0.2-0.4-0.3c0-0.2,0-0.5-0.2-0.6c-0.1,0-0.2,0.1-0.2,0.1c-0.1,0.1-0.1,0.2-0.1,0.4s0.1,0.4,0.1,0.4s0.7,0.5,0.9,0.9
		c-0.2,0.4-0.2,1-0.7,1.3c-0.1,0.1-0.1,0.2-0.1,0.4l0.1,0.1c0.3-0.2,0.9-0.2,0.9-0.7c0.1-0.2,0.2-0.5,0.5-0.6
		c0.2-0.1,0.5,0.1,0.5,0.3c-0.1,0.4-0.3,0.6-0.6,0.7c0,0.1,0,0.1,0,0.2c0.1,0.2,0.4,0.1,0.5,0.1c0.4-0.3,0.6-0.7,0.9-0.9
		c0.1,0.2-0.5,0.3-0.1,0.6c0.2-0.1,0.5,0,0.7-0.3c-0.2-0.4,0.6-0.6,0.1-1c0-0.4,0.4-0.5,0.4-0.9c-0.1-0.4-0.6-0.4-0.7-0.7
		C-48.7,96.2-48.5,96.2-48.3,96.3L-48.3,96.3z"/>
	<path d="M-65.9,100.7c0.3,0,0.5-0.2,0.5-0.4c0-0.2-0.2-0.4-0.5-0.4c-0.3,0-0.5,0.2-0.5,0.4C-66.3,100.5-66.1,100.7-65.9,100.7
		L-65.9,100.7z"/>
	<path d="M-90.6,115.1c0.3,0,0.5-0.2,0.5-0.4c0-0.2-0.2-0.4-0.5-0.4c-0.3,0-0.5,0.2-0.5,0.4C-91.1,114.9-90.9,115.1-90.6,115.1
		L-90.6,115.1z"/>
	<path d="M-74.9,118.6L-74.9,118.6L-74.9,118.6L-74.9,118.6L-74.9,118.6C-74.9,118.6-74.9,118.6-74.9,118.6L-74.9,118.6l-0.1,0l0,0
		C-74.9,118.6-74.9,118.6-74.9,118.6L-74.9,118.6c-0.1-0.1-0.1-0.1-0.1-0.1l0,0L-74.9,118.6C-74.9,118.6-74.9,118.6-74.9,118.6
		C-74.9,118.6-74.9,118.6-74.9,118.6L-74.9,118.6L-74.9,118.6L-74.9,118.6L-74.9,118.6z M-74.9,118.6
		C-74.9,118.6-74.9,118.6-74.9,118.6C-74.9,118.6-74.9,118.6-74.9,118.6C-74.9,118.6-74.9,118.6-74.9,118.6L-74.9,118.6L-74.9,118.6
		z"/>
	<path d="M-74.8,118.6C-74.8,118.6-74.8,118.6-74.8,118.6C-74.8,118.6-74.8,118.6-74.8,118.6C-74.8,118.6-74.8,118.6-74.8,118.6
		L-74.8,118.6C-74.8,118.6-74.8,118.6-74.8,118.6C-74.8,118.6-74.8,118.6-74.8,118.6C-74.8,118.6-74.9,118.6-74.8,118.6L-74.8,118.6
		L-74.8,118.6L-74.8,118.6L-74.8,118.6C-74.9,118.6-74.8,118.6-74.8,118.6C-74.8,118.6-74.8,118.6-74.8,118.6
		C-74.8,118.6-74.8,118.6-74.8,118.6L-74.8,118.6C-74.9,118.6-74.9,118.6-74.8,118.6C-74.9,118.6-74.9,118.6-74.8,118.6
		C-74.8,118.6-74.8,118.6-74.8,118.6L-74.8,118.6L-74.8,118.6L-74.8,118.6L-74.8,118.6L-74.8,118.6z"/>
	<path d="M-74.6,118.6C-74.6,118.6-74.6,118.6-74.6,118.6L-74.6,118.6L-74.6,118.6L-74.6,118.6L-74.6,118.6L-74.6,118.6L-74.6,118.6
		l-0.1,0c0,0,0,0,0,0l0,0H-74.6L-74.6,118.6c-0.1,0-0.1,0-0.1,0l0,0L-74.6,118.6L-74.6,118.6L-74.6,118.6L-74.6,118.6
		C-74.7,118.6-74.7,118.6-74.6,118.6L-74.6,118.6L-74.6,118.6L-74.6,118.6C-74.7,118.6-74.7,118.6-74.6,118.6L-74.6,118.6
		L-74.6,118.6L-74.6,118.6L-74.6,118.6L-74.6,118.6C-74.6,118.6-74.6,118.6-74.6,118.6L-74.6,118.6L-74.6,118.6L-74.6,118.6
		L-74.6,118.6z"/>
	<path d="M-74.6,118.6C-74.6,118.6-74.6,118.6-74.6,118.6C-74.6,118.6-74.6,118.6-74.6,118.6C-74.6,118.6-74.6,118.6-74.6,118.6
		C-74.6,118.6-74.6,118.6-74.6,118.6C-74.6,118.6-74.6,118.5-74.6,118.6C-74.6,118.5-74.6,118.6-74.6,118.6
		C-74.6,118.6-74.6,118.6-74.6,118.6L-74.6,118.6L-74.6,118.6z M-74.6,118.6C-74.6,118.6-74.6,118.6-74.6,118.6
		C-74.6,118.6-74.6,118.6-74.6,118.6C-74.6,118.6-74.6,118.6-74.6,118.6C-74.6,118.6-74.6,118.6-74.6,118.6
		C-74.6,118.6-74.6,118.6-74.6,118.6L-74.6,118.6z"/>
	<path d="M-74.5,118.6C-74.5,118.6-74.5,118.6-74.5,118.6C-74.5,118.6-74.5,118.6-74.5,118.6C-74.5,118.6-74.5,118.6-74.5,118.6
		C-74.5,118.6-74.6,118.6-74.5,118.6C-74.6,118.6-74.6,118.6-74.5,118.6C-74.5,118.6-74.5,118.6-74.5,118.6
		C-74.5,118.6-74.5,118.6-74.5,118.6C-74.5,118.6-74.5,118.6-74.5,118.6C-74.5,118.6-74.5,118.6-74.5,118.6L-74.5,118.6L-74.5,118.6
		L-74.5,118.6L-74.5,118.6L-74.5,118.6L-74.5,118.6z"/>
	<path d="M-45.7,84.5L-45.7,84.5l-17.6,0v0h0l0,13.5c0,1.4,0.6,2.6,1.4,2.9l6.8,4.3c0.1,0.2,0.4,0.3,0.6,0.3c0.2,0,0.4-0.1,0.5-0.2
		l6.9-4.4c0.8-0.4,1.4-1.6,1.4-2.9L-45.7,84.5L-45.7,84.5L-45.7,84.5z M-46.2,98.1c-0.1,1-0.4,1.9-1.1,2.3l-6.6,4.2h0
		c-0.1,0.1-0.3,0.2-0.5,0.2s-0.4-0.1-0.5-0.2l-6.6-4.2c-0.7-0.5-1-1.3-1.1-2.3V85h16.6L-46.2,98.1L-46.2,98.1z"/>
	<path d="M-52.2,104.1l0.2-0.1C-52.1,104-52.1,104.1-52.2,104.1L-52.2,104.1z"/>
	<path d="M-65.5,122.5l-1.7,0.2l0-0.1c0.3-0.1,0.4-0.1,0.4-0.2c0-0.1-0.2-0.4-0.3-0.5l-1.2,0.1c-0.1,0.3-0.2,0.5-0.2,0.6
		c0,0.2,0.3,0.1,0.4,0.1l0,0.1l-1,0.1l0-0.1c0.3-0.1,0.3-0.2,0.4-0.6l0.9-2.5l0.1,0l1.4,2.1c0.3,0.4,0.4,0.6,0.6,0.5L-65.5,122.5
		L-65.5,122.5z M-67.1,121.7l-0.6-1l-0.4,1.1L-67.1,121.7L-67.1,121.7z"/>
	<path d="M-36.3,116.2c-0.3-0.8-0.9-1.3-1.7-1.6c-0.8-0.2-1.7-0.1-2.2,0.6c-0.9,0.7-0.3,2-0.2,3c0,0.2,0,0.4-0.2,0.5
		c-3.7-0.3-7.1-1.2-10.7-1.6c-0.8-0.1-1.7-0.1-2.5-0.3l-1-0.1c-3.2,0.1-6.3,0.3-9.3,1c-0.6,0.2-1.3,0.2-2,0.5
		c-0.5-0.1-0.8,0.2-1.3,0.1l-0.8,0.2c-0.1,0-0.2,0-0.3,0c-0.4-1,0.8-1.7,0.4-2.7c-0.3-0.6-1-1.1-1.7-1c-0.9-0.1-1.6,0.4-2,1
		c-0.6,1.3,0.2,2.6,0.4,3.8c-0.1,0.4,0.4,0.9,0,1.2c-0.8-0.6-1.9-0.9-2.9-0.6c-0.3,0.2-0.9-0.1-1,0.3c1.1,0.6,2.5,0.5,3.7,0.5
		c0.2-0.1,0.3-0.1,0.4,0c0.1,0.7-0.1,1.6,0.3,2.1c0.5,0.6,1.2,0.8,1.9,0.8c2.3-0.1,4.4-0.8,6.5-1.3c0.3,0,0.6-0.2,0.9-0.2
		c1.1-0.3,2.4-0.5,3.6-0.5c-0.5,0.7-0.8,1.5-1.1,2.3c-0.3,0.7,0.5,0.8,0.8,1.2c-0.8,0.2-1.3,0.8-2.1,1.1c-1.6-0.1-3,0.6-4.5,0.7
		c0,0.3,0.5,0.2,0.6,0.6c-0.1,0.2-0.3,0.3-0.5,0.4c0,0.2,0,0.2,0.2,0.2c0.2-0.2,0.5-0.1,0.6-0.2c0.5,0,0.9-0.2,1.4-0.2
		c0.4-0.2,0.9-0.2,1.3-0.5c0.5-0.2,0.9-0.5,1.4-0.7c0.8,0,1.4-0.3,2.1-0.3v0.2c-0.6,0.9-1.2,1.9-1.8,2.8c-0.1,0.2,0,0.4,0.2,0.4
		c0.4,0.1,0.7,0,1-0.2c0.5-0.9,1-1.8,1.4-2.7c0.2-0.9,0.8-1.3,1.4-1.9c0.1-0.1,0.2-0.2,0.4-0.1c-0.5,0.6-0.8,1.2-1.2,1.8
		c-0.2,0.7-0.3,1.6,0.4,2.2c0.3,0.3,0.8,0.2,1.2,0.2c1-0.5,2.2,0.3,3-0.7c0.5-0.1,0.5,0.5,0.8,0.7c0.4,0.1,0.9,0.6,1.3,0.2
		c0-0.3-0.3-0.5-0.5-0.8c-0.3-0.5-0.7-1-1-1.5c-0.1-0.4-0.4-0.6-0.4-0.9c0.5,0.2,0.9,0.5,1.4,0.5c0.4,0.2,1,0.2,1.4,0.4
		c0.3,0.4,0.8,0.7,1.3,1c0.6,0.3,1.3,0.4,2,0.6c0.2,0,0.6,0.2,0.8,0c-0.1-0.1-0.2-0.2-0.4-0.3c-0.1-0.3,0.5-0.2,0.6-0.4
		c-0.1-0.1-0.2-0.2-0.3-0.2c-0.4-0.2-1.3-0.3-1.5-0.4c-0.3-0.1-0.6-0.2-0.9-0.3c-1.5,0-2.4-1.4-3.6-1.9c0.3-0.3,0.7-0.5,0.9-0.8
		c0.2-0.4,0.3-0.9,0.1-1.3c-0.2-0.8-1.2-0.7-1.8-1.1l0.1-0.1c1-0.1,1.8,0.2,2.7,0.4c2.4,0.3,4.7,1.2,7.2,1.3c1.4,0,3.1,0.1,3.8-1.3
		c0.1-0.8,0.3-1.6,0.4-2.4C-37,118.8-36.2,117.6-36.3,116.2L-36.3,116.2z M-63.6,127.8l-0.4-0.3c0.2-0.2,0.6-0.1,0.8-0.3
		c0.7-0.2,1.4-0.5,2.1-0.3C-61.7,127.5-62.7,127.6-63.6,127.8L-63.6,127.8z M-47.8,127.4c0.6,0.3,1.8,0.5,2.7,0.6
		c-0.1,0.3-0.7,0-0.6,0.5c-0.8-0.3-1.7-0.5-2.3-1.1C-48,127.4-47.9,127.4-47.8,127.4L-47.8,127.4z M-71.5,116.6
		c0.1-0.5,0.2-0.9,0.6-1.3c0.6-0.3,1.4-0.2,2,0.1c0.2,0.1,0.3,0.2,0.4,0.5c0.1,0.4-0.1,0.9-0.4,1.2h-0.2c0-0.4,0-0.8,0.2-1.2
		c0-0.3-0.3-0.3-0.5-0.5c-0.4-0.1-0.8,0.1-1.1,0.3c-0.2,0.3-0.5,0.7-0.3,1.1c0.2,0.3,0,0.7,0.1,1l-0.1,0.1
		C-71.2,117.5-71.6,117.2-71.5,116.6L-71.5,116.6z M-70.3,117.3c0.4,0.3,0.9,0.2,1.4,0.2c0.1,0.3,0.1,0.6-0.1,0.9
		c-0.4-0.1-1-0.1-1.2-0.5C-70.3,117.8-70.4,117.5-70.3,117.3L-70.3,117.3z M-70.4,116.4c0.1-0.2,0-0.5,0.3-0.6
		c0.2-0.1,0.5-0.1,0.5,0.2c0,0.3-0.1,0.6-0.1,0.9C-70.1,117-70.3,116.7-70.4,116.4L-70.4,116.4z M-58.6,124.6
		c-0.1-0.9,0.2-1.7,0.8-2.3c0.4-0.1,0.8-0.2,1.1,0.1c-0.7,0.2-1.5,0.3-1.6,1.2c0,0.3-0.1,0.5,0.1,0.8c0.3,0.5,0.9,0.3,1.3,0.7
		c0,0.1-0.1,0.3-0.2,0.3C-57.6,125.1-58.2,124.9-58.6,124.6L-58.6,124.6z M-59.5,126.4c0.6-0.3,1.2-0.8,1.9-0.6
		C-58,126.2-58.8,126.3-59.5,126.4L-59.5,126.4z M-57.1,126.6c-0.4,0.8-0.8,1.6-1.2,2.4c-0.1,0.1-0.3,0.2-0.4,0.2
		c0-0.4,0.4-0.6,0.5-0.9c0.5-0.7,0.7-1.4,1.3-2.1C-56.8,126.3-57.1,126.4-57.1,126.6L-57.1,126.6z M-56.4,125.2v0.1h-0.1
		L-56.4,125.2L-56.4,125.2L-56.4,125.2C-56.4,125.1-56.5,125.1-56.4,125.2L-56.4,125.2L-56.4,125.2z M-56.7,124.5
		c-0.4-0.1-0.8-0.2-1.2-0.3c-0.2-0.3,0-0.5,0-0.8c0.4-0.6,1.4-0.8,1.8-0.3C-56.1,123.6-56.3,124.1-56.7,124.5L-56.7,124.5z
		 M-56.1,124.5c0.1-0.3,0.2-0.8,0.4-1.1C-55.7,123.7-55.9,124.2-56.1,124.5L-56.1,124.5z M-55.8,122.4c-0.3-0.1-0.5-0.5-0.9-0.5
		c0.3-0.1,0.6-0.1,1,0C-55.6,122.1-55.8,122.3-55.8,122.4L-55.8,122.4z M-55.5,123.2L-55.5,123.2l0-0.3h0V123.2L-55.5,123.2z
		 M-55.5,124.3c0-0.1,0.1-0.2,0.1-0.4c0.1-0.1,0.2,0.1,0.3,0.2C-55.2,124.3-55.4,124.4-55.5,124.3L-55.5,124.3z M-55.1,122.8
		c0.1-0.4,0.1-0.7,0.4-0.9c0.2,0,0.5,0,0.7,0.1c0.1,0.5,0.7,1.2,0,1.6c-0.2,0.1-0.6,0.3-0.8,0.1C-55.2,123.4-55.3,123.1-55.1,122.8
		L-55.1,122.8z M-53.3,122c-0.1-0.2,0.2-0.1,0.3-0.2l0.8,0.1C-52.6,121.9-53.1,122.8-53.3,122L-53.3,122z M-52,122.4
		c-0.3,0.1-0.5,0.5-0.8,0.5C-52.7,122.6-52.3,122.4-52,122.4L-52,122.4z M-53.1,124L-53.1,124L-53.1,124L-53.1,124L-53.1,124
		L-53.1,124z M-53,125.5c0,0.1,0,0.1-0.1,0.2l-0.6-0.5C-53.4,125.2-53.2,125.3-53,125.5L-53,125.5z M-53.7,124.7
		c0.1-0.1,0.2-0.1,0.2,0H-53.7L-53.7,124.7z M-54.1,124.3c0.1-0.2,0.2-0.4,0.4-0.4c0,0,0,0.1,0.1,0.1
		C-53.8,124.2-53.9,124.3-54.1,124.3L-54.1,124.3z M-54.7,124.3h-0.1l0.2-0.2C-54.5,124.2-54.6,124.2-54.7,124.3L-54.7,124.3z
		 M-54.6,125.2c0.3-0.4,0.6,0.2,0.8,0.5c0.4,0.6,1.4,1.1,1,1.8c-0.5,0.4-1.2,0-1.8,0.4c-0.3,0-0.8,0.1-0.9-0.2
		C-55.2,126.9-55,126-54.6,125.2L-54.6,125.2z M-55.3,125.7l0.1-0.2c-0.2,0.6-0.5,1.2-0.8,1.8C-56.1,126.8-55.5,126.3-55.3,125.7
		L-55.3,125.7z M-54.2,128.8c-0.5,0-1.2,0.3-1.7-0.1c0-0.2-0.2-0.3-0.2-0.5c0.4-0.2,0.8,0.3,1.1,0c0.6,0,1.2-0.1,1.8,0.1
		c0.3,0.1,0.7-0.5,0.8,0.1C-52.6,129.1-53.6,128.5-54.2,128.8L-54.2,128.8z M-52.7,125.1L-52.7,125.1L-52.7,125.1L-52.7,125.1
		L-52.7,125.1L-52.7,125.1z M-52.6,126.7c0,0.3,0.3,0.4,0.1,0.6C-52.5,127.2-52.6,127-52.6,126.7L-52.6,126.7z M-51.8,128.2
		l-0.1,0.1c-0.1-0.1-0.1-0.4-0.1-0.5C-51.9,127.9-51.8,128.1-51.8,128.2L-51.8,128.2z M-50.6,128.8c0,0.1-0.2,0.1-0.2,0
		c-0.8-1-1.1-2-1.6-3.1l0.1,0C-51.7,126.8-51.2,127.9-50.6,128.8L-50.6,128.8z M-49.6,126.5c-0.1,0-0.1,0.1-0.1,0.1
		c-0.7,0-1.2-0.4-1.8-0.8l0-0.1C-50.8,125.7-50.3,126.2-49.6,126.5L-49.6,126.5z M-50.3,123.1c0.3,0.1,0.3,0.4,0.4,0.7
		c0,0.6-0.3,1-0.9,1.2c-0.3,0.2-0.7,0.2-1,0.1c0.6,0,1.3-0.2,1.5-0.9L-50.3,123.1L-50.3,123.1z M-50.9,123c0.1,0.4,0.4,0.7,0.2,1.1
		c-0.2,0.5-0.8,0.5-1.2,0.6c-0.2,0-0.4-0.1-0.6-0.2c0-0.1,0-0.2-0.1-0.2c0.1-0.3-0.6-0.7-0.1-0.9C-52.2,123-51.3,122.1-50.9,123
		L-50.9,123z M-38,121.2c-0.2,0.2,0,0.7-0.3,0.9c0,0.5-0.4,0.7-0.7,0.9c-3,0.7-6-0.4-8.9-0.9c-4.1-0.9-8.8-1.1-13-0.2
		c-1.9,0.4-3.8,0.8-5.7,1.3c-1.2,0.2-2.4,0.3-3.5,0c-0.9-0.4-0.5-1.6-0.8-2.4c0.1-0.6-0.2-1.1-0.2-1.8c-0.1-0.2-0.1-0.5-0.1-0.7
		c0.4,0.1,0.8,0.3,1.2,0.4c2.1,0.4,4-0.3,6-0.6c1.9-0.4,3.8-0.7,5.8-0.9c2.3,0,4.6-0.2,6.8,0.2c0.7,0,1.3,0.2,2,0.2
		c1.4,0.2,2.7,0.6,4.2,0.7c0.2,0.1,0.5,0.1,0.8,0.1c2.3,0.4,4.8,1,7,0C-37.5,119.4-37.9,120.3-38,121.2L-38,121.2z M-38.7,118.1
		c0,0.4-0.4,0.3-0.6,0.5h-0.6c-0.1-0.2-0.1-0.5-0.1-0.7C-39.6,117.9-39.1,117.9-38.7,118.1L-38.7,118.1z M-39,117.4
		c0.3-0.3-0.1-1.9,0.7-0.8c0,0.2,0,0.5-0.2,0.7C-38.6,117.3-38.8,117.5-39,117.4L-39,117.4z M-37,117.2c-0.2,0.5-0.6,0.8-1.1,0.9
		c0-0.6,0.6-1,0.4-1.7c-0.3-0.5-1-0.6-1.6-0.5c-0.2,0.2-0.1,0.4-0.2,0.6l-0.1,0.8c-0.5,0-0.5-0.5-0.7-0.8c0-0.5,0.3-1.1,0.8-1.3
		c0.4-0.2,1.1-0.2,1.5,0.1c0.3,0.1,0.7,0.2,0.8,0.5C-36.8,116.1-36.9,116.7-37,117.2L-37,117.2z"/>
</g>
<g>
	<path d="M1.5,96.5h-3.7l-0.4,1c-0.1,0.3-0.2,0.6-0.2,0.9c0,0.3,0.1,0.5,0.4,0.7c0.1,0.1,0.5,0.1,1,0.2v0.3H-5v-0.3
		c0.4-0.1,0.7-0.2,0.9-0.5c0.2-0.3,0.5-0.8,0.9-1.6l3.8-8.5h0.1l3.8,8.7c0.4,0.8,0.7,1.3,0.9,1.6c0.2,0.2,0.4,0.3,0.8,0.3v0.3H1.1
		v-0.3h0.2c0.4,0,0.7-0.1,0.9-0.2c0.1-0.1,0.2-0.2,0.2-0.4c0-0.1,0-0.2,0-0.3c0,0-0.1-0.2-0.2-0.6L1.5,96.5z M1.2,95.9l-1.6-3.6
		L-2,95.9H1.2z"/>
	<path d="M13.9,92.2v5.7c0,0.6,0.1,0.9,0.2,1c0.1,0.1,0.3,0.2,0.6,0.3v0.3h-3v-1c-0.3,0.4-0.7,0.7-1,0.9c-0.3,0.2-0.7,0.3-1.2,0.3
		c-0.4,0-0.8-0.1-1.1-0.4s-0.5-0.5-0.6-0.9c-0.1-0.3-0.2-0.9-0.2-1.8v-2.9c0-0.6-0.1-0.9-0.2-1c-0.1-0.1-0.3-0.2-0.6-0.3v-0.3h3v5
		c0,0.5,0,0.9,0.1,1c0,0.2,0.1,0.3,0.2,0.3c0.1,0.1,0.2,0.1,0.4,0.1c0.2,0,0.4,0,0.5-0.1c0.2-0.1,0.5-0.4,0.8-0.8v-3.9
		c0-0.6-0.1-0.9-0.2-1c-0.1-0.1-0.3-0.2-0.6-0.3v-0.3H13.9z"/>
	<path d="M20.2,92l0.1,2.5h-0.3c-0.3-0.7-0.6-1.2-1-1.5c-0.3-0.3-0.7-0.4-1-0.4c-0.2,0-0.4,0.1-0.5,0.2c-0.2,0.1-0.2,0.3-0.2,0.5
		c0,0.1,0.1,0.3,0.2,0.4c0.2,0.2,0.6,0.6,1.4,1.1c0.8,0.5,1.3,1,1.5,1.3c0.2,0.4,0.4,0.8,0.4,1.2c0,0.4-0.1,0.8-0.3,1.2
		s-0.5,0.7-0.9,0.9c-0.4,0.2-0.8,0.3-1.2,0.3c-0.3,0-0.8-0.1-1.4-0.3c-0.2-0.1-0.3-0.1-0.3-0.1c-0.2,0-0.3,0.1-0.4,0.4h-0.3
		l-0.1-2.6h0.3c0.2,0.7,0.6,1.2,1,1.5c0.4,0.3,0.8,0.5,1.2,0.5c0.2,0,0.5-0.1,0.6-0.2c0.2-0.2,0.2-0.3,0.2-0.6
		c0-0.2-0.1-0.5-0.2-0.6c-0.2-0.2-0.5-0.5-1-0.8c-0.8-0.6-1.3-1-1.5-1.3c-0.3-0.4-0.5-0.9-0.5-1.4c0-0.6,0.2-1.1,0.6-1.5
		c0.4-0.5,0.9-0.7,1.7-0.7c0.4,0,0.8,0.1,1.1,0.3c0.1,0.1,0.3,0.1,0.3,0.1c0.1,0,0.2,0,0.2-0.1c0.1,0,0.1-0.1,0.3-0.3H20.2z"/>
	<path d="M24.6,89.5v2.7h1.7V93h-1.7v4.5c0,0.4,0,0.7,0.1,0.8c0,0.1,0.1,0.2,0.2,0.3c0.1,0.1,0.2,0.1,0.3,0.1c0.3,0,0.7-0.3,1-0.8
		l0.2,0.2c-0.4,1-1.1,1.5-2.1,1.5c-0.5,0-0.9-0.1-1.2-0.4s-0.5-0.5-0.6-0.9c-0.1-0.2-0.1-0.7-0.1-1.4V93h-1v-0.3
		c0.7-0.5,1.2-1,1.7-1.5c0.5-0.5,0.9-1.1,1.2-1.7H24.6z"/>
	<path d="M30,92.2v1.7c0.5-0.8,0.9-1.3,1.3-1.5c0.4-0.2,0.7-0.4,1.1-0.4c0.3,0,0.5,0.1,0.7,0.3c0.2,0.2,0.3,0.4,0.3,0.8
		c0,0.3-0.1,0.6-0.3,0.8c-0.2,0.2-0.4,0.3-0.6,0.3c-0.3,0-0.5-0.1-0.7-0.3c-0.2-0.2-0.3-0.3-0.4-0.3c-0.1,0-0.1,0-0.2,0
		c-0.2,0-0.3,0.1-0.4,0.2c-0.2,0.2-0.4,0.4-0.5,0.8c-0.2,0.5-0.2,1.1-0.2,1.7v1.7l0,0.4c0,0.3,0,0.5,0.1,0.6
		c0.1,0.1,0.2,0.2,0.3,0.3c0.1,0.1,0.3,0.1,0.6,0.1v0.3H27v-0.3c0.3,0,0.5-0.1,0.6-0.3c0.1-0.1,0.2-0.5,0.2-1.2v-4
		c0-0.4,0-0.7-0.1-0.8c-0.1-0.1-0.1-0.3-0.2-0.3c-0.1-0.1-0.3-0.1-0.5-0.1v-0.3H30z"/>
	<path d="M38,98.4c-0.9,0.8-1.7,1.2-2.4,1.2c-0.4,0-0.8-0.1-1-0.4c-0.3-0.3-0.4-0.6-0.4-1c0-0.6,0.2-1.1,0.7-1.5
		c0.5-0.4,1.5-1,3.1-1.8v-0.7c0-0.6,0-0.9-0.1-1c-0.1-0.1-0.2-0.3-0.3-0.4c-0.2-0.1-0.4-0.2-0.6-0.2c-0.3,0-0.6,0.1-0.8,0.2
		c-0.1,0.1-0.2,0.2-0.2,0.3c0,0.1,0.1,0.2,0.2,0.4c0.2,0.2,0.3,0.4,0.3,0.6c0,0.3-0.1,0.5-0.3,0.7c-0.2,0.2-0.4,0.3-0.7,0.3
		c-0.3,0-0.6-0.1-0.8-0.3c-0.2-0.2-0.3-0.4-0.3-0.7c0-0.4,0.1-0.7,0.4-1.1c0.3-0.3,0.7-0.6,1.2-0.8c0.5-0.2,1.1-0.3,1.7-0.3
		c0.7,0,1.2,0.1,1.6,0.4c0.4,0.3,0.7,0.6,0.8,1c0.1,0.2,0.1,0.7,0.1,1.5v2.8c0,0.3,0,0.5,0,0.6c0,0.1,0.1,0.1,0.1,0.2
		c0.1,0,0.1,0.1,0.2,0.1c0.1,0,0.3-0.1,0.4-0.3l0.2,0.2c-0.3,0.4-0.5,0.7-0.8,0.8c-0.3,0.2-0.6,0.3-0.9,0.3c-0.4,0-0.7-0.1-1-0.3
		S38,98.8,38,98.4z M38,97.8v-2.4c-0.6,0.4-1.1,0.8-1.4,1.2c-0.2,0.3-0.3,0.6-0.3,0.9c0,0.2,0.1,0.5,0.3,0.6
		c0.1,0.1,0.3,0.2,0.5,0.2C37.3,98.3,37.6,98.1,38,97.8z"/>
	<path d="M44.7,88.9V98c0,0.5,0.1,0.8,0.2,1c0.1,0.1,0.4,0.2,0.7,0.2v0.3h-3.9v-0.3c0.3,0,0.6-0.1,0.7-0.3c0.1-0.1,0.2-0.4,0.2-1
		v-7.6c0-0.5-0.1-0.8-0.2-1c-0.1-0.1-0.4-0.2-0.7-0.2v-0.3H44.7z"/>
	<path d="M49,92.2V98c0,0.5,0.1,0.8,0.2,1c0.1,0.1,0.4,0.2,0.7,0.2v0.3h-3.9v-0.3c0.3,0,0.6-0.1,0.7-0.3c0.1-0.1,0.2-0.4,0.2-1v-4.3
		c0-0.5-0.1-0.8-0.2-1c-0.1-0.1-0.4-0.2-0.7-0.2v-0.3H49z M47.9,88.6c0.3,0,0.6,0.1,0.9,0.4c0.2,0.2,0.4,0.5,0.4,0.9
		c0,0.3-0.1,0.6-0.4,0.9c-0.2,0.2-0.5,0.4-0.9,0.4c-0.3,0-0.6-0.1-0.9-0.4s-0.4-0.5-0.4-0.9c0-0.3,0.1-0.6,0.4-0.9
		C47.3,88.8,47.6,88.6,47.9,88.6z"/>
	<path d="M54.5,98.4c-0.9,0.8-1.7,1.2-2.4,1.2c-0.4,0-0.8-0.1-1-0.4c-0.3-0.3-0.4-0.6-0.4-1c0-0.6,0.2-1.1,0.7-1.5
		c0.5-0.4,1.5-1,3.1-1.8v-0.7c0-0.6,0-0.9-0.1-1c-0.1-0.1-0.2-0.3-0.3-0.4c-0.2-0.1-0.4-0.2-0.6-0.2c-0.3,0-0.6,0.1-0.8,0.2
		c-0.1,0.1-0.2,0.2-0.2,0.3c0,0.1,0.1,0.2,0.2,0.4c0.2,0.2,0.3,0.4,0.3,0.6c0,0.3-0.1,0.5-0.3,0.7c-0.2,0.2-0.4,0.3-0.7,0.3
		c-0.3,0-0.6-0.1-0.8-0.3c-0.2-0.2-0.3-0.4-0.3-0.7c0-0.4,0.1-0.7,0.4-1.1c0.3-0.3,0.7-0.6,1.2-0.8c0.5-0.2,1.1-0.3,1.7-0.3
		c0.7,0,1.2,0.1,1.6,0.4c0.4,0.3,0.7,0.6,0.8,1c0.1,0.2,0.1,0.7,0.1,1.5v2.8c0,0.3,0,0.5,0,0.6c0,0.1,0.1,0.1,0.1,0.2
		c0.1,0,0.1,0.1,0.2,0.1c0.1,0,0.3-0.1,0.4-0.3l0.2,0.2c-0.3,0.4-0.5,0.7-0.8,0.8c-0.3,0.2-0.6,0.3-0.9,0.3c-0.4,0-0.7-0.1-1-0.3
		S54.6,98.8,54.5,98.4z M54.5,97.8v-2.4c-0.6,0.4-1.1,0.8-1.4,1.2c-0.2,0.3-0.3,0.6-0.3,0.9c0,0.2,0.1,0.5,0.3,0.6
		c0.1,0.1,0.3,0.2,0.5,0.2C53.9,98.3,54.2,98.1,54.5,97.8z"/>
	<path d="M61.4,92.2v0.9c0.4-0.4,0.7-0.7,1.1-0.9c0.3-0.2,0.7-0.3,1.1-0.3c0.5,0,0.9,0.1,1.2,0.4c0.3,0.3,0.5,0.6,0.6,1
		c0.1,0.3,0.1,0.9,0.1,1.7v2.8c0,0.6,0.1,0.9,0.2,1.1c0.1,0.1,0.3,0.2,0.6,0.3v0.3h-3.7v-0.3c0.3,0,0.5-0.2,0.6-0.3
		c0.1-0.1,0.1-0.5,0.1-1v-3.2c0-0.6,0-1-0.1-1.1s-0.1-0.3-0.2-0.4c-0.1-0.1-0.2-0.1-0.4-0.1c-0.4,0-0.9,0.3-1.2,1v3.9
		c0,0.5,0.1,0.9,0.2,1c0.1,0.1,0.3,0.2,0.6,0.3v0.3h-3.7v-0.3c0.3,0,0.5-0.1,0.7-0.3c0.1-0.1,0.1-0.5,0.1-1v-4.1
		c0-0.6-0.1-0.9-0.2-1c-0.1-0.1-0.3-0.2-0.6-0.3v-0.3H61.4z"/>
	<path d="M81.5,88.7v3.7h-0.3c-0.3-1-0.9-1.8-1.6-2.3c-0.7-0.5-1.5-0.8-2.3-0.8c-0.8,0-1.5,0.2-2,0.7c-0.5,0.4-0.9,1.1-1.1,1.9
		S74,93.4,74,94.2c0,1,0.1,1.9,0.4,2.7c0.2,0.8,0.6,1.3,1.2,1.7c0.5,0.4,1.2,0.5,1.9,0.5c0.3,0,0.5,0,0.8-0.1
		c0.3-0.1,0.5-0.1,0.8-0.2v-2.2c0-0.4,0-0.7-0.1-0.8c-0.1-0.1-0.2-0.2-0.4-0.3c-0.2-0.1-0.4-0.1-0.7-0.1h-0.3V95h5.1v0.3
		c-0.4,0-0.7,0.1-0.8,0.2c-0.2,0.1-0.3,0.2-0.4,0.4c0,0.1-0.1,0.3-0.1,0.7v2.2c-0.7,0.3-1.4,0.5-2.1,0.7c-0.7,0.2-1.5,0.2-2.3,0.2
		c-1,0-1.8-0.1-2.5-0.4s-1.2-0.6-1.8-1.1s-0.9-0.9-1.2-1.5c-0.4-0.7-0.5-1.5-0.5-2.4c0-1.6,0.6-2.9,1.7-4c1.1-1.1,2.5-1.6,4.2-1.6
		c0.5,0,1,0,1.4,0.1c0.2,0,0.6,0.2,1.1,0.4c0.5,0.2,0.8,0.3,0.9,0.3c0.1,0,0.3-0.1,0.4-0.2c0.1-0.1,0.2-0.3,0.3-0.6H81.5z"/>
	<path d="M86.8,92c0.6,0,1.2,0.2,1.8,0.5s1,0.8,1.2,1.4c0.3,0.6,0.4,1.3,0.4,2c0,1-0.3,1.9-0.8,2.6c-0.6,0.8-1.5,1.3-2.6,1.3
		c-1.1,0-1.9-0.4-2.5-1.2c-0.6-0.8-0.9-1.7-0.9-2.7c0-1,0.3-2,0.9-2.7C84.9,92.4,85.8,92,86.8,92z M86.9,92.5
		c-0.3,0-0.5,0.1-0.7,0.3C86,93,85.9,93.4,85.8,94c-0.1,0.6-0.1,1.4-0.1,2.5c0,0.6,0,1.1,0.1,1.6c0.1,0.4,0.2,0.7,0.4,0.8
		c0.2,0.2,0.4,0.3,0.6,0.3c0.2,0,0.4-0.1,0.6-0.2c0.2-0.2,0.3-0.4,0.4-0.7c0.1-0.5,0.2-1.5,0.2-3c0-0.9,0-1.5-0.1-1.8
		c-0.1-0.3-0.2-0.6-0.4-0.7C87.3,92.6,87.1,92.5,86.9,92.5z"/>
	<path d="M94.6,99.7L92.1,94c-0.3-0.7-0.5-1.1-0.7-1.3c-0.1-0.1-0.3-0.2-0.5-0.3v-0.3h3.9v0.3c-0.2,0-0.4,0-0.5,0.1
		c-0.1,0.1-0.2,0.2-0.2,0.4c0,0.2,0.1,0.6,0.3,1.1l1.2,2.7l1-2.4c0.3-0.7,0.4-1.2,0.4-1.4c0-0.2-0.1-0.3-0.2-0.4s-0.3-0.2-0.6-0.2
		v-0.3h2.4v0.3c-0.2,0-0.4,0.1-0.6,0.3c-0.1,0.1-0.4,0.6-0.7,1.2l-2.4,5.7H94.6z"/>
	<path d="M105.3,95.6h-4c0,1,0.3,1.7,0.8,2.3c0.4,0.4,0.8,0.6,1.3,0.6c0.3,0,0.6-0.1,0.9-0.3c0.3-0.2,0.5-0.5,0.8-0.9l0.3,0.2
		c-0.4,0.8-0.8,1.4-1.3,1.7c-0.5,0.3-1,0.5-1.7,0.5c-1.1,0-1.9-0.4-2.5-1.2c-0.4-0.7-0.7-1.5-0.7-2.5c0-1.2,0.3-2.2,1-2.9
		c0.7-0.7,1.4-1.1,2.3-1.1c0.7,0,1.4,0.3,1.9,0.9C105,93.5,105.3,94.4,105.3,95.6z M103.4,95c0-0.8,0-1.4-0.1-1.7
		c-0.1-0.3-0.2-0.5-0.4-0.7c-0.1-0.1-0.3-0.1-0.4-0.1c-0.3,0-0.5,0.1-0.7,0.4c-0.3,0.5-0.5,1.1-0.5,1.9V95H103.4z"/>
	<path d="M109.2,92.2v1.7c0.5-0.8,0.9-1.3,1.3-1.5c0.4-0.2,0.7-0.4,1.1-0.4c0.3,0,0.5,0.1,0.7,0.3s0.3,0.4,0.3,0.8
		c0,0.3-0.1,0.6-0.3,0.8c-0.2,0.2-0.4,0.3-0.6,0.3c-0.3,0-0.5-0.1-0.7-0.3c-0.2-0.2-0.3-0.3-0.4-0.3c-0.1,0-0.1,0-0.2,0
		c-0.2,0-0.3,0.1-0.4,0.2c-0.2,0.2-0.4,0.4-0.5,0.8c-0.2,0.5-0.2,1.1-0.2,1.7v1.7l0,0.4c0,0.3,0,0.5,0.1,0.6
		c0.1,0.1,0.2,0.2,0.3,0.3c0.1,0.1,0.3,0.1,0.6,0.1v0.3h-3.9v-0.3c0.3,0,0.5-0.1,0.6-0.3s0.2-0.5,0.2-1.2v-4c0-0.4,0-0.7-0.1-0.8
		c-0.1-0.1-0.1-0.3-0.2-0.3c-0.1-0.1-0.3-0.1-0.5-0.1v-0.3H109.2z"/>
	<path d="M116.1,92.2v0.9c0.4-0.4,0.7-0.7,1.1-0.9c0.3-0.2,0.7-0.3,1.1-0.3c0.5,0,0.9,0.1,1.2,0.4c0.3,0.3,0.5,0.6,0.6,1
		c0.1,0.3,0.1,0.9,0.1,1.7v2.8c0,0.6,0.1,0.9,0.2,1.1c0.1,0.1,0.3,0.2,0.6,0.3v0.3h-3.7v-0.3c0.3,0,0.5-0.2,0.6-0.3
		c0.1-0.1,0.1-0.5,0.1-1v-3.2c0-0.6,0-1-0.1-1.1s-0.1-0.3-0.2-0.4s-0.2-0.1-0.4-0.1c-0.4,0-0.9,0.3-1.2,1v3.9c0,0.5,0.1,0.9,0.2,1
		c0.1,0.1,0.3,0.2,0.6,0.3v0.3h-3.7v-0.3c0.3,0,0.5-0.1,0.7-0.3c0.1-0.1,0.1-0.5,0.1-1v-4.1c0-0.6-0.1-0.9-0.2-1
		c-0.1-0.1-0.3-0.2-0.6-0.3v-0.3H116.1z"/>
	<path d="M125,92.2v1c0.4-0.4,0.8-0.7,1.1-0.9c0.3-0.2,0.7-0.3,1.1-0.3c0.5,0,0.9,0.1,1.2,0.3s0.6,0.6,0.7,1c0.4-0.5,0.8-0.8,1.2-1
		c0.4-0.2,0.8-0.3,1.2-0.3c0.5,0,0.9,0.1,1.2,0.3c0.3,0.2,0.5,0.5,0.6,0.9c0.1,0.4,0.2,0.9,0.2,1.7v3c0,0.6,0.1,0.9,0.2,1
		c0.1,0.1,0.3,0.2,0.6,0.3v0.3h-3.8v-0.3c0.3,0,0.5-0.1,0.7-0.3c0.1-0.1,0.1-0.5,0.1-1v-3.1c0-0.7,0-1.1-0.1-1.2
		c-0.1-0.2-0.1-0.3-0.2-0.4s-0.2-0.1-0.4-0.1c-0.2,0-0.5,0.1-0.7,0.2s-0.5,0.4-0.7,0.7v3.9c0,0.5,0,0.9,0.1,1
		c0.1,0.2,0.3,0.3,0.7,0.3v0.3h-3.8v-0.3c0.2,0,0.4-0.1,0.5-0.2c0.1-0.1,0.2-0.2,0.2-0.3c0-0.1,0.1-0.4,0.1-0.8v-3.1
		c0-0.7,0-1.1-0.1-1.2c-0.1-0.2-0.1-0.3-0.3-0.4s-0.3-0.1-0.4-0.1c-0.2,0-0.4,0.1-0.6,0.2c-0.2,0.2-0.5,0.4-0.8,0.8v3.9
		c0,0.5,0.1,0.9,0.2,1s0.3,0.3,0.6,0.3v0.3H122v-0.3c0.3,0,0.5-0.1,0.7-0.3c0.1-0.1,0.1-0.5,0.1-1v-4.1c0-0.6-0.1-0.9-0.2-1
		c-0.1-0.1-0.3-0.2-0.6-0.3v-0.3H125z"/>
	<path d="M141.3,95.6h-4c0,1,0.3,1.7,0.8,2.3c0.4,0.4,0.8,0.6,1.3,0.6c0.3,0,0.6-0.1,0.9-0.3c0.3-0.2,0.5-0.5,0.8-0.9l0.3,0.2
		c-0.4,0.8-0.8,1.4-1.3,1.7s-1,0.5-1.7,0.5c-1.1,0-1.9-0.4-2.5-1.2c-0.4-0.7-0.7-1.5-0.7-2.5c0-1.2,0.3-2.2,1-2.9
		c0.7-0.7,1.4-1.1,2.3-1.1c0.7,0,1.4,0.3,1.9,0.9C141,93.5,141.3,94.4,141.3,95.6z M139.4,95c0-0.8,0-1.4-0.1-1.7s-0.2-0.5-0.4-0.7
		c-0.1-0.1-0.3-0.1-0.4-0.1c-0.3,0-0.5,0.1-0.7,0.4c-0.3,0.5-0.5,1.1-0.5,1.9V95H139.4z"/>
	<path d="M145.1,92.2v0.9c0.4-0.4,0.7-0.7,1.1-0.9c0.3-0.2,0.7-0.3,1.1-0.3c0.5,0,0.9,0.1,1.2,0.4c0.3,0.3,0.5,0.6,0.6,1
		c0.1,0.3,0.1,0.9,0.1,1.7v2.8c0,0.6,0.1,0.9,0.2,1.1c0.1,0.1,0.3,0.2,0.6,0.3v0.3h-3.7v-0.3c0.3,0,0.5-0.2,0.6-0.3
		c0.1-0.1,0.1-0.5,0.1-1v-3.2c0-0.6,0-1-0.1-1.1s-0.1-0.3-0.2-0.4s-0.2-0.1-0.4-0.1c-0.4,0-0.9,0.3-1.2,1v3.9c0,0.5,0.1,0.9,0.2,1
		c0.1,0.1,0.3,0.2,0.6,0.3v0.3h-3.7v-0.3c0.3,0,0.5-0.1,0.7-0.3c0.1-0.1,0.1-0.5,0.1-1v-4.1c0-0.6-0.1-0.9-0.2-1
		c-0.1-0.1-0.3-0.2-0.6-0.3v-0.3H145.1z"/>
	<path d="M153.8,89.5v2.7h1.7V93h-1.7v4.5c0,0.4,0,0.7,0.1,0.8c0,0.1,0.1,0.2,0.2,0.3c0.1,0.1,0.2,0.1,0.3,0.1c0.3,0,0.7-0.3,1-0.8
		l0.2,0.2c-0.4,1-1.1,1.5-2.1,1.5c-0.5,0-0.9-0.1-1.2-0.4s-0.5-0.5-0.6-0.9c-0.1-0.2-0.1-0.7-0.1-1.4V93h-1v-0.3
		c0.7-0.5,1.2-1,1.7-1.5c0.5-0.5,0.9-1.1,1.2-1.7H153.8z"/>
</g>
<g>
	<path d="M-6,126.8v-0.3h0.4c0.3,0,0.5,0,0.7-0.1s0.3-0.2,0.4-0.4c0-0.1,0.1-0.4,0.1-1v-7c0-0.5,0-0.9-0.1-1
		c-0.1-0.1-0.2-0.3-0.3-0.4c-0.2-0.1-0.4-0.2-0.7-0.2H-6v-0.3h4.7c1.3,0,2.3,0.2,3.1,0.5c0.9,0.4,1.7,1.1,2.1,1.9
		c0.5,0.9,0.7,1.8,0.7,2.9c0,0.7-0.1,1.4-0.4,2.1c-0.2,0.6-0.5,1.1-0.9,1.6c-0.4,0.4-0.8,0.7-1.3,1c-0.5,0.2-1.1,0.4-1.8,0.6
		c-0.3,0.1-0.8,0.1-1.5,0.1H-6z M-1.9,116.8v8.3c0,0.4,0,0.7,0.1,0.8c0,0.1,0.1,0.2,0.2,0.2c0.1,0.1,0.3,0.1,0.6,0.1
		c0.9,0,1.5-0.3,2-0.9c0.6-0.8,0.9-2,0.9-3.7c0-1.4-0.2-2.4-0.6-3.3c-0.3-0.6-0.8-1.1-1.3-1.3C-0.4,116.8-1.1,116.8-1.9,116.8z"/>
	<path d="M12,122.8H8c0,1,0.3,1.7,0.8,2.3c0.4,0.4,0.8,0.6,1.3,0.6c0.3,0,0.6-0.1,0.9-0.3c0.3-0.2,0.5-0.5,0.8-0.9l0.3,0.2
		c-0.4,0.8-0.8,1.4-1.3,1.7c-0.5,0.3-1,0.5-1.7,0.5c-1.1,0-1.9-0.4-2.5-1.2c-0.4-0.7-0.7-1.5-0.7-2.5c0-1.2,0.3-2.2,1-2.9
		c0.7-0.7,1.4-1.1,2.3-1.1c0.7,0,1.4,0.3,1.9,0.9C11.7,120.8,11.9,121.7,12,122.8z M10.1,122.3c0-0.8,0-1.4-0.1-1.7
		c-0.1-0.3-0.2-0.5-0.4-0.7c-0.1-0.1-0.3-0.1-0.4-0.1c-0.3,0-0.5,0.1-0.7,0.4c-0.3,0.5-0.5,1.1-0.5,1.9v0.3H10.1z"/>
	<path d="M15.6,126v2.7c0,0.4,0,0.6,0.1,0.8c0.1,0.1,0.2,0.2,0.3,0.3s0.4,0.1,0.7,0.1v0.3h-4.2v-0.3c0.3,0,0.6-0.1,0.7-0.3
		c0.1-0.1,0.2-0.4,0.2-0.9V121c0-0.5-0.1-0.8-0.2-1c-0.1-0.1-0.4-0.2-0.7-0.2v-0.3h3.1v1c0.3-0.4,0.5-0.6,0.8-0.8
		c0.4-0.2,0.8-0.4,1.2-0.4c0.5,0,1,0.2,1.5,0.5c0.4,0.3,0.8,0.8,1,1.4c0.2,0.6,0.3,1.2,0.3,1.9c0,0.7-0.1,1.4-0.4,2
		c-0.2,0.6-0.6,1.1-1,1.4c-0.5,0.3-1,0.5-1.5,0.5c-0.4,0-0.8-0.1-1.1-0.3C16.2,126.6,15.9,126.3,15.6,126z M15.6,125.2
		c0.4,0.6,0.9,1,1.4,1c0.3,0,0.5-0.1,0.7-0.4c0.3-0.4,0.4-1.3,0.4-2.5c0-1.3-0.1-2.1-0.4-2.6c-0.2-0.3-0.5-0.5-0.8-0.5
		c-0.5,0-1,0.4-1.3,1.1V125.2z"/>
	<path d="M25.6,125.7c-0.9,0.8-1.7,1.2-2.4,1.2c-0.4,0-0.8-0.1-1-0.4c-0.3-0.3-0.4-0.6-0.4-1c0-0.6,0.2-1.1,0.7-1.5
		c0.5-0.4,1.5-1,3.1-1.8v-0.7c0-0.6,0-0.9-0.1-1c-0.1-0.1-0.2-0.3-0.3-0.4c-0.2-0.1-0.4-0.2-0.6-0.2c-0.3,0-0.6,0.1-0.8,0.2
		c-0.1,0.1-0.2,0.2-0.2,0.3c0,0.1,0.1,0.2,0.2,0.4c0.2,0.2,0.3,0.4,0.3,0.6c0,0.3-0.1,0.5-0.3,0.7c-0.2,0.2-0.4,0.3-0.7,0.3
		c-0.3,0-0.6-0.1-0.8-0.3c-0.2-0.2-0.3-0.4-0.3-0.7c0-0.4,0.1-0.7,0.4-1.1s0.7-0.6,1.2-0.8s1.1-0.3,1.7-0.3c0.7,0,1.2,0.1,1.6,0.4
		c0.4,0.3,0.7,0.6,0.8,1c0.1,0.2,0.1,0.7,0.1,1.5v2.8c0,0.3,0,0.5,0,0.6c0,0.1,0.1,0.1,0.1,0.2c0.1,0,0.1,0.1,0.2,0.1
		c0.1,0,0.3-0.1,0.4-0.3l0.2,0.2c-0.3,0.4-0.5,0.7-0.8,0.8c-0.3,0.2-0.6,0.3-0.9,0.3c-0.4,0-0.7-0.1-1-0.3S25.7,126.1,25.6,125.7z
		 M25.6,125.1v-2.4c-0.6,0.4-1.1,0.8-1.4,1.2c-0.2,0.3-0.3,0.6-0.3,0.9c0,0.2,0.1,0.5,0.3,0.6c0.1,0.1,0.3,0.2,0.5,0.2
		C25,125.5,25.3,125.4,25.6,125.1z"/>
	<path d="M32.5,119.5v1.7c0.5-0.8,0.9-1.3,1.3-1.5c0.4-0.2,0.7-0.4,1.1-0.4c0.3,0,0.5,0.1,0.7,0.3c0.2,0.2,0.3,0.4,0.3,0.8
		c0,0.3-0.1,0.6-0.3,0.8c-0.2,0.2-0.4,0.3-0.6,0.3c-0.3,0-0.5-0.1-0.7-0.3s-0.3-0.3-0.4-0.3c-0.1,0-0.1,0-0.2,0
		c-0.2,0-0.3,0.1-0.4,0.2c-0.2,0.2-0.4,0.4-0.5,0.8c-0.2,0.5-0.2,1.1-0.2,1.7v1.7l0,0.4c0,0.3,0,0.5,0.1,0.6
		c0.1,0.1,0.2,0.2,0.3,0.3c0.1,0.1,0.3,0.1,0.6,0.1v0.3h-3.9v-0.3c0.3,0,0.5-0.1,0.6-0.3c0.1-0.1,0.2-0.5,0.2-1.2v-4
		c0-0.4,0-0.7-0.1-0.8c-0.1-0.1-0.1-0.3-0.2-0.3c-0.1-0.1-0.3-0.1-0.5-0.1v-0.3H32.5z"/>
	<path d="M39.4,116.8v2.7h1.7v0.8h-1.7v4.5c0,0.4,0,0.7,0.1,0.8s0.1,0.2,0.2,0.3c0.1,0.1,0.2,0.1,0.3,0.1c0.3,0,0.7-0.3,1-0.8
		l0.2,0.2c-0.4,1-1.1,1.5-2.1,1.5c-0.5,0-0.9-0.1-1.2-0.4s-0.5-0.5-0.6-0.9c-0.1-0.2-0.1-0.7-0.1-1.4v-3.9h-1V120
		c0.7-0.5,1.2-1,1.7-1.5s0.9-1.1,1.2-1.7H39.4z"/>
	<path d="M44.7,119.5v1c0.4-0.4,0.8-0.7,1.1-0.9c0.3-0.2,0.7-0.3,1.1-0.3c0.5,0,0.9,0.1,1.2,0.3c0.3,0.2,0.6,0.6,0.7,1
		c0.4-0.5,0.8-0.8,1.2-1s0.8-0.3,1.2-0.3c0.5,0,0.9,0.1,1.2,0.3c0.3,0.2,0.5,0.5,0.6,0.9s0.2,0.9,0.2,1.7v3c0,0.6,0.1,0.9,0.2,1
		s0.3,0.2,0.6,0.3v0.3h-3.8v-0.3c0.3,0,0.5-0.1,0.7-0.3c0.1-0.1,0.1-0.5,0.1-1V122c0-0.7,0-1.1-0.1-1.2c-0.1-0.2-0.1-0.3-0.2-0.4
		c-0.1-0.1-0.2-0.1-0.4-0.1c-0.2,0-0.5,0.1-0.7,0.2c-0.2,0.2-0.5,0.4-0.7,0.7v3.9c0,0.5,0,0.9,0.1,1c0.1,0.2,0.3,0.3,0.7,0.3v0.3H46
		v-0.3c0.2,0,0.4-0.1,0.5-0.2s0.2-0.2,0.2-0.3s0.1-0.4,0.1-0.8V122c0-0.7,0-1.1-0.1-1.2c-0.1-0.2-0.1-0.3-0.3-0.4
		c-0.1-0.1-0.3-0.1-0.4-0.1c-0.2,0-0.4,0.1-0.6,0.2c-0.2,0.2-0.5,0.4-0.8,0.8v3.9c0,0.5,0.1,0.9,0.2,1s0.3,0.3,0.6,0.3v0.3h-3.8
		v-0.3c0.3,0,0.5-0.1,0.7-0.3c0.1-0.1,0.1-0.5,0.1-1V121c0-0.6-0.1-0.9-0.2-1s-0.3-0.2-0.6-0.3v-0.3H44.7z"/>
	<path d="M61.1,122.8h-4c0,1,0.3,1.7,0.8,2.3c0.4,0.4,0.8,0.6,1.3,0.6c0.3,0,0.6-0.1,0.9-0.3c0.3-0.2,0.5-0.5,0.8-0.9l0.3,0.2
		c-0.4,0.8-0.8,1.4-1.3,1.7c-0.5,0.3-1,0.5-1.7,0.5c-1.1,0-1.9-0.4-2.5-1.2c-0.4-0.7-0.7-1.5-0.7-2.5c0-1.2,0.3-2.2,1-2.9
		c0.7-0.7,1.4-1.1,2.3-1.1c0.7,0,1.4,0.3,1.9,0.9C60.7,120.8,61,121.7,61.1,122.8z M59.1,122.3c0-0.8,0-1.4-0.1-1.7
		c-0.1-0.3-0.2-0.5-0.4-0.7c-0.1-0.1-0.3-0.1-0.4-0.1c-0.3,0-0.5,0.1-0.7,0.4c-0.3,0.5-0.5,1.1-0.5,1.9v0.3H59.1z"/>
	<path d="M64.9,119.5v0.9c0.4-0.4,0.7-0.7,1.1-0.9s0.7-0.3,1.1-0.3c0.5,0,0.9,0.1,1.2,0.4s0.5,0.6,0.6,1c0.1,0.3,0.1,0.9,0.1,1.7
		v2.8c0,0.6,0.1,0.9,0.2,1.1s0.3,0.2,0.6,0.3v0.3h-3.7v-0.3c0.3,0,0.5-0.2,0.6-0.3c0.1-0.1,0.1-0.5,0.1-1v-3.2c0-0.6,0-1-0.1-1.1
		s-0.1-0.3-0.2-0.4c-0.1-0.1-0.2-0.1-0.4-0.1c-0.4,0-0.9,0.3-1.2,1v3.9c0,0.5,0.1,0.9,0.2,1s0.3,0.2,0.6,0.3v0.3h-3.7v-0.3
		c0.3,0,0.5-0.1,0.7-0.3c0.1-0.1,0.1-0.5,0.1-1V121c0-0.6-0.1-0.9-0.2-1s-0.3-0.2-0.6-0.3v-0.3H64.9z"/>
	<path d="M73.6,116.8v2.7h1.7v0.8h-1.7v4.5c0,0.4,0,0.7,0.1,0.8s0.1,0.2,0.2,0.3c0.1,0.1,0.2,0.1,0.3,0.1c0.3,0,0.7-0.3,1-0.8
		l0.2,0.2c-0.4,1-1.1,1.5-2.1,1.5c-0.5,0-0.9-0.1-1.2-0.4s-0.5-0.5-0.6-0.9c-0.1-0.2-0.1-0.7-0.1-1.4v-3.9h-1V120
		c0.7-0.5,1.2-1,1.7-1.5s0.9-1.1,1.2-1.7H73.6z"/>
	<path d="M83.2,119.2c0.6,0,1.2,0.2,1.8,0.5s1,0.8,1.2,1.4c0.3,0.6,0.4,1.3,0.4,2c0,1-0.3,1.9-0.8,2.6c-0.6,0.8-1.5,1.3-2.6,1.3
		c-1.1,0-1.9-0.4-2.5-1.2s-0.9-1.7-0.9-2.7c0-1,0.3-2,0.9-2.7C81.3,119.6,82.2,119.2,83.2,119.2z M83.2,119.8
		c-0.3,0-0.5,0.1-0.7,0.3c-0.2,0.2-0.3,0.6-0.4,1.2c-0.1,0.6-0.1,1.4-0.1,2.5c0,0.6,0,1.1,0.1,1.6c0.1,0.4,0.2,0.7,0.4,0.8
		s0.4,0.3,0.6,0.3c0.2,0,0.4-0.1,0.6-0.2c0.2-0.2,0.3-0.4,0.4-0.7c0.1-0.5,0.2-1.5,0.2-3c0-0.9,0-1.5-0.1-1.8
		c-0.1-0.3-0.2-0.6-0.4-0.7C83.6,119.8,83.5,119.8,83.2,119.8z"/>
	<path d="M90.9,120.2v5.1c0,0.5,0.1,0.8,0.2,0.9c0.2,0.2,0.5,0.3,0.9,0.3v0.3h-4.3v-0.3c0.3,0,0.6,0,0.7-0.1
		c0.1-0.1,0.2-0.2,0.3-0.3c0.1-0.1,0.1-0.4,0.1-0.8v-5.1h-1.1v-0.8h1.1v-0.5l0-0.4c0-0.8,0.3-1.4,0.8-1.9c0.5-0.5,1.3-0.8,2.2-0.8
		c0.6,0,1.1,0.1,1.4,0.4c0.3,0.2,0.5,0.5,0.5,0.8c0,0.2-0.1,0.4-0.3,0.6c-0.2,0.2-0.4,0.3-0.8,0.3c-0.3,0-0.5-0.1-0.6-0.2
		c-0.2-0.1-0.2-0.3-0.2-0.5c0,0,0-0.1,0-0.3c0-0.1,0-0.2,0-0.2c0-0.1,0-0.2-0.1-0.2c-0.1-0.1-0.2-0.1-0.3-0.1
		c-0.2,0-0.3,0.1-0.4,0.2s-0.2,0.3-0.2,0.6l0,1.4v0.9h1.1v0.8H90.9z"/>
	<path d="M106.9,115.9v3.7h-0.3c-0.2-1-0.7-1.7-1.3-2.2s-1.3-0.8-2.1-0.8c-0.7,0-1.3,0.2-1.8,0.6c-0.6,0.4-1,0.9-1.2,1.5
		c-0.3,0.8-0.5,1.7-0.5,2.6c0,0.9,0.1,1.8,0.4,2.6c0.2,0.8,0.6,1.4,1.1,1.8c0.5,0.4,1.2,0.6,2,0.6c0.7,0,1.3-0.1,1.8-0.4
		s1.1-0.8,1.8-1.5v0.9c-0.6,0.6-1.2,1.1-1.9,1.3c-0.6,0.3-1.4,0.4-2.3,0.4c-1.1,0-2.1-0.2-3-0.7c-0.9-0.5-1.6-1.1-2-2
		s-0.7-1.8-0.7-2.7c0-1,0.3-2,0.8-2.9c0.5-0.9,1.2-1.6,2.1-2.1s1.9-0.8,2.9-0.8c0.7,0,1.5,0.2,2.4,0.5c0.5,0.2,0.8,0.3,0.9,0.3
		c0.2,0,0.3-0.1,0.4-0.2c0.1-0.1,0.2-0.3,0.2-0.6H106.9z"/>
	<path d="M111.6,119.2c0.6,0,1.2,0.2,1.8,0.5s1,0.8,1.2,1.4s0.4,1.3,0.4,2c0,1-0.3,1.9-0.8,2.6c-0.6,0.8-1.5,1.3-2.6,1.3
		c-1.1,0-1.9-0.4-2.5-1.2s-0.9-1.7-0.9-2.7c0-1,0.3-2,0.9-2.7S110.6,119.2,111.6,119.2z M111.7,119.8c-0.3,0-0.5,0.1-0.7,0.3
		s-0.3,0.6-0.4,1.2s-0.1,1.4-0.1,2.5c0,0.6,0,1.1,0.1,1.6c0.1,0.4,0.2,0.7,0.4,0.8s0.4,0.3,0.6,0.3c0.2,0,0.4-0.1,0.6-0.2
		c0.2-0.2,0.3-0.4,0.4-0.7c0.1-0.5,0.2-1.5,0.2-3c0-0.9,0-1.5-0.1-1.8s-0.2-0.6-0.4-0.7C112.1,119.8,111.9,119.8,111.7,119.8z"/>
	<path d="M119.1,119.5v1c0.4-0.4,0.8-0.7,1.1-0.9s0.7-0.3,1.1-0.3c0.5,0,0.9,0.1,1.2,0.3s0.6,0.6,0.7,1c0.4-0.5,0.8-0.8,1.2-1
		s0.8-0.3,1.2-0.3c0.5,0,0.9,0.1,1.2,0.3s0.5,0.5,0.6,0.9s0.2,0.9,0.2,1.7v3c0,0.6,0.1,0.9,0.2,1s0.3,0.2,0.6,0.3v0.3h-3.8v-0.3
		c0.3,0,0.5-0.1,0.7-0.3c0.1-0.1,0.1-0.5,0.1-1V122c0-0.7,0-1.1-0.1-1.2s-0.1-0.3-0.2-0.4s-0.2-0.1-0.4-0.1c-0.2,0-0.5,0.1-0.7,0.2
		s-0.5,0.4-0.7,0.7v3.9c0,0.5,0,0.9,0.1,1c0.1,0.2,0.3,0.3,0.7,0.3v0.3h-3.8v-0.3c0.2,0,0.4-0.1,0.5-0.2s0.2-0.2,0.2-0.3
		s0.1-0.4,0.1-0.8V122c0-0.7,0-1.1-0.1-1.2s-0.1-0.3-0.3-0.4s-0.3-0.1-0.4-0.1c-0.2,0-0.4,0.1-0.6,0.2c-0.2,0.2-0.5,0.4-0.8,0.8v3.9
		c0,0.5,0.1,0.9,0.2,1s0.3,0.3,0.6,0.3v0.3h-3.8v-0.3c0.3,0,0.5-0.1,0.7-0.3c0.1-0.1,0.1-0.5,0.1-1V121c0-0.6-0.1-0.9-0.2-1
		s-0.3-0.2-0.6-0.3v-0.3H119.1z"/>
	<path d="M132.3,119.5v1c0.4-0.4,0.8-0.7,1.1-0.9s0.7-0.3,1.1-0.3c0.5,0,0.9,0.1,1.2,0.3s0.6,0.6,0.7,1c0.4-0.5,0.8-0.8,1.2-1
		s0.8-0.3,1.2-0.3c0.5,0,0.9,0.1,1.2,0.3s0.5,0.5,0.6,0.9s0.2,0.9,0.2,1.7v3c0,0.6,0.1,0.9,0.2,1s0.3,0.2,0.6,0.3v0.3h-3.8v-0.3
		c0.3,0,0.5-0.1,0.7-0.3c0.1-0.1,0.1-0.5,0.1-1V122c0-0.7,0-1.1-0.1-1.2s-0.1-0.3-0.2-0.4s-0.2-0.1-0.4-0.1c-0.2,0-0.5,0.1-0.7,0.2
		s-0.5,0.4-0.7,0.7v3.9c0,0.5,0,0.9,0.1,1c0.1,0.2,0.3,0.3,0.7,0.3v0.3h-3.8v-0.3c0.2,0,0.4-0.1,0.5-0.2s0.2-0.2,0.2-0.3
		s0.1-0.4,0.1-0.8V122c0-0.7,0-1.1-0.1-1.2s-0.1-0.3-0.3-0.4s-0.3-0.1-0.4-0.1c-0.2,0-0.4,0.1-0.6,0.2c-0.2,0.2-0.5,0.4-0.8,0.8v3.9
		c0,0.5,0.1,0.9,0.2,1s0.3,0.3,0.6,0.3v0.3h-3.8v-0.3c0.3,0,0.5-0.1,0.7-0.3c0.1-0.1,0.1-0.5,0.1-1V121c0-0.6-0.1-0.9-0.2-1
		s-0.3-0.2-0.6-0.3v-0.3H132.3z"/>
	<path d="M149.6,119.5v5.7c0,0.6,0.1,0.9,0.2,1s0.3,0.2,0.6,0.3v0.3h-3v-1c-0.3,0.4-0.7,0.7-1,0.9c-0.3,0.2-0.7,0.3-1.2,0.3
		c-0.4,0-0.8-0.1-1.1-0.4c-0.3-0.3-0.5-0.5-0.6-0.9s-0.2-0.9-0.2-1.8V121c0-0.6-0.1-0.9-0.2-1s-0.3-0.2-0.6-0.3v-0.3h3v5
		c0,0.5,0,0.9,0.1,1s0.1,0.3,0.2,0.3s0.2,0.1,0.4,0.1c0.2,0,0.4,0,0.5-0.1c0.2-0.1,0.5-0.4,0.8-0.8V121c0-0.6-0.1-0.9-0.2-1
		s-0.3-0.2-0.6-0.3v-0.3H149.6z"/>
	<path d="M154.3,119.5v0.9c0.4-0.4,0.7-0.7,1.1-0.9s0.7-0.3,1.1-0.3c0.5,0,0.9,0.1,1.2,0.4s0.5,0.6,0.6,1c0.1,0.3,0.1,0.9,0.1,1.7
		v2.8c0,0.6,0.1,0.9,0.2,1.1s0.3,0.2,0.6,0.3v0.3h-3.7v-0.3c0.3,0,0.5-0.2,0.6-0.3c0.1-0.1,0.1-0.5,0.1-1v-3.2c0-0.6,0-1-0.1-1.1
		s-0.1-0.3-0.2-0.4s-0.2-0.1-0.4-0.1c-0.4,0-0.9,0.3-1.2,1v3.9c0,0.5,0.1,0.9,0.2,1s0.3,0.2,0.6,0.3v0.3h-3.7v-0.3
		c0.3,0,0.5-0.1,0.7-0.3c0.1-0.1,0.1-0.5,0.1-1V121c0-0.6-0.1-0.9-0.2-1s-0.3-0.2-0.6-0.3v-0.3H154.3z"/>
	<path d="M162.9,119.5v5.8c0,0.5,0.1,0.8,0.2,1s0.4,0.2,0.7,0.2v0.3h-3.9v-0.3c0.3,0,0.6-0.1,0.7-0.3c0.1-0.1,0.2-0.4,0.2-1V121
		c0-0.5-0.1-0.8-0.2-1s-0.4-0.2-0.7-0.2v-0.3H162.9z M161.8,115.9c0.3,0,0.6,0.1,0.9,0.4s0.4,0.5,0.4,0.9s-0.1,0.6-0.4,0.9
		s-0.5,0.4-0.9,0.4s-0.6-0.1-0.9-0.4s-0.4-0.5-0.4-0.9s0.1-0.6,0.4-0.9S161.5,115.9,161.8,115.9z"/>
	<path d="M170.4,124.9l0.2,0.2c-0.3,0.6-0.8,1.1-1.3,1.4c-0.5,0.3-1.1,0.5-1.6,0.5c-1,0-1.8-0.4-2.3-1.1s-0.9-1.6-0.9-2.6
		c0-1,0.3-1.9,0.8-2.6c0.6-0.9,1.5-1.4,2.6-1.4c0.8,0,1.4,0.2,1.8,0.6s0.7,0.8,0.7,1.3c0,0.3-0.1,0.5-0.3,0.7s-0.4,0.3-0.7,0.3
		c-0.3,0-0.6-0.1-0.8-0.3s-0.3-0.6-0.4-1.1c0-0.3-0.1-0.6-0.2-0.7s-0.3-0.2-0.4-0.2c-0.2,0-0.5,0.1-0.6,0.4c-0.3,0.4-0.4,1-0.4,1.8
		c0,0.7,0.1,1.3,0.3,2s0.5,1.1,0.9,1.4c0.3,0.2,0.6,0.3,1,0.3c0.3,0,0.5-0.1,0.7-0.2S170.1,125.2,170.4,124.9z"/>
	<path d="M175.4,125.7c-0.9,0.8-1.7,1.2-2.4,1.2c-0.4,0-0.8-0.1-1-0.4s-0.4-0.6-0.4-1c0-0.6,0.2-1.1,0.7-1.5s1.5-1,3.1-1.8v-0.7
		c0-0.6,0-0.9-0.1-1s-0.2-0.3-0.3-0.4s-0.4-0.2-0.6-0.2c-0.3,0-0.6,0.1-0.8,0.2c-0.1,0.1-0.2,0.2-0.2,0.3c0,0.1,0.1,0.2,0.2,0.4
		c0.2,0.2,0.3,0.4,0.3,0.6c0,0.3-0.1,0.5-0.3,0.7s-0.4,0.3-0.7,0.3c-0.3,0-0.6-0.1-0.8-0.3s-0.3-0.4-0.3-0.7c0-0.4,0.1-0.7,0.4-1.1
		s0.7-0.6,1.2-0.8s1.1-0.3,1.7-0.3c0.7,0,1.2,0.1,1.6,0.4s0.7,0.6,0.8,1c0.1,0.2,0.1,0.7,0.1,1.5v2.8c0,0.3,0,0.5,0,0.6
		s0.1,0.1,0.1,0.2s0.1,0.1,0.2,0.1c0.1,0,0.3-0.1,0.4-0.3l0.2,0.2c-0.3,0.4-0.5,0.7-0.8,0.8c-0.3,0.2-0.6,0.3-0.9,0.3
		c-0.4,0-0.7-0.1-1-0.3S175.5,126.1,175.4,125.7z M175.4,125.1v-2.4c-0.6,0.4-1.1,0.8-1.4,1.2c-0.2,0.3-0.3,0.6-0.3,0.9
		c0,0.2,0.1,0.5,0.3,0.6c0.1,0.1,0.3,0.2,0.5,0.2C174.8,125.5,175.1,125.4,175.4,125.1z"/>
	<path d="M182.2,116.8v2.7h1.7v0.8h-1.7v4.5c0,0.4,0,0.7,0.1,0.8s0.1,0.2,0.2,0.3s0.2,0.1,0.3,0.1c0.3,0,0.7-0.3,1-0.8l0.2,0.2
		c-0.4,1-1.1,1.5-2.1,1.5c-0.5,0-0.9-0.1-1.2-0.4s-0.5-0.5-0.6-0.9c-0.1-0.2-0.1-0.7-0.1-1.4v-3.9h-1V120c0.7-0.5,1.2-1,1.7-1.5
		s0.9-1.1,1.2-1.7H182.2z"/>
	<path d="M187.4,119.5v5.8c0,0.5,0.1,0.8,0.2,1s0.4,0.2,0.7,0.2v0.3h-3.9v-0.3c0.3,0,0.6-0.1,0.7-0.3c0.1-0.1,0.2-0.4,0.2-1V121
		c0-0.5-0.1-0.8-0.2-1s-0.4-0.2-0.7-0.2v-0.3H187.4z M186.3,115.9c0.3,0,0.6,0.1,0.9,0.4s0.4,0.5,0.4,0.9s-0.1,0.6-0.4,0.9
		s-0.5,0.4-0.9,0.4s-0.6-0.1-0.9-0.4s-0.4-0.5-0.4-0.9s0.1-0.6,0.4-0.9S185.9,115.9,186.3,115.9z"/>
	<path d="M192.3,119.2c0.6,0,1.2,0.2,1.8,0.5s1,0.8,1.2,1.4s0.4,1.3,0.4,2c0,1-0.3,1.9-0.8,2.6c-0.6,0.8-1.5,1.3-2.6,1.3
		c-1.1,0-1.9-0.4-2.5-1.2s-0.9-1.7-0.9-2.7c0-1,0.3-2,0.9-2.7S191.2,119.2,192.3,119.2z M192.3,119.8c-0.3,0-0.5,0.1-0.7,0.3
		s-0.3,0.6-0.4,1.2s-0.1,1.4-0.1,2.5c0,0.6,0,1.1,0.1,1.6c0.1,0.4,0.2,0.7,0.4,0.8s0.4,0.3,0.6,0.3c0.2,0,0.4-0.1,0.6-0.2
		c0.2-0.2,0.3-0.4,0.4-0.7c0.1-0.5,0.2-1.5,0.2-3c0-0.9,0-1.5-0.1-1.8s-0.2-0.6-0.4-0.7C192.7,119.8,192.5,119.8,192.3,119.8z"/>
	<path d="M199.7,119.5v0.9c0.4-0.4,0.7-0.7,1.1-0.9s0.7-0.3,1.1-0.3c0.5,0,0.9,0.1,1.2,0.4s0.5,0.6,0.6,1c0.1,0.3,0.1,0.9,0.1,1.7
		v2.8c0,0.6,0.1,0.9,0.2,1.1s0.3,0.2,0.6,0.3v0.3h-3.7v-0.3c0.3,0,0.5-0.2,0.6-0.3c0.1-0.1,0.1-0.5,0.1-1v-3.2c0-0.6,0-1-0.1-1.1
		s-0.1-0.3-0.2-0.4s-0.2-0.1-0.4-0.1c-0.4,0-0.9,0.3-1.2,1v3.9c0,0.5,0.1,0.9,0.2,1s0.3,0.2,0.6,0.3v0.3h-3.7v-0.3
		c0.3,0,0.5-0.1,0.7-0.3c0.1-0.1,0.1-0.5,0.1-1V121c0-0.6-0.1-0.9-0.2-1s-0.3-0.2-0.6-0.3v-0.3H199.7z"/>
	<path d="M210.1,119.2l0.1,2.5H210c-0.3-0.7-0.6-1.2-1-1.5s-0.7-0.4-1-0.4c-0.2,0-0.4,0.1-0.5,0.2s-0.2,0.3-0.2,0.5
		c0,0.1,0.1,0.3,0.2,0.4c0.2,0.2,0.6,0.6,1.4,1.1s1.3,1,1.5,1.3s0.4,0.8,0.4,1.2c0,0.4-0.1,0.8-0.3,1.2s-0.5,0.7-0.9,0.9
		s-0.8,0.3-1.2,0.3c-0.3,0-0.8-0.1-1.4-0.3c-0.2-0.1-0.3-0.1-0.3-0.1c-0.2,0-0.3,0.1-0.4,0.4h-0.3l-0.1-2.6h0.3
		c0.2,0.7,0.6,1.2,1,1.5s0.8,0.5,1.2,0.5c0.2,0,0.5-0.1,0.6-0.2s0.2-0.3,0.2-0.6c0-0.2-0.1-0.5-0.2-0.6s-0.5-0.5-1-0.8
		c-0.8-0.6-1.3-1-1.5-1.3c-0.3-0.4-0.5-0.9-0.5-1.4c0-0.6,0.2-1.1,0.6-1.5s0.9-0.7,1.7-0.7c0.4,0,0.8,0.1,1.1,0.3
		c0.1,0.1,0.3,0.1,0.3,0.1c0.1,0,0.2,0,0.2-0.1s0.1-0.1,0.3-0.3H210.1z"/>
	<path d="M219.6,125.7c-0.9,0.8-1.7,1.2-2.4,1.2c-0.4,0-0.8-0.1-1-0.4s-0.4-0.6-0.4-1c0-0.6,0.2-1.1,0.7-1.5s1.5-1,3.1-1.8v-0.7
		c0-0.6,0-0.9-0.1-1s-0.2-0.3-0.3-0.4s-0.4-0.2-0.6-0.2c-0.3,0-0.6,0.1-0.8,0.2c-0.1,0.1-0.2,0.2-0.2,0.3c0,0.1,0.1,0.2,0.2,0.4
		c0.2,0.2,0.3,0.4,0.3,0.6c0,0.3-0.1,0.5-0.3,0.7s-0.4,0.3-0.7,0.3c-0.3,0-0.6-0.1-0.8-0.3s-0.3-0.4-0.3-0.7c0-0.4,0.1-0.7,0.4-1.1
		s0.7-0.6,1.2-0.8s1.1-0.3,1.7-0.3c0.7,0,1.2,0.1,1.6,0.4s0.7,0.6,0.8,1c0.1,0.2,0.1,0.7,0.1,1.5v2.8c0,0.3,0,0.5,0,0.6
		s0.1,0.1,0.1,0.2s0.1,0.1,0.2,0.1c0.1,0,0.3-0.1,0.4-0.3l0.2,0.2c-0.3,0.4-0.5,0.7-0.8,0.8c-0.3,0.2-0.6,0.3-0.9,0.3
		c-0.4,0-0.7-0.1-1-0.3S219.6,126.1,219.6,125.7z M219.6,125.1v-2.4c-0.6,0.4-1.1,0.8-1.4,1.2c-0.2,0.3-0.3,0.6-0.3,0.9
		c0,0.2,0.1,0.5,0.3,0.6c0.1,0.1,0.3,0.2,0.5,0.2C218.9,125.5,219.2,125.4,219.6,125.1z"/>
	<path d="M226.4,119.5v0.9c0.4-0.4,0.7-0.7,1.1-0.9s0.7-0.3,1.1-0.3c0.5,0,0.9,0.1,1.2,0.4s0.5,0.6,0.6,1c0.1,0.3,0.1,0.9,0.1,1.7
		v2.8c0,0.6,0.1,0.9,0.2,1.1s0.3,0.2,0.6,0.3v0.3h-3.7v-0.3c0.3,0,0.5-0.2,0.6-0.3c0.1-0.1,0.1-0.5,0.1-1v-3.2c0-0.6,0-1-0.1-1.1
		s-0.1-0.3-0.2-0.4s-0.2-0.1-0.4-0.1c-0.4,0-0.9,0.3-1.2,1v3.9c0,0.5,0.1,0.9,0.2,1s0.3,0.2,0.6,0.3v0.3h-3.7v-0.3
		c0.3,0,0.5-0.1,0.7-0.3c0.1-0.1,0.1-0.5,0.1-1V121c0-0.6-0.1-0.9-0.2-1s-0.3-0.2-0.6-0.3v-0.3H226.4z"/>
	<path d="M239.3,116.2v8.4c0,0.6,0,0.9,0,1c0,0.2,0.1,0.3,0.2,0.4s0.3,0.1,0.6,0.2v0.3l-3.1,0.6v-1.2c-0.4,0.4-0.7,0.8-1,0.9
		s-0.6,0.2-1,0.2c-0.9,0-1.7-0.4-2.2-1.2c-0.4-0.7-0.7-1.5-0.7-2.5c0-0.8,0.1-1.5,0.4-2.1s0.6-1.1,1.1-1.4s1-0.5,1.5-0.5
		c0.3,0,0.7,0.1,0.9,0.2s0.6,0.4,0.9,0.7v-2.2c0-0.6,0-0.9-0.1-1c-0.1-0.2-0.2-0.3-0.3-0.3s-0.4-0.1-0.7-0.1v-0.3H239.3z
		 M237.1,121.1c-0.4-0.7-0.9-1.1-1.4-1.1c-0.2,0-0.4,0.1-0.5,0.2c-0.2,0.2-0.4,0.4-0.5,0.9s-0.2,1-0.2,1.9c0,0.9,0.1,1.6,0.2,2
		s0.3,0.8,0.6,1c0.1,0.1,0.3,0.1,0.5,0.1c0.5,0,0.9-0.4,1.3-1.1V121.1z"/>
	<path d="M247.8,116.8v2.7h1.7v0.8h-1.7v4.5c0,0.4,0,0.7,0.1,0.8s0.1,0.2,0.2,0.3s0.2,0.1,0.3,0.1c0.3,0,0.7-0.3,1-0.8l0.2,0.2
		c-0.4,1-1.1,1.5-2.1,1.5c-0.5,0-0.9-0.1-1.2-0.4s-0.5-0.5-0.6-0.9c-0.1-0.2-0.1-0.7-0.1-1.4v-3.9h-1V120c0.7-0.5,1.2-1,1.7-1.5
		s0.9-1.1,1.2-1.7H247.8z"/>
	<path d="M253.1,116.2v4.2c0.4-0.4,0.8-0.7,1.1-0.9s0.7-0.3,1-0.3c0.5,0,0.9,0.1,1.2,0.4s0.5,0.6,0.6,0.9s0.2,0.9,0.2,1.8v2.9
		c0,0.6,0.1,0.9,0.2,1s0.3,0.2,0.6,0.3v0.3h-3.7v-0.3c0.3,0,0.5-0.1,0.6-0.3c0.1-0.1,0.1-0.5,0.1-1v-3.3c0-0.6,0-1-0.1-1.1
		s-0.1-0.3-0.2-0.4s-0.2-0.1-0.4-0.1c-0.2,0-0.4,0.1-0.6,0.2s-0.4,0.4-0.6,0.8v3.9c0,0.5,0,0.8,0.1,1c0.1,0.2,0.3,0.3,0.6,0.3v0.3
		h-3.7v-0.3c0.3,0,0.5-0.1,0.7-0.3c0.1-0.1,0.1-0.5,0.1-1v-7.4c0-0.6-0.1-0.9-0.2-1s-0.3-0.2-0.6-0.3v-0.3H253.1z"/>
	<path d="M265.1,122.8h-4c0,1,0.3,1.7,0.8,2.3c0.4,0.4,0.8,0.6,1.3,0.6c0.3,0,0.6-0.1,0.9-0.3s0.5-0.5,0.8-0.9l0.3,0.2
		c-0.4,0.8-0.8,1.4-1.3,1.7s-1,0.5-1.7,0.5c-1.1,0-1.9-0.4-2.5-1.2c-0.4-0.7-0.7-1.5-0.7-2.5c0-1.2,0.3-2.2,1-2.9s1.4-1.1,2.3-1.1
		c0.7,0,1.4,0.3,1.9,0.9S265,121.7,265.1,122.8z M263.1,122.3c0-0.8,0-1.4-0.1-1.7s-0.2-0.5-0.4-0.7c-0.1-0.1-0.3-0.1-0.4-0.1
		c-0.3,0-0.5,0.1-0.7,0.4c-0.3,0.5-0.5,1.1-0.5,1.9v0.3H263.1z"/>
	<path d="M275.9,123.7h-3.7l-0.4,1c-0.1,0.3-0.2,0.6-0.2,0.9c0,0.3,0.1,0.5,0.4,0.7c0.1,0.1,0.5,0.1,1,0.2v0.3h-3.5v-0.3
		c0.4-0.1,0.7-0.2,0.9-0.5s0.5-0.8,0.9-1.6l3.8-8.5h0.1l3.8,8.7c0.4,0.8,0.7,1.3,0.9,1.6c0.2,0.2,0.4,0.3,0.8,0.3v0.3h-5.1v-0.3h0.2
		c0.4,0,0.7-0.1,0.9-0.2c0.1-0.1,0.2-0.2,0.2-0.4c0-0.1,0-0.2,0-0.3c0,0-0.1-0.2-0.2-0.6L275.9,123.7z M275.6,123.2l-1.6-3.6
		l-1.6,3.6H275.6z"/>
	<path d="M284.2,119.5v1.7c0.5-0.8,0.9-1.3,1.3-1.5s0.7-0.4,1.1-0.4c0.3,0,0.5,0.1,0.7,0.3s0.3,0.4,0.3,0.8c0,0.3-0.1,0.6-0.3,0.8
		s-0.4,0.3-0.6,0.3c-0.3,0-0.5-0.1-0.7-0.3s-0.3-0.3-0.4-0.3c-0.1,0-0.1,0-0.2,0c-0.2,0-0.3,0.1-0.4,0.2c-0.2,0.2-0.4,0.4-0.5,0.8
		c-0.2,0.5-0.2,1.1-0.2,1.7v1.7l0,0.4c0,0.3,0,0.5,0.1,0.6c0.1,0.1,0.2,0.2,0.3,0.3s0.3,0.1,0.6,0.1v0.3h-3.9v-0.3
		c0.3,0,0.5-0.1,0.6-0.3s0.2-0.5,0.2-1.2v-4c0-0.4,0-0.7-0.1-0.8c-0.1-0.1-0.1-0.3-0.2-0.3s-0.3-0.1-0.5-0.1v-0.3H284.2z"/>
	<path d="M291.1,116.8v2.7h1.7v0.8h-1.7v4.5c0,0.4,0,0.7,0.1,0.8s0.1,0.2,0.2,0.3s0.2,0.1,0.3,0.1c0.3,0,0.7-0.3,1-0.8l0.2,0.2
		c-0.4,1-1.1,1.5-2.1,1.5c-0.5,0-0.9-0.1-1.2-0.4s-0.5-0.5-0.6-0.9c-0.1-0.2-0.1-0.7-0.1-1.4v-3.9h-1V120c0.7-0.5,1.2-1,1.7-1.5
		s0.9-1.1,1.2-1.7H291.1z"/>
	<path d="M298,119.2l0.1,2.5h-0.3c-0.3-0.7-0.6-1.2-1-1.5s-0.7-0.4-1-0.4c-0.2,0-0.4,0.1-0.5,0.2s-0.2,0.3-0.2,0.5
		c0,0.1,0.1,0.3,0.2,0.4c0.2,0.2,0.6,0.6,1.4,1.1s1.3,1,1.5,1.3s0.4,0.8,0.4,1.2c0,0.4-0.1,0.8-0.3,1.2s-0.5,0.7-0.9,0.9
		s-0.8,0.3-1.2,0.3c-0.3,0-0.8-0.1-1.4-0.3c-0.2-0.1-0.3-0.1-0.3-0.1c-0.2,0-0.3,0.1-0.4,0.4h-0.3l-0.1-2.6h0.3
		c0.2,0.7,0.6,1.2,1,1.5s0.8,0.5,1.2,0.5c0.2,0,0.5-0.1,0.6-0.2s0.2-0.3,0.2-0.6c0-0.2-0.1-0.5-0.2-0.6s-0.5-0.5-1-0.8
		c-0.8-0.6-1.3-1-1.5-1.3c-0.3-0.4-0.5-0.9-0.5-1.4c0-0.6,0.2-1.1,0.6-1.5s0.9-0.7,1.7-0.7c0.4,0,0.8,0.1,1.1,0.3
		c0.1,0.1,0.3,0.1,0.3,0.1c0.1,0,0.2,0,0.2-0.1s0.1-0.1,0.3-0.3H298z"/>
</g>
</svg>
