<?xml version="1.0" encoding="utf-8"?>
<!-- Generator: Adobe Illustrator 19.1.0, SVG Export Plug-In . SVG Version: 6.00 Build 0)  -->
<svg version="1.1" id="Layer_1" xmlns="http://www.w3.org/2000/svg" xmlns:xlink="http://www.w3.org/1999/xlink" x="0px" y="0px"
	 viewBox="160 -60 400 200" style="enable-background:new 160 -60 400 200;" xml:space="preserve">
<style type="text/css">
	.st0{fill:none;stroke:#000000;}
	.st1{font-family:'ArialMT';}
	.st2{font-size:12px;}
</style>
<g>
	<line class="st0" x1="553" y1="7.7" x2="553" y2="72.5"/>
	<path d="M187.4,32.1c-2.5,0-4.7-0.9-6.4-2.6c-2.4-2.4-2.3-5.1-2.3-9.7c0-4.7,0-7.4,2.3-9.7c1.7-1.7,3.8-2.6,6.4-2.6
		c4.5,0,7.8,2.6,8.6,7.5h-3.7c-0.6-2.5-2.2-4.2-4.9-4.2c-1.4,0-2.7,0.5-3.6,1.5c-1.2,1.3-1.5,2.7-1.5,7.6s0.3,6.3,1.5,7.6
		c0.9,0.9,2.1,1.5,3.6,1.5c2.7,0,4.4-1.7,4.9-4.2h3.7C195.3,29.5,191.8,32.1,187.4,32.1"/>
	<path d="M237,11h-5.4v7.6h5.4c2.5,0,4.1-1.4,4.1-3.8C241.1,12.4,239.4,11,237,11 M241.2,31.9l-5.1-10.2h-4.6v10.2h-3.7V7.7h9.4
		c4.6,0,7.5,3,7.5,7.1c0,3.5-2.1,5.7-4.8,6.4l5.6,10.7C245.5,31.9,241.2,31.9,241.2,31.9z"/>
	<rect x="283.1" y="7.7" width="3.7" height="24.2"/>
	<polygon points="340.8,31.9 340.8,15.7 335.2,27.5 332.5,27.5 326.8,15.7 326.8,31.9 323.1,31.9 323.1,7.7 326.8,7.7 333.9,22.8 
		340.8,7.7 344.5,7.7 344.5,31.9 	"/>
	<polygon points="383.8,11 383.8,31.9 380.1,31.9 380.1,11 373.4,11 373.4,7.7 390.5,7.7 390.5,11 	"/>
	<path d="M432.4,11H427v7.6h5.4c2.5,0,4.1-1.4,4.1-3.8C436.5,12.4,434.8,11,432.4,11 M436.6,31.9l-5.1-10.2h-4.6v10.2h-3.6V7.7h9.4
		c4.6,0,7.5,3,7.5,7.1c0,3.5-2.1,5.7-4.8,6.4l5.6,10.7C441,31.9,436.6,31.9,436.6,31.9z"/>
	<path d="M479.4,13.2L475.6,24h7.5L479.4,13.2z M485.8,31.9l-1.7-4.9h-9.6l-1.7,4.9h-3.9l8.9-24.2h3l8.9,24.2
		C489.7,31.9,485.8,31.9,485.8,31.9z"/>
	<path d="M529.4,32.1c-2.5,0-4.7-0.9-6.4-2.6c-2.4-2.4-2.3-5.1-2.3-9.7c0-4.7,0-7.4,2.3-9.7c1.7-1.7,3.8-2.6,6.4-2.6
		c4.5,0,7.8,2.6,8.6,7.5h-3.7c-0.6-2.5-2.2-4.2-4.9-4.2c-1.4,0-2.7,0.5-3.6,1.5c-1.2,1.3-1.5,2.7-1.5,7.6s0.3,6.3,1.5,7.6
		c0.8,0.9,2.1,1.5,3.6,1.5c2.7,0,4.4-1.7,4.9-4.2h3.7C537.3,29.5,533.8,32.1,529.4,32.1"/>
	<text transform="matrix(1 0 0 1 553.0328 29.4688)" class="st1 st2"> </text>
	<line class="st0" x1="504.4" y1="7.7" x2="504.4" y2="72.5"/>
	<line class="st0" x1="455.7" y1="7.7" x2="455.7" y2="72.5"/>
	<line class="st0" x1="407" y1="7.7" x2="407" y2="72.5"/>
	<line class="st0" x1="358.3" y1="7.7" x2="358.3" y2="72.5"/>
	<line class="st0" x1="309.7" y1="7.7" x2="309.7" y2="72.5"/>
	<line class="st0" x1="261" y1="7.7" x2="261" y2="72.5"/>
	<line class="st0" x1="212.2" y1="7.7" x2="212.2" y2="72.5"/>
	<line class="st0" x1="163.6" y1="7.7" x2="163.6" y2="72.5"/>
</g>
</svg>
