<?xml version="1.0" encoding="utf-8"?>
<!-- Generator: Adobe Illustrator 19.1.0, SVG Export Plug-In . SVG Version: 6.00 Build 0)  -->
<svg version="1.1" id="Layer_1" xmlns="http://www.w3.org/2000/svg" xmlns:xlink="http://www.w3.org/1999/xlink" x="0px" y="0px"
	 viewBox="-99 0 400 200" style="enable-background:new -99 0 400 200;" xml:space="preserve">
<style type="text/css">
	.st0{fill:none;stroke:#000000;stroke-width:0.5;stroke-miterlimit:10;}
	.st1{enable-background:new    ;}
</style>
<g>
	<line class="st0" x1="38.9" y1="108.4" x2="253.8" y2="108.4"/>
	<g>
		<path d="M-24.1,118c-0.1,0.1-0.1,0.2-0.2,0.2"/>
		<path d="M-22.1,103c0.2,0,0.4-0.2,0.4-0.4c0-0.2-0.2-0.4-0.4-0.4c-0.2,0-0.4,0.2-0.4,0.4C-22.5,102.8-22.4,103-22.1,103L-22.1,103
			z"/>
		<path d="M-3.5,86L-3.5,86H-18l0,0l0,0v11.7c0,1.1,0.5,2.1,1.1,2.4l5.6,3.3c0.1,0.1,0.3,0.2,0.5,0.2s0.3-0.1,0.5-0.2l5.7-3.4
			c0.7-0.3,1.1-1.3,1.1-2.4L-3.5,86L-3.5,86L-3.5,86z M-13.2,89.4h-1.3v-3h1.3V89.4L-13.2,89.4z M-14.1,90.4l0.2-0.2L-14,90h0.2
			l0.1-0.2l0.1,0.2h0.2l-0.1,0.2l0.2,0.2h-0.2v0.2l-0.2-0.2l-0.2,0.2v-0.2H-14.1L-14.1,90.4z M-17.6,94.2v-2.8h1.5v2.8H-17.6
			L-17.6,94.2z M-17.3,90h0.2l0.1-0.2l0.1,0.2h0.2l-0.1,0.2l0.2,0.2h-0.2v0.2l-0.2-0.2l-0.2,0.2v-0.2h-0.2l0.2-0.2L-17.3,90
			L-17.3,90z M-15.6,92.9h0.2l0.1-0.2l0.1,0.2h0.2l-0.1,0.2l0.2,0.2h-0.2v0.2l-0.2-0.2l-0.2,0.2v-0.2h-0.2l0.2-0.2L-15.6,92.9
			L-15.6,92.9z M-14.6,90.6c0-0.1-0.1-0.1-0.2-0.1c-0.1,0-0.2,0.2-0.3,0.2s-0.1,0-0.1-0.1c0-0.1,0.2-0.1,0.2-0.2
			c-0.9,0-1,0.4-1.1,0.4c-0.2,0,0.2-0.5,0.3-0.6c-0.2,0-0.3-0.3-0.5-0.4c0.1-0.1,0.2-0.1,0.3,0c0-0.1,0.1-0.2,0.3-0.2
			c0.4,0,0.3,0.4,0.4,0.4c0.1,0,0-0.4,0.3-0.4c0.4,0,0.9,1.1,0.5,1.1C-14.8,90.8-14.6,90.7-14.6,90.6L-14.6,90.6z M-15.7,87.5
			l0.2-0.2l-0.1-0.2h0.2l0.1-0.2l0.1,0.2h0.2l-0.1,0.2l0.2,0.2h-0.2v0.2l-0.2-0.2l-0.2,0.2v-0.2H-15.7L-15.7,87.5z M-16.1,86.4v3
			h-1.5v-3H-16.1L-16.1,86.4z M-13.2,101.9l-3.5-2.1c-0.6-0.4-0.9-1.1-0.9-1.9v-3.3h4.4V101.9L-13.2,101.9z M-14.4,94.2v-2.8h1.3
			v2.8H-14.4L-14.4,94.2z M-8.7,102.1l-1.6,1l0,0c-0.1,0.1-0.3,0.1-0.4,0.1s-0.3-0.1-0.4-0.2l-1.6-1v-7.5h4.1L-8.7,102.1L-8.7,102.1
			z M-8.7,94.2h-4.1v-7.8h4.1V94.2L-8.7,94.2z M-3.9,97.8c-0.1,0.8-0.4,1.5-0.9,1.9l-3.5,2.1v-7.3h4.4V97.8L-3.9,97.8z M-3.9,94.2
			h-4.4v-7.8h4.4V94.2L-3.9,94.2z"/>
		<path d="M-13.4,97.2c0-0.1-0.5,0.2-0.4,0.2c0-0.2,0.3-0.5,0.4-0.6c0-0.2-0.3,0-0.5,0.1c0.8-1.2,0.3-0.7-0.2-0.6
			c0.7-0.8,0.5-0.8,0-0.5c0.4-0.3,0.5-0.7,0.5-0.9c-0.4,0.5-0.8,0.4-0.8,0.9c0,0.3-0.1,0.9-0.3,1c-0.2,0.2-0.1-0.9-0.6-0.9
			c-0.2,0-0.6,0-0.7,0.2c0.1,0,0.3,0.3,0.3,0.4c0,0.1,0.1,0.4-0.1,0.4c-0.2,0-0.4-0.4-0.4-0.6s0-0.1,0-0.4c0-0.5-0.8-1.1-1.1-1.1
			c0,0.3,0.4,0.4,0.4,0.8c-0.2,0-0.4-0.3-0.4-0.1s0.3,0.2,0.3,0.4c0,0.2-0.3-0.1-0.3,0.1s0.2,0.1,0.2,0.3c-0.1,0-0.2,0-0.3,0
			c0,0.1,0,0.1,0.1,0.2c0,0-0.1,0.1-0.1,0.4c0,0.9,0.6,1.4,1,1.4c0.3,0,0.3-0.2,0.3-0.3c0,0.2,0.2-0.1,0.2,0.2
			c0,0.3-0.3,0.2-0.3,0.4c0,0.3,0.5,0,0.5,0.4c0,0.4-0.1,0.4-0.1,0.6c0,0.1,0.5-0.2,0.5-0.2c0.1,0,0.1,0.4,0.3,0.4
			c0.1,0,0.2-0.4,0.3-0.4c-0.1,0,0.4,0.3,0.4,0.2c0-0.4-0.2-0.2-0.2-0.5s0.6-0.2,0.5-0.4c-0.1-0.1-0.1,0-0.2-0.2
			c0,0-0.5-0.7,0.1-0.3C-13.5,98.6-13.4,97.3-13.4,97.2L-13.4,97.2z"/>
		<path d="M2,100.3c0.3,0,0.5-0.2,0.5-0.4c0-0.2-0.2-0.4-0.5-0.4s-0.5,0.2-0.5,0.4C1.6,100.1,1.8,100.3,2,100.3L2,100.3z"/>
		<path d="M0.1,101.4c0.3,0,0.5-0.2,0.5-0.4c0-0.2-0.2-0.4-0.5-0.4s-0.5,0.2-0.5,0.4S-0.1,101.4,0.1,101.4L0.1,101.4z"/>
		<path d="M-22.8,104.1c0.3,0,0.5-0.2,0.5-0.4c0-0.2-0.2-0.4-0.5-0.4s-0.5,0.2-0.5,0.4C-23.3,103.9-23.1,104.1-22.8,104.1
			L-22.8,104.1z"/>
		<path d="M-21.3,104.2c0.3,0,0.5-0.2,0.5-0.4s-0.2-0.4-0.5-0.4s-0.5,0.2-0.5,0.4C-21.8,104-21.6,104.2-21.3,104.2L-21.3,104.2z"/>
		<path d="M19.9,84.2c0.7,0.8,0.9,2.2,0.4,3.2c-0.3,0-0.2-0.4-0.3-0.6c-0.5-0.9-0.9-2.1-0.5-3.2C19.9,83.6,19.7,84.1,19.9,84.2
			L19.9,84.2z"/>
		<path d="M-40.6,85.4c-0.2,0.6-0.2,1.5,0,2c-0.1,0.1-0.1-0.1-0.2-0.1c-1-0.7-0.5-2.1-0.8-3.1c0.1-0.1,0.2-0.1,0.2-0.1
			C-40.9,84.4-40.7,84.9-40.6,85.4L-40.6,85.4z"/>
		<path d="M22.1,85.5c0.1,0.3-0.1,0.6-0.3,0.7c-0.2,0.1-0.5-0.1-0.6-0.3c-0.1-0.3,0.1-0.5,0.3-0.7C21.7,85.2,21.9,85.2,22.1,85.5
			L22.1,85.5z"/>
		<path d="M-42.1,86.6c-0.1,0.2-0.1,0.5-0.3,0.6c-0.2,0-0.4,0-0.5-0.1c-0.2-0.1-0.2-0.4-0.1-0.5c0.1-0.2,0.3-0.2,0.5-0.2
			C-42.4,86.3-42.2,86.4-42.1,86.6L-42.1,86.6z"/>
		<path d="M23.1,87c0.1,0.2,0.1,0.3,0,0.4c-0.2,0.2-0.4,0.3-0.7,0.2c-0.2-0.1-0.2-0.3-0.3-0.4c0.1-0.2,0.2-0.4,0.4-0.5
			C22.8,86.7,22.9,86.9,23.1,87L23.1,87z"/>
		<path d="M21.6,87c0.2,0.1,0.1,0.4,0,0.5c-0.1,0.1-0.3,0.3-0.5,0.3c-0.1-0.1-0.3-0.1-0.3-0.3c0-0.3,0.1-0.5,0.4-0.6
			C21.4,86.9,21.5,86.9,21.6,87L21.6,87z"/>
		<path d="M19.8,87.4c0,0.3,0,0.6-0.3,0.7c-0.3,0.1-0.5-0.2-0.6-0.4c0-0.3,0.1-0.5,0.4-0.6C19.5,87.1,19.7,87.3,19.8,87.4L19.8,87.4
			z"/>
		<path d="M-39.4,87.5c0.1,0.3-0.2,0.4-0.3,0.5c-0.2,0.1-0.4-0.1-0.5-0.3c-0.2-0.2,0.1-0.3,0.1-0.5C-39.8,87.1-39.5,87.3-39.4,87.5
			L-39.4,87.5z"/>
		<path d="M-40.9,87.6c0,0.2-0.1,0.4-0.3,0.5c-0.2,0.1-0.4-0.1-0.5-0.2c-0.1-0.2,0-0.5,0.2-0.6C-41.2,87.2-41,87.4-40.9,87.6
			L-40.9,87.6z"/>
		<path d="M13.7,87.7c0.2,0.5,0.5,1.2,0.5,1.8c-0.1,0.5,0.1,1.1-0.3,1.5c-0.4-0.1-0.4-0.6-0.6-0.8c-0.5-0.9-0.1-1.9,0.1-2.8
			C13.6,87.3,13.6,87.6,13.7,87.7L13.7,87.7z"/>
		<path d="M-42.1,88c0.1,0.3-0.1,0.5-0.3,0.6c-0.3,0.1-0.5-0.2-0.6-0.4c0-0.2,0.1-0.5,0.3-0.6C-42.4,87.7-42.2,87.8-42.1,88
			L-42.1,88z"/>
		<path d="M17.7,88.8c0.3,0.7,0.4,1.6,0.1,2.4l-0.2,0.1c-0.4-0.7-0.9-1.3-1-2.1c0-0.5,0.1-1,0.3-1.5c0.2-0.1,0.3,0,0.4,0.2
			C17.3,88.3,17.4,88.6,17.7,88.8L17.7,88.8z"/>
		<path d="M20.9,88.3c0,0.3-0.1,0.5-0.4,0.6c-0.2,0.1-0.5,0-0.6-0.3s0.1-0.5,0.3-0.6C20.5,87.8,20.7,88.1,20.9,88.3L20.9,88.3z"/>
		<path d="M-40.8,89.1c0,0.2-0.2,0.4-0.4,0.5c-0.2,0.2-0.4-0.1-0.5-0.2c-0.1-0.2-0.1-0.4,0-0.6s0.2-0.2,0.4-0.2
			C-41.1,88.7-40.9,88.8-40.8,89.1L-40.8,89.1z"/>
		<path d="M-39.7,89c0.1,0.2-0.2,0.4-0.3,0.5c-0.3,0.1-0.5-0.1-0.6-0.3c-0.1-0.3,0.1-0.4,0.3-0.6C-40,88.5-39.9,88.7-39.7,89
			L-39.7,89z"/>
		<path d="M21.6,88.9c0,0.3-0.5,0.7-0.6,1c-0.3,0.7-0.9,1.2-1.6,1.4c-0.1,0.1-0.4,0.3-0.6,0.3c-0.1-0.5,0.4-1,0.7-1.4
			C20.1,89.5,20.8,89.1,21.6,88.9L21.6,88.9z"/>
		<path d="M-41.3,90c0.4,0.4,0.6,0.8,1,1.2c0,0.1-0.1,0.3-0.2,0.3c-1.2-0.1-2.1-1.3-2.7-2.2c0.1-0.3,0.4-0.1,0.6-0.1
			C-42.2,89.4-41.7,89.5-41.3,90L-41.3,90z"/>
		<path d="M21.9,90.3c-0.1,1.1-0.6,2.2-1.6,2.7c-0.3,0.1-0.6,0.4-0.9,0.2c0.5-1.1,1.3-2,2.2-3h0.3V90.3z"/>
		<path d="M17.1,91c0.1,0.4-0.1,0.6-0.4,0.7c-0.3,0-0.5-0.2-0.6-0.4c0-0.2,0.1-0.5,0.4-0.6c0.1-0.1,0.2-0.1,0.3-0.1
			C16.9,90.8,16.9,90.9,17.1,91L17.1,91z"/>
		<path d="M-42.7,91.3c0.5,0.3,0.9,0.8,1.4,1.2c-0.3,0.2-0.7,0-1.1,0c-0.9-0.3-1.4-1-2.3-1.3c0-0.3,0.4-0.2,0.5-0.3
			C-43.7,90.9-43.3,91.1-42.7,91.3L-42.7,91.3z"/>
		<path d="M-15.7,83.7c-1.4-0.6-2.4,0.9-3.8,0.7c-0.2,0.1-0.1,0.3-0.2,0.4c-0.1,0.1-0.2,0-0.3,0c-0.1-0.6-0.3-1.2-0.4-1.8
			c-0.1-0.2-0.1-0.6-0.2-0.9c-0.8-2.2,2-0.5,2.5-1.8c0.5-1.1-0.9-1.2-1.4-2V78c-0.4-0.4-0.8-0.5-1.1-1.1c0.2-0.6,0.2-1.3,0.1-2
			c0-0.2-0.1-0.4-0.4-0.3c-0.5,0.7-0.8,1.2-1.3,1.8c-0.5-0.4-0.9-0.8-1.5-1.1c-0.4-0.1-0.7-0.4-1.2-0.3c-0.1,0.2,0,0.3,0.1,0.4
			c0,1,0.5,1.8,1.2,2.5l0.1,0.4c-0.5,1-0.3,2.2-0.5,3.4c-1.1,2.9-3,5.7-5.5,7.7c-1.4,1.6-3.2,3.2-3.4,5.4c-0.1,0.4,0.1,0.8-0.2,1
			c-0.8-0.3-1.7-0.7-2.4-1.2c-1.2-0.8-2.8-0.7-3.6-2.2c-0.3-0.6,0.1-1.2,0.4-1.6c0.9-0.8,0.7-2.3,0.3-3.3c-0.1,0-0.1,0.1-0.2,0.1
			c-0.1,1.5-1.3,2.5-0.8,4.2c0.1,0.5,0.4,0.8,0.5,1.2c-0.2-0.1-0.4-0.1-0.6-0.1c-0.6-0.1-1.1-0.3-1.7-0.2c-1.2,0.5-2.8-0.1-3.7,0.9
			c-0.2,0-0.4,0.1-0.3,0.3c0.6,0,1.1,0.2,1.6,0.1c0.9,0.2,1.5-0.6,2.1-0.9h0.2c0.2-0.3,0.7-0.1,1-0.2c1.6,0.2,2.8,0.9,4.1,1.7v0.1
			c-0.5,0.2-1.1,0.4-1.6,0.7c-0.6,0.4-1.2,1-1.4,1.7c-0.4,0.6,0.1,1.2,0.4,1.7c0,0.3,0.1,0.6,0.3,0.7c0.8-0.9,0.1-1.9,0.2-2.9
			c0.2-0.8,0.9-1.1,1.6-1.3c1.4-0.6,2.5,0.6,3.6,1.2c0,1.2,0.1,2.3-0.1,3.4c-0.4,0.1-0.8,0.2-1.2,0.2c-2,0.2-3.6,1.2-5.4,1.9
			c-0.8,0.3-1.8,0.3-2.6,0.6c0.6,0.2,1.3-0.1,1.9-0.1c2.5-0.4,4.4-2.3,7-1.9l0.1,0.1c-0.3,0.6-0.7,1.2-1.2,1.7
			c-0.1-0.3-0.1-0.5-0.4-0.7c-0.2-0.1-0.4,0-0.6,0.2c-0.1,0.1-0.1,0.3,0,0.4c0.1,0.2,0.3,0.3,0.5,0.4c-0.1,0.2-0.3,0.3-0.5,0.5
			c-0.7,1.2-2.2,0.7-3,1.6c-0.1,0.2-0.6,0.3-0.4,0.6c1,0.1,1.9-0.2,2.6-0.7c0.9-1,1.9-2,2.9-3c0.2,0.8-0.1,1.7-0.6,2.3
			c-0.2-0.1-0.4-0.3-0.7-0.4c-0.3,0.1-0.4,0.3-0.5,0.5c0.1,0.2,0.2,0.4,0.4,0.5c-0.9,0.6-1.9,0.7-2.9,0.9c-1.8,0.2-3.6,0.4-5.5,0.4
			c-0.9-0.1-1.9,0.3-2.7,0c-1,0.2-2-0.1-2.8,0.4c-0.1,0.1,0,0.3,0,0.4c1.2,0.8,2.8,0.2,4.1,0.4h10c0.7,0,1.5-0.1,2.1-0.4
			c1.3-0.7,2-2.1,2.7-3.4c0.2-0.5,0.4-1,0.5-1.5c0.2-0.9,1-1.5,1.9-1.6c0.1,1.3-0.1,2.6-0.4,3.9c-0.2,0.8-0.7,1.6-0.4,2.5
			c0.1,0.4,0.5,0.4,0.8,0.5c3.1-0.1,6.1-0.2,9.3,0.1c0.6,0.1,1.1,0.3,1.7,0.3c0.1-0.1,0.2-0.1,0.2-0.3c-0.1-0.3-0.3-0.6-0.6-0.7
			c-0.1-0.2-0.3-0.1-0.4-0.2c-1.6-0.9-3.6-0.4-5.5-0.4c-1,0.1-2,0.3-2.8-0.3c-0.4-0.5-0.1-1.9-0.1-1.9c0-0.6,1.4-4.6,1.6-4.9
			c0.1-0.4,0.2-0.7,0.2-1.2c0.7-0.5,0.7-1.1,0.7-1.7c0.1-0.8,0.5-1.6,0.8-2.4c0.1-0.4,0.3-0.8,0.4-1.2c0.2-0.5,0.2-0.9,0.5-1.3
			c0.8,0.5,1.6,0.5,2,1.4l0.4,2.1c0,0.1,0.1,0.4,0.3,0.2c0.7-0.4,0.5-1.4,0.5-2.1c0.1-0.8-0.4-1.2-0.6-1.9c-0.2-0.1-0.5-0.7-0.5-0.7
			c-0.1-0.6-1.3-0.9-1-1.6c0.2-0.6,0.3-1.1,0.9-1.5c0.1,0.1,0.1,0.1,0.1,0.2h0.2V85c0.8,0,2,0.1,2.9,0.1c0.2,0.1,0.4,0.3,0.7,0.3
			l0.2-0.3l2-0.4C-14.3,84.7-14.9,83.7-15.7,83.7L-15.7,83.7z"/>
		<path d="M-13.5,84.6c0.1,0,0.1,0,0.2,0H-13.5L-13.5,84.6z"/>
		<path d="M-35.5,91.7c0,0.3-0.2,0.5-0.4,0.6c-0.2-0.1-0.4-0.1-0.5-0.3c-0.1-0.3,0.2-0.5,0.4-0.6C-35.8,91.5-35.5,91.5-35.5,91.7
			L-35.5,91.7z"/>
		<path d="M-37.1,91.7c0.2,0.2,0.2,0.4,0.1,0.6c-0.2,0.2-0.5,0.3-0.6,0.1c-0.2-0.2-0.3-0.3-0.2-0.5C-37.6,91.7-37.3,91.5-37.1,91.7
			L-37.1,91.7z"/>
		<path d="M-1.9,92L-1.9,92"/>
		<path d="M17.3,92.4c0.1,0.3-0.1,0.5-0.3,0.6c-0.3-0.1-0.6-0.1-0.6-0.5c0-0.2,0.2-0.3,0.4-0.4C17,92.1,17.2,92.3,17.3,92.4
			L17.3,92.4z"/>
		<path d="M18.7,92.4c0.1,0.1,0.2,0.3,0.1,0.5c-0.1,0.1-0.2,0.1-0.2,0.2c-0.3,0.1-0.5-0.1-0.6-0.3c-0.1-0.3,0.2-0.4,0.4-0.5
			C18.4,92.2,18.5,92.3,18.7,92.4L18.7,92.4z"/>
		<path d="M-43.5,92.7c-0.1,0.3-0.4,0.4-0.7,0.3c-0.1-0.1-0.2-0.2-0.2-0.3c0-0.2,0.1-0.4,0.3-0.4C-43.8,92.3-43.5,92.4-43.5,92.7
			L-43.5,92.7z"/>
		<path d="M-34.9,93.1c0,0.2-0.3,0.4-0.4,0.5c-0.3,0-0.4-0.2-0.6-0.4c0-0.2,0.1-0.5,0.3-0.5C-35.3,92.6-35,92.9-34.9,93.1
			L-34.9,93.1z"/>
		<path d="M-36.4,93c0.1,0.1,0.2,0.3,0.1,0.4c-0.2,0.1-0.4,0.4-0.6,0.2c-0.2-0.1-0.3-0.2-0.3-0.5c0.1-0.1,0.2-0.3,0.4-0.3
			C-36.7,92.7-36.6,92.9-36.4,93L-36.4,93z"/>
		<path d="M22.5,93.3c0,0.2-0.2,0.4-0.3,0.5c-0.2,0.1-0.4,0-0.6-0.1c-0.1-0.1-0.1-0.3-0.1-0.4c0.1-0.2,0.3-0.3,0.5-0.3
			C22.3,93,22.4,93.1,22.5,93.3L22.5,93.3z"/>
		<path d="M24.2,93.5c-0.1,0.2-0.2,0.4-0.5,0.5c-0.2,0-0.4-0.1-0.4-0.3c0-0.2,0.1-0.4,0.2-0.4C23.8,93.1,24.1,93.2,24.2,93.5
			L24.2,93.5z"/>
		<path d="M-40.6,93.8c0.1,0.3-0.1,0.5-0.3,0.6c-0.2,0.1-0.4,0-0.5-0.1c-0.1-0.1-0.2-0.3-0.1-0.5s0.3-0.2,0.4-0.3
			C-40.8,93.6-40.7,93.7-40.6,93.8L-40.6,93.8z"/>
		<path d="M-39.3,94.1c0.1,0.2-0.2,0.3-0.2,0.4c-0.1,0.1-0.3,0.2-0.5,0.1c-0.2-0.2-0.4-0.4-0.2-0.6C-40,93.6-39.5,93.8-39.3,94.1
			L-39.3,94.1z"/>
		<path d="M21,94c0,0.2-0.2,0.4-0.4,0.6c-0.2,0.1-0.5-0.1-0.5-0.3s0.1-0.4,0.3-0.5C20.7,93.7,20.9,93.7,21,94L21,94z"/>
		<path d="M23.1,94.4c-0.1,0.2,0,0.5-0.3,0.6c-0.2,0.1-0.5,0-0.6-0.1c-0.1-0.1-0.2-0.4-0.1-0.5c0.1-0.2,0.4-0.4,0.6-0.3
			C22.9,94.1,23,94.3,23.1,94.4L23.1,94.4z"/>
		<path d="M-41.5,94.9c0.1,0.2-0.1,0.3-0.2,0.4c-0.2,0.1-0.4,0-0.5-0.1c-0.2-0.1-0.1-0.4-0.1-0.5C-42.1,94.3-41.6,94.6-41.5,94.9
			L-41.5,94.9z"/>
		<path d="M21.5,95.4c0.1,0,0.1,0.2,0,0.2c-0.6,0.3-1.5,0.4-2-0.1c-0.3-0.3-0.7-0.4-1-0.6c0.1-0.3,0.6-0.3,0.9-0.4
			C20.1,94.7,20.7,95.4,21.5,95.4L21.5,95.4z"/>
		<path d="M-40.3,95.1c0.1,0.2-0.1,0.3-0.2,0.4c-0.1,0.2-0.3,0.1-0.4,0.1c-0.2-0.2-0.3-0.4-0.2-0.6C-40.8,94.7-40.5,94.9-40.3,95.1
			L-40.3,95.1z"/>
		<path d="M-38.1,95.3c0.1,0.2-0.1,0.4-0.2,0.6c-0.2,0.1-0.3-0.1-0.5-0.1c-0.1-0.2-0.4-0.4-0.1-0.6C-38.7,94.8-38.3,95-38.1,95.3
			L-38.1,95.3z"/>
		<path d="M-8.9,96.4C-9,96.9-9.8,96.3-9.7,97c0.1,0.5,0.2,1.1,0.5,1.4c0.2,0.3,0.1,0.9,0.1,1.3c-0.2,0.4-0.6,0.6-1,0.8
			c-0.7-0.1-1.8,0.4-2.1-0.5c-0.1-0.4-0.4-0.8-0.4-1.2c0.1-0.1,0.2-0.1,0.2-0.1c0-0.2-0.2-0.3-0.2-0.4c0.8-0.1-0.3-0.9,0.4-0.9
			c0.6,0.6,1.5,0.4,2,1.1c0.1,0.1,0.2,0.2,0.4,0.3c-0.1-0.6-0.4-1.2-0.5-1.9c-0.1-0.3,0.1-0.7,0.3-0.8C-9.5,95.6-9.1,96.1-8.9,96.4
			L-8.9,96.4z"/>
		<path d="M-35.9,96.2c0.1,0.3-0.1,0.4-0.3,0.5c-0.2,0.1-0.4-0.2-0.5-0.3c-0.1-0.3,0.1-0.4,0.3-0.5C-36.2,96-36,96-35.9,96.2
			L-35.9,96.2z"/>
		<path d="M-20.3,96.5c0.3,1,0.2,2-0.3,2.9c0,0.2,0.1,0.5-0.2,0.5c-0.7-0.9-0.2-2.3,0.1-3.3C-20.7,96.3-20.3,96.2-20.3,96.5
			L-20.3,96.5z"/>
		<path d="M1.4,96.9c0.4,0.7,0.4,1.7,0.1,2.4l-0.2,0.2c-0.3-0.6-0.5-1.2-0.6-1.8C0.8,97.2,1,96.8,1,96.4C1.3,96.3,1.3,96.8,1.4,96.9
			L1.4,96.9z"/>
		<path d="M-33.9,97.2c-0.2,0.3-0.6,0.4-0.9,0.6c-0.6,0.5-1.5,0.6-2.2,0.4c0.7-0.9,1.7-1.5,2.9-1.2C-34.1,97.2-33.9,97.1-33.9,97.2
			L-33.9,97.2z"/>
		<path d="M-44.3,98.1c0.9,0.7,1.2,1.6,1.7,2.5c0.1,0.1,0.3,0.1,0.2,0.3c-0.2,0.2-0.4-0.2-0.7-0.1c-1-0.4-1.6-1.5-1.5-2.6
			C-44.5,98.1-44.4,98.1-44.3,98.1L-44.3,98.1z"/>
		<path d="M0.4,98.9c0,0.3,0,0.5-0.2,0.6c-0.3,0.1-0.5-0.1-0.6-0.3c-0.1-0.2,0.1-0.3,0.1-0.4C-0.1,98.6,0.2,98.7,0.4,98.9L0.4,98.9z
			"/>
		<path d="M11,100.3c0-0.5,0.1-0.9,0.2-1.4c0.1-0.2,0.1-0.3,0.1-0.5c0.6-0.8,1.8-0.6,2.8-0.5c0.4,0.2,0.9,0.2,1.3,0.3
			c0.2-0.1,0.4-0.2,0.6-0.1c0.8-0.4,0.3-1.4,0.3-2.1L16,95.2c-0.1-0.2-0.2-0.3-0.2-0.5c-0.1-0.2-0.2-0.5-0.4-0.7
			c-0.4-1.1-1.3-1.8-2-2.6c-1.3-1.7-3.3-2.6-5.3-3.3s-4,0.2-5.8,0.8c-0.5-0.2-0.8-0.6-1-1.1c-0.1-1,0.1-1.9,0.5-2.7
			c0.1-0.6,0.5-1.1,0.7-1.7C3,82,3.4,80.6,3.5,79c0.1-0.9-0.7-1.6-1.4-2c-0.5-0.1-1-0.1-1.4,0.3c-0.3,0.7-1,1.2-1.6,1.5
			C-1,79.2-0.4,79-0.2,79.1C0.4,79.2,1,79,1.4,79.4c0.1,1-0.5,1.9-1.1,2.6c-0.9,1.3-1.8,2.6-2.3,4l-0.1-0.1l0.1,6.2
			c0.8,1.3,1.8,2.9,3.3,3.4c0.8,0.7,1.8,1.5,2.9,0.9c0.6-0.2,0.6,0.6,0.9,1c0.3,0.9-0.4,1.6-0.4,2.5L4,101.3
			c-0.8,1.5-1.4,3.1-2.6,4.3c-0.4,0-0.6,0.4-1,0.4c-0.2,0.3-0.6,0.1-0.9,0.2c-0.8,0.3-1.9,0.1-2.4,0.9c0.1,0.1,0.1,0.1,0.2,0.1
			c1.5,0,3.3,0.1,4.9,0.1c0.2-0.1,0.4-0.3,0.4-0.5c-0.2-0.4,0.1-0.8,0.3-1.1c0.1-0.6,0.5-1,0.7-1.6c0.5-1,1.1-2.1,1.7-3.1l0.8-1.3
			c0.2-0.4,0.5-1,0.8-1.4c0.2-0.2,0.3-0.4,0.5-0.7c0-0.3-0.1-0.4-0.2-0.5c0.2-0.2,0.5-0.1,0.7-0.2c0.6,0.4,1.3,1,1.4,1.7l0.2,0.7
			l0.1,0.3l-0.1,0.8l0.1,0.8c0.1,1.2-0.1,2.5-0.2,3.7c-0.4,1.5-2.1,1.3-3.3,1.7c-0.3,0.2-0.9,0.1-0.9,0.6c1.5,0.3,3.2,0.1,4.7,0.1
			c0.2-0.1,0.3-0.3,0.4-0.6c0.1-0.3,0.4-0.6,0.3-1c-0.3-0.4,0-0.9-0.1-1.4c0.1-0.1,0.1-0.3,0-0.5c0.2-0.7,0.2-1.6,0.3-2.3L11,100.3
			L11,100.3z"/>
		<path d="M23.5,99.3c-0.8,1.1-1.7,2.4-3.1,2.9c-0.1,0-0.2,0.1-0.2-0.1c0.9-0.9,1.3-2.3,2.7-2.7C23,99.3,23.3,99.2,23.5,99.3
			L23.5,99.3z"/>
		<path d="M-45.5,100.5c-0.1,0.1,0,0.3-0.2,0.4c-0.2,0.1-0.4,0-0.5-0.2c-0.1-0.3,0.1-0.5,0.3-0.6C-45.8,100.2-45.6,100.3-45.5,100.5
			L-45.5,100.5z"/>
		<path d="M-38.2,100.9c0.1,0.2-0.2,0.2-0.3,0.3c-1.1,0.4-2.1,0-2.9-0.7c0-0.1,0-0.2,0.1-0.2C-40.3,100.5-39.1,100.3-38.2,100.9
			L-38.2,100.9z"/>
		<path d="M-44.1,100.6c0.1,0.1,0.1,0.3,0.1,0.4c-0.2,0.2-0.4,0.3-0.6,0.2c-0.2-0.1-0.2-0.2-0.3-0.3c0-0.3,0.2-0.4,0.4-0.5
			C-44.4,100.4-44.3,100.4-44.1,100.6L-44.1,100.6z"/>
		<path d="M-20.5,100.7c0.1,0.2-0.2,0.4-0.3,0.5c-0.2,0.1-0.4-0.1-0.5-0.2c-0.1-0.2,0-0.4,0.2-0.5
			C-20.9,100.4-20.5,100.5-20.5,100.7L-20.5,100.7z"/>
		<path d="M24.4,100.8c0.1,0.2-0.1,0.4-0.3,0.5c-0.2,0.1-0.3,0-0.5-0.1c0-0.1-0.2-0.2-0.1-0.4s0.3-0.3,0.6-0.3
			C24.2,100.6,24.3,100.7,24.4,100.8L24.4,100.8z"/>
		<path d="M26.1,100.7c0.2,0.2,0,0.4-0.1,0.6s-0.3,0.2-0.5,0.2c-0.2-0.2-0.4-0.2-0.4-0.5c0-0.2,0.2-0.4,0.4-0.4
			C25.8,100.4,25.9,100.7,26.1,100.7L26.1,100.7z"/>
		<path d="M-46.6,101.4c0,0.2-0.1,0.3-0.2,0.4c-0.1,0.1-0.2,0.2-0.4,0.1c-0.2-0.1-0.3-0.2-0.4-0.4c0.1-0.2,0.2-0.4,0.5-0.5
			C-46.9,101.1-46.7,101.2-46.6,101.4L-46.6,101.4z"/>
		<path d="M6.6,101.4c0.1,0.1,0,0.2,0,0.3c-0.2,0.2-0.4,0.4-0.6,0.2c-0.2-0.2-0.3-0.3-0.2-0.5C6,101.2,6.4,101.1,6.6,101.4
			L6.6,101.4z"/>
		<path d="M-42.5,101.8c-0.1,0.2-0.1,0.4-0.4,0.4s-0.3-0.2-0.4-0.3c0-0.2,0-0.5,0.2-0.6C-42.8,101.2-42.5,101.5-42.5,101.8
			L-42.5,101.8z"/>
		<path d="M-44.9,101.9c0.1,0.3-0.1,0.4-0.2,0.6c-0.3,0.1-0.6-0.1-0.7-0.4c0-0.2,0.2-0.5,0.5-0.6C-45.2,101.5-45.1,101.7-44.9,101.9
			L-44.9,101.9z"/>
		<path d="M8.3,101.8c0.1,0.2,0,0.5-0.3,0.6c-0.3,0.1-0.6-0.2-0.7-0.4c0.1-0.2,0.2-0.5,0.5-0.5C8,101.5,8.2,101.6,8.3,101.8
			L8.3,101.8z"/>
		<path d="M-43.8,101.9c0.1,0.2-0.1,0.3-0.1,0.4c-0.1,0-0.2,0.2-0.4,0.1c-0.1-0.1-0.3-0.2-0.3-0.4c0-0.3,0.2-0.4,0.3-0.5
			C-44,101.5-43.8,101.7-43.8,101.9L-43.8,101.9z"/>
		<path d="M23,102.1c-0.1,0.2-0.2,0.3-0.4,0.4c-0.2,0.1-0.3-0.1-0.5-0.2c-0.1-0.1-0.1-0.3,0-0.5C22.3,101.4,23,101.6,23,102.1
			L23,102.1z"/>
		<path d="M24.9,102.2c-0.1,0.3-0.4,0.4-0.6,0.4c-0.2-0.1-0.5-0.3-0.3-0.6c0.1-0.1,0.1-0.2,0.3-0.2C24.6,101.7,24.9,102,24.9,102.2
			L24.9,102.2z"/>
		<path d="M13,102.4c0.1,0.3-0.2,0.4-0.4,0.6c-0.2,0-0.3-0.1-0.5-0.2c-0.1-0.3,0.1-0.5,0.4-0.7C12.7,102.1,12.8,102.2,13,102.4
			L13,102.4z"/>
		<path d="M6,102.7c0.1,0.1,0.1,0.2,0.1,0.3c-0.2,0.1-0.4,0.4-0.6,0.2c-0.2-0.1-0.3-0.3-0.3-0.5C5.3,102.5,5.9,102.4,6,102.7
			L6,102.7z"/>
		<path d="M7.4,102.9c0,0.2,0,0.3-0.2,0.4c-0.2,0.2-0.4,0-0.6-0.1c-0.1-0.1-0.1-0.3,0-0.4c0.1-0.1,0.2-0.2,0.3-0.2
			C7.1,102.7,7.3,102.7,7.4,102.9L7.4,102.9z"/>
		<path d="M-35.5,102.9c0.2,0.2,0,0.3-0.1,0.5s-0.4,0.3-0.6,0.1c-0.2-0.1-0.2-0.4-0.2-0.6c0.2-0.1,0.2-0.2,0.4-0.2
			C-35.7,102.7-35.6,102.8-35.5,102.9L-35.5,102.9z"/>
		<path d="M15.7,103c0.1,0.3-0.2,0.4-0.4,0.4c-0.3,0.1-0.5-0.1-0.6-0.3c0-0.2,0.1-0.2,0.2-0.4C15.2,102.6,15.5,102.8,15.7,103
			L15.7,103z"/>
		<path d="M14.3,103c0.1,0.3-0.2,0.4-0.3,0.5c-0.2,0.1-0.4,0.1-0.6-0.1c-0.1-0.1-0.1-0.2-0.1-0.4c0.2-0.1,0.2-0.3,0.4-0.3
			C14,102.7,14.2,102.8,14.3,103L14.3,103z"/>
		<path d="M25.7,103.3c0.1,0.4-0.4,0.2-0.6,0.3c-1.1,0.6-2.4,0.2-3.4-0.2c0.1-0.3,0.5-0.2,0.7-0.3C23.4,102.3,24.5,103.2,25.7,103.3
			L25.7,103.3L25.7,103.3z"/>
		<path d="M-43.5,103l-0.1,0.2c-0.9,0.6-2.1,0.9-3.3,0.6l-0.1-0.2C-46,102.9-44.8,102.8-43.5,103L-43.5,103L-43.5,103z"/>
		<path d="M18.2,103.2c0,0.2-0.1,0.4-0.2,0.5c-0.2,0.1-0.6,0-0.7-0.3c-0.1-0.2,0.1-0.4,0.3-0.5C17.8,102.9,18.1,102.9,18.2,103.2
			L18.2,103.2z"/>
		<path d="M-39,103.3c-0.1,0.2-0.1,0.4-0.3,0.5c-0.2,0.1-0.6-0.1-0.6-0.3c-0.1-0.3,0.1-0.4,0.2-0.5C-39.3,102.8-39.1,103.1-39,103.3
			L-39,103.3z"/>
		<path d="M-40.7,103.4c0.1,0.2-0.1,0.3-0.1,0.4c-0.1,0.2-0.4,0.1-0.5,0.1c-0.2-0.2-0.4-0.3-0.3-0.6c0.2-0.1,0.2-0.2,0.4-0.3
			C-41,103.1-40.8,103.2-40.7,103.4L-40.7,103.4z"/>
		<path d="M20,104c0,0.2-0.2,0.4-0.4,0.5c-0.2,0-0.4-0.1-0.5-0.3c-0.1-0.2-0.1-0.4,0.1-0.5c0.1-0.1,0.2-0.1,0.3-0.1
			C19.8,103.6,20,103.8,20,104L20,104z"/>
		<path d="M-42.6,103.7c0.1,0.2-0.1,0.3-0.1,0.4c-0.1,0.4-0.4,0.7-0.5,1.1c-0.5,0.6-1.2,0.6-1.8,0.8l-0.1-0.2
			C-44.5,104.9-43.7,104.1-42.6,103.7L-42.6,103.7L-42.6,103.7z"/>
		<path d="M18.7,104.3c0.1,0.3-0.2,0.4-0.4,0.5c-0.2,0-0.4-0.1-0.5-0.3c-0.1-0.3,0.2-0.4,0.3-0.5C18.4,103.9,18.7,104.1,18.7,104.3
			L18.7,104.3z"/>
		<path d="M-39.7,104.3C-39.7,104.4-39.7,104.4-39.7,104.3c0.1,0.4-0.1,0.5-0.3,0.6c-0.2,0-0.4-0.1-0.6-0.2c-0.1-0.2,0-0.5,0.2-0.6
			C-40.1,104-39.8,104-39.7,104.3L-39.7,104.3z"/>
		<path d="M23.4,105c0.2,0,0.3-0.3,0.6-0.4c0.2-0.1,0.5,0.1,0.6,0.3c0.1,0.3-0.1,0.5-0.3,0.6c-0.2,0.1-0.6-0.2-0.5,0.2
			c0.2,0.1,0.3,0.3,0.4,0.5c-0.1,0.1-0.2,0.1-0.3,0c-0.7-0.3-1.5-0.8-1.8-1.6c-0.1-0.2-0.6-0.4-0.3-0.6C22.4,104,23,104.6,23.4,105
			L23.4,105z"/>
		<path d="M25.8,104.3c0.1,0.1,0.1,0.4,0,0.5c-0.1,0.3-0.5,0.2-0.7,0.1c-0.1-0.1-0.2-0.3-0.2-0.5c0.1-0.2,0.2-0.2,0.4-0.3
			C25.5,104,25.6,104.1,25.8,104.3L25.8,104.3z"/>
		<path d="M16.6,105.6c0.2,0.3,0.5,0.7,0.6,1c-0.1,0.1-0.2,0.1-0.2,0.1c-0.9-0.5-2-1-2.3-2c-0.1-0.1-0.3-0.2-0.2-0.4
			c0.7-0.1,1.3,0.4,1.7,0.7C16.3,105.2,16.5,105.4,16.6,105.6L16.6,105.6z"/>
		<path d="M-41.1,104.7c0.1,0.2-0.1,0.4-0.2,0.5c-0.3,0.1-0.4-0.1-0.6-0.2c-0.2-0.3,0.2-0.5,0.4-0.6
			C-41.4,104.3-41.3,104.5-41.1,104.7L-41.1,104.7z"/>
		<path d="M19.8,105.3c0,0.2-0.2,0.3-0.2,0.4c-0.2,0-0.4,0.1-0.6-0.1c-0.1-0.1-0.2-0.3,0-0.5C19.2,104.7,19.6,105,19.8,105.3
			L19.8,105.3z"/>
		<path d="M26.1,105.6c0.1,0.3-0.2,0.5-0.4,0.6c-0.2,0.1-0.5-0.1-0.6-0.2c-0.1-0.2,0-0.3,0-0.5c0.2-0.2,0.4-0.3,0.7-0.2
			C25.9,105.4,26,105.5,26.1,105.6L26.1,105.6z"/>
		<path d="M8.6,109.1c0,0.3-0.6,0.2-0.8,0.5C7,110,6.1,110,5.1,110v-0.2C6.1,109,7.4,108.8,8.6,109.1L8.6,109.1z"/>
		<path d="M-28.3,110.2c0,0.2-0.2,0.4-0.4,0.4c-0.2,0-0.4-0.1-0.4-0.2c-0.1-0.3,0.2-0.4,0.3-0.6C-28.5,109.9-28.3,110-28.3,110.2
			L-28.3,110.2z"/>
		<path d="M8.2,110.5c-0.1,0.2-0.1,0.5-0.4,0.6c-0.2,0.1-0.4-0.1-0.6-0.2c-0.1-0.1-0.1-0.3-0.1-0.4C7.3,110,8,110,8.2,110.5
			L8.2,110.5z"/>
		<path d="M13.2,110.6c-0.6,0.4-1.3,0.9-2.2,0.9H9.6l-0.1-0.1c0.8-1,2.4-1,3.7-0.9L13.2,110.6L13.2,110.6z"/>
		<path d="M-35.2,111.2c0,0.2-0.1,0.4-0.3,0.5c-0.2,0.1-0.4-0.1-0.5-0.2c-0.1-0.2,0-0.5,0.2-0.6C-35.6,110.7-35.3,111-35.2,111.2
			L-35.2,111.2z"/>
		<path d="M-33.9,111.5c0.1,0.1-0.1,0.2-0.1,0.3c-0.1,0.1-0.4,0.1-0.5,0c-0.2-0.1-0.2-0.3-0.2-0.4c0.1-0.2,0.2-0.1,0.3-0.2
			C-34.2,111.2-34,111.3-33.9,111.5L-33.9,111.5z"/>
		<path d="M-43.6,114c-0.2,0.3-0.7-0.1-0.9-0.2c-0.9-0.5-0.9-1.5-1.7-2.1c0.1-0.3,0.3,0,0.5,0c0.2,0.1,0.4,0.2,0.5,0.3
			C-44.4,112.5-44.2,113.3-43.6,114L-43.6,114z"/>
		<path d="M30.1,104.2c-0.4-0.7-1.1-1-1.9-1c-0.7,0.1-1.1,0.5-1.4,1c-0.2,0.6,0.1,1.1,0.5,1.4c0.2,0.1,0.4,0.1,0.5-0.1
			c0.1-0.3-0.2-0.3-0.3-0.6c-0.1-0.4,0-0.7,0.3-0.9c0.2-0.3,0.7-0.1,1-0.1c0.3,0.2,0.6,0.4,0.8,0.7c0.2,0.4,0.2,0.9,0,1.3
			c-0.3,0.6-0.9,1.1-1.6,1.3c-2.1,0.3-25.1,0.2-25.1,0.2c-2.7,0.3-5.8-0.5-8.1,0.9c-1.1,0.5-1.6,1.7-1.9,2.7c-0.7,0.6-1.4,1.3-2,2
			l-0.1-0.1c0.1-0.6,0.4-1.2,0.5-1.8c0.4-0.5,0.4-1.2,0.7-1.8c1-1.6,1.9-3.1,3.4-4.2c0.6-0.8,1.7-0.7,2.7-0.7c1,0.5,2.2,0.6,3.5,0.5
			c0.1-0.1,0.1-0.1,0.1-0.2c-0.4-0.3-0.9-0.5-1.3-0.8c-1-0.5-2,0.2-3,0.1c-0.1-0.1-0.1-0.1-0.1-0.2c1-0.7,2.1-1.2,3.1-1.7
			c0.9-0.5,1.8-0.7,2.8-1.1c0.4,0,0.7-0.3,1.1-0.1l1.3-0.4c0.1,0,0.1,0.1,0.2,0.1c1.1-0.4,2.6,0,3.9-0.1l0.2,0.2l1.2,0.3
			c0.5,0.1,0.7,0.6,1.1,0.6c0.2-0.4-0.3-0.5-0.4-0.7c0.6-0.1,1.2,0,1.7,0.3l-0.2,0.3c-0.1,0.3,0.1,0.5,0.3,0.6
			c0.2,0.1,0.3-0.1,0.4-0.1c0.3-0.2,0-0.5,0.1-0.7c1.9,0.3,3.7,0.8,5.4,1.5c0.5,0.2,0.9,0.5,1.5,0.5c-0.5-0.5-1.3-0.7-1.9-1
			c-0.4-0.3-1-0.3-1.4-0.6c0.1-0.1,0.2-0.1,0.3-0.2c0.9-0.1,1.6-0.7,2.2-1.4c0.1-0.2,0.3-0.1,0.3-0.3c-0.2-0.3-0.6,0.1-0.9,0.1
			c-1.1,0.2-1.5,1.5-2.6,1.7c-1.3-0.3-2.6-0.6-3.9-0.9c-0.6-0.1-1.3-0.2-1.9-0.4l-1.4-0.1H7.2c0-0.1-0.1-0.1-0.1-0.2
			c0.9-0.2,1.7-0.8,2.6-1l6.8-3.1c0.7-0.6,1.3-1.3,1.9-2.1c0-0.2-0.1-0.4-0.3-0.5c-0.2-0.1-0.4-0.1-0.5,0.1c-0.3,0.2,0,0.5,0,0.8
			c-0.3,0.4-0.8,0.8-1.2,1c-0.1,0-7,3.1-7,3.1c-1,0.4-2,0.9-3.1,1.1l-1.5,0.2c-0.1,0.3-0.4,0.5-0.6,0.6c-0.4,0.1-0.7,0.3-1.2,0.3
			c-3.3,1.3-6.7,2.6-9.3,5.2c0.2-0.3,0.2-0.7,0.2-1.1c-0.1-0.4,0-0.8-0.3-1.1c-0.1-0.1-0.2-0.5-0.2-0.7L-7,103
			c-0.2,0.6-0.4,1.6-0.2,2.2c0.1,0.5,0.5,1,0.1,1.4c-1.2,1.5-1.9,3.3-2.7,4.9c-0.3-0.1-0.5-0.3-0.6-0.6c0.9-1.1,1.5-2.3,1.8-3.7
			c0.2-0.1,0.1-0.5,0.2-0.6c-0.1-0.4,0.2-0.8,0-1.2c0.2-0.5-0.7-1.1-0.2-1.4l-0.5,0.2c-1.1,1.4,0.6,3.6-0.7,4.9v0.1
			c-0.4,0.5-0.5,0.9-1,1.2c-0.6-0.2-0.8-0.9-1.2-1.5c-0.6-0.5-0.6-1.6-0.2-2.4c0.2-0.7-0.2-1.4-0.2-2l-0.2-0.2c-0.6,0.8-0.8,2-0.4,3
			c0.2,0.5,0.3,1.1,0.7,1.5c0.2,0.7,0.7,1.2,1.1,1.9c0.1,0.3-0.2,0.3-0.3,0.4c-0.3-0.2-0.2-0.6-0.5-0.8c-0.8-1.8-1.9-3.2-3.2-4.7
			c-0.1-0.2-0.3-0.4-0.2-0.7c0.5-0.5,0.6-1.3,0.3-1.9c-0.1-0.1-0.2-0.3-0.2-0.4l-0.4-0.3c0.1,0.9-0.5,1.7-0.3,2.6v0.1
			c-2.6-2-5.5-3.7-8.4-5.1l-0.2,0.6c0.7,0.2,2.7,1.4,2.7,1.4c0.9,0.3,1.7,0.9,2.5,1.3c3.4,1.9,5.7,5.1,7.3,8.6
			c0,0.3,0.3,0.6,0.1,0.9c-0.5-0.8-1.3-1.3-1.9-1.9c-0.2-1.2-0.9-2.3-1.9-2.8c-0.4-0.6-1.2-0.6-1.8-0.8l-9.2-0.1
			c-7.5-0.1-14.3,0.2-21.7,0.1c-1-0.1-2.3-0.5-2.6-1.6c-0.2-0.4-0.2-1,0-1.4c0.3-0.5,0.8-0.6,1.3-0.7c0.4,0.1,0.7,0.4,0.9,0.7
			c0,0.3-0.3,0.6-0.4,0.9c0,0.1,0.1,0.3,0.3,0.2c0.3-0.1,0.6-0.5,0.7-0.8c0-0.2,0.1-0.4-0.1-0.6c-0.2-0.5-0.7-0.9-1.2-1
			c-0.6-0.1-1.3,0.1-1.7,0.6c-0.6,0.5-0.6,1.4-0.4,2.1c0.4,1.1,1.6,1.9,2.7,2.1l24.6,0.1c2.4,0.1,5.1-0.3,7.5,0.2
			c0.9,0.3,1.8,0.9,2.1,1.9c0,0.1-0.1,0-0.2,0c-2-1.3-4.6-1.8-7.2-1.5c-1-0.1-1.9,0.3-2.8,0.6c-0.5,0.1-0.9-0.1-1.2-0.4
			c-0.9-0.8-2.5-0.8-3.7-0.5c0,0.1,0,0.2,0,0.2c1.2-0.1,2,1,3.1,1.1c0.2,0.1,0.5-0.2,0.7,0c-1.2,0.6-2.3,1.2-3.5,1.6
			c-0.4-0.1-0.6-0.4-0.9-0.6c-0.5-0.5-1.4-0.3-2-0.4c-0.2,0.1-0.4-0.1-0.6,0c0.2,0.4,0.7,0.6,1.1,0.8c0.6,0.3,1.4,0,1.9,0.4
			c-0.2,0.2-0.4,0.2-0.5,0.4c-1.2,0.5-2.2,1.5-3.5,1.5c-1.4,0.2-2.8-0.3-3.7-1.2c-0.4-1-1.4-1.5-2.5-1.5c-0.1,0.1-0.2,0.1-0.2,0.2
			c0.6,0.3,1,1,1.5,1.4c0.4,0.4,1,0,1.4,0.5c0.5,0.3,1.1,0.6,1.6,0.7c0.4,0.2,0.9,0.3,1.3,0.4l-0.2,0.1c-2.3,0.8-5,0.8-7.5,0.7
			c-0.8,0-1.5-0.2-2.2-0.2c0.1,0.2,0.4,0.3,0.6,0.4c-0.2,0.1-0.4,0.2-0.7,0.2c-0.3,0.1-0.7,0.1-1,0.3c-0.4,0-0.8,0.1-1.1,0.2
			c-0.4,0.5-0.9,0.9-1.4,1.2c0,0.1,0,0.3,0.1,0.3c0.5-0.2,1.1-0.1,1.6-0.3c0.8-0.1,1.3-1,2-1.4c0.7-0.6,1.7-0.4,2.6-0.3
			c0.5,0.1-0.1,0.3,0.1,0.7c0.2,0.2,0.4,0.4,0.7,0.3c0.1-0.1,0.1-0.1,0.2-0.1c0.2-0.2,0.1-0.4,0-0.6c0.4-0.2,0.8,0,1.2-0.1
			c1,0,1.9-0.2,2.9-0.3c0.2,0,0.3-0.2,0.5,0c-0.1,0.2-0.3,0.2-0.2,0.5c0.1,0.2,0.3,0.3,0.5,0.4c0.2-0.1,0.5-0.3,0.4-0.6
			c-0.1-0.2-0.2-0.2-0.4-0.3c0.5-0.3,1.1-0.3,1.7-0.6c0.4-0.1,0.7-0.2,1.1-0.4c0.3,0,0.6-0.3,0.9-0.2c-0.1,0.4-0.3,0.8-0.5,1.2
			c-0.4,1.3-0.7,3.1,0,4.4c0.1,0,0.1,0,0.2-0.1c-0.5-1.3-0.2-2.9,0.2-4.2c0.4-2.2,2.6-2.8,4.2-3.6l0.1,0.1c-0.4,1.1-1.1,2.2-1,3.5
			c0.1,0.2-0.1,0.5,0,0.6c0.4-0.2,0.7-0.7,0.9-1.2c0.2-1.1-0.5-2.6,0.7-3.4c2.1-0.8,4-1.9,6.4-1.9c0.1,0.1,0.2-0.1,0.3,0.1
			c-0.5,0.6-1.2,1.1-1.5,1.8c-0.8,1.1-0.8,3-0.4,4.4c0.2,0.8-0.5,1.2-0.8,1.8c-0.2,0.2-0.2,0.6-0.3,0.8l0.5,0.1
			c0.4-0.5,0.8-1,0.9-1.7c0.1,0.3,0.3,0.5,0.5,0.5c0.2-0.3-0.2-0.5-0.2-0.8c0.4-0.2,0.6,0.3,0.9,0.4c0.5,0.1,1,0.4,1.5,0.4l0.2-0.2
			c-0.6-0.9-1.7-1-2.6-1.1c-0.5-0.8-0.5-1.9-0.5-2.9c0.1-0.5,0.2-1.1,0.5-1.6c0.1-0.4,0.5-0.7,0.7-1c0.5-0.4,1-0.7,1.6-0.9h0.1
			c0,0.1,0,0.1,0,0.1c-0.7,0.5-0.8,1.3-1.2,1.9c-0.4,0.6-0.6,1.5-0.2,2.2c0.2,0.3,0.1,0.8,0.4,1.1c0.3-0.5,0.4-1,0.5-1.6
			c-0.1-0.8-0.6-1.6-0.1-2.4c0.2-0.6,0.8-0.9,1.4-1.1c1.4-0.1,2.6,0.6,3.8,1.1c0.2,0.2,0.7,0.3,0.7,0.7c0,0.7-0.4,1.4-0.9,1.7
			c-0.7,0.4-1.7,0.5-2.3,0c-0.4-0.4-0.5-1-0.4-1.6c0.3-0.3,0.7-0.6,1.1-0.4c0.3,0.1,0.5,0.4,0.8,0.2c0.1-0.1,0.2-0.3,0.1-0.4
			c-0.3-0.2-0.4-0.5-0.8-0.6c-0.5-0.1-1.1-0.1-1.4,0.3c-0.5,0.5-0.7,1.2-0.6,1.8c0.2,0.8,0.8,1.4,1.6,1.6c1.2,0.3,2.4-0.1,3.1-1.1
			c0.3-0.3,0.4-0.7,0.6-1.1c1.2,0.7,2.1,2,2.6,3.4c0,0.4,0.1,0.9,0,1.3l0.9,0.1c-0.1-0.2,0-0.4,0.1-0.6c0.3-1.7,1.4-3.1,2.6-4.2
			c0.4-0.3,0.3,0.3,0.4,0.5c0.4,1,1.3,1.7,2.2,1.9c1.1,0.2,2.1-0.1,2.7-0.9c0.3-0.6,0.7-1.5,0.2-2.1c-0.4-0.4-0.8-0.7-1.4-0.7
			c-0.7,0-1.1,0.5-1.4,0.9c0,0.2,0,0.4,0.2,0.5c0.1,0,0.3,0,0.4-0.1c0.1-0.4,0.4-0.6,0.7-0.8s0.6,0,0.8,0.2c0.3,0.2,0.3,0.6,0.4,1
			c-0.1,0.5-0.4,1-0.8,1.2c-0.7,0.4-1.8,0.2-2.4-0.2c-0.3-0.3-0.5-0.7-0.7-1.1c-0.1-0.4-0.2-0.8,0-1.2c1.1-0.7,2.3-1.1,3.6-1.3
			c0.5,0.1,1,0.5,1.3,0.8c1.2,1.2-0.2,2.9,0.6,4.2c0.3-0.1,0.3-0.5,0.4-0.7c0.4-0.9-0.1-1.9-0.3-2.8c-0.3-0.6-0.5-1-1-1.5
			c0.1-0.1,0.2-0.1,0.3-0.1c0.5,0.4,1.1,0.8,1.5,1.3c0.7,1.2,1.1,2.6,1,4.2c-0.2,0.8-1,1.1-1.6,1.4c-0.2,0.2-0.6,0.5-0.7,0.8
			c0.3,0.2,0.7,0,1-0.1c0.5-0.2,0.8-0.8,1.1-1.1c0.1,0,0,0.1,0.1,0.2c0,0.3-0.1,0.7,0.1,0.7c0.1-0.4,0.2-0.9,0.2-1.3
			c0.3,0.4,0.4,0.8,0.5,1.3c0.2,0.5,0.6,1.1,1.2,1.1c0.2-0.2,0-0.5-0.1-0.7c-0.1-0.6-0.6-1-1-1.4c-0.9-1.2-0.5-3.1-1.2-4.5
			c-0.2-0.7-0.8-1.3-1.4-1.9l0.1-0.1c1.2,0,2.3,0.4,3.4,0.6c1.4,0.7,3.4,0.5,4.1,2.3c0.3,1,0.7,2,1.4,2.7l0.1-0.1
			c0.2-0.2,0.2-0.7,0-0.9c-0.2-1.3-1.3-1.6-1.8-2.6l0.1-0.1c0.6,0.2,1.2,0.3,1.8,0.6c2,0.6,3.4,2.5,3.7,4.6c0,1.6-0.3,3-0.9,4.4
			c-0.1,0.2-0.4,0.4-0.2,0.6c0.3-0.2,0.3-0.5,0.5-0.8c0.8-1.4,1.3-3.3,0.8-5.1c0-0.3-0.4-0.6-0.2-0.9c0.1,0.2,0.3,0.2,0.4,0.2
			c0.2-0.1,0.4-0.1,0.5-0.3c0-0.2,0.1-0.3,0-0.5c-0.2-0.2-0.5-0.2-0.7-0.2c-0.1,0.2-0.3,0.4-0.3,0.6c-0.2-0.4-0.5-1-0.9-1.3l0.1-0.1
			c1.1,0.4,2.2,0.9,3.3,1.2c0.2,0.2,0.5,0.3,0.9,0.3c1,0.4,2.1,0.5,3.1,0.8c0.8-0.1,1.4,0.3,2.1,0.1V115l0,0c-0.3-0.4-0.9,0-1.2-0.3
			c-1.7-0.2-3.4-0.6-5-1.2c0-0.1,0.1-0.1,0.2-0.1c0.2-0.1,0.4-0.4,0.4-0.6c-0.1-0.2-0.3-0.3-0.6-0.3c-0.2,0.1-0.4,0.2-0.4,0.4
			s0.2,0.4,0.4,0.5c-0.1,0.1-0.2,0-0.2,0c-0.8-0.4-1.5-0.7-2.3-1c-0.3-0.1-0.5-0.3-0.8-0.3c-0.6-0.3-1.2-0.6-1.7-0.8
			c-1.6-0.8-3.4-1.3-5.1-1.9c-0.4-0.1-0.7-0.2-1.1-0.3c-0.6-0.2-1.3-0.3-1.9-0.5c-2.1-0.5-5-0.6-6.9,0.6c-0.3-0.1-0.5,0.4-0.6,0.1
			c0.5-1.4,2.1-1.9,3.5-1.9c10.1-0.1,19.6-0.2,29.6-0.3c1.2,0,2.3-0.4,2.9-1.5C30.3,105.9,30.4,104.8,30.1,104.2L30.1,104.2z
			 M-10.1,113.5c-0.1,0.3-0.3,0.6-0.3,0.9l-0.1,0.1c0.1-0.4-0.3-0.6-0.2-1c-0.2-0.3-0.2-0.7-0.4-1c-0.2-0.4,0.2-0.6,0.4-0.9
			c0.4,0.2,0.5,0.5,0.7,0.8C-9.8,112.8-10.1,113.1-10.1,113.5L-10.1,113.5z"/>
		<path d="M17.3,111.9c0,0.1,0.2,0.1,0.1,0.2c-0.9,0.8-2.1,1-3.4,1.1c-0.1,0-0.2,0.1-0.3,0.1c-0.1-0.1-0.1-0.1-0.1-0.2
			C14.5,112.1,15.9,111.6,17.3,111.9L17.3,111.9z"/>
		<path d="M13.2,112.4c0.1,0.4-0.1,0.6-0.4,0.7c-0.3,0-0.4-0.2-0.6-0.4c-0.1-0.2,0.1-0.3,0.2-0.4C12.6,112,13.1,112,13.2,112.4
			L13.2,112.4z"/>
		<path d="M-34.8,112.4c0.1,0.2,0,0.4-0.1,0.5c-0.1,0.1-0.3,0.2-0.5,0.1c-0.2,0-0.3-0.2-0.3-0.4s0.1-0.4,0.3-0.5
			C-35.2,112.2-35,112.2-34.8,112.4L-34.8,112.4z"/>
		<path d="M-39.3,114.1v0.2c-0.6,0.1-1.2,0-1.6-0.4c-0.4-0.5-0.8-1-1.3-1.3c0-0.1-0.2-0.2,0-0.2C-41,112.4-40.3,113.4-39.3,114.1
			L-39.3,114.1z"/>
		<path d="M21.1,112.4c-0.6,0.9-1.1,1.9-2.1,2.3c-0.2,0-0.3,0.3-0.5,0.1c0.4-1,1.3-2,2.2-2.4C20.9,112.4,21,112.3,21.1,112.4
			L21.1,112.4z"/>
		<path d="M-33.3,112.7c0,0.3-0.2,0.3-0.4,0.5c-0.2,0-0.3-0.1-0.4-0.3c-0.1-0.3,0.1-0.4,0.3-0.5C-33.7,112.4-33.4,112.5-33.3,112.7
			L-33.3,112.7z"/>
		<path d="M24.3,112.8c-0.2,0.3-0.1,0.8-0.4,1.2c-0.5,0.6-0.9,1.2-1.7,1.4c-0.1-0.2,0.2-0.5,0.3-0.7c0.4-0.8,0.9-1.6,1.7-2
			L24.3,112.8L24.3,112.8z"/>
		<path d="M-47.2,113.1c0.1,0.2,0.2,0.4,0,0.6c-0.1,0.1-0.4,0.2-0.6,0.1c-0.2-0.1-0.3-0.4-0.2-0.6
			C-47.8,112.9-47.3,112.8-47.2,113.1L-47.2,113.1z"/>
		<path d="M-48.6,113.4c0,0.1,0.1,0.2,0.1,0.4c-0.1,0.1-0.2,0.3-0.4,0.3c-0.3,0.1-0.5-0.1-0.6-0.3c0-0.2,0.1-0.4,0.2-0.5
			C-49,113.1-48.7,113.2-48.6,113.4L-48.6,113.4z"/>
		<path d="M-45.6,113.5c0.1,0.2,0.1,0.6-0.2,0.6c-0.4,0.2-0.6-0.1-0.8-0.3c0-0.2,0.1-0.4,0.3-0.5C-46,113.3-45.8,113.3-45.6,113.5
			L-45.6,113.5z"/>
		<path d="M-41.5,113.9c0,0.2,0,0.4-0.2,0.5c-0.1,0.1-0.4,0.1-0.5,0.1c-0.1-0.2-0.3-0.3-0.2-0.5c0.1-0.1,0.2-0.2,0.4-0.3
			C-41.8,113.7-41.6,113.6-41.5,113.9L-41.5,113.9z"/>
		<path d="M26.8,114c-0.1,0.2-0.2,0.4-0.4,0.4c-0.2,0-0.5-0.1-0.6-0.3c-0.1-0.3,0.1-0.4,0.3-0.5C26.4,113.6,26.7,113.8,26.8,114
			L26.8,114z"/>
		<path d="M22.1,114.2c0,0.2-0.2,0.4-0.3,0.4c-0.4,0.2-0.7-0.1-0.8-0.4c0.1-0.2,0.2-0.4,0.4-0.5C21.8,113.7,22,113.9,22.1,114.2
			L22.1,114.2z"/>
		<path d="M25.3,114.1c0,0.2-0.1,0.4-0.2,0.4c-0.2,0.1-0.5,0.1-0.6-0.1c-0.2-0.2-0.1-0.4,0.1-0.5C24.8,113.8,25.2,113.8,25.3,114.1
			L25.3,114.1z"/>
		<path d="M-47.8,114.5c0.1,0.3-0.1,0.5-0.3,0.6c-0.2,0-0.5-0.1-0.6-0.4c0-0.2,0.1-0.5,0.2-0.5C-48.2,114.2-48,114.4-47.8,114.5
			L-47.8,114.5z"/>
		<path d="M20.9,114.8c0.1,0.3-0.1,0.5-0.4,0.7c-0.2,0.1-0.3-0.1-0.5-0.2c-0.1-0.1-0.2-0.4,0-0.5C20.2,114.4,20.7,114.5,20.9,114.8
			L20.9,114.8z"/>
		<path d="M-34.2,115.1c0.1,0.3-0.2,0.3-0.3,0.5c-0.1,0.1-0.3,0.1-0.4,0c-0.1-0.2-0.3-0.3-0.2-0.5c0.1-0.1,0.2-0.2,0.3-0.2
			C-34.5,114.7-34.4,114.9-34.2,115.1L-34.2,115.1z"/>
		<path d="M26.3,115.3c0.1,0.2-0.1,0.3-0.1,0.4c-0.2,0.1-0.4,0.2-0.6,0.1c-0.2-0.1-0.2-0.3-0.2-0.6c0.1-0.1,0.2-0.2,0.4-0.3
			C25.9,114.9,26.2,115,26.3,115.3L26.3,115.3z"/>
		<path d="M24.7,115.4c0.1,0.3-0.2,0.5-0.4,0.5c-0.1,0-0.2-0.1-0.3,0.1c0.7,0.3,1.1,0.9,1.6,1.3v0.2c-0.9,0-1.8-0.2-2.5-1
			c-0.2-0.1-0.5-0.1-0.7-0.3c0.3-0.3,0.9-0.2,1.4-0.2c0.3-0.4-0.4-0.6,0.1-0.9c0.2,0,0.2-0.2,0.5-0.1
			C24.5,115.1,24.6,115.2,24.7,115.4L24.7,115.4z"/>
		<path d="M14.4,115.4c0.1,0.1-0.1,0.3-0.1,0.4c-0.2,0.2-0.4,0.2-0.6,0.1c-0.1-0.2-0.3-0.3-0.2-0.6C13.7,114.9,14.3,115,14.4,115.4
			L14.4,115.4z"/>
		<path d="M-42.1,116.3c-0.1,0.2-0.2,0.4-0.4,0.4c-0.2,0-0.4-0.1-0.5-0.3c0-0.2,0.1-0.3,0.1-0.4C-42.6,115.7-42.1,115.9-42.1,116.3
			L-42.1,116.3z"/>
		<path d="M-40.1,115.9c0,0.4-0.4,0.6-0.5,0.9c-0.4,0.8-1.1,1.6-2,1.7c-0.1-0.2,0.3-0.5,0.4-0.7c0.4-0.9,1.2-1.3,1.9-1.9H-40.1
			L-40.1,115.9z"/>
		<path d="M13.8,116.3c0,0.3-0.2,0.5-0.4,0.6c-0.2,0.1-0.4-0.1-0.5-0.2c-0.2-0.2-0.1-0.4,0-0.6C13.2,115.8,13.6,116,13.8,116.3
			L13.8,116.3z"/>
		<path d="M15.4,116.5c0,0.3-0.2,0.5-0.5,0.6c-0.1-0.1-0.2,0-0.2-0.1c-0.2-0.1-0.3-0.3-0.3-0.5c0.1-0.1,0.2-0.3,0.4-0.4
			C14.9,116.1,15.3,116.2,15.4,116.5L15.4,116.5z"/>
		<path d="M-36.1,116.4c0,0.3-0.2,0.4-0.4,0.5c-0.2,0-0.4-0.1-0.5-0.3s0.2-0.4,0.3-0.5C-36.4,116.1-36.3,116.3-36.1,116.4
			L-36.1,116.4z"/>
		<path d="M-34.4,116.5c-0.1,0.2-0.2,0.4-0.5,0.4c-0.2-0.1-0.4-0.1-0.5-0.3c0-0.3,0.2-0.4,0.4-0.5
			C-34.7,116.2-34.5,116.3-34.4,116.5L-34.4,116.5z"/>
		<path d="M20.8,118.3c0.1,0.1,0.4,0.2,0.3,0.4c-0.4,0.2-0.7-0.3-1.1-0.4c-0.6-0.6-1.1-1.3-1.3-2c0.2-0.2,0.5,0.1,0.7,0.1
			C19.9,117,20.5,117.6,20.8,118.3L20.8,118.3z"/>
		<path d="M21.7,116.5c0.1,0.2,0.1,0.4-0.1,0.6c-0.2,0.3-0.5,0.2-0.7,0.2c-0.1-0.2-0.4-0.4-0.2-0.6c0.1-0.2,0.3-0.3,0.5-0.3
			C21.4,116.3,21.5,116.5,21.7,116.5L21.7,116.5z"/>
		<path d="M-32.1,117.2c0,0.2,0.1,0.5-0.2,0.6c-0.2,0.1-0.5,0-0.6-0.3s0.1-0.4,0.3-0.5C-32.4,117-32.2,117.1-32.1,117.2L-32.1,117.2
			z"/>
		<path d="M15.3,118.9c0.4,0.5,0.6,1.1,0.7,1.8c-0.1,0.2,0.1,0.4,0,0.5h-0.2c-1.1-0.8-1.4-2-1.8-3.1c-0.1-0.1-0.1-0.2-0.1-0.3
			c0.2-0.2,0.4,0.2,0.7,0.3L15.3,118.9L15.3,118.9z"/>
		<path d="M-28.8,118C-28.8,118-28.8,118.1-28.8,118c-1,0.8-2.4,1.2-3.6,0.5c0-0.1,0-0.2,0.1-0.2c0.7-0.2,1.4-0.6,2.2-0.5L-28.8,118
			L-28.8,118z"/>
		<path d="M-34.6,118.1c-0.9,0.5-1.6,1.6-2.7,1.8c-0.2,0.1-0.3,0.4-0.6,0.2c0.5-1.4,1.9-2.1,3.3-2.2L-34.6,118.1L-34.6,118.1z"/>
		<path d="M13.8,119.3c0.1,0.2,0,0.5-0.2,0.5c-0.1,0.1-0.4,0.1-0.5,0c-0.2-0.1-0.2-0.3-0.2-0.5c0.1-0.2,0.2-0.2,0.4-0.3
			C13.5,119.1,13.7,119.1,13.8,119.3L13.8,119.3z"/>
		<path d="M11.7,119.4c-0.2,0.4-0.6,0.6-0.9,0.7c-0.9,0.3-1.6-0.1-2.4-0.3c0-0.2,0.3-0.1,0.4-0.2c0.8-0.2,1.7-0.4,2.6-0.1
			C11.4,119.3,11.6,119.3,11.7,119.4L11.7,119.4z"/>
		<path d="M-34.6,120.1c-0.1,0.1-0.1,0.3-0.3,0.4c-0.2,0.1-0.4,0-0.5-0.1c-0.1-0.2-0.2-0.3-0.1-0.5s0.2-0.2,0.4-0.3
			C-34.8,119.7-34.6,119.9-34.6,120.1L-34.6,120.1z"/>
		<path d="M-33.1,120.4c-0.1,0.2-0.2,0.4-0.4,0.5c-0.2,0.1-0.4-0.1-0.5-0.2c-0.1-0.2-0.2-0.3-0.1-0.5c0.1-0.1,0.2-0.2,0.4-0.2
			C-33.4,119.9-33.2,120.2-33.1,120.4L-33.1,120.4z"/>
		<path d="M13.3,120.6c0,0.2-0.1,0.3-0.2,0.5s-0.4,0.2-0.6,0.1c-0.2,0-0.2-0.2-0.3-0.4c-0.2-0.2,0.1-0.3,0.2-0.5
			C12.7,120.1,13.2,120.2,13.3,120.6L13.3,120.6z"/>
		<path d="M14.4,120.6c0,0.1,0.1,0.2,0.1,0.4c-0.2,0.1-0.2,0.5-0.6,0.3c-0.1,0.1-0.2-0.2-0.3-0.2c-0.1-0.3,0-0.6,0.3-0.7
			C14.1,120.3,14.3,120.5,14.4,120.6L14.4,120.6z"/>
		<path d="M-34,121.3c0.1,0.3-0.1,0.5-0.2,0.7c-0.3,0.1-0.6,0.1-0.7-0.3c0-0.2,0-0.6,0.3-0.7C-34.4,121-34.1,121-34,121.3L-34,121.3
			z"/>
		<path d="M-32.5,121.2c-0.1,0.7-0.2,1.6-0.9,2c-0.4,0.1-0.8,0.5-1.2,0.2v-0.1C-34.1,122.5-33.2,121.9-32.5,121.2L-32.5,121.2z"/>
		<path d="M9.3,121.8c0.1,0.2-0.1,0.3-0.1,0.4c-0.1,0.2-0.4,0.1-0.6,0c-0.2-0.1-0.2-0.3-0.1-0.5c0.1-0.2,0.2-0.2,0.3-0.3
			C9,121.4,9.2,121.6,9.3,121.8L9.3,121.8z"/>
		<path d="M-30,123c0.4,0.6,0.2,1.4,0.4,2c-0.4,0.1-0.6-0.4-0.9-0.7c-0.6-0.8-0.5-1.8-0.7-2.7c0.1-0.1,0.1-0.1,0.2-0.1
			c0.4,0.2,0.7,0.7,1,1.1C-30.2,122.8-30,122.8-30,123L-30,123z"/>
		<path d="M10.6,122c0,0.2-0.2,0.3-0.4,0.4c-0.2,0-0.3-0.1-0.5-0.2c-0.1-0.2,0.1-0.3,0.2-0.5C10.3,121.6,10.5,121.7,10.6,122
			L10.6,122z"/>
		<path d="M13.6,124.3c0,0.1,0,0.2-0.2,0.2h-0.1c-0.7-0.7-1.5-1.4-1.4-2.4h0.2C12.8,122.6,13.6,123.2,13.6,124.3L13.6,124.3z"/>
		<path d="M11.7,123.4c0,0.2-0.1,0.4-0.2,0.5c-0.3,0.1-0.7,0.1-0.8-0.3c0-0.3,0.3-0.4,0.4-0.5C11.4,123,11.6,123.2,11.7,123.4
			L11.7,123.4z"/>
		<path d="M10,124c-0.4,0.9-1.3,1.4-2,2.1c-0.1-0.1-0.1-0.3-0.1-0.4c0.2-1,1-1.9,1.9-2.3C10.4,123.5,10,123.8,10,124L10,124z"/>
		<path d="M11.9,124.7c0,0.2-0.2,0.3-0.4,0.5c-0.2,0-0.4-0.1-0.6-0.3c0-0.3,0.2-0.3,0.3-0.5C11.6,124.4,11.8,124.5,11.9,124.7
			L11.9,124.7z"/>
		<path d="M-6.9,78.5c0.3,0,0.6,0.3,0.6,0.6c0,0.3-0.3,0.6-0.6,0.6h-7.5c-0.3,0-0.6-0.3-0.6-0.6c0-0.3,0.3-0.6,0.6-0.6H-6.9
			L-6.9,78.5z M-12.2,79.6c0.7,0,0-0.9-0.4-0.9h-0.6c-0.7,0,0,0.9,0.4,0.9H-12.2L-12.2,79.6z M-9.1,79.6c0.7,0,0-0.9-0.4-0.9h-0.7
			c-0.7,0,0,0.9,0.4,0.9H-9.1L-9.1,79.6z M-6.8,78.7h-0.3c-0.7,0-0.1,0.9,0.3,0.9C-6.3,79.6-6.3,78.7-6.8,78.7L-6.8,78.7z"/>
		<path d="M-7.5,87.1l1.4,0.5l1.4-0.5l-0.6,2.1l1.1-0.2l-0.4,1.3l0.4,1.2l-1-0.3l0.4,2.3L-6.2,93l-1.4,0.5l0.6-2.3l-1.1,0.3l0.3-1.3
			L-8.1,89l1.1,0.2L-7.5,87.1L-7.5,87.1z M-5.4,90.9c0.3,0,0.4-0.4,0.4-0.8c0-0.9-0.7,0-1-0.8c-0.3,0.7-1,0.1-1,0.8
			c0,0.5,0,0.8,0.5,0.8H-5.4L-5.4,90.9z M-6.8,90.2c0,0.3,0.4,0.1,0.8,0.1c0.3,0,0.8,0.2,0.8-0.1c0-0.5-0.4-0.3-0.8-0.3
			C-6.4,89.8-6.8,89.7-6.8,90.2L-6.8,90.2z"/>
		<polygon points="-10.9,90.2 -10.9,90 -11.1,89.9 -10.9,89.7 -11,89.5 -10.8,89.5 -10.6,89.3 -10.5,89.5 -10.3,89.5 -10.4,89.7 
			-10.2,89.9 -10.4,90 -10.4,90.2 -10.6,90.1 		"/>
		<polygon points="-12,91.7 -12,91.4 -12.2,91.3 -12,91.2 -12.1,90.9 -11.9,91 -11.8,90.7 -11.6,91 -11.4,90.9 -11.5,91.2 
			-11.3,91.3 -11.5,91.4 -11.5,91.7 -11.8,91.5 		"/>
		<polygon points="-10.1,91.5 -10.1,91.2 -10.3,91.2 -10.1,91 -10.3,90.8 -10,90.8 -9.9,90.5 -9.7,90.8 -9.5,90.8 -9.6,91 
			-9.4,91.2 -9.6,91.2 -9.6,91.5 -9.9,91.3 		"/>
		<polygon points="-9.9,92.6 -9.9,92.4 -10,92.4 -9.9,92.3 -10,92.1 -9.8,92.2 -9.7,92 -9.7,92.2 -9.5,92.1 -9.6,92.3 -9.5,92.4 
			-9.6,92.4 -9.6,92.6 -9.7,92.5 		"/>
		<polygon points="-11.6,93.8 -11.6,93.3 -12,93.2 -11.7,92.9 -11.9,92.5 -11.5,92.6 -11.2,92.1 -11,92.6 -10.6,92.5 -10.8,92.9 
			-10.4,93.2 -10.8,93.3 -10.8,93.8 -11.2,93.5 		"/>
		<polygon points="-10.7,69.8 -9.8,72 -7.6,71.3 -8.7,73.4 -6.8,74.7 -9.1,75.1 -9,77.5 -10.7,75.9 -12.5,77.5 -12.3,75.1 
			-14.7,74.7 -12.7,73.4 -13.9,71.3 -11.6,72 		"/>
		<path d="M-18.9,118.8c-0.3,0.1-0.4,0.2-0.3,0.5l0.3,1.3c0.1,0.2,0.1,0.6-0.1,0.9c-0.2,0.3-0.6,0.5-0.9,0.5c-0.2,0.1-0.7,0.1-1.1,0
			c-0.2-0.1-0.4-0.2-0.5-0.7l-0.3-1.4c-0.1-0.4-0.2-0.3-0.5-0.3v-0.1l1.7-0.4v0.1c-0.3,0.1-0.5,0.1-0.4,0.5l0.3,1.4
			c0.1,0.2,0.2,0.8,0.9,0.6c0.9-0.2,0.7-0.9,0.7-1.1l-0.3-1.3c-0.1-0.3-0.2-0.4-0.6-0.3v-0.1l1.1-0.3L-18.9,118.8L-18.9,118.8z"/>
		<path d="M-16.4,119.1c-0.2-0.3-0.6-0.7-1.2-0.6c-0.3,0.1-0.5,0.2-0.4,0.5c0.1,0.2,0.2,0.3,0.6,0.4l0.8,0.1c0.2,0,0.6,0.2,0.7,0.7
			c0.1,0.4-0.1,1-1.1,1.2c-0.5,0.1-0.7,0-0.9,0.1c-0.1,0-0.1,0.1-0.1,0.2h-0.1l-0.2-1h0.1c0.2,0.4,0.6,0.8,1.2,0.7
			c0.6-0.1,0.5-0.6,0.5-0.6c-0.1-0.3-0.3-0.3-0.7-0.4l-0.4-0.1c-0.9-0.2-1-0.5-1.1-0.7c-0.1-0.3,0-0.9,0.9-1.1c0.4-0.1,0.7,0,0.8,0
			s0.1-0.1,0.1-0.2h0.2l0.2,0.9L-16.4,119.1L-16.4,119.1z"/>
		<path d="M-13,120.8l-1.8,0.2v-0.1c0.4-0.1,0.5-0.1,0.5-0.4l-0.2-2.3c-0.4,0.1-0.9,0.1-0.9,0.8h-0.1l-0.1-0.9l3.1-0.3l0.1,0.9h-0.1
			c-0.2-0.7-0.7-0.7-1.1-0.6l0.2,2.3c0,0.4,0.2,0.4,0.5,0.4H-13L-13,120.8z"/>
		<path d="M-8.8,120.8h-1.1l-1-1.4H-11v0.8c0,0.3,0.1,0.4,0.4,0.4v0.1h-1.7v-0.1c0.4,0,0.5,0,0.5-0.4v-1.9c0-0.4-0.2-0.4-0.4-0.4
			v-0.1h1.7c0.4,0,1.5,0.1,1.4,0.8c0,0.5-0.5,0.7-0.8,0.7l1,1.3c0.1,0.1,0.1,0.1,0.2,0.1L-8.8,120.8L-8.8,120.8z M-11,119.3
			c0.7,0,0.9-0.1,1-0.6c0-0.4-0.2-0.6-0.6-0.6c-0.3,0-0.3,0-0.3,0.2L-11,119.3L-11,119.3z"/>
		<path d="M-5.4,121.2l-1.7-0.2v-0.1c0.3,0,0.4,0,0.4-0.1c0-0.1-0.1-0.5-0.2-0.6l-1.2-0.1c-0.2,0.3-0.3,0.5-0.3,0.5
			c0,0.2,0.2,0.2,0.4,0.2v0.1l-1-0.1v-0.1c0.3,0,0.4-0.1,0.6-0.4l1.4-2.2h0.1l0.9,2.4C-5.7,121-5.6,121.1-5.4,121.2L-5.4,121.2
			L-5.4,121.2z M-6.8,120l-0.4-1.1l-0.6,1L-6.8,120L-6.8,120z"/>
		<path d="M-2.4,121.8l-2.9-0.5v-0.1c0.3,0,0.4,0,0.5-0.2l0.4-2.1c0.1-0.3-0.2-0.3-0.4-0.4v-0.1l1.8,0.3v0.1
			c-0.4-0.1-0.5-0.1-0.6,0.3l-0.4,2c0,0.2,0.1,0.3,0.4,0.3c0.8,0.1,1.1-0.2,1.4-0.6h0.1L-2.4,121.8L-2.4,121.8z"/>
		<path d="M-0.4,122.3l-1.8-0.4v-0.1c0.3,0,0.5,0.1,0.5-0.2l0.4-2.1c0.1-0.3-0.2-0.3-0.4-0.4V119l1.8,0.4v0.1
			c-0.2,0-0.5-0.1-0.5,0.2l-0.4,2.1c-0.1,0.3,0.1,0.3,0.4,0.4V122.3L-0.4,122.3z"/>
		<path d="M3.2,122.7l-1.7-0.2v-0.1c0.3,0,0.4,0,0.4-0.1c0-0.1-0.1-0.5-0.2-0.6l-1.2-0.1c-0.2,0.3-0.3,0.5-0.3,0.5
			c0,0.2,0.2,0.2,0.4,0.2v0.1l-1-0.1v-0.1c0.3,0,0.4-0.1,0.5-0.5l1.4-2.2h0.1l0.9,2.4c0.2,0.5,0.2,0.6,0.5,0.7L3.2,122.7L3.2,122.7z
			 M1.7,121.6l-0.4-1.1l-0.6,1L1.7,121.6L1.7,121.6z"/>
		<path d="M-10,87.8c0-1-0.6-0.1-0.9-0.9c-0.2,0.7-0.9,0.1-0.9,0.9c0,0.3,0.1,0.5,0.2,0.6v0.3c0,0.1,0.1,0.1,0.1,0.1h1.1
			c0.1,0,0.1-0.1,0.1-0.1v-0.3C-10.1,88.3-10,88.1-10,87.8L-10,87.8z M-10.9,88c-0.3,0-0.7,0.2-0.7-0.1c0-0.5,0.3-0.4,0.7-0.4
			c0.3,0,0.8-0.1,0.8,0.4C-10.2,88.2-10.6,88-10.9,88L-10.9,88z"/>
		<path d="M-1,100.6c0.3,0,0.5-0.2,0.5-0.4c0-0.2-0.2-0.4-0.5-0.4s-0.5,0.2-0.5,0.4C-1.5,100.4-1.2,100.6-1,100.6L-1,100.6z"/>
		<path d="M-3.2,85.2l-0.2,0.4c0,0.1,0.1,0.2,0.2,0.2S-3,85.7-3,85.6L-3.2,85.2L-3.2,85.2z"/>
		<path d="M-18.5,85.2l-0.2,0.4c0,0.1,0.1,0.2,0.2,0.2c0.1,0,0.2-0.1,0.2-0.2L-18.5,85.2L-18.5,85.2z"/>
		<path d="M-14.7,85.2l-0.2,0.4c0,0.1,0.1,0.2,0.2,0.2s0.2-0.1,0.2-0.2C-14.4,85.6-14.7,85.2-14.7,85.2L-14.7,85.2z"/>
		<path d="M-10.9,85.2l-0.2,0.4c0,0.1,0.1,0.2,0.2,0.2s0.2-0.1,0.2-0.2C-10.6,85.6-10.9,85.2-10.9,85.2L-10.9,85.2z"/>
		<path d="M-7,85.2l-0.2,0.4c0,0.1,0.1,0.2,0.2,0.2c0.1,0,0.2-0.1,0.2-0.2L-7,85.2L-7,85.2z"/>
		<path d="M-18.5,90.4l0.2,0.4c0,0.1-0.1,0.2-0.2,0.2s-0.2-0.1-0.2-0.2C-18.7,90.9-18.5,90.4-18.5,90.4L-18.5,90.4z"/>
		<path d="M-18.5,95.5l0.2,0.4c0,0.1-0.1,0.2-0.2,0.2s-0.2-0.1-0.2-0.2C-18.7,96-18.5,95.5-18.5,95.5L-18.5,95.5z"/>
		<path d="M-17.9,99.5l0.2,0.4c0,0.1-0.1,0.2-0.2,0.2s-0.2-0.1-0.2-0.2C-18.1,100-17.9,99.5-17.9,99.5L-17.9,99.5z"/>
		<path d="M-14.7,101.7l0.2,0.4c0,0.1-0.1,0.2-0.2,0.2s-0.2-0.1-0.2-0.2L-14.7,101.7L-14.7,101.7z"/>
		<path d="M-3,90.4l-0.2,0.4c0,0.1,0.1,0.2,0.2,0.2c0.1,0,0.2-0.1,0.2-0.2C-2.8,90.9-3,90.4-3,90.4L-3,90.4z"/>
		<path d="M-3,95.5l-0.2,0.4c0,0.1,0.1,0.2,0.2,0.2c0.1,0,0.2-0.1,0.2-0.2C-2.8,96-3,95.5-3,95.5L-3,95.5z"/>
		<path d="M-3.6,99.5l-0.2,0.4c0,0.1,0.1,0.2,0.2,0.2c0.1,0,0.2-0.1,0.2-0.2C-3.4,100-3.6,99.5-3.6,99.5L-3.6,99.5z"/>
		<path d="M-6.8,101.7l-0.2,0.4c0,0.1,0.1,0.2,0.2,0.2c0.1,0,0.2-0.1,0.2-0.2C-6.6,102.1-6.8,101.7-6.8,101.7L-6.8,101.7z"/>
		<path d="M-10.7,104l-0.2,0.4c0,0.1,0.1,0.2,0.2,0.2c0.1,0,0.2-0.1,0.2-0.2L-10.7,104L-10.7,104z"/>
		<path d="M-4.5,96.4c0.1,0.1,0.2,0.1,0.3,0l0.1-0.4c0,0-0.2-0.2-0.3-0.2c-0.4,0.1-0.8,0.1-1.1,0.5c0,0.3,0.2,0.5,0.4,0.6
			c0.1-0.1,0.2,0.1,0.3,0.2c0,0.1-0.1,0.2-0.2,0.2C-5.3,97-5.8,97.4-6,97c0.1-0.4,0.3-0.8,0-1.1c0-0.1,0.1-0.1,0.1-0.2
			c-0.1-0.3-0.5-0.1-0.7-0.1C-7,95.5-7.3,95.7-7.5,96c0,0.1,0.1,0.2,0.2,0.4c0.1,0,0.1,0,0.2,0.1l-0.2,0.1c0.1,0.1,0.1,0.2,0.1,0.3
			c-0.2,0.1-0.3-0.2-0.4-0.3c0-0.2,0-0.5-0.2-0.6C-7.9,96-8,96.1-8,96.1c-0.1,0.1-0.1,0.2-0.1,0.4c0,0.2,0.1,0.4,0.1,0.4
			s0.7,0.5,0.9,0.9c-0.2,0.4-0.2,1-0.7,1.3c-0.1,0.1-0.1,0.2-0.1,0.4l0.1,0.1c0.3-0.2,0.9-0.2,0.9-0.7c0.1-0.2,0.2-0.5,0.5-0.6
			c0.2-0.1,0.5,0.1,0.5,0.3C-6,99-6.2,99.2-6.5,99.3c0,0.1,0,0.1,0,0.2c0.1,0.2,0.4,0.1,0.5,0.1c0.4-0.3,0.6-0.7,0.9-0.9
			c0.1,0.2-0.5,0.3-0.1,0.6c0.2-0.1,0.5,0,0.7-0.3c-0.2-0.4,0.6-0.6,0.1-1c0-0.4,0.4-0.5,0.4-0.9c-0.1-0.4-0.6-0.4-0.7-0.7
			C-4.9,96.3-4.7,96.3-4.5,96.4L-4.5,96.4z"/>
		<path d="M-22.1,100.8c0.3,0,0.5-0.2,0.5-0.4c0-0.2-0.2-0.4-0.5-0.4s-0.5,0.2-0.5,0.4C-22.5,100.6-22.3,100.8-22.1,100.8
			L-22.1,100.8z"/>
		<path d="M-46.8,115.2c0.3,0,0.5-0.2,0.5-0.4s-0.2-0.4-0.5-0.4s-0.5,0.2-0.5,0.4C-47.3,115-47.1,115.2-46.8,115.2L-46.8,115.2z"/>
		<path d="M-31.1,118.7L-31.1,118.7L-31.1,118.7L-31.1,118.7L-31.1,118.7L-31.1,118.7L-31.1,118.7L-31.1,118.7L-31.1,118.7
			C-31.1,118.7-31.1,118.7-31.1,118.7L-31.1,118.7C-31.2,118.6-31.2,118.6-31.1,118.7L-31.1,118.7L-31.1,118.7L-31.1,118.7
			L-31.1,118.7L-31.1,118.7L-31.1,118.7L-31.1,118.7L-31.1,118.7z M-31.1,118.7L-31.1,118.7L-31.1,118.7L-31.1,118.7L-31.1,118.7
			L-31.1,118.7z"/>
		<path d="M-31,118.7L-31,118.7L-31,118.7L-31,118.7L-31,118.7L-31,118.7L-31,118.7C-31,118.7-31.1,118.7-31,118.7L-31,118.7
			L-31,118.7L-31,118.7L-31,118.7C-31.1,118.7-31,118.7-31,118.7L-31,118.7L-31,118.7L-31,118.7C-31.1,118.7-31.1,118.7-31,118.7
			C-31.1,118.7-31.1,118.7-31,118.7L-31,118.7L-31,118.7L-31,118.7L-31,118.7L-31,118.7L-31,118.7z"/>
		<path d="M-30.8,118.7L-30.8,118.7L-30.8,118.7L-30.8,118.7L-30.8,118.7L-30.8,118.7L-30.8,118.7L-30.8,118.7L-30.8,118.7
			L-30.8,118.7L-30.8,118.7L-30.8,118.7L-30.8,118.7C-30.9,118.7-30.9,118.7-30.8,118.7L-30.8,118.7L-30.8,118.7L-30.8,118.7
			L-30.8,118.7L-30.8,118.7C-30.9,118.7-30.9,118.7-30.8,118.7L-30.8,118.7L-30.8,118.7L-30.8,118.7
			C-30.9,118.7-30.9,118.7-30.8,118.7L-30.8,118.7L-30.8,118.7L-30.8,118.7L-30.8,118.7L-30.8,118.7L-30.8,118.7L-30.8,118.7
			L-30.8,118.7L-30.8,118.7L-30.8,118.7z"/>
		<path d="M-30.8,118.7L-30.8,118.7L-30.8,118.7L-30.8,118.7L-30.8,118.7C-30.8,118.7-30.8,118.6-30.8,118.7
			C-30.8,118.6-30.8,118.7-30.8,118.7L-30.8,118.7L-30.8,118.7L-30.8,118.7z M-30.8,118.7L-30.8,118.7L-30.8,118.7L-30.8,118.7
			L-30.8,118.7L-30.8,118.7L-30.8,118.7z"/>
		<path d="M-30.7,118.7L-30.7,118.7L-30.7,118.7L-30.7,118.7C-30.7,118.7-30.8,118.7-30.7,118.7C-30.8,118.7-30.8,118.7-30.7,118.7
			L-30.7,118.7L-30.7,118.7L-30.7,118.7L-30.7,118.7L-30.7,118.7L-30.7,118.7L-30.7,118.7L-30.7,118.7L-30.7,118.7L-30.7,118.7z"/>
		<path d="M-1.9,84.6L-1.9,84.6h-17.6l0,0l0,0v13.5c0,1.4,0.6,2.6,1.4,2.9l6.8,4.3c0.1,0.2,0.4,0.3,0.6,0.3c0.2,0,0.4-0.1,0.5-0.2
			l6.9-4.4c0.8-0.4,1.4-1.6,1.4-2.9V84.6L-1.9,84.6L-1.9,84.6z M-2.4,98.2c-0.1,1-0.4,1.9-1.1,2.3l-6.6,4.2l0,0
			c-0.1,0.1-0.3,0.2-0.5,0.2s-0.4-0.1-0.5-0.2l-6.6-4.2c-0.7-0.5-1-1.3-1.1-2.3V85.1h16.6L-2.4,98.2L-2.4,98.2z"/>
		<path d="M-8.4,104.2l0.2-0.1C-8.3,104.1-8.3,104.2-8.4,104.2L-8.4,104.2z"/>
		<path d="M-21.7,122.6l-1.7,0.2v-0.1c0.3-0.1,0.4-0.1,0.4-0.2c0-0.1-0.2-0.4-0.3-0.5l-1.2,0.1c-0.1,0.3-0.2,0.5-0.2,0.6
			c0,0.2,0.3,0.1,0.4,0.1v0.1l-1,0.1v-0.1c0.3-0.1,0.3-0.2,0.4-0.6l0.9-2.5h0.1l1.4,2.1c0.3,0.4,0.4,0.6,0.6,0.5L-21.7,122.6
			L-21.7,122.6z M-23.3,121.8l-0.6-1l-0.4,1.1L-23.3,121.8L-23.3,121.8z"/>
		<path d="M7.5,116.3c-0.3-0.8-0.9-1.3-1.7-1.6c-0.8-0.2-1.7-0.1-2.2,0.6c-0.9,0.7-0.3,2-0.2,3c0,0.2,0,0.4-0.2,0.5
			c-3.7-0.3-7.1-1.2-10.7-1.6c-0.8-0.1-1.7-0.1-2.5-0.3l-1-0.1c-3.2,0.1-6.3,0.3-9.3,1c-0.6,0.2-1.3,0.2-2,0.5
			c-0.5-0.1-0.8,0.2-1.3,0.1l-0.8,0.2c-0.1,0-0.2,0-0.3,0c-0.4-1,0.8-1.7,0.4-2.7c-0.3-0.6-1-1.1-1.7-1c-0.9-0.1-1.6,0.4-2,1
			c-0.6,1.3,0.2,2.6,0.4,3.8c-0.1,0.4,0.4,0.9,0,1.2c-0.8-0.6-1.9-0.9-2.9-0.6c-0.3,0.2-0.9-0.1-1,0.3c1.1,0.6,2.5,0.5,3.7,0.5
			c0.2-0.1,0.3-0.1,0.4,0c0.1,0.7-0.1,1.6,0.3,2.1c0.5,0.6,1.2,0.8,1.9,0.8c2.3-0.1,4.4-0.8,6.5-1.3c0.3,0,0.6-0.2,0.9-0.2
			c1.1-0.3,2.4-0.5,3.6-0.5c-0.5,0.7-0.8,1.5-1.1,2.3c-0.3,0.7,0.5,0.8,0.8,1.2c-0.8,0.2-1.3,0.8-2.1,1.1c-1.6-0.1-3,0.6-4.5,0.7
			c0,0.3,0.5,0.2,0.6,0.6c-0.1,0.2-0.3,0.3-0.5,0.4c0,0.2,0,0.2,0.2,0.2c0.2-0.2,0.5-0.1,0.6-0.2c0.5,0,0.9-0.2,1.4-0.2
			c0.4-0.2,0.9-0.2,1.3-0.5c0.5-0.2,0.9-0.5,1.4-0.7c0.8,0,1.4-0.3,2.1-0.3v0.2c-0.6,0.9-1.2,1.9-1.8,2.8c-0.1,0.2,0,0.4,0.2,0.4
			c0.4,0.1,0.7,0,1-0.2c0.5-0.9,1-1.8,1.4-2.7c0.2-0.9,0.8-1.3,1.4-1.9c0.1-0.1,0.2-0.2,0.4-0.1c-0.5,0.6-0.8,1.2-1.2,1.8
			c-0.2,0.7-0.3,1.6,0.4,2.2c0.3,0.3,0.8,0.2,1.2,0.2c1-0.5,2.2,0.3,3-0.7c0.5-0.1,0.5,0.5,0.8,0.7c0.4,0.1,0.9,0.6,1.3,0.2
			c0-0.3-0.3-0.5-0.5-0.8c-0.3-0.5-0.7-1-1-1.5c-0.1-0.4-0.4-0.6-0.4-0.9c0.5,0.2,0.9,0.5,1.4,0.5c0.4,0.2,1,0.2,1.4,0.4
			c0.3,0.4,0.8,0.7,1.3,1c0.6,0.3,1.3,0.4,2,0.6c0.2,0,0.6,0.2,0.8,0c-0.1-0.1-0.2-0.2-0.4-0.3c-0.1-0.3,0.5-0.2,0.6-0.4
			c-0.1-0.1-0.2-0.2-0.3-0.2c-0.4-0.2-1.3-0.3-1.5-0.4c-0.3-0.1-0.6-0.2-0.9-0.3c-1.5,0-2.4-1.4-3.6-1.9c0.3-0.3,0.7-0.5,0.9-0.8
			c0.2-0.4,0.3-0.9,0.1-1.3c-0.2-0.8-1.2-0.7-1.8-1.1l0.1-0.1c1-0.1,1.8,0.2,2.7,0.4c2.4,0.3,4.7,1.2,7.2,1.3c1.4,0,3.1,0.1,3.8-1.3
			c0.1-0.8,0.3-1.6,0.4-2.4C6.8,118.9,7.6,117.7,7.5,116.3L7.5,116.3z M-19.8,127.9l-0.4-0.3c0.2-0.2,0.6-0.1,0.8-0.3
			c0.7-0.2,1.4-0.5,2.1-0.3C-17.9,127.6-18.9,127.7-19.8,127.9L-19.8,127.9z M-4,127.5c0.6,0.3,1.8,0.5,2.7,0.6
			c-0.1,0.3-0.7,0-0.6,0.5c-0.8-0.3-1.7-0.5-2.3-1.1C-4.2,127.5-4.1,127.5-4,127.5L-4,127.5z M-27.7,116.7c0.1-0.5,0.2-0.9,0.6-1.3
			c0.6-0.3,1.4-0.2,2,0.1c0.2,0.1,0.3,0.2,0.4,0.5c0.1,0.4-0.1,0.9-0.4,1.2h-0.2c0-0.4,0-0.8,0.2-1.2c0-0.3-0.3-0.3-0.5-0.5
			c-0.4-0.1-0.8,0.1-1.1,0.3c-0.2,0.3-0.5,0.7-0.3,1.1c0.2,0.3,0,0.7,0.1,1L-27,118C-27.4,117.6-27.8,117.3-27.7,116.7L-27.7,116.7z
			 M-26.5,117.4c0.4,0.3,0.9,0.2,1.4,0.2c0.1,0.3,0.1,0.6-0.1,0.9c-0.4-0.1-1-0.1-1.2-0.5C-26.5,117.9-26.6,117.6-26.5,117.4
			L-26.5,117.4z M-26.6,116.5c0.1-0.2,0-0.5,0.3-0.6c0.2-0.1,0.5-0.1,0.5,0.2s-0.1,0.6-0.1,0.9C-26.3,117.1-26.5,116.8-26.6,116.5
			L-26.6,116.5z M-14.8,124.7c-0.1-0.9,0.2-1.7,0.8-2.3c0.4-0.1,0.8-0.2,1.1,0.1c-0.7,0.2-1.5,0.3-1.6,1.2c0,0.3-0.1,0.5,0.1,0.8
			c0.3,0.5,0.9,0.3,1.3,0.7c0,0.1-0.1,0.3-0.2,0.3C-13.8,125.2-14.4,125-14.8,124.7L-14.8,124.7z M-15.7,126.5
			c0.6-0.3,1.2-0.8,1.9-0.6C-14.2,126.3-15,126.4-15.7,126.5L-15.7,126.5z M-13.3,126.7c-0.4,0.8-0.8,1.6-1.2,2.4
			c-0.1,0.1-0.3,0.2-0.4,0.2c0-0.4,0.4-0.6,0.5-0.9c0.5-0.7,0.7-1.4,1.3-2.1C-13,126.4-13.3,126.5-13.3,126.7L-13.3,126.7z
			 M-12.6,125.3L-12.6,125.3L-12.6,125.3L-12.6,125.3L-12.6,125.3L-12.6,125.3C-12.6,125.2-12.7,125.2-12.6,125.3L-12.6,125.3
			L-12.6,125.3z M-12.9,124.6c-0.4-0.1-0.8-0.2-1.2-0.3c-0.2-0.3,0-0.5,0-0.8c0.4-0.6,1.4-0.8,1.8-0.3
			C-12.3,123.7-12.5,124.2-12.9,124.6L-12.9,124.6z M-12.3,124.6c0.1-0.3,0.2-0.8,0.4-1.1C-11.9,123.8-12.1,124.3-12.3,124.6
			L-12.3,124.6z M-12,122.5c-0.3-0.1-0.5-0.5-0.9-0.5c0.3-0.1,0.6-0.1,1,0C-11.8,122.2-12,122.4-12,122.5L-12,122.5z M-11.7,123.3
			L-11.7,123.3V123l0,0V123.3L-11.7,123.3z M-11.7,124.4c0-0.1,0.1-0.2,0.1-0.4c0.1-0.1,0.2,0.1,0.3,0.2
			C-11.4,124.4-11.6,124.5-11.7,124.4L-11.7,124.4z M-11.3,122.9c0.1-0.4,0.1-0.7,0.4-0.9c0.2,0,0.5,0,0.7,0.1
			c0.1,0.5,0.7,1.2,0,1.6c-0.2,0.1-0.6,0.3-0.8,0.1C-11.4,123.5-11.5,123.2-11.3,122.9L-11.3,122.9z M-9.5,122.1
			c-0.1-0.2,0.2-0.1,0.3-0.2l0.8,0.1C-8.8,122-9.3,122.9-9.5,122.1L-9.5,122.1z M-8.2,122.5c-0.3,0.1-0.5,0.5-0.8,0.5
			C-8.9,122.7-8.5,122.5-8.2,122.5L-8.2,122.5z M-9.3,124.1L-9.3,124.1L-9.3,124.1L-9.3,124.1L-9.3,124.1L-9.3,124.1z M-9.2,125.6
			c0,0.1,0,0.1-0.1,0.2l-0.6-0.5C-9.6,125.3-9.4,125.4-9.2,125.6L-9.2,125.6z M-9.9,124.8c0.1-0.1,0.2-0.1,0.2,0H-9.9L-9.9,124.8z
			 M-10.3,124.4c0.1-0.2,0.2-0.4,0.4-0.4c0,0,0,0.1,0.1,0.1C-10,124.3-10.1,124.4-10.3,124.4L-10.3,124.4z M-10.9,124.4L-10.9,124.4
			l0.1-0.2C-10.7,124.3-10.8,124.3-10.9,124.4L-10.9,124.4z M-10.8,125.3c0.3-0.4,0.6,0.2,0.8,0.5c0.4,0.6,1.4,1.1,1,1.8
			c-0.5,0.4-1.2,0-1.8,0.4c-0.3,0-0.8,0.1-0.9-0.2C-11.4,127-11.2,126.1-10.8,125.3L-10.8,125.3z M-11.5,125.8l0.1-0.2
			c-0.2,0.6-0.5,1.2-0.8,1.8C-12.3,126.9-11.7,126.4-11.5,125.8L-11.5,125.8z M-10.4,128.9c-0.5,0-1.2,0.3-1.7-0.1
			c0-0.2-0.2-0.3-0.2-0.5c0.4-0.2,0.8,0.3,1.1,0c0.6,0,1.2-0.1,1.8,0.1c0.3,0.1,0.7-0.5,0.8,0.1C-8.8,129.2-9.8,128.6-10.4,128.9
			L-10.4,128.9z M-8.9,125.2L-8.9,125.2L-8.9,125.2L-8.9,125.2L-8.9,125.2L-8.9,125.2z M-8.8,126.8c0,0.3,0.3,0.4,0.1,0.6
			C-8.7,127.3-8.8,127.1-8.8,126.8L-8.8,126.8z M-8,128.3l-0.1,0.1c-0.1-0.1-0.1-0.4-0.1-0.5C-8.1,128-8,128.2-8,128.3L-8,128.3z
			 M-6.8,128.9c0,0.1-0.2,0.1-0.2,0c-0.8-1-1.1-2-1.6-3.1h0.1C-7.9,126.9-7.4,128-6.8,128.9L-6.8,128.9z M-5.8,126.6
			C-5.9,126.6-5.9,126.7-5.8,126.6c-0.8,0.1-1.3-0.3-1.9-0.7v-0.1C-7,125.8-6.5,126.3-5.8,126.6L-5.8,126.6z M-6.5,123.2
			c0.3,0.1,0.3,0.4,0.4,0.7c0,0.6-0.3,1-0.9,1.2c-0.3,0.2-0.7,0.2-1,0.1c0.6,0,1.3-0.2,1.5-0.9V123.2L-6.5,123.2z M-7.1,123.1
			c0.1,0.4,0.4,0.7,0.2,1.1c-0.2,0.5-0.8,0.5-1.2,0.6c-0.2,0-0.4-0.1-0.6-0.2c0-0.1,0-0.2-0.1-0.2c0.1-0.3-0.6-0.7-0.1-0.9
			C-8.4,123.1-7.5,122.2-7.1,123.1L-7.1,123.1z M5.8,121.3c-0.2,0.2,0,0.7-0.3,0.9c0,0.5-0.4,0.7-0.7,0.9c-3,0.7-6-0.4-8.9-0.9
			c-4.1-0.9-8.8-1.1-13-0.2c-1.9,0.4-3.8,0.8-5.7,1.3c-1.2,0.2-2.4,0.3-3.5,0c-0.9-0.4-0.5-1.6-0.8-2.4c0.1-0.6-0.2-1.1-0.2-1.8
			c-0.1-0.2-0.1-0.5-0.1-0.7c0.4,0.1,0.8,0.3,1.2,0.4c2.1,0.4,4-0.3,6-0.6c1.9-0.4,3.8-0.7,5.8-0.9c2.3,0,4.6-0.2,6.8,0.2
			c0.7,0,1.3,0.2,2,0.2c1.4,0.2,2.7,0.6,4.2,0.7c0.2,0.1,0.5,0.1,0.8,0.1c2.3,0.4,4.8,1,7,0C6.3,119.5,5.9,120.4,5.8,121.3
			L5.8,121.3z M5.1,118.2c0,0.4-0.4,0.3-0.6,0.5H3.9c-0.1-0.2-0.1-0.5-0.1-0.7C4.2,118,4.7,118,5.1,118.2L5.1,118.2z M4.8,117.5
			c0.3-0.3-0.1-1.9,0.7-0.8c0,0.2,0,0.5-0.2,0.7C5.2,117.4,5,117.6,4.8,117.5L4.8,117.5z M6.8,117.3c-0.2,0.5-0.6,0.8-1.1,0.9
			c0-0.6,0.6-1,0.4-1.7c-0.3-0.5-1-0.6-1.6-0.5c-0.2,0.2-0.1,0.4-0.2,0.6l-0.1,0.8c-0.5,0-0.5-0.5-0.7-0.8c0-0.5,0.3-1.1,0.8-1.3
			c0.4-0.2,1.1-0.2,1.5,0.1c0.3,0.1,0.7,0.2,0.8,0.5C7,116.2,6.9,116.8,6.8,117.3L6.8,117.3z"/>
	</g>
	<g class="st1">
		<path d="M45.6,96.5h-3.7l-0.4,1c-0.1,0.3-0.2,0.6-0.2,0.9c0,0.3,0.1,0.5,0.4,0.7c0.1,0.1,0.5,0.1,1,0.2v0.3H39v-0.3
			c0.4-0.1,0.7-0.2,0.9-0.5c0.2-0.3,0.5-0.8,0.9-1.6l3.8-8.5h0.1l3.8,8.7c0.4,0.8,0.7,1.3,0.9,1.6c0.2,0.2,0.4,0.3,0.8,0.3v0.3h-5.1
			v-0.3h0.2c0.4,0,0.7-0.1,0.9-0.2c0.1-0.1,0.2-0.2,0.2-0.4c0-0.1,0-0.2,0-0.3c0,0-0.1-0.2-0.2-0.6L45.6,96.5z M45.3,96l-1.6-3.6
			L42.1,96H45.3z"/>
		<path d="M58.1,92.2V98c0,0.6,0.1,0.9,0.2,1c0.1,0.1,0.3,0.2,0.6,0.3v0.3h-3v-1c-0.3,0.4-0.7,0.7-1,0.9c-0.3,0.2-0.7,0.3-1.2,0.3
			c-0.4,0-0.8-0.1-1.1-0.4s-0.5-0.5-0.6-0.9s-0.2-0.9-0.2-1.8v-2.9c0-0.6-0.1-0.9-0.2-1s-0.3-0.2-0.6-0.3v-0.3h3v5
			c0,0.5,0,0.9,0.1,1c0,0.2,0.1,0.3,0.2,0.3c0.1,0.1,0.2,0.1,0.4,0.1c0.2,0,0.4,0,0.5-0.1c0.2-0.1,0.5-0.4,0.8-0.8v-3.9
			c0-0.6-0.1-0.9-0.2-1s-0.3-0.2-0.6-0.3v-0.3H58.1z"/>
		<path d="M64.5,92l0.1,2.5h-0.3c-0.3-0.7-0.6-1.2-1-1.5c-0.3-0.3-0.7-0.4-1-0.4c-0.2,0-0.4,0.1-0.5,0.2c-0.2,0.1-0.2,0.3-0.2,0.5
			c0,0.1,0.1,0.3,0.2,0.4c0.2,0.2,0.6,0.6,1.4,1.1s1.3,1,1.5,1.3s0.4,0.8,0.4,1.2c0,0.4-0.1,0.8-0.3,1.2s-0.5,0.7-0.9,0.9
			c-0.4,0.2-0.8,0.3-1.2,0.3c-0.3,0-0.8-0.1-1.4-0.3c-0.2-0.1-0.3-0.1-0.3-0.1c-0.2,0-0.3,0.1-0.4,0.4h-0.3l-0.1-2.6h0.3
			c0.2,0.7,0.6,1.2,1,1.5c0.4,0.3,0.8,0.5,1.2,0.5c0.2,0,0.5-0.1,0.6-0.2c0.2-0.2,0.2-0.3,0.2-0.6c0-0.2-0.1-0.5-0.2-0.6
			s-0.5-0.5-1-0.8c-0.8-0.6-1.3-1-1.5-1.3c-0.3-0.4-0.5-0.9-0.5-1.4c0-0.6,0.2-1.1,0.6-1.5c0.4-0.5,0.9-0.7,1.7-0.7
			c0.4,0,0.8,0.1,1.1,0.3c0.1,0.1,0.3,0.1,0.3,0.1c0.1,0,0.2,0,0.2-0.1c0.1,0,0.1-0.1,0.3-0.3H64.5z"/>
		<path d="M69,89.6v2.7h1.7V93H69v4.5c0,0.4,0,0.7,0.1,0.8s0.1,0.2,0.2,0.3c0.1,0.1,0.2,0.1,0.3,0.1c0.3,0,0.7-0.3,1-0.8l0.2,0.2
			c-0.4,1-1.1,1.5-2.1,1.5c-0.5,0-0.9-0.1-1.2-0.4s-0.5-0.5-0.6-0.9c-0.1-0.2-0.1-0.7-0.1-1.4V93h-1v-0.3c0.7-0.5,1.2-1,1.7-1.5
			s0.9-1.1,1.2-1.7H69z"/>
		<path d="M74.5,92.2v1.7c0.5-0.8,0.9-1.3,1.3-1.5c0.4-0.2,0.7-0.4,1.1-0.4c0.3,0,0.5,0.1,0.7,0.3c0.2,0.2,0.3,0.4,0.3,0.8
			c0,0.3-0.1,0.6-0.3,0.8c-0.2,0.2-0.4,0.3-0.6,0.3c-0.3,0-0.5-0.1-0.7-0.3s-0.3-0.3-0.4-0.3c-0.1,0-0.1,0-0.2,0
			c-0.2,0-0.3,0.1-0.4,0.2c-0.2,0.2-0.4,0.4-0.5,0.8c-0.2,0.5-0.2,1.1-0.2,1.7v1.7l0,0.4c0,0.3,0,0.5,0.1,0.6
			c0.1,0.1,0.2,0.2,0.3,0.3c0.1,0.1,0.3,0.1,0.6,0.1v0.3h-3.9v-0.3c0.3,0,0.5-0.1,0.6-0.3c0.1-0.1,0.2-0.5,0.2-1.2v-4
			c0-0.4,0-0.7-0.1-0.8c-0.1-0.1-0.1-0.3-0.2-0.3c-0.1-0.1-0.3-0.1-0.5-0.1v-0.3H74.5z"/>
		<path d="M82.6,98.5c-0.9,0.8-1.7,1.2-2.4,1.2c-0.4,0-0.8-0.1-1-0.4c-0.3-0.3-0.4-0.6-0.4-1c0-0.6,0.2-1.1,0.7-1.5
			c0.5-0.4,1.5-1,3.1-1.8v-0.7c0-0.6,0-0.9-0.1-1c-0.1-0.1-0.2-0.3-0.3-0.4c-0.2-0.1-0.4-0.2-0.6-0.2c-0.3,0-0.6,0.1-0.8,0.2
			c-0.1,0.1-0.2,0.2-0.2,0.3c0,0.1,0.1,0.2,0.2,0.4c0.2,0.2,0.3,0.4,0.3,0.6c0,0.3-0.1,0.5-0.3,0.7c-0.2,0.2-0.4,0.3-0.7,0.3
			c-0.3,0-0.6-0.1-0.8-0.3c-0.2-0.2-0.3-0.4-0.3-0.7c0-0.4,0.1-0.7,0.4-1.1s0.7-0.6,1.2-0.8s1.1-0.3,1.7-0.3c0.7,0,1.2,0.1,1.6,0.4
			c0.4,0.3,0.7,0.6,0.8,1c0.1,0.2,0.1,0.7,0.1,1.5v2.8c0,0.3,0,0.5,0,0.6c0,0.1,0.1,0.1,0.1,0.2c0.1,0,0.1,0.1,0.2,0.1
			c0.1,0,0.3-0.1,0.4-0.3l0.2,0.2c-0.3,0.4-0.5,0.7-0.8,0.8c-0.3,0.2-0.6,0.3-0.9,0.3c-0.4,0-0.7-0.1-1-0.3S82.7,98.9,82.6,98.5z
			 M82.6,97.9v-2.4c-0.6,0.4-1.1,0.8-1.4,1.2c-0.2,0.3-0.3,0.6-0.3,0.9c0,0.2,0.1,0.5,0.3,0.6c0.1,0.1,0.3,0.2,0.5,0.2
			C82,98.3,82.3,98.2,82.6,97.9z"/>
		<path d="M89.4,89V98c0,0.5,0.1,0.8,0.2,1c0.1,0.1,0.4,0.2,0.7,0.2v0.3h-3.9v-0.3c0.3,0,0.6-0.1,0.7-0.3c0.1-0.1,0.2-0.4,0.2-1
			v-7.6c0-0.5-0.1-0.8-0.2-1c-0.1-0.1-0.4-0.2-0.7-0.2V89H89.4z"/>
		<path d="M93.9,92.2V98c0,0.5,0.1,0.8,0.2,1c0.1,0.1,0.4,0.2,0.7,0.2v0.3h-3.9v-0.3c0.3,0,0.6-0.1,0.7-0.3c0.1-0.1,0.2-0.4,0.2-1
			v-4.3c0-0.5-0.1-0.8-0.2-1c-0.1-0.1-0.4-0.2-0.7-0.2v-0.3H93.9z M92.8,88.7c0.3,0,0.6,0.1,0.9,0.4s0.4,0.5,0.4,0.9
			s-0.1,0.6-0.4,0.9c-0.2,0.2-0.5,0.4-0.9,0.4c-0.3,0-0.6-0.1-0.9-0.4s-0.4-0.5-0.4-0.9s0.1-0.6,0.4-0.9S92.4,88.7,92.8,88.7z"/>
		<path d="M99.5,98.5c-0.9,0.8-1.7,1.2-2.4,1.2c-0.4,0-0.8-0.1-1-0.4c-0.3-0.3-0.4-0.6-0.4-1c0-0.6,0.2-1.1,0.7-1.5
			c0.5-0.4,1.5-1,3.1-1.8v-0.7c0-0.6,0-0.9-0.1-1c-0.1-0.1-0.2-0.3-0.3-0.4c-0.2-0.1-0.4-0.2-0.6-0.2c-0.3,0-0.6,0.1-0.8,0.2
			c-0.1,0.1-0.2,0.2-0.2,0.3c0,0.1,0.1,0.2,0.2,0.4c0.2,0.2,0.3,0.4,0.3,0.6c0,0.3-0.1,0.5-0.3,0.7c-0.2,0.2-0.4,0.3-0.7,0.3
			c-0.3,0-0.6-0.1-0.8-0.3c-0.2-0.2-0.3-0.4-0.3-0.7c0-0.4,0.1-0.7,0.4-1.1s0.7-0.6,1.2-0.8s1.1-0.3,1.7-0.3c0.7,0,1.2,0.1,1.6,0.4
			c0.4,0.3,0.7,0.6,0.8,1c0.1,0.2,0.1,0.7,0.1,1.5v2.8c0,0.3,0,0.5,0,0.6c0,0.1,0.1,0.1,0.1,0.2c0.1,0,0.1,0.1,0.2,0.1
			c0.1,0,0.3-0.1,0.4-0.3l0.2,0.2c-0.3,0.4-0.5,0.7-0.8,0.8c-0.3,0.2-0.6,0.3-0.9,0.3c-0.4,0-0.7-0.1-1-0.3S99.5,98.9,99.5,98.5z
			 M99.5,97.9v-2.4c-0.6,0.4-1.1,0.8-1.4,1.2c-0.2,0.3-0.3,0.6-0.3,0.9c0,0.2,0.1,0.5,0.3,0.6c0.1,0.1,0.3,0.2,0.5,0.2
			C98.8,98.3,99.1,98.2,99.5,97.9z"/>
		<path d="M106.4,92.2v0.9c0.4-0.4,0.7-0.7,1.1-0.9s0.7-0.3,1.1-0.3c0.5,0,0.9,0.1,1.2,0.4s0.5,0.6,0.6,1c0.1,0.3,0.1,0.9,0.1,1.7
			V98c0,0.6,0.1,0.9,0.2,1.1s0.3,0.2,0.6,0.3v0.3h-3.7v-0.3c0.3,0,0.5-0.2,0.6-0.3c0.1-0.1,0.1-0.5,0.1-1v-3.2c0-0.6,0-1-0.1-1.1
			s-0.1-0.3-0.2-0.4c-0.1-0.1-0.2-0.1-0.4-0.1c-0.4,0-0.9,0.3-1.2,1V98c0,0.5,0.1,0.9,0.2,1s0.3,0.2,0.6,0.3v0.3h-3.7v-0.3
			c0.3,0,0.5-0.1,0.7-0.3c0.1-0.1,0.1-0.5,0.1-1v-4.1c0-0.6-0.1-0.9-0.2-1s-0.3-0.2-0.6-0.3v-0.3H106.4z"/>
		<path d="M126.9,88.7v3.7h-0.3c-0.3-1-0.9-1.8-1.6-2.3c-0.7-0.5-1.5-0.8-2.3-0.8c-0.8,0-1.5,0.2-2,0.7c-0.5,0.4-0.9,1.1-1.1,1.9
			s-0.3,1.6-0.3,2.5c0,1,0.1,1.9,0.4,2.7c0.2,0.8,0.6,1.3,1.2,1.7c0.5,0.4,1.2,0.5,1.9,0.5c0.3,0,0.5,0,0.8-0.1
			c0.3-0.1,0.5-0.1,0.8-0.2v-2.2c0-0.4,0-0.7-0.1-0.8c-0.1-0.1-0.2-0.2-0.4-0.3s-0.4-0.1-0.7-0.1H123v-0.3h5.1v0.3
			c-0.4,0-0.7,0.1-0.8,0.2c-0.2,0.1-0.3,0.2-0.4,0.4c0,0.1-0.1,0.3-0.1,0.7v2.2c-0.7,0.3-1.4,0.5-2.1,0.7c-0.7,0.2-1.5,0.2-2.3,0.2
			c-1,0-1.8-0.1-2.5-0.4s-1.2-0.6-1.8-1.1s-0.9-0.9-1.2-1.5c-0.4-0.7-0.5-1.5-0.5-2.4c0-1.6,0.6-2.9,1.7-4c1.1-1.1,2.5-1.6,4.2-1.6
			c0.5,0,1,0,1.4,0.1c0.2,0,0.6,0.2,1.1,0.4c0.5,0.2,0.8,0.3,0.9,0.3c0.1,0,0.3-0.1,0.4-0.2s0.2-0.3,0.3-0.6H126.9z"/>
		<path d="M132.3,92c0.6,0,1.2,0.2,1.8,0.5s1,0.8,1.2,1.4c0.3,0.6,0.4,1.3,0.4,2c0,1-0.3,1.9-0.8,2.6c-0.6,0.8-1.5,1.3-2.6,1.3
			c-1.1,0-1.9-0.4-2.5-1.2s-0.9-1.7-0.9-2.7c0-1,0.3-2,0.9-2.7C130.4,92.4,131.2,92,132.3,92z M132.3,92.6c-0.3,0-0.5,0.1-0.7,0.3
			c-0.2,0.2-0.3,0.6-0.4,1.2c-0.1,0.6-0.1,1.4-0.1,2.5c0,0.6,0,1.1,0.1,1.6c0.1,0.4,0.2,0.7,0.4,0.8s0.4,0.3,0.6,0.3
			c0.2,0,0.4-0.1,0.6-0.2c0.2-0.2,0.3-0.4,0.4-0.7c0.1-0.5,0.2-1.5,0.2-3c0-0.9,0-1.5-0.1-1.8c-0.1-0.3-0.2-0.6-0.4-0.7
			C132.7,92.6,132.5,92.6,132.3,92.6z"/>
		<path d="M140.1,99.8l-2.5-5.7c-0.3-0.7-0.5-1.1-0.7-1.3c-0.1-0.1-0.3-0.2-0.5-0.3v-0.3h3.9v0.3c-0.2,0-0.4,0-0.5,0.1
			c-0.1,0.1-0.2,0.2-0.2,0.4c0,0.2,0.1,0.6,0.3,1.1l1.2,2.7l1-2.4c0.3-0.7,0.4-1.2,0.4-1.4c0-0.2-0.1-0.3-0.2-0.4s-0.3-0.2-0.6-0.2
			v-0.3h2.4v0.3c-0.2,0-0.4,0.1-0.6,0.3c-0.1,0.1-0.4,0.6-0.7,1.2l-2.4,5.7H140.1z"/>
		<path d="M151,95.6h-4c0,1,0.3,1.7,0.8,2.3c0.4,0.4,0.8,0.6,1.3,0.6c0.3,0,0.6-0.1,0.9-0.3c0.3-0.2,0.5-0.5,0.8-0.9l0.3,0.2
			c-0.4,0.8-0.8,1.4-1.3,1.7c-0.5,0.3-1,0.5-1.7,0.5c-1.1,0-1.9-0.4-2.5-1.2c-0.4-0.7-0.7-1.5-0.7-2.5c0-1.2,0.3-2.2,1-2.9
			c0.7-0.7,1.4-1.1,2.3-1.1c0.7,0,1.4,0.3,1.9,0.9C150.7,93.5,151,94.4,151,95.6z M149.1,95.1c0-0.8,0-1.4-0.1-1.7
			c-0.1-0.3-0.2-0.5-0.4-0.7c-0.1-0.1-0.3-0.1-0.4-0.1c-0.3,0-0.5,0.1-0.7,0.4c-0.3,0.5-0.5,1.1-0.5,1.9v0.3H149.1z"/>
		<path d="M154.9,92.2v1.7c0.5-0.8,0.9-1.3,1.3-1.5s0.7-0.4,1.1-0.4c0.3,0,0.5,0.1,0.7,0.3s0.3,0.4,0.3,0.8c0,0.3-0.1,0.6-0.3,0.8
			s-0.4,0.3-0.6,0.3c-0.3,0-0.5-0.1-0.7-0.3s-0.3-0.3-0.4-0.3c-0.1,0-0.1,0-0.2,0c-0.2,0-0.3,0.1-0.4,0.2c-0.2,0.2-0.4,0.4-0.5,0.8
			c-0.2,0.5-0.2,1.1-0.2,1.7v1.7l0,0.4c0,0.3,0,0.5,0.1,0.6c0.1,0.1,0.2,0.2,0.3,0.3s0.3,0.1,0.6,0.1v0.3H152v-0.3
			c0.3,0,0.5-0.1,0.6-0.3s0.2-0.5,0.2-1.2v-4c0-0.4,0-0.7-0.1-0.8c-0.1-0.1-0.1-0.3-0.2-0.3s-0.3-0.1-0.5-0.1v-0.3H154.9z"/>
		<path d="M162,92.2v0.9c0.4-0.4,0.7-0.7,1.1-0.9s0.7-0.3,1.1-0.3c0.5,0,0.9,0.1,1.2,0.4s0.5,0.6,0.6,1c0.1,0.3,0.1,0.9,0.1,1.7V98
			c0,0.6,0.1,0.9,0.2,1.1s0.3,0.2,0.6,0.3v0.3h-3.7v-0.3c0.3,0,0.5-0.2,0.6-0.3c0.1-0.1,0.1-0.5,0.1-1v-3.2c0-0.6,0-1-0.1-1.1
			s-0.1-0.3-0.2-0.4s-0.2-0.1-0.4-0.1c-0.4,0-0.9,0.3-1.2,1V98c0,0.5,0.1,0.9,0.2,1s0.3,0.2,0.6,0.3v0.3H159v-0.3
			c0.3,0,0.5-0.1,0.7-0.3c0.1-0.1,0.1-0.5,0.1-1v-4.1c0-0.6-0.1-0.9-0.2-1s-0.3-0.2-0.6-0.3v-0.3H162z"/>
		<path d="M170.9,92.2v1c0.4-0.4,0.8-0.7,1.1-0.9s0.7-0.3,1.1-0.3c0.5,0,0.9,0.1,1.2,0.3s0.6,0.6,0.7,1c0.4-0.5,0.8-0.8,1.2-1
			s0.8-0.3,1.2-0.3c0.5,0,0.9,0.1,1.2,0.3s0.5,0.5,0.6,0.9s0.2,0.9,0.2,1.7v3c0,0.6,0.1,0.9,0.2,1s0.3,0.2,0.6,0.3v0.3h-3.8v-0.3
			c0.3,0,0.5-0.1,0.7-0.3c0.1-0.1,0.1-0.5,0.1-1v-3.1c0-0.7,0-1.1-0.1-1.2s-0.1-0.3-0.2-0.4s-0.2-0.1-0.4-0.1
			c-0.2,0-0.5,0.1-0.7,0.2s-0.5,0.4-0.7,0.7V98c0,0.5,0,0.9,0.1,1c0.1,0.2,0.3,0.3,0.7,0.3v0.3h-3.8v-0.3c0.2,0,0.4-0.1,0.5-0.2
			s0.2-0.2,0.2-0.3s0.1-0.4,0.1-0.8v-3.1c0-0.7,0-1.1-0.1-1.2s-0.1-0.3-0.3-0.4s-0.3-0.1-0.4-0.1c-0.2,0-0.4,0.1-0.6,0.2
			c-0.2,0.2-0.5,0.4-0.8,0.8V98c0,0.5,0.1,0.9,0.2,1s0.3,0.3,0.6,0.3v0.3H168v-0.3c0.3,0,0.5-0.1,0.7-0.3c0.1-0.1,0.1-0.5,0.1-1
			v-4.1c0-0.6-0.1-0.9-0.2-1s-0.3-0.2-0.6-0.3v-0.3H170.9z"/>
		<path d="M187.4,95.6h-4c0,1,0.3,1.7,0.8,2.3c0.4,0.4,0.8,0.6,1.3,0.6c0.3,0,0.6-0.1,0.9-0.3s0.5-0.5,0.8-0.9l0.3,0.2
			c-0.4,0.8-0.8,1.4-1.3,1.7s-1,0.5-1.7,0.5c-1.1,0-1.9-0.4-2.5-1.2c-0.4-0.7-0.7-1.5-0.7-2.5c0-1.2,0.3-2.2,1-2.9s1.4-1.1,2.3-1.1
			c0.7,0,1.4,0.3,1.9,0.9S187.4,94.4,187.4,95.6z M185.5,95.1c0-0.8,0-1.4-0.1-1.7s-0.2-0.5-0.4-0.7c-0.1-0.1-0.3-0.1-0.4-0.1
			c-0.3,0-0.5,0.1-0.7,0.4c-0.3,0.5-0.5,1.1-0.5,1.9v0.3H185.5z"/>
		<path d="M191.3,92.2v0.9c0.4-0.4,0.7-0.7,1.1-0.9s0.7-0.3,1.1-0.3c0.5,0,0.9,0.1,1.2,0.4s0.5,0.6,0.6,1c0.1,0.3,0.1,0.9,0.1,1.7
			V98c0,0.6,0.1,0.9,0.2,1.1s0.3,0.2,0.6,0.3v0.3h-3.7v-0.3c0.3,0,0.5-0.2,0.6-0.3c0.1-0.1,0.1-0.5,0.1-1v-3.2c0-0.6,0-1-0.1-1.1
			s-0.1-0.3-0.2-0.4s-0.2-0.1-0.4-0.1c-0.4,0-0.9,0.3-1.2,1V98c0,0.5,0.1,0.9,0.2,1s0.3,0.2,0.6,0.3v0.3h-3.7v-0.3
			c0.3,0,0.5-0.1,0.7-0.3c0.1-0.1,0.1-0.5,0.1-1v-4.1c0-0.6-0.1-0.9-0.2-1s-0.3-0.2-0.6-0.3v-0.3H191.3z"/>
		<path d="M200.1,89.6v2.7h1.7V93h-1.7v4.5c0,0.4,0,0.7,0.1,0.8s0.1,0.2,0.2,0.3s0.2,0.1,0.3,0.1c0.3,0,0.7-0.3,1-0.8l0.2,0.2
			c-0.4,1-1.1,1.5-2.1,1.5c-0.5,0-0.9-0.1-1.2-0.4s-0.5-0.5-0.6-0.9c-0.1-0.2-0.1-0.7-0.1-1.4V93h-1v-0.3c0.7-0.5,1.2-1,1.7-1.5
			s0.9-1.1,1.2-1.7H200.1z"/>
	</g>
	<g class="st1">
		<path d="M39,126.8v-0.3h0.4c0.3,0,0.5,0,0.7-0.1s0.3-0.2,0.4-0.4c0-0.1,0.1-0.4,0.1-1v-7c0-0.5,0-0.9-0.1-1
			c-0.1-0.1-0.2-0.3-0.3-0.4c-0.2-0.1-0.4-0.2-0.7-0.2H39v-0.3h4.7c1.3,0,2.3,0.2,3.1,0.5c0.9,0.4,1.7,1.1,2.1,1.9
			c0.5,0.9,0.7,1.8,0.7,2.9c0,0.7-0.1,1.4-0.4,2.1c-0.2,0.6-0.5,1.1-0.9,1.6c-0.4,0.4-0.8,0.7-1.3,1c-0.5,0.2-1.1,0.4-1.8,0.6
			c-0.3,0.1-0.8,0.1-1.5,0.1H39z M43.1,116.8v8.3c0,0.4,0,0.7,0.1,0.8c0,0.1,0.1,0.2,0.2,0.2c0.1,0.1,0.3,0.1,0.6,0.1
			c0.9,0,1.5-0.3,2-0.9c0.6-0.8,0.9-2,0.9-3.7c0-1.4-0.2-2.4-0.6-3.3c-0.3-0.6-0.8-1.1-1.3-1.3C44.6,116.9,43.9,116.8,43.1,116.8z"
			/>
		<path d="M57.1,122.9h-4c0,1,0.3,1.7,0.8,2.3c0.4,0.4,0.8,0.6,1.3,0.6c0.3,0,0.6-0.1,0.9-0.3c0.3-0.2,0.5-0.5,0.8-0.9l0.3,0.2
			c-0.4,0.8-0.8,1.4-1.3,1.7c-0.5,0.3-1,0.5-1.7,0.5c-1.1,0-1.9-0.4-2.5-1.2c-0.4-0.7-0.7-1.5-0.7-2.5c0-1.2,0.3-2.2,1-2.9
			c0.7-0.7,1.4-1.1,2.3-1.1c0.7,0,1.4,0.3,1.9,0.9C56.8,120.8,57.1,121.7,57.1,122.9z M55.2,122.4c0-0.8,0-1.4-0.1-1.7
			c-0.1-0.3-0.2-0.5-0.4-0.7c-0.1-0.1-0.3-0.1-0.4-0.1c-0.3,0-0.5,0.1-0.7,0.4c-0.3,0.5-0.5,1.1-0.5,1.9v0.3H55.2z"/>
		<path d="M60.8,126.1v2.7c0,0.4,0,0.6,0.1,0.8c0.1,0.1,0.2,0.2,0.3,0.3s0.4,0.1,0.7,0.1v0.3h-4.2V130c0.3,0,0.6-0.1,0.7-0.3
			c0.1-0.1,0.2-0.4,0.2-0.9V121c0-0.5-0.1-0.8-0.2-1c-0.1-0.1-0.4-0.2-0.7-0.2v-0.3h3.1v1c0.3-0.4,0.5-0.6,0.8-0.8
			c0.4-0.2,0.8-0.4,1.2-0.4c0.5,0,1,0.2,1.5,0.5c0.4,0.3,0.8,0.8,1,1.4c0.2,0.6,0.3,1.2,0.3,1.9c0,0.7-0.1,1.4-0.4,2
			c-0.2,0.6-0.6,1.1-1,1.4c-0.5,0.3-1,0.5-1.5,0.5c-0.4,0-0.8-0.1-1.1-0.3C61.4,126.6,61.1,126.4,60.8,126.1z M60.8,125.3
			c0.4,0.6,0.9,1,1.4,1c0.3,0,0.5-0.1,0.7-0.4c0.3-0.4,0.4-1.3,0.4-2.5c0-1.3-0.1-2.1-0.4-2.6c-0.2-0.3-0.5-0.5-0.8-0.5
			c-0.5,0-1,0.4-1.3,1.1V125.3z"/>
		<path d="M70.9,125.7c-0.9,0.8-1.7,1.2-2.4,1.2c-0.4,0-0.8-0.1-1-0.4c-0.3-0.3-0.4-0.6-0.4-1c0-0.6,0.2-1.1,0.7-1.5
			c0.5-0.4,1.5-1,3.1-1.8v-0.7c0-0.6,0-0.9-0.1-1c-0.1-0.1-0.2-0.3-0.3-0.4c-0.2-0.1-0.4-0.2-0.6-0.2c-0.3,0-0.6,0.1-0.8,0.2
			c-0.1,0.1-0.2,0.2-0.2,0.3c0,0.1,0.1,0.2,0.2,0.4c0.2,0.2,0.3,0.4,0.3,0.6c0,0.3-0.1,0.5-0.3,0.7c-0.2,0.2-0.4,0.3-0.7,0.3
			c-0.3,0-0.6-0.1-0.8-0.3c-0.2-0.2-0.3-0.4-0.3-0.7c0-0.4,0.1-0.7,0.4-1.1s0.7-0.6,1.2-0.8s1.1-0.3,1.7-0.3c0.7,0,1.2,0.1,1.6,0.4
			c0.4,0.3,0.7,0.6,0.8,1c0.1,0.2,0.1,0.7,0.1,1.5v2.8c0,0.3,0,0.5,0,0.6c0,0.1,0.1,0.1,0.1,0.2c0.1,0,0.1,0.1,0.2,0.1
			c0.1,0,0.3-0.1,0.4-0.3l0.2,0.2c-0.3,0.4-0.5,0.7-0.8,0.8c-0.3,0.2-0.6,0.3-0.9,0.3c-0.4,0-0.7-0.1-1-0.3S71,126.1,70.9,125.7z
			 M70.9,125.2v-2.4c-0.6,0.4-1.1,0.8-1.4,1.2c-0.2,0.3-0.3,0.6-0.3,0.9c0,0.2,0.1,0.5,0.3,0.6c0.1,0.1,0.3,0.2,0.5,0.2
			C70.3,125.6,70.6,125.5,70.9,125.2z"/>
		<path d="M77.9,119.5v1.7c0.5-0.8,0.9-1.3,1.3-1.5c0.4-0.2,0.7-0.4,1.1-0.4c0.3,0,0.5,0.1,0.7,0.3c0.2,0.2,0.3,0.4,0.3,0.8
			c0,0.3-0.1,0.6-0.3,0.8c-0.2,0.2-0.4,0.3-0.6,0.3c-0.3,0-0.5-0.1-0.7-0.3s-0.3-0.3-0.4-0.3c-0.1,0-0.1,0-0.2,0
			c-0.2,0-0.3,0.1-0.4,0.2c-0.2,0.2-0.4,0.4-0.5,0.8c-0.2,0.5-0.2,1.1-0.2,1.7v1.7l0,0.4c0,0.3,0,0.5,0.1,0.6
			c0.1,0.1,0.2,0.2,0.3,0.3c0.1,0.1,0.3,0.1,0.6,0.1v0.3H75v-0.3c0.3,0,0.5-0.1,0.6-0.3c0.1-0.1,0.2-0.5,0.2-1.2v-4
			c0-0.4,0-0.7-0.1-0.8c-0.1-0.1-0.1-0.3-0.2-0.3c-0.1-0.1-0.3-0.1-0.5-0.1v-0.3H77.9z"/>
		<path d="M84.9,116.8v2.7h1.7v0.8h-1.7v4.5c0,0.4,0,0.7,0.1,0.8s0.1,0.2,0.2,0.3c0.1,0.1,0.2,0.1,0.3,0.1c0.3,0,0.7-0.3,1-0.8
			l0.2,0.2c-0.4,1-1.1,1.5-2.1,1.5c-0.5,0-0.9-0.1-1.2-0.4s-0.5-0.5-0.6-0.9c-0.1-0.2-0.1-0.7-0.1-1.4v-3.9h-1V120
			c0.7-0.5,1.2-1,1.7-1.5s0.9-1.1,1.2-1.7H84.9z"/>
		<path d="M90.4,119.5v1c0.4-0.4,0.8-0.7,1.1-0.9c0.3-0.2,0.7-0.3,1.1-0.3c0.5,0,0.9,0.1,1.2,0.3c0.3,0.2,0.6,0.6,0.7,1
			c0.4-0.5,0.8-0.8,1.2-1s0.8-0.3,1.2-0.3c0.5,0,0.9,0.1,1.2,0.3c0.3,0.2,0.5,0.5,0.6,0.9s0.2,0.9,0.2,1.7v3c0,0.6,0.1,0.9,0.2,1
			s0.3,0.2,0.6,0.3v0.3h-3.8v-0.3c0.3,0,0.5-0.1,0.7-0.3c0.1-0.1,0.1-0.5,0.1-1v-3.1c0-0.7,0-1.1-0.1-1.2c-0.1-0.2-0.1-0.3-0.2-0.4
			c-0.1-0.1-0.2-0.1-0.4-0.1c-0.2,0-0.5,0.1-0.7,0.2c-0.2,0.2-0.5,0.4-0.7,0.7v3.9c0,0.5,0,0.9,0.1,1c0.1,0.2,0.3,0.3,0.7,0.3v0.3
			h-3.8v-0.3c0.2,0,0.4-0.1,0.5-0.2s0.2-0.2,0.2-0.3s0.1-0.4,0.1-0.8v-3.1c0-0.7,0-1.1-0.1-1.2c-0.1-0.2-0.1-0.3-0.3-0.4
			c-0.1-0.1-0.3-0.1-0.4-0.1c-0.2,0-0.4,0.1-0.6,0.2c-0.2,0.2-0.5,0.4-0.8,0.8v3.9c0,0.5,0.1,0.9,0.2,1s0.3,0.3,0.6,0.3v0.3h-3.8
			v-0.3c0.3,0,0.5-0.1,0.7-0.3c0.1-0.1,0.1-0.5,0.1-1v-4.1c0-0.6-0.1-0.9-0.2-1s-0.3-0.2-0.6-0.3v-0.3H90.4z"/>
		<path d="M106.9,122.9h-4c0,1,0.3,1.7,0.8,2.3c0.4,0.4,0.8,0.6,1.3,0.6c0.3,0,0.6-0.1,0.9-0.3c0.3-0.2,0.5-0.5,0.8-0.9l0.3,0.2
			c-0.4,0.8-0.8,1.4-1.3,1.7c-0.5,0.3-1,0.5-1.7,0.5c-1.1,0-1.9-0.4-2.5-1.2c-0.4-0.7-0.7-1.5-0.7-2.5c0-1.2,0.3-2.2,1-2.9
			c0.7-0.7,1.4-1.1,2.3-1.1c0.7,0,1.4,0.3,1.9,0.9C106.5,120.8,106.8,121.7,106.9,122.9z M104.9,122.4c0-0.8,0-1.4-0.1-1.7
			c-0.1-0.3-0.2-0.5-0.4-0.7c-0.1-0.1-0.3-0.1-0.4-0.1c-0.3,0-0.5,0.1-0.7,0.4c-0.3,0.5-0.5,1.1-0.5,1.9v0.3H104.9z"/>
		<path d="M110.7,119.5v0.9c0.4-0.4,0.7-0.7,1.1-0.9s0.7-0.3,1.1-0.3c0.5,0,0.9,0.1,1.2,0.4s0.5,0.6,0.6,1c0.1,0.3,0.1,0.9,0.1,1.7
			v2.8c0,0.6,0.1,0.9,0.2,1.1s0.3,0.2,0.6,0.3v0.3H112v-0.3c0.3,0,0.5-0.2,0.6-0.3c0.1-0.1,0.1-0.5,0.1-1V122c0-0.6,0-1-0.1-1.1
			s-0.1-0.3-0.2-0.4c-0.1-0.1-0.2-0.1-0.4-0.1c-0.4,0-0.9,0.3-1.2,1v3.9c0,0.5,0.1,0.9,0.2,1s0.3,0.2,0.6,0.3v0.3h-3.7v-0.3
			c0.3,0,0.5-0.1,0.7-0.3c0.1-0.1,0.1-0.5,0.1-1v-4.1c0-0.6-0.1-0.9-0.2-1s-0.3-0.2-0.6-0.3v-0.3H110.7z"/>
		<path d="M119.6,116.8v2.7h1.7v0.8h-1.7v4.5c0,0.4,0,0.7,0.1,0.8s0.1,0.2,0.2,0.3c0.1,0.1,0.2,0.1,0.3,0.1c0.3,0,0.7-0.3,1-0.8
			l0.2,0.2c-0.4,1-1.1,1.5-2.1,1.5c-0.5,0-0.9-0.1-1.2-0.4s-0.5-0.5-0.6-0.9c-0.1-0.2-0.1-0.7-0.1-1.4v-3.9h-1V120
			c0.7-0.5,1.2-1,1.7-1.5s0.9-1.1,1.2-1.7H119.6z"/>
		<path d="M129.4,119.3c0.6,0,1.2,0.2,1.8,0.5s1,0.8,1.2,1.4c0.3,0.6,0.4,1.3,0.4,2c0,1-0.3,1.9-0.8,2.6c-0.6,0.8-1.5,1.3-2.6,1.3
			c-1.1,0-1.9-0.4-2.5-1.2s-0.9-1.7-0.9-2.7c0-1,0.3-2,0.9-2.7C127.5,119.7,128.4,119.3,129.4,119.3z M129.5,119.8
			c-0.3,0-0.5,0.1-0.7,0.3c-0.2,0.2-0.3,0.6-0.4,1.2c-0.1,0.6-0.1,1.4-0.1,2.5c0,0.6,0,1.1,0.1,1.6c0.1,0.4,0.2,0.7,0.4,0.8
			s0.4,0.3,0.6,0.3c0.2,0,0.4-0.1,0.6-0.2c0.2-0.2,0.3-0.4,0.4-0.7c0.1-0.5,0.2-1.5,0.2-3c0-0.9,0-1.5-0.1-1.8
			c-0.1-0.3-0.2-0.6-0.4-0.7C129.9,119.9,129.7,119.8,129.5,119.8z"/>
		<path d="M137.2,120.3v5.1c0,0.5,0.1,0.8,0.2,0.9c0.2,0.2,0.5,0.3,0.9,0.3v0.3H134v-0.3c0.3,0,0.6,0,0.7-0.1
			c0.1-0.1,0.2-0.2,0.3-0.3c0.1-0.1,0.1-0.4,0.1-0.8v-5.1H134v-0.8h1.1V119l0-0.4c0-0.8,0.3-1.4,0.8-1.9c0.5-0.5,1.3-0.8,2.2-0.8
			c0.6,0,1.1,0.1,1.4,0.4c0.3,0.2,0.5,0.5,0.5,0.8c0,0.2-0.1,0.4-0.3,0.6c-0.2,0.2-0.4,0.3-0.8,0.3c-0.3,0-0.5-0.1-0.6-0.2
			c-0.2-0.1-0.2-0.3-0.2-0.5c0,0,0-0.1,0-0.3c0-0.1,0-0.2,0-0.2c0-0.1,0-0.2-0.1-0.2c-0.1-0.1-0.2-0.1-0.3-0.1
			c-0.2,0-0.3,0.1-0.4,0.2s-0.2,0.3-0.2,0.6l0,1.4v0.9h1.1v0.8H137.2z"/>
		<path d="M147.2,121.7v3.3c0,0.5,0,0.9,0.1,1c0.1,0.1,0.2,0.3,0.4,0.4c0.2,0.1,0.4,0.2,0.7,0.2h0.4v0.3h-5.5v-0.3h0.4
			c0.3,0,0.6-0.1,0.7-0.2c0.1-0.1,0.2-0.2,0.3-0.4c0.1-0.1,0.1-0.5,0.1-1v-7c0-0.5,0-0.9-0.1-1c-0.1-0.1-0.2-0.3-0.3-0.4
			c-0.2-0.1-0.4-0.2-0.7-0.2h-0.4v-0.3h5.5v0.3h-0.4c-0.3,0-0.6,0.1-0.7,0.2c-0.1,0.1-0.2,0.2-0.3,0.4c-0.1,0.1-0.1,0.5-0.1,1v3h3.7
			v-3c0-0.5,0-0.9-0.1-1c-0.1-0.1-0.2-0.3-0.4-0.4c-0.2-0.1-0.4-0.2-0.7-0.2h-0.3v-0.3h5.5v0.3h-0.3c-0.3,0-0.6,0.1-0.7,0.2
			c-0.1,0.1-0.2,0.2-0.3,0.4c-0.1,0.1-0.1,0.5-0.1,1v7c0,0.5,0,0.9,0.1,1s0.2,0.3,0.4,0.4s0.4,0.2,0.7,0.2h0.3v0.3h-5.5v-0.3h0.3
			c0.3,0,0.6-0.1,0.7-0.2c0.1-0.1,0.2-0.2,0.3-0.4c0.1-0.1,0.1-0.5,0.1-1v-3.3H147.2z"/>
		<path d="M162.8,119.5v5.7c0,0.6,0.1,0.9,0.2,1s0.3,0.2,0.6,0.3v0.3h-3v-1c-0.3,0.4-0.7,0.7-1,0.9s-0.7,0.3-1.2,0.3
			c-0.4,0-0.8-0.1-1.1-0.4s-0.5-0.5-0.6-0.9s-0.2-0.9-0.2-1.8v-2.9c0-0.6-0.1-0.9-0.2-1s-0.3-0.2-0.6-0.3v-0.3h3v5
			c0,0.5,0,0.9,0.1,1s0.1,0.3,0.2,0.3s0.2,0.1,0.4,0.1c0.2,0,0.4,0,0.5-0.1c0.2-0.1,0.5-0.4,0.8-0.8v-3.9c0-0.6-0.1-0.9-0.2-1
			s-0.3-0.2-0.6-0.3v-0.3H162.8z"/>
		<path d="M167.7,119.5v1c0.4-0.4,0.8-0.7,1.1-0.9s0.7-0.3,1.1-0.3c0.5,0,0.9,0.1,1.2,0.3s0.6,0.6,0.7,1c0.4-0.5,0.8-0.8,1.2-1
			s0.8-0.3,1.2-0.3c0.5,0,0.9,0.1,1.2,0.3s0.5,0.5,0.6,0.9s0.2,0.9,0.2,1.7v3c0,0.6,0.1,0.9,0.2,1s0.3,0.2,0.6,0.3v0.3h-3.8v-0.3
			c0.3,0,0.5-0.1,0.7-0.3c0.1-0.1,0.1-0.5,0.1-1v-3.1c0-0.7,0-1.1-0.1-1.2s-0.1-0.3-0.2-0.4s-0.2-0.1-0.4-0.1
			c-0.2,0-0.5,0.1-0.7,0.2s-0.5,0.4-0.7,0.7v3.9c0,0.5,0,0.9,0.1,1c0.1,0.2,0.3,0.3,0.7,0.3v0.3H169v-0.3c0.2,0,0.4-0.1,0.5-0.2
			s0.2-0.2,0.2-0.3s0.1-0.4,0.1-0.8v-3.1c0-0.7,0-1.1-0.1-1.2s-0.1-0.3-0.3-0.4s-0.3-0.1-0.4-0.1c-0.2,0-0.4,0.1-0.6,0.2
			c-0.2,0.2-0.5,0.4-0.8,0.8v3.9c0,0.5,0.1,0.9,0.2,1s0.3,0.3,0.6,0.3v0.3h-3.8v-0.3c0.3,0,0.5-0.1,0.7-0.3c0.1-0.1,0.1-0.5,0.1-1
			v-4.1c0-0.6-0.1-0.9-0.2-1s-0.3-0.2-0.6-0.3v-0.3H167.7z"/>
		<path d="M182,125.7c-0.9,0.8-1.7,1.2-2.4,1.2c-0.4,0-0.8-0.1-1-0.4s-0.4-0.6-0.4-1c0-0.6,0.2-1.1,0.7-1.5s1.5-1,3.1-1.8v-0.7
			c0-0.6,0-0.9-0.1-1s-0.2-0.3-0.3-0.4s-0.4-0.2-0.6-0.2c-0.3,0-0.6,0.1-0.8,0.2c-0.1,0.1-0.2,0.2-0.2,0.3c0,0.1,0.1,0.2,0.2,0.4
			c0.2,0.2,0.3,0.4,0.3,0.6c0,0.3-0.1,0.5-0.3,0.7s-0.4,0.3-0.7,0.3c-0.3,0-0.6-0.1-0.8-0.3s-0.3-0.4-0.3-0.7c0-0.4,0.1-0.7,0.4-1.1
			s0.7-0.6,1.2-0.8s1.1-0.3,1.7-0.3c0.7,0,1.2,0.1,1.6,0.4s0.7,0.6,0.8,1c0.1,0.2,0.1,0.7,0.1,1.5v2.8c0,0.3,0,0.5,0,0.6
			s0.1,0.1,0.1,0.2s0.1,0.1,0.2,0.1c0.1,0,0.3-0.1,0.4-0.3l0.2,0.2c-0.3,0.4-0.5,0.7-0.8,0.8s-0.6,0.3-0.9,0.3c-0.4,0-0.7-0.1-1-0.3
			S182.1,126.1,182,125.7z M182,125.2v-2.4c-0.6,0.4-1.1,0.8-1.4,1.2c-0.2,0.3-0.3,0.6-0.3,0.9c0,0.2,0.1,0.5,0.3,0.6
			c0.1,0.1,0.3,0.2,0.5,0.2C181.4,125.6,181.7,125.5,182,125.2z"/>
		<path d="M189,119.5v0.9c0.4-0.4,0.7-0.7,1.1-0.9s0.7-0.3,1.1-0.3c0.5,0,0.9,0.1,1.2,0.4s0.5,0.6,0.6,1c0.1,0.3,0.1,0.9,0.1,1.7
			v2.8c0,0.6,0.1,0.9,0.2,1.1s0.3,0.2,0.6,0.3v0.3h-3.7v-0.3c0.3,0,0.5-0.2,0.6-0.3c0.1-0.1,0.1-0.5,0.1-1V122c0-0.6,0-1-0.1-1.1
			s-0.1-0.3-0.2-0.4s-0.2-0.1-0.4-0.1c-0.4,0-0.9,0.3-1.2,1v3.9c0,0.5,0.1,0.9,0.2,1s0.3,0.2,0.6,0.3v0.3H186v-0.3
			c0.3,0,0.5-0.1,0.7-0.3c0.1-0.1,0.1-0.5,0.1-1v-4.1c0-0.6-0.1-0.9-0.2-1s-0.3-0.2-0.6-0.3v-0.3H189z"/>
		<path d="M205.9,116l0.1,3.5h-0.3c-0.2-0.9-0.5-1.6-1.1-2.1s-1.2-0.8-1.9-0.8c-0.5,0-1,0.1-1.3,0.4s-0.5,0.6-0.5,1
			c0,0.2,0.1,0.4,0.2,0.6c0.2,0.2,0.4,0.5,0.7,0.7c0.2,0.2,0.8,0.5,1.7,0.9c1.2,0.6,2.1,1.2,2.5,1.7c0.4,0.5,0.6,1.2,0.6,1.9
			c0,0.9-0.3,1.6-1,2.3s-1.6,1-2.6,1c-0.3,0-0.6,0-0.9-0.1s-0.7-0.2-1.1-0.4c-0.2-0.1-0.5-0.2-0.6-0.2c-0.1,0-0.3,0.1-0.4,0.2
			s-0.3,0.3-0.4,0.5h-0.3v-4h0.3c0.2,1.1,0.7,2,1.3,2.6s1.4,0.9,2.1,0.9c0.6,0,1-0.2,1.4-0.5s0.5-0.7,0.5-1.1c0-0.2-0.1-0.5-0.2-0.7
			s-0.3-0.5-0.6-0.7s-0.8-0.5-1.4-0.8c-1-0.5-1.7-0.9-2.1-1.2s-0.7-0.7-1-1.1s-0.3-0.9-0.3-1.4c0-0.8,0.3-1.6,0.9-2.2
			s1.4-0.9,2.3-0.9c0.3,0,0.7,0,1,0.1c0.2,0.1,0.5,0.2,0.9,0.3s0.6,0.3,0.7,0.3c0.1,0,0.2,0,0.3-0.1s0.2-0.3,0.2-0.6H205.9z"/>
		<path d="M214,122.9h-4c0,1,0.3,1.7,0.8,2.3c0.4,0.4,0.8,0.6,1.3,0.6c0.3,0,0.6-0.1,0.9-0.3s0.5-0.5,0.8-0.9l0.3,0.2
			c-0.4,0.8-0.8,1.4-1.3,1.7s-1,0.5-1.7,0.5c-1.1,0-1.9-0.4-2.5-1.2c-0.4-0.7-0.7-1.5-0.7-2.5c0-1.2,0.3-2.2,1-2.9s1.4-1.1,2.3-1.1
			c0.7,0,1.4,0.3,1.9,0.9S213.9,121.7,214,122.9z M212.1,122.4c0-0.8,0-1.4-0.1-1.7s-0.2-0.5-0.4-0.7c-0.1-0.1-0.3-0.1-0.4-0.1
			c-0.3,0-0.5,0.1-0.7,0.4c-0.3,0.5-0.5,1.1-0.5,1.9v0.3H212.1z"/>
		<path d="M217.9,119.5v1.7c0.5-0.8,0.9-1.3,1.3-1.5s0.7-0.4,1.1-0.4c0.3,0,0.5,0.1,0.7,0.3s0.3,0.4,0.3,0.8c0,0.3-0.1,0.6-0.3,0.8
			s-0.4,0.3-0.6,0.3c-0.3,0-0.5-0.1-0.7-0.3s-0.3-0.3-0.4-0.3c-0.1,0-0.1,0-0.2,0c-0.2,0-0.3,0.1-0.4,0.2c-0.2,0.2-0.4,0.4-0.5,0.8
			c-0.2,0.5-0.2,1.1-0.2,1.7v1.7l0,0.4c0,0.3,0,0.5,0.1,0.6c0.1,0.1,0.2,0.2,0.3,0.3s0.3,0.1,0.6,0.1v0.3h-3.9v-0.3
			c0.3,0,0.5-0.1,0.6-0.3s0.2-0.5,0.2-1.2v-4c0-0.4,0-0.7-0.1-0.8c-0.1-0.1-0.1-0.3-0.2-0.3s-0.3-0.1-0.5-0.1v-0.3H217.9z"/>
		<path d="M225.3,127l-2.5-5.7c-0.3-0.7-0.5-1.1-0.7-1.3c-0.1-0.1-0.3-0.2-0.5-0.3v-0.3h3.9v0.3c-0.2,0-0.4,0-0.5,0.1
			c-0.1,0.1-0.2,0.2-0.2,0.4c0,0.2,0.1,0.6,0.3,1.1l1.2,2.7l1-2.4c0.3-0.7,0.4-1.2,0.4-1.4c0-0.2-0.1-0.3-0.2-0.4s-0.3-0.2-0.6-0.2
			v-0.3h2.4v0.3c-0.2,0-0.4,0.1-0.6,0.3s-0.4,0.6-0.7,1.2l-2.4,5.7H225.3z"/>
		<path d="M232.8,119.5v5.8c0,0.5,0.1,0.8,0.2,1s0.4,0.2,0.7,0.2v0.3h-3.9v-0.3c0.3,0,0.6-0.1,0.7-0.3c0.1-0.1,0.2-0.4,0.2-1V121
			c0-0.5-0.1-0.8-0.2-1s-0.4-0.2-0.7-0.2v-0.3H232.8z M231.7,116c0.3,0,0.6,0.1,0.9,0.4s0.4,0.5,0.4,0.9s-0.1,0.6-0.4,0.9
			s-0.5,0.4-0.9,0.4s-0.6-0.1-0.9-0.4s-0.4-0.5-0.4-0.9s0.1-0.6,0.4-0.9S231.4,116,231.7,116z"/>
		<path d="M240.4,124.9l0.2,0.2c-0.3,0.6-0.8,1.1-1.3,1.4s-1.1,0.5-1.6,0.5c-1,0-1.8-0.4-2.3-1.1s-0.9-1.6-0.9-2.6
			c0-1,0.3-1.9,0.8-2.6c0.6-0.9,1.5-1.4,2.6-1.4c0.8,0,1.4,0.2,1.8,0.6s0.7,0.8,0.7,1.3c0,0.3-0.1,0.5-0.3,0.7s-0.4,0.3-0.7,0.3
			c-0.3,0-0.6-0.1-0.8-0.3s-0.3-0.6-0.4-1.1c0-0.3-0.1-0.6-0.2-0.7s-0.3-0.2-0.4-0.2c-0.2,0-0.5,0.1-0.6,0.4c-0.3,0.4-0.4,1-0.4,1.8
			c0,0.7,0.1,1.3,0.3,2s0.5,1.1,0.9,1.4c0.3,0.2,0.6,0.3,1,0.3c0.3,0,0.5-0.1,0.7-0.2S240.1,125.3,240.4,124.9z"/>
		<path d="M247.7,122.9h-4c0,1,0.3,1.7,0.8,2.3c0.4,0.4,0.8,0.6,1.3,0.6c0.3,0,0.6-0.1,0.9-0.3s0.5-0.5,0.8-0.9l0.3,0.2
			c-0.4,0.8-0.8,1.4-1.3,1.7s-1,0.5-1.7,0.5c-1.1,0-1.9-0.4-2.5-1.2c-0.4-0.7-0.7-1.5-0.7-2.5c0-1.2,0.3-2.2,1-2.9s1.4-1.1,2.3-1.1
			c0.7,0,1.4,0.3,1.9,0.9S247.7,121.7,247.7,122.9z M245.8,122.4c0-0.8,0-1.4-0.1-1.7s-0.2-0.5-0.4-0.7c-0.1-0.1-0.3-0.1-0.4-0.1
			c-0.3,0-0.5,0.1-0.7,0.4c-0.3,0.5-0.5,1.1-0.5,1.9v0.3H245.8z"/>
		<path d="M253.3,119.3l0.1,2.5h-0.3c-0.3-0.7-0.6-1.2-1-1.5s-0.7-0.4-1-0.4c-0.2,0-0.4,0.1-0.5,0.2s-0.2,0.3-0.2,0.5
			c0,0.1,0.1,0.3,0.2,0.4c0.2,0.2,0.6,0.6,1.4,1.1s1.3,1,1.5,1.3s0.4,0.8,0.4,1.2c0,0.4-0.1,0.8-0.3,1.2s-0.5,0.7-0.9,0.9
			s-0.8,0.3-1.2,0.3c-0.3,0-0.8-0.1-1.4-0.3c-0.2-0.1-0.3-0.1-0.3-0.1c-0.2,0-0.3,0.1-0.4,0.4H249l-0.1-2.6h0.3
			c0.2,0.7,0.6,1.2,1,1.5s0.8,0.5,1.2,0.5c0.2,0,0.5-0.1,0.6-0.2s0.2-0.3,0.2-0.6c0-0.2-0.1-0.5-0.2-0.6s-0.5-0.5-1-0.8
			c-0.8-0.6-1.3-1-1.5-1.3c-0.3-0.4-0.5-0.9-0.5-1.4c0-0.6,0.2-1.1,0.6-1.5s0.9-0.7,1.7-0.7c0.4,0,0.8,0.1,1.1,0.3
			c0.1,0.1,0.3,0.1,0.3,0.1c0.1,0,0.2,0,0.2-0.1s0.1-0.1,0.3-0.3H253.3z"/>
	</g>
</g>
</svg>
