<?xml version="1.0" encoding="utf-8"?>
<!-- Generator: Adobe Illustrator 19.1.0, SVG Export Plug-In . SVG Version: 6.00 Build 0)  -->
<svg version="1.1" id="Layer_1" xmlns="http://www.w3.org/2000/svg" xmlns:xlink="http://www.w3.org/1999/xlink" x="0px" y="0px"
	 viewBox="-99 0 400 200" style="enable-background:new -99 0 400 200;" xml:space="preserve">
<style type="text/css">
	.st0{enable-background:new    ;}
</style>
<g>
	<g class="st0">
		<path d="M-81.8,74.9h8.7c2.4,0,4.3,1.1,5.2,2.4V57.1c0-0.4,0.4-0.8,0.8-0.8h5.7v53.6c0,1.3-1,2.4-2.4,2.4h-17.8
			c-6,0-10.9-4.9-10.9-10.9V85.8C-92.6,79.8-87.9,74.9-81.8,74.9z M-86.1,101.7c0,2.5,1.9,4.4,4.4,4.4h12.8c0.4,0,0.8-0.3,0.8-0.7
			V84.9c-0.1-2-1.7-3.6-3.6-3.8h-10.1c-2.5,0-4.4,1.9-4.4,4.4L-86.1,101.7L-86.1,101.7z M-41.7,112.8c-6,0-10.9-4.9-10.9-10.9V85.3
			c0-6,4.9-10.9,10.9-10.9h9.9c6,0,11,4.9,11,10.9v16.6c0,6-4.9,10.9-11,10.9H-41.7z M-46.1,85v17.2c0,2.5,1.9,4.5,4.4,4.5h9.9
			c2.5,0,4.5-2,4.5-4.5V85c0-2.4-2-4.4-4.5-4.4h-9.9C-44.2,80.6-46.1,82.6-46.1,85z M33.4,85.8v26.4h-5.7c-0.4,0-0.8-0.4-0.8-0.8
			V85.5c0-2.4-1.9-4.4-4.4-4.4h-9.7c0.7,0.4,1.3,1.2,1.3,2.1v29.1H8.4c-0.4,0-0.8-0.4-0.8-0.8V81.9c0-0.4-0.4-0.8-0.8-0.8H-4.5
			c-0.4,0-0.7,0.3-0.7,0.7v29.7c0,0.4-0.4,0.8-0.8,0.8h-5.7V79.8c0-2.7,2.2-4.9,4.9-4.9h29.3C28.5,74.9,33.4,79.8,33.4,85.8z
			 M71.6,85.4v24.5c0,1.3-1,2.4-2.4,2.4H51.7c-6,0-10.9-4.9-10.9-10.9v-2.3c0-6,4.9-10.9,10.9-10.9h12.6c0.4,0,0.8-0.4,0.8-0.8v-1.9
			c0-2.4-1.6-4.4-4.5-4.4H45.8c-0.4,0-0.8-0.4-0.8-0.8V75h15.7C66.7,74.9,71.6,78.6,71.6,85.4z M51.7,105.9h12.7
			c0.4,0,0.7-0.4,0.7-0.8V93.2c-0.4,0.7-1.1,1-1.9,1.1H51.7c-2.5,0-4.4,1.9-4.4,4.4v2.8C47.3,104,49.3,105.9,51.7,105.9z M87.2,59
			v6.1h-5.7c-0.4,0-0.8-0.4-0.8-0.8v-6.1h5.7C86.8,58.2,87.2,58.6,87.2,59z M87.2,75.7v36.6h-5.7c-0.4,0-0.8-0.4-0.8-0.8V74.9h5.7
			C86.8,74.9,87.2,75.2,87.2,75.7z M128.3,85.8v26.4h-5.7c-0.4,0-0.8-0.4-0.8-0.8V85.5c0-2.4-1.9-4.4-4.4-4.4h-13.5
			c-0.4,0-0.8,0.4-0.8,0.8v29.6c0,0.4-0.4,0.8-0.8,0.8h-5.7V79.8c0-2.7,2.2-4.9,4.9-4.9h16C123.5,74.9,128.3,79.8,128.3,85.8z"/>
	</g>
	<g class="st0">
		<path d="M163.9,84c0-3.3-2.7-6-5.9-6h-16.3c-0.4,0-0.8,0.4-0.8,0.8v32.6c0,0.4-0.4,0.8-0.8,0.8h-2.5v-34c0-1.8,1.5-3.4,3.3-3.4
			h17.2c5.1,0,9.3,4.3,9.3,9.4v28h-2.6c-0.4,0-0.7-0.4-0.7-0.8V84H163.9z M203.9,84.3v27.2c0,0.4-0.4,0.8-0.8,0.8h-18.7
			c-5.2,0-9.3-4.2-9.3-9.3v-3.9c0-5.2,4.1-9.4,9.3-9.4h15.4c0.4,0,0.7-0.3,0.8-0.8V84c0-3.3-2.6-6-5.9-6h-15.6
			c-0.4,0-0.7-0.4-0.7-0.8v-2.3h16.3C199.8,74.9,203.9,79.1,203.9,84.3L203.9,84.3z M200.5,109V92.5c-0.1,0.1-0.4,0.3-0.6,0.3h-15.6
			c-3.3,0-5.9,2.7-5.9,6v4.3c0,3.3,2.6,5.9,5.9,5.9L200.5,109L200.5,109z M255.9,84.3v28h-2.6c-0.4,0-0.8-0.4-0.8-0.8V84
			c0-3.3-2.6-6-5.8-6h-11.8c0.7,0.3,1.2,1.1,1.2,2.1v32.2h-2.5c-0.4,0-0.8-0.4-0.8-0.8V79.3c0-0.7-0.6-1.3-1.3-1.3h-14.3
			c-0.4,0-0.8,0.4-0.8,0.8v32.6c0,0.4-0.4,0.8-0.8,0.8h-2.5v-34c0-1.8,1.5-3.4,3.3-3.4h30.5C251.7,74.9,255.9,79.2,255.9,84.3
			L255.9,84.3z M264.8,103.2V83.9c0-5.6,4-9,9-9h11.8c5.1,0,9,3.4,9,9v10.2c0,0.5-0.4,0.9-0.8,0.9h-24c-0.7,0-1.3-0.4-1.6-0.9h-0.1
			v9.1c0,3.3,2.6,5.9,5.9,5.9h19.2c0.4,0,0.8,0.4,0.8,0.8v2.4h-20C268.9,112.2,264.8,108.9,264.8,103.2L264.8,103.2z M273.8,78
			c-3.2,0-5.7,2.7-5.7,6v7c0,0.4,0.3,0.7,0.8,0.8h22.3V84c0-3.3-2.5-6-5.7-6H273.8L273.8,78z"/>
	</g>
	<g class="st0">
		<path d="M207.4,134.4v1.5h-1.3c-0.2,0-0.4-0.2-0.4-0.4V134h1.3C207.2,134,207.4,134.2,207.4,134.4z M224.2,120.1v19.5
			c0,2.2-1.8,4-4,4h-7.5v-1.1c0-0.2,0.2-0.4,0.3-0.4h7.2c1.4,0,2.5-1.1,2.5-2.5v-4.4c-0.1,0.3-0.4,0.4-0.9,0.4h-5.9
			c-2.2,0-4-1.8-4-4v-8c0-2.2,1.8-4,4-4h7.9C224.1,119.8,224.2,120,224.2,120.1z M222.2,134.4c0.3,0,0.6-0.3,0.6-0.6V121H216
			c-1.4,0-2.5,1.2-2.5,2.6v8.3c0,1.4,1.1,2.6,2.5,2.6h6.2V134.4z M232,136.1c-2.2,0-4-1.8-4-4v-8.4c0-2.2,1.8-4,4-4h4.8
			c2.2,0,3.9,1.8,3.9,4v8.4c0,2.2-1.8,4-3.9,4H232z M232,120.9c-1.4,0-2.5,1.2-2.5,2.6v8.7c0,1.4,1.1,2.5,2.5,2.5h4.8
			c1.4,0,2.5-1.1,2.5-2.5v-8.7c0-1.4-1.1-2.6-2.5-2.6H232z M242.1,119.7h1.2c0.2,0,0.4,0.1,0.5,0.3l5.7,13.6l5.7-13.6
			c0.1-0.2,0.3-0.3,0.5-0.3h1.2l-6.8,15.8c-0.1,0.2-0.3,0.3-0.5,0.3h-0.3c-0.2,0-0.4-0.2-0.5-0.3L242.1,119.7z M260.8,134.4v1.5
			h-1.3c-0.2,0-0.4-0.2-0.4-0.4V134h1.3C260.6,134,260.8,134.2,260.8,134.4z M277.4,123.8v11.7c0,0.2-0.2,0.4-0.4,0.4h-8.1
			c-2.2,0-4-1.8-4-4v-1.7c0-2.2,1.8-4,4-4h6.6c0.2,0,0.3-0.1,0.4-0.4v-2.1c0-1.4-1.1-2.6-2.5-2.6h-6.7c-0.2,0-0.3-0.2-0.3-0.4v-1h7
			C275.6,119.7,277.4,121.5,277.4,123.8z M276,134.5v-7.1c-0.1,0.1-0.2,0.1-0.3,0.1H269c-1.4,0-2.5,1.2-2.5,2.6v1.9
			c0,1.4,1.1,2.5,2.5,2.5H276z M281.3,119.7h1.1c0.2,0,0.4,0.2,0.4,0.4v11.8c0,1.4,1.1,2.5,2.5,2.5h4.8c1.4,0,2.5-1.1,2.5-2.5v-11.8
			c0-0.2,0.2-0.4,0.4-0.4h1.1v12.1c0,2.2-1.8,4-3.9,4h-4.8c-2.2,0-4-1.8-4-4v-12.1L281.3,119.7z"/>
	</g>
</g>
</svg>
