<?xml version="1.0" encoding="utf-8"?>
<!-- Generator: Adobe Illustrator 19.2.1, SVG Export Plug-In . SVG Version: 6.00 Build 0)  -->
<!DOCTYPE svg PUBLIC "-//W3C//DTD SVG 1.1//EN" "http://www.w3.org/Graphics/SVG/1.1/DTD/svg11.dtd">
<svg version="1.1" id="Layer_1" xmlns="http://www.w3.org/2000/svg" xmlns:xlink="http://www.w3.org/1999/xlink" x="0px" y="0px"
	 viewBox="0 0 400 200" style="enable-background:new 0 0 400 200;" xml:space="preserve">
<style type="text/css">
	.st0{fill:#A3A3A3;}
	.st1{fill:#AFAFAF;}
	.st2{fill:#797979;}
	.st3{opacity:0.48;fill:#EFEFEF;enable-background:new    ;}
	.st4{opacity:0.25;fill:#EFEFEF;enable-background:new    ;}
	.st5{opacity:0.3;fill:#EFEFEF;enable-background:new    ;}
	.st6{opacity:0.55;fill:#EFEFEF;enable-background:new    ;}
	.st7{opacity:0.15;fill:#EFEFEF;enable-background:new    ;}
	.st8{fill:#939393;}
	.st9{fill:#595959;}
	.st10{fill:#7C7C7C;}
	.st11{fill:#FFFFFF;}
	.st12{opacity:0.85;fill:#FFFFFF;stroke:#FFFFFF;stroke-miterlimit:10;enable-background:new    ;}
	.st13{opacity:0.95;fill:#FFFFFF;stroke:#FFFFFF;stroke-miterlimit:10;enable-background:new    ;}
	.st14{opacity:0.8;fill:#FFFFFF;stroke:#FFFFFF;stroke-miterlimit:10;enable-background:new    ;}
</style>
<path class="st0" d="M83.8,185c-1.9-1-3.8-1.9-5.7-3c-8.3-4.7-16.6-9.5-24.8-14.4L30,154.1c-6.4-3.7-12.6-7.3-19-10.9
	c-0.7-0.4-0.9-0.9-0.9-1.6V58.9c0-0.5,0.3-1,0.5-1.4c1.7,1.1,3.5,2.5,5.3,3.5c5.3,3.1,10.7,6.2,16,9.1c0.9,0.5,1.8,0.9,2.9,1.3
	l-0.1,0.5v55.8c0,0.4,0.4,0.8,0.6,1.2l1.1,0.8c15.9,9.1,31.7,18.3,47.6,27.5v26.9C83.9,184.3,83.9,184.7,83.8,185z"/>
<path class="st1" d="M34.8,71.4c-0.9-0.4-1.9-0.8-2.9-1.3c-5.3-3-10.7-6-16-9.1c-1.8-1-3.6-2.4-5.3-3.5L16,54c7-4.1,14-8.1,21-12.1
	c7.1-4.1,14.1-8.1,21.1-12.2C64.8,25.9,71.4,22,78,18.1c1.7-1,3.5-2.1,5.2-3c0.4-0.2,1.2-0.1,1.7,0.2c5.1,2.9,10.2,5.8,15.2,8.7
	c6.2,3.6,12.3,7.1,18.4,10.7l18.7,10.8l19.4,11.2c0.3,0.2,0.6,0.5,0.9,0.8l-0.8,0.7L136.3,70c-1,0.6-2.1,1-3.1,1.4
	c-6.7-3.8-13.2-7.6-19.9-11.5c-9.5-5.5-19.1-11-28.6-16.4c-0.3-0.2-0.7-0.1-1-0.1l-0.4,0.1c-12,7-24,13.9-36,20.8
	C43.1,66.7,38.9,69,34.8,71.4L34.8,71.4z"/>
<path class="st2" d="M133.1,71.4l3.1-1.4c6.9-3.9,13.6-7.8,20.4-11.8c0.3-0.2,0.5-0.4,0.8-0.7c0.2,0.4,0.4,0.9,0.4,1.3l-0.1,3.6
	c0,25.5-0.1,51.1,0.1,76.6c0,3.1-0.9,4.4-3.5,5.8c-13.9,7.9-27.8,16-41.6,24c-9.2,5.3-18.5,10.7-27.7,15.9c-0.4,0.2-0.9,0.2-1.3,0.3
	l0.1-1.1v-27c0.8-0.4,1.6-0.7,2.5-1.1c15.3-8.8,30.6-17.6,45.9-26.5c0.8-0.5,1.1-1,1.1-1.9V72C133.3,71.8,133.2,71.6,133.1,71.4
	L133.1,71.4z"/>
<path class="st3" d="M34.8,71.4l12.3-7.1c12.1-6.9,24.1-13.8,36.2-20.8c0.1-0.1,0.3-0.1,0.4-0.1c0.2,0.8,0.5,1.5,0.5,2.4v22.1
	c0,1.2-0.2,2.5-0.3,3.7c-1,0.6-1.9,1.1-3,1.7c-7.2,4.1-14.5,8.3-21.6,12.4l-0.6-0.2c-5.6-3.3-11.3-6.5-16.9-9.7l-7.1-3.9
	C34.8,71.7,34.8,71.6,34.8,71.4z"/>
<path class="st4" d="M83.9,157.1C68,148,52.2,138.9,36.4,129.6c-0.4-0.2-0.7-0.5-1.1-0.8c0.3-0.4,0.6-0.9,1-1.1
	c1.8-1.1,3.8-2.2,5.7-3.3l17.3-10c1.3,0.8,2.8,1.5,4.1,2.4c6.8,3.9,13.4,7.8,20.2,11.6l0.3,0.3C83.9,128.7,83.9,157.1,83.9,157.1z"
	/>
<path class="st5" d="M59.4,114.5c-5.7,3.4-11.6,6.7-17.3,10l-5.7,3.3c-0.4,0.2-0.7,0.8-1,1.1c-0.2-0.4-0.6-0.8-0.6-1.2V71.9l7.1,3.9
	l16.9,9.7l0.6,0.2V114.5z"/>
<path class="st6" d="M83.9,71.6c0.1-1.2,0.3-2.5,0.3-3.7V45.8c0-0.8-0.4-1.5-0.5-2.4c0.4,0,0.8-0.1,1,0.1l28.6,16.4
	c6.7,3.8,13.2,7.6,19.9,11.5l0.3,0.5l-0.9,0.2l-18,10.4l-5.7,3.5c-0.1,0-0.1,0-0.2-0.1c-0.5-0.4-1-0.8-1.5-1.1l-8.1-4.7
	C94,77.2,88.9,74.5,83.9,71.6L83.9,71.6z"/>
<path class="st7" d="M108.8,86.1l5.7-3.5c5.9-3.5,12-6.9,18-10.4c0.3-0.1,0.6-0.2,0.9-0.2v55.4c0,0.9-0.3,1.5-1.1,1.9
	c-15.3,8.8-30.6,17.6-45.9,26.5c-0.8,0.4-1.6,0.8-2.5,1.1v-28.3c7.9-4.6,15.9-9.1,23.8-13.6c0.8-0.4,1-0.9,1-1.8
	C108.8,104.1,108.8,95.1,108.8,86.1L108.8,86.1z"/>
<path class="st8" d="M83.9,71.6c5,2.9,9.9,5.7,15,8.5c2.7,1.5,5.4,3.1,8.1,4.7c0.5,0.3,1,0.7,1.5,1.1c-0.7,0.4-1.3,0.7-2.1,1.1
	l-22.6,13L73,93.8c-4.6-2.7-9.2-5.3-13.8-7.9v-0.3c7.2-4.1,14.5-8.3,21.6-12.4C82,72.7,83,72.2,83.9,71.6z"/>
<path class="st9" d="M83.9,100.1l22.6-13c0.7-0.4,1.3-0.7,2.1-1.1c0.1,0,0.1,0,0.2,0.1v27.1c0,0.9-0.2,1.4-1,1.8
	c-8,4.5-15.9,9.1-23.8,13.6l-0.3-0.3c0.1-0.6,0.3-1.1,0.3-1.7C83.9,117.8,83.9,108.9,83.9,100.1z"/>
<path class="st10" d="M83.9,100.1v26.6c0,0.6-0.2,1.1-0.3,1.7c-6.8-3.9-13.4-7.8-20.2-11.6c-1.3-0.8-2.7-1.5-4.1-2.4V86
	c4.6,2.7,9.2,5.3,13.8,7.9C76.9,96,80.4,98.1,83.9,100.1z"/>
<path id="Cc3EKq.tif_1_" class="st11" d="M272.1,117.4c2.2-13.2,4.4-26.5,6.7-39.8c-1.4-0.2-2.7-0.3-4-0.4v-7.9h17.8v8
	c-1,0.1-2.2,0.3-3.2,0.3c-0.7,0-1,0.3-1.1,1c-2.2,11.9-4.3,23.7-6.4,35.6c-0.9,5.1-1.8,10.3-2.8,15.3c-0.1,0.3-0.5,0.9-0.8,0.9
	c-4.2,0.1-8.5,0-12.8,0c-3-13.3-5.8-26.7-8.8-39.9h-0.2l-1.1,4.9c-2.5,11.4-4.9,22.8-7.5,34c-0.1,0.4-0.6,0.9-0.9,0.9
	c-4.2,0.1-8.5,0-12.8,0c-0.4-2.5-0.9-4.9-1.3-7.3c-2.3-12.5-4.5-25-6.8-37.6c-0.4-2.3-0.9-4.5-1.2-6.8c-0.1-0.9-0.5-1.1-1.3-1.2
	c-0.9-0.1-1.9-0.2-2.9-0.3v-8h17.8V77c-1.2,0.1-2.5,0.3-3.9,0.4c2.3,13.4,4.4,26.8,6.7,40.1h0.3l8.5-39.6h13.3
	c2.9,13.1,5.6,26.2,8.5,39.4C271.9,117.4,272,117.4,272.1,117.4L272.1,117.4z M297.7,77.3v-8.1h1.3c7.7,0,15.3-0.1,23,0.1
	c3.7,0.1,7.5,0.5,11.1,1.4c6.8,1.7,10.2,6.5,10.5,13.3c0.2,4.3-0.4,8.3-3.3,11.8l-2.6,3.4c2.3,1.4,4.4,4,5.3,7.4
	c1.2,4.5,1.1,9-0.4,13.4c-1.6,4.4-5,7-9.3,8.5c-4.1,1.4-8.4,1.7-12.6,1.8c-7.4,0.1-14.9,0-22.2,0c-0.2,0-0.3,0-0.6-0.1v-7.9
	c1.3-0.2,2.8-0.4,4.3-0.6V79.2c0-1.2-0.4-1.7-1.6-1.7C299.6,77.7,298.7,77.5,297.7,77.3L297.7,77.3z M311.6,121.7l1.4,0.1
	c3.3,0,6.6,0,9.8-0.1c1.9-0.1,3.9-0.4,5.7-0.8c3.2-0.8,5.1-2.8,5.5-6.2c0.1-0.8,0.1-1.7,0.1-2.7c0-5-2.3-7.9-7.3-8.6
	c-3.6-0.5-7.4-0.3-11-0.4h-4.3C311.6,109.4,311.6,115.6,311.6,121.7L311.6,121.7z M311.6,77.8v15.7c0,0.3,0,0.6,0.1,1
	c2.4,0,4.6,0.1,7,0c3-0.1,5.9-0.1,8.9-0.5c4-0.6,6-2.9,6.4-6.5c0.1-0.6,0-1.3,0-1.9c0-4.2-1.7-6.6-5.8-6.9
	C322.5,78.1,317.2,78,311.6,77.8z M214.3,94.2v8.9h-25.8c0,0.4-0.1,0.8-0.1,1.1v16.6c0,1,0.3,1.4,1.3,1.3c0.9,0,1.9,0.2,2.9,0.3v7.9
	h-17.9v-7.9c1.3-0.1,2.7-0.3,4.1-0.4V77.6l-4.1-0.4v-8H216v14.1h-7.7c-0.3-1.8-0.5-3.6-0.8-5.3h-18.9v16.2
	C188.6,94.2,214.3,94.2,214.3,94.2z M389.9,69.8v13.6h-7.7c-0.3-2.1-0.5-4-0.8-6.2c-4.6-0.1-9.3-0.7-13.8,1s-6.3,5.4-7.1,9.8
	c-0.4,2.3-0.6,4.5-0.5,6.8c0.1,5.6,0.1,11.3,0.6,16.8c0.4,4.7,2.7,8.6,7.6,10.2c1.5,0.5,3.3,0.7,4.9,0.8c2.8,0.1,5.5,0,8.3,0
	c0.3-2.3,0.6-4.3,0.8-6.4h7.7V130c-2.7,0.3-5.4,0.7-8.2,1c-5.1,0.6-10.3,0.7-15.3-0.5c-8.5-2.1-13.4-7.7-15.2-16
	c-0.6-3.1-0.9-6.2-1-9.3c-0.1-4.9-0.2-9.7,0.2-14.7c0.2-3.3,0.9-6.7,2.1-9.8c2.5-7.1,8-10.8,15.3-12
	C375.1,67.7,382.5,68.5,389.9,69.8z"/>
<path class="st12" d="M84.1,185c-1.9-1-3.8-1.9-5.7-3c-8.3-4.7-16.6-9.5-24.8-14.4l-23.3-13.5c-6.4-3.7-12.6-7.3-19-10.9
	c-0.7-0.4-0.9-0.9-0.9-1.6V58.9c0-0.5,0.3-1,0.5-1.4c1.7,1.1,3.5,2.5,5.3,3.5c5.3,3.1,10.7,6.2,16,9.1c0.9,0.5,1.8,0.9,2.9,1.3
	L35,71.9v55.8c0,0.4,0.4,0.8,0.6,1.2l1.1,0.8c15.9,9.1,31.7,18.3,47.6,27.5v26.9C84.2,184.3,84.2,184.7,84.1,185z"/>
<path class="st13" d="M35,71.4c-0.9-0.4-1.9-0.8-2.9-1.3c-5.3-3-10.7-6-16-9.1c-1.8-1-3.6-2.4-5.3-3.5l5.4-3.5c7-4.1,14-8.1,21-12.1
	c7.1-4.1,14.1-8.1,21.1-12.2C65,25.9,71.6,22,78.2,18.1c1.7-1,3.5-2.1,5.2-3c0.4-0.2,1.2-0.1,1.7,0.2c5.1,2.9,10.2,5.8,15.2,8.7
	c6.2,3.6,12.3,7.1,18.4,10.7l18.7,10.8l19.4,11.2c0.3,0.2,0.6,0.5,0.9,0.8l-0.8,0.7L136.5,70c-1,0.6-2.1,1-3.1,1.4
	c-6.7-3.8-13.2-7.6-19.9-11.5c-9.5-5.5-19.1-11-28.6-16.4c-0.3-0.2-0.7-0.1-1-0.1l-0.4,0.1c-12,7-24,13.9-36,20.8
	C43.3,66.7,39.1,69,35,71.4L35,71.4z"/>
<path class="st14" d="M133.4,71.4l3.1-1.4c6.9-3.9,13.6-7.8,20.4-11.8c0.3-0.2,0.5-0.4,0.8-0.7c0.2,0.4,0.4,0.9,0.4,1.3l-0.1,3.6
	c0,25.5-0.1,51.1,0.1,76.6c0,3.1-0.9,4.4-3.5,5.8c-13.9,7.9-27.8,16-41.6,24c-9.2,5.3-18.5,10.7-27.7,15.9c-0.4,0.2-0.9,0.2-1.3,0.3
	l0.1-1.1v-27c0.8-0.4,1.6-0.7,2.5-1.1c15.3-8.8,30.6-17.6,45.9-26.5c0.8-0.5,1.1-1,1.1-1.9V72L133.4,71.4L133.4,71.4z"/>
<path class="st13" d="M84.2,71.6c5,2.9,9.9,5.7,15,8.5c2.7,1.5,5.4,3.1,8.1,4.7c0.5,0.3,1,0.7,1.5,1.1c-0.7,0.4-1.3,0.7-2.1,1.1
	l-22.6,13l-10.8-6.2c-4.6-2.7-9.2-5.3-13.8-7.9v-0.3c7.2-4.1,14.5-8.3,21.6-12.4C82.2,72.7,83.2,72.2,84.2,71.6z"/>
<path class="st14" d="M84.2,100.1l22.6-13c0.7-0.4,1.3-0.7,2.1-1.1c0.1,0,0.1,0,0.2,0.1v27.1c0,0.9-0.2,1.4-1,1.8
	c-8,4.5-15.9,9.1-23.8,13.6l-0.3-0.3c0.1-0.6,0.3-1.1,0.3-1.7C84.2,117.8,84.2,108.9,84.2,100.1z"/>
<path class="st12" d="M84.2,100.1v26.6c0,0.6-0.2,1.1-0.3,1.7c-6.8-3.9-13.4-7.8-20.2-11.6c-1.3-0.8-2.7-1.5-4.1-2.4V86
	c4.6,2.7,9.2,5.3,13.8,7.9C77.2,96,80.7,98.1,84.2,100.1z"/>
</svg>
