<?xml version="1.0" encoding="utf-8"?>
<!-- Generator: Adobe Illustrator 19.1.0, SVG Export Plug-In . SVG Version: 6.00 Build 0)  -->
<svg version="1.1" id="Layer_1" xmlns="http://www.w3.org/2000/svg" xmlns:xlink="http://www.w3.org/1999/xlink" x="0px" y="0px"
	 viewBox="160 -60 400 200" style="enable-background:new 160 -60 400 200;" xml:space="preserve">
<style type="text/css">
	.st0{fill:none;}
	.st1{enable-background:new    ;}
</style>
<g>
	<path class="st0" d="M480,32.7c2.2,0,4.3-1,6.5-1.4c-8.4-0.6-11.5-3.6-11.3-11.7c0-8.3,0.2-16.4,0-24.6c-0.2-8.1-4.1-11.9-12-12
		c-8.7-0.2-17.4-0.2-26.1,0c-7.2,0.2-11,3.9-11.1,11.3c-0.2,4.8-0.2,9.7,0,14.5c0.3,6.8,4.1,10.7,10.9,10.9c6.8,0.3,13.5,0,20.3,0.2
		c7,0,11.3,3.2,12.2,11.1c-12.9,0-25.5,0.6-38.2-0.3c-9-0.6-16.3-9.9-16.7-19.3c-0.3-6.5-0.3-13.1,0-19.6
		c0.6-11.6,9.5-20.1,21.2-20.5c7.9-0.2,15.5,0.6,23.2-0.2c13.5-1.1,22.8,4.1,28.2,16.4 M305.3,11c-0.6,11.6-9.4,20.3-21.1,20.6
		c-5.1,0.2-10.2,0-15.2,0c-4.9,0-9.7,0-14.5,0.2c-12-0.3-20.9-8.7-21.6-20.9c-0.3-6.1-0.3-12.2,0-18.1c0.7-12.6,9.5-20.9,22.2-21
		c9.5-0.2,18.8-0.2,28.3,0c12.8,0.1,21.6,8.9,21.9,21.8C305.5-0.6,305.5,5.2,305.3,11z M395.8,31.3c-7.9-0.2-11.3-4.2-11.3-11.2
		c-0.3-8.3,0-16.4-0.2-24.6c-0.3-9.3-3.6-12.6-12.9-12.6c-8.3-0.2-16.4-0.2-24.6,0c-7.9,0.2-11.5,3.6-11.7,11.6
		c-0.3,8.4,0,17-0.2,25.3c-0.2,6.8-3.2,10.9-10.6,11.3c0-14.9-0.9-29.9,0.3-44.5c0.7-8.7,10.4-14.9,19.6-15.1c9.7-0.2,19.3,0,29,0
		c12.8,0.2,21.9,7.9,22.5,20.6S395.8,17.6,395.8,31.3z"/>
	<path d="M486.5,31.3c-8.3-0.6-11.5-3.6-11.6-11.5c-0.2-8.3,0.2-16.4,0-24.6c-0.2-8.1-3.9-11.9-12-12c-8.7-0.2-17.4-0.2-26.1,0
		c-7.2,0.2-11,3.9-11.1,11.3c-0.2,4.8-0.2,9.7,0,14.5c0.3,6.8,3.9,10.7,10.9,10.9c6.8,0.2,13.5,0,20.3,0.2c7,0.2,11.3,3.2,12.2,11.1
		c-12.9,0-25.7,0.7-38.2-0.3c-9-0.7-16.1-9.9-16.7-19.3c-0.3-6.5-0.3-13.1,0-19.6c0.6-11.6,9.5-20.1,21.2-20.5
		c7.7-0.2,7.7-0.2,23.2-0.2c12.6-1,21.5,3.4,26.9,14c0.7,1.4,1.1,3,1.1,4.7C486.5,3.9,486.5,17.6,486.5,31.3z"/>
	<path d="M269,31.6c-4.8,0-9.7,0.2-14.5,0c-12-0.3-20.9-8.7-21.6-20.9c-0.3-5.9-0.3-12,0-18.1c0.7-12.5,9.5-20.9,22.2-21
		c9.5-0.2,18.8-0.2,28.3,0c12.8,0.1,21.7,8.9,21.8,21.8c0.2,5.8,0.3,11.6,0,17.4c-0.5,11.6-9.4,20.4-21.1,20.6
		C279.1,31.6,274,31.6,269,31.6z M268.7,20c27.4,1,24.9-2.3,24.9-25.8c0-0.3,0-0.4,0-0.7c-0.6-6.1-3.9-9.9-10.2-10.2
		c-5.1-0.3-10.2,0.2-15.2-0.2c-26.4-1-23.9,3.5-23.9,25.6c0,0.4,0,1,0,1.4c1,5.9,4.2,9.5,10.6,9.9C259.5,20,264,19.9,268.7,20z"/>
	<path d="M395.8,31.3c-7.9-0.3-11.3-4.2-11.5-10.9c-0.2-8.3,0-16.4-0.2-24.6c-0.2-9.3-3.6-12.5-12.9-12.6c-8.3,0-16.4-0.2-24.6,0
		c-7.9,0.2-11.5,3.6-11.7,11.6c-0.3,8.4,0,16.8-0.2,25.3c-0.2,6.7-3.2,10.9-10.6,11.3c0-15.1-0.9-29.9,0.3-44.5
		c0.7-8.7,10.4-14.9,19.6-15.1c9.7-0.2,19.3-0.2,29,0c12.8,0.2,21.9,7.9,22.5,20.6C396.3,4.9,395.8,17.6,395.8,31.3z"/>
	<g class="st1">
		<path d="M234,59.7c0-4.4,2.9-6.7,7.5-6.7s7.5,2.3,7.5,6.7v5.1c0,4.3-2.9,6.7-7.5,6.7s-7.5-2.3-7.5-6.7V59.7z M241.5,68.6
			c2.5,0,4.2-1.2,4.2-3.9V60c0-2.6-1.8-4-4.2-4s-4.2,1.4-4.2,4v4.7C237.4,67.4,239.1,68.6,241.5,68.6z"/>
		<path d="M253,53.4l0.2-0.2h9.9l0.2,0.2V56l-0.2,0.1h-6.8v4.4h6.5l0.2,0.2l-0.6,2.6l-0.2,0.2h-5.7V71l-0.2,0.2h-2.9l-0.2-0.2V53.4
			C253.1,53.4,253,53.4,253,53.4z"/>
		<path d="M266.7,53.4l0.2-0.2h10l0.2,0.2V56l-0.2,0.1h-6.8v4.4h6.5l0.2,0.2l-0.6,2.6l-0.2,0.2h-5.8V71l-0.2,0.2h-3l-0.2-0.1
			L266.7,53.4L266.7,53.4z"/>
		<path d="M280.4,53.6l0.2-0.2l2.9-0.3l0.2,0.2v17.8l-0.2,0.2h-2.9l-0.2-0.2V53.6z"/>
		<path d="M287.8,59.7c0-4.4,2.9-6.7,7.5-6.7c5.5,0,6.9,4.1,6.9,4.1l-0.1,0.2l-2.6,1.1l-0.2-0.1c0,0-1-2.4-3.8-2.4
			c-2.4,0-4.2,1.4-4.2,4v4.7c0,2.7,1.8,3.9,4.2,3.9c3.4,0,4.2-2.5,4.2-2.5l0.2-0.1l2.6,1l0.1,0.2c0,0-1.1,4.3-7.1,4.3
			c-4.6,0-7.5-2.3-7.5-6.7L287.8,59.7L287.8,59.7z"/>
		<path d="M305.8,53.4l0.2-0.2h10.2l0.2,0.2V56l-0.2,0.2h-7.1v4.2h6.3l0.2,0.2l-0.7,2.5l-0.2,0.2h-5.5v5.1h7.1l0.2,0.2l-0.4,2.6
			l-0.2,0.2H306l-0.2-0.2V53.4z"/>
		<path d="M325.9,59.7c0-4.4,2.9-6.7,7.5-6.7c4.7,0,7.5,2.3,7.5,6.7v5.1c0,4.3-2.9,6.7-7.5,6.7s-7.5-2.3-7.5-6.7V59.7z M333.4,68.6
			c2.5,0,4.2-1.2,4.2-3.9V60c0-2.6-1.8-4-4.2-4s-4.2,1.4-4.2,4v4.7C329.1,67.4,331,68.6,333.4,68.6z"/>
		<path d="M344.9,53.4l0.2-0.2h9.9l0.2,0.2V56l-0.2,0.2h-6.8v4.4h6.5l0.2,0.2l-0.6,2.6l-0.2,0.2h-5.7v7.5l-0.2,0.2h-2.9l-0.2-0.2
			V53.5L344.9,53.4L344.9,53.4z"/>
		<path d="M364.8,53.5l0.2-0.2l2.6-0.3l0.2,0.1l7.5,10.7l1,1.7v-12l0.2-0.2l2.9-0.3l0.2,0.2V71l-0.2,0.2h-2.5l-0.2-0.2l-7.5-10.8
			l-1-1.6V71l-0.2,0.2h-2.9l-0.2-0.2L364.8,53.5L364.8,53.5z"/>
		<path d="M388.5,53.6l0.2-0.2l3-0.3l0.2,0.2l6.4,17.8l-0.2,0.2h-3l-0.2-0.2l-1.4-4.1h-6.4l-1.4,4.1l-0.2,0.2h-3l-0.2-0.2
			L388.5,53.6z M392.5,64.2l-1.8-5.4l-0.5-1.8l-0.5,1.8l-1.8,5.4H392.5z"/>
		<path d="M402.9,56.1H398l-0.2-0.2v-2.6l0.2-0.2h13.6l0.2,0.2l-0.6,2.6l-0.2,0.2h-4.6v15l-0.2,0.2h-3l-0.2-0.2L402.9,56.1
			L402.9,56.1z"/>
		<path d="M414,53.6l0.2-0.2l2.9-0.3l0.2,0.2v17.8l-0.2,0.2h-2.9l-0.2-0.2V53.6z"/>
		<path d="M421.5,59.7c0-4.4,2.9-6.7,7.5-6.7s7.5,2.3,7.5,6.7v5.1c0,4.3-2.9,6.7-7.5,6.7s-7.5-2.3-7.5-6.7V59.7z M428.9,68.6
			c2.5,0,4.2-1.2,4.2-3.9V60c0-2.6-1.8-4-4.2-4s-4.2,1.4-4.2,4v4.7C424.7,67.4,426.5,68.6,428.9,68.6z"/>
		<path d="M440.5,53.5l0.2-0.2l2.6-0.3l0.2,0.1l7.5,10.7l1,1.7v-12l0.2-0.2l2.9-0.3l0.2,0.2V71l-0.2,0.2h-2.7l-0.2-0.2l-7.5-10.8
			l-1-1.6V71l-0.2,0.2h-2.9l-0.2-0.2L440.5,53.5L440.5,53.5z"/>
		<path d="M464,53.6l0.2-0.2l3-0.3l0.2,0.2l6.4,17.8l-0.2,0.2h-3l-0.2-0.2L469,67h-6.4l-1.4,4.1l-0.2,0.2h-3l-0.2-0.2L464,53.6z
			 M468,64.2l-1.8-5.4l-0.5-1.8l-0.5,1.8l-1.8,5.4H468z"/>
		<path d="M476.3,53.6l0.2-0.2l2.9-0.3l0.2,0.2v15.1h7.6l0.2,0.2l-0.6,2.6l-0.2,0.2h-9.9l-0.2-0.2L476.3,53.6L476.3,53.6z"/>
	</g>
	<g class="st1">
		<path d="M241.6,82.7l0.2-0.2l4.3-0.5l0.2,0.2l9.5,26.3l-0.2,0.2h-4.5l-0.2-0.2l-2-6h-9.5l-2,6l-0.2,0.2h-4.5l-0.2-0.2L241.6,82.7z
			 M247.5,98.4l-2.6-7.9l-0.7-2.6l-0.7,2.6l-2.6,7.9H247.5z"/>
		<path d="M257.7,106l2.3-3h0.4c1.1,0.9,3.4,2,5.6,2c2.3,0,4.3-1,4.3-3.7c0-2.2-2.2-3.1-4.7-4.1c-3.3-1.3-7.1-2.7-7.1-7.5
			c0-4.9,4-7.9,8.7-7.9s7.7,2.3,7.7,2.3l0.1,0.4l-2.1,3.2l-0.4,0.1c0,0-2.1-1.7-5.1-1.7c-2.6,0-3.8,1.4-3.8,3.4s2.1,2.9,4.3,3.7
			c3.4,1.2,7.4,2.9,7.4,7.9c0,6.2-5.1,8-9.3,8c-4.5,0-8.3-2.8-8.3-2.8V106z"/>
		<path d="M278.9,106l2.3-3h0.4c1.1,0.9,3.4,2,5.6,2c2.3,0,4.3-1,4.3-3.7c0-2.2-2.2-3.1-4.7-4.1c-3.3-1.3-7.1-2.7-7.1-7.5
			c0-4.9,4-7.9,8.7-7.9s7.7,2.3,7.7,2.3l0.1,0.4l-2.1,3.2l-0.4,0.1c0,0-2.1-1.7-5.1-1.7c-2.6,0-3.8,1.4-3.8,3.4s2.1,2.9,4.3,3.7
			c3.4,1.2,7.4,2.9,7.4,7.9c0,6.2-5.1,8-9.3,8c-4.5,0-8.3-2.8-8.3-2.8V106z"/>
		<path d="M301.9,82.4l0.2-0.2h15.1l0.2,0.2v3.8l-0.2,0.2h-10.4v6.2h9.2l0.2,0.3l-1,3.8l-0.3,0.2h-8.1v7.5h10.6l0.2,0.3l-0.6,3.8
			l-0.3,0.2h-14.6l-0.2-0.2L301.9,82.4L301.9,82.4z"/>
		<path d="M321.4,106l2.3-3h0.4c1.1,0.9,3.4,2,5.6,2c2.3,0,4.3-1,4.3-3.7c0-2.2-2.2-3.1-4.7-4.1c-3.3-1.3-7.1-2.7-7.1-7.5
			c0-4.9,4-7.9,8.7-7.9s7.7,2.3,7.7,2.3l0.1,0.4l-2.1,3.2l-0.4,0.1c0,0-2.1-1.7-5.1-1.7c-2.6,0-3.8,1.4-3.8,3.4s2.1,2.9,4.3,3.7
			c3.4,1.2,7.4,2.9,7.4,7.9c0,6.2-5.1,8-9.3,8c-4.5,0-8.3-2.8-8.3-2.8V106z"/>
		<path d="M342.5,106l2.3-3h0.4c1.1,0.9,3.4,2,5.6,2c2.3,0,4.3-1,4.3-3.7c0-2.2-2.2-3.1-4.7-4.1c-3.3-1.3-7.1-2.7-7.1-7.5
			c0-4.9,4-7.9,8.7-7.9s7.7,2.3,7.7,2.3l0.1,0.4l-2.1,3.2l-0.4,0.1c0,0-2.1-1.7-5.1-1.7c-2.6,0-3.8,1.4-3.8,3.4s2.1,2.9,4.3,3.7
			c3.4,1.2,7.4,2.9,7.4,7.9c0,6.2-5.1,8-9.3,8c-4.5,0-8.3-2.8-8.3-2.8V106z"/>
		<path d="M365.5,82.7l0.2-0.2l4.1-0.5l0.3,0.2l8.3,14.7l8.1-14.2l0.3-0.2l4.3-0.5l0.3,0.2v26.4l-0.2,0.2h-4.3l-0.2-0.2V91l-1.4,2.9
			l-4.7,7.9l-0.3,0.2h-3.7l-0.3-0.2l-4.7-7.9l-1.3-2.6v17.5l-0.2,0.2h-4.2l-0.2-0.2V83h-0.2L365.5,82.7L365.5,82.7z"/>
		<path d="M398.4,82.4l0.2-0.2h15.1l0.2,0.2v3.8l-0.2,0.2h-10.4v6.2h9.2l0.2,0.3l-1,3.8l-0.3,0.2h-8.1v7.5h10.6l0.2,0.3l-0.6,3.8
			l-0.3,0.2h-14.6l-0.2-0.2V82.4L398.4,82.4z"/>
		<path d="M419.9,82.6l0.2-0.2l3.9-0.5l0.3,0.2L435.4,98l1.5,2.5V82.7l0.2-0.2l4.3-0.5l0.2,0.2v26.3l-0.2,0.2h-4l-0.3-0.2l-11.1-16
			l-1.4-2.3v18.4l-0.2,0.2h-4.3l-0.2-0.2V82.6z"/>
		<path d="M453.5,86.5h-7.2l-0.2-0.2v-3.8l0.2-0.2h20.1l0.2,0.3l-1,3.8l-0.3,0.2h-6.7v22l-0.2,0.2h-4.5l-0.2-0.2V86.5H453.5z"/>
		<path d="M468,106l2.3-3h0.4c1.1,0.9,3.4,2,5.6,2c2.3,0,4.3-1,4.3-3.7c0-2.2-2.2-3.1-4.7-4.1c-3.3-1.3-7.1-2.7-7.1-7.5
			c0-4.9,4-7.9,8.7-7.9s7.7,2.3,7.7,2.3l0.1,0.4l-2.1,3.2l-0.4,0.1c0,0-2.1-1.7-5.1-1.7c-2.6,0-3.8,1.4-3.8,3.4s2.1,2.9,4.3,3.7
			c3.4,1.2,7.4,2.9,7.4,7.9c0,6.2-5.1,8-9.3,8c-4.5,0-8.3-2.8-8.3-2.8V106z"/>
	</g>
</g>
</svg>
