<?xml version="1.0" encoding="utf-8"?>
<!-- Generator: Adobe Illustrator 19.1.0, SVG Export Plug-In . SVG Version: 6.00 Build 0)  -->
<svg version="1.1" id="Layer_1" xmlns="http://www.w3.org/2000/svg" xmlns:xlink="http://www.w3.org/1999/xlink" x="0px" y="0px"
	 viewBox="160 -60 400 200" style="enable-background:new 160 -60 400 200;" xml:space="preserve">
<path d="M352.3,41.8H350v3.5c0,0.5-0.2,0.8-0.4,1.2c-0.2,0.2-0.5,0.4-0.9,0.4c-0.4,0-0.7-0.2-0.9-0.4c-0.2-0.2-0.3-0.6-0.3-1.2v-9.4
	c0-0.5,0.2-0.9,0.4-1.2c0.2-0.2,0.6-0.4,1.2-0.4h3.1c0.9,0,1.7,0.1,2.1,0.2c0.5,0.2,0.9,0.4,1.3,0.7c0.4,0.3,0.6,0.7,0.8,1.2
	s0.3,1,0.3,1.6c0,1.2-0.4,2.2-1.2,2.8C354.9,41.5,353.7,41.8,352.3,41.8L352.3,41.8z M351.7,36.2H350V40h1.7c0.6,0,1.1-0.1,1.5-0.2
	c0.4-0.1,0.7-0.3,0.9-0.6c0.2-0.3,0.3-0.6,0.3-1.1s-0.2-1-0.5-1.3C353.5,36.3,352.7,36.2,351.7,36.2L351.7,36.2z M364.5,42.7H360
	c0,0.5,0.1,1,0.3,1.4c0.2,0.4,0.5,0.7,0.8,0.9c0.3,0.2,0.7,0.3,1.2,0.3c0.3,0,0.5,0,0.8-0.1c0.2-0.1,0.5-0.2,0.7-0.3
	c0.2-0.1,0.4-0.3,0.6-0.5c0.2-0.2,0.4-0.4,0.7-0.6c0.2-0.1,0.3-0.2,0.5-0.2c0.2,0,0.5,0.1,0.5,0.2c0.1,0.2,0.2,0.3,0.2,0.5
	s-0.1,0.5-0.2,0.7s-0.4,0.5-0.8,0.8c-0.3,0.2-0.8,0.5-1.2,0.6s-1.1,0.2-1.7,0.2c-1.5,0-2.6-0.4-3.5-1.2c-0.9-0.8-1.2-2-1.2-3.4
	c0-0.7,0.1-1.3,0.3-1.8c0.2-0.5,0.5-1.1,0.8-1.5c0.4-0.4,0.8-0.7,1.5-0.9c0.5-0.2,1.2-0.3,1.8-0.3c0.9,0,1.7,0.2,2.3,0.5
	s1.2,0.8,1.5,1.5c0.3,0.6,0.5,1.2,0.5,1.8c0,0.5-0.2,0.9-0.5,1.2C365.6,42.6,365.1,42.7,364.5,42.7L364.5,42.7z M360,41.4h4.1
	c-0.1-0.8-0.2-1.4-0.6-1.8S362.7,39,362,39c-0.5,0-1,0.2-1.4,0.6S360.1,40.6,360,41.4z M370.6,43.5v1.9c0,0.5-0.1,0.8-0.3,1.1
	c-0.2,0.2-0.5,0.4-0.8,0.4c-0.3,0-0.6-0.2-0.8-0.4c-0.2-0.2-0.3-0.6-0.3-1v-6.4c0-1,0.4-1.5,1.1-1.5c0.4,0,0.6,0.2,0.8,0.4
	c0.2,0.2,0.2,0.6,0.3,1.1c0.3-0.5,0.5-0.8,0.8-1.1c0.3-0.2,0.7-0.4,1.2-0.4s0.9,0.2,1.4,0.4c0.5,0.2,0.7,0.5,0.7,0.9
	c0,0.3-0.1,0.5-0.3,0.7s-0.4,0.3-0.6,0.3c-0.1,0-0.3-0.1-0.6-0.2c-0.3-0.1-0.6-0.2-0.8-0.2c-0.3,0-0.6,0.1-0.8,0.2
	c-0.2,0.2-0.4,0.5-0.5,0.8c-0.1,0.3-0.2,0.8-0.2,1.2C370.6,42.2,370.6,42.8,370.6,43.5L370.6,43.5z M382.7,43.8
	c0,0.6-0.2,1.2-0.5,1.6c-0.3,0.5-0.8,0.8-1.4,1c-0.6,0.2-1.3,0.4-2.1,0.4c-0.8,0-1.5-0.2-2.1-0.4c-0.5-0.2-1-0.5-1.3-0.9
	c-0.3-0.4-0.4-0.8-0.4-1.2c0-0.2,0.1-0.5,0.2-0.6c0.1-0.1,0.4-0.2,0.7-0.2c0.2,0,0.5,0.1,0.5,0.2c0.2,0.2,0.2,0.3,0.4,0.5
	c0.2,0.4,0.5,0.7,0.8,0.9c0.3,0.2,0.8,0.3,1.3,0.3s0.8-0.1,1.2-0.3c0.3-0.2,0.5-0.5,0.5-0.7c0-0.4-0.2-0.7-0.5-0.8
	c-0.3-0.2-0.8-0.4-1.5-0.5c-0.8-0.2-1.5-0.4-1.9-0.6c-0.5-0.2-0.9-0.5-1.2-0.8c-0.2-0.4-0.5-0.8-0.5-1.3s0.2-0.9,0.4-1.3
	c0.3-0.4,0.7-0.8,1.2-1s1.2-0.4,1.9-0.4c0.6,0,1.2,0.1,1.6,0.2c0.5,0.2,0.8,0.3,1.2,0.5c0.3,0.2,0.5,0.5,0.7,0.7
	c0.2,0.2,0.2,0.5,0.2,0.8c0,0.2-0.1,0.5-0.2,0.6c-0.2,0.2-0.5,0.2-0.8,0.2c-0.2,0-0.5-0.1-0.6-0.2c-0.2-0.2-0.4-0.3-0.5-0.6
	c-0.2-0.2-0.4-0.4-0.6-0.5c-0.2-0.2-0.5-0.2-0.9-0.2c-0.4,0-0.8,0.1-1,0.2c-0.2,0.2-0.4,0.4-0.4,0.7c0,0.2,0.1,0.5,0.3,0.6
	c0.2,0.2,0.5,0.3,0.8,0.4c0.3,0.1,0.8,0.2,1.4,0.4c0.7,0.2,1.3,0.4,1.8,0.6s0.8,0.5,1,0.8C382.6,43,382.7,43.4,382.7,43.8z
	 M393.2,42.2c0,0.7-0.1,1.3-0.3,1.9c-0.2,0.5-0.5,1.1-0.9,1.5s-0.8,0.7-1.5,0.9c-0.5,0.2-1.2,0.3-1.8,0.3c-0.7,0-1.3-0.1-1.8-0.3
	c-0.5-0.2-1-0.5-1.5-0.9s-0.7-0.9-0.9-1.5s-0.3-1.2-0.3-1.8c0-0.7,0.1-1.3,0.3-1.9c0.2-0.5,0.5-1.1,0.9-1.5s0.8-0.7,1.5-0.9
	c0.5-0.2,1.2-0.3,1.8-0.3c0.7,0,1.3,0.1,1.8,0.3s1.1,0.5,1.5,0.9s0.7,0.9,0.9,1.5C393,40.9,393.2,41.5,393.2,42.2z M390.9,42.2
	c0-0.9-0.2-1.7-0.6-2.1c-0.4-0.5-1-0.8-1.7-0.8c-0.5,0-0.8,0.2-1.2,0.4c-0.3,0.2-0.6,0.5-0.8,1c-0.2,0.5-0.3,1-0.3,1.6
	s0.1,1.2,0.3,1.5c0.2,0.5,0.5,0.8,0.8,1c0.3,0.2,0.8,0.4,1.2,0.4c0.7,0,1.2-0.2,1.7-0.8C390.8,43.8,390.9,43.1,390.9,42.2z
	 M397,38.8v0.3c0.4-0.5,0.8-0.9,1.3-1.2c0.5-0.2,1-0.4,1.6-0.4s1.2,0.2,1.6,0.4c0.5,0.2,0.8,0.6,1.1,1.1c0.2,0.3,0.2,0.6,0.3,0.9
	s0.1,0.8,0.1,1.2v4.2c0,0.5-0.1,0.8-0.3,1c-0.2,0.2-0.5,0.4-0.8,0.4c-0.3,0-0.6-0.2-0.8-0.4c-0.2-0.2-0.3-0.6-0.3-1v-3.8
	c0-0.8-0.1-1.3-0.3-1.7c-0.2-0.4-0.6-0.6-1.2-0.6c-0.4,0-0.8,0.2-1.1,0.4c-0.3,0.2-0.6,0.5-0.8,1c-0.1,0.3-0.2,1-0.2,1.9v2.8
	c0,0.5-0.1,0.8-0.3,1.1c-0.2,0.2-0.5,0.4-0.8,0.4c-0.3,0-0.6-0.2-0.8-0.4c-0.2-0.2-0.3-0.6-0.3-1v-6.6c0-0.5,0.1-0.8,0.3-1
	c0.2-0.2,0.5-0.3,0.8-0.3c0.2,0,0.4,0.1,0.5,0.2c0.2,0.1,0.3,0.2,0.4,0.5C396.9,38.2,397,38.5,397,38.8z M411.1,45.5
	c-0.5,0.5-1.1,0.8-1.6,1s-1.1,0.3-1.8,0.3c-0.6,0-1.1-0.2-1.5-0.4s-0.8-0.5-1-0.9c-0.2-0.4-0.4-0.8-0.4-1.3c0-0.6,0.2-1.2,0.6-1.6
	c0.4-0.4,0.9-0.8,1.6-0.9c0.2,0,0.5-0.1,1.1-0.2c0.5-0.2,1.1-0.2,1.5-0.3s0.8-0.2,1.3-0.4c0-0.6-0.2-1.1-0.4-1.3
	c-0.2-0.2-0.7-0.4-1.3-0.4s-1,0.1-1.3,0.2c-0.3,0.2-0.5,0.4-0.8,0.7c-0.2,0.3-0.4,0.5-0.5,0.6s-0.3,0.2-0.5,0.2
	c-0.2,0-0.5-0.1-0.7-0.2c-0.2-0.2-0.3-0.4-0.3-0.6c0-0.4,0.2-0.8,0.5-1.2c0.3-0.4,0.7-0.7,1.3-0.9c0.6-0.2,1.4-0.4,2.2-0.4
	c1,0,1.8,0.2,2.4,0.4c0.5,0.2,1,0.6,1.2,1.2c0.2,0.5,0.4,1.2,0.4,2.1v2.6c0,0.5,0.1,0.8,0.2,1.3c0.2,0.5,0.2,0.8,0.2,0.9
	c0,0.2-0.1,0.5-0.3,0.6c-0.2,0.2-0.5,0.3-0.8,0.3c-0.2,0-0.5-0.1-0.7-0.3C411.5,46.2,411.3,45.9,411.1,45.5z M410.9,42.2
	c-0.3,0.2-0.8,0.2-1.5,0.4c-0.6,0.2-1.1,0.2-1.3,0.3c-0.2,0.1-0.5,0.2-0.7,0.4c-0.2,0.2-0.3,0.5-0.3,0.8c0,0.4,0.2,0.6,0.4,0.8
	c0.2,0.2,0.6,0.4,1,0.4c0.5,0,0.8-0.1,1.2-0.3s0.7-0.5,0.8-0.8c0.2-0.4,0.3-0.9,0.3-1.7L410.9,42.2L410.9,42.2z M415.4,45.4v-9.9
	c0-0.5,0.1-0.8,0.3-1.1c0.2-0.2,0.5-0.4,0.8-0.4c0.3,0,0.6,0.2,0.8,0.4c0.2,0.2,0.3,0.6,0.3,1.1v9.9c0,0.5-0.1,0.8-0.3,1.1
	c-0.2,0.2-0.5,0.4-0.8,0.4c-0.3,0-0.6-0.2-0.8-0.4C415.6,46.1,415.4,45.8,415.4,45.4z M429.2,41.8h-2.3v3.5c0,0.5-0.2,0.8-0.4,1.2
	c-0.2,0.2-0.5,0.4-0.9,0.4s-0.7-0.2-0.9-0.4c-0.2-0.2-0.3-0.6-0.3-1.2v-9.4c0-0.5,0.2-0.9,0.4-1.2c0.2-0.2,0.6-0.4,1.2-0.4h3.1
	c0.9,0,1.7,0.1,2.1,0.2c0.5,0.2,0.9,0.4,1.3,0.7c0.4,0.3,0.6,0.7,0.8,1.2c0.2,0.5,0.3,1,0.3,1.6c0,1.2-0.4,2.2-1.2,2.8
	C431.9,41.5,430.8,41.8,429.2,41.8z M428.7,36.2H427V40h1.7c0.6,0,1.1-0.1,1.5-0.2s0.7-0.3,0.9-0.6c0.2-0.3,0.3-0.6,0.3-1.1
	s-0.2-1-0.5-1.3C430.6,36.3,429.8,36.2,428.7,36.2z M438.1,43.5v1.9c0,0.5-0.1,0.8-0.3,1.1c-0.2,0.2-0.5,0.4-0.8,0.4
	c-0.3,0-0.6-0.2-0.8-0.4c-0.2-0.2-0.3-0.6-0.3-1v-6.4c0-1,0.4-1.5,1.1-1.5c0.4,0,0.6,0.2,0.8,0.4c0.2,0.2,0.2,0.6,0.3,1.1
	c0.3-0.5,0.5-0.8,0.8-1.1c0.3-0.2,0.7-0.4,1.2-0.4s0.9,0.2,1.4,0.4c0.5,0.2,0.7,0.5,0.7,0.9c0,0.3-0.1,0.5-0.3,0.7
	c-0.2,0.2-0.4,0.3-0.6,0.3c-0.1,0-0.3-0.1-0.6-0.2c-0.3-0.1-0.6-0.2-0.8-0.2c-0.3,0-0.6,0.1-0.8,0.2c-0.2,0.2-0.4,0.5-0.5,0.8
	s-0.2,0.8-0.2,1.2C438.1,42.2,438.1,42.8,438.1,43.5z M451.2,42.2c0,0.7-0.1,1.3-0.3,1.9c-0.2,0.5-0.5,1.1-0.9,1.5s-0.8,0.7-1.5,0.9
	c-0.5,0.2-1.2,0.3-1.9,0.3c-0.7,0-1.3-0.1-1.8-0.3c-0.5-0.2-1-0.5-1.5-0.9s-0.7-0.9-0.9-1.5c-0.2-0.5-0.3-1.2-0.3-1.8
	c0-0.7,0.1-1.3,0.3-1.9c0.2-0.5,0.5-1.1,0.9-1.5s0.8-0.7,1.5-0.9c0.6-0.2,1.2-0.3,1.8-0.3c0.7,0,1.3,0.1,1.9,0.3
	c0.5,0.2,1.1,0.5,1.5,0.9s0.7,0.9,0.9,1.5C451,40.9,451.2,41.5,451.2,42.2z M448.9,42.2c0-0.9-0.2-1.7-0.6-2.1
	c-0.4-0.5-1-0.8-1.7-0.8c-0.5,0-0.8,0.2-1.2,0.4c-0.3,0.2-0.6,0.5-0.8,1c-0.2,0.5-0.3,1-0.3,1.6s0.1,1.2,0.3,1.5
	c0.2,0.5,0.5,0.8,0.8,1c0.3,0.2,0.8,0.4,1.2,0.4c0.7,0,1.2-0.2,1.7-0.8C448.8,43.8,448.9,43.1,448.9,42.2L448.9,42.2z M455.1,38.8
	v0.3c0.5-0.5,0.8-0.9,1.3-1.2s1-0.4,1.5-0.4c0.7,0,1.4,0.2,1.9,0.5c0.6,0.4,1.1,0.9,1.4,1.6s0.5,1.5,0.5,2.5c0,0.7-0.1,1.4-0.3,1.9
	c-0.2,0.6-0.5,1.1-0.8,1.5c-0.3,0.4-0.8,0.7-1.2,0.9c-0.5,0.2-1,0.3-1.5,0.3c-0.6,0-1.2-0.2-1.6-0.4c-0.5-0.2-0.8-0.6-1.2-1.2v3.5
	c0,1-0.4,1.5-1.1,1.5c-0.5,0-0.7-0.2-0.8-0.4c-0.2-0.2-0.2-0.6-0.2-1.2v-9.9c0-0.5,0.1-0.8,0.3-1c0.2-0.2,0.5-0.3,0.8-0.3
	c0.3,0,0.6,0.1,0.8,0.3C454.9,38,455.1,38.4,455.1,38.8z M459.6,42.1c0-0.6-0.1-1.2-0.3-1.5c-0.2-0.5-0.5-0.8-0.8-1
	c-0.3-0.2-0.7-0.4-1.1-0.4c-0.6,0-1.2,0.2-1.6,0.8c-0.5,0.5-0.6,1.2-0.6,2.2c0,0.9,0.2,1.6,0.6,2.1c0.5,0.5,1,0.8,1.6,0.8
	c0.4,0,0.8-0.1,1.1-0.3c0.3-0.2,0.6-0.5,0.8-1C459.4,43.2,459.6,42.7,459.6,42.1z M470,42.7h-4.5c0,0.5,0.1,1,0.3,1.4
	c0.2,0.4,0.5,0.7,0.8,0.9c0.3,0.2,0.7,0.3,1.2,0.3c0.3,0,0.5,0,0.8-0.1c0.2-0.1,0.5-0.2,0.7-0.3c0.2-0.2,0.4-0.3,0.6-0.5
	c0.2-0.2,0.4-0.4,0.7-0.6c0.2-0.1,0.3-0.2,0.5-0.2c0.2,0,0.5,0.1,0.5,0.2c0.1,0.2,0.2,0.3,0.2,0.5s-0.1,0.5-0.2,0.7
	c-0.2,0.3-0.4,0.5-0.8,0.8c-0.3,0.2-0.8,0.5-1.2,0.6s-1.1,0.2-1.7,0.2c-1.5,0-2.6-0.4-3.5-1.2s-1.2-2-1.2-3.4c0-0.7,0.1-1.3,0.3-1.8
	c0.2-0.5,0.5-1.1,0.8-1.5c0.4-0.4,0.8-0.7,1.5-0.9c0.5-0.2,1.2-0.3,1.8-0.3c0.9,0,1.7,0.2,2.3,0.5c0.6,0.4,1.2,0.8,1.5,1.5
	c0.3,0.7,0.5,1.2,0.5,1.8c0,0.5-0.2,0.9-0.5,1.2C471.1,42.6,470.6,42.7,470,42.7L470,42.7z M465.5,41.4h4.1
	c-0.1-0.8-0.2-1.4-0.6-1.8c-0.4-0.4-0.8-0.6-1.5-0.6c-0.5,0-1,0.2-1.4,0.6S465.6,40.6,465.5,41.4L465.5,41.4z M476.1,43.5v1.9
	c0,0.5-0.1,0.8-0.3,1.1c-0.2,0.2-0.5,0.4-0.8,0.4c-0.3,0-0.6-0.2-0.8-0.4c-0.2-0.2-0.3-0.6-0.3-1v-6.4c0-1,0.4-1.5,1.1-1.5
	c0.4,0,0.6,0.2,0.8,0.4c0.2,0.2,0.2,0.6,0.3,1.1c0.3-0.5,0.5-0.8,0.8-1.1c0.3-0.2,0.7-0.4,1.2-0.4s0.9,0.2,1.4,0.4
	c0.5,0.2,0.7,0.5,0.7,0.9c0,0.3-0.1,0.5-0.3,0.7c-0.2,0.2-0.4,0.3-0.6,0.3c-0.1,0-0.3-0.1-0.6-0.2c-0.3-0.1-0.6-0.2-0.8-0.2
	c-0.3,0-0.6,0.1-0.8,0.2c-0.2,0.2-0.4,0.5-0.5,0.8c-0.2,0.3-0.2,0.8-0.2,1.2S476.1,42.8,476.1,43.5z M481.7,37.7h0.2v-1.4v-0.8
	c0-0.2,0.1-0.4,0.2-0.5c0.1-0.2,0.2-0.3,0.4-0.4c0.2-0.1,0.4-0.2,0.5-0.2c0.3,0,0.5,0.1,0.8,0.3c0.2,0.2,0.2,0.3,0.3,0.5
	s0.1,0.5,0.1,0.9v1.5h0.8c0.3,0,0.5,0.1,0.8,0.2c0.2,0.2,0.2,0.4,0.2,0.6c0,0.3-0.2,0.5-0.4,0.6c-0.2,0.2-0.6,0.2-1.1,0.2H484v5.1
	c0,0.2,0.1,0.4,0.2,0.5c0.1,0.2,0.3,0.2,0.5,0.2c0.2,0,0.3,0,0.5-0.1c0.2-0.1,0.4-0.1,0.5-0.1c0.2,0,0.4,0.1,0.5,0.2
	c0.2,0.2,0.2,0.3,0.2,0.5c0,0.4-0.2,0.6-0.6,0.8c-0.4,0.2-1,0.3-1.8,0.3c-0.7,0-1.2-0.2-1.6-0.4c-0.4-0.2-0.6-0.5-0.7-1
	c-0.1-0.5-0.2-1-0.2-1.7v-4.4h-0.3c-0.3,0-0.6-0.1-0.8-0.2c-0.2-0.2-0.2-0.4-0.2-0.6s0.1-0.5,0.3-0.6
	C481,37.8,481.3,37.7,481.7,37.7L481.7,37.7z M489.7,47.1l0.2-0.5l-2.8-7.1c-0.2-0.4-0.2-0.7-0.2-0.9c0-0.2,0.1-0.4,0.2-0.5
	c0.1-0.2,0.2-0.3,0.4-0.4c0.2-0.1,0.4-0.2,0.5-0.2c0.3,0,0.6,0.1,0.8,0.3c0.2,0.2,0.3,0.5,0.5,0.9l1.9,5.6l1.8-5.2
	c0.2-0.5,0.3-0.8,0.4-1c0.2-0.2,0.2-0.4,0.4-0.5c0.2-0.1,0.3-0.2,0.5-0.2c0.2,0,0.3,0.1,0.5,0.2c0.2,0.1,0.3,0.2,0.4,0.4
	c0.1,0.2,0.2,0.3,0.2,0.5c0,0.1-0.1,0.2-0.1,0.5c-0.1,0.2-0.1,0.4-0.2,0.6l-3,7.7c-0.2,0.7-0.5,1.2-0.8,1.6c-0.2,0.4-0.5,0.7-1,0.9
	c-0.4,0.2-0.9,0.3-1.6,0.3s-1.2-0.1-1.5-0.2c-0.3-0.2-0.5-0.4-0.5-0.8c0-0.2,0.1-0.5,0.2-0.6c0.1-0.1,0.4-0.2,0.7-0.2
	c0.2,0,0.2,0,0.4,0.1c0.2,0,0.3,0.1,0.4,0.1c0.2,0,0.5-0.1,0.6-0.2c0.2-0.1,0.3-0.2,0.4-0.4C489.4,47.7,489.6,47.5,489.7,47.1z
	 M356.8,63.4c0,0.8-0.2,1.4-0.5,2c-0.3,0.6-0.9,1.1-1.7,1.4s-1.6,0.5-2.6,0.5c-1.2,0-2.2-0.2-3-0.7c-0.5-0.3-1-0.8-1.4-1.3
	s-0.5-1.1-0.5-1.6c0-0.3,0.1-0.5,0.3-0.8c0.2-0.3,0.5-0.3,0.8-0.3c0.2,0,0.5,0.1,0.7,0.2c0.2,0.2,0.3,0.4,0.5,0.8
	c0.2,0.4,0.3,0.7,0.5,1c0.2,0.2,0.5,0.5,0.8,0.6c0.3,0.2,0.8,0.2,1.3,0.2c0.8,0,1.3-0.2,1.8-0.5s0.7-0.8,0.7-1.3
	c0-0.4-0.2-0.8-0.4-1c-0.2-0.2-0.5-0.5-1-0.6c-0.4-0.2-0.9-0.3-1.6-0.5c-0.8-0.2-1.6-0.5-2.2-0.7c-0.6-0.3-1.1-0.6-1.4-1.2
	c-0.4-0.5-0.5-1.1-0.5-1.8c0-0.7,0.2-1.3,0.5-1.8c0.4-0.5,0.9-0.9,1.6-1.2c0.7-0.3,1.5-0.4,2.5-0.4c0.8,0,1.4,0.1,1.9,0.3
	c0.5,0.2,1,0.5,1.4,0.8s0.6,0.6,0.8,1c0.2,0.4,0.2,0.7,0.2,1s-0.1,0.5-0.3,0.8c-0.2,0.3-0.5,0.4-0.8,0.4c-0.3,0-0.5-0.1-0.6-0.2
	c-0.2-0.2-0.3-0.4-0.5-0.7c-0.2-0.5-0.5-0.8-0.8-1.1c-0.3-0.2-0.8-0.4-1.5-0.4c-0.6,0-1.2,0.2-1.5,0.4c-0.3,0.2-0.6,0.6-0.6,1
	c0,0.2,0.1,0.5,0.2,0.6c0.1,0.1,0.3,0.3,0.5,0.5c0.2,0.2,0.5,0.2,0.7,0.3c0.2,0.1,0.6,0.2,1.2,0.3c0.7,0.2,1.3,0.3,1.8,0.5
	s1.1,0.5,1.5,0.7s0.7,0.6,0.9,1.1C356.7,62.3,356.8,62.8,356.8,63.4L356.8,63.4z M365.1,63.3h-4.5c0,0.5,0.1,1,0.3,1.4
	c0.2,0.4,0.5,0.7,0.8,0.9c0.3,0.2,0.7,0.3,1.2,0.3c0.3,0,0.5,0,0.8-0.1c0.2-0.1,0.5-0.2,0.7-0.3c0.2-0.2,0.4-0.3,0.6-0.5
	c0.2-0.2,0.4-0.4,0.7-0.6c0.2-0.1,0.3-0.2,0.5-0.2c0.2,0,0.5,0.1,0.5,0.2s0.2,0.3,0.2,0.5s-0.1,0.5-0.2,0.7
	c-0.2,0.2-0.4,0.5-0.8,0.8c-0.3,0.2-0.8,0.5-1.2,0.6c-0.5,0.2-1.1,0.2-1.7,0.2c-1.5,0-2.6-0.4-3.5-1.2c-0.8-0.8-1.2-2-1.2-3.4
	c0-0.7,0.1-1.3,0.3-1.8s0.5-1.1,0.8-1.5c0.3-0.4,0.8-0.7,1.5-0.9c0.5-0.2,1.2-0.3,1.8-0.3c0.9,0,1.7,0.2,2.3,0.5
	c0.6,0.4,1.2,0.8,1.5,1.5c0.3,0.6,0.5,1.2,0.5,1.8c0,0.5-0.2,0.9-0.5,1.2C366.2,63.1,365.7,63.3,365.1,63.3L365.1,63.3z M360.7,62
	h4.1c-0.1-0.8-0.2-1.4-0.6-1.8c-0.4-0.4-0.8-0.6-1.5-0.6c-0.5,0-1,0.2-1.4,0.6C360.9,60.6,360.7,61.2,360.7,62z M377.1,64.5
	c0,0.3-0.1,0.6-0.2,0.9c-0.2,0.3-0.5,0.6-0.8,0.9c-0.4,0.3-0.8,0.5-1.3,0.7s-1.2,0.2-1.8,0.2c-1.4,0-2.5-0.4-3.3-1.2
	c-0.8-0.8-1.2-1.9-1.2-3.3c0-0.9,0.2-1.8,0.5-2.5c0.4-0.7,0.9-1.3,1.5-1.7c0.7-0.4,1.5-0.6,2.5-0.6c0.6,0,1.2,0.1,1.6,0.2
	c0.4,0.1,0.9,0.4,1.2,0.7c0.3,0.3,0.6,0.5,0.8,0.8c0.2,0.3,0.3,0.6,0.3,0.8c0,0.3-0.1,0.5-0.3,0.7c-0.2,0.2-0.5,0.3-0.8,0.3
	c-0.2,0-0.4-0.1-0.5-0.2c-0.2-0.1-0.2-0.2-0.4-0.5c-0.3-0.5-0.5-0.8-0.8-0.9c-0.3-0.2-0.7-0.3-1.2-0.3c-0.7,0-1.2,0.2-1.6,0.8
	c-0.4,0.5-0.6,1.2-0.6,2.1c0,0.5,0.1,0.8,0.2,1.2c0.1,0.4,0.2,0.7,0.5,0.9c0.3,0.2,0.5,0.5,0.7,0.6c0.2,0.2,0.6,0.2,0.9,0.2
	c0.5,0,0.8-0.1,1.2-0.3c0.3-0.2,0.6-0.5,0.8-1c0.2-0.2,0.3-0.5,0.5-0.6c0.2-0.2,0.4-0.2,0.6-0.2c0.3,0,0.5,0.1,0.7,0.3
	C377,64,377.1,64.3,377.1,64.5L377.1,64.5z M385.1,66v-0.3c-0.3,0.4-0.5,0.6-0.8,0.8c-0.3,0.2-0.6,0.4-1,0.5
	c-0.4,0.1-0.8,0.2-1.2,0.2c-0.5,0-1.1-0.1-1.5-0.3c-0.5-0.2-0.8-0.5-1-0.9c-0.3-0.5-0.5-1.2-0.5-2.1v-4.5c0-0.5,0.1-0.8,0.3-1
	c0.2-0.2,0.5-0.3,0.8-0.3c0.4,0,0.6,0.1,0.8,0.3c0.2,0.2,0.3,0.5,0.3,1v3.7c0,0.5,0.1,1,0.2,1.3c0.1,0.4,0.2,0.6,0.5,0.8
	c0.3,0.2,0.5,0.3,0.9,0.3c0.4,0,0.8-0.1,1.1-0.3c0.3-0.2,0.6-0.5,0.8-0.9c0.2-0.3,0.2-1,0.2-2.1v-2.8c0-0.5,0.1-0.8,0.3-1
	c0.2-0.2,0.5-0.3,0.8-0.3c0.3,0,0.6,0.1,0.8,0.3c0.2,0.2,0.3,0.5,0.3,1V66c0,0.5-0.1,0.8-0.3,1c-0.2,0.2-0.5,0.3-0.8,0.3
	c-0.3,0-0.5-0.1-0.8-0.3C385.1,66.8,385.1,66.4,385.1,66L385.1,66z M391.7,64v1.9c0,0.5-0.1,0.8-0.3,1.1c-0.2,0.2-0.5,0.4-0.8,0.4
	c-0.3,0-0.6-0.2-0.8-0.4c-0.2-0.2-0.3-0.6-0.3-1v-6.4c0-1,0.4-1.5,1.1-1.5c0.4,0,0.6,0.2,0.8,0.4c0.2,0.2,0.2,0.6,0.3,1.1
	c0.3-0.5,0.5-0.8,0.8-1.1c0.3-0.2,0.7-0.4,1.2-0.4s0.9,0.2,1.4,0.4c0.5,0.2,0.7,0.5,0.7,0.9c0,0.3-0.1,0.5-0.3,0.7
	c-0.2,0.2-0.4,0.3-0.6,0.3c-0.1,0-0.3-0.1-0.6-0.2c-0.3-0.1-0.6-0.2-0.8-0.2c-0.3,0-0.6,0.1-0.8,0.2c-0.2,0.2-0.4,0.5-0.5,0.8
	s-0.2,0.8-0.2,1.2C391.7,62.7,391.7,63.3,391.7,64L391.7,64z M398.1,57c-0.3,0-0.6-0.1-0.8-0.3c-0.2-0.2-0.3-0.5-0.3-0.8
	s0.2-0.6,0.4-0.8c0.2-0.2,0.5-0.3,0.8-0.3c0.3,0,0.5,0.1,0.8,0.3c0.2,0.2,0.3,0.5,0.3,0.8s-0.1,0.6-0.3,0.8
	C398.6,56.9,398.4,57,398.1,57z M399.2,59.3v6.6c0,0.5-0.1,0.8-0.3,1c-0.2,0.2-0.5,0.4-0.8,0.4c-0.3,0-0.6-0.2-0.8-0.4
	c-0.2-0.2-0.3-0.6-0.3-1v-6.5c0-0.5,0.1-0.8,0.3-1c0.2-0.2,0.5-0.3,0.8-0.3c0.3,0,0.6,0.1,0.8,0.3C399.1,58.6,399.2,58.9,399.2,59.3
	z M401.7,58.2h0.2v-1.3V56c0,0,0.1-0.4,0.2-0.5c0.1-0.2,0.2-0.3,0.4-0.4c0.2-0.1,0.4-0.2,0.5-0.2c0.3,0,0.5,0.1,0.8,0.3
	c0.2,0.2,0.2,0.3,0.3,0.5s0.1,0.5,0.1,0.9v1.5h0.8c0.3,0,0.5,0.1,0.8,0.2c0.2,0.2,0.2,0.4,0.2,0.6c0,0.3-0.2,0.5-0.4,0.6
	c-0.2,0.2-0.6,0.2-1.1,0.2H404v5.1c0,0.2,0.1,0.4,0.2,0.5c0.1,0.2,0.3,0.2,0.5,0.2c0.2,0,0.3,0,0.5-0.1c0.2-0.1,0.4-0.1,0.5-0.1
	c0.2,0,0.4,0.1,0.5,0.2s0.2,0.3,0.2,0.5c0,0.4-0.2,0.6-0.6,0.8c-0.4,0.2-1,0.3-1.8,0.3c-0.7,0-1.2-0.2-1.6-0.4
	c-0.4-0.2-0.6-0.5-0.7-1s-0.2-1-0.2-1.7v-4.4h-0.3c-0.3,0-0.6-0.1-0.8-0.2c-0.2-0.2-0.2-0.4-0.2-0.6s0.1-0.5,0.3-0.6
	C401.1,58.3,401.3,58.2,401.7,58.2L401.7,58.2z M408.8,57c-0.3,0-0.6-0.1-0.8-0.3c-0.2-0.2-0.3-0.5-0.3-0.8s0.2-0.6,0.4-0.8
	c0.2-0.2,0.5-0.3,0.8-0.3c0.3,0,0.5,0.1,0.8,0.3c0.2,0.2,0.3,0.5,0.3,0.8s-0.1,0.6-0.3,0.8C409.4,56.9,409.1,57,408.8,57z
	 M409.9,59.3v6.6c0,0.5-0.1,0.8-0.3,1c-0.2,0.2-0.5,0.4-0.8,0.4c-0.3,0-0.6-0.2-0.8-0.4c-0.2-0.2-0.3-0.6-0.3-1v-6.5
	c0-0.5,0.1-0.8,0.3-1c0.2-0.2,0.5-0.3,0.8-0.3c0.3,0,0.6,0.1,0.8,0.3C409.8,58.6,409.9,58.9,409.9,59.3z M418.7,63.3h-4.5
	c0,0.5,0.1,1,0.3,1.4c0.2,0.4,0.5,0.7,0.8,0.9c0.3,0.2,0.7,0.3,1.2,0.3c0.3,0,0.5,0,0.8-0.1c0.2-0.1,0.5-0.2,0.7-0.3
	c0.2-0.2,0.4-0.3,0.6-0.5s0.4-0.4,0.7-0.6c0.2-0.1,0.3-0.2,0.5-0.2c0.2,0,0.5,0.1,0.5,0.2s0.2,0.3,0.2,0.5s-0.1,0.5-0.2,0.7
	c-0.2,0.2-0.4,0.5-0.8,0.8c-0.3,0.2-0.8,0.5-1.2,0.6c-0.5,0.2-1.1,0.2-1.7,0.2c-1.5,0-2.6-0.4-3.5-1.2c-0.8-0.8-1.2-2-1.2-3.4
	c0-0.7,0.1-1.3,0.3-1.8c0.2-0.5,0.5-1.1,0.8-1.5c0.3-0.4,0.8-0.7,1.5-0.9c0.5-0.2,1.2-0.3,1.8-0.3c0.9,0,1.7,0.2,2.3,0.5
	c0.6,0.4,1.2,0.8,1.5,1.5c0.3,0.6,0.5,1.2,0.5,1.8c0,0.5-0.2,0.9-0.5,1.2C419.7,63.1,419.2,63.3,418.7,63.3L418.7,63.3z M414.1,62
	h4.1c-0.1-0.8-0.2-1.4-0.6-1.8c-0.4-0.4-0.8-0.6-1.5-0.6c-0.5,0-1,0.2-1.4,0.6S414.2,61.2,414.1,62L414.1,62z M429.8,64.3
	c0,0.6-0.2,1.2-0.5,1.6c-0.3,0.5-0.8,0.8-1.4,1c-0.6,0.2-1.3,0.4-2.1,0.4c-0.8,0-1.5-0.2-2.1-0.4s-1-0.5-1.3-0.9
	c-0.3-0.4-0.4-0.8-0.4-1.2c0-0.2,0.1-0.5,0.2-0.6c0.2-0.2,0.4-0.2,0.7-0.2c0.2,0,0.5,0.1,0.5,0.2c0.2,0.2,0.2,0.3,0.4,0.5
	c0.2,0.4,0.5,0.7,0.8,0.9c0.3,0.2,0.8,0.3,1.3,0.3s0.8-0.1,1.2-0.3c0.3-0.2,0.5-0.5,0.5-0.7c0-0.4-0.2-0.7-0.5-0.8
	c-0.3-0.2-0.8-0.4-1.5-0.5c-0.8-0.2-1.5-0.4-1.9-0.6c-0.5-0.2-0.9-0.5-1.2-0.8c-0.3-0.4-0.5-0.8-0.5-1.3s0.2-0.9,0.4-1.3
	c0.3-0.4,0.7-0.8,1.2-1s1.2-0.4,1.9-0.4c0.6,0,1.2,0.1,1.6,0.2c0.5,0.2,0.8,0.3,1.2,0.5c0.3,0.2,0.5,0.5,0.7,0.7
	c0.2,0.2,0.2,0.5,0.2,0.8c0,0.2-0.1,0.5-0.2,0.6c-0.2,0.2-0.5,0.2-0.8,0.2c-0.2,0-0.5-0.1-0.6-0.2c-0.2-0.2-0.4-0.3-0.5-0.6
	c-0.2-0.2-0.4-0.4-0.6-0.5c-0.2-0.2-0.5-0.2-0.9-0.2s-0.8,0.1-1,0.2c-0.3,0.2-0.4,0.4-0.4,0.7c0,0.2,0.1,0.5,0.3,0.6
	c0.2,0.2,0.5,0.3,0.8,0.4c0.3,0.1,0.8,0.2,1.4,0.4c0.7,0.2,1.3,0.4,1.8,0.6s0.8,0.5,1,0.8C429.6,63.6,429.8,63.9,429.8,64.3
	L429.8,64.3z M439.5,61.9h-0.8v3.9c0,0.5-0.1,0.9-0.3,1.2c-0.2,0.2-0.5,0.4-0.9,0.4s-0.7-0.2-0.9-0.4c-0.2-0.2-0.3-0.6-0.3-1.2v-9.4
	c0-0.5,0.2-0.9,0.4-1.2c0.2-0.2,0.6-0.4,1.2-0.4h4.1c0.5,0,1,0,1.5,0.1s0.8,0.2,1.1,0.3c0.4,0.2,0.7,0.4,1,0.7
	c0.3,0.3,0.5,0.6,0.7,1.1c0.2,0.4,0.2,0.8,0.2,1.2c0,0.9-0.2,1.6-0.8,2.2c-0.5,0.5-1.3,0.9-2.4,1.2c0.5,0.2,0.8,0.6,1.2,1
	c0.4,0.5,0.8,0.9,1.1,1.5c0.3,0.5,0.5,1,0.8,1.4c0.2,0.4,0.2,0.7,0.2,0.8c0,0.2-0.1,0.3-0.2,0.5c-0.1,0.2-0.2,0.3-0.5,0.4
	c-0.2,0.1-0.4,0.2-0.6,0.2c-0.3,0-0.5-0.1-0.7-0.2c-0.2-0.2-0.4-0.3-0.5-0.5c-0.2-0.2-0.3-0.5-0.5-0.9l-1-1.7
	c-0.4-0.6-0.7-1.1-0.9-1.4c-0.3-0.3-0.5-0.5-0.8-0.6C440.3,61.9,439.9,61.9,439.5,61.9L439.5,61.9z M440.9,56.7h-2.3v3.4h2.2
	c0.6,0,1.1-0.1,1.5-0.2s0.7-0.3,0.9-0.5c0.2-0.2,0.3-0.6,0.3-1c0-0.3-0.1-0.6-0.2-0.9c-0.2-0.2-0.4-0.5-0.7-0.6
	C442.3,56.7,441.8,56.7,440.9,56.7L440.9,56.7z M454.3,63.3h-4.5c0,0.5,0.1,1,0.3,1.4c0.2,0.4,0.5,0.7,0.8,0.9
	c0.3,0.2,0.7,0.3,1.2,0.3c0.3,0,0.5,0,0.8-0.1c0.2-0.1,0.5-0.2,0.7-0.3c0.2-0.2,0.4-0.3,0.6-0.5s0.4-0.4,0.7-0.6
	c0.2-0.1,0.3-0.2,0.5-0.2c0.2,0,0.5,0.1,0.5,0.2c0.1,0.2,0.2,0.3,0.2,0.5s-0.1,0.5-0.2,0.7c-0.2,0.3-0.4,0.5-0.8,0.8
	c-0.3,0.2-0.8,0.5-1.2,0.6c-0.5,0.2-1.1,0.2-1.7,0.2c-1.5,0-2.6-0.4-3.5-1.2c-0.8-0.8-1.2-2-1.2-3.4c0-0.7,0.1-1.3,0.3-1.8
	c0.2-0.5,0.5-1.1,0.8-1.5c0.3-0.4,0.8-0.7,1.5-0.9c0.5-0.2,1.2-0.3,1.8-0.3c0.9,0,1.7,0.2,2.3,0.5c0.6,0.4,1.2,0.8,1.5,1.5
	c0.3,0.6,0.5,1.2,0.5,1.8c0,0.5-0.2,0.9-0.5,1.2C455.3,63.1,454.8,63.3,454.3,63.3L454.3,63.3z M449.7,62h4.1
	c-0.1-0.8-0.2-1.4-0.6-1.8c-0.4-0.4-0.8-0.6-1.5-0.6c-0.5,0-1,0.2-1.4,0.6S449.8,61.2,449.7,62L449.7,62z M466.2,59.7v6.6
	c0,0.8-0.1,1.4-0.2,1.9c-0.2,0.5-0.4,1-0.8,1.4c-0.4,0.4-0.8,0.6-1.4,0.8c-0.6,0.2-1.3,0.2-2.1,0.2c-0.8,0-1.5-0.1-2.1-0.3
	s-1.1-0.5-1.5-0.8c-0.3-0.4-0.5-0.7-0.5-1.1c0-0.3,0.1-0.5,0.3-0.7c0.2-0.2,0.4-0.2,0.7-0.2c0.3,0,0.6,0.2,0.8,0.5
	c0.2,0.2,0.2,0.3,0.4,0.5c0.2,0.2,0.3,0.3,0.5,0.4c0.2,0.1,0.4,0.2,0.5,0.2c0.2,0.1,0.5,0.1,0.8,0.1c0.6,0,1.1-0.1,1.4-0.2
	c0.3-0.2,0.5-0.4,0.7-0.7c0.2-0.3,0.2-0.6,0.2-0.9s0.1-0.8,0.1-1.6c-0.4,0.5-0.8,0.8-1.2,1.2c-0.5,0.3-1,0.4-1.6,0.4
	c-0.8,0-1.5-0.2-2-0.6s-1-0.9-1.3-1.6c-0.3-0.7-0.5-1.5-0.5-2.5c0-0.7,0.1-1.3,0.3-1.8c0.2-0.5,0.5-1,0.8-1.4
	c0.4-0.4,0.8-0.7,1.2-0.8c0.5-0.2,0.9-0.3,1.5-0.3s1.2,0.2,1.7,0.4c0.5,0.2,0.9,0.6,1.3,1.2v-0.3c0-0.4,0.1-0.7,0.3-0.9
	c0.2-0.2,0.5-0.3,0.8-0.3c0.5,0,0.8,0.2,0.8,0.5C466.1,58.7,466.2,59.2,466.2,59.7L466.2,59.7z M459.6,62.6c0,0.9,0.2,1.6,0.6,2.1
	s0.9,0.7,1.5,0.7c0.4,0,0.8-0.1,1.1-0.3c0.3-0.2,0.6-0.5,0.8-0.9c0.2-0.4,0.3-0.9,0.3-1.5c0-0.9-0.2-1.7-0.6-2.1
	c-0.4-0.5-0.9-0.8-1.6-0.8c-0.6,0-1.2,0.2-1.5,0.8C459.8,61,459.6,61.6,459.6,62.6z M469.7,57c-0.3,0-0.6-0.1-0.8-0.3
	c-0.2-0.2-0.3-0.5-0.3-0.8s0.2-0.6,0.4-0.8c0.2-0.2,0.5-0.3,0.8-0.3c0.3,0,0.5,0.1,0.8,0.3c0.2,0.2,0.3,0.5,0.3,0.8
	s-0.1,0.6-0.3,0.8C470.3,57,470,57,469.7,57z M470.8,59.3v6.6c0,0.5-0.1,0.8-0.3,1c-0.2,0.2-0.5,0.4-0.8,0.4c-0.3,0-0.6-0.2-0.8-0.4
	c-0.2-0.2-0.3-0.6-0.3-1v-6.5c0-0.5,0.1-0.8,0.3-1c0.2-0.2,0.5-0.3,0.8-0.3c0.3,0,0.6,0.1,0.8,0.3C470.7,58.7,470.8,58.9,470.8,59.3
	z M480.5,64.3c0,0.6-0.2,1.2-0.5,1.6c-0.3,0.5-0.8,0.8-1.4,1s-1.3,0.4-2.1,0.4c-0.8,0-1.5-0.2-2.1-0.4c-0.6-0.2-1-0.5-1.3-0.9
	c-0.3-0.4-0.4-0.8-0.4-1.2c0-0.2,0.1-0.5,0.2-0.6c0.2-0.2,0.4-0.2,0.7-0.2c0.2,0,0.5,0.1,0.5,0.2c0.2,0.2,0.2,0.3,0.4,0.5
	c0.2,0.4,0.5,0.7,0.8,0.9c0.3,0.2,0.8,0.3,1.3,0.3s0.8-0.1,1.2-0.3c0.3-0.2,0.5-0.5,0.5-0.7c0-0.4-0.2-0.7-0.5-0.8
	c-0.3-0.2-0.8-0.4-1.5-0.5c-0.8-0.2-1.5-0.4-1.9-0.6c-0.5-0.2-0.9-0.5-1.2-0.8c-0.3-0.4-0.5-0.8-0.5-1.3s0.2-0.9,0.4-1.3
	c0.3-0.4,0.7-0.8,1.2-1s1.2-0.4,1.9-0.4c0.6,0,1.2,0.1,1.6,0.2c0.5,0.2,0.8,0.3,1.2,0.5c0.3,0.2,0.5,0.5,0.7,0.7
	c0.2,0.2,0.2,0.5,0.2,0.8c0,0.2-0.1,0.5-0.2,0.6c-0.2,0.2-0.5,0.2-0.8,0.2c-0.2,0-0.5-0.1-0.6-0.2c-0.2-0.2-0.4-0.3-0.5-0.6
	c-0.2-0.2-0.4-0.4-0.6-0.5c-0.2-0.2-0.5-0.2-0.9-0.2s-0.8,0.1-1,0.2c-0.3,0.2-0.4,0.4-0.4,0.7c0,0.2,0.1,0.5,0.3,0.6
	c0.2,0.2,0.5,0.3,0.8,0.4c0.3,0.1,0.8,0.2,1.4,0.4c0.7,0.2,1.3,0.4,1.8,0.6s0.8,0.5,1,0.8C480.3,63.6,480.5,63.9,480.5,64.3
	L480.5,64.3z M482.5,58.2h0.2v-1.3V56c0,0,0.1-0.4,0.2-0.5c0.1-0.2,0.2-0.3,0.4-0.4c0.2-0.1,0.4-0.2,0.5-0.2c0.3,0,0.5,0.1,0.8,0.3
	c0.2,0.2,0.2,0.3,0.3,0.5s0.1,0.5,0.1,0.9v1.5h0.8c0.3,0,0.5,0.1,0.8,0.2c0.2,0.2,0.2,0.4,0.2,0.6c0,0.3-0.2,0.5-0.4,0.6
	c-0.2,0.2-0.6,0.2-1.1,0.2h-0.5v5.1c0,0.2,0.1,0.4,0.2,0.5c0.1,0.2,0.3,0.2,0.5,0.2c0.2,0,0.3,0,0.5-0.1c0.2-0.1,0.4-0.1,0.5-0.1
	c0.2,0,0.4,0.1,0.5,0.2c0.2,0.2,0.2,0.3,0.2,0.5c0,0.4-0.2,0.6-0.6,0.8c-0.4,0.2-1,0.3-1.8,0.3c-0.7,0-1.2-0.2-1.6-0.4
	c-0.4-0.2-0.6-0.5-0.7-1c-0.1-0.5-0.2-1-0.2-1.7v-4.4H482c-0.3,0-0.6-0.1-0.8-0.2c-0.2-0.2-0.2-0.4-0.2-0.6s0.1-0.5,0.3-0.6
	C481.9,58.3,482.2,58.2,482.5,58.2L482.5,58.2z M494.8,63.3h-4.5c0,0.5,0.1,1,0.3,1.4c0.2,0.4,0.5,0.7,0.8,0.9
	c0.3,0.2,0.7,0.3,1.2,0.3c0.3,0,0.5,0,0.8-0.1c0.2-0.1,0.5-0.2,0.7-0.3c0.2-0.2,0.4-0.3,0.6-0.5s0.4-0.4,0.7-0.6
	c0.2-0.1,0.3-0.2,0.5-0.2c0.2,0,0.5,0.1,0.5,0.2c0.1,0.2,0.2,0.3,0.2,0.5s-0.1,0.5-0.2,0.7c-0.2,0.3-0.4,0.5-0.8,0.8
	c-0.3,0.2-0.8,0.5-1.2,0.6c-0.5,0.2-1.1,0.2-1.7,0.2c-1.5,0-2.6-0.4-3.5-1.2c-0.8-0.8-1.2-2-1.2-3.4c0-0.7,0.1-1.3,0.3-1.8
	c0.2-0.5,0.5-1.1,0.8-1.5c0.3-0.4,0.8-0.7,1.5-0.9c0.5-0.2,1.2-0.3,1.8-0.3c0.9,0,1.7,0.2,2.3,0.5c0.6,0.4,1.2,0.8,1.5,1.5
	c0.3,0.6,0.5,1.2,0.5,1.8c0,0.5-0.2,0.9-0.5,1.2C495.8,63.1,495.4,63.3,494.8,63.3L494.8,63.3z M490.4,62h4.1
	c-0.1-0.8-0.2-1.4-0.6-1.8c-0.4-0.4-0.8-0.6-1.5-0.6c-0.5,0-1,0.2-1.4,0.6S490.5,61.2,490.4,62L490.4,62z M500.9,64v1.9
	c0,0.5-0.1,0.8-0.3,1.1c-0.2,0.2-0.5,0.4-0.8,0.4c-0.3,0-0.6-0.2-0.8-0.4c-0.2-0.2-0.3-0.6-0.3-1v-6.4c0-1,0.4-1.5,1.1-1.5
	c0.4,0,0.6,0.2,0.8,0.4c0.2,0.2,0.2,0.6,0.3,1.1c0.3-0.5,0.5-0.8,0.8-1.1c0.3-0.2,0.7-0.4,1.2-0.4s0.9,0.2,1.4,0.4
	c0.5,0.2,0.7,0.5,0.7,0.9c0,0.3-0.1,0.5-0.3,0.7c-0.2,0.2-0.4,0.3-0.6,0.3c-0.1,0-0.3-0.1-0.6-0.2c-0.3-0.1-0.6-0.2-0.8-0.2
	c-0.3,0-0.6,0.1-0.8,0.2c-0.2,0.2-0.4,0.5-0.5,0.8c-0.2,0.4-0.2,0.8-0.2,1.2C500.9,62.7,500.9,63.3,500.9,64z"/>
<g>
	<path d="M262.7,42.5h-4v8.8h4c1.4,0,2.5-0.2,3.5-0.5c0.9-0.3,1.6-0.8,2.1-1.5c0.5-0.7,0.8-1.5,0.8-2.6c0-1.3-0.4-2.3-1.2-3.1
		C267.1,42.9,265.4,42.5,262.7,42.5z"/>
	<path d="M323.2,46.4c0-0.8-0.2-1.5-0.6-2.1c-0.4-0.6-1-1.1-1.7-1.4c-0.8-0.3-2.1-0.4-4.1-0.4h-5.4v8h5.3c1.4,0,2.6-0.2,3.5-0.4
		c1-0.2,1.7-0.7,2.2-1.2C322.9,48.3,323.2,47.5,323.2,46.4z"/>
	<path d="M236.5,42.5h-4v8.8h4c1.4,0,2.5-0.2,3.5-0.5c0.9-0.3,1.6-0.8,2.1-1.5c0.5-0.7,0.8-1.5,0.8-2.6c0-1.3-0.4-2.3-1.2-3.1
		C240.8,42.9,239.1,42.5,236.5,42.5z"/>
	<path d="M215-34v142.5c0,3.5,3.3,6.2,6.8,5.4L330,90.1c5.2-1.1,8.9-5.7,8.9-10.9V-34H215z M246,53.6c-1.8,1.4-4.5,2.2-8.1,2.2h-5.4
		V64c0,1.2-0.3,2.1-0.8,2.7s-1.2,0.9-2.1,0.9c-0.9,0-1.6-0.3-2.1-0.9s-0.8-1.5-0.8-2.6V41.8c0-1.3,0.3-2.2,0.9-2.8
		c0.6-0.5,1.5-0.8,2.8-0.8h7.5c2.2,0,3.9,0.2,5.1,0.5s2.2,0.8,3.1,1.6c0.8,0.8,1.5,1.7,2,2.8c0.5,1.1,0.7,2.4,0.7,3.8
		C248.8,49.8,247.9,52.1,246,53.6z M272.3,53.6c-1.8,1.4-4.5,2.2-8.1,2.2h-5.4V64c0,1.2-0.3,2.1-0.8,2.7s-1.2,0.9-2.1,0.9
		c-0.9,0-1.6-0.3-2.1-0.9s-0.8-1.5-0.8-2.6V41.8c0-1.3,0.3-2.2,0.9-2.8c0.6-0.5,1.5-0.8,2.8-0.8h7.5c2.2,0,3.9,0.2,5.1,0.5
		c1.2,0.3,2.2,0.8,3.1,1.6c0.8,0.8,1.5,1.7,2,2.8c0.5,1.1,0.7,2.4,0.7,3.8C275.1,49.8,274.2,52.1,272.3,53.6z M277-9.3
		c-0.5,2.6-2.6,4.3-4.5,6.1C266,3,259.6,9.3,253.1,15.5c-3.1,3-6.4,6-9.6,9c-1.8,1.7-3.5,1.8-5.5,0.2c-1.6-1.2-3-2.7-4.5-4.1
		c-2.3-2.1-4.5-4.5-6.8-6.6c-1.8-1.7-2.5-3.7-2.5-6.1c0.1-3.1,0.2-6.2,0.2-9.4c0-0.8,1-1.8,1.8-2c0.4-0.1,2.1,0.3,2.8,1
		c2.7,2.6,5.4,5.1,8.2,7.7c0.9,0.8,2.1,1.5,3.1,2.4c0.6,0.5,1,0.4,1.5-0.2c3.4-3.3,6.8-6.6,10.2-9.9c6.4-6.2,12.8-12.5,19.3-18.7
		c1.1-1.1,2.3-1.8,3.9-1.5c0.5,0.1,1.2,0.5,1.3,0.9c0.5,2.1,0.9,4,1.2,5.3C277.5-13.6,277.5-11.4,277-9.3z M299.9,63.1
		c-0.9,1.4-2.2,2.5-4,3.3c-1.8,0.8-3.8,1.2-6.2,1.2c-2.8,0-5.2-0.5-7.1-1.6c-1.3-0.8-2.4-1.8-3.2-3.1c-0.8-1.3-1.2-2.5-1.2-3.8
		c0-0.7,0.2-1.3,0.8-1.8c0.5-0.5,1.2-0.8,1.9-0.8c0.6,0,1.2,0.2,1.5,0.6c0.5,0.4,0.8,1,1.1,1.8c0.4,0.9,0.8,1.7,1.2,2.3
		c0.4,0.6,1,1.2,1.8,1.5c0.8,0.4,1.8,0.6,3.1,0.6c1.8,0,3.1-0.4,4.2-1.2c1.1-0.8,1.6-1.8,1.6-3.1c0-1-0.3-1.8-0.8-2.4
		c-0.6-0.6-1.4-1.1-2.3-1.4c-0.9-0.3-2.1-0.7-3.8-1c-2.1-0.5-3.8-1.1-5.2-1.7c-1.4-0.6-2.5-1.5-3.4-2.7c-0.8-1.2-1.2-2.5-1.2-4.2
		c0-1.6,0.5-3,1.3-4.2s2.1-2.2,3.8-2.8c1.6-0.7,3.6-1,5.8-1c1.8,0,3.3,0.2,4.6,0.7s2.4,1,3.2,1.8c0.8,0.8,1.5,1.5,1.8,2.3
		c0.4,0.8,0.6,1.6,0.6,2.4c0,0.7-0.2,1.3-0.8,1.9c-0.5,0.5-1.1,0.8-1.8,0.8s-1.2-0.2-1.5-0.5c-0.4-0.3-0.8-0.9-1.2-1.7
		c-0.5-1.1-1.2-1.9-1.9-2.5c-0.8-0.6-1.9-0.9-3.5-0.9c-1.5,0-2.8,0.3-3.7,1c-0.9,0.7-1.4,1.5-1.4,2.4c0,0.6,0.2,1.1,0.5,1.5
		c0.3,0.5,0.8,0.8,1.3,1.1s1.2,0.5,1.7,0.7s1.5,0.4,2.8,0.8c1.6,0.4,3.1,0.8,4.5,1.2c1.3,0.5,2.5,1,3.4,1.7c0.9,0.7,1.7,1.5,2.1,2.5
		c0.7,0.9,1,2.1,1,3.5C301.3,60.1,300.8,61.6,299.9,63.1z M329.2,66.5c-0.2,0.4-0.6,0.7-1,0.9c-0.4,0.2-0.9,0.3-1.5,0.3
		c-0.7,0-1.2-0.2-1.7-0.5s-0.8-0.7-1.2-1.2c-0.3-0.5-0.8-1.2-1.3-2.1l-2.4-3.9c-0.8-1.5-1.6-2.5-2.3-3.3c-0.7-0.8-1.3-1.2-2-1.5
		c-0.5-0.4-1.3-0.5-2.4-0.5h-2.1V64c0,1.2-0.3,2.1-0.8,2.7s-1.2,0.8-2.1,0.8c-0.9,0-1.7-0.3-2.1-0.9c-0.5-0.6-0.8-1.5-0.8-2.7V41.6
		c0-1.2,0.3-2.1,0.8-2.8c0.5-0.5,1.5-0.8,2.8-0.8h9.5c1.3,0,2.5,0.1,3.4,0.2c0.9,0.1,1.8,0.3,2.5,0.7c0.9,0.4,1.7,0.9,2.4,1.6
		s1.2,1.5,1.6,2.5c0.4,1,0.5,1.9,0.5,3c0,2.1-0.6,3.9-1.8,5.2s-3.1,2.2-5.5,2.8c1.1,0.5,2.1,1.4,3,2.5s1.8,2.2,2.5,3.5
		c0.8,1.2,1.3,2.3,1.8,3.3c0.4,1,0.6,1.7,0.6,2C329.6,65.7,329.4,66.1,329.2,66.5z"/>
</g>
</svg>
