<?xml version="1.0" encoding="utf-8"?>
<!-- Generator: Adobe Illustrator 19.2.1, SVG Export Plug-In . SVG Version: 6.00 Build 0)  -->
<!DOCTYPE svg PUBLIC "-//W3C//DTD SVG 1.1//EN" "http://www.w3.org/Graphics/SVG/1.1/DTD/svg11.dtd">
<svg version="1.1" id="Layer_1" xmlns="http://www.w3.org/2000/svg" xmlns:xlink="http://www.w3.org/1999/xlink" x="0px" y="0px"
	 viewBox="0 0 500 500" style="enable-background:new 0 0 500 500;" xml:space="preserve">
<style type="text/css">
	.st0{fill:#181616;}
	.st1{fill:#6CC39D;}
</style>
<g>
	<path class="st0" d="M216.2,162.5c13.5-3.8,27.9-5.8,42.2-6.3v-72c-2,0.1-4.1-1.2-4.2-3.7c-0.2-4.6-1.8-8.5-3.8-12.5
		c-0.6-0.6-0.9-1.4-1.1-2.3C151.9,72.8,75,154.1,75,253.4c0,83.2,53.9,153.7,128.8,178.7c9.4,1.8,12.9-4.1,12.9-9.1
		c0-4.5-0.2-19.4-0.3-35.1C164,399.3,153,365.7,153,365.7c-8.6-21.8-20.9-27.5-20.9-27.5c-17.1-11.7,1.3-11.4,1.3-11.4
		c18.9,1.3,28.9,19.4,28.9,19.4c16.8,28.8,44.1,20.4,54.8,15.7c1.7-12.2,6.6-20.4,11.9-25.2c-41.8-4.8-85.8-20.9-85.8-93.1
		c0-20.5,7.3-37.4,19.4-50.6c-1.9-4.8-8.4-23.9,1.8-49.8C164.5,143.2,180.2,138.1,216.2,162.5z"/>
	<path class="st0" d="M145.6,333.9c-0.4,0.9-1.9,1.3-3.3,0.6c-1.3-0.6-2.2-1.9-1.7-2.8c0.4-1,1.9-1.3,3.3-0.6
		C145.3,331.7,146.1,333,145.6,333.9L145.6,333.9z"/>
	<path class="st0" d="M153.2,342.4c-0.9,0.8-2.7,0.4-3.8-0.8c-1.3-1.3-1.5-3.1-0.6-3.9s2.6-0.4,3.8,0.8
		C153.9,339.9,154.2,341.6,153.2,342.4L153.2,342.4z"/>
	<path class="st0" d="M160.6,353.3c-1.2,0.8-3,0.1-4.2-1.6s-1.2-3.7,0-4.5s3-0.1,4.2,1.6S161.8,352.5,160.6,353.3L160.6,353.3z"/>
	<path class="st0" d="M170.8,363.7c-1,1.2-3.3,0.8-4.8-0.8c-1.7-1.5-2.1-3.7-1.1-4.8c1.1-1.2,3.3-0.8,4.8,0.8
		C171.4,360.5,171.9,362.6,170.8,363.7L170.8,363.7z"/>
	<path class="st0" d="M184.8,369.8c-0.4,1.5-2.6,2.2-4.7,1.5c-2.2-0.7-3.5-2.3-3.1-3.8s2.6-2.2,4.8-1.5
		C183.9,366.6,185.3,368.3,184.8,369.8L184.8,369.8z"/>
	<path class="st0" d="M200.3,371c0.1,1.6-1.8,2.8-4,2.8c-2.3,0.1-4.1-1.2-4.1-2.8c0-1.6,1.8-2.8,4-2.9
		C198.4,368.1,200.3,369.4,200.3,371L200.3,371z"/>
	<path class="st0" d="M214.6,368.6c0.3,1.5-1.3,3.1-3.5,3.5s-4.2-0.5-4.5-2c-0.3-1.6,1.3-3.1,3.5-3.5
		C212.3,366.1,214.3,367,214.6,368.6L214.6,368.6z"/>
</g>
<path class="st1" d="M385.1,65.7l-135.9-0.4v369.3l55.1-75.3l80.8,0.2c21.2,0,36.4-15.1,36.4-36.4V102.1
	C421.5,80.9,406.4,65.7,385.1,65.7z"/>
</svg>
