<?xml version="1.0" encoding="utf-8"?>
<!-- Generator: Adobe Illustrator 19.2.1, SVG Export Plug-In . SVG Version: 6.00 Build 0)  -->
<!DOCTYPE svg PUBLIC "-//W3C//DTD SVG 1.1//EN" "http://www.w3.org/Graphics/SVG/1.1/DTD/svg11.dtd">
<svg version="1.1" id="Layer_1" xmlns="http://www.w3.org/2000/svg" xmlns:xlink="http://www.w3.org/1999/xlink" x="0px" y="0px"
	 viewBox="0 0 500 500" style="enable-background:new 0 0 500 500;" xml:space="preserve">
<style type="text/css">
	.st0{fill:#6CC39D;}
	.st1{fill-rule:evenodd;clip-rule:evenodd;fill:#181616;}
</style>
<path class="st0" d="M106,65.7l143.2-0.4v369.3l-58-75.3l-85.1,0.2c-22.3,0-38.3-15.1-38.3-36.4v-221C67.7,80.9,83.6,65.7,106,65.7z
	"/>
<path class="st1" d="M249.2,65.3v91.6c11.5,0.9,22.9,2.8,33.8,5.8c36.1-24.5,52-19.4,52-19.4c10.3,26.1,3.8,45.3,1.9,50.1
	c12.1,13.3,19.5,30.1,19.5,50.8c0,72.7-44.3,88.7-86.4,93.4c6.8,5.9,12.8,17.4,12.8,35.1c0,25.3-0.2,45.7-0.2,52
	c0,5,3.4,10.9,13,9.1c75.2-25.1,129.4-96,129.4-179.6C424.9,154.1,347.4,72.3,249.2,65.3z"/>
</svg>
