<?xml version="1.0" encoding="utf-8"?>
<!-- Generator: Adobe Illustrator 19.1.0, SVG Export Plug-In . SVG Version: 6.00 Build 0)  -->
<svg version="1.1" id="coas" xmlns="http://www.w3.org/2000/svg" xmlns:xlink="http://www.w3.org/1999/xlink" x="0px" y="0px"
	 viewBox="96 -190.8 792 580.8" style="enable-background:new 96 -190.8 792 580.8;" xml:space="preserve">
<style type="text/css">
	.st0{fill:#2c353b;}
</style>
<g>
	<path class="st0" d="M363.1,274.7c-0.5,0.9-1.2,1.6-2.1,2"/>
	<path class="st0" d="M381.6,129.6c2.2,0,3.9-1.7,3.9-3.9c0-2.2-1.7-3.9-3.9-3.9c-2.1,0-3.9,1.8-3.9,3.9
		C377.8,127.9,379.5,129.6,381.6,129.6L381.6,129.6z"/>
	<path class="st0" d="M561.4-34.2L561.4-34.2l-139.8-0.1v0.1l0,0l0.1,112.9c0,10.9,4.6,20.4,11,23.4l53.8,32.1
		c1.2,1.3,2.9,2.2,4.9,2.2c1.7,0,3.2-0.7,4.4-1.7l54.6-32.6c6.4-2.9,11-12.5,11-23.4L561.4-34.2L561.4-34.2L561.4-34.2z M468.1-1.6
		H456v-28.9h12.1V-1.6L468.1-1.6z M459.3,8.5l1.7-1.8l-1.1-2l2.3,0.2l1.3-2.4l1.4,2.4l2.3-0.2l-1.1,2l1.7,1.8l-2.2,0.4v2.4l-2.1-1.5
		l-2.1,1.5V8.9L459.3,8.5L459.3,8.5z M425.5,44.5V17.1h14.7v27.4H425.5L425.5,44.5z M428,4.8l2.2,0.2l1.4-2.4l1.3,2.4l2.3-0.2
		l-1.1,2l1.7,1.8L433.6,9v2.4l-2.1-1.5l-2.1,1.5V9l-2.2-0.4l1.7-1.8L428,4.8L428,4.8z M444.5,32.7l2.3,0.2l1.4-2.4l1.3,2.4l2.3-0.2
		l-1.1,2l1.7,1.8l-2.2,0.4v2.4l-2.1-1.6l-2.1,1.6v-2.4l-2.2-0.4l1.7-1.8L444.5,32.7L444.5,32.7z M454.3,10.6
		c-0.1-0.7-1.1-0.9-1.5-0.9c-1.3,0-1.8,2.2-2.9,2.2c-0.8,0-1.4,0.1-1.4-0.9c0-0.7,1.6-1.3,2.3-1.9c-9.1,0-9.2,4.1-10.6,4.1
		c-2.4,0,2-4.4,3.2-5.6c-1.8-0.3-2.9-2.6-4.9-3.7c1-1.4,1.5-0.8,2.7,0.2c0-1,0.7-2.1,2.9-2.1c4,0,2.9,3.9,3.6,3.9s0-3.9,2.7-3.9
		c4,0,9,10.3,4.5,10.3C452.7,12.3,454.3,10.9,454.3,10.6L454.3,10.6z M443.9-19.6l1.7-1.8l-1.1-2l2.3,0.2l1.4-2.4l1.3,2.4l2.3-0.2
		l-1.1,2l1.7,1.8l-2.2,0.4v2.4l-2.1-1.5l-2.1,1.5v-2.4L443.9-19.6L443.9-19.6z M440.2-30.5v28.9h-14.7v-28.9H440.2L440.2-30.5z
		 M468.1,118.7l-33.5-20c-5.6-3.8-8.3-10.5-9.1-18.6V48.3H468v70.4H468.1z M456,44.5V17.1h12.1v27.4H456L456,44.5z M511.1,121
		l-15.5,9.2h-0.3c-1.1,0.9-2.5,1.4-4.1,1.4s-3-0.6-4.1-1.5l-15.4-9.2V48.2H511V121H511.1z M511.1,44.5h-39.3v-74.9h39.3V44.5
		L511.1,44.5z M557.4,80.1c-0.7,8.1-3.5,14.8-9.1,18.6l-33.5,20V48.3h42.5v31.8H557.4z M557.4,44.5h-42.5v-74.9h42.5V44.5
		L557.4,44.5z"/>
	<path class="st0" d="M465.8,74.2c-0.2-0.5-5.3,1.7-3.9,1.6c0.1-1.5,3-4.6,4.3-5.7c-0.2-1.8-2.5-0.2-4.9,1.1c8-11.4,2.9-6.7-1.6-5.9
		c7.1-7.6,5.3-7.5,0-5.1c4.1-3.3,5-7.1,4.4-8.3c-3.9,5.1-7.4,4.3-7.4,9.1c0,3.1-1.1,8.3-2.8,10c-2.1,2.2-0.5-8.4-5.9-8.4
		c-1.7,0-5.9-0.1-7.1,2c1.1,0,2.8,2.8,2.8,4c0,1.1,1,4.2-0.8,4.2c-1.9,0-4-3.9-4-5.8s-0.1-1.4-0.1-4.1c0-4.5-7.3-10.9-10.3-10.9
		c0,3.1,4.1,3.9,4.1,7.9c-1.8,0-4.2-3.3-4.2-1.3s2.6,2.4,2.6,4.1c0,1.8-3-0.6-3,1.3c0,1.7,1.6,1.4,2,3c-1.2-0.3-2.3-0.2-2.5,0.4
		c-0.2,0.5,0.3,1.2,1.3,1.8c-0.4,0.4-0.8,1.3-0.8,4c0,8.9,5.6,13.1,9.7,13.1c2.9,0,2.5-2,2.8-3c0.1,1.5,1.6-0.8,1.6,1.9
		c0,2.8-2.8,1.5-2.8,3.9c0,3.2,4.5-0.1,4.5,3.4c0,4.3-0.5,4.2-0.5,5.8c0,1.1,4.7-1.6,4.4-2.1c1.1,0.4,1.1,3.7,3.2,3.6
		c1.3,0,1.6-3.4,2.7-3.7c-0.6,0.2,4.2,3.2,4.2,1.7c0-4.1-1.7-2.4-1.7-5.2c0-2.6,5.8-2.1,4.8-3.5c-0.8-1.1-1.3-0.4-1.9-2.4
		c0.1,0.4-4.5-6.6,1-3C465.4,87.4,466.1,74.8,465.8,74.2L465.8,74.2z"/>
	<path class="st0" d="M614.9,103.7c2.6,0,4.6-1.8,4.6-4s-2.1-4.1-4.6-4.1s-4.6,1.8-4.6,4.1C610.3,101.9,612.4,103.7,614.9,103.7
		L614.9,103.7z"/>
	<path class="st0" d="M596.3,114.7c2.5,0,4.6-1.8,4.6-4.1c0-2.2-2-4-4.6-4c-2.5,0-4.6,1.8-4.6,4
		C591.7,112.9,593.8,114.7,596.3,114.7L596.3,114.7z"/>
	<path class="st0" d="M375.4,140.2c2.5,0,4.6-1.8,4.6-4s-2.1-4.1-4.6-4.1s-4.6,1.8-4.6,4.1C370.8,138.4,372.8,140.2,375.4,140.2
		L375.4,140.2z"/>
	<path class="st0" d="M389.7,141.4c2.5,0,4.6-1.8,4.6-4.1c0-2.2-2-4.1-4.6-4.1c-2.5,0-4.6,1.8-4.6,4.1
		C385.1,139.6,387.2,141.4,389.7,141.4L389.7,141.4z"/>
	<path class="st0" d="M787.4-51.3c6.8,8.1,8.3,21.1,3.4,30.4c-2.7-0.2-2.2-3.7-2.7-5.6c-4.9-9.1-8.8-20.6-4.4-30.9
		C786.9-57,785.7-53,787.4-51.3L787.4-51.3z"/>
	<path class="st0" d="M203.8-40.3c-1.5,5.9-1.5,14,0,19.4c-1.2,1.2-1-1.2-2.2-1c-9.5-6.9-5.1-20.4-7.6-30c0.5-0.7,1.7-1,2.4-0.5
		C200.9-49.4,202.9-45.2,203.8-40.3L203.8-40.3z"/>
	<path class="st0" d="M808.4-39.5c1.4,2.7-1.2,5.4-3.2,6.6c-2.2,0.5-4.6-0.7-6.1-2.7c-0.7-2.7,0.7-5.2,2.9-6.4
		C804.5-42.2,806.9-41.8,808.4-39.5L808.4-39.5z"/>
	<path class="st0" d="M189-28.7c-0.5,2.2-1.2,4.4-3.2,5.4c-1.5,0-3.7,0-4.6-1.2c-1.5-1.2-1.7-3.4-1-5.2c1-1.7,2.9-2,4.6-2.2
		C186.5-31.2,188.2-30.7,189-28.7L189-28.7z"/>
	<path class="st0" d="M817.9-24.6c0.5,1.5,0.5,2.5,0,3.9c-1.7,2.2-4.1,3.2-6.6,2.2c-1.7-1-2.2-2.7-2.7-4.2c0.5-2,2.4-3.7,4.1-4.4
		C815-27,816.4-25.8,817.9-24.6L817.9-24.6z"/>
	<path class="st0" d="M804-24.3c1.9,1,0.5,3.4,0.2,4.9c-1.2,1.2-2.9,3.2-5.1,2.5c-1.2-1.2-2.7-1.2-3.2-2.9c0-2.5,1-4.9,3.4-5.6
		C801.3-26,802.6-25.1,804-24.3L804-24.3z"/>
	<path class="st0" d="M786.2-20.6c0,2.7,0.2,6.2-2.9,6.6c-2.9,1-4.9-1.5-5.6-3.4c-0.2-2.5,1.2-4.9,3.7-5.9
		C783.3-23.3,785-22.1,786.2-20.6L786.2-20.6z"/>
	<path class="st0" d="M215.5-19.4c0.7,2.5-1.7,3.9-3.2,5.2c-1.7,0.5-3.9-1-4.9-2.7c-1.7-1.7,0.5-3.2,1-4.7
		C210.9-23.8,214.6-22.1,215.5-19.4L215.5-19.4z"/>
	<path class="st0" d="M200.9-18.7c0,2-1,3.9-2.7,4.7c-2,0.7-3.9-0.7-4.9-2.2c-1.2-2.4,0.3-4.7,2.2-5.6
		C198.2-22.8,199.9-20.4,200.9-18.7L200.9-18.7z"/>
	<path class="st0" d="M727.2-17.7c2.4,5.1,4.4,11.3,4.9,17.7c-1,4.7,0.7,10.8-2.7,14c-3.4-1.2-3.6-5.4-5.8-7.6
		c-4.4-8.6-0.5-18.7,1-27C726.5-21.4,726.5-18.9,727.2-17.7L727.2-17.7z"/>
	<path class="st0" d="M189.4-14.7c0.7,2.9-1.4,4.4-3.2,6.1c-2.9,0.7-4.9-1.5-6.1-3.4c-0.2-2.4,1.2-4.9,3.2-5.9
		C185.8-18.2,188.2-17,189.4-14.7L189.4-14.7z"/>
	<path class="st0" d="M765.7-7.6c3.2,7.1,3.4,15.7,1.2,23.6l-1.5,1.2c-3.4-6.6-8.3-12.8-10-19.9c0-5.2,1-9.8,2.9-14
		c1.7-1.2,2.7,0.2,3.4,1.7C762.1-12.3,763.3-9.1,765.7-7.6L765.7-7.6z"/>
	<path class="st0" d="M796.5-12c-0.2,2.5-1.2,5.2-3.7,5.9c-2.4,0.5-4.8-0.2-5.6-2.9c-0.7-2.5,0.7-4.7,2.7-5.9
		C792.6-16.5,795.2-14,796.5-12L796.5-12z"/>
	<path class="st0" d="M201.2-4.4c0,2-1.7,4.2-3.7,4.7c-1.9,1.5-3.4-1-5.1-1.7c-0.7-2-1.2-3.7,0-5.6c0.7-1.5,2.4-1.5,3.9-2
		C198.5-7.9,200.7-6.9,201.2-4.4L201.2-4.4z"/>
	<path class="st0" d="M211.9-5.7c1,2.4-1.7,3.7-2.7,4.9c-2.9,1-4.4-1.2-5.6-2.9c-0.5-2.5,1-3.9,2.7-5.4
		C209.2-9.8,210.7-7.9,211.9-5.7L211.9-5.7z"/>
	<path class="st0" d="M803.3-6.4c-0.2,3.2-5.1,6.4-5.6,9.6c-2.7,6.6-8.5,11.5-15.1,13.8c-1.4,1.2-3.4,2.9-5.6,3.2
		c-0.5-4.9,3.9-9.3,6.6-13.7C788.7-0.3,795.7-4.4,803.3-6.4L803.3-6.4z"/>
	<path class="st0" d="M196.3,3.9c3.7,4.2,5.6,7.9,10,11.5c0.3,1-0.5,2.5-1.7,2.5c-12-0.7-20-13-25.9-21.6c0.7-2.7,3.9-0.5,5.6-0.7
		C188.5-1.2,193.1-0.3,196.3,3.9L196.3,3.9z"/>
	<path class="st0" d="M806.7,7.3c-0.5,10.6-5.6,21.4-15.1,26.5c-2.7,1-5.6,3.7-8.3,2c5.1-10.6,12.9-19.1,21.5-28.5H806.7L806.7,7.3z
		"/>
	<path class="st0" d="M759.9,14.5c0.7,3.7-1.2,5.9-4.2,7.1c-2.7,0.2-4.4-2-5.6-3.9c-0.2-2.4,1.2-4.7,3.4-5.4
		c0.7-0.7,1.9-0.7,2.9-0.7C757.9,12,758.7,13.2,759.9,14.5L759.9,14.5z"/>
	<path class="st0" d="M182.9,16.7c4.6,3.2,8.8,7.6,13.2,11.5c-3.1,2.2-7,0.2-10.7,0.2c-8.3-2.9-13.9-10.1-22.4-12.5
		c0.3-2.7,3.4-1.7,5.1-2.5C173.4,13,177.8,15.4,182.9,16.7L182.9,16.7z"/>
	<path class="st0" d="M444-56c-13.7-5.4-22.7,8.8-36.6,7.1c-1.7,1-1.2,2.7-2.2,3.9c-0.7,0.7-2,0.2-2.7-0.2c-0.7-5.9-2.7-11.3-3.4-17
		c-1.4-2.4-0.7-5.9-1.9-8.3c-7.8-21.4,19-5.2,24.4-17.7c4.6-10.8-9-12-13.2-19.6v-3.2c-3.9-3.9-8.1-5.2-10.5-10.3
		c1.7-6.1,2.4-12.8,0.7-18.9c-0.2-1.5-1.2-3.4-3.4-2.7c-4.6,6.4-8,11.5-12.4,17.7c-4.6-3.4-9-7.9-14.4-10.8
		c-3.7-0.5-7.1-4.2-11.2-2.7c-0.7,1.5,0,2.7,0.7,3.7c0.2,9.6,5.1,17.2,11.9,24.1l0.7,3.7c-4.4,10.1-3.2,21.6-4.4,32.4
		c-11,28-28.8,55-52.9,74.4c-13.9,15.7-30.5,30.9-32.7,52.5c-0.7,3.4,0.5,7.6-2.2,10.1c-8-3-16.1-6.9-22.7-12
		c-11.2-7.9-27.3-6.9-34.6-21.1c-3-5.6,0.7-11.3,3.4-15.5c8.3-7.9,7.1-21.9,2.7-31.4c-1-0.3-1.2,1-1.9,1.2
		c-0.7,14.5-12.2,24.5-7.8,40.5c1,4.7,3.4,7.6,4.6,12c-1.7-0.5-4.1-0.5-5.6-1.2c-5.4-0.7-10.7-3-16.3-2.2
		c-11.2,5.2-26.6-1.2-35.6,9.1c-1.5,0.3-3.4,0.5-2.9,2.7c5.4,0,10.5,1.5,15.9,1.2c8.5,1.5,14.1-5.7,20-8.8h1.5
		c2.4-2.5,6.6-1,9.8-1.5c15.4,1.7,27.3,9.1,40,16.7v1c-4.9,2.2-10.5,3.7-15.4,6.4c-5.6,4.2-11.9,9.6-13.6,16.5
		c-3.9,6.1,1.2,11.5,3.6,16.7c0.2,2.5,0.5,5.4,2.7,6.4c7.8-8.3,0.5-18.7,1.7-28.2c2-7.4,8.8-10.8,15.9-12.8
		c13.9-5.9,23.9,5.4,35.1,11.8c-0.3,11.3,1.2,22.1-1.2,33.1c-3.4,1.2-7.8,2-11.5,1.7c-19.2,1.5-34.4,12-51.7,17.9
		c-7.8,2.7-17.1,2.5-24.9,5.4c6.1,1.7,12.4-0.5,18.8-0.7c23.9-3.4,42.2-21.9,68-18.7l0.5,0.7c-2.9,6.1-6.8,11.3-11.4,16
		c-0.8-2.7-1-4.9-3.4-6.4c-1.9-1-4.1,0-5.6,2c-0.8,1.2-0.8,2.7,0,3.7c1.2,2.2,3.2,2.7,5.3,3.4c-0.5,2.2-3.2,3.2-4.6,5.2
		c-6.8,11.5-20.8,6.9-28.8,15c-1.2,1.7-5.6,2.7-3.7,5.4c9.3,1,18.3-1.5,25.1-6.4c9-10.1,18.5-19.6,27.5-29.2
		c1.5,7.9-0.7,16-5.4,22.3c-2.2-1.2-3.9-3-6.6-3.7c-2.5,0.5-4.2,3-4.4,4.9c1,1.7,1.9,3.7,3.6,4.9c-8.3,5.9-18.8,6.4-28.3,9.1
		c-17.8,2.2-35.1,3.7-53.1,3.9c-8.5-0.5-18.3,2.5-26.3,0c-9.3,1.7-19.3-1.2-26.8,3.9c-1,1.2,0.3,2.5,0.3,3.7
		c11.2,7.4,26.6,1.5,39.3,3.7h96c7.1-0.2,14.1-0.5,19.8-3.7c12.4-7.1,19.2-19.9,25.6-32.4c2.4-4.4,4.1-9.6,5.1-14.7
		c2.4-8.4,10-14.3,18.3-15c1.2,12.8-1.2,25.5-4.1,37.3c-1.5,7.9-6.6,15.5-3.4,23.8c0.7,3.9,4.9,3.9,8,4.4c29.5-0.5,59-1.7,90.2,0.5
		c5.6,1,10.5,2.7,16.6,2.5c0.5-0.7,2.2-1,1.5-2.5c-0.7-2.7-2.7-6.1-5.8-6.9c-0.5-1.5-2.7-1-3.4-2c-15.6-8.8-34.4-4.2-52.7-3.9
		c-9.5,1-19,2.7-27.1-2.7c-3.7-4.4-1-18.4-1-18.4c0-5.5,13.4-44.2,15.1-47.4c0.5-3.7,1.9-7.1,1.5-11.3c1.9-4.9,1.5-11.3,1.5-16.7
		c1-7.9,4.9-15.2,7.6-22.8c1.4-3.7,2.7-7.6,4.1-11.3c1.5-4.7,2-9.1,4.9-12.8c7.9,5.1,15.7,4.9,19.5,13.9l3.4,20.5
		c0,1.2,1,3.7,2.7,2.2c6.3-4.2,4.4-13.5,4.4-19.9c1.4-7.6-3.9-11.3-6.1-17.9c-1.7-1.2-4.5-7.1-4.5-7.1c-1-5.4-12.8-9.1-10.1-15.8
		c1.5-5.6,2.9-10.8,8.3-14c0.8,0.5,1.1,1.1,1.2,1.7l2.9-2.1l0.3-20.5c7.9,0,19.7,1,27.7,1c2.2,0.7,3.9,2.5,6.3,2.7l2-2.7l19.7-3.8
		C457-46.4,451.9-56,444-56L444-56z"/>
	<path class="st0" d="M465.4-47.3c0.6-0.1,1.2-0.2,1.8-0.4L465.4-47.3L465.4-47.3z"/>
	<path class="st0" d="M253.1,21.1c0.2,2.9-1.5,4.7-3.7,5.6c-1.9-0.7-3.4-1-4.6-2.9c-1-2.7,1.5-4.7,3.4-5.7
		C250.2,18.6,252.6,18.9,253.1,21.1L253.1,21.1z"/>
	<path class="st0" d="M237.2,21.1c1.5,1.5,1.7,3.9,1,5.6c-1.7,1.5-4.4,2.7-5.9,0.7c-1.5-1.5-2.9-3.2-1.7-5.1
		C232.3,20.6,235.3,19.1,237.2,21.1L237.2,21.1z"/>
	<path class="st0" d="M576.6,23.8c0.1,0.1,0.2,0.2,0.2,0.3"/>
	<path class="st0" d="M762.3,28c1,2.7-1.2,4.7-3.2,5.6c-2.5-0.7-5.6-1.2-5.6-4.4c0.2-2,1.9-3.2,3.7-3.7
		C759.4,24.8,761.4,26.5,762.3,28L762.3,28z"/>
	<path class="st0" d="M775.2,27.5c0.7,1.2,2.4,3.2,0.5,4.4c-1,0.7-1.7,1-2.4,2c-2.7,0.5-5.1-0.5-5.8-2.9c-0.5-2.7,1.7-3.9,3.7-5.2
		C772.8,25.3,774,26.5,775.2,27.5L775.2,27.5z"/>
	<path class="st0" d="M176,30.4c-1,2.9-3.4,4.2-6.6,3.2c-0.7-0.7-1.5-2-2-3.2c0.2-1.7,0.7-3.4,2.7-4.2
		C173.1,26.5,175.3,27.7,176,30.4L176,30.4z"/>
	<path class="st0" d="M258.2,34.6c-0.3,2-2.5,3.7-4.2,4.7c-2.5,0.2-4.1-1.7-5.4-3.4c0-2,1-4.4,2.9-4.9
		C254.3,29.9,257.2,31.9,258.2,34.6L258.2,34.6z"/>
	<path class="st0" d="M243.8,32.9c0.7,0.7,1.5,2.7,0.7,3.9c-1.5,1.2-3.6,3.4-6.1,2c-1.5-1.2-3.2-2.2-2.7-4.7c1-1,2.2-2.5,3.7-2.9
		C241.4,30.7,242.3,31.9,243.8,32.9L243.8,32.9z"/>
	<path class="st0" d="M812.5,35.8c0,2-1.9,3.9-3.2,4.7c-2,0.7-4.1,0.3-5.4-1.2c-1.4-0.5-1-2.5-1-3.7c1.2-1.7,2.9-2.7,4.6-3.2
		C809.9,32.9,811.3,34.4,812.5,35.8L812.5,35.8z"/>
	<path class="st0" d="M828.2,38c-0.7,2.2-2.4,4.2-4.6,4.4c-1.5-0.2-4.1-0.7-3.6-3c0-1.7,1-3.4,2.2-3.9
		C824.5,34.4,827.4,35.6,828.2,38L828.2,38z"/>
	<path class="st0" d="M203.8,41.5c0.5,2.9-0.5,4.9-2.9,5.9c-1.7,1-3.4-0.3-4.6-1.2c-1.2-1.2-2.2-3.2-1.2-4.9
		c0.5-2.2,2.7-1.7,4.1-2.7C201.4,38.8,202.6,39.8,203.8,41.5L203.8,41.5z"/>
	<path class="st0" d="M215.8,43.7c0.7,2-1.5,2.7-1.9,4.2c-1.2,0.7-2.9,1.5-4.4,0.5c-1.7-1.5-3.6-3.7-1.9-5.9
		C209.4,38.8,214.6,40.8,215.8,43.7L215.8,43.7z"/>
	<path class="st0" d="M798.2,42.5c0.2,2.4-1.9,4.2-3.4,5.6c-2.2,0.5-4.4-1-4.9-2.9c-0.2-2,1-3.4,2.7-4.7
		C794.7,40.3,796.9,40.5,798.2,42.5L798.2,42.5z"/>
	<path class="st0" d="M818.2,46.4c-0.5,2.2-0.3,4.7-2.7,6.1c-2,0.5-4.4,0.2-5.9-1s-1.7-3.4-1-5.2c1.2-2,3.4-3.4,5.8-2.9
		C816.2,44.4,816.7,45.7,818.2,46.4L818.2,46.4z"/>
	<path class="st0" d="M194.6,51.6c1,2-1.2,2.5-1.9,3.4c-1.7,1-3.4,0.3-4.9-0.5c-1.7-1-1-3.4-0.7-4.7
		C189.2,45.7,193.6,48.6,194.6,51.6L194.6,51.6z"/>
	<path class="st0" d="M802.8,56.2c1,0.2,0.5,1.7,0.2,2.2c-5.8,3-14.6,3.7-19.7-1c-2.9-2.5-6.6-3.4-9.8-5.4c1.2-3.2,5.6-3,8.8-3.7
		C789.4,49.3,795,56,802.8,56.2L802.8,56.2z"/>
	<path class="st0" d="M206.3,54c0.5,2-1,2.7-1.5,4.2c-1,1.5-2.9,1-4.1,0.5c-2.2-1.5-3.2-4.2-1.7-6.1C201.6,49.8,204.8,51.3,206.3,54
		L206.3,54z"/>
	<path class="st0" d="M227.7,55.5c1,2.2-0.5,4.2-2.4,5.4c-1.7,1-3.2-0.5-4.6-0.7c-1.2-1.7-3.4-3.7-1.2-5.6
		C221.6,50.8,226,52.8,227.7,55.5L227.7,55.5z"/>
	<path class="st0" d="M509.6,65.9c-0.5,4.9-8.6-0.7-7.4,5.8c1.2,4.7,2.1,10.3,4.9,13.7c2.3,3.3,1.1,8.4,0.9,12.4
		c-2.1,3.5-5.6,6.1-9.3,7.9c-7-0.7-17.1,3.5-20.4-5.1c-1.4-3.7-3.9-7.5-3.9-11.7c0.7-0.5,1.6-0.5,2.3-1.2c0-1.6-1.8-2.6-1.6-4.2
		c7.9-1.4-3.3-8.4,3.5-8.9c5.6,5.8,14.6,4,19.4,10.3c1.2,0.9,2.1,2.3,3.5,3c-0.9-5.8-3.7-11.7-4.6-18c-0.7-3.3,0.5-6.3,2.8-8.2
		C503.8,58.6,507.3,63.3,509.6,65.9L509.6,65.9z"/>
	<path class="st0" d="M249.2,64.3c0.7,2.5-1.2,3.9-2.7,5.2c-2.2,1-3.4-1.5-4.4-2.7c-0.7-2.5,1-3.7,2.5-4.9
		C246.2,61.9,248.2,62.6,249.2,64.3L249.2,64.3z"/>
	<path class="st0" d="M399.6,66.8c2.9,9.6,1.9,19.4-2.9,27.5c-0.2,2,0.5,5.1-2.2,4.9c-6.6-9.1-1.7-21.8,1-31.4
		C395.9,65.3,398.9,64.3,399.6,66.8L399.6,66.8z"/>
	<path class="st0" d="M608.3,71.4c3.4,6.9,3.6,16,0.5,22.8l-2,2c-2.7-5.6-4.9-11.3-5.6-17.4c1.2-4.4,2.7-8.4,2.9-13
		C607.5,65.1,607.3,69.5,608.3,71.4L608.3,71.4z"/>
	<path class="st0" d="M268.2,74.1c-1.5,2.9-5.6,3.7-8.3,5.6c-5.9,4.4-14.4,5.4-21.7,4.2c6.3-8.8,16.1-14,27.8-11.5
		C266.5,73.4,267.7,72.9,268.2,74.1L268.2,74.1z"/>
	<path class="st0" d="M168,83c9,6.4,11.5,15.2,16.8,24.1c0.7,1,3.2,1.2,2.2,3.2c-2,1.5-3.9-1.5-6.6-1c-9.3-4.2-15.1-14.5-14.9-25.3
		C165.6,83,167,83,168,83L168,83z"/>
	<path class="st0" d="M598.7,90.6c0.3,2.5-0.2,4.9-2.2,5.6c-2.7,0.7-4.9-0.7-5.6-2.9c-0.7-1.7,0.7-2.7,1.2-3.9
		C594.1,87.4,597.5,88.4,598.7,90.6L598.7,90.6z"/>
	<path class="st0" d="M701.6,103.6c0-4.7,1.2-9.1,1.7-13.5c0.7-1.5,1.2-3.2,1-5.1c5.9-7.9,17.8-5.4,27-4.7c3.7,2,8.3,1.7,12.2,2.7
		c1.7-1.2,4.2-1.5,6.1-1.2c7.8-4.2,2.7-13.3,3.2-20.4l-2.9-7.4c-0.7-1.5-1.5-3.2-2-4.9c-1.4-1.7-2.4-4.9-3.9-6.6
		c-4.1-10.8-12.2-16.9-19-25.5c-12.4-16.2-32-25.3-51.4-31.7c-19.3-6.6-38.8,2-56.1,8.1c-5.3-1.5-8-5.6-9.5-10.3
		c-1-9.3,1-18.4,4.6-26c0.7-6.1,4.9-10.8,6.6-16.5c4.4-13.7,9-27.3,10-42.2c0.5-9.1-6.3-15.5-13.2-19.4c-4.6-1.2-10-1-13.4,2.7
		c-3.1,6.6-10,11.1-15.8,14.2c-0.5,4.2,4.6,1.5,6.3,2.9c5.4,1,11.5-0.7,15.9,2.7c0.5,9.8-5.1,17.9-10.2,25.3
		c-8.3,12.3-17.1,24.8-22.2,38.3l-1-1l1.2,60c7.8,12.9,17.5,27.7,32,32.6c7.8,6.4,17.5,14,28,8.3c5.6-1.7,6.1,6.1,8.8,9.3
		c2.9,9.1-3.6,15.5-4.1,23.8l-6.3,13.5c-7.3,14.2-13.9,29.5-25.1,41.5c-3.6,0-5.8,3.9-9.5,4.2c-2,2.7-5.9,0.7-8.3,1.7
		c-7.6,3.2-18.3,1.2-23.4,8.3c0.5,0.7,1.2,1,1.9,1.2c14.9,0.2,31.5,1.2,47.3,0.5c1.9-0.7,3.7-2.5,3.9-4.7c-2.2-4.2,0.7-7.9,2.7-11
		c1.2-5.9,5.1-9.6,6.8-15.2c5.1-10.1,11-19.9,16.6-30l7.5-12.3c1.7-4.2,4.6-9.3,7.6-13.8c1.9-2,2.9-4.2,4.4-6.6
		c0.3-2.5-1-3.4-2.4-5.2c1.7-1.7,4.4-1.2,6.6-1.7c6.1,3.7,12.4,9.6,13.6,16.2l2.2,6.4l1,2.9l-0.5,8.1l1,7.6
		c1.2,11.8-1,23.8-2.2,35.6c-4.1,14.2-20.5,12.8-32.2,16c-2.9,2-8.5,1-8.5,5.9c14.1,3,30.7,1.2,45.8,1c2.4-1,2.9-3.2,4.1-5.4
		c0.5-3.2,3.7-5.9,2.7-9.3c-2.7-3.4-0.2-8.8-1-13.5c0.5-1.2,0.5-2.9,0-4.7c1.9-7.1,1.5-15.7,2.9-22.6L701.6,103.6L701.6,103.6z"/>
	<path class="st0" d="M821.6,94c-7.8,11-16.1,23.6-29.7,27.5c-1,0-1.9,0.5-2.4-0.7c8.3-8.8,12.7-22.6,25.6-25.8
		C816.9,94,819.6,93,821.6,94L821.6,94z"/>
	<path class="st0" d="M156.1,106.1c-1.2,1-0.2,3.2-2.4,3.4c-1.9,1-4.1-0.3-5.1-2.2c-1-2.5,1.2-4.9,3.2-5.4
		C153.6,102.9,155.6,103.6,156.1,106.1L156.1,106.1z"/>
	<path class="st0" d="M226.3,109.5c0.7,2.2-1.7,2.2-2.9,2.7c-10.2,3.7-20.7,0.3-28-7.1c0-1,0-2,1-2.2
		C206.3,105.3,218,103.4,226.3,109.5L226.3,109.5z"/>
	<path class="st0" d="M169.5,106.3c0.5,1,0.7,2.7,0.5,3.7c-1.5,2.2-3.6,2.7-6.1,2.2c-1.5-0.7-2.2-1.7-3.2-3.2
		c0.2-2.5,2.2-3.9,4.1-4.7C166.8,104.6,168.2,105.1,169.5,106.3L169.5,106.3z"/>
	<path class="st0" d="M397.9,107.5c0.5,2.2-1.5,3.7-2.9,4.7c-2.2,0.5-4.1-0.5-5.1-2c-0.8-1.7,0-4.2,1.7-4.7
		C393.7,105.1,397.1,105.3,397.9,107.5L397.9,107.5z"/>
	<path class="st0" d="M830.8,108.5c0.7,2.4-1.4,3.7-3.2,5.1c-1.5,0.7-3.2,0-4.6-0.7c-0.3-1.2-1.7-2.2-1.2-3.9c1-2.2,3.2-3.2,5.6-3
		C828.6,107,829.6,107.3,830.8,108.5L830.8,108.5z"/>
	<path class="st0" d="M846.9,107.5c1.5,2.2,0.2,3.9-1,5.6c-1,1.7-2.9,2.2-4.4,1.5c-1.5-1.5-3.4-2.2-3.7-4.4c0-2,2.2-3.4,3.7-4.2
		C844,105.1,845,107.5,846.9,107.5L846.9,107.5z"/>
	<path class="st0" d="M145.8,114.6c0.2,1.7-1.2,2.7-1.7,4.2c-1.2,0.5-2.4,1.5-3.9,1c-1.7-0.8-2.9-2.2-3.6-3.9c0.5-2.2,2-4.2,4.4-4.9
		C142.9,111.5,145.1,112.4,145.8,114.6L145.8,114.6z"/>
	<path class="st0" d="M659.2,114.6c0.5,1,0.3,2.2,0.3,3.2c-1.5,2-3.4,3.7-5.8,2.4c-1.5-1.5-3.2-2.9-2.4-5.2
		C653.1,112.4,657.3,111.5,659.2,114.6L659.2,114.6z"/>
	<path class="st0" d="M185,118.3c-0.5,1.7-1.2,3.4-3.4,3.7c-2.2,0.3-2.9-1.7-4.1-2.7c0-2.2-0.3-4.4,1.9-5.7
		C182.4,112.7,185,115.1,185,118.3L185,118.3z"/>
	<path class="st0" d="M161.7,118.8c0.7,2.5-1,4.2-2.4,5.4c-2.9,1-5.4-1.2-6.6-3.4c0.3-2.2,2-4.9,4.4-5.6
		C159.2,115.1,160.4,117.6,161.7,118.8L161.7,118.8z"/>
	<path class="st0" d="M675.3,118.3c0.5,2.4-0.3,4.9-2.7,5.9c-2.9,1-5.4-1.5-6.6-3.4c1.2-2,1.5-4.7,4.4-5.1
		C672.6,115.6,674.1,116.6,675.3,118.3L675.3,118.3z"/>
	<path class="st0" d="M173.1,119.3c0.7,1.7-0.7,2.5-1.2,3.7c-1.2,0-1.9,1.5-3.4,1c-1-1.2-2.9-1.7-3.2-3.4c-0.2-2.5,1.5-3.7,3.2-4.7
		C170.9,115.6,172.4,117.3,173.1,119.3L173.1,119.3z"/>
	<path class="st0" d="M817.4,121.3c-0.7,2-2.2,2.9-4.2,3.9c-1.9,0.5-3.2-1.2-4.6-2c-1.2-1-0.8-3.2-0.2-4.4
		C810.8,114.6,817.4,116.6,817.4,121.3L817.4,121.3z"/>
	<path class="st0" d="M835.9,122.3c-0.7,2.7-3.4,3.9-5.9,4.2c-2.2-1-4.6-2.7-2.9-5.6c1-1,1.4-2,2.9-2.2
		C833,117.6,835.2,119.8,835.9,122.3L835.9,122.3z"/>
	<path class="st0" d="M720.2,124c1.2,3.2-1.7,4.2-3.7,5.6c-1.7-0.2-3.2-1-4.6-2c-0.5-2.7,0.7-5.2,3.4-6.4
		C717.5,121.3,718.7,122.3,720.2,124L720.2,124z"/>
	<path class="st0" d="M653.1,126.9c1.2,0.5,0.7,2.2,0.5,2.9c-1.5,1-3.4,3.4-5.6,2c-1.7-1-3-2.5-2.5-4.7
		C646.8,124.5,651.9,124.2,653.1,126.9L653.1,126.9z"/>
	<path class="st0" d="M666.8,128.6c0.3,2-0.2,2.9-2,3.9c-1.7,1.7-3.7-0.2-5.4-0.7c-0.5-1-1-2.5-0.3-3.7c0.7-1,2-1.7,3.2-2
		C664.1,126.7,666,126.7,666.8,128.6L666.8,128.6z"/>
	<path class="st0" d="M253.1,128.9c1.5,1.5-0.2,3.2-0.5,4.7c-1.2,1.5-3.9,2.7-6.1,1.2c-2.4-1-2.2-4.2-1.7-6.1
		c1.5-0.5,1.5-2.2,3.4-2.2C250.4,126.7,251.6,127.7,253.1,128.9L253.1,128.9z"/>
	<path class="st0" d="M746.2,129.9c0.5,2.5-2,3.4-3.7,3.9c-2.9,1-4.4-1.2-5.6-3.2c0-1.5,1.4-2.4,1.9-3.7
		C742.3,125.5,744.5,127.9,746.2,129.9L746.2,129.9z"/>
	<path class="st0" d="M733.1,129.9c1,2.5-1.7,3.7-2.7,4.9c-1.7,0.7-3.9,0.5-5.4-1c-1.3-0.7-1.3-2.2-1.3-3.7c1.5-1.2,2.2-2.7,3.9-3.2
		C729.9,126.9,732.1,128.2,733.1,129.9L733.1,129.9z"/>
	<path class="st0" d="M843,132.8c0.5,3.4-3.9,1.7-5.6,2.7c-10.2,6.1-23.4,1.5-33.2-2.2c0.7-3.2,4.4-2,6.3-3.2
		c10.5-6.6,21.2,1.5,31.7,2L843,132.8L843,132.8z"/>
	<path class="st0" d="M175.8,129.9l-1,1.7c-9,5.4-20.7,9.1-31.4,5.7l-1-1.5c9-6.6,21-8.3,32.7-6.6L175.8,129.9L175.8,129.9z"/>
	<path class="st0" d="M771.1,131.6c0,2-1,3.7-2.4,4.7c-2.4,0.7-5.6,0-6.3-2.7c-0.7-2,1.2-3.9,3.2-4.7
		C767.2,128.9,770.1,129.1,771.1,131.6L771.1,131.6z"/>
	<path class="st0" d="M219.4,132.6c-1,2-0.5,3.9-2.9,4.9s-5.4-1.2-6.1-3.2c-0.7-2.7,1.2-3.4,2.4-4.7
		C215.8,128.2,218,130.4,219.4,132.6L219.4,132.6z"/>
	<path class="st0" d="M202.1,133.8c0.7,1.7-0.7,2.7-1.2,3.9c-1.2,1.5-3.4,1.2-4.9,0.7c-1.7-1.5-3.4-3.2-2.7-5.9
		c1.5-1.2,2.2-2,3.9-2.7C199.5,130.4,201.6,131.3,202.1,133.8L202.1,133.8z"/>
	<path class="st0" d="M788.2,139.4c-0.2,2.2-2,3.9-3.9,4.4c-1.9,0.3-3.7-1.2-4.6-2.5c-0.7-1.5-0.5-3.4,1-4.7
		c0.5-0.7,2.2-0.7,3.2-1.2C786,135.8,787.7,137.5,788.2,139.4L788.2,139.4z"/>
	<path class="st0" d="M184.1,136.7c0.8,2-1,2.7-1.2,4.2c-0.7,4.2-3.4,6.9-5.3,10.6c-4.6,5.6-11.2,5.6-17.8,7.4l-1-2
		c7.1-9.1,14.6-16.2,24.6-20.6L184.1,136.7L184.1,136.7z"/>
	<path class="st0" d="M776,142.1c0.5,3-2,3.5-3.7,4.7c-2.2,0-3.9-1.2-4.9-2.9c-0.7-2.7,1.7-3.7,3.2-4.9
		C773,138.5,775.2,140.2,776,142.1L776,142.1z"/>
	<path class="st0" d="M212.1,142.1c-0.2,0.5,0.3,1,0.7,1.2c-0.2,2.7-2.2,3.4-3.7,4.7c-2.2,0-3.9-0.7-5.4-2.4c-1-2.2,0-4.9,2.4-5.7
		C208.5,139.7,211.4,139.9,212.1,142.1L212.1,142.1z"/>
	<path class="st0" d="M820.8,149.5c2.4-0.3,2.9-3.2,5.6-3.7c2.4-0.5,4.6,1,5.8,2.7c1,3-1.2,4.4-3.2,5.7c-1.7,1.2-5.4-1.5-5.1,1.7
		c1.7,1.2,3.2,2.9,3.4,4.9c-0.5,1-2.2,0.7-2.9,0.3c-7.1-2.9-14.6-7.9-17.6-15.2c-1-2.2-5.6-3.9-2.9-5.9
		C811.1,139.4,816.9,145.1,820.8,149.5L820.8,149.5z"/>
	<path class="st0" d="M844.2,141.9c1.2,1.2,0.7,3.4-0.2,4.7c-1.2,2.5-4.9,1.5-7.1,1.2c-1.2-1.2-2.4-2.5-2-4.4c1-1.5,2-2.4,3.7-3.2
		C840.8,139.7,842.5,140.7,844.2,141.9L844.2,141.9z"/>
	<path class="st0" d="M755.7,155.2c2.2,2.7,4.4,6.9,5.4,9.8c-0.5,0.7-1.7,0.5-2.2,0.5c-8.3-4.7-19-9.8-22.2-19.6
		c-0.7-1-2.7-2.2-2.4-3.9c6.3-1.2,12.4,3.4,16.8,6.9C752.8,151.2,754.8,152.5,755.7,155.2L755.7,155.2z"/>
	<path class="st0" d="M198.5,145.8c1,2.2-1,3.9-2.2,4.9c-2.7,0.5-4.2-0.5-5.6-2c-1.7-2.7,1.5-4.9,3.4-5.9
		C196,142.6,197.2,144.6,198.5,145.8L198.5,145.8z"/>
	<path class="st0" d="M786.2,151.5c0.2,1.5-1.7,2.5-2.4,3.4c-2,0.2-3.9,1-5.6-0.7c-0.5-1.2-1.7-3.2-0.3-4.4
		C780.6,146.3,784.5,149,786.2,151.5L786.2,151.5z"/>
	<path class="st0" d="M846.9,154.9c0.7,2.9-1.5,4.9-3.4,6.1c-2.4,0.7-4.4-1-5.8-2.2c-1.2-1.5-0.3-2.9,0-4.7c1.7-1.5,3.9-2.7,6.3-1.7
		C845,153.2,845.9,153.7,846.9,154.9L846.9,154.9z"/>
	<path class="st0" d="M678.2,188.8c0,3-5.4,2.2-7.6,4.4c-7.6,3.9-16.6,3.9-25.6,3.7v-1.5C653.8,188.1,666.5,185.4,678.2,188.8
		L678.2,188.8z"/>
	<path class="st0" d="M322.5,199.4c-0.2,2.2-1.5,3.4-3.6,4.2c-1.7,0-3.4-1-4.1-2.4c-1-3,1.5-4.2,3.2-5.4
		C320.1,195.9,322.1,197.6,322.5,199.4L322.5,199.4z"/>
	<path class="st0" d="M674.1,202.1c-0.5,2.2-1.2,4.7-3.7,5.6c-2.2,0.5-3.6-0.7-5.4-1.7c-1.2-1-0.5-2.7-0.7-3.9
		C666,197.6,672.4,197.6,674.1,202.1L674.1,202.1z"/>
	<path class="st0" d="M722.6,203c-6.1,3.9-12.9,8.6-21,8.6l-13.2-0.3l-1.2-1c8.1-9.8,22.7-9.8,35.4-8.8V203L722.6,203z"/>
	<path class="st0" d="M255.8,208.9c0,2.2-1,3.9-3.2,4.7c-2.4,0.5-4.2-0.5-5.1-2.2c-1-2.2,0-4.4,1.9-5.6
		C252.1,204,254.8,207,255.8,208.9L255.8,208.9z"/>
	<path class="st0" d="M268,211.4c0.7,1.2-0.5,2-1,3.2c-1.4,0.7-3.4,1.2-4.6,0c-1.7-1-2.2-2.7-1.5-4.2s2.2-1.2,2.9-2.2
		C265.5,208.9,267.2,209.7,268,211.4L268,211.4z"/>
	<path class="st0" d="M174.6,236.2c-2.4,2.9-6.3-0.7-9-2.2c-8.5-4.9-8.3-14.5-16.8-20.1c1-2.9,3.2,0.2,4.9-0.2c1.5,1,3.4,2,5.1,2.7
		C167,221,169,228.8,174.6,236.2L174.6,236.2z"/>
	<path class="st0" d="M885.2,140.9c-3.9-7.1-10.5-10.1-18.3-10.1c-6.3,0.5-11,4.7-13.6,10.1c-1.5,5.4,0.5,10.3,4.6,13.5
		c1.7,0.7,3.9,0.5,4.9-1.2c1.2-3.2-2.2-3.2-2.7-5.6c-1-3.4,0.3-6.4,2.7-8.6c2.4-2.5,6.6-1.2,9.5-1.2c2.9,2,5.8,3.7,7.3,7.1
		c1.5,4.2,1.5,8.8,0,13c-2.7,6.1-8.8,11-15.1,12.3c-20.2,2.9-242.3,2-242.3,2c-26.1,2.5-55.8-4.9-78.2,8.8
		c-10.2,4.9-15.4,16.2-18.1,26.3c-6.6,5.9-13.6,12.8-19,19.4l-0.7-0.7c1.2-5.9,3.9-11.1,5.1-17c3.7-4.9,3.7-11.5,6.3-16.9
		c9.3-15,18-30.2,32.4-40.8c6.1-8.1,16.8-6.6,26.1-6.6c10,4.7,21.7,6.1,33.9,4.9c0.5-0.5,0.7-1,0.7-1.7c-3.4-3.2-9-4.4-12.9-7.6
		c-9.8-4.7-19,1.5-29.3,0.7c-0.5-0.5-1-0.7-0.7-1.5c9.3-6.9,19.8-11.8,30.2-16.2c8.5-4.7,17.6-7.1,26.6-10.6c3.7,0,7.1-3.2,10.5-1
		l12.9-3.4c0.5,0.3,1,1,1.9,0.7c11-3.7,24.9-0.3,37.3-0.5l1.7,1.5l11.7,2.9c4.4,0.5,6.4,5.7,11,5.9c2.4-3.4-2.7-4.9-3.9-7.1
		c5.4-1.2,11.5,0.2,16.3,2.5l-2.4,2.7c-1.4,2.7,0.7,4.7,2.9,5.6c1.7,0.5,2.9-0.7,4.1-1.2c3.2-2.2-0.2-4.4,0.7-6.4
		c18.1,3.2,35.4,7.6,52,14.7c4.6,1.5,9,4.9,14.2,4.7c-5.1-4.7-12.2-7.1-18.5-9.8c-4.2-2.5-10-2.7-13.2-6.1c0.7-1.2,2.4-0.7,3.2-1.7
		c8.3-1,15.4-7.1,21.2-13.8c0.5-1.5,3.2-1,2.9-2.9c-2.2-2.5-5.8,0.7-8.8,0.5c-10.2,2-14.6,14-24.9,16.2c-12.4-3-25.1-5.9-37.5-9.1
		c-6.1-1-12.7-1.5-18.3-3.9l-13.7-1.2H663c-0.2-0.5-1-0.7-0.7-1.5c8.8-2.2,16.3-7.4,25.1-9.6l65.3-30c6.8-6.1,12.9-13,18.5-20.1
		c0.2-2-1-3.9-2.7-4.7c-1.7-0.7-3.7-0.5-4.9,1c-2.9,2.2,0,4.9,0,7.6c-2.9,3.9-7.6,7.4-11.2,9.6c-1-0.2-67.3,30.2-67.3,30.2
		c-9.8,4.2-19.5,8.8-29.7,11l-14.1,2.2c-1,3-3.4,4.7-6.1,5.6c-3.9,0.7-7.1,3.2-11.2,3.2c-31.7,12.3-64.6,25.3-89.7,50.3
		c1.5-2.9,2.2-6.6,2.4-10.3c-0.5-3.7-0.2-7.9-2.7-10.8c-0.6-1.3-2.4-5.3-1.8-6.7l-3.6,2.3c-2.2,5.4-4.1,15.2-1.9,20.9
		c0.7,4.4,4.4,9.6,1,13.5c-11.7,14.2-18.3,31.4-26.1,47.6c-2.9-0.5-4.4-3.2-5.6-5.9c8.3-10.6,14.9-22.3,17.3-35.8
		c1.7-1.2,0.5-4.4,2.2-5.9c-0.5-3.9,2.2-7.9,0.3-11.1c1.6-5.3-7.1-10.3-1.6-13.7l-4.6,2.2c-10.5,13.8,5.4,34.4-6.5,47.6v1
		c-3.4,4.4-5.1,8.8-9.8,11.8c-5.9-2.4-8-9.1-11.4-14c-5.4-5.2-5.4-15.7-2.2-22.8c2.2-7.1-1.5-13.3-2.2-19.6l-2.4-1.5
		c-5.9,7.6-8,19.6-3.4,28.7c2.4,4.4,2.7,10.6,6.3,14.2c2.2,7.1,6.6,11.8,10.5,18.2c1,2.5-1.5,2.9-2.7,4.2c-2.7-1.7-2.2-5.6-4.7-7.4
		c-8-17.2-18.5-30.9-31.2-44.9c-0.5-2.2-2.7-4.2-1.5-6.6c4.6-4.4,5.6-13,3.2-18.7c-0.5-1.2-1.9-2.7-1.7-3.9l-3.6-2.9
		c0.5,8.6-5.1,16.2-2.7,25.3v0.5c-25.1-18.9-52.9-35.8-81.2-49l-2.2,6.2c7.1,1.8,26.1,13.3,26.1,13.3c8.5,3.2,16.3,8.3,24.4,13
		c33.2,18.4,55.1,48.9,70,82.8c0.3,2.7,2.7,5.6,1,8.3c-5.1-7.9-12.4-12.3-18.5-18.7c-1.7-11.5-8.5-22.6-18.5-27.3
		c-3.7-5.4-11.5-5.9-17.6-7.6l-88.7-0.5c-72.2-1-138,2.2-209.7,1c-10-1-22.2-4.4-25.1-15c-2-3.7-2-10.1,0-13.5
		c2.7-4.7,7.5-6.1,12.4-6.6c3.9,0.5,6.6,4.2,8.3,6.9c0,3.2-2.7,6.1-3.9,8.8c0.2,1,1.2,2.9,2.9,2.2c3.2-1.2,5.6-4.7,6.4-7.9
		c0.2-1.7,1-4.2-0.7-5.4c-1.5-5.2-6.8-8.8-11.5-10.1c-6.1-0.5-12.4,1.2-16.6,5.6c-5.9,4.9-5.6,13.8-3.9,20.6
		c4,11,15.4,18.3,26.4,19.8l237.2,1c23.2,1.2,49.2-2.7,72.6,2c8.5,2.7,17.6,9.1,19.8,18.7c-0.3,0.5-1,0.2-1.7,0.2
		c-19.3-12.5-44.6-17.2-69.2-14.2c-9.7-0.5-18.5,3.2-27.3,5.6c-4.6,1-9-1.2-12-3.9c-8.8-7.8-24.1-7.4-35.3-4.4
		c0,0.8-0.3,1.5,0.2,1.7c11.9-1,19,9.3,29.8,10.6c2.4,0.5,4.4-2.2,6.6-0.2c-11.2,5.4-21.9,11.8-33.9,15.2c-3.6-0.7-5.6-4.2-8.5-6.1
		c-4.6-5.1-13.1-2.9-19.5-3.4c-2.2,0.5-4.1-1-5.6,0c1.9,3.9,6.3,6.1,10.5,8.1c6.1,2.7,13.2-0.2,18.8,3.4c-1.5,1.7-3.4,2.2-5.1,3.4
		c-11.4,4.4-21,14.7-33.6,14c-13.4,1.5-27-2.5-36.1-11.8c-3.9-9.6-13.9-14.7-24.6-14.2c-0.7,0.5-1.7,0.5-1.5,1.7
		c5.4,3.2,9.5,9.6,14.9,13.3c3.4,4.2,10,0,13.2,4.7c4.6,3.2,10.5,5.9,15.8,6.9c3.9,1.7,8.3,2.5,12.7,3.5l-1.7,1
		c-22.2,7.4-47.8,8.1-72.6,7.1c-7.3-0.3-14.4-2.4-21.7-2.2c1.2,1.5,3.7,2.7,5.9,3.4c-1.9,1.2-4.2,1.7-6.6,2c-2.9,0.7-6.3,1-9.3,2.5
		c-3.9-0.2-7.3,1.2-10.5,2.4c-4.1,4.4-9,9.1-13.9,11.3c0,1-0.2,2.5,1,2.5c4.6-2,10.5-0.5,15.1-2.5c8-0.7,12.7-9.6,19-13.3
		c6.8-5.4,16.6-4.2,24.9-2.9c4.9,1.2-0.5,3.2,1,6.4c2,1.7,3.7,3.7,6.4,2.9c0.5-0.5,1-1,1.7-1.2c1.5-2,1.2-4.2,0.2-6.1
		c3.4-2.2,8.1,0.3,11.7-1.2c9.3-0.2,18.5-2.2,27.6-2.5c1.5-0.2,3.2-1.7,4.6-0.2c-0.7,2-3.2,2.2-2.2,4.9c0.5,2.2,2.9,3.2,4.9,3.7
		c2.4-1,4.6-2.7,3.7-5.9c-0.5-1.7-2.4-2-3.7-2.7c5.1-2.5,11-3.2,16.1-5.6c3.7-0.7,7.1-2,10.2-3.4c3.2-0.2,5.8-3.2,8.8-2
		c-1.2,4.2-2.9,8.1-5.1,11.8c-3.9,13-6.8,30.2,0,42.7c0.7,0.2,1-0.3,1.5-0.5c-5.1-13-2.2-28,2.2-40.3c3.4-20.9,24.9-27,40.2-34.9
		l0.7,1c-4.1,10.8-10.2,21.1-9.3,34.1c0.5,2.2-1,4.4,0,5.9c4.1-2.2,6.8-7.1,9-11.3c1.7-11-4.6-24.8,6.6-32.9
		c20-7.9,38.8-18.2,61.9-18.4c0.7,0.7,2.4-0.5,2.7,1c-4.9,5.4-11.9,10.6-14.1,17.2c-7.8,10.8-7.6,29.2-4.1,42.5
		c2.2,7.6-4.4,11.8-7.5,17.7c-1.5,2.1-2,5.7-3.3,8.1l4.8,0.5c4.1-4.4,8-9.8,8.3-16.2c0.5,2.5,2.7,4.4,4.6,4.9
		c1.7-2.7-1.5-4.7-1.7-7.4c3.9-2.2,5.6,2.7,8.8,3.7c5.1,1.2,9.5,3.4,14.9,3.4l1.7-1.7c-5.4-8.3-16.1-9.8-25.3-10.3
		c-4.9-8.1-4.9-18.2-4.4-28c1-5.2,2-10.6,4.9-15.2c1.2-3.4,4.6-6.6,6.8-9.3c4.4-4.2,10-7.1,15.4-8.3h0.7c0,0.5,0.2,0.7,0.2,0.7
		c-6.6,5.1-7.3,12.3-11.2,18.7c-4.1,6.1-6.1,14.5-2.2,21.4c1.5,3.2,0.7,8.1,4.1,10.3c3.2-4.4,3.4-10.1,5.1-15
		c-0.7-8.1-5.6-15.7-1-23.6c2.4-6.1,7.6-8.6,13.1-10.8c13.4-1.2,25.1,5.7,36.8,10.8c2.4,1.7,6.6,3.2,7.1,6.6
		c-0.3,6.6-3.9,13.3-9,16.5c-6.6,3.9-16.1,4.4-22.2-0.2c-3.7-3.7-5.1-10.1-3.9-15c2.7-2.9,6.3-5.4,10.7-3.9c2.5,1.2,4.7,3.7,7.8,2.2
		c1.2-0.7,1.7-2.7,1-3.9c-2.7-1.5-3.6-5.2-7.3-5.6c-4.6-0.7-10.2-0.5-13.4,2.7c-5.1,4.4-7.1,11.1-5.6,17.2
		c1.7,7.9,7.6,13.5,15.1,15.7c11.2,2.7,22.9-0.7,30-10.3c2.9-3.2,3.6-6.6,5.4-10.6c11.7,7.1,20.5,19.6,25.1,32.4
		c0,4.2,1.2,8.6,0.2,12.3l8.5,0.7c-0.7-2,0-4.2,0.7-5.9c3.2-16.2,13.2-29.7,25.1-40.3c4.1-2.5,3.2,3.2,4.1,4.9
		c3.6,9.3,12.2,16,21.2,18.7c10.2,1.7,20-0.7,26.3-8.6c3.2-5.9,7.1-14.5,1.7-20.6c-3.4-4.2-8-6.4-13.4-6.4c-6.4,0-10.2,4.4-13.4,9.1
		c0,2-0.3,4.2,1.5,5.2c1,0,2.9,0.2,3.7-1.2c0.5-3.7,3.6-5.4,6.6-7.4c2.7-1.5,5.6,0,7.8,1.5c2.7,2.2,3.2,5.9,3.4,9.6
		c-0.5,4.7-3.7,9.6-8,11.5c-7.1,3.7-17.3,2-23.4-2.2c-2.9-3.2-4.6-6.9-6.8-10.8c-0.5-3.9-2-7.4,0-11.3c10.7-6.4,21.9-11,34.8-12.3
		c5.1,1,9.5,4.4,12.9,8.1c11.2,11.5-2.4,28,5.4,40.8c2.9-0.5,2.9-4.4,4.1-6.9c3.7-8.8-1-18.4-3.2-27c-2.9-5.4-4.6-10.1-9.3-14.5
		c1.2-0.5,1.7-0.5,2.9-0.5c5.1,3.4,10.7,7.4,14.9,12.8c7.1,11.5,10.7,25.3,9.5,40.3c-1.9,7.4-9.7,10.8-15.8,13.5
		c-2.4,2-5.4,4.9-6.6,7.9c2.9,1.7,7.1,0,10-1.2c4.6-1.7,7.3-7.6,10.5-10.3c0.5,0.2,0.2,1,0.5,1.5c0.2,2.7-1.2,6.4,1.2,7.1
		c1.2-3.4,1.5-8.3,2.2-12.5c3.2,3.5,3.6,7.9,4.6,12.3c2.2,4.4,5.8,10.3,11.7,11c1.5-2.2-0.2-4.4-0.7-6.4c-0.7-6.1-5.9-9.3-9.3-13.8
		c-8.5-11.8-4.6-30.2-11.2-43.5c-2.4-7.1-7.6-12.3-13.2-18.2l1-1c11.9-0.2,22,3.7,32.9,5.9c13.4,6.6,32.9,5.2,39.3,22.6
		c2.7,9.8,7.1,18.9,13.9,26.5l0.7-0.5c1.5-2.4,1.5-6.6,0-9.1c-1.5-12.3-12.2-15.2-17.8-25.5l0.7-1c5.8,1.7,11.9,3.2,17.8,5.7
		c19.5,5.4,33.2,24.6,35.6,44.4c0,15.7-2.9,28.7-9,42c-0.8,2-4.1,4.2-2,5.9c2.7-2,3.2-5.2,4.6-7.4c8.1-13.5,12.2-32.2,8.1-49.4
		c-0.2-3.2-3.9-5.6-2.2-8.8c1.2,1.5,2.7,1.7,4.1,2.2c1.5-1,3.7-1,4.6-2.7c0.2-1.5,1.2-3.2,0-4.4c-1.5-2.2-4.6-2.2-7.1-1.7
		c-1.2,1.5-2.7,3.4-2.9,5.4c-2.4-4.2-4.9-9.6-8.8-13l0.5-0.7c11,3.7,21,9.1,32.2,12c2.4,1.5,5.1,2.7,8.5,2.7c9.5,3.7,20,5.2,30,7.6
		c7.3-0.7,13.4,2.7,20.7,1v-0.5l-0.2,0.2c-2.7-3.4-8.5-0.2-11.7-2.7c-16.8-1.7-32.9-6.1-48-12c0.2-0.7,1.2-0.5,2-0.5
		c2.4-1.2,4.1-3.4,3.9-6.1c-1.2-1.7-3.2-2.7-5.6-2.7c-1.5,0.7-3.4,2.4-3.6,4.2c0.2,2,1.9,4.2,3.6,4.7c-0.5,0.5-1.5,0.3-2.2,0.3
		c-7.6-3.4-14.9-6.6-22.2-10.1c-2.7-0.5-4.9-2.7-7.6-3.2c-5.6-2.7-11.2-5.4-16.8-7.6c-15.6-8.1-32.9-12.5-49.5-18.4
		c-3.7-1-7-2-10.5-3c-6.1-1.7-12.2-3.2-18.3-4.9c-20.7-5.1-48.5-5.6-66.6,5.7c-2.9-1-4.6,3.7-6.1,0.7c5.1-13.5,20-17.9,33.4-18.4
		c97.7-1,189.4-1.7,285.7-3.2c11.2,0,22.2-3.9,28-14C887.6,157.6,888.4,147.6,885.2,140.9L885.2,140.9z M497.6,231.5
		c-1,3-2.9,5.4-2.7,8.6l-1,0.5c0.7-3.7-2.9-5.9-1.9-9.8c-2-2.9-2-6.6-3.7-9.8c-2.2-3.9,1.9-5.6,3.7-8.3c3.4,1.5,4.6,4.7,7.1,7.6
		C500.5,224.4,497.3,227.6,497.6,231.5L497.6,231.5z"/>
	<path class="st0" d="M762.1,216.1c0,0.7,1.5,1,1,2.2c-8.5,7.6-20.5,9.8-32.7,10.3c-1,0.2-2,1-3.2,0.7c-0.7-0.5-1-1.2-0.5-1.7
		C735.5,218,748.9,213.1,762.1,216.1L762.1,216.1z"/>
	<path class="st0" d="M722.8,220c1,3.4-1.2,5.4-3.9,6.6c-2.7-0.2-4.1-2-5.4-3.9c-0.7-2,1-2.9,1.7-4.2
		C717.2,216.5,721.9,216.5,722.8,220L722.8,220z"/>
	<path class="st0" d="M259.4,220.5c0.5,1.7,0.2,3.9-1.2,5.2c-1,1.2-3.2,1.5-4.4,1.2c-1.7-0.3-2.7-2.2-3.2-3.7c0-2.2,1.2-3.4,3.2-4.7
		C255.8,218.5,257.9,218.3,259.4,220.5L259.4,220.5z"/>
	<path class="st0" d="M215.8,236.4v1.7c-5.8,1.2-11.4-0.2-15.8-3.7c-3.4-4.9-7.3-9.8-12.9-12.3c0-0.7-1.5-1.7,0-2.2
		C199.2,220,206.5,229.8,215.8,236.4L215.8,236.4z"/>
	<path class="st0" d="M799.1,220.2c-5.6,8.3-10.5,18.7-20.5,22.3c-1.7,0-3.2,2.5-4.7,0.8c3.9-9.3,12.2-19.4,21.7-23.3
		C796.7,220,798.2,219.7,799.1,220.2L799.1,220.2z"/>
	<path class="st0" d="M273.5,223.2c0.3,2.7-1.7,3.2-3.4,4.7c-2,0.2-2.9-1.2-4.2-2.7c-1-2.5,1.2-3.4,2.5-4.7
		C270.4,220,272.6,221.5,273.5,223.2L273.5,223.2z"/>
	<path class="st0" d="M829.8,224.6c-2.2,3.2-1.2,7.9-3.4,11.3c-4.9,5.6-9,12-16.8,13.3c-1.2-2.4,1.7-4.9,2.9-7.1
		c3.4-7.4,8.3-15.7,16.1-18.9L829.8,224.6L829.8,224.6z"/>
	<path class="st0" d="M140.2,226.9c0.7,1.7,1.5,3.4,0,5.4c-1.4,1.2-3.6,1.7-5.6,1c-2.2-1.2-2.9-3.9-1.9-5.9
		C134.1,225.1,138.5,223.9,140.2,226.9L140.2,226.9z"/>
	<path class="st0" d="M126.3,229.8c0.3,1.2,1,2.2,0.7,3.4c-0.7,1.2-1.9,2.7-3.4,3c-2.7,0.5-4.4-1-5.6-3.2c-0.3-2.2,0.5-4.2,2.4-5.2
		C122.7,226.9,125.1,228.1,126.3,229.8L126.3,229.8z"/>
	<path class="st0" d="M155.1,231.3c0.5,2,1,5.4-1.9,5.9c-3.4,1.5-5.4-1-7.3-2.9c0-2.2,1.2-3.9,2.9-4.9
		C151.2,229.1,153.4,229.3,155.1,231.3L155.1,231.3z"/>
	<path class="st0" d="M195.1,234.5c-0.3,1.7,0.2,4.2-1.7,4.7c-1.2,1.2-3.4,0.7-4.6,0.5c-0.5-1.5-3.2-2.7-1.7-4.4c1-1.2,2-2,3.4-2.7
		C191.9,233.2,194.1,232.5,195.1,234.5L195.1,234.5z"/>
	<path class="st0" d="M853.3,236.2c-0.7,1.7-1.7,3.9-3.7,3.9c-2.2-0.2-4.4-0.5-5.6-2.7c-1-2.7,1.2-4.2,3.2-4.9
		C849.6,232.5,852.8,233.5,853.3,236.2L853.3,236.2z"/>
	<path class="st0" d="M808.7,237.4c0.2,2-2,3.5-2.9,4.2c-3.4,1.5-6.3-1-7.6-3.7c0.5-2.2,2.2-3.7,4.1-4.4
		C805.5,233.2,807.2,235,808.7,237.4L808.7,237.4z"/>
	<path class="st0" d="M838.9,236.9c0,1.7-1,3.4-2.2,4.2c-2,0.7-4.4,0.5-5.9-1c-2.2-2-0.5-3.7,1-5.2C834,233.7,838.1,234,838.9,236.9
		L838.9,236.9z"/>
	<path class="st0" d="M133.9,241.1c0.5,2.7-0.5,5.1-2.9,6.1c-2.2,0-4.6-1.2-5.4-3.4c-0.2-2.2,0.5-4.4,2.4-5.2
		C130.4,237.9,132.4,239.4,133.9,241.1L133.9,241.1z"/>
	<path class="st0" d="M796.5,243.8c0.7,2.7-0.7,5.2-3.4,6.4c-2,0.5-3.2-0.5-4.6-1.7c-1-1.2-2.2-3.9-0.2-5.1
		C790.1,239.6,795,241.1,796.5,243.8L796.5,243.8z"/>
	<path class="st0" d="M265,246.5c1,2.7-1.9,3.2-2.7,4.7c-1,0.5-2.9,0.7-3.7-0.2c-1.2-1.5-2.7-3-1.9-5.2c1.2-1,1.7-2,3.2-2.4
		C262.6,242.6,263.6,245,265,246.5L265,246.5z"/>
	<path class="st0" d="M848.9,248.2c0.5,1.7-1,2.5-1.2,3.7c-1.5,1.2-3.9,1.5-5.6,1c-2.2-1.2-2.2-3.2-2.2-5.4c1.4-1,1.7-2.2,3.4-2.7
		C845.5,244.8,848.1,245.8,848.9,248.2L848.9,248.2z"/>
	<path class="st0" d="M833.8,249c1,2.9-1.7,4.4-3.7,5.2c-1,0.2-2.4-0.5-2.7,1c6.3,3.2,10.3,8.3,15.1,13v2
		c-8.8-0.2-17.8-2.4-24.1-9.3c-1.7-1.2-4.6-1.2-6.6-2.9c3.2-3.2,9-2,13.4-2.2c3.2-3.4-3.7-5.9,0.5-8.8c1.5-0.3,2.4-1.7,4.4-1.2
		C831.8,246.2,832.8,247.5,833.8,249L833.8,249z"/>
	<path class="st0" d="M734,249.2c0.5,1.2-1,2.7-1.2,3.9c-1.5,1.5-3.7,1.7-5.4,1c-1.2-1.7-3.2-3.2-2.4-5.7
		C727,244.8,733.3,245.5,734,249.2L734,249.2z"/>
	<path class="st0" d="M189,257.8c-0.8,2.2-1.7,3.7-4.1,3.9c-2-0.3-3.7-1-4.4-2.9c-0.2-1.7,1-2.7,1.2-3.9
		C184.3,252.6,189.2,254.1,189,257.8L189,257.8z"/>
	<path class="st0" d="M208.7,254.6c0,3.4-3.7,5.4-4.9,8.8c-3.7,8.1-10.2,15.5-19.5,16.2c-1-2.2,3.2-4.9,4.1-7.1
		c3.9-8.3,11.7-12.8,18.8-17.9H208.7L208.7,254.6z"/>
	<path class="st0" d="M728.2,258c0.2,2.7-2.2,4.7-4.2,5.7c-2.2,0.7-3.9-1-5.1-2c-2-2-0.7-3.9,0.2-5.9
		C722.1,252.9,726.3,255.3,728.2,258L728.2,258z"/>
	<path class="st0" d="M743.3,259.8c-0.3,2.7-1.9,4.7-4.4,5.4c-0.5-0.8-1.7-0.3-2.4-0.5c-1.7-1-3.2-2.5-3.2-4.4
		c1.2-1.2,1.7-3.2,3.4-3.4C738.9,256.6,742.6,256.8,743.3,259.8L743.3,259.8z"/>
	<path class="st0" d="M246.5,259.5c0.3,2.7-1.7,4.2-3.7,5.1c-2.2,0.3-3.6-1.2-4.6-2.9c-0.5-2.2,1.7-3.7,2.9-4.9
		C244.1,255.8,244.8,258,246.5,259.5L246.5,259.5z"/>
	<path class="st0" d="M263.3,260.5c-0.7,2.2-2.2,3.7-4.6,4.2c-1.7-0.5-3.7-1-4.4-2.9c-0.2-2.5,1.7-3.7,3.4-4.9
		C260.1,256.8,262.8,257.8,263.3,260.5L263.3,260.5z"/>
	<path class="st0" d="M795.7,277.7c1.2,1,3.4,2.2,2.9,3.9c-3.9,1.7-7.1-2.7-10.7-3.4c-5.9-5.9-10.3-12.3-12.7-19.6
		c2.2-2.2,4.6,0.5,6.6,1.2C787.4,264.4,792.8,270.6,795.7,277.7L795.7,277.7z"/>
	<path class="st0" d="M804.7,260.5c0.7,1.7,0.5,3.7-0.5,5.4c-1.5,2.5-4.6,2-6.8,1.5c-1.2-1.5-3.4-3.4-1.9-5.6c0.7-2,2.9-2.5,4.6-3.2
		C801.8,258.3,803,259.8,804.7,260.5L804.7,260.5z"/>
	<path class="st0" d="M285.7,266.9c0.2,2,0.7,4.9-1.7,6.1c-2.2,0.5-5.1-0.3-5.8-3c-1.2-2.9,1.4-3.4,2.9-4.9
		C283.1,264.7,284.3,265.7,285.7,266.9L285.7,266.9z"/>
	<path class="st0" d="M742.6,282.8c3.4,4.9,5.8,11,6.3,17.4c-0.7,1.7,1.2,3.4-0.2,4.7h-1c-11-7.9-13.4-18.9-17.5-30
		c-1-0.5-1.2-1.5-1-2.5c2.4-2.2,4.1,2.2,6.6,2.9L742.6,282.8L742.6,282.8z"/>
	<path class="st0" d="M317.4,274.5c-0.2,0.2,0,0.5,0.2,0.5c-9.8,6.9-23.4,11-34.6,4.4c-0.3-0.7,0.2-2,1.2-2.2
		c7.1-2.2,13.9-5.7,21.5-4.7L317.4,274.5L317.4,274.5z"/>
	<path class="st0" d="M261.8,275.7c-8.3,5.1-15.8,15.2-26.1,17.7c-2,0.7-3.2,3.4-5.6,2c4.4-13.3,18.8-20.4,31.7-21.6V275.7
		L261.8,275.7z"/>
	<path class="st0" d="M728.2,286.8c0.7,2,0,4.7-2,5.2c-1.2,1.2-3.7,1.2-4.6,0c-2.2-1-2.2-3.2-2.2-4.9c0.7-1.7,2.4-2,3.6-2.7
		C725.3,284.8,727,284.8,728.2,286.8L728.2,286.8z"/>
	<path class="st0" d="M708,288c-1.5,3.4-5.6,5.4-8.8,6.4c-8.3,2.9-15.9-1-23.2-3c0.2-2,2.7-1.2,3.9-2.4c8-1.7,16.3-3.4,24.8-1.2
		C705.5,287.3,707.2,287,708,288L708,288z"/>
	<path class="st0" d="M261.8,295.1c-0.7,1-1,3.2-2.9,3.9c-1.7,0.7-3.4,0-4.9-1c-0.5-1.5-2.2-2.7-1-4.4c0.5-1.7,2.4-2.2,3.9-2.7
		C259.4,291.2,261.4,292.7,261.8,295.1L261.8,295.1z"/>
	<path class="st0" d="M276.2,297.3c-0.7,1.5-1.5,3.7-3.4,4.7c-1.9,0.5-3.4-0.5-4.9-1.7c-0.7-1.5-1.5-3.2-0.7-4.9
		c0.5-1.2,2.2-1.5,3.4-2.2C273.1,292.9,275.3,295.4,276.2,297.3L276.2,297.3z"/>
	<path class="st0" d="M723.6,299.8c0.2,2-0.7,3.2-1.7,4.7c-1.2,1.7-3.7,2-5.4,1c-1.7-0.3-2.2-2.2-2.9-3.4c-1.5-2,1-3.2,1.7-4.9
		C718,294.9,722.3,296.1,723.6,299.8L723.6,299.8z"/>
	<path class="st0" d="M734.3,299.3c0.2,1.2,1,2.4,0.5,3.4c-1.5,1.2-2.4,4.4-5.4,3.2c-1.4,0.5-2.2-1.5-2.9-2c-1-2.5-0.2-6.1,2.9-6.6
		C731.6,296.6,733.1,298.6,734.3,299.3L734.3,299.3z"/>
	<path class="st0" d="M267.5,306.4c0.5,2.7-0.5,5.2-2.4,6.6c-2.7,0.5-6.1,0.5-7.1-2.7c-0.2-2.4,0-5.6,2.9-7.1
		C263.3,303,266.2,303.5,267.5,306.4L267.5,306.4z"/>
	<path class="st0" d="M281.4,305.4c-0.5,6.9-1.9,15.2-8.8,19.1c-3.9,0.7-7.8,4.4-11.7,2v-1.2C266,317.9,275.3,312.3,281.4,305.4
		L281.4,305.4z"/>
	<path class="st0" d="M685.3,311.1c1,1.5-0.7,2.7-1.4,3.9c-1.4,1.7-4.1,1-5.8,0.3s-2-3.2-1.2-4.9c0.5-1.5,1.9-2.2,3.2-2.7
		C682.1,307.4,684.1,309.4,685.3,311.1L685.3,311.1z"/>
	<path class="st0" d="M305.7,322.4c3.4,5.7,1.5,13.3,3.4,19.4c-4.2,0.5-5.9-4.2-8.5-6.6c-5.4-7.4-4.6-17.2-7.1-25.8
		c0.5-0.7,1.2-0.7,1.7-0.5c3.6,2.4,6.3,7.1,9.3,10.3C304,320.9,306,320.9,305.7,322.4L305.7,322.4z"/>
	<path class="st0" d="M697.5,313c0,2-2.2,2.5-3.4,3.7c-1.7-0.2-3.2-1-4.6-2.2c-0.7-2.4,1.2-3.2,2.4-4.4
		C694.3,309.1,696.7,310.3,697.5,313L697.5,313z"/>
	<path class="st0" d="M726.5,334.9c0,0.7-0.2,2.2-1.5,1.7h-1c-7.1-6.4-14.1-13.5-13.2-23.3l1.5-0.2
		C718.9,318.7,726.3,324.8,726.5,334.9L726.5,334.9z"/>
	<path class="st0" d="M708.2,327c0.2,2-1,3.4-2.2,4.7c-2.7,0.7-6.8,0.5-7.3-3.2c-0.2-2.5,2.5-3.7,3.7-4.9
		C705.3,322.9,707.2,324.8,708.2,327L708.2,327z"/>
	<path class="st0" d="M692.1,332.2c-3.4,9.1-12.7,13.8-19,20.6c-1.2-0.7-0.7-2.7-0.5-3.7c2.4-9.3,9.8-18.4,18.8-22.1
		C695.3,327.5,691.4,330.2,692.1,332.2L692.1,332.2z"/>
	<path class="st0" d="M710.4,339.6c0,2.2-2.2,3.2-3.4,4.4c-2-0.2-3.9-0.7-5.4-2.7c-0.2-2.5,1.7-3.2,3.2-4.4
		C707.2,336.4,709.4,337.6,710.4,339.6L710.4,339.6z"/>
	<path class="st0" d="M529-106.2c3.3,0,6,2.7,6,6.1s-2.7,6.1-6,6.1h-72.3c-3.3,0-6-2.7-6-6.1c0-3.3,2.7-6.1,6-6.1H529L529-106.2z
		 M477.9-95.7c7.1,0,0.4-8.6-3.4-8.6h-7c-7.1,0-0.4,8.6,3.4,8.6H477.9L477.9-95.7z M507.5-95.7c7,0,0.4-8.6-3.4-8.6H497
		c-7.1,0-0.4,8.6,3.4,8.6H507.5L507.5-95.7z M529.3-104.3h-2.7c-7.1,0-1.1,8.6,2.7,8.6C534.1-95.7,534.4-104.3,529.3-104.3
		L529.3-104.3z"/>
	<path class="st0" d="M522.7-23.3l13.8,5.3l13.6-5.3L544.7-3l10.7-2.2l-3.7,12.3l3.7,11.8l-9.6-2.6l4.2,21.9l-13.6-5.3l-13.8,5.3
		l5.6-21.9l-11,3.1l2.9-12.3l-2.9-11.8L527.7-3L522.7-23.3L522.7-23.3z M543.1,13.4c3.1,0,3.4-4.3,3.4-8c0-8.4-6.6,0-10-7.9
		c-2.5,6.7-9.3,0.5-9.3,7.6c0,4.9,0,8.2,4.9,8.2L543.1,13.4L543.1,13.4z M529.5,5.9c0,3.2,4.3,1.1,7.5,1.1s7.5,2.1,7.5-1.1
		c0-4.5-4.3-3-7.5-3S529.5,1.3,529.5,5.9L529.5,5.9z"/>
	<polygon class="st0" points="490.3,6.6 490.3,4.1 488,3.6 489.8,1.7 488.7,-0.3 491.1,-0.1 492.5,-2.6 493.9,-0.1 496.3,-0.3
		495.2,1.7 497,3.6 494.7,4.1 494.7,6.6 492.5,5 	"/>
	<polygon class="st0" points="479.6,20.4 479.6,17.9 477.3,17.4 479.1,15.5 478,13.5 480.4,13.7 481.8,11.2 483.2,13.7 485.6,13.5
		484.5,15.5 486.3,17.4 484,17.9 484,20.4 481.8,18.8 	"/>
	<polygon class="st0" points="497.8,18.7 497.8,16.1 495.5,15.7 497.3,13.8 496.2,11.7 498.6,12 500,9.5 501.4,11.9 503.8,11.7
		502.7,13.8 504.5,15.7 502.2,16.1 502.2,18.7 500,17.1 	"/>
	<polygon class="st0" points="500,29 500,27.5 498.7,27.3 499.7,26.2 499,25.1 500.4,25.2 501.2,23.8 502,25.2 503.4,25.1
		502.7,26.2 503.7,27.3 502.4,27.5 502.4,29 501.2,28.1 	"/>
	<polygon class="st0" points="483.1,40.8 483.1,36.4 479.1,35.6 482.2,32.4 480.3,28.8 484.3,29.3 486.8,25 489.2,29.2 493.3,28.8
		491.4,32.4 494.5,35.6 490.6,36.4 490.6,40.8 486.8,38 	"/>
	<polygon class="st0" points="491.7,-190.8 500.2,-169.7 522,-176.1 510.9,-156.2 529.5,-143 507.1,-139.3 508.5,-116.5
		491.7,-131.8 474.8,-116.5 476.2,-139.3 453.8,-143 472.4,-156.2 461.3,-176.1 483.1,-169.7 	"/>
	<path class="st0" d="M413,282.7c-2.6,1-3.6,1.7-3,4.4l3.1,12.9c0.6,2.4,0.7,6.2-0.9,8.5c-1.9,2.8-5.9,4.6-8.8,5.2
		c-2.1,0.5-6.7,1.4-10.4-0.2c-2.4-1-4-2.2-5.1-6.5l-3.2-13.6c-0.8-3.4-2.1-3.2-4.8-2.8l-0.2-1l16.3-3.9l0.2,1
		c-3.2,0.9-4.6,1.3-3.8,4.9l3.2,13.5c0.5,2.3,1.9,7.9,8.8,6.2c8.5-2,7.1-8.3,6.5-10.9L408,288c-0.6-2.5-1.5-3.7-5.7-2.9l-0.3-1
		l10.6-2.6L413,282.7L413,282.7z"/>
	<path class="st0" d="M437.2,285.4c-1.5-2.7-5.4-6.7-11.2-5.4c-2.5,0.6-4.9,2.4-4.3,5c0.5,2.2,1.6,2.9,6.1,3.7l7.8,1.4
		c1.8,0.3,6,1.9,7,6.3c0.8,3.6-1.2,9.2-10.2,11.2c-4.6,1-7.1,0.1-8.6,0.5c-1,0.2-1.1,1-1.1,1.7l-1.4,0.3l-2.2-10.1l1.4-0.3
		c1.9,3.9,5.7,7.9,11.9,6.5c5.8-1.3,5.2-5.4,5.1-5.9c-0.6-2.7-3.1-3.2-6.5-3.8l-3.5-0.6c-9-1.5-9.8-5-10.2-6.9
		c-0.5-2.5-0.3-8.3,9-10.4c3.9-0.9,6.5,0,7.9-0.3c1.1-0.2,1.2-0.9,1.3-1.7l1.5-0.3l1.9,8.8L437.2,285.4L437.2,285.4z"/>
	<path class="st0" d="M469.4,301.5l-17.7,1.7l-0.1-1c3.6-0.6,4.8-0.8,4.4-4.3l-2.1-21.9c-3.4,0.5-8.5,1.2-8.9,7.9l-1.4,0.1l-0.6-8.4
		l29.7-2.8l0.9,8.3l-1.4,0.1c-1.6-6.6-6.7-6.3-10.2-6.1l2.1,21.9c0.4,3.5,1.5,3.5,5.2,3.4L469.4,301.5L469.4,301.5z"/>
	<path class="st0" d="M510.7,301.5l-10.2-0.2l-10-13.3h-1.3l-0.2,8.2c-0.1,3.3,1,3.5,4.3,3.9v1l-16.8-0.3v-1
		c3.4-0.3,4.4-0.4,4.4-3.8l0.4-18.4c0.1-3.6-1.5-3.7-4.3-3.9v-1l16,0.3c3.5,0.1,14,0.6,13.9,7.6c-0.1,5.1-5.3,6.3-7.9,7l9.8,12.1
		c0.7,0.8,1.4,0.8,2,0.8L510.7,301.5L510.7,301.5z M489.2,286.7c6.5,0.1,9.1-0.8,9.2-6.2c0.1-4.2-1.9-6.1-5.9-6.1
		c-2.8-0.1-2.8,0.4-3.1,1.7L489.2,286.7L489.2,286.7z"/>
	<path class="st0" d="M543.4,305.7l-16-2l0.1-1c3.1,0.2,4,0.2,4.1-1.1c0.1-1.1-1.1-4.4-1.6-5.8l-11.1-1.4c-1.8,2.8-2.8,4.4-2.8,5.1
		c-0.2,1.6,2.2,2,3.8,2.3l-0.1,1l-10-1.3l0.1-1c2.7,0,3.6-1.3,5.4-4.2l13.8-21.3l1.4,0.2l8.3,23.2c1.7,4.7,2.3,6.2,4.7,6.4
		L543.4,305.7L543.4,305.7z M529.5,294l-3.7-10.7l-5.9,9.5L529.5,294L529.5,294z"/>
	<path class="st0" d="M572.3,311.6l-28.3-5.2l0.2-1c2.8,0.2,4.3,0.4,4.7-2.1l3.6-19.9c0.5-2.7-1.5-3.2-3.7-3.7l0.2-1l17.1,3.2
		l-0.2,1c-3.5-0.5-5-0.7-5.6,2.9l-3.5,19.4c-0.4,2,0.7,2.5,3.9,3.1c7.4,1.4,10.8-1.5,13.8-5.8l1.4,0.3L572.3,311.6L572.3,311.6z"/>
	<path class="st0" d="M591.1,315.8l-17.1-3.6l0.2-1c2.7,0.3,4.6,0.6,5.1-2l4.1-19.8c0.6-2.7-1.7-3.3-3.9-3.9l0.2-1l17,3.6l-0.2,1
		c-2.3-0.4-4.7-0.8-5.2,1.9l-4.1,19.8c-0.5,2.6,1.4,3.1,4,3.9L591.1,315.8L591.1,315.8z"/>
	<path class="st0" d="M625.7,320.2l-16-1.7l0.1-1c3.1,0.1,4,0.2,4.1-1.2c0.1-1.1-1.2-4.4-1.7-5.8l-11.1-1.1
		c-1.7,2.8-2.7,4.5-2.7,5.1c-0.2,1.6,2.2,1.9,3.9,2.2l-0.1,1l-10-1l0.1-1c2.7-0.1,3.6-1.4,5.3-4.4l13.3-21.6l1.4,0.1l8.8,23
		c1.8,4.7,2.4,6.2,4.8,6.3L625.7,320.2L625.7,320.2z M611.6,308.8l-4-10.6l-5.7,9.6L611.6,308.8L611.6,308.8z"/>
	<path class="st0" d="M498.5-16.5c0-10-5.6-0.6-8.7-9.1c-2.3,7.2-9,1.1-9,8.9c0,3,0.8,4.7,2.2,5.6v3c0,0.8,0.6,1.4,1.4,1.4H495
		c0.8,0,1.4-0.6,1.4-1.4v-3.2C497.6-12.5,498.5-14.2,498.5-16.5L498.5-16.5z M489.8-14.6c-2.9,0-6.9,2-6.9-1.4
		c0-4.9,3.3-3.8,6.3-3.8c2.9,0,7.5-1.1,7.5,3.8C496.7-12.6,492.7-14.6,489.8-14.6L489.8-14.6z"/>
	<path class="st0" d="M585.8,106.5c2.5,0,4.6-1.8,4.6-4.1c0-2.2-2.1-4.1-4.6-4.1s-4.6,1.8-4.6,4.1
		C581.2,104.7,583.2,106.5,585.8,106.5L585.8,106.5z"/>
	<path class="st0" d="M564.1-42c0,0-2.2,3.6-2.2,4.3c0,1.3,1,2.4,2.2,2.4c1.2,0,2.2-1.1,2.2-2.4C566.3-37.7,564.1-42,564.1-42
		L564.1-42z"/>
	<path class="st0" d="M416.9-42c0,0-2.2,3.6-2.2,4.3c0,1.3,1,2.4,2.2,2.4s2.2-1.1,2.2-2.4L416.9-42L416.9-42z"/>
	<path class="st0" d="M453.7-42c0,0-2.2,3.6-2.2,4.3c0,1.3,1,2.4,2.2,2.4s2.2-1.1,2.2-2.4C455.9-37.7,453.7-42,453.7-42L453.7-42z"
		/>
	<path class="st0" d="M490.5-42c0,0-2.1,3.6-2.1,4.3c0,1.3,1,2.4,2.2,2.4s2.2-1.1,2.2-2.4C492.7-37.7,490.5-42,490.5-42L490.5-42z"
		/>
	<path class="st0" d="M527.3-42c0,0-2.2,3.6-2.2,4.3c0,1.3,1,2.4,2.2,2.4s2.2-1.1,2.2-2.4C529.6-37.7,527.3-42,527.3-42L527.3-42z"
		/>
	<path class="st0" d="M417,8.6c0,0,2.2,3.6,2.2,4.3c0,1.3-1,2.4-2.2,2.4s-2.2-1.1-2.2-2.4C414.7,12.8,417,8.6,417,8.6L417,8.6z"/>
	<path class="st0" d="M417,57.7c0,0,2.2,3.6,2.2,4.3c0,1.3-1,2.4-2.2,2.4s-2.2-1.1-2.2-2.4C414.7,61.9,417,57.7,417,57.7L417,57.7z"
		/>
	<path class="st0" d="M422.9,96.5c0,0,2.2,3.6,2.2,4.3c0,1.3-1,2.4-2.2,2.4s-2.2-1.1-2.2-2.4C420.6,100.8,422.9,96.5,422.9,96.5
		L422.9,96.5z"/>
	<path class="st0" d="M453.7,117.2c0,0,2.2,3.6,2.2,4.3c0,1.3-1,2.4-2.2,2.4s-2.2-1.1-2.2-2.4C451.5,121.4,453.7,117.2,453.7,117.2
		L453.7,117.2z"/>
	<path class="st0" d="M566,8.6c0,0-2.1,3.6-2.1,4.3c0,1.3,1,2.4,2.2,2.4c1.2,0,2.2-1.1,2.2-2.4C568.2,12.8,566,8.6,566,8.6L566,8.6z
		"/>
	<path class="st0" d="M566,57.7c0,0-2.1,3.6-2.1,4.3c0,1.3,1,2.4,2.2,2.4c1.2,0,2.2-1.1,2.2-2.4C568.2,61.9,566,57.7,566,57.7
		L566,57.7z"/>
	<path class="st0" d="M560.1,96.5c0,0-2.2,3.6-2.2,4.3c0,1.3,1,2.4,2.2,2.4c1.2,0,2.2-1.1,2.2-2.4
		C562.3,100.8,560.1,96.5,560.1,96.5L560.1,96.5z"/>
	<path class="st0" d="M529.2,117.2c0,0-2.1,3.6-2.1,4.3c0,1.3,1,2.4,2.2,2.4c1.2,0,2.2-1.1,2.2-2.4
		C531.5,121.4,529.2,117.2,529.2,117.2L529.2,117.2z"/>
	<path class="st0" d="M491.7,139.1c0,0-2.2,3.6-2.2,4.3c0,1.3,1,2.4,2.2,2.4s2.2-1.1,2.2-2.4C493.9,143.3,491.7,139.1,491.7,139.1
		L491.7,139.1z"/>
	<path class="st0" d="M551.6,65.9c0.5,0.7,1.6,0.9,3.1,0.4l1.4-4c0.1-0.3-1.6-1.9-2.6-1.6c-3.9,0.9-8.1,1.4-10.4,5.1
		c0,2.6,1.9,4.9,3.7,6.1c1.4-0.5,1.6,0.9,2.5,1.6c0.2,1.2-0.5,2.1-1.6,2.1c-2.8-2.8-7.7,0.9-9.7-2.6c0.9-3.5,2.8-7.5-0.2-10.7
		c0.2-0.7,1.4-1.4,0.7-2.1c-1.2-3.3-4.7-0.7-6.7-0.7c-3.5-0.5-6.3,1.4-8.3,4.2c0.2,1.2,0.7,2.3,1.8,3.5c0.9-0.2,1.4,0,1.6,0.9
		l-2.3,1.4c0.7,0.7,0.7,1.6,0.9,2.6c-1.6,0.7-3.2-1.6-4-2.8c0-1.9,0.2-5.1-2.3-5.6c-0.5,0-2,0.7-2,0.7c-0.5,0.7-0.9,2.2-0.9,3.9
		s0.9,4.2,0.9,4.2s7.2,5.3,8.8,8.5c-2.1,4.2-2.1,10-6.9,12.4c-1.4,0.9-1.4,2.3-1.4,3.7l1.2,0.9c3-1.6,8.8-2.1,8.3-7.2
		c1.1-2.1,2.3-4.4,4.4-6.1c2.3-0.5,4.4,0.7,5.3,2.6c-0.7,3.5-3,5.8-6.2,7c-0.4,0.5-0.2,1.2-0.2,1.9c0.9,1.6,3.5,0.9,4.9,0.7
		c3.9-2.6,5.6-7.2,9-8.6c0.5,2.3-4.6,3-1.4,5.4c2.1-0.5,4.9,0.2,6.3-2.6c-1.6-4,5.5-5.8,1.1-9.3c0-3.5,3.7-4.9,3.5-8.6
		c-1.4-3.7-5.8-3.7-6.9-7.2C548.1,64.9,550.2,65.2,551.6,65.9L551.6,65.9z"/>
	<path class="st0" d="M382.4,108.3c2.5,0,4.6-1.8,4.6-4.1c0-2.2-2.1-4-4.6-4c-2.6,0-4.6,1.8-4.6,4
		C377.8,106.5,379.9,108.3,382.4,108.3L382.4,108.3z"/>
	<path class="st0" d="M143.6,247.8c2.5,0,4.5-1.9,4.5-4.3s-2-4.3-4.5-4.3s-4.5,1.9-4.5,4.3C139.1,245.8,141.1,247.8,143.6,247.8
		L143.6,247.8z"/>
	<path class="st0" d="M295.6,281.6h-0.3l-0.3-0.4l0,0v0.2c0,0.1,0,0.1,0.1,0.1l0,0h-0.5l0,0c0.1,0,0.1,0,0.1-0.1v-0.5
		c0-0.1,0-0.1-0.1-0.1l0,0h0.5c0.1,0,0.4,0,0.4,0.2c0,0.1-0.2,0.2-0.2,0.2L295.6,281.6L295.6,281.6L295.6,281.6L295.6,281.6z
		 M295,281.2c0.2,0,0.3,0,0.3-0.2c0-0.1-0.1-0.2-0.2-0.2s-0.1,0-0.1,0.1V281.2L295,281.2z"/>
	<path class="st0" d="M296.2,281.1c0-0.1-0.1-0.2-0.3-0.2c-0.1,0-0.2,0-0.2,0.1s0,0.1,0.2,0.1l0.2,0.1c0,0,0.1,0.1,0.1,0.2
		s-0.1,0.3-0.4,0.3c-0.1,0-0.2,0-0.2,0l0,0l0,0v-0.3l0,0c0,0.1,0.1,0.3,0.3,0.3c0.2,0,0.2-0.1,0.2-0.1c0-0.1-0.1-0.1-0.2-0.1h-0.1
		c-0.3-0.1-0.3-0.2-0.3-0.3c0-0.1,0-0.2,0.3-0.2c0.1,0,0.2,0,0.2,0l0,0l0,0L296.2,281.1L296.2,281.1L296.2,281.1z"/>
	<path class="st0" d="M297.8,280.8c-0.1,0-0.1,0-0.1,0.1l-0.3,0.7l0,0l-0.2-0.6l0,0l-0.3,0.6l0,0l-0.3-0.7c0-0.1-0.1-0.1-0.1-0.1
		l0,0h0.4l0,0c-0.1,0-0.1,0-0.1,0.1l0,0l0.2,0.4l0,0l0.2-0.4l-0.1-0.1c0,0,0,0-0.1,0l0,0h0.5l0,0c-0.1,0-0.1,0-0.1,0v0.1l0.2,0.4
		l0,0l0.2-0.4l0,0c0-0.1-0.1-0.1-0.1-0.1l0,0H297.8L297.8,280.8L297.8,280.8z"/>
	<path class="st0" d="M297.8,281.6c0.1,0,0.3-0.1,0.4-0.3c0,0,0,0-0.1,0c0,0,0,0-0.1,0c-0.1,0-0.3,0-0.3-0.3c0-0.1,0-0.3,0.3-0.3
		c0.1,0,0.3,0.1,0.3,0.4C298.4,281.4,298.2,281.6,297.8,281.6L297.8,281.6L297.8,281.6z M298.1,281.3
		C298.2,281.3,298.2,281.3,298.1,281.3c0.1,0,0.1-0.1,0.1-0.1c0-0.2,0-0.3-0.1-0.3s-0.1,0.1-0.1,0.2
		C298,281.2,298.1,281.3,298.1,281.3L298.1,281.3z"/>
	<path class="st0" d="M298.6,281.1c0.1,0,0.2,0,0.3,0c0.1,0,0.2,0.1,0.2,0.2c0,0.2-0.2,0.3-0.4,0.3c-0.1,0-0.2,0-0.2-0.1
		c0,0,0-0.1,0.1-0.1c0.1,0,0.2,0.1,0.3,0.1s0.1,0,0.1-0.1s-0.1-0.1-0.2-0.2C298.7,281.2,298.6,281.2,298.6,281.1l0-0.4h0.5l-0.1,0.2
		h-0.4L298.6,281.1L298.6,281.1z"/>
	<path class="st0" d="M576.4-47.8L576.4-47.8l-169.9-0.1v0.1h-0.1L406.6,82c0,13.2,5.6,24.8,13.3,28.4l65.3,41.5
		c1.4,1.6,3.6,2.7,6,2.7c2,0,3.9-0.8,5.3-2.1l66.4-42.1c7.7-3.6,13.4-15.1,13.4-28.4L576.4-47.8L576.4-47.8L576.4-47.8z M571.6,83.8
		c-0.9,9.8-4.2,18-11,22.6l-64,40.7h-0.4c-1.3,1.1-3,1.7-4.9,1.7s-3.7-0.7-5-1.8l-63.9-40.7c-6.8-4.6-10.1-12.8-11-22.6v-127h160.3
		V83.8H571.6z"/>
	<path class="st0" d="M514.3,141.4l2-1C515.5,140.7,514.9,141.1,514.3,141.4L514.3,141.4z"/>
	<path class="st0" d="M386.1,318.9l-16,1.9l-0.1-1c3-0.6,3.9-0.7,3.8-2.1c-0.1-1.1-2.1-4-2.9-5.3l-11.1,1.3c-1,3.1-1.6,4.9-1.6,5.6
		c0.2,1.6,2.6,1.4,4.3,1.3l0.1,1l-10,1.2l-0.1-1c2.6-0.6,3.2-2.1,4.3-5.4l8.4-24l1.4-0.2l13.5,20.5c2.7,4.2,3.7,5.5,6,5.1
		L386.1,318.9L386.1,318.9z M370,310.8l-6.2-9.5l-3.5,10.6L370,310.8L370,310.8z"/>
	<path class="st0" d="M667.5,258c-2.9-7.6-9-12.8-16.6-15.2c-7.8-1.7-16.1-0.5-21.2,5.4c-8.8,7.1-2.7,18.9-2.4,28.5
		c0,2,0.3,3.4-1.7,4.4c-35.3-3.2-68.3-12-103.4-15.7c-8.1-1.4-16.2-1-23.8-2.7l-9.8-1c-30.5,1-60.9,2.7-89.5,10.1
		c-6.1,2-12.9,2.4-19,4.7c-4.4-0.7-8,2.4-12.2,1.2l-8,1.9c-0.7,0.1-1.6,0.1-2.7-0.2c-3.9-10.1,7.8-16.2,4.1-26
		c-3.2-5.6-9.5-11-16.8-10.1c-8.3-1-15.6,3.7-19.5,10.1c-5.6,12.3,1.5,25.1,3.7,37.1c-0.5,3.9,3.9,8.3,0,11.5
		c-7.8-5.4-18.1-8.4-27.5-5.6c-2.9,1.5-8.3-0.5-9.7,2.9c10.5,5.6,23.9,4.9,35.6,4.4c1.5-0.5,2.5-0.7,3.7,0.3c1,6.4-1.2,15,2.7,20.6
		c4.4,5.9,11.7,7.4,18.7,8.1c22.4-0.7,42.4-7.4,62.9-12.5c3.2-0.2,5.6-2,9-2c11-2.5,22.9-4.4,34.6-4.7c-5.1,6.6-8,14-10.2,22.1
		c-2.9,6.6,5.1,7.6,7.6,11.3c-7.6,2.2-12.9,7.4-20,10.3c-15.6-0.5-28.8,5.4-43.4,7.1c-0.2,3.2,5.1,2.2,5.6,5.4
		c-0.7,2.2-2.9,2.5-4.6,3.7c-0.3,1.5,0,1.7,1.5,2c1.5-1.7,4.6-0.5,6.1-2.2c4.9,0,9-1.5,13.6-1.7c4.1-1.7,8.8-2,12.4-4.9
		c5.1-1.5,8.3-4.9,13.4-6.4c7.3,0,13.9-2.5,20.7-3v1.5c-5.6,9.1-11.5,18.4-17.3,27c-1,1.7,0.2,3.4,1.7,3.9c3.4,1,6.8,0,9.5-1.5
		c5.1-8.8,9.7-17.2,13.9-26.3c1.7-8.3,7.8-12.8,13.9-18.4c1-0.5,2.4-2,3.4-0.5c-4.9,5.6-8,11.1-11.7,17.2c-2,6.9-2.5,15.7,3.6,21.4
		c2.9,2.5,7.3,1.7,11.2,2c9.5-4.9,21.7,2.9,29-6.4c4.4-0.7,5.1,4.4,7.6,6.9c4.1,1.2,8.5,5.4,12.7,2.4c-0.3-2.7-3.2-5.2-4.6-7.6
		c-2.9-5.2-6.6-9.3-9.3-14c-1.2-3.4-3.4-5.6-3.9-9.1c4.4,1.5,8.3,4.4,13.2,5.2c4.1,1.7,9.2,1.5,13.1,3.9c3.2,4.2,8,6.6,12.2,9.3
		c6.1,2.9,12.9,3.4,19.2,5.9c2.4,0.2,6.1,2.2,7.8,0c-1-1.2-2.2-2-3.7-2.7c-0.7-3.2,4.4-1.5,6.1-3.9c-0.6-1.2-1.7-1.7-2.8-1.9
		c-3.5-1.9-12.2-2.5-14.5-3.8c-2.9-0.5-5.6-1.7-8.5-2.7c-14.6,0-22.7-13.3-34.4-18.2c2.7-2.5,6.8-4.4,8.5-8.1
		c2.2-3.4,2.9-9.1,0.7-13c-2.2-7.6-11.9-6.6-17.5-10.8l0.7-0.7c9.5-0.5,17.8,1.7,26.3,3.4c23.4,3.2,45.1,12,69.5,12.5
		c13.4,0,30.2,0.7,36.8-12.3c1.2-7.6,2.7-15.2,3.9-22.8C660.7,282.8,668.7,271.5,667.5,258L667.5,258z M404.2,370l-3.4-3.2
		c1.7-2.2,5.4-1,8-2.5c6.3-2,13.7-4.4,20.7-2.9C422.3,367.3,412.7,368,404.2,370L404.2,370z M556.4,366.1c5.8,2.6,17.5,5.2,26,6.2
		c-0.8,3.3-6.7,0.2-6,4.9c-7.5-2.9-16.3-4.4-21.9-10.3C554.9,366.6,555.4,365.8,556.4,366.1L556.4,366.1z M327.7,261.7
		c0.7-4.4,1.7-9.1,5.8-12.3c5.9-3.2,13.9-2.4,19.3,0.8c1.7,1,2.9,2.4,3.9,4.6c1.2,4.2-0.8,8.6-3.7,11.1h-2.4c0-3.9,0-7.9,1.5-11.1
		c-0.2-2.9-2.7-3.2-4.6-4.4c-4.1-1.2-7.8,0.7-11,2.5c-2.4,2.9-4.6,6.6-3.2,10.8c1.7,2.7,0.2,6.4,1.2,9.3l-0.7,1
		C330.8,270.8,326.9,267.4,327.7,261.7L327.7,261.7z M339.1,268.7c3.7,2.7,8.8,1.5,13.2,2.2c0.7,2.7,0.7,6.1-1.2,8.4
		c-4.1-1-9.5-0.5-11.7-4.4C339.9,273.2,338.6,270.7,339.1,268.7L339.1,268.7z M338.4,260.5c0.7-2,0-4.9,2.7-5.4
		c1.7-0.5,4.4-0.5,4.6,1.5c-0.2,3-0.5,5.9-1.2,8.6C341.1,265.4,339.4,263.4,338.4,260.5L338.4,260.5z M452.7,339.3
		c-1.2-8.6,2.2-16,7.8-22.1c3.4-0.7,7.3-1.5,10.5,0.5c-6.3,1.7-14.4,3.2-15.8,11.3c0.2,3.2-0.8,4.9,0.7,7.6
		c2.7,4.7,8.8,2.7,12.2,6.4c0,1.2-1,2.7-2.2,3C461.7,343.5,456.6,342.5,452.7,339.3L452.7,339.3z M444,356.3
		c5.9-2.5,12-7.6,18.5-5.4C457.9,354.5,450.3,356,444,356.3L444,356.3z M467.1,358.7c-3.4,7.8-7.3,15.5-11.9,23.1
		c-0.5,1.2-2.5,1.5-3.9,1.7c0-3.4,3.4-6.1,4.9-9.1c5.1-6.6,6.6-13.8,12.4-20.1C470,355.8,467.1,356.8,467.1,358.7L467.1,358.7z
		 M473.2,344.5v1h-0.5v-1v-0.3h1c-0.2,0-0.7,0-1,0.2L473.2,344.5L473.2,344.5z M471,337.8c-4.2-0.5-8.1-1.7-11.7-2.9
		c-2.4-2.5,0-5.2,0-7.9c3.4-5.4,13.2-8.1,17.8-3.2C476.4,329.2,474.4,333.9,471,337.8L471,337.8z M476.4,337.8
		c0.7-3.2,2.2-7.4,3.9-10.3C480,330.7,478.6,335.1,476.4,337.8L476.4,337.8z M479.1,317.9c-3.2-0.7-4.9-4.4-8.3-4.4
		c2.9-1,5.8-0.7,9.3-0.2C481.2,315,479.3,316.5,479.1,317.9L479.1,317.9z M482,325.3h-0.3v-2.7h0.3V325.3L482,325.3z M482.2,336.6
		c-0.3-1,0.5-2.2,0.7-3.4c1.2-1.2,2.4,1,2.9,1.7C485.2,336.1,483.7,336.9,482.2,336.6L482.2,336.6z M485.9,321.4
		c1.2-3.4,1.4-6.4,3.6-9.1c2.4,0,4.6,0,6.6,1c0.5,4.9,6.6,11.5,0,15.7c-2.2,1-5.4,3.2-7.8,1C485.2,327.3,484.7,324.8,485.9,321.4
		L485.9,321.4z M503.7,314.5c-0.5-2.2,2.2-0.5,3.2-1.5l7.6,0.5C510.5,313,505.6,322.1,503.7,314.5L503.7,314.5z M515.9,317.7
		c-2.9,1-5.1,4.4-8.1,5.2C509.3,320.2,513,317.5,515.9,317.7L515.9,317.7z M505.6,332.9v0.7h-0.2v-0.7H505.6L505.6,332.9z
		 M506.1,347.9c-0.2,0.5,0.3,1.2-0.5,1.7l-5.6-4.4C502.7,344.7,504.7,345.9,506.1,347.9L506.1,347.9z M499.5,340.3
		c0.5-0.5,1.7-0.5,2.2,0H499.5L499.5,340.3z M496.1,336.6c1-1.5,2.2-3.7,3.9-3.7c0,0.2,0.2,0.5,0.5,0.7
		C499.1,334.9,497.8,336.1,496.1,336.6L496.1,336.6z M490.5,336.1h-1l1.5-1.5C491.7,335.1,490.8,335.6,490.5,336.1L490.5,336.1z
		 M491.3,345.4c3.2-3.4,6.1,2,7.3,4.7c3.7,5.4,13.2,10.3,9.5,17.7c-4.6,4.2-11.9,0.3-17.1,3.5c-2.7-0.3-7.3,0.5-8.8-2.2
		C484.9,361.2,487.3,352.3,491.3,345.4L491.3,345.4z M484.4,350.1l1.2-2c-1.9,5.9-4.9,12-8,17.7
		C476.1,359.9,482.2,355.3,484.4,350.1L484.4,350.1z M495.2,379.3c-4.6,0.3-11.7,3-16.1-1c0.2-2-1.9-2.9-1.7-4.9
		c3.9-1.5,7.3,3.2,11-0.3c5.6,0.3,11.5-0.7,17.1,0.5c2.7,0.7,6.8-4.4,7.3,0.7C510.7,382.5,501,376.9,495.2,379.3L495.2,379.3z
		 M509.3,344v-0.8h0.5v0.7L509.3,344L509.3,344z M510.7,359.4c0.3,2.5,2.7,3.4,1.2,5.7C511.5,364.1,510,361.9,510.7,359.4
		L510.7,359.4z M517.6,374.2l-1.2,0.5c-1.2-1-0.7-3.7-0.5-5.2C517.3,370.7,518.5,372.5,517.6,374.2L517.6,374.2z M529.8,380.1
		c-0.2,0.7-1.5,0.7-1.9,0.2c-7.3-9.3-10.7-19.1-15.4-29.5l1-0.2C519.3,360.2,523.9,370.7,529.8,380.1L529.8,380.1z M538.8,357.5
		c-0.5,0.2-0.5,0.7-0.5,1c-7.1,0.3-11.7-3.9-17.1-7.6l-0.3-1.2C527.6,350.1,532.9,354.3,538.8,357.5L538.8,357.5z M532.5,324.8
		c2.9,0.7,3.1,3.9,3.4,6.4c-0.3,5.4-3.2,10.1-8.3,12c-2.7,1.5-6.8,2-9.5,1c5.8-0.2,12.2-2.4,14.6-8.4L532.5,324.8L532.5,324.8z
		 M527.1,323.8c1.2,3.4,3.4,6.6,2.2,10.8c-2.4,4.7-7.3,4.7-11.7,5.6c-2.2,0.3-3.9-0.5-5.6-1.7c0.2-1-0.2-1.7-1-2.4
		c0.7-3.2-5.6-6.4-1.2-9.1C513.7,323.3,522.9,315,527.1,323.8L527.1,323.8z M650.9,305.9c-2,2.4-0.2,6.4-2.7,8.6
		c0,4.4-3.7,6.6-6.8,8.3c-29,6.4-57.5-3.4-85.6-8.3c-39.3-8.6-85.1-11-125.1-2c-18.8,3.4-37,7.9-55.1,13
		c-11.2,1.5-23.4,3.2-34.1-0.2c-8.8-4.2-5.1-15.5-7.8-23.3c0.5-6.1-1.7-11-1.9-16.9c-0.7-2-1.2-4.4-1-6.4c3.6,0.5,7.3,3.2,11.2,4.2
		c20.5,3.9,38.8-2.7,57.8-6.1c18.3-3.9,37-7.1,56.3-8.6c21.9-0.2,44.4-1.5,65.3,2.2c6.8,0.2,12.7,2,19.2,2.4
		c13.7,1.7,26.3,5.4,40.2,6.4c2.2,0.7,4.9,0.7,7.3,1.2c21.9,3.4,46.6,9.6,67.5,0C655.8,289.2,652.1,297.3,650.9,305.9L650.9,305.9z
		 M644.1,276c0.2,3.9-3.4,2.9-5.4,4.4h-5.9c-1.2-2-0.7-4.9-0.7-6.9C636,274.2,640.4,274.2,644.1,276L644.1,276z M641.4,269.8
		c2.7-2.7-0.7-18.2,6.8-8.1c0,2,0.3,4.9-1.7,6.4C645.3,269.1,643.4,271.1,641.4,269.8L641.4,269.8z M661.2,267.4
		c-2.2,4.4-5.6,7.6-10.5,8.4c0.2-5.9,5.6-10.1,3.7-16.7c-3.2-4.7-9.5-6.1-15.4-4.9c-2.2,1.5-1.2,3.9-1.9,6.1l-1,8.1
		c-4.9,0-5.1-4.4-6.6-7.9c0.2-5.1,2.5-10.3,7.6-12.8c3.9-2,10.2-1.7,14.1,0.5c3.2,0.7,6.8,2.2,8,5.2
		C662.9,256.8,661.9,262.9,661.2,267.4L661.2,267.4z"/>
</g>
</svg>
