<svg version="1.1" id="coas" xmlns="http://www.w3.org/2000/svg" xmlns:xlink="http://www.w3.org/1999/xlink" x="0px" y="0px" fill="#333"  viewBox="0 0 792 580.8" enable-background="new 0 0 792 580.8" xml:space="preserve"><g>
  <path d="M267.1,465.5c-0.5,0.9-1.2,1.6-2.1,2"/>
  <path d="M285.6,320.4c2.2,0,3.9-1.7,3.9-3.9c0-2.2-1.7-3.9-3.9-3.9c-2.1,0-3.9,1.8-3.9,3.9C281.8,318.7,283.5,320.4,285.6,320.4    L285.6,320.4z"/>
  <path d="M465.4,156.6L465.4,156.6l-139.8-0.1v0.1h0l0.1,112.9c0,10.9,4.6,20.4,11,23.4l53.8,32.1c1.2,1.3,2.9,2.2,4.9,2.2    c1.7,0,3.2-0.7,4.4-1.7l54.6-32.6c6.4-2.9,11-12.5,11-23.4L465.4,156.6L465.4,156.6L465.4,156.6z M372.1,189.2H360v-28.9h12.1    V189.2L372.1,189.2z M363.3,199.3l1.7-1.8l-1.1-2l2.3,0.2l1.3-2.4l1.4,2.4l2.3-0.2l-1.1,2l1.7,1.8l-2.2,0.4v2.4l-2.1-1.5l-2.1,1.5    v-2.4L363.3,199.3L363.3,199.3z M329.5,235.3v-27.4h14.7v27.4H329.5L329.5,235.3z M332,195.6l2.2,0.2l1.4-2.4l1.3,2.4l2.3-0.2    l-1.1,2l1.7,1.8l-2.2,0.4v2.4l-2.1-1.5l-2.1,1.5v-2.4l-2.2-0.4l1.7-1.8L332,195.6L332,195.6z M348.5,223.5l2.3,0.2l1.4-2.4l1.3,2.4    l2.3-0.2l-1.1,2l1.7,1.8l-2.2,0.4v2.4l-2.1-1.6l-2.1,1.6v-2.4l-2.2-0.4l1.7-1.8L348.5,223.5L348.5,223.5z M358.3,201.4    c-0.1-0.7-1.1-0.9-1.5-0.9c-1.3,0-1.8,2.2-2.9,2.2c-0.8,0-1.4,0.1-1.4-0.9c0-0.7,1.6-1.3,2.3-1.9c-9.1,0-9.2,4.1-10.6,4.1    c-2.4,0,2-4.4,3.2-5.6c-1.8-0.3-2.9-2.6-4.9-3.7c1-1.4,1.5-0.8,2.7,0.2c0-1,0.7-2.1,2.9-2.1c4,0,2.9,3.9,3.6,3.9    c0.7,0,0-3.9,2.7-3.9c4,0,9,10.3,4.5,10.3C356.7,203.1,358.3,201.7,358.3,201.4L358.3,201.4z M347.9,171.2l1.7-1.8l-1.1-2l2.3,0.2    l1.4-2.4l1.3,2.4l2.3-0.2l-1.1,2l1.7,1.8l-2.2,0.4v2.4l-2.1-1.5l-2.1,1.5v-2.4L347.9,171.2L347.9,171.2z M344.2,160.3v28.9h-14.7    v-28.9H344.2L344.2,160.3z M372.1,309.5l-33.5-20c-5.6-3.8-8.3-10.5-9.1-18.6v-31.8h42.5V309.5L372.1,309.5z M360,235.3v-27.4h12.1    v27.4H360L360,235.3z M415.1,311.8l-15.5,9.2h-0.3c-1.1,0.9-2.5,1.4-4.1,1.4c-1.6,0-3-0.6-4.1-1.5l-15.4-9.2v-72.7h39.3V311.8    L415.1,311.8z M415.1,235.3h-39.3v-74.9h39.3V235.3L415.1,235.3z M461.4,270.9c-0.7,8.1-3.5,14.8-9.1,18.6l-33.5,20v-70.4h42.5    V270.9L461.4,270.9z M461.4,235.3h-42.5v-74.9h42.5V235.3L461.4,235.3z"/>
  <path d="M369.8,265c-0.2-0.5-5.3,1.7-3.9,1.6c0.1-1.5,3-4.6,4.3-5.7c-0.2-1.8-2.5-0.2-4.9,1.1c8-11.4,2.9-6.7-1.6-5.9    c7.1-7.6,5.3-7.5,0-5.1c4.1-3.3,5-7.1,4.4-8.3c-3.9,5.1-7.4,4.3-7.4,9.1c0,3.1-1.1,8.3-2.8,10c-2.1,2.2-0.5-8.4-5.9-8.4    c-1.7,0-5.9-0.1-7.1,2c1.1,0,2.8,2.8,2.8,4c0,1.1,1,4.2-0.8,4.2c-1.9,0-4-3.9-4-5.8c0-1.9-0.1-1.4-0.1-4.1    c0-4.5-7.3-10.9-10.3-10.9c0,3.1,4.1,3.9,4.1,7.9c-1.8,0-4.2-3.3-4.2-1.3c0,2,2.6,2.4,2.6,4.1c0,1.8-3-0.6-3,1.3c0,1.7,1.6,1.4,2,3    c-1.2-0.3-2.3-0.2-2.5,0.4c-0.2,0.5,0.3,1.2,1.3,1.8c-0.4,0.4-0.8,1.3-0.8,4c0,8.9,5.6,13.1,9.7,13.1c2.9,0,2.5-2,2.8-3    c0.1,1.5,1.6-0.8,1.6,1.9c0,2.8-2.8,1.5-2.8,3.9c0,3.2,4.5-0.1,4.5,3.4c0,4.3-0.5,4.2-0.5,5.8c0,1.1,4.7-1.6,4.4-2.1    c1.1,0.4,1.1,3.7,3.2,3.6c1.3,0,1.6-3.4,2.7-3.7c-0.6,0.2,4.2,3.2,4.2,1.7c0-4.1-1.7-2.4-1.7-5.2c0-2.6,5.8-2.1,4.8-3.5    c-0.8-1.1-1.3-0.4-1.9-2.4c0.1,0.4-4.5-6.6,1-3C369.4,278.2,370.1,265.6,369.8,265L369.8,265z"/>
  <path d="M518.9,294.5c2.6,0,4.6-1.8,4.6-4c0-2.2-2.1-4.1-4.6-4.1c-2.5,0-4.6,1.8-4.6,4.1C514.3,292.7,516.4,294.5,518.9,294.5    L518.9,294.5z"/>
  <path d="M500.3,305.5c2.5,0,4.6-1.8,4.6-4.1c0-2.2-2-4-4.6-4c-2.5,0-4.6,1.8-4.6,4C495.7,303.7,497.8,305.5,500.3,305.5    L500.3,305.5z"/>
  <path d="M279.4,331c2.5,0,4.6-1.8,4.6-4c0-2.2-2.1-4.1-4.6-4.1c-2.5,0-4.6,1.8-4.6,4.1C274.8,329.2,276.8,331,279.4,331L279.4,331z    "/>
  <path d="M293.7,332.2c2.5,0,4.6-1.8,4.6-4.1c0-2.2-2-4.1-4.6-4.1c-2.5,0-4.6,1.8-4.6,4.1C289.1,330.4,291.2,332.2,293.7,332.2    L293.7,332.2z"/>
  <path d="M691.4,139.5c6.8,8.1,8.3,21.1,3.4,30.4c-2.7-0.2-2.2-3.7-2.7-5.6c-4.9-9.1-8.8-20.6-4.4-30.9    C690.9,133.8,689.7,137.8,691.4,139.5L691.4,139.5z"/>
  <path d="M107.8,150.5c-1.5,5.9-1.5,14,0,19.4c-1.2,1.2-1-1.2-2.2-1c-9.5-6.9-5.1-20.4-7.6-30c0.5-0.7,1.7-1,2.4-0.5    C104.9,141.4,106.9,145.6,107.8,150.5L107.8,150.5z"/>
  <path d="M712.4,151.3c1.4,2.7-1.2,5.4-3.2,6.6c-2.2,0.5-4.6-0.7-6.1-2.7c-0.7-2.7,0.7-5.2,2.9-6.4    C708.5,148.6,710.9,149,712.4,151.3L712.4,151.3z"/>
  <path d="M93,162.1c-0.5,2.2-1.2,4.4-3.2,5.4c-1.5,0-3.7,0-4.6-1.2c-1.5-1.2-1.7-3.4-1-5.2c1-1.7,2.9-2,4.6-2.2    C90.5,159.6,92.2,160.1,93,162.1L93,162.1z"/>
  <path d="M721.9,166.2c0.5,1.5,0.5,2.5,0,3.9c-1.7,2.2-4.1,3.2-6.6,2.2c-1.7-1-2.2-2.7-2.7-4.2c0.5-2,2.4-3.7,4.1-4.4    C719,163.8,720.4,165,721.9,166.2L721.9,166.2z"/>
  <path d="M708,166.5c1.9,1,0.5,3.4,0.2,4.9c-1.2,1.2-2.9,3.2-5.1,2.5c-1.2-1.2-2.7-1.2-3.2-2.9c0-2.5,1-4.9,3.4-5.6    C705.3,164.8,706.6,165.7,708,166.5L708,166.5z"/>
  <path d="M690.2,170.2c0,2.7,0.2,6.2-2.9,6.6c-2.9,1-4.9-1.5-5.6-3.4c-0.2-2.5,1.2-4.9,3.7-5.9C687.3,167.5,689,168.7,690.2,170.2    L690.2,170.2z"/>
  <path d="M119.5,171.4c0.7,2.5-1.7,3.9-3.2,5.2c-1.7,0.5-3.9-1-4.9-2.7c-1.7-1.7,0.5-3.2,1-4.7C114.9,167,118.6,168.7,119.5,171.4    L119.5,171.4z"/>
  <path d="M104.9,172.1c0,2-1,3.9-2.7,4.7c-2,0.7-3.9-0.7-4.9-2.2c-1.2-2.4,0.3-4.7,2.2-5.6C102.2,168,103.9,170.4,104.9,172.1    L104.9,172.1z"/>
  <path d="M631.2,173.1c2.4,5.1,4.4,11.3,4.9,17.7c-1,4.7,0.7,10.8-2.7,14c-3.4-1.2-3.6-5.4-5.8-7.6c-4.4-8.6-0.5-18.7,1-27    C630.5,169.4,630.5,171.9,631.2,173.1L631.2,173.1z"/>
  <path d="M93.4,176.1c0.7,2.9-1.4,4.4-3.2,6.1c-2.9,0.7-4.9-1.5-6.1-3.4c-0.2-2.4,1.2-4.9,3.2-5.9C89.8,172.6,92.2,173.8,93.4,176.1    L93.4,176.1z"/>
  <path d="M669.7,183.2c3.2,7.1,3.4,15.7,1.2,23.6l-1.5,1.2c-3.4-6.6-8.3-12.8-10-19.9c0-5.2,1-9.8,2.9-14c1.7-1.2,2.7,0.2,3.4,1.7    C666.1,178.5,667.3,181.7,669.7,183.2L669.7,183.2z"/>
  <path d="M700.5,178.8c-0.2,2.5-1.2,5.2-3.7,5.9c-2.4,0.5-4.8-0.2-5.6-2.9c-0.7-2.5,0.7-4.7,2.7-5.9    C696.6,174.3,699.2,176.8,700.5,178.8L700.5,178.8z"/>
  <path d="M105.2,186.4c0,2-1.7,4.2-3.7,4.7c-1.9,1.5-3.4-1-5.1-1.7c-0.7-2-1.2-3.7,0-5.6c0.7-1.5,2.4-1.5,3.9-2    C102.5,182.9,104.7,183.9,105.2,186.4L105.2,186.4z"/>
  <path d="M115.9,185.1c1,2.4-1.7,3.7-2.7,4.9c-2.9,1-4.4-1.2-5.6-2.9c-0.5-2.5,1-3.9,2.7-5.4C113.2,181,114.7,182.9,115.9,185.1    L115.9,185.1z"/>
  <path d="M707.3,184.4c-0.2,3.2-5.1,6.4-5.6,9.6c-2.7,6.6-8.5,11.5-15.1,13.8c-1.4,1.2-3.4,2.9-5.6,3.2c-0.5-4.9,3.9-9.3,6.6-13.7    C692.7,190.5,699.7,186.4,707.3,184.4L707.3,184.4z"/>
  <path d="M100.3,194.7c3.7,4.2,5.6,7.9,10,11.5c0.3,1-0.5,2.5-1.7,2.5c-12-0.7-20-13-25.9-21.6c0.7-2.7,3.9-0.5,5.6-0.7    C92.5,189.6,97.1,190.5,100.3,194.7L100.3,194.7z"/>
  <path d="M710.7,198.1c-0.5,10.6-5.6,21.4-15.1,26.5c-2.7,1-5.6,3.7-8.3,2c5.1-10.6,12.9-19.1,21.5-28.5H710.7L710.7,198.1z"/>
  <path d="M663.9,205.3c0.7,3.7-1.2,5.9-4.2,7.1c-2.7,0.2-4.4-2-5.6-3.9c-0.2-2.4,1.2-4.7,3.4-5.4c0.7-0.7,1.9-0.7,2.9-0.7    C661.9,202.8,662.7,204,663.9,205.3L663.9,205.3z"/>
  <path d="M86.9,207.5c4.6,3.2,8.8,7.6,13.2,11.5c-3.1,2.2-7,0.2-10.7,0.2c-8.3-2.9-13.9-10.1-22.4-12.5c0.3-2.7,3.4-1.7,5.1-2.5    C77.4,203.8,81.8,206.2,86.9,207.5L86.9,207.5z"/>
  <path d="M348,134.8c-13.7-5.4-22.7,8.8-36.6,7.1c-1.7,1-1.2,2.7-2.2,3.9c-0.7,0.7-2,0.2-2.7-0.2c-0.7-5.9-2.7-11.3-3.4-17    c-1.4-2.4-0.7-5.9-1.9-8.3c-7.8-21.4,19-5.2,24.4-17.7c4.6-10.8-9-12-13.2-19.6v-3.2c-3.9-3.9-8.1-5.2-10.5-10.3    c1.7-6.1,2.4-12.8,0.7-18.9c-0.2-1.5-1.2-3.4-3.4-2.7c-4.6,6.4-8,11.5-12.4,17.7c-4.6-3.4-9-7.9-14.4-10.8    c-3.7-0.5-7.1-4.2-11.2-2.7c-0.7,1.5,0,2.7,0.7,3.7c0.2,9.6,5.1,17.2,11.9,24.1l0.7,3.7c-4.4,10.1-3.2,21.6-4.4,32.4    c-11,28-28.8,55-52.9,74.4c-13.9,15.7-30.5,30.9-32.7,52.5c-0.7,3.4,0.5,7.6-2.2,10.1c-8-3-16.1-6.9-22.7-12    c-11.2-7.9-27.3-6.9-34.6-21.1c-3-5.6,0.7-11.3,3.4-15.5c8.3-7.9,7.1-21.9,2.7-31.4c-1-0.3-1.2,1-1.9,1.2    c-0.7,14.5-12.2,24.5-7.8,40.5c1,4.7,3.4,7.6,4.6,12c-1.7-0.5-4.1-0.5-5.6-1.2c-5.4-0.7-10.7-3-16.3-2.2    c-11.2,5.2-26.6-1.2-35.6,9.1c-1.5,0.3-3.4,0.5-2.9,2.7c5.4,0,10.5,1.5,15.9,1.2c8.5,1.5,14.1-5.7,20-8.8h1.5    c2.4-2.5,6.6-1,9.8-1.5c15.4,1.7,27.3,9.1,40,16.7v1c-4.9,2.2-10.5,3.7-15.4,6.4c-5.6,4.2-11.9,9.6-13.6,16.5    c-3.9,6.1,1.2,11.5,3.6,16.7c0.2,2.5,0.5,5.4,2.7,6.4c7.8-8.3,0.5-18.7,1.7-28.2c2-7.4,8.8-10.8,15.9-12.8    c13.9-5.9,23.9,5.4,35.1,11.8c-0.3,11.3,1.2,22.1-1.2,33.1c-3.4,1.2-7.8,2-11.5,1.7c-19.2,1.5-34.4,12-51.7,17.9    c-7.8,2.7-17.1,2.5-24.9,5.4c6.1,1.7,12.4-0.5,18.8-0.7c23.9-3.4,42.2-21.9,68-18.7l0.5,0.7c-2.9,6.1-6.8,11.3-11.4,16    c-0.8-2.7-1-4.9-3.4-6.4c-1.9-1-4.1,0-5.6,2c-0.8,1.2-0.8,2.7,0,3.7c1.2,2.2,3.2,2.7,5.3,3.4c-0.5,2.2-3.2,3.2-4.6,5.2    c-6.8,11.5-20.8,6.9-28.8,15c-1.2,1.7-5.6,2.7-3.7,5.4c9.3,1,18.3-1.5,25.1-6.4c9-10.1,18.5-19.6,27.5-29.2    c1.5,7.9-0.7,16-5.4,22.3c-2.2-1.2-3.9-3-6.6-3.7c-2.5,0.5-4.2,3-4.4,4.9c1,1.7,1.9,3.7,3.6,4.9c-8.3,5.9-18.8,6.4-28.3,9.1    c-17.8,2.2-35.1,3.7-53.1,3.9c-8.5-0.5-18.3,2.5-26.3,0c-9.3,1.7-19.3-1.2-26.8,3.9c-1,1.2,0.3,2.5,0.3,3.7    c11.2,7.4,26.6,1.5,39.3,3.7h96c7.1-0.2,14.1-0.5,19.8-3.7c12.4-7.1,19.2-19.9,25.6-32.4c2.4-4.4,4.1-9.6,5.1-14.7    c2.4-8.4,10-14.3,18.3-15c1.2,12.8-1.2,25.5-4.1,37.3c-1.5,7.9-6.6,15.5-3.4,23.8c0.7,3.9,4.9,3.9,8,4.4c29.5-0.5,59-1.7,90.2,0.5    c5.6,1,10.5,2.7,16.6,2.5c0.5-0.7,2.2-1,1.5-2.5c-0.7-2.7-2.7-6.1-5.8-6.9c-0.5-1.5-2.7-1-3.4-2c-15.6-8.8-34.4-4.2-52.7-3.9    c-9.5,1-19,2.7-27.1-2.7c-3.7-4.4-1-18.4-1-18.4c0-5.5,13.4-44.2,15.1-47.4c0.5-3.7,1.9-7.1,1.5-11.3c1.9-4.9,1.5-11.3,1.5-16.7    c1-7.9,4.9-15.2,7.6-22.8c1.4-3.7,2.7-7.6,4.1-11.3c1.5-4.7,2-9.1,4.9-12.8c7.9,5.1,15.7,4.9,19.5,13.9l3.4,20.5    c0,1.2,1,3.7,2.7,2.2c6.3-4.2,4.4-13.5,4.4-19.9c1.4-7.6-3.9-11.3-6.1-17.9c-1.7-1.2-4.5-7.1-4.5-7.1c-1-5.4-12.8-9.1-10.1-15.8    c1.5-5.6,2.9-10.8,8.3-14c0.8,0.5,1.1,1.1,1.2,1.7l2.9-2.1l0.3-20.5c7.9,0,19.7,1,27.7,1c2.2,0.7,3.9,2.5,6.3,2.7l2-2.7l19.7-3.8    C361,144.4,355.9,134.8,348,134.8L348,134.8z"/>
  <path d="M369.4,143.5c0.6-0.1,1.2-0.2,1.8-0.4L369.4,143.5L369.4,143.5z"/>
  <path d="M157.1,211.9c0.2,2.9-1.5,4.7-3.7,5.6c-1.9-0.7-3.4-1-4.6-2.9c-1-2.7,1.5-4.7,3.4-5.7C154.2,209.4,156.6,209.7,157.1,211.9    L157.1,211.9z"/>
  <path d="M141.2,211.9c1.5,1.5,1.7,3.9,1,5.6c-1.7,1.5-4.4,2.7-5.9,0.7c-1.5-1.5-2.9-3.2-1.7-5.1    C136.3,211.4,139.3,209.9,141.2,211.9L141.2,211.9z"/>
  <path d="M480.6,214.6c0.1,0.1,0.2,0.2,0.2,0.3"/>
  <path d="M666.3,218.8c1,2.7-1.2,4.7-3.2,5.6c-2.5-0.7-5.6-1.2-5.6-4.4c0.2-2,1.9-3.2,3.7-3.7C663.4,215.6,665.4,217.3,666.3,218.8    L666.3,218.8z"/>
  <path d="M679.2,218.3c0.7,1.2,2.4,3.2,0.5,4.4c-1,0.7-1.7,1-2.4,2c-2.7,0.5-5.1-0.5-5.8-2.9c-0.5-2.7,1.7-3.9,3.7-5.2    C676.8,216.1,678,217.3,679.2,218.3L679.2,218.3z"/>
  <path d="M80,221.2c-1,2.9-3.4,4.2-6.6,3.2c-0.7-0.7-1.5-2-2-3.2c0.2-1.7,0.7-3.4,2.7-4.2C77.1,217.3,79.3,218.5,80,221.2L80,221.2z    "/>
  <path d="M162.2,225.4c-0.3,2-2.5,3.7-4.2,4.7c-2.5,0.2-4.1-1.7-5.4-3.4c0-2,1-4.4,2.9-4.9C158.3,220.7,161.2,222.7,162.2,225.4    L162.2,225.4z"/>
  <path d="M147.8,223.7c0.7,0.7,1.5,2.7,0.7,3.9c-1.5,1.2-3.6,3.4-6.1,2c-1.5-1.2-3.2-2.2-2.7-4.7c1-1,2.2-2.5,3.7-2.9    C145.4,221.5,146.3,222.7,147.8,223.7L147.8,223.7z"/>
  <path d="M716.5,226.6c0,2-1.9,3.9-3.2,4.7c-2,0.7-4.1,0.3-5.4-1.2c-1.4-0.5-1-2.5-1-3.7c1.2-1.7,2.9-2.7,4.6-3.2    C713.9,223.7,715.3,225.2,716.5,226.6L716.5,226.6z"/>
  <path d="M732.2,228.8c-0.7,2.2-2.4,4.2-4.6,4.4c-1.5-0.2-4.1-0.7-3.6-3c0-1.7,1-3.4,2.2-3.9C728.5,225.2,731.4,226.4,732.2,228.8    L732.2,228.8z"/>
  <path d="M107.8,232.3c0.5,2.9-0.5,4.9-2.9,5.9c-1.7,1-3.4-0.3-4.6-1.2c-1.2-1.2-2.2-3.2-1.2-4.9c0.5-2.2,2.7-1.7,4.1-2.7    C105.4,229.6,106.6,230.6,107.8,232.3L107.8,232.3z"/>
  <path d="M119.8,234.5c0.7,2-1.5,2.7-1.9,4.2c-1.2,0.7-2.9,1.5-4.4,0.5c-1.7-1.5-3.6-3.7-1.9-5.9    C113.4,229.6,118.6,231.6,119.8,234.5L119.8,234.5z"/>
  <path d="M702.2,233.3c0.2,2.4-1.9,4.2-3.4,5.6c-2.2,0.5-4.4-1-4.9-2.9c-0.2-2,1-3.4,2.7-4.7C698.7,231.1,700.9,231.3,702.2,233.3    L702.2,233.3z"/>
  <path d="M722.2,237.2c-0.5,2.2-0.3,4.7-2.7,6.1c-2,0.5-4.4,0.2-5.9-1c-1.5-1.2-1.7-3.4-1-5.2c1.2-2,3.4-3.4,5.8-2.9    C720.2,235.2,720.7,236.5,722.2,237.2L722.2,237.2z"/>
  <path d="M98.6,242.4c1,2-1.2,2.5-1.9,3.4c-1.7,1-3.4,0.3-4.9-0.5c-1.7-1-1-3.4-0.7-4.7C93.2,236.5,97.6,239.4,98.6,242.4    L98.6,242.4z"/>
  <path d="M706.8,247c1,0.2,0.5,1.7,0.2,2.2c-5.8,3-14.6,3.7-19.7-1c-2.9-2.5-6.6-3.4-9.8-5.4c1.2-3.2,5.6-3,8.8-3.7    C693.4,240.1,699,246.8,706.8,247L706.8,247z"/>
  <path d="M110.3,244.8c0.5,2-1,2.7-1.5,4.2c-1,1.5-2.9,1-4.1,0.5c-2.2-1.5-3.2-4.2-1.7-6.1C105.6,240.6,108.8,242.1,110.3,244.8    L110.3,244.8z"/>
  <path d="M131.7,246.3c1,2.2-0.5,4.2-2.4,5.4c-1.7,1-3.2-0.5-4.6-0.7c-1.2-1.7-3.4-3.7-1.2-5.6C125.6,241.6,130,243.6,131.7,246.3    L131.7,246.3z"/>
  <path d="M413.6,256.7c-0.5,4.9-8.6-0.7-7.4,5.8c1.2,4.7,2.1,10.3,4.9,13.7c2.3,3.3,1.1,8.4,0.9,12.4c-2.1,3.5-5.6,6.1-9.3,7.9    c-7-0.7-17.1,3.5-20.4-5.1c-1.4-3.7-3.9-7.5-3.9-11.7c0.7-0.5,1.6-0.5,2.3-1.2c0-1.6-1.8-2.6-1.6-4.2c7.9-1.4-3.3-8.4,3.5-8.9    c5.6,5.8,14.6,4,19.4,10.3c1.2,0.9,2.1,2.3,3.5,3c-0.9-5.8-3.7-11.7-4.6-18c-0.7-3.3,0.5-6.3,2.8-8.2    C407.8,249.4,411.3,254.1,413.6,256.7L413.6,256.7z"/>
  <path d="M153.2,255.1c0.7,2.5-1.2,3.9-2.7,5.2c-2.2,1-3.4-1.5-4.4-2.7c-0.7-2.5,1-3.7,2.5-4.9C150.2,252.7,152.2,253.4,153.2,255.1    L153.2,255.1z"/>
  <path d="M303.6,257.6c2.9,9.6,1.9,19.4-2.9,27.5c-0.2,2,0.5,5.1-2.2,4.9c-6.6-9.1-1.7-21.8,1-31.4    C299.9,256.1,302.9,255.1,303.6,257.6L303.6,257.6z"/>
  <path d="M512.3,262.2c3.4,6.9,3.6,16,0.5,22.8l-2,2c-2.7-5.6-4.9-11.3-5.6-17.4c1.2-4.4,2.7-8.4,2.9-13    C511.5,255.9,511.3,260.3,512.3,262.2L512.3,262.2z"/>
  <path d="M172.2,264.9c-1.5,2.9-5.6,3.7-8.3,5.6c-5.9,4.4-14.4,5.4-21.7,4.2c6.3-8.8,16.1-14,27.8-11.5    C170.5,264.2,171.7,263.7,172.2,264.9L172.2,264.9z"/>
  <path d="M72,273.8c9,6.4,11.5,15.2,16.8,24.1c0.7,1,3.2,1.2,2.2,3.2c-2,1.5-3.9-1.5-6.6-1c-9.3-4.2-15.1-14.5-14.9-25.3    C69.6,273.8,71,273.8,72,273.8L72,273.8z"/>
  <path d="M502.7,281.4c0.3,2.5-0.2,4.9-2.2,5.6c-2.7,0.7-4.9-0.7-5.6-2.9c-0.7-1.7,0.7-2.7,1.2-3.9    C498.1,278.2,501.5,279.2,502.7,281.4L502.7,281.4z"/>
  <path d="M605.6,294.4c0-4.7,1.2-9.1,1.7-13.5c0.7-1.5,1.2-3.2,1-5.1c5.9-7.9,17.8-5.4,27-4.7c3.7,2,8.3,1.7,12.2,2.7    c1.7-1.2,4.2-1.5,6.1-1.2c7.8-4.2,2.7-13.3,3.2-20.4l-2.9-7.4c-0.7-1.5-1.5-3.2-2-4.9c-1.4-1.7-2.4-4.9-3.9-6.6    c-4.1-10.8-12.2-16.9-19-25.5c-12.4-16.2-32-25.3-51.4-31.7c-19.3-6.6-38.8,2-56.1,8.1c-5.3-1.5-8-5.6-9.5-10.3    c-1-9.3,1-18.4,4.6-26c0.7-6.1,4.9-10.8,6.6-16.5c4.4-13.7,9-27.3,10-42.2c0.5-9.1-6.3-15.5-13.2-19.4c-4.6-1.2-10-1-13.4,2.7    c-3.1,6.6-10,11.1-15.8,14.2c-0.5,4.2,4.6,1.5,6.3,2.9c5.4,1,11.5-0.7,15.9,2.7c0.5,9.8-5.1,17.9-10.2,25.3    c-8.3,12.3-17.1,24.8-22.2,38.3l-1-1l1.2,60c7.8,12.9,17.5,27.7,32,32.6c7.8,6.4,17.5,14,28,8.3c5.6-1.7,6.1,6.1,8.8,9.3    c2.9,9.1-3.6,15.5-4.1,23.8l-6.3,13.5c-7.3,14.2-13.9,29.5-25.1,41.5c-3.6,0-5.8,3.9-9.5,4.2c-2,2.7-5.9,0.7-8.3,1.7    c-7.6,3.2-18.3,1.2-23.4,8.3c0.5,0.7,1.2,1,1.9,1.2c14.9,0.2,31.5,1.2,47.3,0.5c1.9-0.7,3.7-2.5,3.9-4.7c-2.2-4.2,0.7-7.9,2.7-11    c1.2-5.9,5.1-9.6,6.8-15.2c5.1-10.1,11-19.9,16.6-30l7.5-12.3c1.7-4.2,4.6-9.3,7.6-13.8c1.9-2,2.9-4.2,4.4-6.6    c0.3-2.5-1-3.4-2.4-5.2c1.7-1.7,4.4-1.2,6.6-1.7c6.1,3.7,12.4,9.6,13.6,16.2l2.2,6.4l1,2.9l-0.5,8.1l1,7.6    c1.2,11.8-1,23.8-2.2,35.6c-4.1,14.2-20.5,12.8-32.2,16c-2.9,2-8.5,1-8.5,5.9c14.1,3,30.7,1.2,45.8,1c2.4-1,2.9-3.2,4.1-5.4    c0.5-3.2,3.7-5.9,2.7-9.3c-2.7-3.4-0.2-8.8-1-13.5c0.5-1.2,0.5-2.9,0-4.7c1.9-7.1,1.5-15.7,2.9-22.6L605.6,294.4L605.6,294.4z"/>
  <path d="M725.6,284.8c-7.8,11-16.1,23.6-29.7,27.5c-1,0-1.9,0.5-2.4-0.7c8.3-8.8,12.7-22.6,25.6-25.8    C720.9,284.8,723.6,283.8,725.6,284.8L725.6,284.8z"/>
  <path d="M60.1,296.9c-1.2,1-0.2,3.2-2.4,3.4c-1.9,1-4.1-0.3-5.1-2.2c-1-2.5,1.2-4.9,3.2-5.4C57.6,293.7,59.6,294.4,60.1,296.9    L60.1,296.9z"/>
  <path d="M130.3,300.3c0.7,2.2-1.7,2.2-2.9,2.7c-10.2,3.7-20.7,0.3-28-7.1c0-1,0-2,1-2.2C110.3,296.1,122,294.2,130.3,300.3    L130.3,300.3z"/>
  <path d="M73.5,297.1c0.5,1,0.7,2.7,0.5,3.7c-1.5,2.2-3.6,2.7-6.1,2.2c-1.5-0.7-2.2-1.7-3.2-3.2c0.2-2.5,2.2-3.9,4.1-4.7    C70.8,295.4,72.2,295.9,73.5,297.1L73.5,297.1z"/>
  <path d="M301.9,298.3c0.5,2.2-1.5,3.7-2.9,4.7c-2.2,0.5-4.1-0.5-5.1-2c-0.8-1.7,0-4.2,1.7-4.7C297.7,295.9,301.1,296.1,301.9,298.3    L301.9,298.3z"/>
  <path d="M734.8,299.3c0.7,2.4-1.4,3.7-3.2,5.1c-1.5,0.7-3.2,0-4.6-0.7c-0.3-1.2-1.7-2.2-1.2-3.9c1-2.2,3.2-3.2,5.6-3    C732.6,297.8,733.6,298.1,734.8,299.3L734.8,299.3z"/>
  <path d="M750.9,298.3c1.5,2.2,0.2,3.9-1,5.6c-1,1.7-2.9,2.2-4.4,1.5c-1.5-1.5-3.4-2.2-3.7-4.4c0-2,2.2-3.4,3.7-4.2    C748,295.9,749,298.3,750.9,298.3L750.9,298.3z"/>
  <path d="M49.8,305.4c0.2,1.7-1.2,2.7-1.7,4.2c-1.2,0.5-2.4,1.5-3.9,1c-1.7-0.8-2.9-2.2-3.6-3.9c0.5-2.2,2-4.2,4.4-4.9    C46.9,302.3,49.1,303.2,49.8,305.4L49.8,305.4z"/>
  <path d="M563.2,305.4c0.5,1,0.3,2.2,0.3,3.2c-1.5,2-3.4,3.7-5.8,2.4c-1.5-1.5-3.2-2.9-2.4-5.2C557.1,303.2,561.3,302.3,563.2,305.4    L563.2,305.4z"/>
  <path d="M89,309.1c-0.5,1.7-1.2,3.4-3.4,3.7c-2.2,0.3-2.9-1.7-4.1-2.7c0-2.2-0.3-4.4,1.9-5.7C86.4,303.5,89,305.9,89,309.1    L89,309.1z"/>
  <path d="M65.7,309.6c0.7,2.5-1,4.2-2.4,5.4c-2.9,1-5.4-1.2-6.6-3.4c0.3-2.2,2-4.9,4.4-5.6C63.2,305.9,64.4,308.4,65.7,309.6    L65.7,309.6z"/>
  <path d="M579.3,309.1c0.5,2.4-0.3,4.9-2.7,5.9c-2.9,1-5.4-1.5-6.6-3.4c1.2-2,1.5-4.7,4.4-5.1C576.6,306.4,578.1,307.4,579.3,309.1    L579.3,309.1z"/>
  <path d="M77.1,310.1c0.7,1.7-0.7,2.5-1.2,3.7c-1.2,0-1.9,1.5-3.4,1c-1-1.2-2.9-1.7-3.2-3.4c-0.2-2.5,1.5-3.7,3.2-4.7    C74.9,306.4,76.4,308.1,77.1,310.1L77.1,310.1z"/>
  <path d="M721.4,312.1c-0.7,2-2.2,2.9-4.2,3.9c-1.9,0.5-3.2-1.2-4.6-2c-1.2-1-0.8-3.2-0.2-4.4C714.8,305.4,721.4,307.4,721.4,312.1    L721.4,312.1z"/>
  <path d="M739.9,313.1c-0.7,2.7-3.4,3.9-5.9,4.2c-2.2-1-4.6-2.7-2.9-5.6c1-1,1.4-2,2.9-2.2C737,308.4,739.2,310.6,739.9,313.1    L739.9,313.1z"/>
  <path d="M624.2,314.8c1.2,3.2-1.7,4.2-3.7,5.6c-1.7-0.2-3.2-1-4.6-2c-0.5-2.7,0.7-5.2,3.4-6.4C621.5,312.1,622.7,313.1,624.2,314.8    L624.2,314.8z"/>
  <path d="M557.1,317.7c1.2,0.5,0.7,2.2,0.5,2.9c-1.5,1-3.4,3.4-5.6,2c-1.7-1-3-2.5-2.5-4.7C550.8,315.3,555.9,315,557.1,317.7    L557.1,317.7z"/>
  <path d="M570.8,319.4c0.3,2-0.2,2.9-2,3.9c-1.7,1.7-3.7-0.2-5.4-0.7c-0.5-1-1-2.5-0.3-3.7c0.7-1,2-1.7,3.2-2    C568.1,317.5,570,317.5,570.8,319.4L570.8,319.4z"/>
  <path d="M157.1,319.7c1.5,1.5-0.2,3.2-0.5,4.7c-1.2,1.5-3.9,2.7-6.1,1.2c-2.4-1-2.2-4.2-1.7-6.1c1.5-0.5,1.5-2.2,3.4-2.2    C154.4,317.5,155.6,318.5,157.1,319.7L157.1,319.7z"/>
  <path d="M650.2,320.7c0.5,2.5-2,3.4-3.7,3.9c-2.9,1-4.4-1.2-5.6-3.2c0-1.5,1.4-2.4,1.9-3.7C646.3,316.3,648.5,318.7,650.2,320.7    L650.2,320.7z"/>
  <path d="M637.1,320.7c1,2.5-1.7,3.7-2.7,4.9c-1.7,0.7-3.9,0.5-5.4-1c-1.3-0.7-1.3-2.2-1.3-3.7c1.5-1.2,2.2-2.7,3.9-3.2    C633.9,317.7,636.1,319,637.1,320.7L637.1,320.7z"/>
  <path d="M747,323.6c0.5,3.4-3.9,1.7-5.6,2.7c-10.2,6.1-23.4,1.5-33.2-2.2c0.7-3.2,4.4-2,6.3-3.2c10.5-6.6,21.2,1.5,31.7,2    L747,323.6L747,323.6z"/>
  <path d="M79.8,320.7l-1,1.7c-9,5.4-20.7,9.1-31.4,5.7l-1-1.5c9-6.6,21-8.3,32.7-6.6L79.8,320.7L79.8,320.7z"/>
  <path d="M675.1,322.4c0,2-1,3.7-2.4,4.7c-2.4,0.7-5.6,0-6.3-2.7c-0.7-2,1.2-3.9,3.2-4.7C671.2,319.7,674.1,319.9,675.1,322.4    L675.1,322.4z"/>
  <path d="M123.4,323.4c-1,2-0.5,3.9-2.9,4.9c-2.4,1-5.4-1.2-6.1-3.2c-0.7-2.7,1.2-3.4,2.4-4.7C119.8,319,122,321.2,123.4,323.4    L123.4,323.4z"/>
  <path d="M106.1,324.6c0.7,1.7-0.7,2.7-1.2,3.9c-1.2,1.5-3.4,1.2-4.9,0.7c-1.7-1.5-3.4-3.2-2.7-5.9c1.5-1.2,2.2-2,3.9-2.7    C103.5,321.2,105.6,322.1,106.1,324.6L106.1,324.6z"/>
  <path d="M692.2,330.2c-0.2,2.2-2,3.9-3.9,4.4c-1.9,0.3-3.7-1.2-4.6-2.5c-0.7-1.5-0.5-3.4,1-4.7c0.5-0.7,2.2-0.7,3.2-1.2    C690,326.6,691.7,328.3,692.2,330.2L692.2,330.2z"/>
  <path d="M88.1,327.5c0.8,2-1,2.7-1.2,4.2c-0.7,4.2-3.4,6.9-5.3,10.6c-4.6,5.6-11.2,5.6-17.8,7.4l-1-2c7.1-9.1,14.6-16.2,24.6-20.6    L88.1,327.5L88.1,327.5z"/>
  <path d="M680,332.9c0.5,3-2,3.5-3.7,4.7c-2.2,0-3.9-1.2-4.9-2.9c-0.7-2.7,1.7-3.7,3.2-4.9C677,329.3,679.2,331,680,332.9L680,332.9    z"/>
  <path d="M116.1,332.9c-0.2,0.5,0.3,1,0.7,1.2c-0.2,2.7-2.2,3.4-3.7,4.7c-2.2,0-3.9-0.7-5.4-2.4c-1-2.2,0-4.9,2.4-5.7    C112.5,330.5,115.4,330.7,116.1,332.9L116.1,332.9z"/>
  <path d="M724.8,340.3c2.4-0.3,2.9-3.2,5.6-3.7c2.4-0.5,4.6,1,5.8,2.7c1,3-1.2,4.4-3.2,5.7c-1.7,1.2-5.4-1.5-5.1,1.7    c1.7,1.2,3.2,2.9,3.4,4.9c-0.5,1-2.2,0.7-2.9,0.3c-7.1-2.9-14.6-7.9-17.6-15.2c-1-2.2-5.6-3.9-2.9-5.9    C715.1,330.2,720.9,335.9,724.8,340.3L724.8,340.3z"/>
  <path d="M748.2,332.7c1.2,1.2,0.7,3.4-0.2,4.7c-1.2,2.5-4.9,1.5-7.1,1.2c-1.2-1.2-2.4-2.5-2-4.4c1-1.5,2-2.4,3.7-3.2    C744.8,330.5,746.5,331.5,748.2,332.7L748.2,332.7z"/>
  <path d="M659.7,346c2.2,2.7,4.4,6.9,5.4,9.8c-0.5,0.7-1.7,0.5-2.2,0.5c-8.3-4.7-19-9.8-22.2-19.6c-0.7-1-2.7-2.2-2.4-3.9    c6.3-1.2,12.4,3.4,16.8,6.9C656.8,342,658.8,343.3,659.7,346L659.7,346z"/>
  <path d="M102.5,336.6c1,2.2-1,3.9-2.2,4.9c-2.7,0.5-4.2-0.5-5.6-2c-1.7-2.7,1.5-4.9,3.4-5.9C100,333.4,101.2,335.4,102.5,336.6    L102.5,336.6z"/>
  <path d="M690.2,342.3c0.2,1.5-1.7,2.5-2.4,3.4c-2,0.2-3.9,1-5.6-0.7c-0.5-1.2-1.7-3.2-0.3-4.4C684.6,337.1,688.5,339.8,690.2,342.3    L690.2,342.3z"/>
  <path d="M750.9,345.7c0.7,2.9-1.5,4.9-3.4,6.1c-2.4,0.7-4.4-1-5.8-2.2c-1.2-1.5-0.3-2.9,0-4.7c1.7-1.5,3.9-2.7,6.3-1.7    C749,344,749.9,344.5,750.9,345.7L750.9,345.7z"/>
  <path d="M582.2,379.6c0,3-5.4,2.2-7.6,4.4c-7.6,3.9-16.6,3.9-25.6,3.7v-1.5C557.8,378.9,570.5,376.2,582.2,379.6L582.2,379.6z"/>
  <path d="M226.5,390.2c-0.2,2.2-1.5,3.4-3.6,4.2c-1.7,0-3.4-1-4.1-2.4c-1-3,1.5-4.2,3.2-5.4C224.1,386.7,226.1,388.4,226.5,390.2    L226.5,390.2z"/>
  <path d="M578.1,392.9c-0.5,2.2-1.2,4.7-3.7,5.6c-2.2,0.5-3.6-0.7-5.4-1.7c-1.2-1-0.5-2.7-0.7-3.9    C570,388.4,576.4,388.4,578.1,392.9L578.1,392.9z"/>
  <path d="M626.6,393.8c-6.1,3.9-12.9,8.6-21,8.6l-13.2-0.3l-1.2-1c8.1-9.8,22.7-9.8,35.4-8.8V393.8L626.6,393.8z"/>
  <path d="M159.8,399.7c0,2.2-1,3.9-3.2,4.7c-2.4,0.5-4.2-0.5-5.1-2.2c-1-2.2,0-4.4,1.9-5.6C156.1,394.8,158.8,397.8,159.8,399.7    L159.8,399.7z"/>
  <path d="M172,402.2c0.7,1.2-0.5,2-1,3.2c-1.4,0.7-3.4,1.2-4.6,0c-1.7-1-2.2-2.7-1.5-4.2c0.7-1.5,2.2-1.2,2.9-2.2    C169.5,399.7,171.2,400.5,172,402.2L172,402.2z"/>
  <path d="M78.6,427c-2.4,2.9-6.3-0.7-9-2.2c-8.5-4.9-8.3-14.5-16.8-20.1c1-2.9,3.2,0.2,4.9-0.2c1.5,1,3.4,2,5.1,2.7    C71,411.8,73,419.6,78.6,427L78.6,427z"/>
  <path d="M789.2,331.7c-3.9-7.1-10.5-10.1-18.3-10.1c-6.3,0.5-11,4.7-13.6,10.1c-1.5,5.4,0.5,10.3,4.6,13.5c1.7,0.7,3.9,0.5,4.9-1.2    c1.2-3.2-2.2-3.2-2.7-5.6c-1-3.4,0.3-6.4,2.7-8.6c2.4-2.5,6.6-1.2,9.5-1.2c2.9,2,5.8,3.7,7.3,7.1c1.5,4.2,1.5,8.8,0,13    c-2.7,6.1-8.8,11-15.1,12.3c-20.2,2.9-242.3,2-242.3,2c-26.1,2.5-55.8-4.9-78.2,8.8c-10.2,4.9-15.4,16.2-18.1,26.3    c-6.6,5.9-13.6,12.8-19,19.4l-0.7-0.7c1.2-5.9,3.9-11.1,5.1-17c3.7-4.9,3.7-11.5,6.3-16.9c9.3-15,18-30.2,32.4-40.8    c6.1-8.1,16.8-6.6,26.1-6.6c10,4.7,21.7,6.1,33.9,4.9c0.5-0.5,0.7-1,0.7-1.7c-3.4-3.2-9-4.4-12.9-7.6c-9.8-4.7-19,1.5-29.3,0.7    c-0.5-0.5-1-0.7-0.7-1.5c9.3-6.9,19.8-11.8,30.2-16.2c8.5-4.7,17.6-7.1,26.6-10.6c3.7,0,7.1-3.2,10.5-1l12.9-3.4    c0.5,0.3,1,1,1.9,0.7c11-3.7,24.9-0.3,37.3-0.5l1.7,1.5l11.7,2.9c4.4,0.5,6.4,5.7,11,5.9c2.4-3.4-2.7-4.9-3.9-7.1    c5.4-1.2,11.5,0.2,16.3,2.5l-2.4,2.7c-1.4,2.7,0.7,4.7,2.9,5.6c1.7,0.5,2.9-0.7,4.1-1.2c3.2-2.2-0.2-4.4,0.7-6.4    c18.1,3.2,35.4,7.6,52,14.7c4.6,1.5,9,4.9,14.2,4.7c-5.1-4.7-12.2-7.1-18.5-9.8c-4.2-2.5-10-2.7-13.2-6.1c0.7-1.2,2.4-0.7,3.2-1.7    c8.3-1,15.4-7.1,21.2-13.8c0.5-1.5,3.2-1,2.9-2.9c-2.2-2.5-5.8,0.7-8.8,0.5c-10.2,2-14.6,14-24.9,16.2c-12.4-3-25.1-5.9-37.5-9.1    c-6.1-1-12.7-1.5-18.3-3.9l-13.7-1.2h-24.9c-0.2-0.5-1-0.7-0.7-1.5c8.8-2.2,16.3-7.4,25.1-9.6l65.3-30c6.8-6.1,12.9-13,18.5-20.1    c0.2-2-1-3.9-2.7-4.7c-1.7-0.7-3.7-0.5-4.9,1c-2.9,2.2,0,4.9,0,7.6c-2.9,3.9-7.6,7.4-11.2,9.6c-1-0.2-67.3,30.2-67.3,30.2    c-9.8,4.2-19.5,8.8-29.7,11l-14.1,2.2c-1,3-3.4,4.7-6.1,5.6c-3.9,0.7-7.1,3.2-11.2,3.2c-31.7,12.3-64.6,25.3-89.7,50.3    c1.5-2.9,2.2-6.6,2.4-10.3c-0.5-3.7-0.2-7.9-2.7-10.8c-0.6-1.3-2.4-5.3-1.8-6.7l-3.6,2.3c-2.2,5.4-4.1,15.2-1.9,20.9    c0.7,4.4,4.4,9.6,1,13.5c-11.7,14.2-18.3,31.4-26.1,47.6c-2.9-0.5-4.4-3.2-5.6-5.9c8.3-10.6,14.9-22.3,17.3-35.8    c1.7-1.2,0.5-4.4,2.2-5.9c-0.5-3.9,2.2-7.9,0.3-11.1c1.6-5.3-7.1-10.3-1.6-13.7l-4.6,2.2c-10.5,13.8,5.4,34.4-6.5,47.6v1    c-3.4,4.4-5.1,8.8-9.8,11.8c-5.9-2.4-8-9.1-11.4-14c-5.4-5.2-5.4-15.7-2.2-22.8c2.2-7.1-1.5-13.3-2.2-19.6l-2.4-1.5    c-5.9,7.6-8,19.6-3.4,28.7c2.4,4.4,2.7,10.6,6.3,14.2c2.2,7.1,6.6,11.8,10.5,18.2c1,2.5-1.5,2.9-2.7,4.2c-2.7-1.7-2.2-5.6-4.7-7.4    c-8-17.2-18.5-30.9-31.2-44.9c-0.5-2.2-2.7-4.2-1.5-6.6c4.6-4.4,5.6-13,3.2-18.7c-0.5-1.2-1.9-2.7-1.7-3.9l-3.6-2.9    c0.5,8.6-5.1,16.2-2.7,25.3v0.5c-25.1-18.9-52.9-35.8-81.2-49l-2.2,6.2c7.1,1.8,26.1,13.3,26.1,13.3c8.5,3.2,16.3,8.3,24.4,13    c33.2,18.4,55.1,48.9,70,82.8c0.3,2.7,2.7,5.6,1,8.3c-5.1-7.9-12.4-12.3-18.5-18.7c-1.7-11.5-8.5-22.6-18.5-27.3    c-3.7-5.4-11.5-5.9-17.6-7.6l-88.7-0.5c-72.2-1-138,2.2-209.7,1c-10-1-22.2-4.4-25.1-15c-2-3.7-2-10.1,0-13.5    c2.7-4.7,7.5-6.1,12.4-6.6c3.9,0.5,6.6,4.2,8.3,6.9c0,3.2-2.7,6.1-3.9,8.8c0.2,1,1.2,2.9,2.9,2.2c3.2-1.2,5.6-4.7,6.4-7.9    c0.2-1.7,1-4.2-0.7-5.4c-1.5-5.2-6.8-8.8-11.5-10.1c-6.1-0.5-12.4,1.2-16.6,5.6c-5.9,4.9-5.6,13.8-3.9,20.6    C5,361.7,16.4,369,27.4,370.5l237.2,1c23.2,1.2,49.2-2.7,72.6,2c8.5,2.7,17.6,9.1,19.8,18.7c-0.3,0.5-1,0.2-1.7,0.2    c-19.3-12.5-44.6-17.2-69.2-14.2c-9.7-0.5-18.5,3.2-27.3,5.6c-4.6,1-9-1.2-12-3.9c-8.8-7.8-24.1-7.4-35.3-4.4    c0,0.8-0.3,1.5,0.2,1.7c11.9-1,19,9.3,29.8,10.6c2.4,0.5,4.4-2.2,6.6-0.2c-11.2,5.4-21.9,11.8-33.9,15.2c-3.6-0.7-5.6-4.2-8.5-6.1    c-4.6-5.1-13.1-2.9-19.5-3.4c-2.2,0.5-4.1-1-5.6,0c1.9,3.9,6.3,6.1,10.5,8.1c6.1,2.7,13.2-0.2,18.8,3.4c-1.5,1.7-3.4,2.2-5.1,3.4    c-11.4,4.4-21,14.7-33.6,14c-13.4,1.5-27-2.5-36.1-11.8c-3.9-9.6-13.9-14.7-24.6-14.2c-0.7,0.5-1.7,0.5-1.5,1.7    c5.4,3.2,9.5,9.6,14.9,13.3c3.4,4.2,10,0,13.2,4.7c4.6,3.2,10.5,5.9,15.8,6.9c3.9,1.7,8.3,2.5,12.7,3.5l-1.7,1    c-22.2,7.4-47.8,8.1-72.6,7.1c-7.3-0.3-14.4-2.4-21.7-2.2c1.2,1.5,3.7,2.7,5.9,3.4c-1.9,1.2-4.2,1.7-6.6,2c-2.9,0.7-6.3,1-9.3,2.5    c-3.9-0.2-7.3,1.2-10.5,2.4c-4.1,4.4-9,9.1-13.9,11.3c0,1-0.2,2.5,1,2.5c4.6-2,10.5-0.5,15.1-2.5c8-0.7,12.7-9.6,19-13.3    c6.8-5.4,16.6-4.2,24.9-2.9c4.9,1.2-0.5,3.2,1,6.4c2,1.7,3.7,3.7,6.4,2.9c0.5-0.5,1-1,1.7-1.2c1.5-2,1.2-4.2,0.2-6.1    c3.4-2.2,8.1,0.3,11.7-1.2c9.3-0.2,18.5-2.2,27.6-2.5c1.5-0.2,3.2-1.7,4.6-0.2c-0.7,2-3.2,2.2-2.2,4.9c0.5,2.2,2.9,3.2,4.9,3.7    c2.4-1,4.6-2.7,3.7-5.9c-0.5-1.7-2.4-2-3.7-2.7c5.1-2.5,11-3.2,16.1-5.6c3.7-0.7,7.1-2,10.2-3.4c3.2-0.2,5.8-3.2,8.8-2    c-1.2,4.2-2.9,8.1-5.1,11.8c-3.9,13-6.8,30.2,0,42.7c0.7,0.2,1-0.3,1.5-0.5c-5.1-13-2.2-28,2.2-40.3c3.4-20.9,24.9-27,40.2-34.9    l0.7,1c-4.1,10.8-10.2,21.1-9.3,34.1c0.5,2.2-1,4.4,0,5.9c4.1-2.2,6.8-7.1,9-11.3c1.7-11-4.6-24.8,6.6-32.9    c20-7.9,38.8-18.2,61.9-18.4c0.7,0.7,2.4-0.5,2.7,1c-4.9,5.4-11.9,10.6-14.1,17.2c-7.8,10.8-7.6,29.2-4.1,42.5    c2.2,7.6-4.4,11.8-7.5,17.7c-1.5,2.1-2,5.7-3.3,8.1l4.8,0.5c4.1-4.4,8-9.8,8.3-16.2c0.5,2.5,2.7,4.4,4.6,4.9    c1.7-2.7-1.5-4.7-1.7-7.4c3.9-2.2,5.6,2.7,8.8,3.7c5.1,1.2,9.5,3.4,14.9,3.4l1.7-1.7c-5.4-8.3-16.1-9.8-25.3-10.3    c-4.9-8.1-4.9-18.2-4.4-28c1-5.2,2-10.6,4.9-15.2c1.2-3.4,4.6-6.6,6.8-9.3c4.4-4.2,10-7.1,15.4-8.3h0.7c0,0.5,0.2,0.7,0.2,0.7    c-6.6,5.1-7.3,12.3-11.2,18.7c-4.1,6.1-6.1,14.5-2.2,21.4c1.5,3.2,0.7,8.1,4.1,10.3c3.2-4.4,3.4-10.1,5.1-15    c-0.7-8.1-5.6-15.7-1-23.6c2.4-6.1,7.6-8.6,13.1-10.8c13.4-1.2,25.1,5.7,36.8,10.8c2.4,1.7,6.6,3.2,7.1,6.6    c-0.3,6.6-3.9,13.3-9,16.5c-6.6,3.9-16.1,4.4-22.2-0.2c-3.7-3.7-5.1-10.1-3.9-15c2.7-2.9,6.3-5.4,10.7-3.9c2.5,1.2,4.7,3.7,7.8,2.2    c1.2-0.7,1.7-2.7,1-3.9c-2.7-1.5-3.6-5.2-7.3-5.6c-4.6-0.7-10.2-0.5-13.4,2.7c-5.1,4.4-7.1,11.1-5.6,17.2    c1.7,7.9,7.6,13.5,15.1,15.7c11.2,2.7,22.9-0.7,30-10.3c2.9-3.2,3.6-6.6,5.4-10.6c11.7,7.1,20.5,19.6,25.1,32.4    c0,4.2,1.2,8.6,0.2,12.3l8.5,0.7c-0.7-2,0-4.2,0.7-5.9c3.2-16.2,13.2-29.7,25.1-40.3c4.1-2.5,3.2,3.2,4.1,4.9    c3.6,9.3,12.2,16,21.2,18.7c10.2,1.7,20-0.7,26.3-8.6c3.2-5.9,7.1-14.5,1.7-20.6c-3.4-4.2-8-6.4-13.4-6.4c-6.4,0-10.2,4.4-13.4,9.1    c0,2-0.3,4.2,1.5,5.2c1,0,2.9,0.2,3.7-1.2c0.5-3.7,3.6-5.4,6.6-7.4c2.7-1.5,5.6,0,7.8,1.5c2.7,2.2,3.2,5.9,3.4,9.6    c-0.5,4.7-3.7,9.6-8,11.5c-7.1,3.7-17.3,2-23.4-2.2c-2.9-3.2-4.6-6.9-6.8-10.8c-0.5-3.9-2-7.4,0-11.3c10.7-6.4,21.9-11,34.8-12.3    c5.1,1,9.5,4.4,12.9,8.1c11.2,11.5-2.4,28,5.4,40.8c2.9-0.5,2.9-4.4,4.1-6.9c3.7-8.8-1-18.4-3.2-27c-2.9-5.4-4.6-10.1-9.3-14.5    c1.2-0.5,1.7-0.5,2.9-0.5c5.1,3.4,10.7,7.4,14.9,12.8c7.1,11.5,10.7,25.3,9.5,40.3c-1.9,7.4-9.7,10.8-15.8,13.5    c-2.4,2-5.4,4.9-6.6,7.9c2.9,1.7,7.1,0,10-1.2c4.6-1.7,7.3-7.6,10.5-10.3c0.5,0.2,0.2,1,0.5,1.5c0.2,2.7-1.2,6.4,1.2,7.1    c1.2-3.4,1.5-8.3,2.2-12.5c3.2,3.5,3.6,7.9,4.6,12.3c2.2,4.4,5.8,10.3,11.7,11c1.5-2.2-0.2-4.4-0.7-6.4c-0.7-6.1-5.9-9.3-9.3-13.8    c-8.5-11.8-4.6-30.2-11.2-43.5c-2.4-7.1-7.6-12.3-13.2-18.2l1-1c11.9-0.2,22,3.7,32.9,5.9c13.4,6.6,32.9,5.2,39.3,22.6    c2.7,9.8,7.1,18.9,13.9,26.5l0.7-0.5c1.5-2.4,1.5-6.6,0-9.1c-1.5-12.3-12.2-15.2-17.8-25.5l0.7-1c5.8,1.7,11.9,3.2,17.8,5.7    c19.5,5.4,33.2,24.6,35.6,44.4c0,15.7-2.9,28.7-9,42c-0.8,2-4.1,4.2-2,5.9c2.7-2,3.2-5.2,4.6-7.4c8.1-13.5,12.2-32.2,8.1-49.4    c-0.2-3.2-3.9-5.6-2.2-8.8c1.2,1.5,2.7,1.7,4.1,2.2c1.5-1,3.7-1,4.6-2.7c0.2-1.5,1.2-3.2,0-4.4c-1.5-2.2-4.6-2.2-7.1-1.7    c-1.2,1.5-2.7,3.4-2.9,5.4c-2.4-4.2-4.9-9.6-8.8-13l0.5-0.7c11,3.7,21,9.1,32.2,12c2.4,1.5,5.1,2.7,8.5,2.7c9.5,3.7,20,5.2,30,7.6    c7.3-0.7,13.4,2.7,20.7,1v-0.5l-0.2,0.2c-2.7-3.4-8.5-0.2-11.7-2.7c-16.8-1.7-32.9-6.1-48-12c0.2-0.7,1.2-0.5,2-0.5    c2.4-1.2,4.1-3.4,3.9-6.1c-1.2-1.7-3.2-2.7-5.6-2.7c-1.5,0.7-3.4,2.4-3.6,4.2c0.2,2,1.9,4.2,3.6,4.7c-0.5,0.5-1.5,0.3-2.2,0.3    c-7.6-3.4-14.9-6.6-22.2-10.1c-2.7-0.5-4.9-2.7-7.6-3.2c-5.6-2.7-11.2-5.4-16.8-7.6c-15.6-8.1-32.9-12.5-49.5-18.4    c-3.7-1-7-2-10.5-3c-6.1-1.7-12.2-3.2-18.3-4.9c-20.7-5.1-48.5-5.6-66.6,5.7c-2.9-1-4.6,3.7-6.1,0.7c5.1-13.5,20-17.9,33.4-18.4    c97.7-1,189.4-1.7,285.7-3.2c11.2,0,22.2-3.9,28-14C791.6,348.4,792.4,338.4,789.2,331.7L789.2,331.7z M401.6,422.3    c-1,3-2.9,5.4-2.7,8.6l-1,0.5c0.7-3.7-2.9-5.9-1.9-9.8c-2-2.9-2-6.6-3.7-9.8c-2.2-3.9,1.9-5.6,3.7-8.3c3.4,1.5,4.6,4.7,7.1,7.6    C404.5,415.2,401.3,418.4,401.6,422.3L401.6,422.3z"/>
  <path d="M666.1,406.9c0,0.7,1.5,1,1,2.2c-8.5,7.6-20.5,9.8-32.7,10.3c-1,0.2-2,1-3.2,0.7c-0.7-0.5-1-1.2-0.5-1.7    C639.5,408.8,652.9,403.9,666.1,406.9L666.1,406.9z"/>
  <path d="M626.8,410.8c1,3.4-1.2,5.4-3.9,6.6c-2.7-0.2-4.1-2-5.4-3.9c-0.7-2,1-2.9,1.7-4.2C621.2,407.3,625.9,407.3,626.8,410.8    L626.8,410.8z"/>
  <path d="M163.4,411.3c0.5,1.7,0.2,3.9-1.2,5.2c-1,1.2-3.2,1.5-4.4,1.2c-1.7-0.3-2.7-2.2-3.2-3.7c0-2.2,1.2-3.4,3.2-4.7    C159.8,409.3,161.9,409.1,163.4,411.3L163.4,411.3z"/>
  <path d="M119.8,427.2v1.7c-5.8,1.2-11.4-0.2-15.8-3.7c-3.4-4.9-7.3-9.8-12.9-12.3c0-0.7-1.5-1.7,0-2.2    C103.2,410.8,110.5,420.6,119.8,427.2L119.8,427.2z"/>
  <path d="M703.1,411c-5.6,8.3-10.5,18.7-20.5,22.3c-1.7,0-3.2,2.5-4.7,0.8c3.9-9.3,12.2-19.4,21.7-23.3    C700.7,410.8,702.2,410.5,703.1,411L703.1,411z"/>
  <path d="M177.5,414c0.3,2.7-1.7,3.2-3.4,4.7c-2,0.2-2.9-1.2-4.2-2.7c-1-2.5,1.2-3.4,2.5-4.7C174.4,410.8,176.6,412.3,177.5,414    L177.5,414z"/>
  <path d="M733.8,415.4c-2.2,3.2-1.2,7.9-3.4,11.3c-4.9,5.6-9,12-16.8,13.3c-1.2-2.4,1.7-4.9,2.9-7.1c3.4-7.4,8.3-15.7,16.1-18.9    L733.8,415.4L733.8,415.4z"/>
  <path d="M44.2,417.7c0.7,1.7,1.5,3.4,0,5.4c-1.4,1.2-3.6,1.7-5.6,1c-2.2-1.2-2.9-3.9-1.9-5.9C38.1,415.9,42.5,414.7,44.2,417.7    L44.2,417.7z"/>
  <path d="M30.3,420.6c0.3,1.2,1,2.2,0.7,3.4c-0.7,1.2-1.9,2.7-3.4,3c-2.7,0.5-4.4-1-5.6-3.2c-0.3-2.2,0.5-4.2,2.4-5.2    C26.7,417.7,29.1,418.9,30.3,420.6L30.3,420.6z"/>
  <path d="M59.1,422.1c0.5,2,1,5.4-1.9,5.9c-3.4,1.5-5.4-1-7.3-2.9c0-2.2,1.2-3.9,2.9-4.9C55.2,419.9,57.4,420.1,59.1,422.1    L59.1,422.1z"/>
  <path d="M99.1,425.3c-0.3,1.7,0.2,4.2-1.7,4.7c-1.2,1.2-3.4,0.7-4.6,0.5c-0.5-1.5-3.2-2.7-1.7-4.4c1-1.2,2-2,3.4-2.7    C95.9,424,98.1,423.3,99.1,425.3L99.1,425.3z"/>
  <path d="M757.3,427c-0.7,1.7-1.7,3.9-3.7,3.9c-2.2-0.2-4.4-0.5-5.6-2.7c-1-2.7,1.2-4.2,3.2-4.9C753.6,423.3,756.8,424.3,757.3,427    L757.3,427z"/>
  <path d="M712.7,428.2c0.2,2-2,3.5-2.9,4.2c-3.4,1.5-6.3-1-7.6-3.7c0.5-2.2,2.2-3.7,4.1-4.4C709.5,424,711.2,425.8,712.7,428.2    L712.7,428.2z"/>
  <path d="M742.9,427.7c0,1.7-1,3.4-2.2,4.2c-2,0.7-4.4,0.5-5.9-1c-2.2-2-0.5-3.7,1-5.2C738,424.5,742.1,424.8,742.9,427.7    L742.9,427.7z"/>
  <path d="M37.9,431.9c0.5,2.7-0.5,5.1-2.9,6.1c-2.2,0-4.6-1.2-5.4-3.4c-0.2-2.2,0.5-4.4,2.4-5.2C34.4,428.7,36.4,430.2,37.9,431.9    L37.9,431.9z"/>
  <path d="M700.5,434.6c0.7,2.7-0.7,5.2-3.4,6.4c-2,0.5-3.2-0.5-4.6-1.7c-1-1.2-2.2-3.9-0.2-5.1C694.1,430.4,699,431.9,700.5,434.6    L700.5,434.6z"/>
  <path d="M169,437.3c1,2.7-1.9,3.2-2.7,4.7c-1,0.5-2.9,0.7-3.7-0.2c-1.2-1.5-2.7-3-1.9-5.2c1.2-1,1.7-2,3.2-2.4    C166.6,433.4,167.6,435.8,169,437.3L169,437.3z"/>
  <path d="M752.9,439c0.5,1.7-1,2.5-1.2,3.7c-1.5,1.2-3.9,1.5-5.6,1c-2.2-1.2-2.2-3.2-2.2-5.4c1.4-1,1.7-2.2,3.4-2.7    C749.5,435.6,752.1,436.6,752.9,439L752.9,439z"/>
  <path d="M737.8,439.8c1,2.9-1.7,4.4-3.7,5.2c-1,0.2-2.4-0.5-2.7,1c6.3,3.2,10.3,8.3,15.1,13v2c-8.8-0.2-17.8-2.4-24.1-9.3    c-1.7-1.2-4.6-1.2-6.6-2.9c3.2-3.2,9-2,13.4-2.2c3.2-3.4-3.7-5.9,0.5-8.8c1.5-0.3,2.4-1.7,4.4-1.2    C735.8,437,736.8,438.3,737.8,439.8L737.8,439.8z"/>
  <path d="M638,440c0.5,1.2-1,2.7-1.2,3.9c-1.5,1.5-3.7,1.7-5.4,1c-1.2-1.7-3.2-3.2-2.4-5.7C631,435.6,637.3,436.3,638,440L638,440z"    />
  <path d="M93,448.6c-0.8,2.2-1.7,3.7-4.1,3.9c-2-0.3-3.7-1-4.4-2.9c-0.2-1.7,1-2.7,1.2-3.9C88.3,443.4,93.2,444.9,93,448.6L93,448.6    z"/>
  <path d="M112.7,445.4c0,3.4-3.7,5.4-4.9,8.8c-3.7,8.1-10.2,15.5-19.5,16.2c-1-2.2,3.2-4.9,4.1-7.1c3.9-8.3,11.7-12.8,18.8-17.9    H112.7L112.7,445.4z"/>
  <path d="M632.2,448.8c0.2,2.7-2.2,4.7-4.2,5.7c-2.2,0.7-3.9-1-5.1-2c-2-2-0.7-3.9,0.2-5.9C626.1,443.7,630.3,446.1,632.2,448.8    L632.2,448.8z"/>
  <path d="M647.3,450.6c-0.3,2.7-1.9,4.7-4.4,5.4c-0.5-0.8-1.7-0.3-2.4-0.5c-1.7-1-3.2-2.5-3.2-4.4c1.2-1.2,1.7-3.2,3.4-3.4    C642.9,447.4,646.6,447.6,647.3,450.6L647.3,450.6z"/>
  <path d="M150.5,450.3c0.3,2.7-1.7,4.2-3.7,5.1c-2.2,0.3-3.6-1.2-4.6-2.9c-0.5-2.2,1.7-3.7,2.9-4.9    C148.1,446.6,148.8,448.8,150.5,450.3L150.5,450.3z"/>
  <path d="M167.3,451.3c-0.7,2.2-2.2,3.7-4.6,4.2c-1.7-0.5-3.7-1-4.4-2.9c-0.2-2.5,1.7-3.7,3.4-4.9    C164.1,447.6,166.8,448.6,167.3,451.3L167.3,451.3z"/>
  <path d="M699.7,468.5c1.2,1,3.4,2.2,2.9,3.9c-3.9,1.7-7.1-2.7-10.7-3.4c-5.9-5.9-10.3-12.3-12.7-19.6c2.2-2.2,4.6,0.5,6.6,1.2    C691.4,455.2,696.8,461.4,699.7,468.5L699.7,468.5z"/>
  <path d="M708.7,451.3c0.7,1.7,0.5,3.7-0.5,5.4c-1.5,2.5-4.6,2-6.8,1.5c-1.2-1.5-3.4-3.4-1.9-5.6c0.7-2,2.9-2.5,4.6-3.2    C705.8,449.1,707,450.6,708.7,451.3L708.7,451.3z"/>
  <path d="M189.7,457.7c0.2,2,0.7,4.9-1.7,6.1c-2.2,0.5-5.1-0.3-5.8-3c-1.2-2.9,1.4-3.4,2.9-4.9C187.1,455.5,188.3,456.5,189.7,457.7    L189.7,457.7z"/>
  <path d="M646.6,473.6c3.4,4.9,5.8,11,6.3,17.4c-0.7,1.7,1.2,3.4-0.2,4.7h-1c-11-7.9-13.4-18.9-17.5-30c-1-0.5-1.2-1.5-1-2.5    c2.4-2.2,4.1,2.2,6.6,2.9L646.6,473.6L646.6,473.6z"/>
  <path d="M221.4,465.3c-0.2,0.2,0,0.5,0.2,0.5c-9.8,6.9-23.4,11-34.6,4.4c-0.3-0.7,0.2-2,1.2-2.2c7.1-2.2,13.9-5.7,21.5-4.7    L221.4,465.3L221.4,465.3z"/>
  <path d="M165.8,466.5c-8.3,5.1-15.8,15.2-26.1,17.7c-2,0.7-3.2,3.4-5.6,2c4.4-13.3,18.8-20.4,31.7-21.6V466.5L165.8,466.5z"/>
  <path d="M632.2,477.6c0.7,2,0,4.7-2,5.2c-1.2,1.2-3.7,1.2-4.6,0c-2.2-1-2.2-3.2-2.2-4.9c0.7-1.7,2.4-2,3.6-2.7    C629.3,475.6,631,475.6,632.2,477.6L632.2,477.6z"/>
  <path d="M612,478.8c-1.5,3.4-5.6,5.4-8.8,6.4c-8.3,2.9-15.9-1-23.2-3c0.2-2,2.7-1.2,3.9-2.4c8-1.7,16.3-3.4,24.8-1.2    C609.5,478.1,611.2,477.8,612,478.8L612,478.8z"/>
  <path d="M165.8,485.9c-0.7,1-1,3.2-2.9,3.9c-1.7,0.7-3.4,0-4.9-1c-0.5-1.5-2.2-2.7-1-4.4c0.5-1.7,2.4-2.2,3.9-2.7    C163.4,482,165.4,483.5,165.8,485.9L165.8,485.9z"/>
  <path d="M180.2,488.1c-0.7,1.5-1.5,3.7-3.4,4.7c-1.9,0.5-3.4-0.5-4.9-1.7c-0.7-1.5-1.5-3.2-0.7-4.9c0.5-1.2,2.2-1.5,3.4-2.2    C177.1,483.7,179.3,486.2,180.2,488.1L180.2,488.1z"/>
  <path d="M627.6,490.6c0.2,2-0.7,3.2-1.7,4.7c-1.2,1.7-3.7,2-5.4,1c-1.7-0.3-2.2-2.2-2.9-3.4c-1.5-2,1-3.2,1.7-4.9    C622,485.7,626.3,486.9,627.6,490.6L627.6,490.6z"/>
  <path d="M638.3,490.1c0.2,1.2,1,2.4,0.5,3.4c-1.5,1.2-2.4,4.4-5.4,3.2c-1.4,0.5-2.2-1.5-2.9-2c-1-2.5-0.2-6.1,2.9-6.6    C635.6,487.4,637.1,489.4,638.3,490.1L638.3,490.1z"/>
  <path d="M171.5,497.2c0.5,2.7-0.5,5.2-2.4,6.6c-2.7,0.5-6.1,0.5-7.1-2.7c-0.2-2.4,0-5.6,2.9-7.1    C167.3,493.8,170.2,494.3,171.5,497.2L171.5,497.2z"/>
  <path d="M185.4,496.2c-0.5,6.9-1.9,15.2-8.8,19.1c-3.9,0.7-7.8,4.4-11.7,2v-1.2C170,508.7,179.3,503.1,185.4,496.2L185.4,496.2z"/>
  <path d="M589.3,501.9c1,1.5-0.7,2.7-1.4,3.9c-1.4,1.7-4.1,1-5.8,0.3c-1.7-0.7-2-3.2-1.2-4.9c0.5-1.5,1.9-2.2,3.2-2.7    C586.1,498.2,588.1,500.2,589.3,501.9L589.3,501.9z"/>
  <path d="M209.7,513.2c3.4,5.7,1.5,13.3,3.4,19.4c-4.2,0.5-5.9-4.2-8.5-6.6c-5.4-7.4-4.6-17.2-7.1-25.8c0.5-0.7,1.2-0.7,1.7-0.5    c3.6,2.4,6.3,7.1,9.3,10.3C208,511.7,210,511.7,209.7,513.2L209.7,513.2z"/>
  <path d="M601.5,503.8c0,2-2.2,2.5-3.4,3.7c-1.7-0.2-3.2-1-4.6-2.2c-0.7-2.4,1.2-3.2,2.4-4.4C598.3,499.9,600.7,501.1,601.5,503.8    L601.5,503.8z"/>
  <path d="M630.5,525.7c0,0.7-0.2,2.2-1.5,1.7h-1c-7.1-6.4-14.1-13.5-13.2-23.3l1.5-0.2C622.9,509.5,630.3,515.6,630.5,525.7    L630.5,525.7z"/>
  <path d="M612.2,517.8c0.2,2-1,3.4-2.2,4.7c-2.7,0.7-6.8,0.5-7.3-3.2c-0.2-2.5,2.5-3.7,3.7-4.9C609.3,513.7,611.2,515.6,612.2,517.8    L612.2,517.8z"/>
  <path d="M596.1,523c-3.4,9.1-12.7,13.8-19,20.6c-1.2-0.7-0.7-2.7-0.5-3.7c2.4-9.3,9.8-18.4,18.8-22.1    C599.3,518.3,595.4,521,596.1,523L596.1,523z"/>
  <path d="M614.4,530.4c0,2.2-2.2,3.2-3.4,4.4c-2-0.2-3.9-0.7-5.4-2.7c-0.2-2.5,1.7-3.2,3.2-4.4C611.2,527.2,613.4,528.4,614.4,530.4    L614.4,530.4z"/>
  <path d="M433,84.6c3.3,0,6,2.7,6,6.1c0,3.4-2.7,6.1-6,6.1h-72.3c-3.3,0-6-2.7-6-6.1c0-3.3,2.7-6.1,6-6.1H433L433,84.6z M381.9,95.1    c7.1,0,0.4-8.6-3.4-8.6h-7c-7.1,0-0.4,8.6,3.4,8.6H381.9L381.9,95.1z M411.5,95.1c7,0,0.4-8.6-3.4-8.6H401c-7.1,0-0.4,8.6,3.4,8.6    H411.5L411.5,95.1z M433.3,86.5h-2.7c-7.1,0-1.1,8.6,2.7,8.6C438.1,95.1,438.4,86.5,433.3,86.5L433.3,86.5z"/>
  <path d="M426.7,167.5l13.8,5.3l13.6-5.3l-5.4,20.3l10.7-2.2l-3.7,12.3l3.7,11.8l-9.6-2.6l4.2,21.9l-13.6-5.3l-13.8,5.3l5.6-21.9    l-11,3.1l2.9-12.3l-2.9-11.8l10.5,1.7L426.7,167.5L426.7,167.5z M447.1,204.2c3.1,0,3.4-4.3,3.4-8c0-8.4-6.6,0-10-7.9    c-2.5,6.7-9.3,0.5-9.3,7.6c0,4.9,0,8.2,4.9,8.2H447.1L447.1,204.2z M433.5,196.7c0,3.2,4.3,1.1,7.5,1.1c3.2,0,7.5,2.1,7.5-1.1    c0-4.5-4.3-3-7.5-3C437.8,193.7,433.5,192.1,433.5,196.7L433.5,196.7z"/>  <polygon points="394.3,197.4 394.3,194.9 392,194.4 393.8,192.5 392.7,190.5 395.1,190.7 396.5,188.2 397.9,190.7 400.3,190.5    399.2,192.5 401,194.4 398.7,194.9 398.7,197.4 396.5,195.8 394.3,197.4 	"/>  <polygon points="383.6,211.2 383.6,208.7 381.3,208.2 383.1,206.3 382,204.3 384.4,204.5 385.8,202 387.2,204.5 389.6,204.3    388.5,206.3 390.3,208.2 388,208.7 388,211.2 385.8,209.6 383.6,211.2 	"/>  <polygon points="401.8,209.5 401.8,206.9 399.5,206.5 401.3,204.6 400.2,202.5 402.6,202.8 404,200.3 405.4,202.7 407.8,202.5    406.7,204.6 408.5,206.5 406.2,206.9 406.2,209.5 404,207.9 401.8,209.5 	"/>  <polygon points="404,219.8 404,218.3 402.7,218.1 403.7,217 403,215.9 404.4,216 405.2,214.6 406,216 407.4,215.9 406.7,217    407.7,218.1 406.4,218.3 406.4,219.8 405.2,218.9 404,219.8 	"/>  <polygon points="387.1,231.6 387.1,227.2 383.1,226.4 386.2,223.2 384.3,219.6 388.3,220.1 390.8,215.8 393.2,220 397.3,219.6    395.4,223.2 398.5,226.4 394.6,227.2 394.6,231.6 390.8,228.8 387.1,231.6 	"/>  <polygon points="395.7,0 404.2,21.1 426,14.7 414.9,34.6 433.5,47.8 411.1,51.5 412.5,74.3 395.7,59 378.8,74.3 380.2,51.5    357.8,47.8 376.4,34.6 365.3,14.7 387.1,21.1 395.7,0 	"/>
  <path d="M317,473.5c-2.6,1-3.6,1.7-3,4.4l3.1,12.9c0.6,2.4,0.7,6.2-0.9,8.5c-1.9,2.8-5.9,4.6-8.8,5.2c-2.1,0.5-6.7,1.4-10.4-0.2    c-2.4-1-4-2.2-5.1-6.5l-3.2-13.6c-0.8-3.4-2.1-3.2-4.8-2.8l-0.2-1l16.3-3.9l0.2,1c-3.2,0.9-4.6,1.3-3.8,4.9l3.2,13.5    c0.5,2.3,1.9,7.9,8.8,6.2c8.5-2,7.1-8.3,6.5-10.9l-2.9-12.4c-0.6-2.5-1.5-3.7-5.7-2.9l-0.3-1l10.6-2.6L317,473.5L317,473.5z"/>
  <path d="M341.2,476.2c-1.5-2.7-5.4-6.7-11.2-5.4c-2.5,0.6-4.9,2.4-4.3,5c0.5,2.2,1.6,2.9,6.1,3.7l7.8,1.4c1.8,0.3,6,1.9,7,6.3    c0.8,3.6-1.2,9.2-10.2,11.2c-4.6,1-7.1,0.1-8.6,0.5c-1,0.2-1.1,1-1.1,1.7l-1.4,0.3l-2.2-10.1l1.4-0.3c1.9,3.9,5.7,7.9,11.9,6.5    c5.8-1.3,5.2-5.4,5.1-5.9c-0.6-2.7-3.1-3.2-6.5-3.8l-3.5-0.6c-9-1.5-9.8-5-10.2-6.9c-0.5-2.5-0.3-8.3,9-10.4c3.9-0.9,6.5,0,7.9-0.3    c1.1-0.2,1.2-0.9,1.3-1.7l1.5-0.3l1.9,8.8L341.2,476.2L341.2,476.2z"/>
  <path d="M373.4,492.3l-17.7,1.7l-0.1-1c3.6-0.6,4.8-0.8,4.4-4.3l-2.1-21.9c-3.4,0.5-8.5,1.2-8.9,7.9l-1.4,0.1l-0.6-8.4l29.7-2.8    l0.9,8.3l-1.4,0.1c-1.6-6.6-6.7-6.3-10.2-6.1l2.1,21.9c0.4,3.5,1.5,3.5,5.2,3.4L373.4,492.3L373.4,492.3z"/>
  <path d="M414.7,492.3l-10.2-0.2l-10-13.3l-1.3,0L393,487c-0.1,3.3,1,3.5,4.3,3.9l0,1l-16.8-0.3l0-1c3.4-0.3,4.4-0.4,4.4-3.8    l0.4-18.4c0.1-3.6-1.5-3.7-4.3-3.9l0-1l16,0.3c3.5,0.1,14,0.6,13.9,7.6c-0.1,5.1-5.3,6.3-7.9,7l9.8,12.1c0.7,0.8,1.4,0.8,2,0.8    L414.7,492.3L414.7,492.3z M393.2,477.5c6.5,0.1,9.1-0.8,9.2-6.2c0.1-4.2-1.9-6.1-5.9-6.1c-2.8-0.1-2.8,0.4-3.1,1.7L393.2,477.5    L393.2,477.5z"/>
  <path d="M447.4,496.5l-16-2l0.1-1c3.1,0.2,4,0.2,4.1-1.1c0.1-1.1-1.1-4.4-1.6-5.8l-11.1-1.4c-1.8,2.8-2.8,4.4-2.8,5.1    c-0.2,1.6,2.2,2,3.8,2.3l-0.1,1l-10-1.3l0.1-1c2.7,0,3.6-1.3,5.4-4.2l13.8-21.3l1.4,0.2l8.3,23.2c1.7,4.7,2.3,6.2,4.7,6.4    L447.4,496.5L447.4,496.5z M433.5,484.8l-3.7-10.7l-5.9,9.5L433.5,484.8L433.5,484.8z"/>
  <path d="M476.3,502.4l-28.3-5.2l0.2-1c2.8,0.2,4.3,0.4,4.7-2.1l3.6-19.9c0.5-2.7-1.5-3.2-3.7-3.7l0.2-1l17.1,3.2l-0.2,1    c-3.5-0.5-5-0.7-5.6,2.9l-3.5,19.4c-0.4,2,0.7,2.5,3.9,3.1c7.4,1.4,10.8-1.5,13.8-5.8l1.4,0.3L476.3,502.4L476.3,502.4z"/>
  <path d="M495.1,506.6L478,503l0.2-1c2.7,0.3,4.6,0.6,5.1-2l4.1-19.8c0.6-2.7-1.7-3.3-3.9-3.9l0.2-1l17,3.6l-0.2,1    c-2.3-0.4-4.7-0.8-5.2,1.9l-4.1,19.8c-0.5,2.6,1.4,3.1,4,3.9L495.1,506.6L495.1,506.6z"/>
  <path d="M529.7,511l-16-1.7l0.1-1c3.1,0.1,4,0.2,4.1-1.2c0.1-1.1-1.2-4.4-1.7-5.8l-11.1-1.1c-1.7,2.8-2.7,4.5-2.7,5.1    c-0.2,1.6,2.2,1.9,3.9,2.2l-0.1,1l-10-1l0.1-1c2.7-0.1,3.6-1.4,5.3-4.4l13.3-21.6l1.4,0.1l8.8,23c1.8,4.7,2.4,6.2,4.8,6.3    L529.7,511L529.7,511z M515.6,499.6l-4-10.6l-5.7,9.6L515.6,499.6L515.6,499.6z"/>
  <path d="M402.5,174.3c0-10-5.6-0.6-8.7-9.1c-2.3,7.2-9,1.1-9,8.9c0,3,0.8,4.7,2.2,5.6v3c0,0.8,0.6,1.4,1.4,1.4H399    c0.8,0,1.4-0.6,1.4-1.4v-3.2C401.6,178.3,402.5,176.6,402.5,174.3L402.5,174.3z M393.8,176.2c-2.9,0-6.9,2-6.9-1.4    c0-4.9,3.3-3.8,6.3-3.8c2.9,0,7.5-1.1,7.5,3.8C400.7,178.2,396.7,176.2,393.8,176.2L393.8,176.2z"/>
  <path d="M489.8,297.3c2.5,0,4.6-1.8,4.6-4.1c0-2.2-2.1-4.1-4.6-4.1c-2.5,0-4.6,1.8-4.6,4.1C485.2,295.5,487.2,297.3,489.8,297.3    L489.8,297.3z"/>
  <path d="M468.1,148.8c0,0-2.2,3.6-2.2,4.3c0,1.3,1,2.4,2.2,2.4c1.2,0,2.2-1.1,2.2-2.4C470.3,153.1,468.1,148.8,468.1,148.8    L468.1,148.8z"/>
  <path d="M320.9,148.8c0,0-2.2,3.6-2.2,4.3c0,1.3,1,2.4,2.2,2.4c1.2,0,2.2-1.1,2.2-2.4C323.1,153.1,320.9,148.8,320.9,148.8    L320.9,148.8z"/>
  <path d="M357.7,148.8c0,0-2.2,3.6-2.2,4.3c0,1.3,1,2.4,2.2,2.4c1.2,0,2.2-1.1,2.2-2.4C359.9,153.1,357.7,148.8,357.7,148.8    L357.7,148.8z"/>
  <path d="M394.5,148.8c0,0-2.1,3.6-2.1,4.3c0,1.3,1,2.4,2.2,2.4c1.2,0,2.2-1.1,2.2-2.4C396.7,153.1,394.5,148.8,394.5,148.8    L394.5,148.8z"/>
  <path d="M431.3,148.8c0,0-2.2,3.6-2.2,4.3c0,1.3,1,2.4,2.2,2.4c1.2,0,2.2-1.1,2.2-2.4C433.6,153.1,431.3,148.8,431.3,148.8    L431.3,148.8z"/>
  <path d="M321,199.4c0,0,2.2,3.6,2.2,4.3c0,1.3-1,2.4-2.2,2.4c-1.2,0-2.2-1.1-2.2-2.4C318.7,203.6,321,199.4,321,199.4L321,199.4z"    />
  <path d="M321,248.5c0,0,2.2,3.6,2.2,4.3c0,1.3-1,2.4-2.2,2.4c-1.2,0-2.2-1.1-2.2-2.4C318.7,252.7,321,248.5,321,248.5L321,248.5z"    />
  <path d="M326.9,287.3c0,0,2.2,3.6,2.2,4.3c0,1.3-1,2.4-2.2,2.4c-1.2,0-2.2-1.1-2.2-2.4C324.6,291.6,326.9,287.3,326.9,287.3    L326.9,287.3z"/>
  <path d="M357.7,308c0,0,2.2,3.6,2.2,4.3c0,1.3-1,2.4-2.2,2.4c-1.2,0-2.2-1.1-2.2-2.4C355.5,312.2,357.7,308,357.7,308L357.7,308z"    />
  <path d="M470,199.4c0,0-2.1,3.6-2.1,4.3c0,1.3,1,2.4,2.2,2.4c1.2,0,2.2-1.1,2.2-2.4C472.2,203.6,470,199.4,470,199.4L470,199.4z"/>
  <path d="M470,248.5c0,0-2.1,3.6-2.1,4.3c0,1.3,1,2.4,2.2,2.4c1.2,0,2.2-1.1,2.2-2.4C472.2,252.7,470,248.5,470,248.5L470,248.5z"/>
  <path d="M464.1,287.3c0,0-2.2,3.6-2.2,4.3c0,1.3,1,2.4,2.2,2.4c1.2,0,2.2-1.1,2.2-2.4C466.3,291.6,464.1,287.3,464.1,287.3    L464.1,287.3z"/>
  <path d="M433.2,308c0,0-2.1,3.6-2.1,4.3c0,1.3,1,2.4,2.2,2.4c1.2,0,2.2-1.1,2.2-2.4C435.5,312.2,433.2,308,433.2,308L433.2,308z"/>
  <path d="M395.7,329.9c0,0-2.2,3.6-2.2,4.3c0,1.3,1,2.4,2.2,2.4c1.2,0,2.2-1.1,2.2-2.4C397.9,334.1,395.7,329.9,395.7,329.9    L395.7,329.9z"/>
  <path d="M455.6,256.7c0.5,0.7,1.6,0.9,3.1,0.4l1.4-4c0.1-0.3-1.6-1.9-2.6-1.6c-3.9,0.9-8.1,1.4-10.4,5.1c0,2.6,1.9,4.9,3.7,6.1    c1.4-0.5,1.6,0.9,2.5,1.6c0.2,1.2-0.5,2.1-1.6,2.1c-2.8-2.8-7.7,0.9-9.7-2.6c0.9-3.5,2.8-7.5-0.2-10.7c0.2-0.7,1.4-1.4,0.7-2.1    c-1.2-3.3-4.7-0.7-6.7-0.7c-3.5-0.5-6.3,1.4-8.3,4.2c0.2,1.2,0.7,2.3,1.8,3.5c0.9-0.2,1.4,0,1.6,0.9l-2.3,1.4    c0.7,0.7,0.7,1.6,0.9,2.6c-1.6,0.7-3.2-1.6-4-2.8c0-1.9,0.2-5.1-2.3-5.6c-0.5,0-2,0.7-2,0.7c-0.5,0.7-0.9,2.2-0.9,3.9    c0,1.7,0.9,4.2,0.9,4.2s7.2,5.3,8.8,8.5c-2.1,4.2-2.1,10-6.9,12.4c-1.4,0.9-1.4,2.3-1.4,3.7l1.2,0.9c3-1.6,8.8-2.1,8.3-7.2    c1.1-2.1,2.3-4.4,4.4-6.1c2.3-0.5,4.4,0.7,5.3,2.6c-0.7,3.5-3,5.8-6.2,7c-0.4,0.5-0.2,1.2-0.2,1.9c0.9,1.6,3.5,0.9,4.9,0.7    c3.9-2.6,5.6-7.2,9-8.6c0.5,2.3-4.6,3-1.4,5.4c2.1-0.5,4.9,0.2,6.3-2.6c-1.6-4,5.5-5.8,1.1-9.3c0-3.5,3.7-4.9,3.5-8.6    c-1.4-3.7-5.8-3.7-6.9-7.2C452.1,255.7,454.2,256,455.6,256.7L455.6,256.7z"/>
  <path d="M286.4,299.1c2.5,0,4.6-1.8,4.6-4.1c0-2.2-2.1-4-4.6-4c-2.6,0-4.6,1.8-4.6,4C281.8,297.3,283.9,299.1,286.4,299.1    L286.4,299.1z"/>
  <path d="M47.6,438.6c2.5,0,4.5-1.9,4.5-4.3c0-2.4-2-4.3-4.5-4.3c-2.5,0-4.5,1.9-4.5,4.3C43.1,436.6,45.1,438.6,47.6,438.6    L47.6,438.6z"/>
  <path d="M199.6,472.4h-0.3l-0.3-0.4h0v0.2c0,0.1,0,0.1,0.1,0.1v0h-0.5v0c0.1,0,0.1,0,0.1-0.1v-0.5c0-0.1,0-0.1-0.1-0.1v0h0.5    c0.1,0,0.4,0,0.4,0.2c0,0.1-0.2,0.2-0.2,0.2L199.6,472.4C199.6,472.4,199.6,472.4,199.6,472.4L199.6,472.4L199.6,472.4z M199,472    c0.2,0,0.3,0,0.3-0.2c0-0.1-0.1-0.2-0.2-0.2c-0.1,0-0.1,0-0.1,0.1V472L199,472z"/>
  <path d="M200.2,471.9c0-0.1-0.1-0.2-0.3-0.2c-0.1,0-0.2,0-0.2,0.1c0,0.1,0,0.1,0.2,0.1l0.2,0.1c0,0,0.1,0.1,0.1,0.2    c0,0.1-0.1,0.3-0.4,0.3c-0.1,0-0.2,0-0.2,0c0,0,0,0,0,0h0v-0.3h0c0,0.1,0.1,0.3,0.3,0.3c0.2,0,0.2-0.1,0.2-0.1    c0-0.1-0.1-0.1-0.2-0.1l-0.1,0c-0.3-0.1-0.3-0.2-0.3-0.3c0-0.1,0-0.2,0.3-0.2c0.1,0,0.2,0,0.2,0c0,0,0,0,0,0h0L200.2,471.9    L200.2,471.9L200.2,471.9z"/>
  <path d="M201.8,471.6c-0.1,0-0.1,0-0.1,0.1l-0.3,0.7h0l-0.2-0.6h0l-0.3,0.6h0l-0.3-0.7c0-0.1-0.1-0.1-0.1-0.1v0h0.4v0    c-0.1,0-0.1,0-0.1,0.1c0,0,0,0,0,0l0.2,0.4l0,0l0.2-0.4l-0.1-0.1c0,0,0,0-0.1,0v0h0.5v0c-0.1,0-0.1,0-0.1,0c0,0,0,0.1,0,0.1    l0.2,0.4l0,0l0.2-0.4c0,0,0,0,0,0c0-0.1-0.1-0.1-0.1-0.1v0L201.8,471.6L201.8,471.6L201.8,471.6z"/>
  <path d="M201.8,472.4c0.1,0,0.3-0.1,0.4-0.3c0,0,0,0-0.1,0c0,0,0,0-0.1,0c-0.1,0-0.3,0-0.3-0.3c0-0.1,0-0.3,0.3-0.3    c0.1,0,0.3,0.1,0.3,0.4C202.4,472.2,202.2,472.4,201.8,472.4L201.8,472.4L201.8,472.4z M202.1,472.1    C202.2,472.1,202.2,472.1,202.1,472.1c0.1,0,0.1-0.1,0.1-0.1c0-0.2,0-0.3-0.1-0.3c-0.1,0-0.1,0.1-0.1,0.2    C202,472,202.1,472.1,202.1,472.1L202.1,472.1z"/>
  <path d="M202.6,471.9c0.1,0,0.2,0,0.3,0c0.1,0,0.2,0.1,0.2,0.2c0,0.2-0.2,0.3-0.4,0.3c-0.1,0-0.2,0-0.2-0.1c0,0,0-0.1,0.1-0.1    c0.1,0,0.2,0.1,0.3,0.1c0.1,0,0.1,0,0.1-0.1c0-0.1-0.1-0.1-0.2-0.2c-0.1,0-0.2,0-0.3-0.1l0.1-0.4h0.5l-0.1,0.2h-0.4L202.6,471.9    L202.6,471.9z"/>
  <path d="M480.4,143L480.4,143l-169.9-0.1v0.1h-0.1l0.2,129.8c0,13.2,5.6,24.8,13.3,28.4l65.3,41.5c1.4,1.6,3.6,2.7,6,2.7    c2,0,3.9-0.8,5.3-2.1l66.4-42.1c7.7-3.6,13.4-15.1,13.4-28.4L480.4,143L480.4,143L480.4,143z M475.6,274.6c-0.9,9.8-4.2,18-11,22.6    l-64,40.7h-0.4c-1.3,1.1-3,1.7-4.9,1.7c-1.9,0-3.7-0.7-5-1.8l-63.9-40.7c-6.8-4.6-10.1-12.8-11-22.6v-127h160.3V274.6L475.6,274.6z    "/>
  <path d="M418.3,332.2l2-1C419.5,331.5,418.9,331.9,418.3,332.2L418.3,332.2z"/>
  <path d="M290.1,509.7l-16,1.9l-0.1-1c3-0.6,3.9-0.7,3.8-2.1c-0.1-1.1-2.1-4-2.9-5.3l-11.1,1.3c-1,3.1-1.6,4.9-1.6,5.6    c0.2,1.6,2.6,1.4,4.3,1.3l0.1,1l-10,1.2l-0.1-1c2.6-0.6,3.2-2.1,4.3-5.4l8.4-24l1.4-0.2l13.5,20.5c2.7,4.2,3.7,5.5,6,5.1    L290.1,509.7L290.1,509.7z M274,501.6l-6.2-9.5l-3.5,10.6L274,501.6L274,501.6z"/>
  <path d="M571.5,448.8c-2.9-7.6-9-12.8-16.6-15.2c-7.8-1.7-16.1-0.5-21.2,5.4c-8.8,7.1-2.7,18.9-2.4,28.5c0,2,0.3,3.4-1.7,4.4    c-35.3-3.2-68.3-12-103.4-15.7c-8.1-1.4-16.2-1-23.8-2.7l-9.8-1c-30.5,1-60.9,2.7-89.5,10.1c-6.1,2-12.9,2.4-19,4.7    c-4.4-0.7-8,2.4-12.2,1.2l-8,1.9c-0.7,0.1-1.6,0.1-2.7-0.2c-3.9-10.1,7.8-16.2,4.1-26c-3.2-5.6-9.5-11-16.8-10.1    c-8.3-1-15.6,3.7-19.5,10.1c-5.6,12.3,1.5,25.1,3.7,37.1c-0.5,3.9,3.9,8.3,0,11.5c-7.8-5.4-18.1-8.4-27.5-5.6    c-2.9,1.5-8.3-0.5-9.7,2.9c10.5,5.6,23.9,4.9,35.6,4.4c1.5-0.5,2.5-0.7,3.7,0.3c1,6.4-1.2,15,2.7,20.6c4.4,5.9,11.7,7.4,18.7,8.1    c22.4-0.7,42.4-7.4,62.9-12.5c3.2-0.2,5.6-2,9-2c11-2.5,22.9-4.4,34.6-4.7c-5.1,6.6-8,14-10.2,22.1c-2.9,6.6,5.1,7.6,7.6,11.3    c-7.6,2.2-12.9,7.4-20,10.3c-15.6-0.5-28.8,5.4-43.4,7.1c-0.2,3.2,5.1,2.2,5.6,5.4c-0.7,2.2-2.9,2.5-4.6,3.7c-0.3,1.5,0,1.7,1.5,2    c1.5-1.7,4.6-0.5,6.1-2.2c4.9,0,9-1.5,13.6-1.7c4.1-1.7,8.8-2,12.4-4.9c5.1-1.5,8.3-4.9,13.4-6.4c7.3,0,13.9-2.5,20.7-3v1.5    c-5.6,9.1-11.5,18.4-17.3,27c-1,1.7,0.2,3.4,1.7,3.9c3.4,1,6.8,0,9.5-1.5c5.1-8.8,9.7-17.2,13.9-26.3c1.7-8.3,7.8-12.8,13.9-18.4    c1-0.5,2.4-2,3.4-0.5c-4.9,5.6-8,11.1-11.7,17.2c-2,6.9-2.5,15.7,3.6,21.4c2.9,2.5,7.3,1.7,11.2,2c9.5-4.9,21.7,2.9,29-6.4    c4.4-0.7,5.1,4.4,7.6,6.9c4.1,1.2,8.5,5.4,12.7,2.4c-0.3-2.7-3.2-5.2-4.6-7.6c-2.9-5.2-6.6-9.3-9.3-14c-1.2-3.4-3.4-5.6-3.9-9.1    c4.4,1.5,8.3,4.4,13.2,5.2c4.1,1.7,9.2,1.5,13.1,3.9c3.2,4.2,8,6.6,12.2,9.3c6.1,2.9,12.9,3.4,19.2,5.9c2.4,0.2,6.1,2.2,7.8,0    c-1-1.2-2.2-2-3.7-2.7c-0.7-3.2,4.4-1.5,6.1-3.9c-0.6-1.2-1.7-1.7-2.8-1.9c-3.5-1.9-12.2-2.5-14.5-3.8c-2.9-0.5-5.6-1.7-8.5-2.7    c-14.6,0-22.7-13.3-34.4-18.2c2.7-2.5,6.8-4.4,8.5-8.1c2.2-3.4,2.9-9.1,0.7-13c-2.2-7.6-11.9-6.6-17.5-10.8l0.7-0.7    c9.5-0.5,17.8,1.7,26.3,3.4c23.4,3.2,45.1,12,69.5,12.5c13.4,0,30.2,0.7,36.8-12.3c1.2-7.6,2.7-15.2,3.9-22.8    C564.7,473.6,572.7,462.3,571.5,448.8L571.5,448.8z M308.2,560.8l-3.4-3.2c1.7-2.2,5.4-1,8-2.5c6.3-2,13.7-4.4,20.7-2.9    C326.3,558.1,316.7,558.8,308.2,560.8L308.2,560.8z M460.4,556.9c5.8,2.6,17.5,5.2,26,6.2c-0.8,3.3-6.7,0.2-6,4.9    c-7.5-2.9-16.3-4.4-21.9-10.3C458.9,557.4,459.4,556.6,460.4,556.9L460.4,556.9z M231.7,452.5c0.7-4.4,1.7-9.1,5.8-12.3    c5.9-3.2,13.9-2.4,19.3,0.8c1.7,1,2.9,2.4,3.9,4.6c1.2,4.2-0.8,8.6-3.7,11.1h-2.4c0-3.9,0-7.9,1.5-11.1c-0.2-2.9-2.7-3.2-4.6-4.4    c-4.1-1.2-7.8,0.7-11,2.5c-2.4,2.9-4.6,6.6-3.2,10.8c1.7,2.7,0.2,6.4,1.2,9.3l-0.7,1C234.8,461.6,230.9,458.2,231.7,452.5    L231.7,452.5z M243.1,459.5c3.7,2.7,8.8,1.5,13.2,2.2c0.7,2.7,0.7,6.1-1.2,8.4c-4.1-1-9.5-0.5-11.7-4.4    C243.9,464,242.6,461.5,243.1,459.5L243.1,459.5z M242.4,451.3c0.7-2,0-4.9,2.7-5.4c1.7-0.5,4.4-0.5,4.6,1.5    c-0.2,3-0.5,5.9-1.2,8.6C245.1,456.2,243.4,454.2,242.4,451.3L242.4,451.3z M356.7,530.1c-1.2-8.6,2.2-16,7.8-22.1    c3.4-0.7,7.3-1.5,10.5,0.5c-6.3,1.7-14.4,3.2-15.8,11.3c0.2,3.2-0.8,4.9,0.7,7.6c2.7,4.7,8.8,2.7,12.2,6.4c0,1.2-1,2.7-2.2,3    C365.7,534.3,360.6,533.3,356.7,530.1L356.7,530.1z M348,547.1c5.9-2.5,12-7.6,18.5-5.4C361.9,545.3,354.3,546.8,348,547.1    L348,547.1z M371.1,549.5c-3.4,7.8-7.3,15.5-11.9,23.1c-0.5,1.2-2.5,1.5-3.9,1.7c0-3.4,3.4-6.1,4.9-9.1c5.1-6.6,6.6-13.8,12.4-20.1    C374,546.6,371.1,547.6,371.1,549.5L371.1,549.5z M377.2,535.3v1h-0.5v-1V535h1c-0.2,0-0.7,0-1,0.2H377.2L377.2,535.3z M375,528.6    c-4.2-0.5-8.1-1.7-11.7-2.9c-2.4-2.5,0-5.2,0-7.9c3.4-5.4,13.2-8.1,17.8-3.2C380.4,520,378.4,524.7,375,528.6L375,528.6z    M380.4,528.6c0.7-3.2,2.2-7.4,3.9-10.3C384,521.5,382.6,525.9,380.4,528.6L380.4,528.6z M383.1,508.7c-3.2-0.7-4.9-4.4-8.3-4.4    c2.9-1,5.8-0.7,9.3-0.2C385.2,505.8,383.3,507.3,383.1,508.7L383.1,508.7z M386,516.1h-0.3v-2.7h0.3V516.1L386,516.1z M386.2,527.4    c-0.3-1,0.5-2.2,0.7-3.4c1.2-1.2,2.4,1,2.9,1.7C389.2,526.9,387.7,527.7,386.2,527.4L386.2,527.4z M389.9,512.2    c1.2-3.4,1.4-6.4,3.6-9.1c2.4,0,4.6,0,6.6,1c0.5,4.9,6.6,11.5,0,15.7c-2.2,1-5.4,3.2-7.8,1C389.2,518.1,388.7,515.6,389.9,512.2    L389.9,512.2z M407.7,505.3c-0.5-2.2,2.2-0.5,3.2-1.5l7.6,0.5C414.5,503.8,409.6,512.9,407.7,505.3L407.7,505.3z M419.9,508.5    c-2.9,1-5.1,4.4-8.1,5.2C413.3,511,417,508.3,419.9,508.5L419.9,508.5z M409.6,523.7v0.7h-0.2v-0.7H409.6L409.6,523.7z    M410.1,538.7c-0.2,0.5,0.3,1.2-0.5,1.7L404,536C406.7,535.5,408.7,536.7,410.1,538.7L410.1,538.7z M403.5,531.1    c0.5-0.5,1.7-0.5,2.2,0H403.5L403.5,531.1z M400.1,527.4c1-1.5,2.2-3.7,3.9-3.7c0,0.2,0.2,0.5,0.5,0.7    C403.1,525.7,401.8,526.9,400.1,527.4L400.1,527.4z M394.5,526.9h-1l1.5-1.5C395.7,525.9,394.8,526.4,394.5,526.9L394.5,526.9z    M395.3,536.2c3.2-3.4,6.1,2,7.3,4.7c3.7,5.4,13.2,10.3,9.5,17.7c-4.6,4.2-11.9,0.3-17.1,3.5c-2.7-0.3-7.3,0.5-8.8-2.2    C388.9,552,391.3,543.1,395.3,536.2L395.3,536.2z M388.4,540.9l1.2-2c-1.9,5.9-4.9,12-8,17.7C380.1,550.7,386.2,546.1,388.4,540.9    L388.4,540.9z M399.2,570.1c-4.6,0.3-11.7,3-16.1-1c0.2-2-1.9-2.9-1.7-4.9c3.9-1.5,7.3,3.2,11-0.3c5.6,0.3,11.5-0.7,17.1,0.5    c2.7,0.7,6.8-4.4,7.3,0.7C414.7,573.3,405,567.7,399.2,570.1L399.2,570.1z M413.3,534.8V534h0.5v0.7H413.3L413.3,534.8z    M414.7,550.2c0.3,2.5,2.7,3.4,1.2,5.7C415.5,554.9,414,552.7,414.7,550.2L414.7,550.2z M421.6,565l-1.2,0.5    c-1.2-1-0.7-3.7-0.5-5.2C421.3,561.5,422.5,563.3,421.6,565L421.6,565z M433.8,570.9c-0.2,0.7-1.5,0.7-1.9,0.2    c-7.3-9.3-10.7-19.1-15.4-29.5l1-0.2C423.3,551,427.9,561.5,433.8,570.9L433.8,570.9z M442.8,548.3c-0.5,0.2-0.5,0.7-0.5,1    c-7.1,0.3-11.7-3.9-17.1-7.6l-0.3-1.2C431.6,540.9,436.9,545.1,442.8,548.3L442.8,548.3z M436.5,515.6c2.9,0.7,3.1,3.9,3.4,6.4    c-0.3,5.4-3.2,10.1-8.3,12c-2.7,1.5-6.8,2-9.5,1c5.8-0.2,12.2-2.4,14.6-8.4L436.5,515.6L436.5,515.6z M431.1,514.6    c1.2,3.4,3.4,6.6,2.2,10.8c-2.4,4.7-7.3,4.7-11.7,5.6c-2.2,0.3-3.9-0.5-5.6-1.7c0.2-1-0.2-1.7-1-2.4c0.7-3.2-5.6-6.4-1.2-9.1    C417.7,514.1,426.9,505.8,431.1,514.6L431.1,514.6z M554.9,496.7c-2,2.4-0.2,6.4-2.7,8.6c0,4.4-3.7,6.6-6.8,8.3    c-29,6.4-57.5-3.4-85.6-8.3c-39.3-8.6-85.1-11-125.1-2c-18.8,3.4-37,7.9-55.1,13c-11.2,1.5-23.4,3.2-34.1-0.2    c-8.8-4.2-5.1-15.5-7.8-23.3c0.5-6.1-1.7-11-1.9-16.9c-0.7-2-1.2-4.4-1-6.4c3.6,0.5,7.3,3.2,11.2,4.2c20.5,3.9,38.8-2.7,57.8-6.1    c18.3-3.9,37-7.1,56.3-8.6c21.9-0.2,44.4-1.5,65.3,2.2c6.8,0.2,12.7,2,19.2,2.4c13.7,1.7,26.3,5.4,40.2,6.4    c2.2,0.7,4.9,0.7,7.3,1.2c21.9,3.4,46.6,9.6,67.5,0C559.8,480,556.1,488.1,554.9,496.7L554.9,496.7z M548.1,466.8    c0.2,3.9-3.4,2.9-5.4,4.4h-5.9c-1.2-2-0.7-4.9-0.7-6.9C540,465,544.4,465,548.1,466.8L548.1,466.8z M545.4,460.6    c2.7-2.7-0.7-18.2,6.8-8.1c0,2,0.3,4.9-1.7,6.4C549.3,459.9,547.4,461.9,545.4,460.6L545.4,460.6z M565.2,458.2    c-2.2,4.4-5.6,7.6-10.5,8.4c0.2-5.9,5.6-10.1,3.7-16.7c-3.2-4.7-9.5-6.1-15.4-4.9c-2.2,1.5-1.2,3.9-1.9,6.1l-1,8.1    c-4.9,0-5.1-4.4-6.6-7.9c0.2-5.1,2.5-10.3,7.6-12.8c3.9-2,10.2-1.7,14.1,0.5c3.2,0.7,6.8,2.2,8,5.2    C566.9,447.6,565.9,453.7,565.2,458.2L565.2,458.2z"/></g>
</svg>
