<?xml version="1.0" encoding="utf-8"?>
<!-- Generator: Adobe Illustrator 19.1.0, SVG Export Plug-In . SVG Version: 6.00 Build 0)  -->
<svg version="1.1" id="Layer_1" xmlns="http://www.w3.org/2000/svg" xmlns:xlink="http://www.w3.org/1999/xlink" x="0px" y="0px"
	 viewBox="60 -60 200 263" style="enable-background:new 60 -60 200 263;" xml:space="preserve">
<style type="text/css">
	.st0{fill:#36424A;}
	.st1{fill:#6CC39D;}
	.st2{fill:#FFFFFF;}
</style>
<g>
	<path class="st0" d="M116.2,136C87.9,136,65,113,65,84.8V-56h138.9C232.1-56,255-33,255-4.8V136H116.2z"/>
	<path class="st1" d="M203.8-53.5c26.9,0,48.7,21.9,48.7,48.7v138.2H116.2c-26.9,0-48.7-21.9-48.7-48.7V-53.5H203.8 M203.8-58.5
		H62.5V84.7c0,29.7,24.1,53.7,53.7,53.7h141.4V-4.8C257.5-34.4,233.5-58.5,203.8-58.5L203.8-58.5z"/>
</g>
<g>
	<g>
		<path class="st2" d="M134.2,28.1c0,7-2,12.3-5.9,15.7c-3.9,3.5-9.6,5.2-17,5.2c-2.3,0-4.7-0.2-7.1-0.7c-2.4-0.5-4.5-1.3-6.5-2.4
			s-3.6-2.6-4.9-4.5c-1.3-1.9-2.1-4.1-2.3-6.9h10.3c0.3,1.4,0.8,2.6,1.5,3.5s1.6,1.6,2.6,2.1s2.1,0.8,3.3,1c1.2,0.1,2.5,0.2,3.8,0.2
			c4.1,0,7.2-1,9.1-3.1c1.9-2,2.9-5,2.9-8.8v-7.1h-0.2c-1.4,2.6-3.4,4.6-5.9,6s-5.2,2.2-8.1,2.2c-3.7,0-6.9-0.6-9.5-1.9
			s-4.8-3.1-6.5-5.3c-1.7-2.3-3-4.9-3.7-7.8c-0.8-2.9-1.2-6.1-1.2-9.5c0-3.1,0.5-6.1,1.4-8.9c1-2.8,2.3-5.3,4.1-7.4
			c1.8-2.1,4-3.8,6.6-5.1s5.6-1.9,8.9-1.9c2.9,0,5.7,0.6,8.1,1.8c2.5,1.2,4.4,3.2,5.7,5.8h0.2v-6.4h10.3
			C134.2-16.1,134.2,28.1,134.2,28.1z M111.4,22.4c2.3,0,4.2-0.5,5.8-1.4c1.6-0.9,2.9-2.2,3.9-3.7s1.7-3.3,2.2-5.2
			c0.5-2,0.7-3.9,0.7-5.9s-0.2-3.9-0.7-5.8c-0.5-1.9-1.2-3.5-2.2-5c-1-1.4-2.3-2.6-3.9-3.4c-1.6-0.8-3.5-1.3-5.7-1.3
			c-2.3,0-4.2,0.5-5.8,1.4c-1.6,1-2.8,2.2-3.8,3.7s-1.7,3.3-2.1,5.2c-0.4,2-0.6,3.9-0.6,5.8s0.2,3.8,0.7,5.6
			c0.5,1.8,1.2,3.5,2.2,4.9s2.3,2.6,3.8,3.5C107.4,21.9,109.2,22.4,111.4,22.4z"/>
		<path class="st2" d="M162.6,31.8c-3.7,0-7.1-0.6-10-1.8c-2.9-1.2-5.4-2.9-7.4-5.1s-3.5-4.7-4.6-7.8c-1.1-3-1.6-6.3-1.6-9.9
			c0-3.5,0.5-6.8,1.6-9.8c1.1-3,2.6-5.6,4.6-7.8s4.5-3.9,7.4-5.1c2.9-1.2,6.2-1.8,10-1.8c3.8,0,7.1,0.6,10,1.8
			c2.9,1.2,5.4,2.9,7.4,5.1c2,2.2,3.5,4.8,4.6,7.8c1.1,3,1.6,6.3,1.6,9.8c0,3.6-0.5,6.9-1.6,9.9c-1.1,3-2.6,5.6-4.6,7.8
			c-2,2.2-4.5,3.9-7.4,5.1C169.7,31.1,166.3,31.8,162.6,31.8z M162.6,23.6c2.3,0,4.3-0.5,6-1.4c1.7-1,3.1-2.2,4.2-3.8
			c1.1-1.6,1.9-3.3,2.4-5.3s0.8-4,0.8-6s-0.3-4-0.8-6s-1.3-3.7-2.4-5.3c-1.1-1.5-2.5-2.8-4.2-3.7c-1.7-1-3.7-1.4-6-1.4
			c-2.3,0-4.3,0.5-6,1.4c-1.7,1-3.1,2.2-4.1,3.7c-1.1,1.5-1.9,3.3-2.4,5.3s-0.8,4-0.8,6s0.3,4,0.8,6s1.3,3.7,2.4,5.3
			c1.1,1.6,2.5,2.8,4.1,3.8C158.3,23.2,160.3,23.6,162.6,23.6z"/>
		<path class="st2" d="M186.8-16.1H198l11.8,35.8h0.2l11.4-35.8H232l-16.7,46.6h-11.5L186.8-16.1z"/>
	</g>
	<g>
		<path class="st2" d="M89.1,80.4c0-3.6,0.5-7,1.6-10.1c1.1-3.1,2.6-5.9,4.6-8.2c2-2.3,4.5-4.1,7.4-5.5c2.9-1.3,6.2-2,9.9-2
			c2.9,0,5.4,0.4,7.5,1.1c2.1,0.8,3.9,1.7,5.3,2.8c1.4,1.1,2.6,2.4,3.6,3.7c0.9,1.3,1.6,2.6,2.1,3.8c0.5,1.2,0.8,2.2,1,3
			c0.2,0.9,0.3,1.3,0.3,1.4h-3c-0.3-2.1-1-3.9-2-5.6c-1-1.6-2.3-3-3.8-4.2c-1.5-1.1-3.2-2-5.1-2.6c-1.9-0.6-3.8-0.9-5.9-0.9
			c-3.2,0-6.1,0.6-8.6,1.9c-2.5,1.2-4.7,2.9-6.4,5s-3.1,4.5-4,7.3s-1.4,5.8-1.4,9s0.5,6.2,1.4,9s2.3,5.3,4,7.3
			c1.7,2.1,3.9,3.8,6.4,5s5.4,1.9,8.6,1.9c2.4,0,4.6-0.5,6.7-1.5c2.1-1,3.9-2.3,5.5-3.9c1.6-1.6,2.8-3.5,3.8-5.7
			c0.9-2.1,1.5-4.4,1.6-6.7h3c-0.3,2.9-1,5.7-2.2,8.1c-1.2,2.5-2.7,4.6-4.5,6.4c-1.8,1.8-3.9,3.2-6.3,4.2c-2.4,1-4.9,1.5-7.7,1.5
			c-3.7,0-7-0.7-9.9-2s-5.4-3.2-7.4-5.5s-3.5-5.1-4.6-8.2C89.6,87.4,89.1,84,89.1,80.4z"/>
		<path class="st2" d="M139.5,55.8h4.3l19.2,45.9h0.1l19-45.9h4.3V105h-3V59.5h-0.1L164.6,105h-3l-19-45.5h-0.1V105h-3V55.8z"/>
		<path class="st2" d="M227.4,69.9c-0.1-2.1-0.5-4-1.3-5.5c-0.8-1.6-1.9-2.9-3.3-3.9c-1.4-1.1-3-1.8-4.9-2.4c-1.9-0.5-4-0.8-6.2-0.8
			c-1.4,0-2.9,0.2-4.4,0.5s-3.1,0.9-4.4,1.7c-1.4,0.8-2.5,1.9-3.3,3.2c-0.9,1.4-1.3,3-1.3,5.1c0,2,0.5,3.6,1.4,4.8
			c1,1.2,2.2,2.2,3.8,3s3.4,1.4,5.4,1.8c2,0.5,4.1,0.9,6.1,1.3c2.1,0.4,4.2,0.9,6.2,1.5s3.8,1.4,5.4,2.3c1.6,1,2.9,2.3,3.8,3.9
			c1,1.6,1.4,3.6,1.4,6c0,2.6-0.6,4.7-1.7,6.5c-1.1,1.7-2.5,3.2-4.2,4.3s-3.5,1.9-5.6,2.4c-2,0.5-4,0.7-5.9,0.7
			c-2.9,0-5.6-0.3-8.1-0.9c-2.5-0.6-4.7-1.6-6.6-3c-1.9-1.4-3.4-3.2-4.4-5.4s-1.6-4.9-1.6-8.1h3c-0.1,2.7,0.3,5,1.2,6.9
			s2.2,3.4,3.8,4.6c1.6,1.2,3.6,2.1,5.8,2.6s4.5,0.8,7,0.8c1.5,0,3-0.2,4.7-0.6c1.7-0.4,3.2-1,4.6-1.9c1.4-0.9,2.6-2,3.5-3.4
			s1.4-3.2,1.4-5.4c0-2.1-0.5-3.8-1.4-5.1c-1-1.3-2.2-2.4-3.8-3.2s-3.4-1.4-5.4-1.9s-4.1-0.9-6.2-1.3c-2.1-0.4-4.1-0.9-6.1-1.4
			c-2-0.6-3.8-1.3-5.4-2.2c-1.6-0.9-2.8-2.2-3.8-3.7s-1.4-3.4-1.4-5.8c0-2.3,0.5-4.4,1.5-6c1-1.7,2.3-3,3.9-4.1s3.4-1.8,5.3-2.3
			c2-0.5,3.9-0.7,5.9-0.7c2.6,0,5,0.3,7.2,0.9s4.2,1.5,5.9,2.7s3,2.8,4,4.7c1,1.9,1.6,4.3,1.7,7h-3.2V69.9z"/>
	</g>
</g>
<g>
	<path class="st0" d="M68.8,180.7c0.5,0.7,1.1,1.3,1.8,1.8c0.7,0.4,1.6,0.7,2.5,0.9c0.9,0.2,1.9,0.3,2.9,0.3c0.8,0,1.6-0.1,2.4-0.2
		c0.8-0.1,1.6-0.3,2.3-0.6c0.7-0.3,1.3-0.7,1.7-1.3s0.7-1.3,0.7-2.2c0-1.3-0.5-2.2-1.4-2.8c-0.9-0.6-2.1-1.2-3.6-1.6s-3-0.8-4.6-1.1
		c-1.7-0.3-3.2-0.8-4.6-1.4c-1.4-0.6-2.6-1.4-3.6-2.5c-0.9-1.1-1.4-2.5-1.4-4.4c0-1.5,0.3-2.7,1-3.8c0.7-1.1,1.5-1.9,2.6-2.6
		c1-0.7,2.2-1.2,3.5-1.5s2.6-0.5,3.9-0.5c1.7,0,3.2,0.1,4.6,0.4c1.4,0.3,2.6,0.8,3.7,1.5s1.9,1.6,2.6,2.8c0.6,1.2,1,2.7,1.1,4.5
		h-4.8c-0.1-0.9-0.3-1.7-0.7-2.4c-0.4-0.6-0.9-1.1-1.6-1.5c-0.6-0.4-1.4-0.7-2.1-0.8c-0.8-0.2-1.6-0.3-2.4-0.3
		c-0.7,0-1.5,0.1-2.2,0.2c-0.7,0.1-1.4,0.3-2,0.6c-0.6,0.3-1.1,0.7-1.5,1.1c-0.4,0.5-0.6,1.1-0.6,1.8c0,0.8,0.3,1.5,0.9,2.1
		c0.6,0.6,1.3,1,2.2,1.4c0.9,0.4,1.9,0.7,3.1,0.9c1.1,0.2,2.3,0.5,3.4,0.8c1.2,0.3,2.4,0.6,3.6,1c1.2,0.4,2.2,0.9,3.1,1.5
		c0.9,0.6,1.6,1.4,2.2,2.4c0.5,0.9,0.8,2.1,0.8,3.5c0,1.8-0.4,3.3-1.1,4.4s-1.7,2.1-2.9,2.8c-1.2,0.7-2.5,1.2-4,1.5
		c-1.5,0.3-3,0.4-4.5,0.4c-1.6,0-3.2-0.2-4.7-0.5c-1.5-0.3-2.8-0.9-3.9-1.7c-1.1-0.8-2-1.8-2.7-3.1c-0.7-1.3-1.1-2.8-1.1-4.6h4.8
		C68.1,179.1,68.3,180,68.8,180.7z"/>
	<path class="st0" d="M113.3,187.3v-4.7h-0.1c-1,1.8-2.3,3.2-3.9,4s-3.5,1.3-5.6,1.3c-1.9,0-3.5-0.3-4.8-0.8
		c-1.3-0.5-2.3-1.2-3.1-2.2c-0.8-0.9-1.4-2.1-1.7-3.4c-0.3-1.3-0.5-2.8-0.5-4.4v-19.3h4.8v19.9c0,1.8,0.5,3.3,1.6,4.3
		c1.1,1.1,2.5,1.6,4.4,1.6c1.5,0,2.8-0.2,3.8-0.7c1.1-0.5,2-1.1,2.7-1.9c0.7-0.8,1.3-1.8,1.6-2.9c0.4-1.1,0.5-2.3,0.5-3.7v-16.6h4.8
		v29.4H113.3z"/>
	<path class="st0" d="M130.2,157.9v4h0.1c0.8-1.6,2-2.8,3.8-3.6s3.6-1.1,5.6-1.1c2.3,0,4.3,0.4,5.9,1.3c1.7,0.8,3.1,2,4.2,3.4
		c1.1,1.4,2,3.1,2.5,4.9s0.9,3.8,0.9,5.9s-0.3,4.1-0.8,5.9c-0.6,1.9-1.4,3.5-2.5,4.9c-1.1,1.4-2.5,2.5-4.2,3.3
		c-1.7,0.8-3.7,1.2-5.9,1.2c-0.7,0-1.5-0.1-2.4-0.2c-0.9-0.2-1.8-0.4-2.6-0.7c-0.9-0.3-1.7-0.8-2.5-1.4c-0.8-0.6-1.4-1.3-2-2.2h-0.1
		v15.1h-4.8v-40.6H130.2z M147.6,168.3c-0.4-1.3-0.9-2.5-1.6-3.5s-1.7-1.8-2.8-2.4c-1.2-0.6-2.5-0.9-4.1-0.9c-1.6,0-3,0.3-4.2,1
		c-1.1,0.6-2.1,1.5-2.8,2.5c-0.7,1-1.2,2.2-1.6,3.6c-0.3,1.3-0.5,2.7-0.5,4c0,1.4,0.2,2.8,0.5,4.2c0.3,1.3,0.9,2.5,1.6,3.6
		c0.7,1,1.7,1.8,2.9,2.5c1.2,0.6,2.6,0.9,4.3,0.9c1.7,0,3.1-0.3,4.2-1c1.1-0.6,2-1.5,2.7-2.6c0.7-1.1,1.2-2.3,1.5-3.6
		c0.3-1.4,0.5-2.8,0.5-4.2C148.1,171,147.9,169.6,147.6,168.3z"/>
	<path class="st0" d="M163.9,157.9v4h0.1c0.8-1.6,2-2.8,3.8-3.6c1.7-0.7,3.6-1.1,5.6-1.1c2.3,0,4.3,0.4,5.9,1.3
		c1.7,0.8,3.1,2,4.2,3.4c1.1,1.4,2,3.1,2.5,4.9c0.6,1.9,0.9,3.8,0.9,5.9s-0.3,4.1-0.8,5.9c-0.6,1.9-1.4,3.5-2.5,4.9
		c-1.1,1.4-2.5,2.5-4.2,3.3c-1.7,0.8-3.7,1.2-5.9,1.2c-0.7,0-1.5-0.1-2.4-0.2c-0.9-0.2-1.8-0.4-2.6-0.7c-0.9-0.3-1.7-0.8-2.5-1.4
		c-0.8-0.6-1.4-1.3-2-2.2h-0.1v15.1h-4.8v-40.6H163.9z M181.3,168.3c-0.4-1.3-0.9-2.5-1.6-3.5c-0.7-1-1.7-1.8-2.8-2.4
		c-1.2-0.6-2.5-0.9-4.1-0.9c-1.6,0-3,0.3-4.2,1c-1.1,0.6-2.1,1.5-2.8,2.5s-1.2,2.2-1.6,3.6c-0.3,1.3-0.5,2.7-0.5,4
		c0,1.4,0.2,2.8,0.5,4.2c0.3,1.3,0.9,2.5,1.6,3.6c0.7,1,1.7,1.8,2.9,2.5c1.2,0.6,2.6,0.9,4.3,0.9s3.1-0.3,4.2-1
		c1.1-0.6,2-1.5,2.7-2.6c0.7-1.1,1.2-2.3,1.5-3.6c0.3-1.4,0.5-2.8,0.5-4.2C181.8,171,181.7,169.6,181.3,168.3z"/>
	<path class="st0" d="M192,166.6c0.6-1.9,1.5-3.5,2.7-4.9c1.2-1.4,2.7-2.5,4.5-3.3c1.8-0.8,3.8-1.2,6.1-1.2c2.4,0,4.4,0.4,6.2,1.2
		s3.3,1.9,4.5,3.3c1.2,1.4,2.1,3,2.7,4.9c0.6,1.9,0.9,3.9,0.9,6.1s-0.3,4.2-0.9,6c-0.6,1.9-1.5,3.5-2.7,4.9
		c-1.2,1.4-2.7,2.5-4.5,3.2c-1.8,0.8-3.8,1.2-6.2,1.2c-2.3,0-4.4-0.4-6.1-1.2c-1.8-0.8-3.3-1.9-4.5-3.2s-2.1-3-2.7-4.9
		c-0.6-1.9-0.9-3.9-0.9-6S191.4,168.4,192,166.6z M196.9,177.4c0.5,1.4,1.1,2.5,2,3.5c0.8,0.9,1.8,1.6,2.9,2.1
		c1.1,0.5,2.3,0.7,3.6,0.7s2.4-0.2,3.6-0.7c1.1-0.5,2.1-1.2,2.9-2.1c0.8-0.9,1.5-2.1,2-3.5c0.5-1.4,0.7-3,0.7-4.8s-0.2-3.4-0.7-4.8
		c-0.5-1.4-1.1-2.6-2-3.5c-0.8-0.9-1.8-1.7-2.9-2.2c-1.1-0.5-2.3-0.7-3.6-0.7s-2.4,0.2-3.6,0.7c-1.1,0.5-2.1,1.2-2.9,2.2
		c-0.8,0.9-1.5,2.1-2,3.5c-0.5,1.4-0.7,3-0.7,4.8S196.4,176,196.9,177.4z"/>
	<path class="st0" d="M229.7,157.9v6.2h0.1c1.2-2.4,2.6-4.2,4.3-5.3s3.9-1.7,6.5-1.6v5.1c-1.9,0-3.6,0.3-5,0.8
		c-1.4,0.5-2.5,1.3-3.3,2.3c-0.8,1-1.4,2.3-1.8,3.7c-0.4,1.5-0.6,3.1-0.6,5v13.1h-4.8v-29.4H229.7z"/>
	<path class="st0" d="M256.8,157.9v4.3H251v18.3c0,0.6,0,1,0.1,1.4c0.1,0.3,0.3,0.6,0.5,0.8c0.3,0.2,0.6,0.3,1.1,0.4
		c0.5,0.1,1.1,0.1,1.8,0.1h2.2v4.3h-3.7c-1.3,0-2.3-0.1-3.2-0.3c-0.9-0.2-1.6-0.5-2.2-0.9c-0.6-0.5-1-1.1-1.2-1.9
		c-0.3-0.8-0.4-1.9-0.4-3.3v-18.7h-5v-4.3h5v-8.8h4.8v8.8H256.8z"/>
</g>
</svg>
