<svg xmlns="http://www.w3.org/2000/svg" viewBox="0 0 200 200" enable-background="new 0 0 200 200"><style type="text/css">.st0{fill:#36424A;} .st1{fill:#6CC39D;} .st2{enable-background:new ;} .st3{fill:#FFFFFF;}</style><path class="st0" d="M56.2 196c-28.3 0-51.2-23-51.2-51.2v-140.8h138.9c28.2 0 51.1 23 51.1 51.2v140.8h-138.8z"/><path class="st1" d="M143.8 6.5c26.9 0 48.7 21.9 48.7 48.7v138.2h-136.3c-26.9 0-48.7-21.9-48.7-48.7v-138.2h136.3m0-5h-141.3v143.2c0 29.7 24.1 53.7 53.7 53.7h141.4v-143.2c-.1-29.6-24.1-53.7-53.8-53.7z"/><path class="st3" d="M71.7 93c-.8 2.8-2.1 5.1-3.8 7-1.7 1.9-4 3.4-6.9 4.4-2.8 1-6.3 1.5-10.4 1.5-2.5 0-5-.3-7.4-.8-2.4-.5-4.6-1.4-6.5-2.5-1.9-1.1-3.5-2.6-4.8-4.4-1.3-1.8-2-3.9-2.2-6.4h6.1c.3 1.7 1 3.2 1.9 4.4.9 1.2 2.1 2.1 3.4 2.8 1.3.7 2.8 1.2 4.4 1.6 1.6.3 3.3.5 5 .5 5.7 0 9.8-1.5 12.3-4.5s3.8-7.3 3.8-13v-6.3h-.2c-1.4 2.9-3.5 5.2-6.3 6.9-2.8 1.7-6 2.6-9.7 2.6-4 0-7.5-.6-10.3-1.8-2.9-1.2-5.2-2.9-7-5.1-1.8-2.2-3.2-4.7-4-7.6-.8-2.9-1.3-6-1.3-9.3 0-3.2.5-6.2 1.5-9.1 1-2.9 2.5-5.4 4.4-7.5 1.9-2.1 4.3-3.8 7.1-5.1 2.8-1.2 6-1.8 9.7-1.8 1.9 0 3.6.2 5.3.7 1.7.5 3.2 1.2 4.5 2 1.4.9 2.6 1.9 3.6 3 1.1 1.1 1.9 2.3 2.5 3.6h.2v-8h6.1v42.8c.2 3.5-.2 6.6-1 9.4zm-14.1-12.4c2-1.1 3.7-2.4 5.1-4.1 1.4-1.7 2.4-3.7 3.1-5.9.7-2.2 1-4.5 1-6.9 0-2.3-.3-4.6-.9-6.9-.6-2.3-1.5-4.4-2.8-6.2-1.3-1.9-3-3.4-5-4.5s-4.5-1.7-7.4-1.7-5.4.6-7.5 1.7c-2.1 1.1-3.8 2.6-5.2 4.4-1.4 1.8-2.3 3.9-3 6.2-.6 2.3-.9 4.7-.9 7.1 0 2.3.3 4.6 1 6.9.6 2.2 1.7 4.2 3 5.9 1.4 1.7 3.1 3.1 5.2 4.1 2.1 1.1 4.5 1.6 7.4 1.6 2.6-.1 4.9-.7 6.9-1.7zm55.1-39c2.9 1.3 5.4 3.1 7.4 5.3 2 2.2 3.5 4.8 4.6 7.8s1.6 6.1 1.6 9.5c0 3.4-.5 6.5-1.6 9.5s-2.6 5.6-4.6 7.8c-2 2.2-4.5 4-7.4 5.3-2.9 1.3-6.3 1.9-10.2 1.9-3.8 0-7.2-.6-10.2-1.9-2.9-1.3-5.4-3.1-7.4-5.3-2-2.2-3.5-4.8-4.6-7.8-1-3-1.6-6.1-1.6-9.5 0-3.4.5-6.5 1.6-9.5 1-3 2.6-5.6 4.6-7.8 2-2.2 4.5-4 7.4-5.3 2.9-1.3 6.3-2 10.2-2 3.8 0 7.2.7 10.2 2zm-17.9 4.5c-2.2 1.1-4 2.6-5.5 4.5s-2.6 4-3.3 6.4c-.7 2.4-1.1 4.8-1.1 7.3s.4 4.9 1.1 7.3c.7 2.4 1.8 4.5 3.3 6.4 1.5 1.9 3.3 3.4 5.5 4.5s4.8 1.7 7.7 1.7c2.9 0 5.5-.6 7.7-1.7s4-2.6 5.5-4.5 2.6-4 3.3-6.4c.7-2.4 1.1-4.8 1.1-7.3s-.4-4.9-1.1-7.3c-.7-2.4-1.8-4.5-3.3-6.4-1.5-1.9-3.3-3.4-5.5-4.5s-4.8-1.7-7.7-1.7c-2.9 0-5.5.6-7.7 1.7zm38.5-5.1l15.7 40.9h.2l15.6-40.9h6.3l-18.8 46.5h-6.5l-19.3-46.5h6.8zM64.5 122.6c-.9-1.5-2.1-2.7-3.4-3.8-1.4-1-2.9-1.8-4.5-2.3-1.6-.5-3.3-.8-5.1-.8-3.3 0-6.1.6-8.4 1.9-2.3 1.2-4.3 2.9-5.8 4.9-1.5 2-2.6 4.4-3.3 6.9-.7 2.6-1.1 5.2-1.1 7.9s.4 5.3 1.1 7.9c.7 2.6 1.8 4.9 3.3 7 1.5 2 3.4 3.7 5.8 4.9 2.3 1.2 5.1 1.9 8.4 1.9 2.3 0 4.4-.4 6.2-1.2 1.8-.8 3.4-2 4.8-3.4 1.3-1.4 2.4-3.1 3.2-5 .8-1.9 1.4-4 1.6-6.2h4.7c-.3 3-1 5.8-2.1 8.2-1.1 2.4-2.5 4.5-4.3 6.2-1.7 1.7-3.8 3-6.2 3.9-2.4.9-5 1.4-7.9 1.4-3.9 0-7.3-.7-10.2-2.1-2.9-1.4-5.3-3.3-7.3-5.6-1.9-2.3-3.4-5.1-4.3-8.1-1-3.1-1.4-6.3-1.4-9.7 0-3.4.5-6.6 1.4-9.7 1-3.1 2.4-5.8 4.3-8.2s4.4-4.3 7.3-5.7c2.9-1.4 6.3-2.1 10.2-2.1 2.3 0 4.6.3 6.9 1 2.2.7 4.3 1.7 6.1 3.1 1.8 1.4 3.3 3 4.6 5 1.2 2 2 4.3 2.3 6.8h-4.7c-.6-1.8-1.3-3.5-2.2-5zm21.3-9.8l16.3 43.2 17-43.2h6.9v49.2h-4.7v-42.5h-.1l-16.8 42.5h-4.4l-16.2-42.5h-.1v42.5h-4.7v-49.2h6.8zm53.3 39.4c.8 1.7 2 3.1 3.4 4.1 1.4 1 3.2 1.7 5.1 2.2 2 .4 4.1.7 6.3.7 1.3 0 2.7-.2 4.2-.6 1.5-.4 2.9-1 4.2-1.8 1.3-.8 2.4-1.8 3.3-3.1.9-1.3 1.3-2.8 1.3-4.6 0-1.4-.3-2.6-.9-3.6-.6-1-1.4-1.9-2.4-2.6s-2.1-1.3-3.3-1.7c-1.2-.4-2.4-.8-3.5-1.1l-11-2.7c-1.4-.4-2.8-.8-4.2-1.4-1.4-.6-2.5-1.3-3.6-2.2-1-.9-1.8-2-2.4-3.4-.6-1.3-.9-3-.9-4.9 0-1.2.2-2.6.7-4.2.5-1.6 1.3-3.1 2.6-4.6 1.3-1.4 3-2.6 5.2-3.6s5-1.5 8.5-1.5c2.4 0 4.8.3 7 1 2.2.6 4.1 1.6 5.8 2.9 1.7 1.3 3 2.9 4 4.8s1.5 4.1 1.5 6.7h-4.7c-.1-1.9-.5-3.5-1.3-4.9s-1.7-2.6-3-3.5c-1.2-.9-2.6-1.7-4.2-2.1s-3.3-.7-5-.7c-1.6 0-3.2.2-4.7.5s-2.8.9-3.9 1.7c-1.1.8-2 1.8-2.7 3s-1 2.8-1 4.6c0 1.1.2 2.1.6 3 .4.9.9 1.6 1.6 2.2.7.6 1.5 1.1 2.4 1.4.9.4 1.8.7 2.9.9l12 3c1.7.5 3.4 1 4.9 1.7 1.5.7 2.9 1.5 4.1 2.5 1.2 1 2.1 2.2 2.8 3.6.7 1.4 1 3.1 1 5.2 0 .6-.1 1.3-.2 2.2-.1.9-.4 1.9-.8 2.9s-1.1 2.1-1.9 3.1c-.8 1.1-1.9 2-3.3 2.9-1.4.9-3.1 1.5-5.2 2.1-2.1.5-4.6.8-7.4.8-2.9 0-5.6-.3-8.1-1s-4.6-1.7-6.3-3.1c-1.7-1.4-3.1-3.1-4-5.3-.9-2.2-1.3-4.8-1.2-7.8h4.7c-.3 2.4.1 4.6 1 6.3z"/></svg>