<?xml version="1.0" encoding="utf-8"?>
<!-- Generator: Adobe Illustrator 19.1.0, SVG Export Plug-In . SVG Version: 6.00 Build 0)  -->
<svg version="1.1" id="Layer_1" xmlns="http://www.w3.org/2000/svg" xmlns:xlink="http://www.w3.org/1999/xlink" x="0px" y="0px"
	 viewBox="0 0 200 200" enable-background="new 0 0 200 200" xml:space="preserve">
<g>
	<path fill="#36424A" d="M56.2,196C27.9,196,5,173,5,144.8V4h138.9C172.1,4,195,27,195,55.2V196H56.2z"/>
	<path fill="#6CC39D" d="M143.8,6.5c26.9,0,48.7,21.9,48.7,48.7v138.2H56.2c-26.9,0-48.7-21.9-48.7-48.7V6.5H143.8 M143.8,1.5H2.5
		v143.2c0,29.7,24.1,53.7,53.7,53.7h141.4V55.2C197.5,25.6,173.5,1.5,143.8,1.5L143.8,1.5z"/>
</g>
<g>
	<g>
		<path fill="#FFFFFF" d="M74.2,88.1c0,7-2,12.3-5.9,15.7c-3.9,3.5-9.6,5.2-17,5.2c-2.3,0-4.7-0.2-7.1-0.7c-2.4-0.5-4.5-1.3-6.5-2.4
			c-2-1.1-3.6-2.6-4.9-4.5c-1.3-1.9-2.1-4.1-2.3-6.9h10.3c0.3,1.4,0.8,2.6,1.5,3.5c0.7,0.9,1.6,1.6,2.6,2.1c1,0.5,2.1,0.8,3.3,1
			c1.2,0.1,2.5,0.2,3.8,0.2c4.1,0,7.2-1,9.1-3.1c1.9-2,2.9-5,2.9-8.8v-7.1h-0.2c-1.4,2.6-3.4,4.6-5.9,6c-2.5,1.4-5.2,2.2-8.1,2.2
			c-3.7,0-6.9-0.6-9.5-1.9c-2.6-1.3-4.8-3.1-6.5-5.3c-1.7-2.3-3-4.9-3.7-7.8c-0.8-2.9-1.2-6.1-1.2-9.5c0-3.1,0.5-6.1,1.4-8.9
			c1-2.8,2.3-5.3,4.1-7.4c1.8-2.1,4-3.8,6.6-5.1c2.6-1.3,5.6-1.9,8.9-1.9c2.9,0,5.7,0.6,8.1,1.8c2.5,1.2,4.4,3.2,5.7,5.8h0.2v-6.4
			h10.3V88.1z M51.4,82.4c2.3,0,4.2-0.5,5.8-1.4c1.6-0.9,2.9-2.2,3.9-3.7c1-1.5,1.7-3.3,2.2-5.2c0.5-2,0.7-3.9,0.7-5.9
			s-0.2-3.9-0.7-5.8c-0.5-1.9-1.2-3.5-2.2-5c-1-1.4-2.3-2.6-3.9-3.4c-1.6-0.8-3.5-1.3-5.7-1.3c-2.3,0-4.2,0.5-5.8,1.4
			c-1.6,1-2.8,2.2-3.8,3.7c-1,1.5-1.7,3.3-2.1,5.2c-0.4,2-0.6,3.9-0.6,5.8c0,1.9,0.2,3.8,0.7,5.6c0.5,1.8,1.2,3.5,2.2,4.9
			s2.3,2.6,3.8,3.5C47.4,81.9,49.2,82.4,51.4,82.4z"/>
		<path fill="#FFFFFF" d="M102.6,91.8c-3.7,0-7.1-0.6-10-1.8c-2.9-1.2-5.4-2.9-7.4-5.1c-2-2.2-3.5-4.7-4.6-7.8
			c-1.1-3-1.6-6.3-1.6-9.9c0-3.5,0.5-6.8,1.6-9.8c1.1-3,2.6-5.6,4.6-7.8c2-2.2,4.5-3.9,7.4-5.1c2.9-1.2,6.2-1.8,10-1.8
			s7.1,0.6,10,1.8c2.9,1.2,5.4,2.9,7.4,5.1c2,2.2,3.5,4.8,4.6,7.8c1.1,3,1.6,6.3,1.6,9.8c0,3.6-0.5,6.9-1.6,9.9
			c-1.1,3-2.6,5.6-4.6,7.8c-2,2.2-4.5,3.9-7.4,5.1C109.7,91.1,106.3,91.8,102.6,91.8z M102.6,83.6c2.3,0,4.3-0.5,6-1.4
			c1.7-1,3.1-2.2,4.2-3.8c1.1-1.6,1.9-3.3,2.4-5.3c0.5-2,0.8-4,0.8-6c0-2-0.3-4-0.8-6c-0.5-2-1.3-3.7-2.4-5.3
			c-1.1-1.5-2.5-2.8-4.2-3.7c-1.7-1-3.7-1.4-6-1.4s-4.3,0.5-6,1.4c-1.7,1-3.1,2.2-4.1,3.7c-1.1,1.5-1.9,3.3-2.4,5.3
			c-0.5,2-0.8,4-0.8,6c0,2,0.3,4,0.8,6c0.5,2,1.3,3.7,2.4,5.3c1.1,1.6,2.5,2.8,4.1,3.8C98.3,83.2,100.3,83.6,102.6,83.6z"/>
		<path fill="#FFFFFF" d="M126.8,43.9H138l11.8,35.8h0.2l11.4-35.8H172l-16.7,46.6h-11.5L126.8,43.9z"/>
	</g>
	<g>
		<path fill="#FFFFFF" d="M29.1,140.4c0-3.6,0.5-7,1.6-10.1c1.1-3.1,2.6-5.9,4.6-8.2c2-2.3,4.5-4.1,7.4-5.5c2.9-1.3,6.2-2,9.9-2
			c2.9,0,5.4,0.4,7.5,1.1c2.1,0.8,3.9,1.7,5.3,2.8c1.4,1.1,2.6,2.4,3.6,3.7c0.9,1.3,1.6,2.6,2.1,3.8c0.5,1.2,0.8,2.2,1,3
			c0.2,0.9,0.3,1.3,0.3,1.4h-3c-0.3-2.1-1-3.9-2-5.6c-1-1.6-2.3-3-3.8-4.2c-1.5-1.1-3.2-2-5.1-2.6c-1.9-0.6-3.8-0.9-5.9-0.9
			c-3.2,0-6.1,0.6-8.6,1.9c-2.5,1.2-4.7,2.9-6.4,5c-1.7,2.1-3.1,4.5-4,7.3c-0.9,2.8-1.4,5.8-1.4,9s0.5,6.2,1.4,9
			c0.9,2.8,2.3,5.3,4,7.3c1.7,2.1,3.9,3.8,6.4,5c2.5,1.2,5.4,1.9,8.6,1.9c2.4,0,4.6-0.5,6.7-1.5c2.1-1,3.9-2.3,5.5-3.9
			c1.6-1.6,2.8-3.5,3.8-5.7c0.9-2.1,1.5-4.4,1.6-6.7h3c-0.3,2.9-1,5.7-2.2,8.1c-1.2,2.5-2.7,4.6-4.5,6.4c-1.8,1.8-3.9,3.2-6.3,4.2
			c-2.4,1-4.9,1.5-7.7,1.5c-3.7,0-7-0.7-9.9-2c-2.9-1.3-5.4-3.2-7.4-5.5s-3.5-5.1-4.6-8.2C29.6,147.4,29.1,144,29.1,140.4z"/>
		<path fill="#FFFFFF" d="M79.5,115.8h4.3l19.2,45.9h0.1l19-45.9h4.3V165h-3v-45.5h-0.1L104.6,165h-3l-19-45.5h-0.1V165h-3V115.8z"
			/>
		<path fill="#FFFFFF" d="M167.4,129.9c-0.1-2.1-0.5-4-1.3-5.5c-0.8-1.6-1.9-2.9-3.3-3.9c-1.4-1.1-3-1.8-4.9-2.4
			c-1.9-0.5-4-0.8-6.2-0.8c-1.4,0-2.9,0.2-4.4,0.5s-3.1,0.9-4.4,1.7c-1.4,0.8-2.5,1.9-3.3,3.2c-0.9,1.4-1.3,3-1.3,5.1
			c0,2,0.5,3.6,1.4,4.8c1,1.2,2.2,2.2,3.8,3c1.6,0.8,3.4,1.4,5.4,1.8c2,0.5,4.1,0.9,6.1,1.3c2.1,0.4,4.2,0.9,6.2,1.5
			c2,0.6,3.8,1.4,5.4,2.3c1.6,1,2.9,2.3,3.8,3.9c1,1.6,1.4,3.6,1.4,6c0,2.6-0.6,4.7-1.7,6.5c-1.1,1.7-2.5,3.2-4.2,4.3
			c-1.7,1.1-3.5,1.9-5.6,2.4c-2,0.5-4,0.7-5.9,0.7c-2.9,0-5.6-0.3-8.1-0.9c-2.5-0.6-4.7-1.6-6.6-3c-1.9-1.4-3.4-3.2-4.4-5.4
			s-1.6-4.9-1.6-8.1h3c-0.1,2.7,0.3,5,1.2,6.9c0.9,1.9,2.2,3.4,3.8,4.6c1.6,1.2,3.6,2.1,5.8,2.6c2.2,0.5,4.5,0.8,7,0.8
			c1.5,0,3-0.2,4.7-0.6c1.7-0.4,3.2-1,4.6-1.9c1.4-0.9,2.6-2,3.5-3.4c0.9-1.4,1.4-3.2,1.4-5.4c0-2.1-0.5-3.8-1.4-5.1
			c-1-1.3-2.2-2.4-3.8-3.2c-1.6-0.8-3.4-1.4-5.4-1.9c-2-0.5-4.1-0.9-6.2-1.3c-2.1-0.4-4.1-0.9-6.1-1.4c-2-0.6-3.8-1.3-5.4-2.2
			c-1.6-0.9-2.8-2.2-3.8-3.7c-1-1.5-1.4-3.4-1.4-5.8c0-2.3,0.5-4.4,1.5-6c1-1.7,2.3-3,3.9-4.1s3.4-1.8,5.3-2.3
			c2-0.5,3.9-0.7,5.9-0.7c2.6,0,5,0.3,7.2,0.9c2.2,0.6,4.2,1.5,5.9,2.7s3,2.8,4,4.7c1,1.9,1.6,4.3,1.7,7H167.4z"/>
	</g>
</g>
</svg>
