<svg xmlns="http://www.w3.org/2000/svg" width="120" height="42" version="1"><g><path d="M3.14.508l113.354.201c1.584 0 2.999-.235 2.999 3.161l-.139 37.329h-119.074v-37.468c0-1.674.162-3.223 2.86-3.223z" fill="#aab2ab"/><path d="M117.752 0h-115.505c-1.239 0-2.247 1.008-2.247 2.246v39.247c0 .28.228.507.508.507h118.985c.28 0 .508-.227.508-.507v-39.247c0-1.239-1.008-2.246-2.248-2.246zm-115.505 1.015h115.505c.68 0 1.233.552 1.233 1.231v27.276h-82.825c-3.026 5.471-8.856 9.186-15.546 9.186-6.693 0-12.522-3.711-15.546-9.186h-4.052v-27.276c0-.679.553-1.231 1.232-1.231z"/><g enable-background="new" fill="#fff"><path d="M73.809 32.747c.315 0 .604.028.865.083.26.055.482.147.669.274.185.126.33.295.432.505.102.211.153.47.153.779 0 .334-.076.611-.228.834-.151.223-.377.405-.674.547.41.117.715.323.917.617.202.294.303.648.303 1.063 0 .334-.065.623-.195.868-.13.244-.306.443-.525.598-.22.155-.472.27-.753.344-.282.075-.572.112-.87.112h-3.216v-6.622h3.122zm-.186 2.678c.26 0 .474-.062.641-.185.167-.123.25-.323.25-.601 0-.154-.028-.281-.083-.379-.056-.099-.13-.176-.223-.232-.093-.055-.2-.094-.32-.115-.12-.021-.247-.032-.376-.032h-1.365v1.545h1.476zm.085 2.81c.143 0 .279-.014.409-.042.13-.028.245-.075.345-.139.099-.065.178-.153.237-.265.059-.111.088-.253.088-.426 0-.34-.096-.582-.288-.728-.192-.145-.446-.217-.762-.217h-1.59v1.817h1.562z"/><path d="M76.503 32.747h1.633l1.551 2.615 1.541-2.615h1.624l-2.458 4.08v2.541h-1.46v-2.578l-2.431-4.044z"/></g><g><path d="M34.164 19.662c.005 7.526-6.093 13.631-13.619 13.635-7.526.005-13.631-6.093-13.635-13.619v-.017c-.004-7.526 6.093-13.631 13.619-13.635 7.527-.005 13.631 6.093 13.635 13.619v.016z" fill="#fff"/><path d="M31.614 8.563c3.022 3.022 4.533 6.723 4.533 11.099 0 4.378-1.485 8.039-4.455 10.983-3.152 3.101-6.877 4.651-11.175 4.651-4.246 0-7.907-1.537-10.981-4.612-3.074-3.074-4.611-6.748-4.611-11.022 0-4.273 1.537-7.973 4.611-11.099 2.996-3.023 6.656-4.534 10.981-4.534 4.377 0 8.075 1.511 11.097 4.534zm-20.043 2.033c-2.555 2.581-3.832 5.603-3.832 9.071 0 3.467 1.264 6.464 3.792 8.991 2.529 2.529 5.539 3.792 9.032 3.792 3.493 0 6.529-1.276 9.109-3.831 2.45-2.373 3.676-5.356 3.676-8.953 0-3.57-1.245-6.601-3.735-9.09-2.489-2.489-5.505-3.734-9.05-3.734-3.545 0-6.543 1.251-8.992 3.753zm6.723 7.546c-.39-.851-.975-1.277-1.754-1.277-1.378 0-2.066.928-2.066 2.782 0 1.855.689 2.782 2.066 2.782.91 0 1.56-.451 1.95-1.356l1.91 1.017c-.91 1.617-2.276 2.426-4.097 2.426-1.404 0-2.53-.431-3.374-1.291-.846-.861-1.268-2.048-1.268-3.562 0-1.487.435-2.667 1.307-3.542.871-.874 1.957-1.311 3.258-1.311 1.925 0 3.303.759 4.136 2.274l-2.067 1.058zm8.985 0c-.391-.851-.964-1.277-1.719-1.277-1.405 0-2.109.928-2.109 2.782 0 1.855.703 2.782 2.109 2.782.911 0 1.549-.451 1.914-1.356l1.952 1.017c-.909 1.617-2.273 2.426-4.09 2.426-1.403 0-2.525-.431-3.37-1.291-.843-.861-1.265-2.048-1.265-3.562 0-1.487.429-2.667 1.286-3.542.856-.874 1.947-1.311 3.272-1.311 1.921 0 3.298.759 4.128 2.274l-2.108 1.058z"/></g><g transform="matrix(.994 0 0 .994 -177.693 0)"><circle cx="255.551" cy="15.313" r="10.807" fill="#fff"/><g><path d="M258.678 12.187c0-.417-.338-.754-.753-.754h-4.773c-.415 0-.753.337-.753.754v4.773h1.331v5.652h3.617v-5.652h1.331v-4.773z"/><circle cx="255.539" cy="9.172" r="1.633"/></g><path clip-rule="evenodd" d="M255.524 3.407c-3.232 0-5.969 1.128-8.208 3.384-2.298 2.334-3.446 5.096-3.446 8.285s1.148 5.932 3.446 8.227c2.298 2.294 5.034 3.442 8.208 3.442 3.213 0 5.998-1.156 8.354-3.471 2.22-2.197 3.33-4.93 3.33-8.197 0-3.268-1.13-6.029-3.388-8.285-2.26-2.256-5.024-3.384-8.296-3.384zm.029 2.1c2.648 0 4.897.934 6.747 2.801 1.869 1.847 2.804 4.103 2.804 6.768 0 2.684-.915 4.911-2.745 6.68-1.929 1.906-4.196 2.859-6.806 2.859-2.61 0-4.859-.943-6.747-2.83-1.89-1.887-2.833-4.123-2.833-6.709 0-2.587.954-4.842 2.862-6.768 1.83-1.867 4.069-2.801 6.718-2.801z" fill-rule="evenodd"/></g></g></svg>