<svg id="Layer_1" xmlns="http://www.w3.org/2000/svg" viewBox="0 0 500 500"><style>.st0{fill:#6cc39d}.st1{fill-rule:evenodd;clip-rule:evenodd;fill:#181616}</style><path class="st0" d="M106 65.7l143.2-.4v369.3l-58-75.3-85.1.2c-22.3 0-38.3-15.1-38.3-36.4v-221c-.1-21.2 15.8-36.4 38.2-36.4z"/><path class="st1" d="M249.2 65.3v91.6c11.5.9 22.9 2.8 33.8 5.8 36.1-24.5 52-19.4 52-19.4 10.3 26.1 3.8 45.3 1.9 50.1 12.1 13.3 19.5 30.1 19.5 50.8 0 72.7-44.3 88.7-86.4 93.4 6.8 5.9 12.8 17.4 12.8 35.1 0 25.3-.2 45.7-.2 52 0 5 3.4 10.9 13 9.1 75.2-25.1 129.4-96 129.4-179.6-.1-100.1-77.6-181.9-175.8-188.9z"/></svg>