<svg id="Layer_1" xmlns="http://www.w3.org/2000/svg" viewBox="0 0 500 500"><style>.st0{fill:#181616}.st1{fill:#34a6de}</style><path class="st0" d="M216.2 162.5c13.5-3.8 27.9-5.8 42.2-6.3v-72c-2 .1-4.1-1.2-4.2-3.7-.2-4.6-1.8-8.5-3.8-12.5-.6-.6-.9-1.4-1.1-2.3C151.9 72.8 75 154.1 75 253.4c0 83.2 53.9 153.7 128.8 178.7 9.4 1.8 12.9-4.1 12.9-9.1 0-4.5-.2-19.4-.3-35.1-52.4 11.4-63.4-22.2-63.4-22.2-8.6-21.8-20.9-27.5-20.9-27.5-17.1-11.7 1.3-11.4 1.3-11.4 18.9 1.3 28.9 19.4 28.9 19.4 16.8 28.8 44.1 20.4 54.8 15.7 1.7-12.2 6.6-20.4 11.9-25.2-41.8-4.8-85.8-20.9-85.8-93.1 0-20.5 7.3-37.4 19.4-50.6-1.9-4.8-8.4-23.9 1.8-49.8.1 0 15.8-5.1 51.8 19.3z"/><path class="st0" d="M145.6 333.9c-.4.9-1.9 1.3-3.3.6-1.3-.6-2.2-1.9-1.7-2.8.4-1 1.9-1.3 3.3-.6 1.4.6 2.2 1.9 1.7 2.8zM153.2 342.4c-.9.8-2.7.4-3.8-.8-1.3-1.3-1.5-3.1-.6-3.9.9-.8 2.6-.4 3.8.8 1.3 1.4 1.6 3.1.6 3.9zM160.6 353.3c-1.2.8-3 .1-4.2-1.6-1.2-1.7-1.2-3.7 0-4.5 1.2-.8 3-.1 4.2 1.6 1.2 1.7 1.2 3.7 0 4.5zM170.8 363.7c-1 1.2-3.3.8-4.8-.8-1.7-1.5-2.1-3.7-1.1-4.8 1.1-1.2 3.3-.8 4.8.8 1.7 1.6 2.2 3.7 1.1 4.8zM184.8 369.8c-.4 1.5-2.6 2.2-4.7 1.5-2.2-.7-3.5-2.3-3.1-3.8.4-1.5 2.6-2.2 4.8-1.5 2.1.6 3.5 2.3 3 3.8zM200.3 371c.1 1.6-1.8 2.8-4 2.8-2.3.1-4.1-1.2-4.1-2.8 0-1.6 1.8-2.8 4-2.9 2.2 0 4.1 1.3 4.1 2.9zM214.6 368.6c.3 1.5-1.3 3.1-3.5 3.5-2.2.4-4.2-.5-4.5-2-.3-1.6 1.3-3.1 3.5-3.5 2.2-.5 4.2.4 4.5 2z"/><g id="zVySZD.tif"><path class="st1" d="M406.4 265.1c-3.3-16.2-8.8-31.4-17.6-46.1-15.4-25.5-37.5-46.1-62.8-64.2-14.9-10.3-28.6-22.5-40.2-35.7-14.4-16.7-26.3-34.7-36.6-53.8v369.3c7.1-.2 14.2-.7 21.1-1.6 17-2.4 33.1-6.8 47.9-13.7 33.1-15.2 57.3-38.2 73.2-67.6 9.9-17.6 15.4-35.7 16.5-55.3.7-10.2.2-21-1.5-31.3z"/></g></svg>