<svg id="Layer_1" xmlns="http://www.w3.org/2000/svg" viewBox="60 -60 200 263"><style>.st0{fill:#36424a}.st1{fill:#6cc39d}.st2{fill:#FFF}</style><path class="st0" d="M116.2 136C87.9 136 65 113 65 84.8V-56h138.9C232.1-56 255-33 255-4.8V136H116.2z"/><path class="st1" d="M203.8-53.5c26.9 0 48.7 21.9 48.7 48.7v138.2H116.2c-26.9 0-48.7-21.9-48.7-48.7V-53.5h136.3m0-5H62.5V84.7c0 29.7 24.1 53.7 53.7 53.7h141.4V-4.8c-.1-29.6-24.1-53.7-53.8-53.7z"/><path class="st2" d="M134.2 28.1c0 7-2 12.3-5.9 15.7-3.9 3.5-9.6 5.2-17 5.2-2.3 0-4.7-.2-7.1-.7-2.4-.5-4.5-1.3-6.5-2.4s-3.6-2.6-4.9-4.5c-1.3-1.9-2.1-4.1-2.3-6.9h10.3c.3 1.4.8 2.6 1.5 3.5s1.6 1.6 2.6 2.1 2.1.8 3.3 1c1.2.1 2.5.2 3.8.2 4.1 0 7.2-1 9.1-3.1 1.9-2 2.9-5 2.9-8.8v-7.1h-.2c-1.4 2.6-3.4 4.6-5.9 6s-5.2 2.2-8.1 2.2c-3.7 0-6.9-.6-9.5-1.9s-4.8-3.1-6.5-5.3c-1.7-2.3-3-4.9-3.7-7.8-.8-2.9-1.2-6.1-1.2-9.5 0-3.1.5-6.1 1.4-8.9 1-2.8 2.3-5.3 4.1-7.4 1.8-2.1 4-3.8 6.6-5.1s5.6-1.9 8.9-1.9c2.9 0 5.7.6 8.1 1.8 2.5 1.2 4.4 3.2 5.7 5.8h.2v-6.4h10.3v44.2zm-22.8-5.7c2.3 0 4.2-.5 5.8-1.4 1.6-.9 2.9-2.2 3.9-3.7s1.7-3.3 2.2-5.2c.5-2 .7-3.9.7-5.9s-.2-3.9-.7-5.8c-.5-1.9-1.2-3.5-2.2-5-1-1.4-2.3-2.6-3.9-3.4-1.6-.8-3.5-1.3-5.7-1.3-2.3 0-4.2.5-5.8 1.4-1.6 1-2.8 2.2-3.8 3.7S100.2-.9 99.8 1c-.4 2-.6 3.9-.6 5.8s.2 3.8.7 5.6c.5 1.8 1.2 3.5 2.2 4.9s2.3 2.6 3.8 3.5c1.5 1.1 3.3 1.6 5.5 1.6zM162.6 31.8c-3.7 0-7.1-.6-10-1.8-2.9-1.2-5.4-2.9-7.4-5.1s-3.5-4.7-4.6-7.8c-1.1-3-1.6-6.3-1.6-9.9 0-3.5.5-6.8 1.6-9.8 1.1-3 2.6-5.6 4.6-7.8s4.5-3.9 7.4-5.1c2.9-1.2 6.2-1.8 10-1.8s7.1.6 10 1.8c2.9 1.2 5.4 2.9 7.4 5.1 2 2.2 3.5 4.8 4.6 7.8 1.1 3 1.6 6.3 1.6 9.8 0 3.6-.5 6.9-1.6 9.9s-2.6 5.6-4.6 7.8c-2 2.2-4.5 3.9-7.4 5.1-2.9 1.1-6.3 1.8-10 1.8zm0-8.2c2.3 0 4.3-.5 6-1.4 1.7-1 3.1-2.2 4.2-3.8 1.1-1.6 1.9-3.3 2.4-5.3s.8-4 .8-6-.3-4-.8-6-1.3-3.7-2.4-5.3c-1.1-1.5-2.5-2.8-4.2-3.7-1.7-1-3.7-1.4-6-1.4s-4.3.5-6 1.4c-1.7 1-3.1 2.2-4.1 3.7-1.1 1.5-1.9 3.3-2.4 5.3s-.8 4-.8 6 .3 4 .8 6 1.3 3.7 2.4 5.3c1.1 1.6 2.5 2.8 4.1 3.8 1.7 1 3.7 1.4 6 1.4zM186.8-16.1H198l11.8 35.8h.2l11.4-35.8H232l-16.7 46.6h-11.5l-17-46.6z"/><g><path class="st2" d="M89.1 80.4c0-3.6.5-7 1.6-10.1 1.1-3.1 2.6-5.9 4.6-8.2 2-2.3 4.5-4.1 7.4-5.5 2.9-1.3 6.2-2 9.9-2 2.9 0 5.4.4 7.5 1.1 2.1.8 3.9 1.7 5.3 2.8 1.4 1.1 2.6 2.4 3.6 3.7.9 1.3 1.6 2.6 2.1 3.8.5 1.2.8 2.2 1 3 .2.9.3 1.3.3 1.4h-3c-.3-2.1-1-3.9-2-5.6-1-1.6-2.3-3-3.8-4.2-1.5-1.1-3.2-2-5.1-2.6-1.9-.6-3.8-.9-5.9-.9-3.2 0-6.1.6-8.6 1.9-2.5 1.2-4.7 2.9-6.4 5s-3.1 4.5-4 7.3-1.4 5.8-1.4 9 .5 6.2 1.4 9 2.3 5.3 4 7.3c1.7 2.1 3.9 3.8 6.4 5s5.4 1.9 8.6 1.9c2.4 0 4.6-.5 6.7-1.5 2.1-1 3.9-2.3 5.5-3.9s2.8-3.5 3.8-5.7c.9-2.1 1.5-4.4 1.6-6.7h3c-.3 2.9-1 5.7-2.2 8.1-1.2 2.5-2.7 4.6-4.5 6.4-1.8 1.8-3.9 3.2-6.3 4.2s-4.9 1.5-7.7 1.5c-3.7 0-7-.7-9.9-2s-5.4-3.2-7.4-5.5-3.5-5.1-4.6-8.2c-1-2.8-1.5-6.2-1.5-9.8zM139.5 55.8h4.3l19.2 45.9h.1l19-45.9h4.3V105h-3V59.5h-.1L164.6 105h-3l-19-45.5h-.1V105h-3V55.8zM227.4 69.9c-.1-2.1-.5-4-1.3-5.5-.8-1.6-1.9-2.9-3.3-3.9-1.4-1.1-3-1.8-4.9-2.4-1.9-.5-4-.8-6.2-.8-1.4 0-2.9.2-4.4.5s-3.1.9-4.4 1.7c-1.4.8-2.5 1.9-3.3 3.2-.9 1.4-1.3 3-1.3 5.1 0 2 .5 3.6 1.4 4.8 1 1.2 2.2 2.2 3.8 3s3.4 1.4 5.4 1.8c2 .5 4.1.9 6.1 1.3 2.1.4 4.2.9 6.2 1.5s3.8 1.4 5.4 2.3c1.6 1 2.9 2.3 3.8 3.9 1 1.6 1.4 3.6 1.4 6 0 2.6-.6 4.7-1.7 6.5-1.1 1.7-2.5 3.2-4.2 4.3s-3.5 1.9-5.6 2.4c-2 .5-4 .7-5.9.7-2.9 0-5.6-.3-8.1-.9-2.5-.6-4.7-1.6-6.6-3-1.9-1.4-3.4-3.2-4.4-5.4s-1.6-4.9-1.6-8.1h3c-.1 2.7.3 5 1.2 6.9s2.2 3.4 3.8 4.6c1.6 1.2 3.6 2.1 5.8 2.6s4.5.8 7 .8c1.5 0 3-.2 4.7-.6 1.7-.4 3.2-1 4.6-1.9 1.4-.9 2.6-2 3.5-3.4s1.4-3.2 1.4-5.4c0-2.1-.5-3.8-1.4-5.1-1-1.3-2.2-2.4-3.8-3.2s-3.4-1.4-5.4-1.9-4.1-.9-6.2-1.3c-2.1-.4-4.1-.9-6.1-1.4-2-.6-3.8-1.3-5.4-2.2-1.6-.9-2.8-2.2-3.8-3.7s-1.4-3.4-1.4-5.8c0-2.3.5-4.4 1.5-6 1-1.7 2.3-3 3.9-4.1s3.4-1.8 5.3-2.3c2-.5 3.9-.7 5.9-.7 2.6 0 5 .3 7.2.9s4.2 1.5 5.9 2.7 3 2.8 4 4.7c1 1.9 1.6 4.3 1.7 7h-3.2v-.2z"/></g><g><path class="st0" d="M68.8 180.7c.5.7 1.1 1.3 1.8 1.8.7.4 1.6.7 2.5.9.9.2 1.9.3 2.9.3.8 0 1.6-.1 2.4-.2.8-.1 1.6-.3 2.3-.6.7-.3 1.3-.7 1.7-1.3s.7-1.3.7-2.2c0-1.3-.5-2.2-1.4-2.8-.9-.6-2.1-1.2-3.6-1.6s-3-.8-4.6-1.1c-1.7-.3-3.2-.8-4.6-1.4-1.4-.6-2.6-1.4-3.6-2.5-.9-1.1-1.4-2.5-1.4-4.4 0-1.5.3-2.7 1-3.8.7-1.1 1.5-1.9 2.6-2.6 1-.7 2.2-1.2 3.5-1.5s2.6-.5 3.9-.5c1.7 0 3.2.1 4.6.4 1.4.3 2.6.8 3.7 1.5s1.9 1.6 2.6 2.8c.6 1.2 1 2.7 1.1 4.5h-4.8c-.1-.9-.3-1.7-.7-2.4-.4-.6-.9-1.1-1.6-1.5-.6-.4-1.4-.7-2.1-.8-.8-.2-1.6-.3-2.4-.3-.7 0-1.5.1-2.2.2-.7.1-1.4.3-2 .6-.6.3-1.1.7-1.5 1.1-.4.5-.6 1.1-.6 1.8 0 .8.3 1.5.9 2.1.6.6 1.3 1 2.2 1.4.9.4 1.9.7 3.1.9 1.1.2 2.3.5 3.4.8 1.2.3 2.4.6 3.6 1 1.2.4 2.2.9 3.1 1.5.9.6 1.6 1.4 2.2 2.4.5.9.8 2.1.8 3.5 0 1.8-.4 3.3-1.1 4.4s-1.7 2.1-2.9 2.8c-1.2.7-2.5 1.2-4 1.5-1.5.3-3 .4-4.5.4-1.6 0-3.2-.2-4.7-.5s-2.8-.9-3.9-1.7c-1.1-.8-2-1.8-2.7-3.1-.7-1.3-1.1-2.8-1.1-4.6h4.8c-.1 1.2.1 2.1.6 2.8zM113.3 187.3v-4.7h-.1c-1 1.8-2.3 3.2-3.9 4s-3.5 1.3-5.6 1.3c-1.9 0-3.5-.3-4.8-.8-1.3-.5-2.3-1.2-3.1-2.2-.8-.9-1.4-2.1-1.7-3.4-.3-1.3-.5-2.8-.5-4.4v-19.3h4.8v19.9c0 1.8.5 3.3 1.6 4.3 1.1 1.1 2.5 1.6 4.4 1.6 1.5 0 2.8-.2 3.8-.7 1.1-.5 2-1.1 2.7-1.9.7-.8 1.3-1.8 1.6-2.9.4-1.1.5-2.3.5-3.7v-16.6h4.8v29.4h-4.5zM130.2 157.9v4h.1c.8-1.6 2-2.8 3.8-3.6s3.6-1.1 5.6-1.1c2.3 0 4.3.4 5.9 1.3 1.7.8 3.1 2 4.2 3.4s2 3.1 2.5 4.9.9 3.8.9 5.9-.3 4.1-.8 5.9c-.6 1.9-1.4 3.5-2.5 4.9-1.1 1.4-2.5 2.5-4.2 3.3-1.7.8-3.7 1.2-5.9 1.2-.7 0-1.5-.1-2.4-.2-.9-.2-1.8-.4-2.6-.7-.9-.3-1.7-.8-2.5-1.4-.8-.6-1.4-1.3-2-2.2h-.1v15.1h-4.8V158h4.8zm17.4 10.4c-.4-1.3-.9-2.5-1.6-3.5s-1.7-1.8-2.8-2.4c-1.2-.6-2.5-.9-4.1-.9-1.6 0-3 .3-4.2 1-1.1.6-2.1 1.5-2.8 2.5-.7 1-1.2 2.2-1.6 3.6-.3 1.3-.5 2.7-.5 4 0 1.4.2 2.8.5 4.2.3 1.3.9 2.5 1.6 3.6.7 1 1.7 1.8 2.9 2.5 1.2.6 2.6.9 4.3.9 1.7 0 3.1-.3 4.2-1 1.1-.6 2-1.5 2.7-2.6.7-1.1 1.2-2.3 1.5-3.6.3-1.4.5-2.8.5-4.2-.1-1.4-.3-2.8-.6-4.1zM163.9 157.9v4h.1c.8-1.6 2-2.8 3.8-3.6 1.7-.7 3.6-1.1 5.6-1.1 2.3 0 4.3.4 5.9 1.3 1.7.8 3.1 2 4.2 3.4s2 3.1 2.5 4.9c.6 1.9.9 3.8.9 5.9s-.3 4.1-.8 5.9c-.6 1.9-1.4 3.5-2.5 4.9-1.1 1.4-2.5 2.5-4.2 3.3-1.7.8-3.7 1.2-5.9 1.2-.7 0-1.5-.1-2.4-.2-.9-.2-1.8-.4-2.6-.7-.9-.3-1.7-.8-2.5-1.4-.8-.6-1.4-1.3-2-2.2h-.1v15.1h-4.8V158h4.8zm17.4 10.4c-.4-1.3-.9-2.5-1.6-3.5-.7-1-1.7-1.8-2.8-2.4-1.2-.6-2.5-.9-4.1-.9-1.6 0-3 .3-4.2 1-1.1.6-2.1 1.5-2.8 2.5s-1.2 2.2-1.6 3.6c-.3 1.3-.5 2.7-.5 4 0 1.4.2 2.8.5 4.2.3 1.3.9 2.5 1.6 3.6.7 1 1.7 1.8 2.9 2.5 1.2.6 2.6.9 4.3.9s3.1-.3 4.2-1c1.1-.6 2-1.5 2.7-2.6.7-1.1 1.2-2.3 1.5-3.6.3-1.4.5-2.8.5-4.2-.1-1.4-.2-2.8-.6-4.1zM192 166.6c.6-1.9 1.5-3.5 2.7-4.9 1.2-1.4 2.7-2.5 4.5-3.3 1.8-.8 3.8-1.2 6.1-1.2 2.4 0 4.4.4 6.2 1.2s3.3 1.9 4.5 3.3c1.2 1.4 2.1 3 2.7 4.9.6 1.9.9 3.9.9 6.1s-.3 4.2-.9 6c-.6 1.9-1.5 3.5-2.7 4.9-1.2 1.4-2.7 2.5-4.5 3.2-1.8.8-3.8 1.2-6.2 1.2-2.3 0-4.4-.4-6.1-1.2-1.8-.8-3.3-1.9-4.5-3.2s-2.1-3-2.7-4.9c-.6-1.9-.9-3.9-.9-6s.3-4.3.9-6.1zm4.9 10.8c.5 1.4 1.1 2.5 2 3.5.8.9 1.8 1.6 2.9 2.1 1.1.5 2.3.7 3.6.7s2.4-.2 3.6-.7c1.1-.5 2.1-1.2 2.9-2.1.8-.9 1.5-2.1 2-3.5s.7-3 .7-4.8-.2-3.4-.7-4.8c-.5-1.4-1.1-2.6-2-3.5-.8-.9-1.8-1.7-2.9-2.2-1.1-.5-2.3-.7-3.6-.7s-2.4.2-3.6.7c-1.1.5-2.1 1.2-2.9 2.2-.8.9-1.5 2.1-2 3.5s-.7 3-.7 4.8.2 3.4.7 4.8zM229.7 157.9v6.2h.1c1.2-2.4 2.6-4.2 4.3-5.3s3.9-1.7 6.5-1.6v5.1c-1.9 0-3.6.3-5 .8s-2.5 1.3-3.3 2.3c-.8 1-1.4 2.3-1.8 3.7-.4 1.5-.6 3.1-.6 5v13.1h-4.8v-29.4h4.6zM256.8 157.9v4.3H251v18.3c0 .6 0 1 .1 1.4.1.3.3.6.5.8.3.2.6.3 1.1.4.5.1 1.1.1 1.8.1h2.2v4.3H253c-1.3 0-2.3-.1-3.2-.3-.9-.2-1.6-.5-2.2-.9-.6-.5-1-1.1-1.2-1.9-.3-.8-.4-1.9-.4-3.3v-18.7h-5v-4.3h5v-8.8h4.8v8.8h6z"/></g></svg>